<?xml version="1.0" encoding="UTF-8" standalone="no"?>
<!-- Created with Inkscape (http://www.inkscape.org/) -->

<svg
   xmlns:dc="http://purl.org/dc/elements/1.1/"
   xmlns:cc="http://creativecommons.org/ns#"
   xmlns:rdf="http://www.w3.org/1999/02/22-rdf-syntax-ns#"
   xmlns:svg="http://www.w3.org/2000/svg"
   xmlns="http://www.w3.org/2000/svg"
   xmlns:sodipodi="http://sodipodi.sourceforge.net/DTD/sodipodi-0.dtd"
   xmlns:inkscape="http://www.inkscape.org/namespaces/inkscape"
   width="210mm"
   height="297mm"
   viewBox="0 0 210 297"
   version="1.1"
   id="svg63687"
   inkscape:version="0.92.2 5c3e80d, 2017-08-06"
   sodipodi:docname="kidney.kidney.svg">
  <defs
     id="defs55" />
  <sodipodi:namedview
     id="base"
     pagecolor="#ffffff"
     bordercolor="#666666"
     borderopacity="1.0"
     inkscape:pageopacity="0.0"
     inkscape:pageshadow="2"
     inkscape:zoom="0.35"
     inkscape:cx="623.8654"
     inkscape:cy="888.589"
     inkscape:document-units="mm"
     inkscape:current-layer="layer1"
     showgrid="false"
     inkscape:window-width="1508"
     inkscape:window-height="856"
     inkscape:window-x="147"
     inkscape:window-y="73"
     inkscape:window-maximized="0" />
  <metadata
     id="metadata63684">
    <rdf:RDF>
      <cc:Work
         rdf:about="">
        <dc:format>image/svg+xml</dc:format>
        <dc:type
           rdf:resource="http://purl.org/dc/dcmitype/StillImage" />
        <dc:title />
      </cc:Work>
    </rdf:RDF>
  </metadata>
  <g
     inkscape:label="Outline"
     inkscape:groupmode="layer"
     id="layer1"
     style="display:inline">
    <path
       style="display:inline;opacity:0.73000004;fill:#1a1a1a;stroke-width:0.10997711"
       d="m 44.557786,284.84287 c -0.576612,-0.31219 -0.927765,-0.79591 -1.142008,-1.57315 -0.08516,-0.30886 -0.281734,-2.05886 -0.436915,-3.88892 -1.213818,-14.3157 -1.831755,-20.78049 -3.164573,-33.10758 -1.418788,-13.12223 -1.766638,-18.14799 -1.873062,-27.06278 -0.06572,-5.50292 0.03612,-9.40409 0.354386,-13.58686 0.739932,-9.72284 2.485786,-18.5975 5.268326,-26.78054 0.362078,-1.0648 0.647924,-1.94498 0.635244,-1.95598 -0.131267,-0.11371 -2.451154,-1.23467 -3.08473,-1.49065 -1.549556,-0.62607 -6.279238,-1.99493 -9.588033,-2.77492 -1.321447,-0.31154 -2.597183,-0.46794 -6.314627,-0.77426 -0.774098,-0.0638 -1.46111,-0.15158 -1.526692,-0.19498 -0.06554,-0.0436 -1.93491,-0.10424 -4.154068,-0.13514 -3.800626,-0.0529 -4.060115,-0.0694 -4.471,-0.28472 -0.480218,-0.2516 -1.062457,-1.05652 -1.454952,-2.01136 -0.501878,-1.22093 -0.889606,-4.60945 -0.889606,-7.77461 v -1.85174 h -1.71752 c -1.6840403,0 -1.7375279,-0.009 -2.7434171,-0.38036 -0.5642256,-0.2092 -1.2213362,-0.53363 -1.4602324,-0.72094 -0.4906952,-0.38474 -1.5431732,-2.08631 -1.9140248,-3.09444 -0.9968228,-2.70978 -1.2748754,-4.64744 -1.1725798,-8.17107 0.075698,-2.61065 0.1042563,-2.89268 0.5387636,-5.32384 0.40815,-2.28411 1.100873,-4.01802 2.096612,-5.24791 0.2872396,-0.35475 0.6583492,-0.71661 0.82473,-0.80411 0.3933718,-0.20691 2.3945354,-0.2118 4.2397435,-0.0101 2.55505,0.2789 12.246704,0.33184 17.338119,0.0948 1.709348,-0.0797 4.107066,-0.1917 5.3283,-0.24905 1.221216,-0.0574 2.865136,-0.17846 3.653135,-0.26914 0.788017,-0.0907 2.757697,-0.26587 4.377067,-0.38933 3.656662,-0.27873 6.033409,-0.56285 8.287731,-0.99068 0.959627,-0.18213 2.749886,-0.51396 3.978345,-0.7374 1.983529,-0.36077 3.69286,-0.79612 10.227836,-2.60494 0.616148,-0.17046 1.79389,-0.53563 2.617174,-0.81131 0.823268,-0.27569 2.238408,-0.72665 3.14472,-1.00214 2.515446,-0.76465 5.307654,-1.8101 8.218296,-3.07711 l 2.63768,-1.1482 -0.734391,-0.0844 c -5.10628,-0.58782 -9.914619,-3.14337 -14.628473,-7.77472 -5.918934,-5.81532 -9.876254,-13.15316 -12.121304,-22.475888 -1.965104,-8.160139 -2.284601,-17.194171 -0.92964,-26.285935 2.1341,-14.319715 8.121108,-26.8651 18.116674,-37.962324 8.62309,-9.573473 20.046526,-16.284532 32.50256,-19.094648 4.54859,-1.0261769 8.09943,-1.413268 12.94516,-1.411205 4.25708,0.00131 6.98041,0.2519764 10.46869,0.961556 8.36904,1.702449 15.84809,5.350913 25.35305,12.367845 16.27366,12.013892 29.99309,28.612409 39.92195,48.299793 9.02502,17.895184 14.74492,37.742026 16.66998,57.841186 1.56236,16.31229 0.51857,33.85466 -2.83929,47.71858 -2.89886,11.96872 -7.19503,21.28216 -13.57178,29.4215 -1.62856,2.07871 -2.5138,3.60936 -3.25481,5.62785 -0.57546,1.56752 -0.79153,2.59672 -1.15866,5.51889 -0.64867,5.16338 -1.44848,8.97353 -2.82717,13.46826 -4.2688,13.91677 -13.4731,27.20049 -24.81523,35.81351 -12.73091,9.66767 -28.43104,14.15555 -44.65556,12.76477 -12.05932,-1.03374 -23.636584,-5.59836 -32.496592,-12.81256 -8.162312,-6.64612 -14.543106,-15.84999 -18.557872,-26.76844 -2.455128,-6.67693 -3.704438,-13.41137 -3.869236,-20.85728 -0.209134,-9.44977 1.251288,-17.27122 4.494054,-24.06831 2.69005,-5.63854 6.717908,-10.41583 11.866976,-14.07503 0.652138,-0.46343 1.128434,-0.84261 1.058482,-0.84261 -0.291094,0 -2.317616,0.83649 -3.275076,1.35185 -3.891516,2.09462 -6.942576,5.06762 -9.972804,9.71755 -1.483956,2.27714 -2.270717,3.69041 -3.559734,6.3943 -1.216124,2.55101 -1.835678,4.09273 -2.738204,6.81394 -3.888626,11.72473 -5.357976,27.47838 -4.175315,44.76577 0.552458,8.07564 1.147737,13.35329 3.058751,27.11826 0.919387,6.62227 0.948324,7.13158 0.443384,7.8049 -0.16688,0.2226 -0.509224,0.51292 -0.760644,0.64517 -0.435299,0.22895 -0.649937,0.24437 -4.49194,0.32199 -2.219156,0.0447 -4.844519,0.11435 -5.834133,0.15456 -1.757158,0.0714 -1.810801,0.0668 -2.290021,-0.19264 z m 9.269156,-4.14233 c 0,-0.0368 -0.121119,-1.0723 -0.269278,-2.30144 -0.148128,-1.22915 -0.41634,-3.48257 -0.596054,-5.00762 -0.17973,-1.52506 -0.620792,-5.24343 -0.980152,-8.26303 -1.199005,-10.07476 -1.489048,-13.04632 -1.748263,-17.91246 -0.09668,-1.81563 -0.131439,-2.91604 -0.274509,-8.70668 -0.05298,-2.14101 0.101679,-8.25062 0.27014,-10.6782 0.67975,-9.79403 2.196946,-17.65003 5.067466,-26.23912 1.931006,-5.77792 4.051532,-10.01174 7.14882,-14.27325 3.580156,-4.92585 7.333746,-8.34455 11.392314,-10.37591 2.498431,-1.2505 4.692952,-1.86235 7.573864,-2.11171 1.206007,-0.10436 1.567259,-0.0907 3.048016,0.11422 1.122911,0.15543 2.261771,0.23274 3.435039,0.23306 0.965357,0 2.542903,0.0742 3.505645,0.16435 2.707426,0.25337 7.309774,0.92777 7.907255,1.15869 2.146715,0.82963 3.098495,2.38808 3.086635,5.05408 -0.003,0.99757 -0.0592,1.40062 -0.3005,2.21014 -0.5772,1.93657 -1.77498,3.921 -3.753608,6.21882 -0.557567,0.64749 -1.040194,1.24736 -1.072503,1.333 -0.03614,0.0957 0.08172,0.24287 0.305613,0.38165 0.48741,0.30225 1.09924,0.29289 3.882928,-0.0593 2.52734,-0.31977 3.25915,-0.29908 4.14234,0.11713 0.68104,0.32092 1.35107,0.98665 1.70207,1.69116 0.14572,0.29234 0.51476,1.52068 0.82026,2.72965 0.5594,2.2138 1.16478,3.7964 1.63528,4.27493 0.32786,0.33346 0.78251,0.3016 1.14201,-0.0801 0.40235,-0.42717 0.46786,-0.73728 0.67142,-3.17835 0.0967,-1.15904 0.22292,-2.32319 0.28057,-2.58701 0.25069,-1.1468 1.11888,-2.24341 2.13972,-2.70269 0.61753,-0.27784 1.96825,-0.38329 2.74349,-0.21418 1.85257,0.40408 3.11449,1.67249 3.55498,3.57324 0.48273,2.08284 -0.0432,5.91282 -1.25858,9.16358 -0.51146,1.36811 -0.59509,1.83833 -0.43468,2.44423 0.12336,0.46603 0.67759,1.29979 0.99916,1.50316 0.35014,0.22144 0.73276,-0.0217 1.39658,-0.88763 0.35941,-0.46882 0.91368,-1.32217 1.23173,-1.89633 0.71698,-1.29437 1.50137,-2.14737 2.34385,-2.54882 0.53593,-0.25539 0.76787,-0.2999 1.50588,-0.28892 1.06286,0.0158 1.67595,0.23454 3.4659,1.23666 1.44293,0.80782 2.86065,1.35403 3.51323,1.35353 0.67368,0 1.24271,-0.39067 1.6135,-1.10623 0.27696,-0.53442 0.30951,-0.69459 0.26378,-1.29843 -0.0354,-0.46725 -0.14142,-0.84181 -0.32993,-1.16458 -0.39897,-0.68338 -1.52242,-2.07709 -2.75551,-3.41841 -2.4063,-2.61752 -3.41943,-5.02649 -3.28713,-7.81595 0.0911,-1.91675 0.62242,-3.36894 1.62947,-4.45194 0.95142,-1.02316 2.02335,-1.57146 3.56066,-1.82125 1.46808,-0.23853 3.04071,0.26772 4.21091,1.35551 0.3322,0.30879 0.90797,0.99257 1.27949,1.51951 1.3749,1.95007 2.41497,3.25543 2.79859,3.51242 0.21691,0.14529 0.68882,0.34267 1.04867,0.43858 1.47429,0.39293 2.49467,-0.24741 2.64116,-1.65752 0.0329,-0.31671 -0.12834,-1.08287 -0.54991,-2.61295 -0.97642,-3.54375 -1.02196,-4.57739 -0.26526,-6.02138 0.40475,-0.77238 1.00605,-1.34158 2.53634,-2.40105 1.47394,-1.02043 1.86716,-1.43608 2.08734,-2.20647 0.34138,-1.1944 -0.22689,-2.52556 -1.30781,-3.06345 -0.52173,-0.25963 -0.78199,-0.30897 -1.89195,-0.3588 -1.13717,-0.0509 -1.68693,0.001 -4.72206,0.44746 -4.99458,0.73462 -5.60902,0.7887 -8.94201,0.78724 -3.24194,-0.001 -4.58932,-0.13113 -6.97915,-0.67158 -8.16155,-1.84599 -13.82215,-7.26676 -15.12412,-14.48343 -0.27535,-1.52614 -0.2475,-4.33811 0.0576,-5.80671 0.71971,-3.46537 2.02155,-5.8863 4.53168,-8.42722 2.76838,-2.80232 5.88526,-4.47921 9.88064,-5.31574 3.4275,-0.71763 6.50337,-0.41896 9.12366,0.88594 1.38563,0.69003 2.35119,1.45365 4.98794,3.9447 3.29325,3.11122 3.84874,3.61495 4.69934,4.26153 1.66636,1.26664 2.63092,1.63627 4.31197,1.65233 1.43668,0.014 1.68829,-0.11207 1.80329,-0.90194 0.0424,-0.29092 0.14366,-0.72239 0.2251,-0.95882 0.33462,-0.97153 0.26175,-1.20812 -1.12822,-3.66269 -1.03125,-1.8211 -1.48618,-2.94425 -1.78125,-4.39767 -0.3958,-1.94954 -0.20867,-3.00663 0.79905,-4.51355 0.47241,-0.70643 0.66827,-1.57229 0.59414,-2.62624 -0.0424,-0.60055 -0.10371,-0.81344 -0.27647,-0.95562 -0.19569,-0.16119 -1.77051,-0.5309 -3.02092,-0.70923 -0.23989,-0.0342 -1.51576,-0.1383 -2.83527,-0.2315 -4.05858,-0.28641 -5.69091,-0.60882 -7.53674,-1.48859 -1.20871,-0.57611 -2.11892,-1.22025 -3.13212,-2.21655 -1.11746,-1.09882 -1.81578,-2.07054 -2.41947,-3.36671 -0.81893,-1.75836 -0.96583,-2.47904 -0.96583,-4.7383 0,-2.22423 0.14485,-2.96072 0.90794,-4.61701 1.423,-3.08851 4.36893,-5.47937 7.5828,-6.15403 1.33995,-0.2813 2.73144,-0.26235 4.96133,0.0677 1.99776,0.29558 2.03879,0.2917 2.52659,-0.23967 0.70407,-0.76693 0.92128,-1.50974 0.58451,-1.99878 -0.0894,-0.12991 -0.75335,-0.6434 -1.47526,-1.14106 -0.8508,-0.58651 -1.47102,-1.10713 -1.76293,-1.47987 -0.59837,-0.76402 -1.23778,-2.16865 -1.58936,-3.49139 -0.2603,-0.979334 -0.28662,-1.266767 -0.29144,-3.183866 -0.005,-1.898424 0.0243,-2.244656 0.29364,-3.492508 0.16447,-0.761839 0.29894,-1.417534 0.29894,-1.457117 0,-0.134975 -1.44228,-0.695855 -1.78488,-0.694089 -0.2285,0.0012 -1.38857,0.566107 -3.50401,1.706331 -5.36551,2.892046 -6.08643,3.171699 -7.4913,2.905963 -2.51501,-0.475717 -3.95885,-2.719692 -3.76079,-5.844937 0.15999,-2.524605 0.81981,-3.789226 4.4355,-8.501213 2.24906,-2.930965 2.63454,-3.556342 2.8943,-4.695551 0.27244,-1.194825 0.0172,-1.934529 -0.79318,-2.299153 -0.71256,-0.320583 -1.2933,-0.229038 -3.59374,0.566544 -2.27368,0.786351 -3.16776,0.951258 -4.66761,0.860972 -1.46658,-0.08829 -2.28271,-0.312662 -3.70767,-1.019392 -1.62405,-0.805479 -2.95212,-2.00901 -3.72923,-3.379476 -0.78635,-1.38678 -1.4122,-1.975057 -1.95406,-1.836743 -0.35719,0.0911 -0.86599,0.837386 -1.02201,1.498885 -0.20064,0.85064 -0.007,1.52609 0.87584,3.062688 1.0319,1.795026 1.12534,2.069469 1.06373,3.123969 -0.12164,2.081166 -1.7506,3.677068 -3.63104,3.557234 -1.08947,-0.06942 -1.49437,-0.351896 -3.57049,-2.490933 -1.99526,-2.055744 -3.14381,-3.032563 -3.8253,-3.253314 -0.71457,-0.231467 -1.92789,0.192776 -1.92789,0.674123 0,0.54086 0.87362,1.487172 2.78075,3.012038 1.02327,0.818188 1.51744,1.510266 1.69318,2.371274 0.16395,0.803397 0.0657,1.482817 -0.33784,2.333736 -0.35086,0.739967 -1.09441,1.563033 -3.06405,3.391697 -0.90834,0.843314 -1.23715,1.230143 -1.49944,1.763975 -0.55523,1.130117 -0.3997,2.157255 0.37661,2.487174 0.54758,0.232692 0.84868,0.198878 2.23175,-0.25063 1.14562,-0.372334 1.36723,-0.408282 2.56266,-0.415589 1.23431,-0.007 1.34574,0.01049 1.96288,0.31754 1.74787,0.869644 2.9451,3.155545 3.38649,6.46589 0.3829,2.871518 0.31286,7.238148 -0.16774,10.455568 -1.22789,8.22146 -4.22804,13.96397 -9.31258,17.82501 -1.616633,1.22763 -2.876627,1.93717 -6.119737,3.44624 -5.929747,2.75922 -9.789659,4.76932 -11.841885,6.16678 -0.840489,0.57233 -2.961943,2.29548 -2.901626,2.35684 0.01754,0.0181 0.850812,0.0828 1.851488,0.14371 2.049232,0.12521 2.30301,0.20794 2.669853,0.87179 0.20189,0.36535 0.244195,0.61237 0.244195,1.42581 0,2.12854 -0.918544,4.2489 -2.334992,5.39001 l -0.554798,0.44699 -1.254076,-0.0686 c -0.689729,-0.0375 -1.523956,-0.14091 -1.853827,-0.22947 -0.329872,-0.0884 -1.154636,-0.24255 -1.832788,-0.34222 -0.678151,-0.0997 -1.876468,-0.37747 -2.662902,-0.61734 -0.786451,-0.23986 -1.492335,-0.43611 -1.568652,-0.43611 -0.257494,0 -2.274193,1.88527 -2.351181,2.19795 -0.04026,0.16365 -0.153461,0.71109 -0.251507,1.21645 -0.187507,0.96685 -0.686461,2.33992 -1.010207,2.78004 -0.105461,0.14337 -0.437071,0.40331 -0.736938,0.57768 -0.608096,0.35357 -1.345378,0.41338 -2.671693,0.2168 l -0.708827,-0.10512 -1.12544,1.13321 c -1.647189,1.65862 -1.54455,1.43888 -1.655878,3.54525 -0.127998,2.42272 -0.490867,3.7229 -1.300767,4.66108 -0.486239,0.56327 -0.861805,0.64012 -2.782591,0.5692 l -1.641151,-0.0605 -0.777315,1.14478 c -0.427522,0.62962 -1.053132,1.58091 -1.390195,2.11398 l -0.612896,0.96921 0.444348,0.28532 c 0.755999,0.48539 1.03579,1.50372 0.868566,3.16124 -0.212884,2.1098 -2.009817,6.65284 -3.44574,8.71146 -0.520424,0.74611 -1.525247,1.7303 -2.046497,2.00445 -0.525361,0.27631 -1.424344,0.22261 -1.926033,-0.1151 l -0.417492,-0.28101 -0.603709,1.8525 c -3.685738,11.30988 -5.381511,24.1015 -5.156568,38.89745 0.154321,10.15354 0.64173,16.00362 3.442007,41.31515 0.39843,3.60143 1.182765,11.73489 1.59365,16.52605 0.09152,1.06753 0.192841,2.20301 0.225082,2.52327 l 0.05866,0.5823 h 3.263635 c 1.79499,0 3.263618,-0.0301 3.263618,-0.0666 z M 117.34796,122.01219 c -1.31018,-0.44131 -2.26225,-1.30455 -2.96707,-2.69027 -1.01062,-1.98687 -1.3952,-4.0964 -1.31224,-7.19809 0.047,-1.75908 0.0924,-2.14809 0.38226,-3.27195 0.39705,-1.53996 1.02842,-3.04877 1.72927,-4.13249 0.91163,-1.40961 3.01173,-3.34349 3.86,-3.55445 0.15105,-0.0376 0.61719,0.004 1.03596,0.093 2.1923,0.46443 3.66007,1.94335 4.5095,4.54381 0.58234,1.78278 0.71937,4.11909 0.3916,6.67683 -0.60643,4.73207 -2.32281,8.19453 -4.61691,9.31368 -0.4983,0.24308 -0.79729,0.30551 -1.59472,0.333 -0.61059,0.0211 -1.14627,-0.0217 -1.41765,-0.11312 z m 2.51929,-1.55828 c 1.28758,-0.60978 2.16642,-1.97067 3.02652,-4.68663 0.68215,-2.15406 0.88209,-3.53942 0.87795,-6.08356 -0.003,-2.42855 -0.13454,-3.20609 -0.7676,-4.56923 -0.60911,-1.31169 -1.86814,-2.31893 -3.05417,-2.44343 -0.53576,-0.0561 -0.63325,-0.0288 -1.15731,0.32572 -2.34789,1.5883 -3.9759,4.73551 -4.3477,8.40471 -0.15931,1.57203 -0.005,4.11916 0.33094,5.4541 0.46343,1.84288 1.50713,3.2433 2.77012,3.71691 0.61702,0.23138 1.69901,0.1761 2.32125,-0.11854 z m 4.40533,154.98613 c 13.64975,-0.77212 25.95935,-5.60728 36.05313,-14.16156 11.01052,-9.3312 18.55958,-21.57636 22.003,-35.69056 0.69686,-2.85638 0.83297,-3.60749 1.86908,-10.31491 0.16018,-1.03703 0.4373,-2.47663 0.61575,-3.19906 0.17845,-0.72243 0.30235,-1.33603 0.2753,-1.36354 -0.062,-0.0629 -2.32695,2.42989 -3.23681,3.5624 -0.37541,0.46728 -1.13225,1.53199 -1.68189,2.36602 -0.54963,0.83405 -1.08582,1.53338 -1.19155,1.55408 -0.10587,0.0206 -0.3125,-0.0425 -0.45951,-0.14039 -0.42284,-0.28179 -0.34948,-0.72461 0.30169,-1.82127 1.331,-2.24151 3.27209,-4.5537 6.1583,-7.33567 1.23394,-1.18939 1.75955,-1.81988 3.69855,-4.43654 1.24308,-1.67754 2.71183,-3.7239 3.26384,-4.54743 9.98129,-14.89068 14.54564,-36.28501 13.34567,-62.55499 -0.40636,-8.89651 -1.4443,-17.05915 -3.27907,-25.78731 -5.21249,-24.796416 -16.44161,-48.088758 -31.97502,-66.325212 -9.23466,-10.841576 -18.71201,-18.649737 -29.73027,-24.494014 -6.04849,-3.208249 -12.0782,-5.105713 -18.42925,-5.799487 -2.06193,-0.225226 -6.53018,-0.256469 -8.56037,-0.0598 -8.56752,0.829797 -18.357933,3.550244 -25.043945,6.958937 -10.025706,5.111346 -18.328095,13.718932 -24.410157,25.307483 -4.12014,7.850369 -6.560474,15.941552 -7.484643,24.816148 -0.229193,2.200878 -0.263739,8.14799 -0.06022,10.370371 0.99605,10.878187 4.777992,21.349874 10.17122,28.162824 3.446014,4.35313 7.339836,7.23148 11.704206,8.65188 0.936058,0.30466 2.433606,0.68173 2.661388,0.67014 0.04112,-0.002 -0.85974,-0.48872 -2.001782,-1.08141 -4.56977,-2.37155 -7.763988,-5.0931 -10.832734,-9.22971 -7.862686,-10.598723 -10.218564,-24.635602 -6.93413,-41.315138 1.37466,-6.980975 3.219284,-12.546629 6.12053,-18.467044 6.675002,-13.621273 16.62193,-23.284796 29.318566,-28.483232 8.208661,-3.360901 16.473671,-4.412935 24.915911,-3.171463 5.06231,0.744432 9.97034,2.36799 15.26685,5.050222 3.16144,1.601 4.67184,2.482314 7.46986,4.358624 9.72806,6.52355 18.92837,16.077268 28.31217,29.399757 9.27031,13.161347 16.13925,26.808897 20.90596,41.536944 3.83507,11.8495 5.989,23.33329 6.67782,35.60311 0.15914,2.83456 0.15914,10.33519 -2e-5,13.14321 -1.05433,18.60311 -5.92137,35.34756 -14.81371,50.96459 -4.56896,8.02416 -12.18719,19.09425 -19.80718,28.78193 -4.75941,6.05092 -7.69582,9.4887 -10.80242,12.64694 -2.55156,2.59393 -4.39353,4.26073 -6.87519,6.22129 -11.29714,8.92506 -23.41402,12.57871 -36.74871,11.08095 -7.84545,-0.8812 -14.425591,-3.3329 -21.155123,-7.88227 -6.921828,-4.67933 -12.251022,-10.79528 -16.064568,-18.43618 -2.776794,-5.56363 -4.320432,-10.56403 -4.989877,-16.1639 -0.254121,-2.12553 -0.254415,-6.52536 -5.51e-4,-8.6405 0.791716,-6.59763 2.61339,-11.65887 5.757112,-15.99527 1.115754,-1.53907 3.723466,-4.18172 5.101858,-5.17023 1.980398,-1.42022 4.357248,-2.49827 6.596154,-2.99173 1.439348,-0.31725 4.676334,-0.40016 6.0854,-0.15578 2.657156,0.46067 4.455992,1.46041 6.313141,3.50862 0.496597,0.54764 0.943663,0.99574 0.993503,0.99574 0.144686,0 1.023941,-1.98272 1.229541,-2.77282 0.11234,-0.43232 0.18902,-1.14277 0.19116,-1.77462 0.003,-1.26897 -0.20268,-1.8376 -0.90213,-2.47845 -0.490391,-0.44932 -2.152943,-1.292 -2.551821,-1.29343 -0.12903,0 -1.314084,-0.228 -2.63358,-0.50563 -1.7249,-0.36294 -2.770358,-0.52259 -3.720282,-0.56813 l -1.32119,-0.0633 0.05248,0.55603 c 0.05764,0.60966 -0.107358,1.25115 -0.439066,1.70826 -0.281082,0.38728 -0.892206,0.70933 -2.80518,1.47827 -3.207998,1.28951 -6.706004,3.31171 -9.050682,5.23222 -1.304552,1.06856 -3.247584,3.00289 -4.327502,4.30814 -1.904718,2.30218 -4.15589,6.09552 -5.305486,8.94006 -1.62109,4.01122 -2.637062,8.45808 -3.139508,13.74167 -0.193338,2.03284 -0.162922,7.18615 0.05678,9.64944 0.741376,8.30941 2.654902,15.4225 6.012162,22.34901 2.888706,5.95977 6.218439,10.76759 10.409392,15.03018 4.054232,4.12352 8.303592,7.18291 13.726118,9.88237 9.236085,4.59788 19.076395,6.6531 29.131575,6.08432 z m -1.96289,-20.17542 c 7.58882,-1.04758 14.31202,-3.62843 20.61027,-7.91168 8.30616,-5.64879 15.63757,-13.60134 27.32478,-29.63984 11.72036,-16.08403 18.94737,-29.33234 23.05185,-42.2579 2.46434,-7.76044 4.10779,-15.8988 4.84915,-24.01269 0.39031,-4.27171 0.44165,-5.58733 0.44148,-11.31313 0,-6.69883 -0.17241,-9.73657 -0.87724,-15.47238 -2.33312,-18.98708 -9.05657,-38.344559 -19.43515,-55.955667 -6.17831,-10.483831 -14.09702,-20.95244 -21.69595,-28.682222 -12.0487,-12.256178 -24.02232,-19.01681 -36.83182,-20.796206 -2.06506,-0.286864 -6.85393,-0.406284 -8.98794,-0.224141 -11.627546,0.992453 -22.66956,6.405298 -31.580578,15.480972 -6.81974,6.945736 -11.960634,15.905528 -15.172106,26.442634 -2.332256,7.652294 -3.536492,16.513008 -3.197744,23.528606 0.547693,11.342592 4.09831,20.304854 10.84777,27.381344 3.292142,3.45167 6.601144,5.71757 10.059719,6.88863 2.429838,0.82274 4.910429,1.1625 6.564431,0.89913 1.6417,-0.26142 3.978722,-1.27417 5.697464,-2.46898 3.852094,-2.67785 6.307364,-7.43619 7.086554,-13.73397 0.18981,-1.53413 0.188,-7.323278 -0.003,-8.762142 -0.21214,-1.600466 -0.25333,-1.689825 -0.88389,-1.917605 -0.631325,-0.228075 -1.100465,-0.601914 -1.424469,-1.135117 l -0.23179,-0.381444 -0.564864,0.288395 c -0.786932,0.40176 -2.937936,1.79688 -6.868712,4.45494 -5.4153,3.661892 -7.527464,4.573533 -10.653276,4.598043 -1.674132,0.014 -2.37224,-0.19166 -3.068954,-0.900273 -0.75194,-0.764812 -0.913692,-1.421065 -0.795982,-3.229362 0.20447,-3.141469 0.103399,-4.128954 -0.61749,-6.03682 -0.395832,-1.047419 -0.507624,-2.11393 -0.32213,-3.072917 0.07328,-0.379048 0.4284,-1.616987 0.78905,-2.751004 0.963102,-3.028262 0.965046,-3.501409 0.0258,-6.30941 -0.841952,-2.517264 -0.713558,-3.698889 0.781342,-7.190716 0.92687,-2.165052 1.139082,-4.364531 0.645497,-6.690207 -0.224445,-1.057489 -0.225047,-2.854451 -0.0013,-3.711138 0.269984,-1.033469 0.903387,-2.15425 1.651835,-2.922826 2.161815,-2.219948 5.360504,-2.07615 7.52552,0.33832 0.642522,0.716542 1.549918,2.182534 3.309742,5.347113 2.315482,4.1638 2.53776,4.548233 3.204436,5.542694 0.741134,1.105466 2.360464,2.881923 3.303317,3.623813 0.337561,0.265614 1.131239,0.813049 1.76373,1.216522 l 1.149957,0.733585 0.416041,-0.306526 c 0.32559,-0.239895 0.58769,-0.322296 1.20541,-0.378944 1.21892,-0.111717 1.30488,-0.142142 2.37177,-0.837963 1.74861,-1.14038 3.4216,-1.700141 5.55321,-1.858002 l 1.10949,-0.08218 0.25817,-0.646988 c 0.36285,-0.909315 0.75109,-1.466033 1.26238,-1.810184 0.24208,-0.162949 0.41741,-0.356495 0.38962,-0.430137 -0.0279,-0.07361 -0.6723,-2.373913 -1.43224,-5.111718 -0.75994,-2.737794 -2.0445,-7.348578 -2.85455,-10.246186 -0.81006,-2.897609 -1.57255,-5.717576 -1.69442,-6.266596 -0.30112,-1.35662 -0.32285,-3.604471 -0.0439,-4.542691 0.54484,-1.832411 1.54447,-2.930805 3.28513,-3.60967 0.50525,-0.197063 0.89026,-0.257678 1.69025,-0.266114 1.27701,-0.01346 1.90399,0.171289 3.16242,0.93184 2.12216,1.282566 3.55206,1.253418 5.81968,-0.118678 0.48777,-0.295129 1.35127,-0.693919 1.9189,-0.886227 1.69999,-0.575926 2.42053,-0.394781 3.82062,0.960451 1.45613,1.409492 2.01519,1.531453 4.30743,0.93966 0.71972,-0.18581 1.53277,-0.338489 1.80678,-0.339276 0.59875,-0.0013 1.54062,0.26555 2.06446,0.585806 0.57932,0.354184 1.77326,1.557586 2.78885,2.811031 1.38992,1.715377 2.2735,2.316351 4.78874,3.256994 1.48175,0.554128 2.21084,0.987004 2.99305,1.777024 1.06761,1.078193 1.53506,2.294199 1.53219,3.985576 -0.001,1.563101 -0.39007,2.902561 -1.29654,4.482718 -0.6007,1.047159 -1.31879,1.940158 -3.22173,4.006563 -0.78649,0.854024 -2.87857,3.124969 -4.6491,5.046543 -5.35035,5.806804 -6.64313,7.228253 -6.64313,7.304395 0,0.04004 0.20524,0.137948 0.4561,0.217552 0.9368,0.29738 1.51667,1.010842 1.72362,2.120713 0.1421,0.761769 -0.0154,1.457606 -0.79963,3.531096 l -0.59835,1.582266 0.89906,0.763779 c 1.31155,1.114189 1.75739,1.697222 3.14403,4.111821 0.33281,0.579517 0.83899,1.378089 1.12488,1.774605 0.63395,0.879364 1.96393,2.296774 2.34349,2.497576 0.15294,0.08095 0.729,0.198301 1.28011,0.260893 1.08727,0.123441 1.75912,0.372982 2.23686,0.83076 0.1681,0.161026 0.33978,0.288499 0.38166,0.283324 0.0419,-0.0053 0.51783,-0.512501 1.05763,-1.127389 3.977,-4.53026 6.37342,-8.107967 8.52508,-12.727343 1.2686,-2.723536 1.70813,-3.563738 2.49505,-4.769263 1.29257,-1.980197 2.68254,-3.253139 4.13767,-3.789331 0.88366,-0.325602 2.62466,-0.408597 3.45032,-0.164524 1.67291,0.494653 2.41197,1.594557 2.86482,4.263597 0.33083,1.949741 0.96786,3.354774 2.57507,5.679505 1.65558,2.394737 2.13042,3.257632 8.97175,16.304229 3.09084,5.894349 3.30136,6.420589 3.21763,8.043109 -0.0674,1.30586 -0.57242,2.33466 -1.71805,3.49987 -1.33977,1.3627 -2.78413,1.98359 -5.20299,2.23663 -1.59941,0.16732 -3.4527,-0.036 -7.28844,-0.79992 -3.23915,-0.64505 -5.49296,-1.03801 -7.14274,-1.24535 -1.51382,-0.19028 -8.18611,-0.19051 -10.0325,-3.3e-4 -2.09219,0.21545 -1.96287,0.1598 -1.96287,0.84373 0,0.74642 -0.2432,1.46504 -0.67688,2.00016 -0.38129,0.47049 -1.27273,0.94689 -1.77674,0.94951 -1.01888,0.005 -1.72541,0.53118 -2.28771,1.7028 -0.54487,1.13528 -0.71557,1.92187 -0.78589,3.62149 -0.2172,5.24846 1.57194,10.01505 5.03732,13.4205 0.34144,0.3355 0.7315,0.78483 0.86682,0.9985 0.20873,0.32955 0.35886,0.41906 0.98987,0.59007 0.85588,0.23195 1.46416,0.52483 2.02942,0.97718 0.21855,0.17489 0.51582,0.31798 0.6606,0.31798 0.14486,0 1.16825,-0.2471 2.27433,-0.54912 7.01881,-1.91639 13.62807,-4.65208 19.8398,-8.21198 3.01215,-1.72624 4.2656,-2.24892 5.72588,-2.38758 1.93106,-0.18336 3.68446,0.69097 4.4158,2.20194 0.36781,0.75992 0.48334,1.36395 0.65045,3.40109 0.18325,2.23398 0.56409,3.45563 1.71152,5.49021 1.16659,2.06854 1.38706,3.70593 0.88855,6.5993 -0.3338,1.93723 -0.35152,5.27251 -0.0353,6.65479 0.1526,0.66719 0.2149,1.33187 0.21309,2.27374 -0.004,1.5897 -0.22821,2.52811 -0.99291,4.13785 -0.83299,1.75342 -1.21716,3.36652 -1.39187,5.84432 -0.16378,2.32251 -0.33573,3.00325 -0.97459,3.85781 -0.37438,0.50078 -1.29461,1.12419 -1.92051,1.30107 -0.62153,0.17562 -1.95236,0.1242 -2.92547,-0.11308 -1.37671,-0.3357 -2.50134,-0.83969 -10.70717,-4.79831 -14.54217,-7.01543 -15.57764,-7.5123 -15.65514,-7.5123 -0.0429,0 -0.29553,0.20391 -0.56137,0.45313 -0.26582,0.24923 -0.81111,0.61018 -1.21174,0.80212 -0.67106,0.32153 -0.8185,0.34915 -1.8734,0.35099 -2.38946,0.004 -3.85467,-0.81461 -7.52439,-4.20484 -1.19931,-1.10796 -1.2977,-1.15502 -1.78074,-0.85136 -1.58657,0.99732 -2.22088,3.02204 -2.47072,7.88649 -0.18511,3.60431 -0.56391,5.7161 -1.4722,8.20757 -1.0284,2.82084 -1.29654,5.74306 -0.76841,8.37393 0.30173,1.50311 0.35086,1.60826 0.75132,1.60826 0.192,0 2.08973,-0.25485 4.21721,-0.56631 6.63483,-0.97136 8.6224,-0.87206 10.416,0.52044 0.55643,0.43201 0.9572,0.61954 1.16637,0.54582 0.36841,-0.12989 6.15641,-0.98124 8.29268,-1.21988 5.82462,-0.65066 15.24708,-1.12034 16.90601,-0.84274 2.20931,0.36973 3.41424,1.68066 3.94446,4.29147 0.15691,0.77252 0.16396,1.24066 0.061,4.0359 -0.13557,3.67736 -0.24421,4.875 -0.61169,6.7408 -0.44874,2.2784 -1.30884,4.70926 -2.28612,6.46105 -1.3664,2.44927 -1.61157,3.23835 -1.91203,6.15348 -0.3403,3.30192 -0.88152,4.85416 -2.13843,6.13315 -1.39501,1.41949 -3.30963,1.68966 -5.60198,0.79052 -2.23645,-0.8772 -11.26585,-7.27521 -18.13037,-12.84671 -1.24747,-1.01249 -2.30829,-1.84089 -2.3574,-1.84089 -0.0491,0 -0.27335,0.24956 -0.49836,0.55459 -0.72379,0.98117 -1.40654,1.40201 -2.28755,1.41007 -1.05592,0.009 -1.87526,-0.41934 -3.3299,-1.74342 l -0.81788,-0.74444 -0.87239,0.0719 c -3.09392,0.25454 -5.61447,2.20691 -6.64121,5.14414 -0.15587,0.44591 -0.28341,0.85788 -0.28341,0.91548 0,0.0577 0.4004,0.54129 0.88975,1.0748 2.40952,2.62696 3.49402,4.85367 3.15258,6.47294 -0.13642,0.6467 -0.4189,1.16561 -0.97757,1.79534 -0.31821,0.3587 -0.35105,0.44318 -0.21997,0.56601 0.0849,0.0794 2.485,1.95746 5.33389,4.17341 7.26805,5.65327 8.44181,6.60656 9.43469,7.66239 1.36802,1.45474 2.2353,2.90447 2.6132,4.36808 0.24769,0.95933 0.22689,2.4925 -0.0459,3.39087 -0.41695,1.37267 -0.92892,1.99547 -3.63108,4.41687 -1.15699,1.03678 -1.85863,1.78897 -2.99058,3.20605 -1.15102,1.44093 -1.92534,1.9563 -4.0589,2.70144 -1.92477,0.67223 -2.87064,1.26389 -4.91998,3.07746 -2.23123,1.97454 -3.38483,2.68767 -4.70262,2.90707 -0.875,0.14564 -1.44033,0.0729 -3.1596,-0.40617 -1.57114,-0.4379 -2.42694,-0.48617 -3.10063,-0.1749 -0.24967,0.11535 -0.88371,0.66673 -1.46738,1.27608 -1.23926,1.2938 -1.83001,1.63182 -2.98353,1.7071 -2.61705,0.17082 -4.96168,-1.66879 -5.69284,-4.46667 -0.24256,-0.92816 -0.32027,-2.79957 -0.16584,-3.99288 0.071,-0.54903 0.34495,-1.99644 0.60869,-3.21648 0.98248,-4.54503 1.4766,-8.26844 1.63377,-12.31134 0.1545,-3.97342 0.48631,-7.50699 0.87784,-9.34893 0.14744,-0.69358 0.26808,-1.32512 0.26808,-1.40346 0,-0.0783 -0.21944,-0.22767 -0.48764,-0.33183 -0.79926,-0.31047 -1.18699,-0.89768 -1.3777,-2.08659 -0.11648,-0.72683 0.009,-1.3369 0.77878,-3.78507 0.26692,-0.84888 0.42355,-1.5314 0.38616,-1.68285 -0.0377,-0.15316 -0.3132,-0.41451 -0.68995,-0.65485 -1.23391,-0.78713 -2.70994,-1.03334 -3.96054,-0.66066 -0.59712,0.17799 -2.98699,1.41149 -3.1023,1.6012 -0.10408,0.17117 -1.22171,5.36924 -1.57333,7.31716 -0.35385,1.96041 -1.41029,8.66057 -1.96737,12.47773 -0.63927,4.38015 -1.12264,6.33163 -2.03292,8.20757 -1.35087,2.78393 -3.88789,4.60289 -6.419881,4.60289 -1.64547,0 -2.643703,-0.47832 -4.294154,-2.0577 -1.254696,-1.20067 -1.397506,-1.30527 -2.790592,-2.04424 -1.697338,-0.90038 -2.204395,-1.42752 -2.578688,-2.68087 -0.418076,-1.39999 -1.180682,-2.21485 -2.424315,-2.5905 -1.076598,-0.32518 -1.836693,-0.95363 -2.142357,-1.77134 -0.06778,-0.18134 -0.194218,-0.68022 -0.280978,-1.10865 -0.190054,-0.93845 -0.75748,-2.15654 -1.309886,-2.81205 -0.22262,-0.26414 -0.789376,-0.75437 -1.259443,-1.08939 -1.486795,-1.05963 -1.622725,-1.35428 -1.732091,-3.75414 -0.09462,-2.07643 -0.181624,-2.37069 -1.165475,-3.94181 -0.813547,-1.29918 -1.014319,-1.8763 -1.012651,-2.91094 0.0018,-1.43752 0.486274,-2.67341 1.454624,-3.7148 0.56679,-0.60952 2.002144,-1.81071 2.90603,-2.43192 0.69964,-0.48083 4.996966,-3.11204 10.196096,-6.24294 2.459051,-1.48085 4.541394,-2.75917 4.627414,-2.84074 0.134192,-0.12728 0.09772,-0.20619 -0.25708,-0.55673 -0.503582,-0.49741 -0.825298,-1.01569 -0.825848,-1.3304 -2.08e-4,-0.14616 0.553954,-0.85824 1.467458,-1.88551 1.621847,-1.82387 1.67186,-1.93569 1.1898,-2.66115 -0.86669,-1.30429 -1.87301,-2.19094 -3.335748,-2.93906 -3.34962,-1.71315 -8.201744,-1.52049 -12.135168,0.48188 -8.06007,4.10302 -13.301402,14.89965 -12.882946,26.53759 0.363316,10.10434 4.335381,20.29417 10.983974,28.17805 4.212183,4.99475 9.329284,9.03294 15.093906,11.91134 5.093119,2.54312 10.494979,4.11941 16.160169,4.71561 2.28692,0.24065 8.0466,0.15385 10.2842,-0.15509 z m -0.0342,-12.2154 c 0.33138,-0.16156 0.90703,-0.65517 1.56096,-1.33835 1.68285,-1.75818 2.19683,-1.88584 5.12169,-1.27209 2.17593,0.45661 2.86096,0.48886 3.83611,0.18065 0.85563,-0.27045 1.32237,-0.59313 3.5283,-2.4392 2.24248,-1.87666 3.11072,-2.45395 4.52235,-3.00694 1.98677,-0.77826 2.61052,-1.2539 5.04456,-3.84671 0.58359,-0.62165 1.74573,-1.70661 2.5825,-2.41104 1.78216,-1.50019 2.4152,-2.28449 2.75075,-3.40811 0.71218,-2.38476 -0.54583,-4.87763 -4.02528,-7.97632 -2.79644,-2.49045 -7.95445,-6.56132 -12.26108,-9.67683 -1.45468,-1.05233 -1.52248,-1.08737 -2.49892,-1.29085 -0.70609,-0.14703 -1.28124,-0.35858 -1.93979,-0.71311 -2.92377,-1.57406 -3.38971,-1.77522 -4.20949,-1.81732 -1.38789,-0.0714 -2.0249,0.47414 -3.21505,2.75284 -0.81661,1.56356 -1.20676,2.06957 -1.95813,2.53979 -0.495,0.30981 -0.55685,0.3977 -0.76719,1.09029 -0.65172,2.14606 -1.02653,5.18929 -1.14464,9.2936 -0.12421,4.31619 -0.44321,7.20695 -1.21798,11.03587 -0.26537,1.31153 -0.67793,3.38097 -0.91677,4.59872 l -0.43428,2.21408 0.22167,1.32742 c 0.12388,0.74193 0.34279,1.59652 0.49624,1.93743 0.94884,2.10798 3.13706,3.09741 4.92347,2.22618 z m -22.0904,-9.84189 c 1.57454,-0.76724 3.29819,-2.8602 3.98425,-4.83793 0.39119,-1.12771 0.95388,-4.22466 2.05703,-11.32178 0.95697,-6.15658 1.35687,-8.44839 2.0116,-11.52846 0.36232,-1.70449 0.65876,-3.24381 0.65876,-3.42068 0,-0.20827 -0.13677,-0.48417 -0.38824,-0.78289 -0.66728,-0.79285 -0.99596,-1.65485 -1.50803,-3.95505 -0.2648,-1.18954 -0.58447,-2.44039 -0.71039,-2.77964 -0.43347,-1.1681 -1.29285,-1.77404 -2.6277,-1.8528 -1.09348,-0.0646 -4.728565,0.46421 -5.120921,0.74481 -0.152256,0.10891 -3.56482,2.23498 -7.583268,4.72448 -11.174802,6.92293 -10.984594,6.78759 -11.76282,8.36975 -0.70487,1.43307 -0.635468,2.31787 0.2716,3.46219 1.050896,1.32573 1.39988,2.38398 1.402582,4.25306 0.0018,1.78454 0.406756,2.72598 1.53144,3.56714 1.553358,1.16171 1.808254,1.53749 2.407868,3.54974 0.634866,2.13055 0.918132,2.45558 2.595582,2.97818 0.812706,0.25319 0.988566,0.3583 1.542968,0.92221 0.54623,0.55557 0.661756,0.75234 0.90915,1.5489 0.15587,0.50189 0.352926,1.04743 0.437862,1.21234 0.226406,0.43958 0.787448,0.93577 1.590674,1.40678 1.095402,0.64234 2.387292,1.63484 3.107903,2.38766 1.305613,1.36393 2.209567,1.80132 3.598609,1.74114 0.706762,-0.0306 1.009296,-0.10461 1.593491,-0.38915 z m 71.05074,-28.85188 c 0.24959,-0.11523 0.65275,-0.41193 0.89592,-0.65926 0.98567,-1.00251 1.33787,-2.24274 1.7677,-6.22473 0.232,-2.1494 0.79616,-3.92968 1.74481,-5.50608 1.99603,-3.31689 2.85987,-7.16712 3.01131,-13.42197 0.0845,-3.49016 -0.0761,-4.35875 -0.98796,-5.3439 -0.86856,-0.93836 -1.66062,-1.07196 -5.79511,-0.97746 -8.17293,0.18678 -15.30253,0.88637 -20.5012,2.01165 -0.19912,0.043 -0.21809,0.1369 -0.21809,1.078 0,0.9471 -0.0273,1.08036 -0.33757,1.64084 -0.36658,0.66244 -1.57653,1.80525 -2.99582,2.82951 -0.9764,0.70465 -1.66145,1.43013 -1.90317,2.01545 -0.26452,0.64052 -0.21388,1.69041 0.14882,3.08531 0.17447,0.67103 0.46714,1.79672 0.65038,2.50148 0.18326,0.7048 0.39592,1.4215 0.4726,1.5927 0.21927,0.48942 5.99095,5.12137 10.39866,8.34523 5.26086,3.84787 8.8431,6.14992 10.77897,6.92688 0.97559,0.39157 2.15731,0.43536 2.86976,0.10626 z m -52.26613,-3.97252 c 0.0305,-0.10677 0.11476,-0.85314 0.18773,-1.65862 0.15191,-1.67908 0.0451,-2.69479 -0.3843,-3.65079 -0.88237,-1.9646 -3.12549,-2.75429 -4.6191,-1.62609 -0.81387,0.61473 -1.10048,1.45097 -1.38496,4.04097 -0.0895,0.8142 -0.1631,1.60917 -0.16361,1.7666 l -10e-4,0.28621 0.68155,-0.1453 c 1.77583,-0.37848 3.93238,0.0411 5.15258,1.00219 0.28841,0.22723 0.4637,0.22221 0.53119,-0.0158 z m 13.41263,-7.60884 c 1.46845,-2.08799 3.29931,-3.17969 6.37159,-3.79924 l 0.25042,-0.0504 -0.21252,-0.30164 c -0.51127,-0.72558 -1.7018,-2.05647 -2.10599,-2.35427 -1.15252,-0.84916 -2.66459,-1.00576 -3.94667,-0.40878 -1.25905,0.58627 -2.46253,2.23918 -2.78541,3.8256 -0.34629,1.70138 0.0445,3.67498 1.00069,5.05309 l 0.21994,0.31702 0.36417,-0.79968 c 0.20029,-0.4398 0.57999,-1.10654 0.84378,-1.4816 z M 50.103371,177.66696 c 1.19959,-1.09699 2.389976,-3.41701 3.581858,-6.98102 0.505836,-1.51254 0.746778,-3.15267 0.487152,-3.3159 -0.208686,-0.13114 -0.73379,0.23258 -1.373214,0.95123 -0.818692,0.92017 -1.946524,3.1871 -2.66729,5.36124 -0.512476,1.54582 -0.65692,2.21432 -0.832368,3.85232 -0.08636,0.80637 0.04318,0.82767 0.803862,0.13218 z m -1.907918,-0.46486 c 0.03096,-0.16784 0.08792,-0.6045 0.126456,-0.9705 0.225942,-2.14666 1.044375,-5.00628 1.93233,-6.75158 0.469466,-0.92277 0.742013,-1.29662 1.526847,-2.0945 0.525465,-0.53421 0.955378,-1.00956 0.955378,-1.05638 0,-0.0466 -0.478446,-0.32641 -1.06323,-0.62128 -0.584785,-0.29491 -1.259513,-0.67029 -1.499424,-0.8342 -0.595726,-0.40696 -1.687946,-0.83802 -3.142587,-1.24024 -0.67065,-0.18542 -2.22535,-0.7616 -3.454875,-1.28039 -1.229526,-0.51878 -2.628081,-1.04019 -3.107903,-1.15868 -3.823577,-0.94429 -3.918853,-0.97942 -4.045097,-1.49102 -0.0418,-0.1696 -0.0018,-0.37858 0.101337,-0.54008 0.16602,-0.25779 0.216101,-0.26509 2.355224,-0.34475 2.488917,-0.0926 5.558421,0.001 7.477125,0.2288 0.719717,0.0853 2.461769,0.20779 3.871232,0.27212 1.409446,0.0643 3.882759,0.19239 5.496245,0.28463 1.61347,0.0924 2.973764,0.12676 3.022847,0.077 0.04904,-0.0498 0.01548,-0.36431 -0.07312,-0.69859 -0.730434,-2.73502 -0.777367,-6.42758 -0.111304,-8.7565 0.147783,-0.51666 0.255945,-0.95228 0.240427,-0.96809 -0.01548,-0.0158 -0.319652,0.0208 -0.675811,0.0811 -1.317181,0.22372 -5.661766,0.67233 -8.499118,0.8776 -0.899653,0.0651 -3.596345,0.11788 -5.992617,0.1175 -2.396308,0 -7.328052,0.0792 -10.959425,0.17686 -3.631407,0.0978 -7.387698,0.15159 -8.347325,0.11978 -0.959628,-0.0318 -2.161885,-0.0158 -2.671694,0.0342 -0.979206,0.0974 -2.869954,0.34849 -2.918486,0.38762 -0.01548,0.0126 0.09738,0.36382 0.251506,0.78023 0.798202,2.15689 1.040608,5.04787 0.830683,9.90733 -0.174432,4.03856 -0.501413,6.03225 -1.271606,7.75349 l -0.260557,0.58228 h 2.256731 c 1.46283,0 2.602,0.0577 3.238173,0.16313 0.539796,0.0895 2.036501,0.24114 3.326,0.33701 1.289516,0.0958 2.982502,0.29682 3.762192,0.4466 2.29728,0.4413 7.052734,1.74733 9.759886,2.68044 1.251185,0.43128 3.941184,1.67795 4.634578,2.14792 0.239911,0.1626 0.828772,0.4963 1.308578,0.74149 0.479839,0.24523 0.96589,0.55123 1.080142,0.68001 0.282904,0.31889 0.4727,0.29399 0.54014,-0.0708 z m 84.953257,-4.66737 c 0.0307,-0.0507 -0.0505,-0.58724 -0.18034,-1.19232 -0.20058,-0.93376 -0.23631,-1.45233 -0.23623,-3.4293 1.1e-4,-2.75906 0.12989,-3.52131 1.08314,-6.3604 1.01265,-3.01613 1.14866,-3.80454 1.41898,-8.22466 0.27765,-4.54039 0.5389,-5.46648 2.11409,-7.49371 0.42358,-0.54514 0.77088,-1.0191 0.77179,-1.05329 0.004,-0.12395 -2.25291,-2.14505 -2.99718,-2.68488 -0.9455,-0.68579 -2.23918,-1.31861 -3.38251,-1.65456 -0.7709,-0.22654 -1.10101,-0.25549 -2.88781,-0.2533 -2.28694,0.001 -3.40403,0.16487 -5.45245,0.79133 -5.45298,1.66753 -10.02999,6.24544 -11.28825,11.29047 -0.39567,1.58643 -0.53368,3.21052 -0.39337,4.62866 0.51545,5.20889 2.73126,8.91224 7.10156,11.86895 3.4438,2.32989 7.21269,3.46998 12.37706,3.74402 0.83969,0.0446 1.60965,0.0886 1.71109,0.0981 0.10132,0.009 0.20961,-0.0243 0.24043,-0.0751 z m -116.370643,-2.9302 c 1.175728,-1.27123 1.718156,-4.65203 1.716108,-10.69616 -0.0012,-3.53017 -0.19327,-5.06158 -0.843086,-6.72146 -0.167912,-0.42884 -0.592046,-0.7444 -1.000642,-0.7444 -0.628002,0 -1.548438,1.47626 -1.972916,3.16425 -0.85666,3.40683 -0.726322,11.48771 0.227112,14.07953 0.481784,1.30971 1.190214,1.65695 1.873424,0.91824 z m 34.70189,-7.50171 c 0.39485,-0.63358 0.702408,-1.16774 0.683466,-1.187 -0.01892,-0.0192 -0.695166,-0.0651 -1.502744,-0.10196 -0.807576,-0.0369 -2.749111,-0.19165 -4.314512,-0.34412 -1.565418,-0.15245 -3.135722,-0.26202 -3.489576,-0.24346 l -0.643364,0.0337 0.545248,0.2117 c 0.299868,0.11649 1.159385,0.47543 1.91,0.7978 0.750632,0.32238 1.911272,0.74132 2.579204,0.93095 0.667932,0.18965 1.697718,0.53331 2.288368,0.7637 0.59067,0.23037 1.108168,0.38997 1.149974,0.35469 0.0418,-0.0354 0.399102,-0.58256 0.793936,-1.21613 z m 129.696983,-1.40687 c 1.07906,-0.45846 1.42788,-1.2514 1.55579,-3.53672 0.0515,-0.91763 0.12483,-1.91792 0.16361,-2.22295 0.11928,-0.94216 0.56612,-2.33863 1.1279,-3.52424 1.08479,-2.28933 1.30505,-3.95663 0.86786,-6.56949 -0.20661,-1.23487 -0.25923,-1.94891 -0.25741,-3.49313 0.001,-1.19694 0.0531,-2.11473 0.13523,-2.39425 0.19986,-0.68191 0.55173,-3.18969 0.4986,-3.55348 -0.2435,-1.66732 -0.45551,-2.27008 -1.22049,-3.46981 -1.00232,-1.57197 -1.35477,-2.65923 -1.53625,-4.73928 -0.15605,-1.78761 -0.39217,-3.05034 -0.67993,-3.63532 -0.90978,-1.84934 -2.89087,-2.2251 -5.3792,-1.0203 -0.41983,0.20331 -1.54849,0.82903 -2.50814,1.39051 -0.95962,0.56149 -2.75076,1.53584 -3.98027,2.16522 -4.95543,2.53664 -7.68827,3.59785 -15.04877,5.84377 -2.29079,0.69898 -3.74055,1.19692 -3.88749,1.33522 -0.12886,0.12129 -0.36936,0.52852 -0.53433,0.90492 -0.16498,0.37642 -0.58252,1.11938 -0.9279,1.65105 -0.81893,1.26067 -1.03187,1.89469 -1.01633,3.0262 0.0154,1.09627 0.11118,1.36433 1.78845,4.99109 0.70534,1.52507 1.41821,3.16366 1.58416,3.64135 0.18007,0.51833 0.39371,0.92813 0.52983,1.01634 0.12547,0.0813 4.69366,2.29244 10.15157,4.91363 5.45788,2.62121 10.85582,5.21365 11.99539,5.76102 1.13956,0.54738 2.39089,1.10788 2.78075,1.24559 1.56029,0.5511 2.91394,0.64844 3.79749,0.27306 z M 60.791263,159.50188 c 0.18995,-0.23279 0.441302,-1.03664 0.559528,-1.78949 0.169288,-1.07832 0.138494,-6.74393 -0.04112,-7.54537 -0.222054,-0.991 -0.357794,-1.27549 -0.608458,-1.27549 -0.274352,0 -0.77236,0.96265 -1.099978,2.12635 -0.44753,1.58956 -0.380366,6.33678 0.108218,7.64443 0.334276,0.89473 0.764412,1.22854 1.081828,0.83957 z m -48.117802,-1.37855 c 0.06692,-0.0447 0.183258,-0.68042 0.258646,-1.41245 0.18491,-1.79554 0.556982,-3.23365 1.152416,-4.4542 0.943026,-1.93313 1.876556,-2.44558 5.039976,-2.76674 0.883344,-0.0897 2.072252,-0.21325 2.64205,-0.27462 0.584665,-0.0629 1.819782,-0.0797 2.83527,-0.0387 0.989615,0.0401 3.63951,0.014 5.888638,-0.056 2.249142,-0.0708 7.450768,-0.1794 11.559192,-0.24112 4.108408,-0.0617 8.15686,-0.15298 8.99654,-0.20268 1.838878,-0.10892 5.218726,-0.5095 8.532476,-1.01103 l 1.553324,-0.23509 0.382292,0.24031 c 0.21027,0.13217 0.382276,0.28229 0.382276,0.33362 0,0.18618 0.69317,0.79219 1.211856,1.05952 0.886614,0.45696 2.935846,0.82315 3.132042,0.55968 0.05006,-0.0673 0.147782,-0.63419 0.21708,-1.25976 0.06934,-0.62555 0.255052,-1.53466 0.41283,-2.0202 0.157762,-0.48554 0.262414,-0.94767 0.232496,-1.02694 -0.02994,-0.0792 -0.436536,-0.25848 -0.90361,-0.39825 -0.467092,-0.1397 -1.074224,-0.38817 -1.349164,-0.552 -0.647372,-0.38573 -1.849646,-1.59086 -2.284996,-2.29038 -0.428244,-0.68813 -0.437844,-1.08955 -0.03578,-1.49843 0.904454,-0.91993 4.292939,-0.30195 9.163849,1.67126 2.24357,0.90888 7.12279,2.12089 8.632742,2.14439 l 0.381656,0.008 0.06848,-0.77951 c 0.09824,-1.11691 0.47664,-2.42098 0.977142,-3.36701 0.238346,-0.4505 0.419538,-0.8329 0.402662,-0.84976 -0.0258,-0.0256 -0.895956,-0.12168 -3.00953,-0.33175 -1.635302,-0.1626 -5.427137,-1.09375 -6.999144,-1.71883 -2.020656,-0.80345 -2.617174,-1.23181 -2.617174,-1.87933 0,-0.46568 1.219117,-0.99314 4.852674,-2.09958 2.634274,-0.80214 4.806584,-1.52535 8.778444,-2.92246 3.022484,-1.06317 8.317046,-2.75488 10.032502,-3.20557 0.509808,-0.13391 0.938844,-0.25092 0.953416,-0.26001 0.01376,-0.009 -0.06486,-0.21234 -0.176532,-0.45168 -0.111658,-0.23935 -0.269467,-0.70971 -0.350636,-1.04521 -0.16774,-0.69353 -0.205038,-3.26458 -0.05694,-3.92487 l 0.09668,-0.43112 -0.423874,0.0769 c -1.37767,0.24998 -4.648496,1.57707 -8.766126,3.55676 -1.229525,0.59114 -2.358183,1.11368 -2.508116,1.16122 -0.15002,0.0475 -1.425825,0.58642 -2.835288,1.19751 -3.660688,1.58713 -5.133393,2.11801 -11.123,4.00963 -2.861937,0.90386 -3.400631,1.06084 -7.469848,2.17706 -3.060386,0.83949 -4.752254,1.20997 -9.323676,2.04162 -2.945376,0.53585 -5.194795,0.81347 -9.051077,1.11704 -1.589383,0.12521 -3.451314,0.30067 -4.137603,0.39012 -5.248127,0.684 -20.645504,0.92857 -26.582363,0.42222 l -0.786021,-0.0671 0.389965,1.09628 c 0.214484,0.60293 0.528699,1.49555 0.698263,1.98358 0.523744,1.5073 0.801539,3.8202 0.792662,6.59931 -0.0086,2.56221 -0.17531,4.95688 -0.42372,6.07187 -0.231206,1.0376 -1.021442,3.45359 -1.315305,4.02123 -0.142106,0.27451 -0.387746,0.66133 -0.545835,0.85959 l -0.2874629,0.36045 1.2953139,-10e-4 c 0.712422,-0.001 1.350023,-0.0383 1.416878,-0.0833 z m -4.1237022,-0.62459 c 0.7071228,-0.37199 1.1739044,-1.27839 1.8770872,-3.64508 0.478532,-1.61062 0.651365,-3.07838 0.721454,-6.12673 0.05677,-2.47032 0.04129,-2.79363 -0.214088,-4.49199 -0.273338,-1.81716 -0.868755,-3.86303 -1.4774532,-5.07656 -0.2125394,-0.42376 -1.0587918,-1.24547 -1.2826172,-1.24547 -0.1279984,0 -0.9069312,0.82462 -1.2223684,1.29408 -0.7256002,1.0799 -1.4728086,3.94563 -1.764831,6.76871 -0.1667076,1.6112 -0.1279984,5.23878 0.069332,6.50085 0.373002,2.38632 1.4877588,5.06525 2.4506378,5.88932 0.3886752,0.33262 0.4460164,0.34167 0.8429322,0.13287 z m 60.1020392,-7.71402 c 0.454583,-0.46235 0.806235,-1.54601 0.941047,-2.89985 0.08636,-0.86852 -0.1366,-1.5015 -0.567976,-1.61161 -0.346818,-0.0884 -0.568096,0.11434 -0.861375,0.78996 -0.582755,1.34232 -0.782511,3.30447 -0.378283,3.71558 0.275867,0.28061 0.594384,0.28277 0.866587,0.005 z m 14.101943,-5.63518 c 0.654546,-0.69489 1.46362,-3.14581 1.369274,-4.14791 -0.03218,-0.3425 -0.0628,-0.37006 -0.392408,-0.35468 -0.196575,0.009 -0.433664,0.0811 -0.526876,0.1598 -0.25574,0.21589 -0.752456,1.27885 -1.011568,2.16473 -0.221984,0.75894 -0.319376,2.24539 -0.157932,2.40963 0.152944,0.1556 0.442746,0.0623 0.719458,-0.2315 z m -14.505774,-0.93723 0.547554,-0.46624 -0.444692,-0.1921 c -1.071092,-0.4627 -4.382331,-1.14708 -4.382331,-0.90579 0,0.12445 0.792851,0.89805 1.349335,1.31643 0.402988,0.30299 1.577306,0.694 2.125102,0.7076 0.149676,0.004 0.48691,-0.18899 0.805032,-0.4599 z m 8.59152,-7.45143 c 0.687974,-0.63359 1.594235,-1.50827 2.013946,-1.9437 l 0.763088,-0.79171 -0.763088,0.26846 c -0.419711,0.14756 -1.204734,0.44185 -1.74453,0.6538 -1.621848,0.63676 -5.10843,1.63421 -5.712398,1.63421 -0.42981,0 3.570986,1.2996 4.079866,1.32528 0.06176,0.004 0.675142,-0.51273 1.363116,-1.14634 z m 14.17315,-6.01799 c 0.92964,-0.44809 1.63826,-0.81495 1.574674,-0.81523 -0.109938,0 -2.077154,0.60241 -5.072904,1.55471 l -1.371804,0.43606 -0.182156,0.6664 c -0.100123,0.36649 -0.182158,0.69237 -0.182158,0.72416 0,0.0318 0.79741,-0.34928 1.77204,-0.84678 0.97463,-0.49752 2.532684,-1.27121 3.462308,-1.71932 z m 53.534373,-0.69731 c -2.48085,-2.81825 -3.99175,-6.11638 -4.52451,-9.87648 -0.26007,-1.83556 -0.17257,-5.25809 0.1643,-6.42933 0.2389,-0.83041 0.82354,-2.12098 1.21256,-2.67663 0.20867,-0.29807 0.20859,-0.29901 -0.0348,-0.37466 -0.13418,-0.0416 -0.83287,-0.1021 -1.55257,-0.13445 -2.81707,-0.12606 -5.301,0.83195 -7.20516,2.77927 -1.26589,1.29461 -2.01352,2.55793 -2.51425,4.24839 -0.24975,0.84315 -0.29,1.18185 -0.29397,2.4742 -0.006,2.17163 0.47222,3.8843 1.55144,5.54839 1.79067,2.76112 4.69997,4.3478 9.04609,4.9337 0.65826,0.0887 4.7377,0.35685 4.79874,0.31539 0.0219,-0.014 -0.26986,-0.37826 -0.64795,-0.80779 z m -45.669853,-3.22649 c 2.934723,-1.77237 5.330723,-4.17436 7.023593,-7.04121 2.33955,-3.96198 3.88324,-10.212 4.05418,-16.41443 0.14331,-5.19924 -0.94836,-8.89596 -2.98557,-10.110245 -0.80907,-0.482255 -1.66764,-0.479056 -3.19315,0.01226 -0.68706,0.221135 -1.26248,0.415553 -1.27867,0.432024 -0.0155,0.01573 0.0652,0.900467 0.18083,1.964408 0.51831,4.76734 0.54893,7.765523 0.1101,10.780573 -0.85626,5.88272 -3.783473,10.78438 -8.077816,13.52656 l -0.922759,0.58922 0.820618,0.004 c 1.214741,0.007 1.708361,0.33742 2.230798,1.49806 0.649351,1.44262 0.580793,4.44803 -0.134708,5.90634 -0.06332,0.1292 0.910905,-0.38525 2.172619,-1.14724 z m -3.16256,-0.0254 c 0.23628,-0.57413 0.203678,-3.20061 -0.04886,-3.93741 -0.109761,-0.32027 -0.263946,-0.5823 -0.342568,-0.5823 -0.572392,0 -0.681258,3.25403 -0.153116,4.57517 0.162234,0.40575 0.363126,0.38527 0.544526,-0.0555 z m -7.45477,-4.35463 c 0.435212,-0.17134 0.769332,-0.3339 0.742494,-0.36121 -0.02684,-0.0273 -0.505578,0.029 -1.063884,0.12518 -0.558326,0.0962 -1.419976,0.20846 -1.914782,0.24976 -0.494824,0.0413 -0.899654,0.10892 -0.899654,0.15018 0,0.0414 0.07656,0.30389 0.17032,0.58335 l 0.170148,0.50813 1.002054,-0.47185 c 0.551116,-0.25953 1.358126,-0.61209 1.79332,-0.78345 z m 84.812183,-14.64423 c 1.28564,-0.11312 2.35747,-0.38148 3.28808,-0.82357 2.42906,-1.15402 2.99749,-2.93744 1.87903,-5.89547 -0.17586,-0.465119 -0.74024,-1.588103 -1.25416,-2.495546 -0.51394,-0.907426 -1.14437,-2.024203 -1.40095,-2.48172 -0.2566,-0.457515 -1.50902,-2.853248 -2.78318,-5.323831 -3.2857,-6.370953 -4.6228,-8.713081 -6.64861,-11.645883 -1.4829,-2.146799 -1.72199,-2.730443 -2.06736,-5.046538 -0.11826,-0.79303 -0.2913,-1.627164 -0.3846,-1.853667 -0.23222,-0.563904 -0.77253,-1.165067 -1.28716,-1.43208 -0.91156,-0.473006 -2.67236,-0.350462 -3.67211,0.255544 -1.38464,0.839309 -2.99349,3.158953 -4.53526,6.538989 -2.64774,5.804689 -6.20359,10.888538 -11.14347,15.932035 -1.26221,1.288712 -1.5652,1.659211 -1.62591,1.988483 -0.12269,0.665118 0.0406,4.77846 0.22345,5.623784 0.23084,1.06814 0.71708,2.06562 1.33487,2.73845 0.28877,0.31452 1.07009,0.93974 1.73623,1.38937 1.39686,0.94286 1.21188,0.91192 3.75055,0.62728 2.38034,-0.26689 8.21652,-0.2646 10.57777,0.004 2.51312,0.28605 4.54819,0.5981 6.37936,0.97823 3.09789,0.64309 5.76869,1.07968 6.32485,1.03394 0.29986,-0.0247 0.88875,-0.075 1.30858,-0.11207 z M 81.802339,98.986965 c 1.528481,-0.372737 3.225183,-1.004199 4.575723,-1.702957 0.752765,-0.389468 2.91064,-1.767768 5.080318,-3.244956 2.640847,-1.797964 4.262877,-2.82094 5.409874,-3.411857 0.933942,-0.481153 1.707868,-0.953059 1.800306,-1.097772 0.08912,-0.13952 0.2502,-0.528343 0.357846,-0.863839 0.315506,-0.983446 0.877392,-1.717905 2.301084,-3.007841 2.1319,-1.93161 2.60599,-2.535027 2.73314,-3.478646 0.14383,-1.067017 -0.47034,-1.903774 -2.03713,-2.775621 -1.57077,-0.874084 -2.323709,-1.869804 -2.466812,-3.262195 l -0.0683,-0.664996 -0.558979,-0.118021 c -0.959214,-0.202532 -3.227178,-1.854156 -4.55901,-3.320085 -1.546734,-1.702431 -2.35894,-2.971352 -5.594687,-8.740636 -1.683473,-3.001582 -2.636047,-4.377564 -3.478239,-5.024297 -1.543122,-1.184983 -3.199756,-1.011121 -4.656306,0.488669 -0.712112,0.733271 -1.113811,1.432402 -1.347666,2.345642 -0.232652,0.908424 -0.206966,1.585345 0.111481,2.93532 0.624612,2.648917 0.446154,4.752024 -0.609352,7.181013 -1.572937,3.619791 -1.63014,4.357415 -0.591391,7.625887 0.417354,1.313207 0.471908,2.639686 0.164299,3.993893 -0.132988,0.585672 -0.408615,1.568295 -0.612363,2.18362 -0.692018,2.090047 -0.720094,3.586502 -0.107863,5.757307 0.455788,1.616411 0.527804,2.205632 0.455392,3.725882 -0.03716,0.780949 -0.0972,1.658163 -0.133332,1.949339 -0.08894,0.716817 0,1.004163 0.47683,1.540986 0.646874,0.728252 1.456756,1.165382 2.206082,1.190751 0.150019,0.0053 0.667157,-0.08707 1.149354,-0.204578 z m 47.752001,-4.610371 c 0.51932,-0.152983 1.22407,-0.422234 1.56614,-0.598155 0.60947,-0.31345 6.12667,-3.520816 6.22047,-3.616208 0.0263,-0.02675 -0.20944,-0.361861 -0.52367,-0.744844 -0.91869,-1.119697 -2.30453,-3.03669 -3.19852,-4.424448 -0.63581,-0.986977 -1.10237,-1.550795 -1.99626,-2.412361 -0.6416,-0.618402 -1.19949,-1.124365 -1.23975,-1.124365 -0.0865,0 -2.46235,3.057758 -3.20235,4.121506 -1.15686,1.663006 -1.63136,3.161874 -1.64468,5.195203 -0.0126,1.759429 0.17906,2.470914 0.84264,3.145841 0.77589,0.789131 1.63282,0.912655 3.17598,0.457831 z m -18.18733,-15.08984 c 0.32175,-0.189961 0.53489,-0.434751 0.73608,-0.845341 0.48546,-0.990894 0.33522,-1.82223 -0.58978,-3.263402 -0.56427,-0.87919 -0.98091,-1.866761 -0.98091,-2.325204 0,-0.381305 -0.16584,-0.416866 -1.29368,-0.277397 -1.62081,0.200434 -3.36095,0.793868 -4.5761,1.560585 l -0.3628,0.228914 0.79901,0.903791 c 3.75829,4.251165 4.77237,4.901213 6.26818,4.018054 z m 13.56206,-4.825718 c 0.8195,-0.230577 3.38314,-1.147828 3.71892,-1.330622 0.0989,-0.05385 0.27508,-0.261365 0.39155,-0.461186 0.19788,-0.339484 5.059,-5.651461 9.56892,-10.456426 4.54235,-4.839492 5.11507,-5.526102 5.74466,-6.887136 0.52033,-1.124883 0.74414,-2.076832 0.74621,-3.174072 0.004,-2.220891 -1.19343,-3.469081 -4.60255,-4.796895 -1.90356,-0.741407 -2.86816,-1.460189 -4.21455,-3.140536 -2.52027,-3.14537 -3.15164,-3.411271 -6.37837,-2.686319 -2.45422,0.551391 -3.06471,0.417614 -4.5276,-0.992101 -1.46671,-1.413409 -1.96748,-1.43501 -4.49415,-0.193958 -0.92418,0.45394 -1.85207,0.877986 -2.06198,0.94232 -1.24917,0.38286 -2.18667,0.241668 -3.87124,-0.583053 -1.80057,-0.88151 -2.22511,-1.003615 -3.48956,-1.003615 -0.94924,0 -1.16818,0.03746 -1.69025,0.289287 -1.62263,0.782618 -2.4589,2.597895 -2.17381,4.718675 0.25352,1.885951 0.24185,1.840611 4.73236,18.394705 0.695,2.562092 1.31471,4.788915 1.37712,4.948525 0.0624,0.159626 0.37884,0.52315 0.70315,0.807925 0.32604,0.286298 0.9444,1.049168 1.38309,1.706279 1.959,2.934427 3.96666,4.095735 7.12068,4.118865 0.90068,0.007 1.40605,-0.0486 2.0174,-0.220662 z"
       id="path3184"
       inkscape:connector-curvature="0" />
  </g>
  <g
     inkscape:groupmode="layer"
     id="LAYER_EFO"
     inkscape:label="Layer_EFO"
     style="display:inline">
    <path
       id="UBERON_0001224"
       d="m 73.581859,144.00786 c 6.034665,-10.98239 28.964191,-19.44753 28.964191,-19.44753 5.17472,-5.62114 8.72267,-18.31499 7.90766,-27.141574 -0.31693,-3.201351 -2.42166,-6.212008 -5.59112,-5.571735 -1.4489,0.274408 -3.01168,0.67825 -4.32474,0.08374 -1.72056,-0.823207 -0.860286,-3.567218 0.63389,-4.756292 1.49418,-1.189071 3.53167,-2.240949 3.66752,-4.161753 0.18111,-2.058018 -1.90167,-3.430023 -3.39585,-4.802028 -0.4075,-0.365883 -0.81501,-0.823206 -0.95084,-1.372023 -0.40749,-1.737872 2.17335,-2.789749 3.75807,-1.920804 1.53945,0.823207 2.39973,2.561077 3.62223,3.841626 1.22251,1.28053 3.48641,2.058017 4.66364,0.731731 0.86027,-0.960402 0.63388,-2.51534 0.0905,-3.75015 -0.54333,-1.189073 -1.31305,-2.378145 -1.26777,-3.70443 0.0452,-1.326269 1.40361,-2.698274 2.58084,-2.058001 0.54334,0.320129 1.53102,1.151413 1.80269,1.74595 2.30917,4.298966 9.37225,2.780412 9.37225,2.780412 0.72444,-0.457341 4.03845,-0.501803 4.89872,-0.456083 1.13195,0.0458 1.99224,1.143353 2.12806,2.286688 0.0904,1.143334 -0.36221,2.240949 -0.95083,3.201352 -2.39974,4.024559 -6.88224,7.683234 -5.97669,12.256609 0.18111,0.823189 -0.10701,2.307248 0.48166,2.901785 1.63002,1.646412 5.04225,0.573957 7.03448,-0.569412 1.99224,-1.143336 3.66752,-2.83547 5.79558,-3.704414 1.17723,-0.457341 2.94307,-0.411603 3.26001,0.823207 0.18111,0.731732 -0.27167,1.417743 -0.58861,2.058017 -2.35446,4.390424 0.0453,10.152862 4.48251,12.393792 0.36224,0.18295 0.31695,0.73175 0.54334,1.09761 0.58861,0.82321 -0.22639,2.05802 -1.17722,2.33241 -0.99612,0.27441 -2.15139,0.78523 -3.14751,0.55656 -3.62224,-0.68599 -7.35699,-0.23641 -9.84726,2.46186 -2.4903,2.69829 -3.44113,6.72285 -2.4903,10.29007 0.49806,1.87507 1.58473,3.61296 3.0789,4.89349 3.98447,3.29282 9.02952,2.95143 14.10065,3.77464 1.13195,0.18294 3.24081,-0.0245 3.4672,1.11886 0.22638,1.14333 -0.86028,2.058 -1.49418,3.01842 -2.21861,3.29281 0.27167,7.59177 2.49029,10.83885 0.4075,0.64028 0.86029,1.32628 0.81501,2.05801 -0.0453,1.46349 -2.70546,2.99692 -4.15436,2.90544 -4.4769,-0.22866 -7.75524,-2.19833 -10.34171,-7.02733 -7.09253,-7.87269 -15.95129,-4.85088 -22.13379,0.96628 -6.43944,6.0589 -4.34668,18.43063 2.85251,23.59854 3.0789,2.24092 6.88224,3.24707 10.6856,3.70441 4.25612,0.50308 8.15564,0.0834 12.3665,-0.7398 1.99221,-0.41161 4.52216,-0.72369 6.5144,-0.26634 1.99223,0.45734 3.80334,2.46962 3.26002,4.43616 -0.67919,2.51535 -4.39197,3.06416 -5.38809,5.53377 -0.72444,1.73786 0.27167,3.65868 0.76973,5.4423 0.49806,1.78361 0.22639,4.34467 -1.63,4.75629 -1.58474,0.36587 -4.37189,-0.21388 -5.32272,-1.54015 -1.94696,-2.6983 -3.8659,-5.82564 -6.89952,-4.59083 -1.81113,0.73174 -2.67421,2.19789 -2.67421,4.16443 0,1.96655 -0.15724,3.73678 1.06528,5.29172 1.26779,1.60067 3.05089,4.12042 3.77534,6.04122 0.72445,1.92083 0.95495,3.62195 -1.03727,4.03355 -2.2639,0.45734 -4.41987,-1.65683 -6.72906,-1.79403 -3.26,-0.22867 -4.99661,5.27787 -7.93968,5.41054 0,0 -1.14198,-2.96155 -0.32697,-4.97384 0.20119,-3.22913 1.89983,-6.40743 0.63206,-8.96851 -1.26778,-2.56108 -4.87947,-3.89732 -6.19254,-1.33624 -0.63389,1.18907 -0.4075,2.60682 -0.45278,3.9331 -0.0905,1.32628 -0.97017,3.58989 -2.28323,3.72711 -1.44889,0.18294 -2.03046,-2.29055 -2.25685,-3.75401 -0.2264,-1.46348 -0.87944,-2.59532 -1.69443,-3.83012 -1.72056,-2.46962 -8.704155,0.24311 -8.933606,-2.08835 -0.362232,-0.0457 0.27167,0.2287 0,0 -0.996117,-0.77747 0.608888,-2.18782 1.559793,-3.01102 2.309173,-2.01229 3.873573,-5.08383 3.058563,-8.0565 -1.08668,-3.93309 -5.241729,-4.2412 -9.271462,-4.42414 -3.576949,-0.18294 -2.944802,0.79933 -2.944802,0.79933 -0.860274,-0.0456 -5.7732,-6.73016 -6.135415,-7.50763 0,0 0.407496,0.73176 0,0 -4.351037,-7.47197 -5.75653,-10.04741 -9.933929,-19.20776 -0.226389,-1.09761 -1.327975,-3.66421 -0.965088,-4.7161 2.260687,-2.66344 -2.097197,1.74881 0.664749,-1.04095"
       class="st5"
       style="opacity:0.73000004;fill:none;fill-opacity:1;stroke-width:0.4626292"
       inkscape:connector-curvature="0"
       sodipodi:nodetypes="cccccsccccsccscccccccsscccscccscccscccccscccsccscccscsccccscccscccccccccccc"
       inkscape:label="UBERON_0001224">
      <title
         id="desc30057">Pelvis</title>
    </path>
    <path
       id="UBERON_0000056"
       d="m 73.581859,144.00786 c -11.343457,8.03718 -17.259569,14.58626 -23.959842,25.44347 -12.283814,19.83434 -11.091682,48.09301 -8.623162,70.13645 1.645695,15.04023 1.197965,28.04284 4.371773,42.2813 0,0 2.772353,1.61094 6.181259,1.70496 0,0 2.928318,-1.10164 3.280974,-1.38365 0.293863,-0.28203 0.293863,-0.65804 0.235095,-1.03404 -1.528136,-14.38222 -3.17823,-28.09871 -3.530866,-42.52798 -0.352652,-14.42928 1.918493,-30.51909 9.088936,-43.77333 2.762409,-5.07612 5.957268,-8.91851 10.835544,-12.81959 4.878274,-3.90106 11.672161,-4.89713 18.489972,-5.55515 -7.523101,-8.83619 -14.136259,-21.09822 -16.60478,-31.62639"
       class="st1"
       style="opacity:0.73000004;fill:none;fill-opacity:1;stroke-width:0.51666713"
       inkscape:connector-curvature="0"
       inkscape:label="UBERON_0000056"
       sodipodi:nodetypes="cccccccccscc">
      <title
         id="desc30059">Ureter</title>
    </path>
    <path
       id="UBERON_0000362"
       d="m 88.459355,119.24356 c 9.708979,5.85377 19.959005,-26.310428 9.40235,-27.58365 0.674711,-1.967521 3.247605,-4.672595 4.535675,-6.332699 2.39218,-3.135752 0.12937,-8.035515 -3.550844,-9.326709 4.048284,-1.967504 5.207454,-1.926207 9.255774,-3.893729 -3.25824,1.923934 1.97396,-0.509931 1.97396,-0.509931 l -1.97396,0.509931 c 1.97396,-0.509931 2.91355,-1.784727 10.27564,3.311815 1.84014,0.307435 4.61559,0.125539 6.39441,-0.427863 1.84013,-0.553363 6.92105,-0.872809 7.53443,0.910259 0.18402,0.614852 -1.01102,4.333724 -1.07237,4.948577 2.7236,4.214205 5.74973,10.706338 10.88645,10.484241 0,0 -2.26816,-1.035756 0,0 0.30668,0.737834 0,1.660104 -0.24535,2.459428 -1.10409,3.627642 -0.23754,8.22004 2.46134,10.86392 0.92007,0.8608 2.32302,1.37166 2.07767,2.60134 -0.12269,0.86082 -0.92008,1.47567 -1.5948,2.02903 -5.31937,0.51574 -5.05971,7.00932 -4.32365,10.88291 0.73604,3.93506 1.14001,6.71199 4.26823,9.1099 1.22679,0.92232 5.69852,2.63379 5.82118,4.17093 0.12268,1.59861 -1.1654,2.8898 -1.59477,4.42695 -0.55206,2.33644 1.10407,4.61139 2.08548,6.82487 0.9814,2.21346 0.67472,5.71814 -1.71745,6.02556 -0.85876,0.12306 -2.66753,0.46344 -3.40359,0.0946 -2.57619,-1.2297 -3.95698,-3.66067 -5.98112,-5.6897 -1.84014,0.18448 -3.11257,1.98651 -3.41925,3.83105 -0.92009,5.22627 -1.13961,7.17877 -2.53471,15.24253 -0.49072,2.58237 -0.87137,8.32758 -0.87137,8.32763 2.33082,1.96752 8.05208,0.51315 10.99631,-0.22469 2.94422,-0.7378 7.29921,0.4919 6.8085,3.50467 -0.36803,2.33646 -3.43492,3.19726 -4.41633,5.34925 -0.85872,1.90603 0.24537,4.05802 0.73605,6.14853 0.49071,2.02899 -0.96572,5.39174 -3.05122,5.20728 -1.47212,-0.18445 -2.69946,-1.77522 -4.17156,-2.26712 -1.5948,-0.55335 -3.69536,-0.4286 -3.69536,-0.4286 -1.41079,1.04525 -5.15706,3.32662 -5.21839,5.10969 1.24106,3.14521 5.90762,6.38205 4.56717,8.87576 -1.04274,1.59864 -3.82697,0.76034 -5.54446,0.0226 -1.71744,-0.73781 -2.33031,-0.84074 -4.17044,-0.34887 -2.82154,0.7993 -3.98695,5.10329 -6.93119,4.98031 -1.04274,-2.02901 -1.53175,-4.84943 -0.12094,-6.694 -0.24535,-1.78306 -2.45069,-1.95863 -4.21833,-2.37737 -2.98088,-0.70616 -4.21665,2.93691 -5.68875,1.89166 -2.20817,-1.59861 -1.5791,-5.53367 -3.60328,-7.37824 -1.28809,-1.16823 -2.30083,-2.10457 -4.01831,-1.98161 -1.717454,0.12307 -6.053746,0.80144 -5.159546,-0.69071 l 2.400798,-4.0062 c -1.226756,-4.11954 -5.61387,-5.11014 -9.907532,-4.98718 -4.293661,0.12306 -7.37624,1.69019 -10.749826,4.39555 l -3.69828,5.29227 c 0,0 -1.771936,7.79053 -1.330736,12.52001 2.082934,10.94423 6.01247,18.91446 13.434388,25.98528 6.965097,6.55047 11.970991,9.71449 20.188714,11.97793 3.25093,1.41414 10.40007,2.97903 13.95769,3.22496 4.84569,0.36895 13.22706,-2.28315 17.58206,-4.37363 6.44049,-3.13576 11.51329,-7.06314 17.15503,-13.68459 0.92006,-1.47566 2.51209,-3.00512 3.67751,-4.23482 1.5948,-1.72162 2.64966,-1.85768 4.61247,-4.50612 8.64864,-7.88878 13.01604,-15.23413 15.77623,-24.94882 2.76019,-9.7147 5.29738,-17.17605 6.35172,-28.08837 2.76941,-16.44473 4.66496,-28.31623 -0.0101,-44.5036 -1.18768,-4.5433 -0.77096,-3.66415 -1.38435,-6.92288 -0.67621,-5.48033 0.17032,-2.16848 -1.33881,-7.13804 -1.20085,-6.69049 -2.11558,-7.552681 -3.89439,-11.364742 -2.20817,-4.7344 -4.96232,-9.639565 -7.59985,-14.189512 -3.25092,-5.718126 -6.16514,-12.188161 -10.15211,-17.414414 -7.4989,-11.592274 -21.66445,-26.659195 -31.46464,-26.647819 -21.36875,-5.496689 -33.566538,3.83218 -46.079458,13.239437 -1.671809,2.071535 -7.302108,6.980076 -8.946476,12.154007 -0.825246,4.222249 -2.599436,10.492634 -1.854155,12.43886 -1.288088,10.514017 0.428021,8.793665 1.286746,19.307664 0.122662,1.47565 2.589166,7.969219 3.999936,10.191859 3.079861,6.35592 3.562746,6.1479 3.562746,6.1479 l 3.087706,4.72915 3.547915,3.4162"
       class="st0"
       inkscape:connector-curvature="0"
       style="opacity:0.73000004;fill:none;fill-opacity:1;stroke-width:0.61411601"
       sodipodi:nodetypes="cccccccccccccccccccccsccccccsccccccccscccsccsscsccccccccccscccccccccccccccc"
       inkscape:label="UBERON_0000362">
      <title
         id="desc30055">Renal Medula</title>
    </path>
    <g
       inkscape:label="UBERON_0001225"
       style="fill:none;fill-opacity:1"
       transform="matrix(0.60176006,0,0,0.61981092,61.019871,17.406325)"
       id="UBERON_0001225">
      <title
         id="title16603">Cortex of kidney</title>
      <path
         sodipodi:nodetypes="ccsccccscccccccccccccccccccccscc"
         inkscape:connector-curvature="0"
         class="st0"
         d="m 31.385589,140.79831 c 5.754838,9.95729 12.851749,20.2631 18.709914,23.35902 C 41.591656,172.3861 14.557947,155.83181 8.5385673,142.26595 2.9956071,129.7738 -2.1313951,117.79931 -0.81046504,103.29965 -1.510465,68.999654 14.030753,35.148918 42.630753,16.048918 c 15.5,-10.2999998 35.734623,-16.78297255 54.334623,-14.9829725 26.200004,2.6 50.701934,20.2000005 68.501934,39.6000005 29.6,32.4 51.58556,73.060184 59.73269,115.582974 8.56882,44.7237 3.23269,85.75325 -14.94903,126.28514 -11.2,21.7 -26.8,42.43189 -42.3,61.33189 -8.3,10.1 -18.23462,18.6681 -28.73462,26.3681 -21.9,16.1 -52.883662,20.64892 -77.883662,9.94892 -25,-10.8 -42.349032,-34.34257 -47.283656,-60.76811 -1.6,-12.5 2.701743,-36.71105 9.450968,-37.51486 -2.805806,28.62757 8.165376,46.98298 24.414408,63.69784 4.3,3.7 10.450968,7.46594 15.450968,10.16594 17.950968,7.38514 35.649033,14.2557 53.649024,7.7557 10.4,-3.7 24.88506,-12.60245 32.88506,-20.20245 C 157.99946,333.70217 162.5,328.3 170.6,320.6 c 4.5,-4.3 8.27924,-6.92164 11.77924,-12.02164 11.93268,-18.2 16.83848,-41.30462 20.28752,-62.23868 5.23462,-25.17648 8.02633,-41.61827 6.34461,-59.1353 -1.2,-5.9 -3.15623,-11.65876 -4.35623,-17.55876 -0.41486,-7.3 -1.28601,-4.96827 -4.1261,-22.97934 -1.2,-8.2 -8.06411,-22.37975 -11.46411,-29.97975 C 174.19215,87.589226 154.34605,54.35171 130.3,40.325974 c -6.6,-5.2 -16.18615,-6.515418 -24.28615,-8.515418 0,0 -5.9747,-0.471882 -8.974701,-0.571882 -23.2,-0.9 -33.24734,7.426911 -53.489359,19.786993 -2.1,2.1 -14.520974,15.29136 -15.920974,17.99136 -1.4,2.7 -2.158914,6.755994 -2.758914,9.755994 -5.318279,20.148913 -1.239149,32.082379 1.077195,49.267519"
         id="path16567" />
    </g>
    <g
       id="UBERON_0004200"
       inkscape:label="UBERON_0004200"
       style="fill:none"
       transform="matrix(1.72041,0,0,1.748379,-76.78798,-112.8958)">
      <title
         id="desc30079">Kidney pyramid</title>
      <g
         style="opacity:0.73000004;stroke-width:0.99598545"
         id="g2021"
         transform="matrix(0.27787581,0,0,0.26658299,44.105194,55.224917)">
        <path
           inkscape:connector-curvature="0"
           style="stroke-width:0.99598545"
           class="st1"
           d="m 229.4,118.1 c -4.7,2 -5.7,8.2 -5.3,13.4 0.6,6.4 2.4,12.7 4.2,18.9 1.8,6.1 3.6,12.2 5.4,18.3 1.4,4.7 2.1,9.9 4.3,14.3 2,4 5.4,7.4 9,10 7,5.2 17.5,5.2 24.5,0.1 2.5,-1.8 4.5,-4.2 6.5,-6.5 6.8,-7.9 13.7,-15.8 20.5,-23.7 2.9,-3.3 5.8,-6.7 7.4,-10.8 1.6,-4.1 1.6,-9 -1,-12.5 -3.5,-4.5 -10.1,-5.2 -14.2,-9 -3.4,-3.1 -5.2,-8.4 -9.7,-9.5 -4.5,-1.1 -9.5,3 -13.7,1.1 -2.3,-1 -3.8,-3.6 -6.2,-4.5 -4.5,-1.7 -8.7,3.4 -13.4,4.1 -3.3,0.4 -6.4,-1.2 -9.4,-2.6 -3,-1.3 -6.6,-2.4 -9.4,-0.7"
           id="path2019" />
      </g>
      <g
         style="opacity:0.73000004;stroke-width:0.99598545"
         id="g2025"
         transform="matrix(0.26279304,0,0,0.26658299,48.275314,55.145607)">
        <path
           inkscape:connector-curvature="0"
           style="stroke-width:0.99598545"
           class="st1"
           d="m 324.7,200 c 2.9,-4.2 4.7,-9.1 8.1,-12.9 3.4,-3.8 9.5,-6 13.6,-3.1 4.2,2.9 4.2,9.1 6.2,13.8 1.7,3.9 5,6.9 7.4,10.5 2.2,3.3 3.5,7.1 5.1,10.7 3.8,8.8 9,16.8 13.8,25.1 2,3.5 4,7.4 3.7,11.4 -0.6,6.3 -6.9,10.7 -13.1,11.5 -6.2,0.8 -12.4,-1 -18.6,-2.3 -10.8,-2.4 -21.8,-3.4 -32.8,-3.1 -4.2,0.1 -8.6,0.4 -12.6,-1.2 -4.4,-1.8 -7.6,-5.9 -8.7,-10.5 -1.1,-4.6 -0.2,-9.6 2.2,-13.7 2.1,-3.7 5.2,-6.6 8,-9.7 6.6,-7.2 12.2,-15.3 16.6,-24.1 2.6,-5.2 4.8,-10.8 8.9,-15"
           id="path2023" />
      </g>
      <g
         style="opacity:0.73000004;stroke-width:0.99598545"
         id="g2029"
         transform="matrix(0.26313361,0,0,0.26658299,48.472634,54.491897)">
        <path
           inkscape:connector-curvature="0"
           class="st1"
           d="m 388.5,299.2 c -2.1,-2.6 -5.9,-3.4 -9.2,-2.7 -3.3,0.6 -6.2,2.3 -9.2,4 -11.8,6.5 -24.2,11.8 -37.1,15.8 -3.8,1.2 -7.7,2.2 -11.1,4.2 -3.4,2 -6.6,4.8 -7.9,8.6 -0.9,2.5 -0.2,5.3 -0.5,7.9 -0.5,7 5.5,17 11.5,20 7.4,3.7 15.8,8.6 23.4,12 9.8,4.4 19.6,8.7 29.4,13.1 3.1,1.4 6.7,2.7 9.7,1.1 2.8,-1.5 3.8,-5 3.9,-8.2 0.1,-3.2 -0.3,-6.5 0.9,-9.4 0.7,-1.7 1.8,-3.3 2.6,-5 3.1,-6.9 -0.8,-14.9 0,-22.5 0.4,-3.7 2,-7.4 1.6,-11.1 -0.5,-6 -5.6,-10.7 -6.6,-16.6 -0.4,-2.2 -0.1,-4.6 -0.4,-6.8 -0.3,-1.9 -1,-3.6 -2,-5.2"
           id="path2027" />
      </g>
      <g
         style="opacity:0.73000004;stroke-width:0.99598545"
         id="g2033"
         transform="matrix(0.26921269,0,0,0.26658299,46.093724,54.650517)">
        <path
           inkscape:connector-curvature="0"
           style="stroke-width:0.99598545"
           class="st1"
           d="m 376.5,406 c -3.3,-1 -6.8,-0.9 -10.2,-0.7 -14.2,0.6 -25.32769,-1.84716 -39.32769,0.55284 -1.3,0.2 -10.96317,-1.75751 -6.67231,4.44716 0,0 -0.72411,4.78647 -1.02411,5.58647 -1.5,3.3 -3.97589,3.01353 -6.67589,5.41353 -1.6,1.4 -3.4,2.6 -4.3,4.5 -1.1,2.2 -0.7,4.8 -0.4,7.2 0.5,3.5 1.1,7.1 3,10.2 1.2,2 3,3.7 4.7,5.3 9.8,9.1 20.4,17.4 31.6,24.8 3.2,2.1 6.6,4.2 10.3,4.9 3.8,0.7 8.1,-0.1 10.5,-3 3.4,-4 2.2,-10 3.3,-15.1 1.4,-6.8 6.9,-12.1 8.8,-18.8 1.6,-5.4 0.7,-11.2 1.3,-16.8 0.4,-3.5 1.4,-7 1.1,-10.5 -0.4,-3.5 -2.6,-7.2 -6.1,-7.7"
           id="path2031"
           sodipodi:nodetypes="cccscccccccccccccc" />
      </g>
      <g
         style="opacity:0.73000004;stroke-width:0.99598545"
         id="g2037"
         transform="matrix(0.25874795,0,0,0.27551111,49.599754,49.676877)">
        <path
           inkscape:connector-curvature="0"
           style="stroke-width:0.99598545"
           class="st1"
           d="m 248,519 c 1,-7 -0.2,-12.7 0.9,-19.6 1,-6.9 3.4,-13.7 7.8,-19.1 1.9,-2.3 4.3,-4.4 7.3,-5.1 2.2,-0.5 4.4,-0.1 6.6,0.5 9.9,2.6 18.2,8.9 26.3,15.1 4.3,3.3 8.5,6.6 12.8,9.8 3.8,2.9 7.7,5.9 10.2,9.9 2.6,4 3.6,9.4 1.5,13.6 -2,3.9 -6.2,6.1 -9.4,9.1 -2.2,2.1 -4,4.5 -6.3,6.5 -5.4,4.5 -13,5.7 -18.2,10.4 -2.2,2 -4.1,4.7 -6.9,5.6 -4.8,1.5 -9.9,-2.7 -14.8,-1.4 -3.5,1 -5.6,4.5 -9,5.9 -3.7,1.5 -8.1,-0.2 -10.6,-3.2 -2.5,-3 -3.4,-7.2 -3.2,-11.1 0.1,-3.9 1.2,-7.8 2.1,-11.6 1.6,-6.9 2.8,-13.9 3.4,-20.9"
           id="path2035" />
      </g>
      <g
         style="opacity:0.73000004;stroke-width:0.99598545"
         id="g2041"
         transform="matrix(0.26240175,0,0,0.26658299,48.777724,54.762677)">
        <path
           inkscape:connector-curvature="0"
           style="stroke-width:0.99598545"
           class="st1"
           d="m 158.66384,482.67642 c -0.5,-2.2 0.4,-4.5 1.8,-6.2 1.4,-1.7 3.3,-3 5.2,-4.2 10.5,-6.9 21.4,-13.2 32.3,-19.4 2.6,-1.5 5.3,-3 8.2,-4 2.6,-0.8 5.4,-1.1 8.2,-0.9 1.6,0.1 3.3,0.5 4.6,1.4 2,1.3 3,3.6 3.9,5.8 1.7,4.3 3.2,8.8 3.3,13.4 0.1,4 -0.7,8 -1.5,11.9 -2.8,15.4 -3.6,31.2 -8.2,46.1 -1.1,3.5 -2.5,7.1 -5.2,9.6 -4.2,3.8 -11.4,3.9 -15.6,0 -1.4,-1.2 -2.5,-2.8 -4,-3.9 -2.1,-1.5 -5,-1.9 -6.7,-3.8 -2.3,-2.5 -2.1,-6.8 -4.9,-8.6 -1.4,-0.9 -3.2,-0.9 -4.7,-1.7 -3.8,-2.1 -3,-8.1 -5.8,-11.4 -1.6,-1.9 -4.2,-2.7 -5.5,-4.7 -1.6,-2.4 -0.9,-5.6 -1.4,-8.4 -0.5,-2.9 -2.3,-5.4 -3.4,-8.1 -1.1,-2.7 -1.3,-6.2 0.8,-8.2"
           id="path2039" />
      </g>
      <g
         style="opacity:0.73000004;stroke-width:0.99598545"
         id="g2045"
         transform="matrix(0.26434649,0,0,0.27278528,47.959484,54.196267)">
        <path
           inkscape:connector-curvature="0"
           style="stroke-width:0.99598545"
           class="st1"
           d="m 160.1,170 c -1,-3.9 0.4,-8.3 3.5,-10.8 3.1,-2.6 7.7,-3.1 11.3,-1.4 4.5,2.2 6.8,7.1 9,11.6 3,6.2 6.3,12.3 10.9,17.5 5.6,6.4 12.9,11.1 18.8,17.1 2.2,2.2 4.3,5 4.1,8.1 -0.2,2.3 -1.7,4.2 -3.2,5.9 -8.9,10.3 -20.4,18.1 -32.1,25.2 -4.8,2.9 -9.9,5.9 -15.5,6.2 -3.6,0.2 -7.7,-1.1 -8.9,-4.4 -1.2,-3.2 0.8,-6.9 0.3,-10.3 -0.4,-2.7 -2.5,-5 -3,-7.7 -0.8,-4.1 1.7,-8 2.9,-11.9 0.9,-3 1.1,-6.2 0.5,-9.2 -0.7,-3.7 -2.5,-7.2 -2.3,-11 0.3,-5.9 5.4,-10.8 5.4,-16.7 0,-2.5 -0.9,-4.8 -1.5,-7.2 -0.6,-2.4 -0.8,-5.1 0.4,-7.2"
           id="path2043" />
      </g>
    </g>
    <g
       transform="matrix(0.09341959,0.11247959,0.10931535,-0.09356054,238.7453,112.48707)"
       id="UBERON_0001285"
       style="fill:none"
       title="nephron"
       inkscape:label="UBERON_0001285">
      <title
         id="title31">nephron</title>
      <desc
         id="desc30061">Nephron</desc>
      <g
         id="g18908"
         transform="translate(65.312,242.6668)" />
      <g
         id="g18942"
         transform="matrix(0.92241831,-0.04321117,0.18984836,0.97710086,-626.28013,-470.56861)">
        <g
           transform="translate(141.998,320.719)"
           id="g18912">
          <path
             inkscape:connector-curvature="0"
             id="path18910"
             d="m 0,0 c 1.559,-1.057 3.06,-2.017 4.472,-3.094 0.235,-0.179 0.211,-0.909 0.086,-1.318 -1.053,-3.429 -2.273,-6.812 -3.219,-10.269 -1.368,-5.002 -2.791,-9.995 -3.264,-15.203 -0.364,-4.017 -0.973,-8.011 -1.353,-12.026 -0.183,-1.943 -0.124,-3.913 -0.095,-5.87 0.009,-0.578 0.203,-1.193 0.459,-1.72 0.706,-1.459 2.221,-1.566 3.116,-0.211 0.547,0.826 0.957,1.742 1.463,2.682 0.567,-0.189 1.158,-0.385 2.009,-0.666 -0.348,-1.468 -0.661,-2.968 -1.06,-4.445 -1.121,-4.162 -2.487,-8.271 -3.348,-12.484 -0.603,-2.95 -0.752,-6.038 -0.735,-9.062 0.228,-39.194 0.489,-78.389 0.815,-117.584 0.14,-16.917 0.342,-33.834 0.718,-50.747 0.257,-11.51 0.941,-23.011 1.296,-34.521 0.291,-9.392 0.38,-18.788 0.554,-28.183 0.017,-0.91 -0.5797921,-2.19901 -0.5797921,-3.25801 -6.497383,0.38607 -13.3390569,2.34546 -21.3890069,3.81287 0,1.377 0.05227,8.60586 0.05227,8.60586 -0.063,11.357 1.231531,14.03728 1.343531,25.39228 0.149,15.354 0.535,30.705 0.834,46.058 0.185,9.556 0.323,19.114 0.619,28.668 0.27,8.749 0.769,17.491 1.087,26.239 0.399,11.029 0.744,22.061 1.052,33.094 0.097,3.513 0.182,7.046 -0.065,10.545 -0.181,2.565 -0.701,5.157 -1.456,7.618 -0.958,3.12 -2.246,6.146 -3.501,9.166 -1.627,3.917 -5.57,8.843 -9.467,12.031 1.341,1.496 2.683,2.992 4.004,4.464 1.377,-1.506 2.754,-3.163 4.301,-4.643 0.782,-0.748 1.829,-1.266 2.832,-1.724 1.001,-0.456 2.451,0.246 3.046,1.526 0.408,0.879 0.732,1.899 0.727,2.854 -0.063,9.718 -0.033,19.441 -0.37,29.151 -0.288,8.308 -0.845,16.616 -1.611,24.893 -0.665,7.18 -3.236,13.829 -7.024,19.942 -2.053,3.313 -4.328,6.51 -6.744,9.569 -1.205,1.527 -3.069,2.382 -5.084,2.699 -3.504,0.552 -6.02,-2.179 -4.932,-5.567 0.616,-1.92 1.666,-3.698 2.451,-5.568 1.325,-3.159 2.677,-6.311 3.863,-9.523 0.919,-2.485 0.618,-5.077 -0.052,-7.568 -1.1,-4.092 -5.241,-7.372 -8.743,-6.843 -4.111,0.622 -7.237,2.736 -8.7,6.787 -1.551,4.294 -3.548,8.258 -2.406,12.738 0.337,1.324 2.534,3 3.105,4.262 0.097,0.215 0.366,0.383 0.391,0.592 0.076,0.616 0.069,1.241 0.096,1.862 -0.561,-0.194 0.818,-1.351 0.408,-1.716 -2.037,-1.81 -3.133,-4.472 -3,-7 0.148,-2.832 1.609,-5.191 2,-8 2.572,-5.832 2,-3 -2,-7 -1.454,-1.957 -6.792,-4.645 -9.051,-5.879 0.124,2.514 0.164,4.9 0.405,7.266 0.075,0.729 0.665,1.421 1.076,2.095 1.783,2.93 2.44,6.112 2.309,9.517 -0.106,2.752 -0.261,5.521 -0.074,8.261 0.249,3.658 2.287,6.426 5.145,8.572 1.228,0.922 2.691,1.132 4.228,0.735 3.148,-0.815 6.126,-3.881 5.383,-7.526 -0.574,-2.81 -1.144,-5.621 -1.644,-8.444 -0.395,-2.23 -0.335,-4.465 0.421,-6.627 0.56,-1.601 1.431,-2.318 2.595,-2.253 1.203,0.066 2.521,1.191 2.843,2.575 0.465,1.997 0.017,3.878 -0.95,5.649 -0.209,0.384 -0.417,0.809 -0.735,1.09 -3.951,2.969 -5.578,4.132 -2.951,5.969 0.513,4.719 -0.414,5.994 -5,8 -1.339,0.586 -3,1 -0.39,4.962 2.585,3.923 5.408,7.784 10.11,8.073 7.438,0.456 13.11,-2.823 17.634,-8.414 3.583,-4.429 6.059,-9.458 7.691,-14.907 0.333,-1.113 0.974,-1.891 2.132,-2.218 1.315,-0.371 2.403,-0.056 2.881,1.212 1.138,3.022 2.227,6.071 3.149,9.165 1.248,4.188 2.674,8.29 4.798,12.122 C -0.727,-1.086 -0.405,-0.636 0,0" />
        </g>
        <g
           transform="translate(73.1719,279.925)"
           id="g18916">
          <path
             inkscape:connector-curvature="0"
             id="path18914"
             d="m 0,0 c -0.762,-2.513 -0.32,-6.42 -1.172,-8.768 -0.206,-0.568 -2.264,-2.164 -3,-2 -6.802,-3.493 -13.548,-4.15 -21.358,-4.251 -3.715,-0.048 -7.433,-0.004 -11.144,-0.155 -1.576,-0.065 -3.162,-0.425 -4.696,-0.83 -1.649,-0.436 -2.588,-1.668 -2.596,-3.035 -0.007,-1.288 0.926,-2.584 2.477,-3.057 1.365,-0.416 2.801,-0.788 4.214,-0.825 2.352,-0.061 4.715,0.111 7.067,0.274 6.477,0.447 12.95,0.664 19.354,-0.653 2.818,-0.578 5.518,-1.523 8.031,-3.029 3.751,-2.248 5.564,-5.798 7.028,-9.679 1.404,-3.722 1.714,-7.619 2.05,-11.521 0.467,-5.435 0.453,-10.878 -0.223,-16.282 -0.594,-4.749 -1.653,-9.44 -2.227,-14.191 -0.545,-4.515 -0.827,-9.069 -1.046,-13.614 -0.412,-8.56 0.526,-17.02 2.527,-25.333 1.529,-6.35 2.742,-12.725 3.154,-19.252 0.358,-5.656 0.11,-11.261 -0.986,-16.826 -0.351,-1.783 -1.162,-3.297 -2.428,-4.588 -2.07,-2.112 -5.465,-1.808 -6.794,0.844 -0.723,1.443 -1.134,3.196 -1.139,4.811 -0.009,2.541 0.359,5.096 0.719,7.622 1.039,7.282 1.269,14.561 0.264,21.867 -1.335,9.701 -2.845,19.4 -2.866,29.213 -0.016,7.518 0.828,14.991 2.221,22.399 1.486,7.898 2.087,15.873 0.955,23.86 -0.353,2.488 -1.306,4.933 -2.264,7.282 -1.175,2.881 -3.793,4.349 -6.43,5.652 -4.81,2.377 -10.005,3.029 -15.274,3.047 -4.912,0.017 -9.824,-0.259 -14.737,-0.326 -3.213,-0.043 -6.346,0.434 -9.419,1.495 -4.132,1.426 -6.89,6.157 -5.749,11.078 1.321,5.7 5.479,9.455 11.493,10.09 4.052,0.428 8.128,0.615 12.185,0.994 8.38,0.783 16.593,2.505 24.685,4.754 C -4.762,-2.276 -2.553,-1.069 0,0" />
        </g>
        <g
           transform="translate(74,318.1575)"
           id="g18920">
          <path
             inkscape:connector-curvature="0"
             id="path18918"
             d="m 0,0 c -2.617,0.228 -6.468,0.78 -9,1 -0.775,1.343 -1,8 -3.504,8.432 -2.438,2.771 -5.646,3.615 -9.253,2.924 -4.213,-0.807 -7.5,-2.859 -9.265,-6.943 -1.375,-3.182 0.332,-5.931 3.814,-6.157 2.466,-0.16 4.694,0.71 6.983,1.445 C -16.928,1.76 -15.387,1.333 -12,2 -4.959,3.387 2.705,1.268 5.019,-5.527 6.717,-10.515 7.313,-15.684 7.253,-20.88 7.174,-27.667 6.864,-34.463 6.352,-41.231 5.958,-46.433 4.651,-51.513 2.266,-56.174 c -1.483,-2.897 -3.48,-5.532 -5.27,-8.269 -0.423,-0.647 -0.957,-0.821 -1.737,-0.394 -2.02,1.106 -4.089,2.124 -6.298,3.258 0.038,-0.22 -0.011,-0.114 0.018,-0.082 4.166,4.44 6.37,9.917 8.02,15.619 1.929,6.671 2.642,13.547 3.021,20.468 0.245,4.463 -0.03,8.861 -1.021,13.22 -1.044,4.592 -4.156,7.325 -8.853,7.145 -3.775,-0.145 -7.533,-0.781 -11.29,-1.272 -3.132,-0.409 -6.242,-0.911 -9.42,-0.394 -6.257,1.019 -9.845,7.146 -7.527,13.061 1.641,4.189 4.567,7.36 8.237,9.891 4.749,3.277 9.896,4.485 15.594,3.164 5.083,-1.177 9.016,-3.752 11.121,-8.708 C -2.37,8.724 0.274,1.51 0,0" />
        </g>
        <g
           transform="translate(28.4429,281.9456)"
           id="g18924">
          <path
             inkscape:connector-curvature="0"
             id="path18922"
             d="m 0,0 c -1.785,0.314 -4.203,0.621 -6.555,1.194 -1.594,0.388 -2.544,1.634 -2.723,3.3 -0.213,1.982 1.321,3.316 3.251,2.788 1.149,-0.314 2.232,-0.86 3.355,-1.273 2.997,-1.104 9.29,-0.944 11.882,2.204 1.211,1.469 1.977,3.082 2.135,4.976 0.351,4.231 -0.864,7.736 -4.673,10.029 -1.712,1.031 -3.636,1.344 -5.541,1.132 -2.211,-0.247 -4.382,-0.844 -6.571,-1.289 -0.469,-0.096 -0.934,-0.248 -1.406,-0.278 -1.037,-0.066 -1.952,0.251 -2.338,1.29 -0.389,1.048 -0.111,2.103 0.852,2.63 1.49,0.815 3.039,1.682 4.671,2.047 4.089,0.914 8.175,0.821 12.093,-0.948 2.162,-0.976 3.999,-2.333 5.256,-4.386 2.321,-3.791 6.083,-4.573 10.205,-3.51 4.858,1.254 8.69,4.294 11.42,8.589 0.3,0.472 0.567,0.966 0.886,1.423 0.518,0.744 0.983,1.984 1.621,2.088 1.233,0.201 2.659,-0.02 3.843,-0.483 1.145,-0.448 2.141,-1.357 3.084,-2.198 0.293,-0.261 0.404,-1.033 0.251,-1.44 -1.16,-3.072 -2.956,-5.717 -5.404,-7.943 -3.807,-3.461 -8.008,-6.24 -13.024,-7.566 -1.998,-0.528 -4.077,-0.75 -6.118,-1.118 -0.901,-0.163 -1.867,-0.195 -2.676,-0.563 -0.659,-0.3 -1.475,-0.929 -1.63,-1.558 C 14.729,3.367 10.489,1.26 5.188,0.49 3.689,0.272 2.168,0.2 0,0" />
        </g>
        <g
           transform="translate(54.3115,216.7634)"
           id="g18928">
          <path
             inkscape:connector-curvature="0"
             id="path18926"
             d="M 0,0 C 1.312,0.086 2.61,0.171 3.686,0.242 3.555,-4.083 3.564,-8.481 3.262,-12.858 2.467,-24.359 2.363,-35.857 2.781,-47.375 c 0.538,-14.782 0.876,-29.57 1.425,-44.35 0.187,-5.024 0.535,-10.064 1.231,-15.037 0.381,-2.716 1.426,-5.405 2.569,-7.927 1.203,-2.654 4.115,-3.571 6.701,-2.525 1.646,0.666 2.492,2.103 3.163,3.6 2.029,4.526 2.229,9.271 1.481,14.099 -0.342,2.201 -0.731,4.395 -1.107,6.646 1.226,0.045 2.364,0.086 3.58,0.13 0.056,-0.317 0.154,-0.62 0.157,-0.924 0.059,-5.237 0.189,-10.474 0.123,-15.711 -0.041,-3.127 -0.495,-6.213 -2.339,-8.918 -3.803,-5.58 -10.578,-4.799 -14.139,-0.533 -1.931,2.315 -2.794,5.325 -3.006,8.35 -0.52,7.407 -0.844,14.829 -1.335,22.239 C 0.456,-75.735 0.871,-63.219 0.754,-50.71 0.657,-40.195 0.518,-29.681 0.366,-19.167 0.274,-12.779 0.124,-6.393 0,0" />
        </g>
        <g
           transform="translate(56.7324,215.6282)"
           id="g18932">
          <path
             inkscape:connector-curvature="0"
             id="path18930"
             d="m 0,0 c -2.125,0.142 -3.901,1.223 -4.971,3.402 -1.673,3.407 -1.702,7.058 -1.354,10.682 0.523,5.428 1.767,10.694 4.17,15.649 1.881,3.879 2.477,4.23 6.606,2.982 1.482,-0.448 2.922,-1.072 4.327,-1.732 1.35,-0.634 1.476,-1.077 0.664,-2.318 C 7.365,25.491 5.857,22.063 5.005,18.387 4.213,14.968 4.431,11.483 4.765,8.011 4.883,6.782 4.896,5.535 4.848,4.3 4.742,1.594 2.986,-0.021 0,0" />
        </g>
        <g
           transform="translate(22,309.1575)"
           id="g18936">
          <path
             inkscape:connector-curvature="0"
             id="path18934"
             d="M 0,0 C -1.737,0.272 -3.127,-1.576 -3.956,-3.126 -4.784,-4.677 -5.191,-7.708 -4,-9 c 0.776,-0.842 1.084,-1.313 2,-2 0.916,-0.687 1.151,-0.865 1,-2 -0.292,-2.189 -1.398,-2.345 -3.006,-3.859 -1.742,-1.641 -1.305,-4.718 0.359,-6.438 C -1.984,-25.018 -0.374,-25.7 2,-26 c 4.809,-0.608 10.833,0.003 14.826,2.75 3.993,2.747 6.457,8.014 4.955,12.622 -0.365,1.122 -0.941,2.165 -1.591,3.149 -2.2,3.332 -5.375,6.101 -9.159,7.373 C 7.247,1.165 1.292,1.259 -2,-1" />
        </g>
        <g
           transform="translate(24.0767,298.6042)"
           id="g18940">
          <path
             inkscape:connector-curvature="0"
             id="path18938"
             d="M 0,0 C -3.607,1.028 -4.417,2.868 -2.431,5.52 -2.54,7.386 -1.841,8.485 -0.335,8.817 0.946,9.59 2.77,9.819 4.239,9.924 7,10.122 9.973,9.616 12.418,8.279 c 6.966,-3.812 9.264,-15.695 2.014,-20.35 -2.907,-1.867 -6.462,-2.338 -9.854,-2.15 -1.417,0.078 -2.923,0.253 -4.304,0.609 -2.573,0.661 -4.234,3.697 -3.478,6.433 0.437,1.576 1.645,2.533 1.83,4.341 0.226,2.213 -0.436,4.458 -1.063,6.545 -0.554,1.845 -3.45,1.059 -2.893,-0.797 0.692,-2.305 1.275,-5.19 0.316,-7.536 -0.399,-0.976 -1.503,-1.673 -1.923,-2.689 -0.578,-1.399 -0.594,-2.9 -0.059,-4.313 1.707,-4.509 7.374,-5.354 11.574,-5.593 10.329,-0.589 19.224,6.148 16.847,17.101 C 19.364,9.381 10.75,14.696 1.208,12.497 -7.741,10.434 -9.983,0.892 -0.798,-2.893 0.986,-3.627 1.763,-0.726 0,0" />
        </g>
      </g>
    </g>
  </g>
</svg>
