<?xml version="1.0" encoding="UTF-8" standalone="no"?>
<svg
   xmlns:dc="http://purl.org/dc/elements/1.1/"
   xmlns:cc="http://creativecommons.org/ns#"
   xmlns:rdf="http://www.w3.org/1999/02/22-rdf-syntax-ns#"
   xmlns:svg="http://www.w3.org/2000/svg"
   xmlns="http://www.w3.org/2000/svg"
   xmlns:xlink="http://www.w3.org/1999/xlink"
   xmlns:sodipodi="http://sodipodi.sourceforge.net/DTD/sodipodi-0.dtd"
   xmlns:inkscape="http://www.inkscape.org/namespaces/inkscape"
   version="1.1"
   id="Layer_1"
   x="0px"
   y="0px"
   viewBox="0 0 253.6 356.7"
   style="enable-background:new 0 0 253.6 356.7;"
   xml:space="preserve"
   sodipodi:docname="2 Final Nephron Update 27th Sept19 LONGER distal tubule .svg"
   inkscape:version="0.92.2 5c3e80d, 2017-08-06"><sodipodi:namedview
     pagecolor="#ffffff"
     bordercolor="#666666"
     borderopacity="1"
     objecttolerance="10"
     gridtolerance="10"
     guidetolerance="10"
     inkscape:pageopacity="0"
     inkscape:pageshadow="2"
     inkscape:window-width="1550"
     inkscape:window-height="813"
     id="namedview238"
     showgrid="false"
     inkscape:zoom="1.3232408"
     inkscape:cx="135.31982"
     inkscape:cy="240.36831"
     inkscape:window-x="1314"
     inkscape:window-y="27"
     inkscape:window-maximized="0"
     inkscape:current-layer="UBERON_0004639" /><metadata
     id="metadata4057"><rdf:RDF><cc:Work
         rdf:about=""><dc:format>image/svg+xml</dc:format><dc:type
           rdf:resource="http://purl.org/dc/dcmitype/StillImage" /><dc:title /></cc:Work></rdf:RDF></metadata><defs
     id="defs4055"><defs
       id="defs3881"><polygon
         points="3.4,57.5 15.3,53.6 12.5,49.7 2.5,50.9 "
         id="SVGID_23_" /></defs><clipPath
       id="SVGID_24_"><use
         height="100%"
         width="100%"
         y="0"
         x="0"
         id="use3883"
         style="overflow:visible"
         xlink:href="#SVGID_23_" /></clipPath></defs><style
     type="text/css"
     id="style3669">
	.st23{fill:#1A1A1A;}
</style><g
     id="LAYER_EFO"
     inkscape:label="LAYER_EFO"><g
       id="UBERON_0001228"
       style="fill:none"><title
         id="title4628">Renal Papilla</title><g
         id="g3685"><g
           id="g3683"><g
             id="g3681"><g
               id="g3679"><defs
                 id="defs3672"><rect
                   id="SVGID_1_"
                   x="56.299999"
                   y="317.29999"
                   width="113"
                   height="37" /></defs><clipPath
                 id="SVGID_2_"><use
                   xlink:href="#SVGID_1_"
                   style="overflow:visible"
                   id="use3674"
                   x="0"
                   y="0"
                   width="100%"
                   height="100%" /></clipPath><path
                 class="st0"
                 d="m 56.3,324.6 c 8,5.9 18.8,6.6 28.1,4.3 6.7,-1.7 12.5,-6.1 18.9,-8.9 6.4,-2.8 15.1,-3.9 21.4,-0.7 2.5,1.3 3.6,2.6 5.9,4.1 8.4,4.7 13.7,4.6 20,4.2 6.4,-0.4 12.7,-1.9 18.7,-5.2 -5.4,13.4 -15.8,20.7 -28.9,26.7 -13,7.1 -39.8,6.4 -53.5,0.6 -14,-4.8 -24.9,-15.2 -30.6,-25.1"
                 clip-path="url(#SVGID_2_)"
                 id="path3677"
                 inkscape:connector-curvature="0" /></g></g></g></g></g><g
       id="UBERON_0001287"
       style="fill:none"><title
         id="title4626">Proximal Convoluted Tubule</title><g
         id="g3720"><g
           id="g3718"><g
             id="g3716"><g
               id="g3714"><defs
                 id="defs3689"><rect
                   id="SVGID_3_"
                   x="26.1"
                   y="14.6"
                   width="40.299999"
                   height="65" /></defs><clipPath
                 id="SVGID_4_"><use
                   xlink:href="#SVGID_3_"
                   style="overflow:visible"
                   id="use3691"
                   x="0"
                   y="0"
                   width="100%"
                   height="100%" /></clipPath><g
                 class="st1"
                 clip-path="url(#SVGID_4_)"
                 id="g3712"><g
                   id="g3710"><g
                     id="g3708"><g
                       id="g3706"><g
                         id="g3704"><g
                           id="g3702"><defs
                             id="defs3695"><rect
                               id="SVGID_5_"
                               x="31.299999"
                               y="35.099998"
                               width="25.4"
                               height="17.6" /></defs><clipPath
                             id="SVGID_6_"><use
                               xlink:href="#SVGID_5_"
                               style="overflow:visible"
                               id="use3697"
                               x="0"
                               y="0"
                               width="100%"
                               height="100%" /></clipPath><path
                             class="st2"
                             d="m 31.6,42.6 c 1.3,1.2 0.3,6.3 0.5,9.6 2.9,-1 18.4,-1.5 23.4,-11 1,-1.3 1.7,-2.6 1.4,-3.7 -0.2,-0.6 -0.5,-1.2 -1,-1.6 -1.3,-1.1 -4.2,-2.5 -5.9,-2.4 -0.5,0 -1.1,1.2 -1.5,1.4 -0.4,0.3 0.3,-0.4 0,0 -1.3,1.8 -1.8,5.4 -7.1,7.5 -2.5,1.6 -4.8,1.5 -7.6,1.4"
                             clip-path="url(#SVGID_6_)"
                             id="path3700"
                             inkscape:connector-curvature="0" /></g></g></g></g></g></g></g></g></g></g><g
         id="g3754"><g
           id="g3752"><g
             id="g3750"><g
               id="g3748"><defs
                 id="defs3723"><rect
                   id="SVGID_7_"
                   x="26.1"
                   y="14.6"
                   width="40.299999"
                   height="65" /></defs><clipPath
                 id="SVGID_8_"><use
                   xlink:href="#SVGID_7_"
                   style="overflow:visible"
                   id="use3725"
                   x="0"
                   y="0"
                   width="100%"
                   height="100%" /></clipPath><g
                 class="st3"
                 clip-path="url(#SVGID_8_)"
                 id="g3746"><g
                   id="g3744"><g
                     id="g3742"><g
                       id="g3740"><g
                         id="g3738"><g
                           id="g3736"><defs
                             id="defs3729"><rect
                               id="SVGID_9_"
                               x="26.1"
                               y="14.6"
                               width="40.299999"
                               height="65" /></defs><clipPath
                             id="SVGID_10_"><use
                               xlink:href="#SVGID_9_"
                               style="overflow:visible"
                               id="use3731"
                               x="0"
                               y="0"
                               width="100%"
                               height="100%" /></clipPath><path
                             class="st4"
                             d="m 50.5,27.4 c 2.7,-0.7 5.9,-0.5 8.5,0.6 0.3,-5.4 -2.1,-11.1 -9.7,-12.9 -6.4,-1.8 -12.7,0.3 -17.7,4.7 -1.8,1.5 -4.3,4.5 -5,6.6 -0.8,2.1 -0.1,4.4 1.3,6.2 1.4,1.9 3.9,3 6.3,3.3 2.4,0.4 5,0.1 7.6,-0.2 l 6.1,-0.6 c 2.3,-0.3 4.9,-0.5 7,0.4 2.2,0.9 3.3,3.4 3.8,5.5 0.5,2.3 0.5,4 0.5,6.1 -0.1,5.3 -0.6,9.9 -1.9,15.2 -1.2,5.1 -3.3,11.1 -7.7,14.7 2.4,1.2 4.8,1.8 7.6,2.6 4.8,-5 8,-7.8 9.2,-17 1.7,-6.2 1.2,-14.3 0.2,-20.7 -0.3,-2.8 -0.7,-6.3 -2,-8.8 -1.2,-3 -3.1,-5 -6.4,-5.6 -2.7,-1.4 -6.1,-1.4 -9.1,-0.6 -2.9,0.7 -6.8,2 -9.9,2.6 -1.7,-0.1 -2.9,1 -4.6,-0.4 -1.1,-1.1 -1.1,-2.1 0.9,-4.6 1.9,-2.4 6.6,-4.4 9.9,-3.7 3.2,0.7 4.9,3.9 4.7,6.9"
                             clip-path="url(#SVGID_10_)"
                             id="path3734"
                             inkscape:connector-curvature="0" /></g></g></g></g></g></g></g></g></g></g></g><path
       id="UBERON_0001288"
       class="st5"
       d="m 41,84.4 c 3.6,0.5 7.3,0.5 9.5,2.7 -3.2,3.7 -4.9,8.6 -4.5,13.5 0.2,3.1 1.2,6.4 -0.2,9.2 -0.4,0.8 -1,1.4 -1.4,2.2 -0.4,0.9 -0.5,2 -0.6,3 -1.5,22 1.2,44.4 2.5,66.2 0.4,5 0.9,10.1 2.1,15 0.4,1.7 1,3.4 2.1,4.7 1.1,1.3 3,2.1 4.7,1.5 1.9,-0.7 3,-2.1 3.4,-4.1 0.8,-4.1 0.4,-8.7 -0.4,-13.7 -0.1,-0.7 -0.8,-0.7 -1.2,-1.3 -0.5,-0.6 -1.1,-1.1 -1.6,-1.7 -2.1,-2.5 -1.3,-6.2 -0.8,-9.4 2.8,-16 -2.5,-32.6 -1.1,-48.8 0.6,-6.3 1.6,-12.2 2.1,-18.6 0.5,-6.3 0.2,-15 -4.8,-17.5 2.3,-2 5.4,-4 8.4,-4.5 4.8,6 5.7,14.4 4.9,22 -0.7,7.7 -2.2,15.3 -3.2,22.9 -2.1,16.5 8.1,32.2 4.9,49.5 -0.5,2.5 -1.5,5.2 -3.9,5.9 0.7,3.5 0.6,7.7 0.8,11.3 0.1,2.5 0.4,5.4 -0.4,7.8 -0.7,2.4 -2.5,4.1 -5.4,4.8 -4,1 -7.9,0.2 -10.6,-4.7 -1.4,-4 -1.4,-5.5 -2.4,-10.3 -1.3,-10.5 -2.1,-18.4 -2.7,-29.5 -0.6,-15.2 -0.8,-30.7 -2,-46.7 0,-0.9 0.4,-1.8 0.1,-2.6 -0.3,-0.9 -1,-2.5 -1.6,-3.2 -2.8,-4 -3,-7.7 -2.2,-12.6 0.8,-4.9 3,-8 4.9,-12.5"
       style="fill:none"
       inkscape:connector-curvature="0"><title
         id="title4624">Loop of Henle</title></path><g
       id="UBERON_0001230"
       style="fill:none"><title
         id="title4622">Glomerular Capsule</title><g
         id="g3771"><g
           id="g3769"><g
             id="g3767"><g
               id="g3765"><defs
                 id="defs3759"><rect
                   id="SVGID_11_"
                   x="9.3000002"
                   y="36.299999"
                   width="23"
                   height="24" /></defs><clipPath
                 id="SVGID_12_"><use
                   xlink:href="#SVGID_11_"
                   style="overflow:visible"
                   id="use3761"
                   x="0"
                   y="0"
                   width="100%"
                   height="100%" /></clipPath><path
                 id="UBERON0001230"
                 class="st6"
                 d="m 9.3,41.5 h 0.4 c 0,0 0.4,2.1 2.7,1.7 0.9,-0.1 1.6,-0.5 2.4,-0.7 2.3,-0.7 4.9,-1 7.1,-0.1 2.6,0.6 4.7,2.9 4.4,5.8 0,1.5 -0.2,3.1 -1.1,4.2 -0.9,1.1 -1.6,1.7 -3,1.9 -2.4,0.4 -3.1,0.3 -7.1,-0.1 -0.9,-0.4 -2,-1.1 -2.8,-1 -0.8,0.1 -2.7,1.3 -3,2 -0.3,1.8 0.7,2.4 1.4,3.3 1.1,0.9 2.7,1.2 4.2,1.2 4.1,0.1 6.9,0.6 10.4,-0.5 2.1,-0.7 3.8,-1.6 4,-2 2.1,-2.2 2.5,-2.9 2.9,-5 0.2,-2.2 1,-7.8 -0.6,-9.6 -0.5,-0.6 -1.2,-1.4 -1.7,-2 -0.7,-0.8 -1.3,-1.2 -2.1,-1.8 -0.6,-0.4 -1.2,-0.7 -1.9,-1 -1.6,-1.1 -8.5,-2.2 -12,-0.8 -2.5,1.2 -5.9,2.4 -4.2,4.5"
                 clip-path="url(#SVGID_12_)"
                 inkscape:connector-curvature="0" /></g></g></g></g></g><path
       id="UBERON_0005097"
       class="st7"
       d="m 91.5,23.6 c 0.8,2.3 0,5.1 -1.1,7.5 5.1,3.6 8.5,8.6 11.5,14.2 1.8,-0.9 4.6,-1.6 6.4,-2.5 -1.6,-5.4 -4.7,-11.9 -9.2,-15.3 -2.4,-1.8 -4.8,-3.2 -7.6,-4.2 z"
       style="fill:none"
       inkscape:connector-curvature="0"><title
         id="title4620">Renal Collecting Tubule</title></path><g
       id="UBERON_0001291"
       style="fill:none"><title
         id="title4618">Thick Ascending Limb of LOH</title><g
         id="g3781"><g
           id="g3779"><g
             id="g3777"><path
               class="st8"
               d="m 51.9,87.7 c 3.4,5.3 4,11.5 3.4,17.6 -0.6,6.1 -1.9,12.2 -2.4,18.4 -1.5,16.8 4.9,33.4 1.7,50 -0.4,2.4 -1.1,5.2 0.6,7 1.9,2.3 6.1,1.7 8.3,-0.4 2.2,-2.1 2.7,-5.2 2.8,-8.2 0.5,-12.6 -5.4,-26.3 -5.9,-38.9 -0.3,-9.4 2.8,-17.1 3.8,-26.5 1.1,-9.3 0.9,-16.2 -4.9,-23.9 -3.2,0.5 -5.6,1.8 -8.1,4.4"
               id="path3775"
               inkscape:connector-curvature="0" /></g></g></g></g><g
       id="UBERON_0001232"
       style="fill:none"><title
         id="title4616">Collecting Duct of Renal Tubule</title><g
         id="g3798"><g
           id="g3796"><g
             id="g3794"><g
               id="g3792"><defs
                 id="defs3785"><rect
                   id="SVGID_13_"
                   x="103"
                   y="41.700001"
                   width="25"
                   height="278.10001" /></defs><clipPath
                 id="SVGID_14_"><use
                   xlink:href="#SVGID_13_"
                   style="overflow:visible"
                   id="use3787"
                   x="0"
                   y="0"
                   width="100%"
                   height="100%" /></clipPath><path
                 class="st9"
                 d="m 102.3,44.9 1.8,5.6 0.4,2.1 0.9,5.7 0.1,0.8 0.7,9.5 v 0 l 0.5,14.9 0.4,13.9 v 0 l -0.5,27.2 -1.1,30.6 -0.6,26.7 -1.9,66.2 v 0 l 0.8,28.9 0.1,14.7 v 2.4 0 l 0.6,6 v 0 7.7 0 l -0.6,5.8 0.1,-0.1 -2.3,7.3 1.7,-0.8 v 0 l 6.5,-2.1 v 0 l 5.5,-0.6 v 0 h 3.5 v 0 l 3.2,0.9 v 0 l 3.6,1.8 c 0.1,0.1 0.2,0 0.2,-0.2 l -2,-6.2 v 0 l -0.5,-5.4 -0.7,-15.2 -0.3,-15.4 -0.2,-21.5 -1.2,-32.9 -1.2,-37 -0.3,-29.9 v -25 l -1.4,-74.1 v 0 l 0.7,-8.3 0.5,-5.7 c 0,-0.1 0,-0.1 -0.1,-0.1 l -3.5,-0.2 v 0 h -3.2 l -5.1,-0.2 c 0,0 0,0 -0.1,0 l -2.9,1 v 0 l -2.3,1 c 0.2,0.1 0.2,0.1 0.2,0.2 z"
                 clip-path="url(#SVGID_14_)"
                 id="path3790"
                 inkscape:connector-curvature="0" /></g></g></g></g></g><g
       id="UBERON_0009091"
       style="fill:none"><title
         id="title4614">Vasa Recta Ascending Limb</title><g
         id="g3814"><g
           id="g3812"><g
             id="g3810"><g
               id="g3808"><defs
                 id="defs3802"><rect
                   id="SVGID_15_"
                   x="166.89999"
                   y="118.2"
                   width="26.1"
                   height="131" /></defs><clipPath
                 id="SVGID_16_"><use
                   xlink:href="#SVGID_15_"
                   style="overflow:visible"
                   id="use3804"
                   x="0"
                   y="0"
                   width="100%"
                   height="100%" /></clipPath><path
                 id="UBERON_0009091_1_"
                 class="st10"
                 d="m 187.2,205 c -0.3,-5.4 -0.3,-9.4 -2,-15.1 -0.4,-3.4 -0.6,-4.3 -1.2,-7.6 -0.4,-2.6 -1.5,-4.5 -2.4,-8.6 l 0.1,0.5 c -0.8,-6.1 -2.1,-14.8 -1.5,-20.9 0.1,-4.8 0.5,-9.8 0.7,-14.2 0.1,-2.3 0.5,-3.6 1.5,-5.7 0,-0.1 0.4,-1 0.5,-1 1,-1.5 1.7,-1.9 3,-3 1.7,-1.4 3.5,-2.5 5.4,-3.3 0.6,-0.3 0.9,-0.9 0.7,-1.5 -0.2,-0.8 -0.5,-1.6 -0.8,-2.4 -0.2,-0.5 -0.7,-0.9 -1.2,-0.9 -0.9,0 -1.9,-0.3 -3.1,-0.5 -1.3,-0.1 -3.3,-1.2 -4.5,-1.8 -1.3,-0.7 -0.4,0 -1.4,1.5 -0.4,0.4 -0.4,-0.3 0,0 0.5,0.5 1.3,1.7 1.8,2.2 0.4,0.3 0.8,1.4 0.8,1.4 0,1.7 -2.1,3.3 -3.8,4.4 -1.3,1.1 -2.4,1.9 -3.9,2.5 -1.5,0.6 -1,0.9 -2.5,1.6 0,0 -0.4,0.2 -0.4,0.3 l -0.8,0.4 c -0.3,0.2 -0.3,0.4 -0.4,0.8 0,0.1 0.1,0.7 0,0.8 -0.2,1 0,2.3 0.9,1.8 0.4,-0.2 1.6,-0.8 1.6,-0.8 0.4,-0.4 0.4,0 0.9,0.6 0.2,0.3 0.2,0.8 0.2,1.1 0,0.5 -0.2,0.6 -0.2,1.2 0,0.1 -1,2 -0.3,0.6 -2.6,3.3 -2.6,2.9 -3.3,4 -1.7,2 -0.5,0.6 -0.9,1.6 v 6.7 c 0,2.2 0.1,1.7 0,2.4 0,0.2 0.9,0.9 1,1.1 0.2,0.6 -0.1,1.4 0.1,1.9 0,0.1 0,1.2 0,1.3 -0.5,3.9 0.4,4.4 -0.3,6.2 0,0.1 0,0.2 -0.1,0.3 -0.1,0.3 -0.5,0.8 -0.9,1.6 -0.1,-0.5 -0.2,0.2 -0.2,0.7 -0.1,1.9 -0.5,5.9 2.3,1 0.3,-0.5 0.7,-1 1.1,-1.7 0.4,-1 1,-2 1.7,-2.8 0.6,-0.9 1.2,-0.5 2,0.2 0.4,0.9 0.7,1.7 0.9,2.4 1,4.4 0.9,7.1 -0.1,11.3 -0.9,3.9 -3,3.3 -5.3,2.4 -0.1,0 -0.2,-0.1 -0.3,-0.1 -1.2,-0.2 -0.4,-0.2 -2.8,-0.5 0.1,0.3 0,-0.3 -0.1,1.2 0,0.5 -0.4,1.1 0.1,1.3 1.5,0.6 3,1.2 3.6,3.6 0,0.2 0.1,0.5 0,0.7 -0.3,2.2 -1.8,5 -3.6,6.5 -0.7,0.5 -0.7,3.6 -0.1,3.3 0,0 2.1,0.9 2.7,1 0.1,0 0.2,0.1 0.3,0.1 2.3,1.2 3,2.4 2.4,4.7 -0.3,0.3 -0.4,0.9 -0.3,0.8 -1.6,2.9 -1.9,3 -4.3,4.7 -0.1,0.1 -0.3,0.1 -0.4,0.2 -0.1,0 -0.1,0 -0.2,0 -0.5,0.1 -0.9,0.5 -1.1,1 -0.3,1.7 -0.4,4.9 -0.1,4 l 0.7,0.8 c 1.8,0.2 3.8,0.9 5.4,2 1.8,1.3 3,2.9 2.2,5 -0.1,0.8 -0.7,1.5 -1.3,2.4 -2.5,2.7 -4.1,3.1 -7,4.7 -0.1,0.1 -0.3,0.1 -0.4,0.1 -0.6,0.1 -1.8,0.2 -1.8,0.7 0,0.5 0.1,1.1 0.1,1.8 0.1,1 0.5,2.1 1.3,1.4 1.4,-1.1 3.4,-2.5 5.5,-3.7 0.1,0 0.2,-0.1 0.2,-0.2 1.3,-1.1 4.2,-3.4 5.5,-4.8 2.2,-1.9 4.3,-1.1 4,1.5 -0.4,3.6 -1.1,6.7 -3.5,8.4 -3.7,3.8 -8.3,4.2 -13.2,3.7 0,0.2 0.2,0.8 0.2,1.4 -0.2,0.9 -0.4,1.9 0.3,2 2.4,0.4 5.3,0.2 7.7,-0.7 0.1,0 0.1,-0.1 0.2,-0.1 0.6,-0.3 1.7,-0.9 2.2,-1.1 0.5,-0.3 1.9,-0.9 2.3,-0.4 0.4,0.6 0.4,0.9 0.1,1.6 -0.2,0.9 -1.4,2.2 -2.2,2.7 -2.3,1.9 -4.7,2.6 -7.6,2.5 -0.4,0 -1.5,0.1 -2.4,0.1 -0.7,0.1 -1.3,0.7 -1.2,1.4 0,0.2 0,0.5 0,0.8 -0.1,1 -0.5,2.4 0.1,2.3 1,-0.1 4.7,-0.6 5.7,-0.7 2.2,-0.3 5.1,-1.7 7.1,-3.4 0.1,-0.1 0.1,-0.1 0.2,-0.2 3.6,-4 4.5,-5.8 5.8,-10.7 0,-0.1 0.4,-1.3 0.7,-2.2 1.6,-6.2 2.2,-12 1.8,-20.9 0.1,-2.9 0.2,-1.2 0.1,-2.9 z m -9,-53.2 c -0.5,1.5 -0.7,3.1 -1.2,4.7 0,0.1 -0.1,0.2 -0.1,0.2 -0.8,1.4 -1,1.9 -1,1.9 -2.4,1.7 -1.8,-2.7 -2.4,-3.3 0,-1 0.1,-1.7 0,-2.3 -0.3,-2.2 -2.3,-3.1 -1.7,-3.8 0.7,-1 2.3,-2.9 3.2,-4.4 0.8,-1.4 0,0.1 0,0 1.2,-2.1 2.7,-4.6 3.5,-4.2 0.4,-0.6 -0.8,-0.1 0,0 0.7,0 0.3,1 0.4,1.8 0.1,1.3 0,0.9 0,1.8 0,2.8 -0.4,4.7 -0.7,7.6 z m -0.3,56.7 -0.2,2.1 c 0,0.8 -1.6,1 -2.4,0.9 -0.4,0 -0.8,-0.1 -1.3,-0.3 -0.4,0 -1.2,0.2 -1.8,-0.5 -0.4,-0.7 1.2,-2 1.8,-2.7 0.4,-0.2 -0.4,0.2 0,0 0.2,-0.1 0.2,-0.2 0.6,-0.7 l 0.8,-0.9 c 0.1,-0.1 0.6,-0.7 0.6,-0.7 2,-2.5 1.9,1.7 1.9,2.8 z m -1.7,-11.8 c -3,-1.6 -1.4,-6 -0.1,-7.8 0.4,-0.6 -0.6,0.9 0,0 0.6,-1.6 1.2,-2.2 2.2,-4 0,-0.1 0.1,-0.1 0.1,-0.2 0.2,-0.8 0.7,-1.9 1.2,-2.8 0.5,-0.9 1.8,-0.9 2.2,0 v 0.1 c 0.2,0.3 0.3,3.7 0.2,4.2 -0.2,3.6 -1.2,13.3 -5.8,10.5 m 8.1,9.8 c -0.3,2.8 -0.4,5.9 -2,6.8 -1,1.3 -1.7,-1.2 -1.7,-1.2 -1,-4 -0.5,-6.5 0.2,-9.7 0,-0.1 0.1,-0.2 0.1,-0.3 0.7,-1.3 1.7,-2.4 2.4,-1.9 v -0.4 c 1.7,1.6 0.9,4.1 1,6.5 z"
                 clip-path="url(#SVGID_16_)"
                 inkscape:connector-curvature="0" /></g></g></g></g></g><path
       id="UBERON_0009202"
       class="st11"
       d="m 166.8,227.2 c 0.2,1 0.5,2.7 0.6,3.7 0,0.3 -0.1,0.5 -0.4,0.7 -0.6,0.8 -1.4,1.2 -1.7,2.1 -0.6,1.7 0,1.4 1.9,1.9 0,0.6 -0.1,2.8 -0.1,3.6 -1,0.4 -1.9,0.3 -2.8,-0.1 -1.8,-0.4 -3.3,-1.4 -4.9,-2.1 -0.8,-0.3 -2.3,-1.2 -3.1,-1.4 -1.5,-0.4 -1.8,0.4 -1.4,2 0.3,1.3 0.5,1.5 1.7,2.1 2.4,1.7 4.8,3.1 7.5,3.5 0.3,0.1 0.5,0.2 0.8,0.2 1.7,0.3 2.6,0 2.5,2.4 0.1,3.7 -0.5,4 -4.8,2.6 -6,-1.8 -7.9,-4.1 -12,-10.1 -2.7,-3.1 -4.4,-8.8 -6.2,-12.5 -1.6,-3.3 -1.8,-7 -2.4,-10.6 -0.4,-2.6 -0.5,-5.6 -0.6,-8.3 -0.2,-8.5 0,-16.9 0.2,-25.3 0.2,-8.1 -0.5,-16 -1.1,-24.1 -0.2,-3.5 -0.6,-7.1 -0.8,-10.5 -0.4,-7.8 -0.8,-15.7 1.9,-23.3 1.7,-4.8 3.3,-8 5.3,-12.6 0.3,-0.7 2.6,-4.1 3.3,-4.6 0.1,1.8 -0.2,5.2 -0.4,6.9 -0.2,1.2 -1.2,2.6 -1.8,3.8 -3.4,6.2 -3.5,12.1 -5,19.2 -0.4,1.8 0,3.7 0.6,5.5 0.4,1.4 1.6,1.8 3,1.4 1.1,-0.3 2.2,-0.7 3.3,-1.1 3.8,-1.4 7.6,-2.8 11.5,-4.1 1.9,-0.6 3.6,-1.3 4.9,-2.8 0.2,-0.2 1.7,-1.7 2.2,-2 -0.2,1.6 0.7,5.4 -1.5,6.5 -1.4,1.1 -1.9,2.7 -0.5,3.7 0.3,0.2 1.2,-0.1 1.2,0.3 0,2.8 -0.2,6.4 -0.3,9.2 0,0.2 0,1.9 -0.1,2 -2.3,2.6 -2.6,4.5 -3.5,7.6 -0.3,1.2 -0.5,2.4 -0.6,3.7 -0.2,3.2 1.9,1.6 3.6,0.7 0.2,1.3 0.8,7.1 -1.4,5.8 -1,1.4 -1.9,1.9 -1.4,3.4 0.4,1.3 1.5,1.9 2.8,2 1.1,0.1 2.3,0.2 3.6,0.4 -0.1,0.9 -0.2,1.7 -0.3,2.7 -1,-0.1 -1.5,0.2 -2.5,0 -1.8,-0.3 -2.5,-0.1 -4.1,0.6 -1.5,0.7 -3.5,2.4 -3.2,4.2 0.5,2.6 1.8,4.8 4.1,6.3 0.3,0.2 1.4,0.5 1.4,0.8 0,3 0.4,8.9 0.1,11.6 -1.5,-1.1 -3.6,-3.9 -4.8,-4.8 -0.2,-0.1 -0.3,-0.5 -0.2,-0.7 0.5,-2.6 0,-5 -1.3,-7.3 -0.8,-1.5 -1.7,-2.9 -2.5,-4.3 -0.3,-0.4 -0.6,-0.9 -1.1,-1.1 -1,-0.5 -1,-1.1 -0.9,-2.1 0.1,-0.8 0.3,-1.2 1.1,-1.4 1.1,-0.3 1.8,-1.1 2,-2.2 0.6,-2.3 1.5,-4.2 2.1,-6.4 l 0.2,-1 c -0.2,-0.5 0,-0.4 -0.2,-0.9 -0.4,0.2 -1.1,1.8 -1.7,2.1 0.2,-0.8 -0.3,-3.4 0,-4.1 0.6,-1.4 -1.5,-0.8 -3,-0.7 -1.9,-0.5 -2.3,0.2 -4.9,-1.3 -1.2,-0.7 -4,-1.8 -4.8,-0.4 -0.6,0.6 -0.7,2.3 -0.1,3.3 0.9,0.7 1.7,1.5 1.7,2.4 -0.1,3.1 0.6,6 2.7,8.2 1.5,1 0.6,3.3 0.8,4.3 -0.1,0 -1,-1.4 -1.1,-1.4 -0.9,-1 -1.8,-1.9 -2.8,-2.9 -0.6,-0.6 -0.8,-1 -1.7,-0.3 -0.5,0.4 -1,1.1 -0.8,1.8 1,3.1 2.4,6.3 4.7,8.8 0.5,0.6 0.9,0.9 1.6,1.4 4,2.8 8,5.5 11.9,8.3 3.8,1.5 4.2,5.1 1.8,8 -0.1,0.1 -1.1,-1.2 -1.2,-1.1 -1.6,-1.1 -1.3,-0.5 -2.7,0.8 -1.2,2.4 -3.4,4.1 -5.2,5.9 -1.3,-1.6 -1.4,-3.8 0.2,-5.2 1.1,-1 2.1,-2.6 3.3,-4.8 0.8,-0.9 0,-2 -0.8,-2.7 -1.2,-1.2 -2.5,-2.3 -3.8,-3.2 -1.4,-1.1 -3,-1.9 -4.5,-2.9 -2.3,-1.5 -3.6,0.1 -4.4,2.8 -0.8,2.9 -0.2,5.3 0.8,8.1 0.7,2.1 1.4,3.1 2.9,4.7 0.3,0.2 2.1,0.1 1.8,1.1 0.9,4.6 1.4,6.8 3.9,10.4 1,1 2.2,2 3.6,2.5 3.1,0.5 4.8,1.1 7.2,0.7 0.8,-0.1 0.9,0 1.1,0 z m -18.1,-72.9 c -0.3,-0.6 -1.4,-3.1 -1.8,-3.5 -0.5,-0.5 -0.7,-1.2 -1.3,-1.2 -0.9,0 -1.2,1.1 -1.3,2 0,0.5 -0.1,3.5 0,3.9 0.2,1.2 0,0 0.3,1.2 1.6,6.5 7.1,9.4 12.6,10 2,-0.3 3.2,-0.8 3.5,-2.2 0.3,-1.3 -0.4,-2.9 -1.8,-3.4 -1,-0.3 -1.1,-0.9 -1,-1.7 0.1,-0.5 0,-1.1 0.1,-1.5 0.1,-0.3 0,-1.4 0.2,-1.5 2.9,-0.3 4.9,-1.3 6.2,-3.6 2.1,-3.7 0.6,-7.8 -3.5,-8.8 -4.1,-1 -7.8,0.1 -11.4,2.3 -0.5,0.3 -0.6,0.4 -1,0.9 -0.2,0.3 -0.3,0.3 -0.1,0.5 0.9,-0.4 0.3,5.1 0.3,6.6 z m -4.5,62.8 c 0,0.1 0,0.2 0,0.4 1,6.3 3.9,9.5 8.6,13.7 1.1,0.7 2.7,1.3 3.9,1.7 1.5,0.4 3.2,0.1 2.6,-1.4 -0.2,-0.6 -0.6,-1.1 -1.1,-1.5 -0.7,-0.6 -1.5,-1 -2.3,-1.4 -1.8,-0.9 -3.3,-2.1 -4.2,-4 -0.6,-1.4 -1.3,-2.8 -2,-4.1 -0.9,-1.7 -1.8,-3.3 -2.7,-4.9 -0.2,-0.4 -0.8,-0.6 -1.3,-0.6 -0.9,-0.2 -1.5,0.6 -1.5,2.1 z"
       style="fill:none"
       inkscape:connector-curvature="0"><title
         id="title4612">Vasa Recta Descending Limb</title></path><path
       id="UBERON_0001290"
       class="st12"
       d="m 35.1,98.2 c -0.4,3.5 -0.4,7.2 1.4,10.2 1.2,2 3.4,3.5 5.6,3.1 2.5,-0.5 3.9,-3.2 4.2,-5.7 0.3,-2.5 -0.3,-5 -0.1,-7.5 0.3,-4 2.5,-7.6 4.6,-10.9 -2,-1.4 -4.3,-2.4 -6.6,-3 -2.5,-0.6 -3.4,-0.2 -4.9,1.7 -2.7,3.3 -3.7,7.8 -4.2,12.1 z"
       style="fill:none"
       inkscape:connector-curvature="0"><title
         id="title4610">Proximal Straight Tubule</title></path><g
       id="UBERON_0000074"
       style="fill:none"><title
         id="title4608">Renal Glomerulus</title><g
         id="g3833"><g
           id="g3831"><g
             id="g3829"><g
               id="g3827"><defs
                 id="defs3820"><rect
                   id="SVGID_17_"
                   x="12.3"
                   y="41.299999"
                   width="15"
                   height="13" /></defs><clipPath
                 id="SVGID_18_"><use
                   xlink:href="#SVGID_17_"
                   style="overflow:visible"
                   id="use3822"
                   x="0"
                   y="0"
                   width="100%"
                   height="100%" /></clipPath><path
                 class="st13"
                 d="m 14.3,46.3 c 0.3,-1.7 2.5,-4.1 3.1,-4.2 -0.6,0.3 -1.8,1.1 -0.5,0.3 0.6,-0.4 1.8,-0.8 2.4,-1 0.3,-0.1 1.1,-0.1 1.3,0 0.2,0.1 0.9,0.4 0.9,0.9 0,0 0.3,-0.5 0.5,0.3 0.5,-0.1 1.7,-0.2 2.1,0.1 0.3,0.2 0.6,0.6 0.6,0.6 l 0.2,0.9 c 0.5,0.1 1.1,0.1 1.4,0.6 0.7,0.6 0.6,2 0.2,2 v 0 c 0.9,-1 1.1,1.7 0.7,2.9 -0.1,1 -0.6,1.3 -0.9,2.1 l -0.4,0.4 c -0.2,0.4 -0.2,0.3 -0.5,0.7 -0.2,0.3 -0.4,0.4 -0.9,0.7 -0.4,0.2 -1.1,0.3 -1.4,0.6 -1.3,0.2 -1.7,0.3 -3.1,0 C 19.3,54 17.8,52.9 17.2,52.4 15.3,50.5 15.1,50.6 15.1,50.6 14.2,50.8 14.9,51.1 14,52 l -1.3,-2.1 c 0,0 -0.4,-0.4 0,0 l -0.4,-0.6 c 0,0 -0.3,-0.1 -0.1,-1.9 l 2.1,-1.1"
                 clip-path="url(#SVGID_18_)"
                 id="path3825"
                 inkscape:connector-curvature="0" /></g></g></g></g></g><g
       id="link_glomerulus"
       inkscape:label="#link_glomerulus"><polygon
         id="vaba___a"
         class="st14"
         points="3.1,61.8 31.3,61.5 30.9,35.1 2.9,35.1 "
         style="fill:none;stroke:#0052db;stroke-width:2.0855999;stroke-miterlimit:10"
         inkscape:label="#link_glomerulus" /></g><g
       id="link_collecting_duct"><polygon
         id="link_collecting_duct_1_"
         class="st15"
         points="99.7,151.5 126.9,151.2 126.5,126.1 99.5,126.1 "
         style="fill:none;stroke:#0052db;stroke-width:2;stroke-miterlimit:10" /></g><g
       id="UBERON_0001292"
       style="fill:none"><title
         id="title4606">Distal Convoluted Tubule</title><g
         id="_x3C_Path_x3E__2_"><g
           id="g3854"><g
             id="g3852"><g
               id="g3850"><g
                 id="g3848"><defs
                   id="defs3841"><polygon
                     id="SVGID_19_"
                     points="92.7,23.3 92.6,62.3 65.6,62.3 65.7,23.3 " /></defs><clipPath
                   id="SVGID_20_"><use
                     xlink:href="#SVGID_19_"
                     style="overflow:visible"
                     id="use3843"
                     x="0"
                     y="0"
                     width="100%"
                     height="100%" /></clipPath><path
                   class="st16"
                   d="m 91,32 c 0,0 1.8,-3 1.6,-5.6 -0.1,-1.8 -0.1,-1.8 -0.4,-2.1 0,0 0.2,0.3 0,0 0,0 -3.5,-1.4 0,0 0,0 -7.6,-3.6 -13.1,2.8 -1.1,1.2 -3.3,4.4 -2,5.4 0,0 2,0.4 2.6,0.6 2,0.7 2.2,2.5 3.1,4.2 1.2,2.4 -0.5,4.7 0.5,7.2 2.9,1.4 2.5,2.3 2.5,3.3 0.4,1.8 -0.6,2.9 -2.4,3.1 -0.4,0 0.3,0.2 0,0 -1.1,-1 -1.8,-2.5 -1.6,-3.8 0.3,-1.4 1.1,-2.6 1.5,-3.9 C 84,40.8 83.7,38.1 82.6,35.8 82,34.6 81.2,33.5 79.8,33 77.9,32.3 75,32.2 73.5,33.4 c -1.8,1.4 -3.1,3.4 -3.8,5.4 -1.1,3.8 -0.5,5.9 -1.2,11.7 -0.6,1.1 -1.4,1.8 -1.3,3.1 -0.3,4.3 -1,6.9 -1.6,9.8 1.9,-1.2 4.6,-4 6.2,-5.6 1.1,-1 2.1,-2.3 2.6,-3.6 0.9,-2.4 0.8,-5.2 0.4,-7.7 -0.4,-2.5 -0.9,-3.1 0.3,-5.4 -0.7,2 -0.7,4.4 -0.3,7.1 0.4,3.7 0.8,6.6 4,9.1 3.1,2.5 8,2 10.8,-0.4 3.1,-2.6 3.6,-6.9 2.3,-10.6 -1.3,-3.6 -3.3,-6.2 -5.4,-10.2 -0.3,-1 -0.7,-3.3 1.1,-4 0.6,-0.8 2.3,-0.3 3.4,-0.1 1.2,0.3 -1.7,-1.8 0,0"
                   clip-path="url(#SVGID_20_)"
                   id="path3846"
                   inkscape:connector-curvature="0" /></g></g></g></g></g><path
         class="st17"
         d="m 51.1,87.7 c 2.7,-1.4 5.8,-3.2 8.5,-4.6 -3.9,-4.9 -10.7,-6.5 -17,-6.6 -6.3,-0.1 -12.6,0.9 -18.8,-0.1 -0.7,-0.1 -2.7,-0.6 -3,-1.3 -0.4,-0.8 0,-1.4 0.8,-1.9 0.7,-0.5 2.8,-0.7 3.6,-0.7 9.8,-0.7 20,-0.7 29,-4.6 0.9,-0.4 1.7,-0.8 2.4,-1.5 0.6,-0.7 0.9,-1.5 1.1,-2.4 0.4,-1.7 0.6,-3.5 0.5,-5.3 -6.9,2.2 -13.9,3.9 -20.9,5.3 -2.9,0.5 -5.4,0.6 -8.3,1 -3.2,0 -6.5,-0.1 -9.6,0.6 -3.1,0.7 -6.1,2.3 -7.9,4.9 -1.8,2.6 -2.3,6.3 -0.6,8.9 1.9,2.9 5.6,3.8 9,4.3 4.8,0.7 9.7,0.1 14.6,0.5 3.3,0.3 8,-0.5 10,0.4 4.3,1.8 4.5,0.8 6.6,3.1 z"
         id="path3857"
         inkscape:connector-curvature="0" /></g><g
       id="UBERON_0004640"
       style="fill:none"><title
         id="title4604">Renal Efferent Arteriole</title><g
         id="_x3C_Path_x3E_"><g
           id="g3874"><g
             id="g3872"><g
               id="g3870"><g
                 id="g3868"><defs
                   id="defs3861"><polygon
                     id="SVGID_21_"
                     points="12.3,44 3.9,44 3.9,50.1 12.3,49.9 " /></defs><clipPath
                   id="SVGID_22_"><use
                     xlink:href="#SVGID_21_"
                     style="overflow:visible"
                     id="use3863"
                     x="0"
                     y="0"
                     width="100%"
                     height="100%" /></clipPath><path
                   class="st18"
                   d="M 13,47.5 10.9,47.1 C 7.3,46.6 5.8,44.5 5.8,44.5 L 4.9,44.4 C 5,44.7 4.2,45 4.5,45.9 l 0.3,1 c 0.4,0.5 2.7,2.4 3.5,2.6 2.3,0.7 2.4,0.4 3.7,0.2"
                   clip-path="url(#SVGID_22_)"
                   id="path3866"
                   inkscape:connector-curvature="0" /></g></g></g></g></g><path
         class="st19"
         d="m 192.7,39.8 c 4.2,-0.8 7.8,-3.9 9.4,-7.9 -1.1,-0.4 -2.2,-0.9 -3.3,-1.5 -0.7,1.2 -1.5,2.3 -2.4,3.4 -0.4,0.5 -0.9,0.9 -1.5,1.3 -0.5,0.4 -1.3,0.9 -1.8,1.3 -1,0.6 -0.7,2.4 -0.4,3.4 z"
         id="path3877"
         inkscape:connector-curvature="0" /></g><g
       id="UBERON_0004639"
       style="fill:none"><title
         id="title4602">Renal Afferent Arteriole</title><path
         inkscape:connector-curvature="0"
         id="path3886"
         clip-path="url(#SVGID_24_)"
         d="m 14.4,52.1 c 0,-0.7 -0.4,-0.7 -0.6,-1.2 -0.8,-2.2 -0.7,-1.3 -1.2,-1.3 -1.5,0.1 -0.8,3 -7.2,2.4 L 4,51.7 c -1.3,-0.4 -1.1,0.4 -1,0.1 -0.1,0.6 -0.1,0.8 -0.1,0.8 -0.1,0.3 -0.2,1.2 0.5,1.4 0.9,0.3 1.3,0.5 2.7,0.7 1.5,0.1 1.7,0.3 3,0.2 3.9,-0.7 4.3,-1.9 5.1,-2.8 l 0.1,-0.4"
         class="st20" /><path
         class="st21"
         d="m 192.8,45 c 3.8,-1.7 8,-2.2 12.1,-1.6 0.1,-0.9 0.1,-1.8 0.2,-2.7 -3.6,-1 -7.4,-0.4 -11,0.6 -0.7,0.2 -1.6,0.3 -1.7,1.1 -0.2,0.9 0,1.9 0.4,2.6 z"
         id="path3897"
         style="fill-opacity:1"
         inkscape:connector-curvature="0" /></g></g><g
     id="Outline"><g
       id="Outline_1_"><g
         id="Outline_2_"><g
           id="g3978"><g
             id="g42384"><path
               class="st22"
               d="m 156.8,140.2 c 0.4,-0.1 0.7,-0.3 1.1,-0.4 -0.1,-13 0,-25 0.2,-29 0.4,-6.6 0.6,-11.6 1.3,-16.3 -0.5,-0.8 -0.7,-1.5 -1.1,-2.3 -1,5.7 -1.4,12.5 -1.8,26.2 -0.3,6.6 -0.3,13.2 -0.2,21.8 0.1,0 0.3,0 0.5,0 z"
               id="path3901"
               style="fill:#b0b0b0" /><path
               class="st22"
               d="m 151.1,142.5 c 0.1,-4.2 0.2,-9.7 0.4,-16.9 0.4,-20.6 0.9,-32 1.3,-34.6 0.3,-1.6 1.1,-4.8 1.9,-7.3 -0.3,-0.8 -0.6,-1.7 -0.9,-2.6 -1.4,3.5 -2.4,7.2 -3.1,11.2 -0.5,3.1 -0.7,9.8 -1.5,47.7 0,1.1 0,2.2 -0.1,3.3 0.6,-0.3 1.3,-0.6 2,-0.8 z"
               id="path3903"
               style="fill:#b0b0b0" /><path
               class="st22"
               d="m 156.2,143.6 c 0,1.1 0,1.2 0.1,2.3 0.2,7.5 0.3,15.9 0.3,20.7 0.6,0 1.1,-0.3 1.7,-0.4 -0.1,-6 0,-13.8 0,-22.9 -0.7,0.1 -1.5,0.2 -2.1,0.3 z"
               id="path3905"
               style="fill:#b0b0b0" /><path
               class="st22"
               d="m 149.5,164 c 0.1,-0.9 0.4,-1.3 0.5,-2.1 0.5,-5 0.8,-7.1 1,-16.7 -0.7,0.4 -1.2,0.7 -1.9,1.2 -0.2,6.8 -0.4,11.9 -0.6,13 -0.1,0.9 -0.2,1.9 -0.4,3.5 0.6,0.2 0.9,0.7 1.4,1.1 z"
               id="path3907"
               style="fill:#b0b0b0" /><path
               class="st22"
               d="m 166.2,181 c -0.3,7.2 -0.6,13.9 -0.8,19.3 -0.7,15.7 -1.2,19.1 -2.9,20.8 -2.6,2.5 -5.9,-0.6 -7.6,-6.8 -0.5,-2.3 -0.5,-3.7 -0.3,-13.6 0,-0.4 -0.2,-0.1 -0.2,-0.5 -0.3,-0.2 -0.3,-0.3 -0.6,-0.5 -0.3,11.4 -0.2,12.2 0.2,14.7 1.4,7 3.9,10 7.8,8.8 1.5,-0.4 2.3,-1.6 3.2,-4.1 0.5,-1.4 0.7,-3.6 1.1,-10.3 0.5,-7.9 1,-18.3 1.4,-27.9 -0.5,0 -0.9,0 -1.3,0.1 z"
               id="path3909"
               style="fill:#b0b0b0" /><path
               class="st22"
               d="m 150.1,182.2 0.8,1.1 -0.1,11.2 c 0.5,0.4 1,0.4 1.6,0.8 0.1,-9.1 -0.9,-12.2 0.9,-12 0.3,-0.1 0.6,0.1 0.7,0.3 0.1,0.2 0,5.6 -0.2,12.7 0.3,0.2 0.6,0.3 0.9,0.6 0.2,-5 0.3,-9.2 0.4,-10.8 0.3,-3.6 0.7,-3.1 2,-5.2 1.7,-2.8 1.4,-3.9 1.2,-11.7 -0.2,0 -0.4,0 -0.6,0 -0.3,0 -0.8,0.3 -1.1,0.3 v -0.7 c 0,0.2 0,0.3 0,0.4 v 4.2 c 0,3.2 -0.2,4.4 -0.6,5.3 -0.8,1.1 -2.1,1.9 -3.5,1.8 -2,-0.1 -2.8,-1.3 -3.2,-2.9 l -0.1,-0.2 v -0.6 c -0.2,-0.7 -0.1,-1.4 0,-2.2 0,-0.4 0.1,-0.9 0.1,-1.3 v -0.7 c 0,-1.4 0.1,-2.5 0.2,-4.4 -0.6,-0.2 -1.2,-0.5 -1.8,-0.7 -0.2,2.3 -0.4,4.2 -0.3,6.6 0.1,4.5 0,5.7 2.7,8.1 z"
               id="path3911"
               style="fill:#b0b0b0" /><path
               class="st22"
               d="m 169,181 c -0.5,15.6 -0.9,24.8 -1.2,30.1 -0.5,8.2 -2,12.4 -4.6,13.7 -3.4,1.6 -6.8,0.2 -8.6,-3.5 -0.5,-1.1 -1.3,-3.6 -1.7,-5.4 -0.6,-3.2 -0.7,-4 -0.6,-13.3 0,-1.6 -0.1,-2.5 -0.1,-3.8 -0.4,-0.3 -0.5,-0.7 -0.9,-1 -0.1,-0.1 -0.6,0.1 -0.7,0 l 0.2,1.3 c -0.1,14.5 0,16.1 0.5,17.9 1.5,5.3 4,8.6 7.5,9.7 3.2,1 6.7,-0.9 8.5,-4.6 1.6,-3.6 1.7,-3.6 2.9,-40.8 -0.4,-0.2 -0.8,-0.2 -1.2,-0.3 z"
               id="path3913"
               style="fill:#b0b0b0" /><path
               class="st22"
               d="m 174.6,114.3 c -0.2,-0.2 -0.4,-0.4 -0.6,-0.6 -0.2,0.4 -0.4,0.7 -0.6,1.1 -1.6,2.3 -4.5,1.2 -5.4,-1.9 -0.5,-1.5 -0.5,-3.9 -0.1,-7 -0.5,-0.7 -1,-1.5 -1.4,-2.2 -0.9,8 -0.6,10 1,12.6 l 1,1.6 -0.2,6.8 c -0.4,12.3 -1.2,34.8 -2,54 0.4,0.1 0.8,0.1 1.2,0.2 0.1,-3.5 0.3,-6.9 0.4,-10 0.5,-16.2 0.9,-25.4 1.4,-34.1 0.3,-4.4 0.6,-10 0.7,-12.2 0.2,-3.9 0.3,-4.1 0.9,-4.1 0.6,0 0.6,0.1 0.4,6 -0.1,3.3 -0.4,9.5 -0.7,13.8 -0.8,13 -0.8,14 -1.3,32.2 -0.1,3.1 -0.2,5.9 -0.2,8.6 0.4,0.1 0.8,0.2 1.2,0.3 0.1,-3 0.2,-6.2 0.3,-9.7 0.4,-10.9 0.8,-22.1 1,-24.8 0.2,-2.8 0.5,-9.6 0.8,-15.2 0.5,-10.6 0.6,-11.3 2.1,-13.1 0.5,-0.5 0.8,-0.9 1.1,-1.4 -0.4,-0.3 -0.7,-0.6 -1,-0.9 z"
               id="path3915"
               style="fill:#b0b0b0" /><path
               class="st22"
               d="m 193.6,42.2 c 0.4,-0.2 0.9,-0.4 1.4,-0.5 0,-1.6 0,-2.7 0,-3.4 -0.4,0.2 -0.9,0.4 -1.4,0.5 0.1,0.9 0.1,2.2 0,3.4 z"
               id="path3917"
               style="fill:#b0b0b0" /><path
               class="st22"
               d="m 193.6,44.5 0.1,-0.4 c -0.1,0.1 -0.2,0.2 -0.3,0.2 -0.1,0.8 -0.3,1.3 -0.3,1.3 -0.5,0 -0.8,-5.3 -0.4,-7.8 0.3,-1.7 0.6,-1.5 0.8,-0.4 0.4,-0.2 0.9,-0.4 1.3,-0.6 -0.1,-0.2 -0.1,-0.4 -0.2,-0.7 -0.9,-2 -2.1,-3.3 -4,-4.3 -1.4,-0.7 -2.1,-0.9 -4.2,-0.9 -1.4,0 -3.2,0.2 -3.9,0.4 -1.9,0.6 -4.1,2.2 -5.6,4.2 -0.8,1 -1.8,2.3 -2.4,2.9 -0.6,0.6 -0.9,0.9 -1.4,0.9 0.1,0.4 0.1,0.8 0.2,1.1 1.4,-0.3 2.3,-1.1 3.8,-3.2 3.2,-4.6 7.9,-6.2 12.4,-4.2 2.2,0.9 2.2,1.1 1.8,5.2 -0.3,3.8 -0.1,6.1 0.8,8.3 0.4,0.9 0.4,1.4 0.2,1.8 -0.4,0.8 -2.4,2.6 -3.3,2.9 -3.7,1.4 -8.5,0 -12.4,-3.4 l -0.5,-0.5 c 0.7,1.3 1.6,2.6 2.5,3.8 2.5,1.6 4.3,2 7.5,1.8 3.2,-0.1 4.7,-0.7 6.4,-2.5 1.8,-1.8 2.4,-2.9 2.5,-6.7 -0.5,0.3 -0.9,0.1 -1.3,0.4 z"
               id="path3919"
               style="fill:#b0b0b0" /><path
               class="st22"
               d="m 212.3,46.5 c -0.7,0.6 -1.4,1.3 -2.2,2.1 -4.8,4.7 -6.1,5.7 -10.6,7.1 -2.3,0.7 -2.8,0.7 -10.8,0.7 -2.1,0 -4,0 -5.6,-0.1 0.5,0.6 1,1.1 1.5,1.7 1.5,0 3.1,0.1 4.8,0.1 8,0 8.9,-0.1 14.1,-2.6 2.7,-1.3 3.3,-1.8 7,-5.5 1,-1 1.9,-1.9 2.7,-2.6 -0.3,-0.3 -0.6,-0.6 -0.9,-0.9 z"
               id="path3921"
               style="fill:#b0b0b0" /><path
               class="st22"
               d="m 219.6,42.3 c -2.2,0.3 -3.2,0.7 -5.5,2.7 0.3,0.3 0.8,0.7 1,1.1 1.9,-1.5 2.9,-1.9 4.8,-2.1 2.6,-0.2 3.9,0.1 5.3,1.4 2.5,2.3 3.2,5.2 2.1,9.3 -0.7,2.7 -2.2,5.1 -4.8,7.7 -1.3,1.3 -2.7,2.5 -4.2,3.5 0,0 0,0 0,0.1 -0.2,0.8 -0.4,1.7 -0.6,2.5 2.5,-1.4 4.7,-3.1 6.6,-5.2 3.8,-4.2 5.6,-7.8 5.5,-11.9 -0.2,-6 -4.7,-10 -10.2,-9.1 z"
               id="path3923"
               style="fill:#b0b0b0" /><path
               class="st22"
               d="m 216.6,66.5 c -3.3,2 -6.8,3.5 -11.8,4.5 -1.9,0.4 -5.7,0.6 -9.2,0.7 0.1,0.1 0.2,0.3 0.3,0.4 0.3,0.3 0.5,0.7 0.7,1.1 7.9,-0.1 13.7,-1 19,-3.7 0.3,-0.8 0.8,-2.2 1,-3 z"
               id="path3925"
               style="fill:#b0b0b0" /><path
               class="st22"
               d="m 222.4,50.8 c -0.9,-1.4 -2.3,-2 -3.9,-1.5 -0.5,0.2 -1,0.5 -1.7,1.1 0.1,0.3 0.3,0.6 0.4,1 0,0.1 0.1,0.1 0.1,0.2 v 0.1 c 0.1,0.2 0.2,0.4 0.2,0.6 0.9,-0.9 1.8,-1.3 2.6,-1.3 1.7,0 2,1.4 0.6,3.5 -0.4,0.7 -1.2,1.6 -2.1,2.6 0.1,0.6 0.1,1.3 0.2,1.9 0,0.1 0,0.1 0,0.2 4.1,-4 4.9,-6.1 3.6,-8.4 z"
               id="path3927"
               style="fill:#b0b0b0" /><path
               class="st22"
               d="m 216.1,53.9 c 0.1,-0.2 -0.1,0.2 0,0 -0.2,-0.6 -0.1,-1 -0.4,-1.6 0,-0.1 -0.7,-0.3 -0.7,-0.3 -0.3,0.3 0,0.2 -0.4,0.6 -4.1,4.7 -5.9,6 -10.6,7.6 -4.2,1.4 -7.7,1.9 -15.9,2.1 0.5,0.6 0.9,1.1 1.3,1.7 10.5,-0.6 13.5,-1.2 18.9,-3.8 3.2,-1.5 5.7,-3.6 7.8,-6.3 z"
               id="path3929"
               style="fill:#b0b0b0" /><path
               class="st22"
               d="m 216.7,60.7 c 0,-0.3 0.1,-0.6 0.1,-0.9 0,-0.4 -0.2,-1.2 -0.2,-1.6 -1.9,1.9 -4.2,3.9 -5.3,4.4 -2.5,1.1 -6.5,2 -10.3,2.4 -3,0.3 -6.7,0.4 -10.6,0.2 0.4,0.5 0.8,1 1.2,1.5 7,0.1 11.2,-0.1 13.8,-0.7 5.8,-1.2 7.7,-2.1 11.3,-5.3 z"
               id="path3931"
               style="fill:#b0b0b0" /><path
               class="st22"
               d="m 145.7,33 c -0.2,3.8 -0.8,5.9 -2.8,11.1 -1.9,5 -2.2,6.3 -2.2,9.8 0,0.4 0,0.8 0,1.1 0.5,0.2 0.9,0.4 1.4,0.4 -0.1,-1.3 -0.1,-2.6 0.1,-3.7 0.4,-2.7 0.6,-3.3 2.6,-8.5 2,-5.3 2.5,-7.8 2.5,-12.3 0,-4.1 -0.6,-6.3 -2.2,-8.6 -1.7,-2.5 -3.9,-3.4 -8.1,-3.4 -2.6,0 -5.2,0.7 -7.7,2.1 -1.7,1.1 -4.9,4.7 -6.4,6.9 l -0.4,0.8 -0.2,1.1 c 1,0.8 1.1,2.2 1.8,0.8 1.1,-2.2 5.5,-7.7 8.1,-9 4.1,-2 8.2,-1.9 10.6,0.2 2.3,2.1 3.2,5.6 2.9,11.2 z"
               id="path3933"
               style="fill:#b0b0b0" /><path
               class="st22"
               d="m 168.1,75.9 c -1.2,-3.9 -1.9,-5 -6.1,-9.1 -3.8,-3.7 -4.1,-4.1 -4.9,-6.3 -0.5,-1.3 -0.8,-2.6 -1.1,-4.2 -0.2,0.4 -0.5,0.9 -0.7,1.3 v 0 c -0.1,0.3 -0.3,0.5 -0.4,0.8 0,0.1 -0.1,0.2 -0.2,0.3 -0.6,1.5 -1,2.9 -1.2,4.4 0.2,-0.2 0.4,-0.4 0.5,-0.6 l 1,-1.3 1,1.7 c 0.5,0.9 2,2.7 3.3,4 l 2.4,2.3 -2.2,2.2 c -1.9,1.9 -2.5,2.8 -4.3,6.4 -0.2,0.4 -0.1,0 -0.2,0.4 0.2,0.8 0.5,1.4 0.7,2.2 1.5,-4.2 4,-7.4 6.9,-9.4 1,-0.6 1.3,-0.4 2.5,1.8 l 0.9,1.7 -1.4,1.3 c -1.8,1.7 -2.8,3.4 -4.2,7.4 -0.7,2 -1.3,4 -1.7,6.1 0.4,0.8 0.8,1.5 1.3,2.3 0.8,-4.7 1.8,-8.3 3.1,-11.1 1.1,-2.2 2.9,-4.4 3.5,-4.2 1.1,0.3 1.4,9 1,16.8 0.1,0 0.2,-0.1 0.3,-0.1 0.1,0 0.2,-0.1 0.3,-0.1 0.3,-0.1 0.6,-0.3 1,-0.4 0,-0.5 0,-1.1 0,-1.6 0.1,-8.6 -0.1,-12.1 -1.1,-15 z"
               id="path3935"
               style="fill:#b0b0b0" /><path
               class="st22"
               d="m 150.7,62.9 c 0,0 -0.1,0 -0.1,0.1 -1.2,0.4 -3.2,0.3 -4.2,-0.2 -1.1,-0.6 -2.8,-2.3 -3.4,-3.6 -0.2,-0.4 -0.1,-0.3 -0.3,-0.9 -0.5,0 -1.2,-0.1 -1.7,-0.3 0.3,1.6 0.8,2.4 1.7,3.7 2.1,3.1 5.8,4 8.7,2.7 -0.2,-0.4 -0.5,-0.9 -0.7,-1.5 z"
               id="path3937"
               style="fill:#b0b0b0" /><path
               class="st22"
               d="m 148.4,45.5 c 0,-0.2 0,-0.4 0,-0.6 0,-0.1 0,-0.2 0,-0.4 -0.1,0.2 -0.1,0.5 -0.2,0.7 -2,6.1 -2.3,7 -2.3,8.7 1.8,-2.1 2.3,-6 2.5,-8.4 z"
               id="path3939"
               style="fill:#b0b0b0" /><path
               class="st22"
               d="m 152.9,39 c 0.7,0 1.1,1.3 1.1,3.7 0,1.9 -0.1,2.1 -0.5,1.7 -0.3,-0.3 -0.6,-0.3 -0.7,-0.2 0.7,1.2 1.7,2.3 2.8,2.8 0,-1.4 0,-3 0.1,-4.8 0.1,-3.8 0.5,-6.9 0.6,-9.9 -0.4,-0.2 -1.2,-0.4 -1.7,-0.4 0,0.1 0,-0.1 0,0 l -0.4,6 -1,-0.2 c -0.6,-0.1 -1,-0.2 -1.1,-0.3 0,-0.1 0.1,-1.6 0.2,-3.6 -0.5,0.9 -0.8,2 -1,3 0,1.1 0.1,2.2 0.3,3.4 0.5,-0.8 0.9,-1.2 1.3,-1.2 z"
               id="path3941"
               style="fill:#b0b0b0" /><path
               class="st22"
               d="m 154.2,55 c 0.1,1 0.1,1.7 0.1,2.3 0.2,-0.4 0.3,-0.7 0.5,-1.1 0.4,-1.2 0.6,-2.4 0.7,-3.6 -0.2,-2.1 -0.8,-5.2 -2.7,-6 0.1,0.5 0.2,1.1 0.3,1.7 0.5,2 1,5 1.1,6.7 z"
               id="path3943"
               style="fill:#b0b0b0" /><path
               class="st22"
               d="m 149.7,48.9 c -0.1,0.4 -0.2,0.9 -0.3,1.4 -0.1,0.7 -0.2,1.4 -0.2,2 0.3,0.8 0.5,1.7 0.5,2.1 0,0.8 -0.1,1 -0.4,1 0.1,0.6 0.2,1.3 0.5,1.9 v 0 c 0.5,-0.2 1,-0.5 1.1,-0.8 0.4,-0.6 0.2,-2.5 -0.6,-5.2 -0.3,-0.9 -0.5,-1.7 -0.6,-2.4 z"
               id="path3945"
               style="fill:#b0b0b0" /><path
               class="st22"
               d="m 151.1,31.2 c 0,0.6 -0.1,0.6 -0.1,1.1 0.5,-0.5 1.2,-1.4 1.7,-1.9 0.5,-7.3 -0.4,-9.9 -3.3,-13 -2.8,-3 -6.1,-4.2 -11.8,-4.2 -4.8,0 -9.9,1.6 -14,4.2 -2.1,1.4 -5.6,4.8 -6.7,6.7 -1.4,2.3 -1.4,3.2 -1,2.1 0.3,0.3 0.7,0.5 0.8,0.5 0.1,0 0.9,-1 1.7,-2.1 2.8,-4.1 8.7,-8 13.7,-9.3 6.4,-1.6 12.7,-0.5 16,2.8 2.8,2.9 3.6,6.3 3,13.1 z"
               id="path3947"
               style="fill:#b0b0b0" /><path
               class="st22"
               d="m 193.3,71.7 c -1.8,0 -2.8,0 -3.9,-0.1 -1.2,-0.1 -5.4,-0.3 -9.4,-0.4 l -7.2,-0.2 -1.9,-2.1 -1.9,-2.1 1.3,-0.4 c 1,-0.3 3.1,-0.3 10.2,0 3.5,0.1 6.6,0.3 9.3,0.3 -0.4,-0.5 -0.8,-1 -1.2,-1.5 -0.7,0 -1.4,-0.1 -2,-0.2 -2.4,-0.2 -4.8,-0.5 -5.3,-0.5 -0.5,-0.1 2.3,-0.3 6.4,-0.5 -0.5,-0.6 -0.9,-1.2 -1.4,-1.7 -1,0 -2.1,0 -3.3,0 -11.6,0 -12.6,-0.1 -16.2,-1.8 -0.3,-0.2 -0.6,-0.3 -0.9,-0.5 -0.2,0.4 -0.5,0.9 -0.7,1.3 0.2,0.1 0.5,0.2 0.8,0.4 2,1 5.6,2.1 6.9,2.1 1.1,0 0.3,0.4 -1.8,0.8 -1.2,0.3 -2.3,0.6 -2.9,0.7 -0.6,0.2 -0.5,0.4 -2.6,-2 -0.5,-0.5 -0.9,-1 -1.2,-1.4 -1.7,-1.4 1.8,2.2 1.8,2.1 -2,-2.3 -1.7,-2 -1.8,-2.1 l -0.6,-1 c -2.4,-3.5 0.9,2 0.5,0.9 0,0 -1.5,-3.2 -2.3,-6.1 -1.3,-0.9 1.1,4.6 0.3,0.1 -0.3,-1 -0.5,-2.2 -0.4,-2.6 l 0.1,-0.8 1.6,1.2 c 0.9,0.5 1.3,1.4 2.2,1.8 0.2,-0.6 0.5,-2.4 0.6,-3 -1.4,-0.7 -2.1,-0.8 -2.9,-1.5 l -1.4,-1.2 v -0.4 c -0.6,0.4 -1.2,0.8 -1.8,1.2 0.1,3 0.3,5.4 0.6,6.6 1.3,4.7 2.2,6 8.8,12.2 2,2 2.5,2.6 3.4,4.8 1.8,4.3 2,4.6 2.1,16.1 0.6,-0.1 0.9,-0.3 1.4,-0.4 0,-8.7 0,-10.1 -1.1,-13.9 -0.4,-1.5 -0.7,-2.9 -0.6,-3 0.4,-0.4 8.8,-0.3 14.5,0.2 2,0.2 3.3,0.3 5.2,0.3 -0.7,-0.7 -1,-1.2 -1.3,-1.7 z"
               id="path3949"
               style="fill:#b0b0b0" /><path
               class="st22"
               d="m 168.9,15.3 c 0.3,0.3 -0.1,0.9 0,1.5 0.1,-0.1 0.4,-0.9 0.5,-1 0.3,-0.5 0.3,-0.9 0.6,-1.4 -2.2,-1.7 -2.6,-1.7 -4.1,-0.9 -1.6,0.9 -2.8,2.3 -3.6,4.9 0.1,0 0.2,-0.1 0.4,-0.1 0.5,-0.1 0.9,-0.1 1.3,-0.1 1.1,-2.7 3.2,-4 4.9,-2.9 z"
               id="path3951"
               style="fill:#b0b0b0" /><path
               class="st22"
               d="m 172.5,45.6 -1,-0.1 c -1.6,-0.2 -3.5,-0.6 -4.3,-0.9 -3.3,-1.1 -5.3,-4.1 -5.3,-8 0,-3.5 0.7,-5.5 2.8,-7.4 -0.6,0.1 -1.1,0 -1.5,-0.2 -0.1,0 -0.1,0 -0.2,0 l -0.9,0.8 v -1.4 c 0,-1.4 0.5,-4.6 1,-6.9 -0.6,0.2 -1.2,0.5 -1.7,0.8 -0.2,0.9 -0.3,1.9 -0.5,2.9 -0.4,2.6 -0.6,6.2 -0.8,10 0.3,0.7 0.5,1.4 0.5,2.2 0.2,2.2 0.5,3.7 0,5.9 0.1,0.4 -0.3,1.4 -0.1,1.8 0.3,0.4 0.7,0 1.2,0.2 v -3.1 l 1.6,1.5 c 1.9,1.9 3.6,2.7 7.2,3.2 1.3,0.2 2.1,0.4 2.7,0.6 -0.2,-0.7 -0.5,-1.3 -0.7,-1.9 z"
               id="path3953"
               style="fill:#b0b0b0" /><path
               class="st22"
               d="m 168.2,35.6 c 0,-1.7 0.8,-2.9 3.2,-4.4 -0.1,-0.6 -0.2,-1.2 -0.5,-1.7 -3.5,2.1 -4.9,4.4 -4.4,7 0.3,2.1 2.3,3.8 4.8,4 0,-0.5 0,-0.9 0,-1.4 -2.3,-0.4 -3.1,-1.4 -3.1,-3.5 z"
               id="path3955"
               style="fill:#b0b0b0" /><path
               class="st22"
               d="m 197.8,10.8 c -0.1,-0.4 -0.8,-2.6 -3.7,-4.7 0.1,0.5 0.1,1 0,1.5 1.2,1.2 1.7,2.2 2.1,3.3 0.7,1.5 0.6,3.8 -0.2,5.4 -0.8,1.6 -3.3,3.9 -5.3,4.9 -1.8,0.9 -5.4,1.1 -8.4,0.8 -0.4,0.6 -0.8,1.2 -1.2,1.8 1.7,0.3 3.5,0.4 5.2,0.3 2.5,-0.1 3.2,-0.2 5,-1.1 2.5,-1.3 5.1,-3.8 6,-5.8 1.1,-2.4 1.2,-3.8 0.5,-6.4 z"
               id="path3957"
               style="fill:#b0b0b0" /><path
               class="st22"
               d="m 175.2,11.5 c 0.3,0 0.6,-0.1 0.9,-0.1 0.6,0 1.2,0.1 1.8,0.4 l -1.2,-1.1 c -0.8,-0.8 -1.5,-1.5 -1.5,-1.7 0,-0.2 1.3,-1 2.9,-1.8 l 2.9,-1.4 3,-1 c 4.5,-0.9 6.4,0 7.6,0.8 -0.1,-0.4 -0.3,-0.8 -0.6,-1.2 -1.5,-0.6 -2.5,-0.6 -4.2,-0.6 -3.9,0 -6,1 -8.3,2.3 -1.3,0.6 -3,1.5 -3.8,2 l -1.5,1 -1.9,-0.7 c -2,-0.7 -4.9,-1.2 -6.9,-0.7 -1.8,0.5 -5.3,2.2 -6.5,4.9 -1.4,2.2 -2.3,6.2 -3,14.1 0.5,-1 1,-2 1.6,-3 0.4,-4 0.9,-6.9 1.6,-8.9 0.8,-2.4 2.4,-4.2 4.9,-5.5 2.1,-1.2 4.2,-1.3 7.3,-0.5 1.8,0.5 2.9,1 4.9,2.7 z"
               id="path3959"
               style="fill:#b0b0b0" /><path
               class="st22"
               d="m 181,14.9 c 0,0.1 0.1,0.1 0.1,0.2 0.8,1.2 1.4,1.9 2.5,2.1 0.4,-0.2 0.9,-0.4 1.3,-0.6 -0.6,-0.1 -1.3,-0.4 -2.2,-0.8 -0.6,-0.3 -1.2,-0.6 -1.7,-0.9 z"
               id="path3961"
               style="fill:#b0b0b0" /><path
               class="st22"
               d="m 180.4,11 -2.1,1 c 0.5,0.3 0.9,0.6 1.4,1 0.1,0.1 0.2,0.2 0.3,0.3 0.3,-0.2 0.7,-0.3 1.3,-0.6 3.3,-1.5 6.6,-1.3 7.7,0.6 0,0 0,0 0,0.1 0.5,-0.5 0.9,-1.1 1.2,-1.7 -0.1,-0.1 -0.2,-0.3 -0.4,-0.4 C 187.7,9.1 184.3,9 180.4,11 Z"
               id="path3963"
               style="fill:#b0b0b0" /><path
               class="st22"
               d="m 190.1,14.9 c -0.6,0.7 -1.3,1.4 -2.1,2 -0.1,0.1 -0.2,0.2 -0.3,0.3 -0.1,0.1 -0.2,0.2 -0.3,0.2 1.3,-0.3 2.3,-0.9 2.8,-1.9 0.3,-0.5 0.4,-0.9 0.5,-1.4 -0.2,0.3 -0.4,0.5 -0.6,0.8 z"
               id="path3965"
               style="fill:#b0b0b0" /><path
               class="st22"
               d="m 177.8,24.5 c 0.2,-1.2 0.3,-1.4 0.9,-1.2 0.2,0.1 -0.2,0 0,0 -0.6,-0.1 -0.1,0.1 0,0 0.2,-0.5 0.7,-1.3 0.8,-1.8 -0.5,-0.1 -0.5,-0.2 -0.9,-0.3 -0.7,-0.4 -2.9,-2 -4.7,-3.7 -0.3,-0.2 -0.5,-0.5 -0.7,-0.7 -0.3,0.6 -0.5,1.2 -0.7,1.8 v 0 c 0.8,0.7 1.9,1.9 2.6,2.8 1.8,2.4 1.5,4.1 -1.6,6.4 0.5,0.2 1.1,0.2 1.7,-0.2 0.8,-0.5 1.6,-1.6 2.3,-2.2 0.1,-0.3 0.2,-0.4 0.3,-0.9 z"
               id="path3967"
               style="fill:#b0b0b0" /><path
               class="st22"
               d="m 168.2,55.6 c 3.7,1.4 8,2.1 14.4,2.3 -0.5,-0.6 -1,-1.1 -1.5,-1.7 -3.8,-0.2 -6.2,-0.6 -9,-1.3 -0.9,-0.2 -1.9,-0.6 -2.9,-1 -0.4,0.6 -0.7,1.1 -1,1.7 z"
               id="path3969"
               style="fill:#b0b0b0" /><path
               class="st22"
               d="m 175.2,93.4 c -0.1,0 -0.3,0 -0.4,0 0,1 0,1.5 0,2.6 0,9.8 0,13.8 -0.3,16 0.5,0.6 1.1,1.1 1.6,1.7 0.4,-1.9 0.4,-5.6 0.4,-15 0,-2.4 0,-3.9 0,-5.8 -0.4,0.1 -0.8,0.3 -1.3,0.5 z"
               id="path3971"
               style="fill:#b0b0b0" /><path
               class="st22"
               d="m 167.3,96 c -0.1,1 -0.1,1.4 -0.2,2.3 -0.2,1.2 -0.3,2.3 -0.4,3.3 0.5,0.7 1,1.4 1.5,2.1 0,-0.3 0.1,-0.5 0.1,-0.8 0.5,-2.5 0.7,-3.7 0.8,-7.5 -0.6,0.3 -1.3,0.4 -1.8,0.6 z"
               id="path3973"
               style="fill:#b0b0b0" /></g><g
             id="layer3-1"
             transform="matrix(0.24266386,0,0,0.24370992,29.107597,63.960748)" /><path
             id="path165"
             d="m 121.5,353.1 c 9,-1.2 15.7,-3 22.5,-6.3 7.9,-3.8 14.3,-8.9 18.5,-14.6 2.1,-3 4.1,-6.3 3.8,-6.5 -0.1,-0.1 -0.6,0.1 -1.1,0.3 -3.8,1.9 -9.1,3 -15.9,3.3 -4.8,0.2 -5.3,0.1 -8.4,-0.6 -4.3,-1.1 -7.9,-2.8 -12.6,-6 -4.9,-3.3 -7.3,-4.2 -11.6,-4.4 -3.3,-0.1 -6.5,0.4 -9.8,1.6 -0.9,0.3 -4.4,2.1 -7.6,4 -4.2,2.4 -7.2,3.8 -10.2,4.9 -6.5,2.4 -7.8,2.6 -13.7,2.6 -5.8,0 -8.6,-0.5 -13.4,-2.5 -1.5,-0.6 -2.7,-1 -2.7,-0.8 0,0.1 2.5,2.8 5.5,5.9 8.1,8.2 13.6,12 21.7,15.1 4.4,1.6 11,3.3 16,4 2.4,0.3 4.8,0.7 5.3,0.8 1.6,0.2 8.9,-0.2 13.7,-0.8 z m -9.2,-5.2 c -2.2,-0.8 -2.1,-2.1 0.2,-2.8 2.8,-0.8 6.3,0 6.3,1.4 0.1,1.5 -3.9,2.3 -6.5,1.4 z m 5.7,-0.6 c 0.4,-0.2 0.7,-0.6 0.6,-0.8 -0.2,-0.6 -2.3,-1.4 -3.7,-1.4 -1.5,0 -3.5,0.8 -3.8,1.5 -0.1,0.2 0.4,0.6 1.1,0.9 1.4,0.6 4.7,0.5 5.8,-0.2 z M 81.9,340 c -2.4,-0.8 -2.8,-1.6 -1.2,-2.5 0.8,-0.4 1.8,-0.6 4.2,-0.6 2.5,0 3.4,0.1 4.2,0.6 2.3,1.2 0.5,2.5 -3.8,2.7 -1.4,0 -3,-0.1 -3.4,-0.2 z m 6.9,-0.7 c 1.2,-0.6 1.2,-1 0,-1.5 -2.7,-1.3 -10.2,-0.3 -8.4,1.2 1.3,1 6.5,1.2 8.4,0.3 z m 51.2,0.4 c -1.8,-0.6 -2.4,-1.4 -1.9,-2.2 1.5,-2.4 11.2,-2 11.2,0.6 0,1.8 -5.9,2.9 -9.3,1.6 z m 7.9,-0.6 c 1.3,-0.8 1.3,-1.3 -0.1,-2.2 -1.6,-0.9 -6.7,-1 -8.3,0 -0.6,0.4 -1.2,0.8 -1.2,1 -0.2,0.5 1.2,1.4 2.6,1.7 1.7,0.5 5.8,0.2 7,-0.5 z m -36.6,-6 c -2.9,-0.8 -3.3,-2.1 -1.1,-3.3 1,-0.5 1.9,-0.6 4.6,-0.6 2.7,0 3.6,0.1 4.6,0.6 1.8,0.9 1.8,2 0,2.8 -1.4,0.9 -6,1.1 -8.1,0.5 z m 7.9,-0.7 c 1.6,-0.8 1.6,-1.4 0.1,-2.2 -2.6,-1.3 -8.6,-0.9 -9.8,0.6 -1.7,2 6.3,3.3 9.7,1.6 z m -9.3,-15 c 3.2,-0.8 7.4,-0.7 10.7,0.1 1.5,0.4 3,0.9 3.3,1 0.5,0.3 0.6,0.3 0.4,-0.3 -0.1,-0.3 -0.6,-1.7 -1,-3.2 -1,-3.4 -1.3,-8.5 -1.6,-26.7 -0.2,-13.7 -0.3,-14.3 -0.9,-15.6 -0.9,-1.7 -2.5,-3.1 -4.4,-3.8 -3.9,-1.5 -9.7,1.2 -10.8,5.1 -0.2,0.6 -0.3,2.2 -0.3,3.7 0,3.1 -0.4,3.9 -2,3.9 -0.8,0 -1.3,-0.4 -2.8,-1.9 l -1.8,-1.9 -1.5,1.3 c -0.8,0.7 -1.5,1.5 -1.5,1.7 0,0.2 0.9,1.5 1.9,2.8 2.1,2.6 5.5,8.7 6.9,12.3 1.3,3.3 1.8,6.4 1.8,10.3 0,4.8 -0.8,8.2 -3.1,13.5 -0.1,0.2 0.9,-0.1 2.2,-0.7 1.2,-0.6 3.3,-1.3 4.5,-1.6 z m 25.5,-61.9 c 0,-1 -0.4,-1.6 -1.3,-2.1 -0.5,-0.3 -1,-0.5 -1.1,-0.5 -0.4,0 -0.1,1.6 0.5,2.4 0.7,1 1.9,1.1 1.9,0.2 z m -76.9,-50 c 1.6,-1 2.8,-3.5 3.3,-6.5 0.4,-2.3 -0.2,-14.8 -0.6,-15.2 -0.1,-0.1 -0.8,-0.1 -1.6,0 -1,0.1 -1.3,0.3 -1.2,0.6 0.5,1.3 0.9,6.1 0.8,10 -0.1,3.8 -0.2,4.6 -0.8,5.7 -1,2.5 -2.1,2.8 -3.9,3 -2.8,0.3 -4.3,-0.9 -5.8,-4.7 -1.7,-4.2 -1.9,-6 -3.1,-21.6 -0.4,-6 -0.9,-12.9 -1.1,-15.4 C 43,140.8 42.7,128 43.4,115.9 l 0.2,-2.6 h -1.4 c -2.4,0 -2.3,-0.3 -1.9,7.6 0.8,16.2 1.4,27.7 1.7,35.9 0.5,15.2 1.9,34.9 2.7,39.3 1,5.2 3,8.7 5.7,10 1.9,0.8 6.4,0.5 8.1,-0.6 z m -2,-4.2 c 1.1,-0.9 1.9,-3.2 1.9,-8.5 0,-6.5 -0.4,-8 -2.6,-10.1 -2.7,-2.6 -2.7,-3.1 -1.4,-11.1 1.2,-7.2 0.9,-15.2 -1.1,-26.7 -1.3,-7.6 -1.2,-19.8 0.4,-29.3 0.3,-2.1 0.8,-6.4 1.1,-9.6 0.8,-9.1 0.1,-13.5 -2.5,-16.4 L 51,88.2 50.2,89.3 c -1.1,1.7 -2.3,4.7 -2.8,7.5 -0.4,2 -0.4,3.2 -0.2,6.7 0.3,4.6 0.2,5.7 -1,7 -0.8,0.9 -1.1,2.6 -1.7,10.5 -0.9,11.3 -0.5,24.1 1.3,43.8 0.3,2.8 0.7,8.3 1,12.2 0.9,12.6 1,16.3 2.1,19.6 0.9,2.6 1.3,4.3 3.6,5.3 0.5,0.3 2.2,0.2 4,-0.6 z m 4.8,-22.2 c 2.7,-1.3 3.5,-3.7 3.5,-11.5 0,-6.7 -0.6,-8.2 -2.2,-16.7 -2.1,-8.6 -2.4,-10.6 -2.6,-17.1 -0.2,-6.9 0.2,-11.4 1.5,-17.9 1.6,-8.1 2,-13.2 1.3,-21 -0.4,-4.3 -1.3,-7.5 -3,-10.6 C 58,81.1 55.1,79.1 50,77.7 47.4,77 46.9,77 35.2,77 23.7,77 23,77 21.8,76.4 c -2.4,-1.2 -2.3,-3.6 0.3,-4.6 0.9,-0.3 3.8,-0.5 9.3,-0.7 9.6,-0.3 12.7,-0.9 18.4,-3.2 5.8,-2.4 5.8,-2.3 6.8,-5.4 0.5,-1.5 0.9,-2.7 0.8,-2.8 -0.1,-0.1 -1.4,0.4 -3,1 -6.1,2.4 -17.5,4.3 -30.9,5.3 -5.8,0.4 -8,1.1 -10.2,3.1 -2.7,2.4 -3.6,5 -2.9,8 0.7,2.7 3,4.5 7.4,5.7 1.7,0.5 3.7,0.6 12.6,0.6 11.6,0.1 13,0.2 17.7,2.1 3.6,1.4 5.4,2.8 6.5,5.2 2.7,5.7 2.8,12.1 0.6,25.2 -0.8,4.4 -1,6.9 -1.1,11.9 -0.2,6.8 0.1,10.4 2.2,24.7 0.9,5.9 1,7.3 0.8,11.5 -0.1,2.6 -0.4,6.5 -0.7,8.5 -0.3,2.1 -0.5,4.1 -0.3,4.6 0.2,2.2 2.9,3.1 5.2,2 z M 43.7,109.9 c 1.7,-1 1.8,-1.5 1.5,-6.4 -0.2,-3 -0.1,-5 0.2,-6.3 0.4,-1.9 2.1,-5.9 3.7,-8.3 l 0.8,-1.3 -0.8,-0.5 c -1,-0.7 -4.2,-1.7 -6,-2 -1.4,-0.2 -1.5,-0.2 -2.4,0.9 -1.3,1.5 -2.9,5.3 -3.9,8.9 -0.7,2.5 -0.8,3.8 -0.9,6.9 0,3.6 0,4 0.9,5.7 0.7,1.4 1.2,2 2.2,2.5 1.8,0.7 3.4,0.7 4.7,-0.1 z M 96.1,95.8 c 1.3,-1.4 1.5,-1.9 0.6,-1.9 -1,0 -3.6,3.1 -3,3.6 0.3,0.3 1.1,-0.3 2.4,-1.7 z M 58.8,77.6 c 4.6,-5.5 6.7,-11.4 7.5,-21.4 0.5,-6 0.2,-15.4 -0.7,-19 -0.7,-3.3 -2.2,-6.2 -3.8,-7.6 -4,-3.5 -9,-3.7 -17.5,-0.9 -4.7,1.6 -7.3,1.9 -9.1,1.1 -2.3,-1 -2.3,-3.2 -0.2,-6 1.8,-2.3 6.8,-4 10.1,-3.4 1.8,0.3 3.9,1.4 4.8,2.4 0.3,0.3 0.8,1.1 1.1,1.8 l 0.6,1.2 2.9,0.1 c 1.6,0.1 3.1,0.2 3.5,0.4 0.6,0.2 0.6,0.1 0.4,-1.6 -0.3,-3.2 -2.2,-6.2 -4.9,-7.8 -0.8,-0.5 -2.6,-1.2 -4,-1.6 -6.5,-1.9 -13,-0.2 -18,4.8 -2.8,2.8 -4,4.9 -4,7.4 0,2.3 0.5,3.6 2.1,5 2.7,2.4 6.5,2.9 14.2,1.6 5.7,-0.9 9.8,-0.9 12,0.1 3,1.4 3.9,3.4 4.6,9.6 0.6,5.2 -0.9,16.7 -2.8,22 -1.2,3.4 -3.6,7.8 -5.2,9.6 l -1.4,1.5 1.2,0.4 c 0.7,0.2 1.9,0.7 2.8,1.1 0.9,0.4 1.8,0.8 2,0.8 0.4,-0.1 1.1,-0.7 1.8,-1.6 z M 49.7,75 c 1.5,-1.3 3.4,-3.9 4.5,-5.9 l 0.5,-1 -2.3,1 c -5.8,2.3 -9.8,3 -20.1,3.3 -9.6,0.3 -10.7,0.5 -10.7,2 0,1.6 0.8,1.7 10.6,1.5 4.9,-0.1 9.9,0 11,0.1 4.6,0.5 4.9,0.4 6.5,-1 z m 74.5,-15.1 c 0,-0.7 -2.5,-1.7 -3,-1.2 -0.3,0.3 0.2,0.8 0.7,1.1 1,0.6 2.3,0.7 2.3,0.1 z M 24.4,58.8 c 1.2,-0.3 2.9,-1 3.8,-1.5 1.4,-0.8 1.9,-1.4 2.8,-3.2 0.6,-1.2 1.3,-2.3 1.6,-2.5 0.3,-0.2 2.2,-0.5 4.2,-0.8 6,-0.8 9.5,-2.3 14.1,-5.8 2.4,-1.9 3.8,-3.4 4.9,-5.7 0.8,-1.5 0.8,-1.6 0.2,-2.2 -0.8,-0.9 -2.6,-1.7 -4.3,-2 L 50.2,34.9 48.7,37 c -1.9,2.7 -4.2,4.6 -7.1,6.1 -2,1 -2.8,1.2 -4.7,1.3 -3.5,0.2 -5.1,-0.5 -7.2,-2.9 -2.8,-3.3 -6.5,-4.6 -12,-4.4 -4.7,0.2 -8.1,1.9 -7.6,3.7 0.3,1.1 1.6,1.2 4.7,0.6 5,-1 7.9,-0.7 10,1 1.8,1.5 2.5,2.7 2.8,4.8 0.4,3.4 -0.7,5.7 -3.5,7.1 -2,1 -6.8,1.2 -9.1,0.3 -0.9,-0.4 -2.6,-0.2 -3.4,-0.2 -1,0 -1,0 -1.5,0.3 -0.4,1 0.1,2.6 1.1,3.2 2.4,1.8 8.6,2.1 13.2,0.9 z M 9.6,54.4 c 1.1,-0.3 -0.3,0.1 2.7,-0.9 l 1.3,-1.1 c 0,0 0.7,-1.9 1,-2 0.8,-0.3 1.6,0.1 2.5,1.4 1.2,1.5 2.3,2.1 4.2,2.1 1.2,0 2.5,-0.6 3.3,-1.5 l 1,-1 h -2 c -1,0 -2,0.1 -2.7,0.3 -1.8,0.7 -4.2,-0.6 -3.8,-2 0.1,-0.3 3.5,-0.3 -0.1,-0.7 -3.2,-0.4 -4.4,0.4 -5.4,1.4 -1.6,1.6 -2,2 -4.5,1.8 -1.2,-0.1 -2.3,-0.3 -2.6,-0.4 -0.4,-0.1 -1.2,0 -1.4,0.5 0,1 0.5,1.1 1.2,1.4 1.4,0.7 2.3,0.7 4.3,0.7 z m 8,-1.3 c -0.4,-0.4 -1.1,-1.1 -1.5,-1.6 -1,-1.1 -1.5,-0.9 -1.5,0.5 0,0.9 0.1,1.1 1.1,1.5 0.6,0.2 1.5,0.4 1.9,0.4 h 0.8 z m 2.2,-2 c 0,-0.5 -0.8,-1 -1.5,-1 -0.9,0 -0.9,0.4 0,0.9 0.9,0.4 1.5,0.4 1.5,0.1 z M 21,50.9 c -0.2,-0.6 -0.9,-0.7 -0.9,-0.1 0,0.3 0.2,0.5 0.5,0.5 0.3,0 0.5,-0.2 0.4,-0.4 z m 4.1,-0.6 c 0.5,-0.5 0.9,-1.1 0.9,-1.6 0,-1.2 -0.4,-1.5 -1,-0.6 -1.6,2.2 -1.4,2.3 -2.4,2 -0.6,-0.2 -0.5,-0.6 0,-1.2 0.3,-0.4 0.7,-0.6 0.8,-0.7 2.2,-0.7 0.1,0.3 -0.2,0.6 -0.5,0.6 -0.5,0.6 0,0.6 0.5,0 0.6,-0.1 0.7,-1 0,-0.2 0.4,-0.7 0.8,-1 0.9,-0.7 0.9,-2 0.1,-2.4 -0.5,-0.3 -0.7,-0.2 -1.1,0.5 -0.7,1.1 -2.9,2.2 -4.8,2.4 -1.6,0.2 -2.1,0.7 -0.7,0.9 0.4,0.1 1.6,-0.3 2.5,-0.8 2.2,-1.2 2.3,-1.2 2.1,-0.8 -0.1,0.2 -0.1,0.4 0.1,0.4 0.2,0 0.4,-0.1 0.5,-0.3 0.1,-0.2 0,-0.3 -0.2,-0.3 -0.2,0 -1.5,0.7 -1.4,0.6 0.3,-0.5 2.7,-1.3 2.7,-0.7 0,0.6 -1.1,1.3 -2.4,1.6 -0.5,0.1 -1.4,0.4 -1.8,0.5 -0.9,0.3 -0.9,0.3 1,1.2 2,1 2.7,1 3.8,0.1 z M 13.6,48.4 c 0.4,-0.3 -1,1 0.1,-0.3 0.4,-0.5 0,0.5 -0.1,0.3 -0.1,-0.2 1,-1 -1.4,-0.9 -2.4,0 -3.9,-0.5 -5.1,-1.6 -1,-1 -0.9,-1 -1.6,-0.4 -0.6,0.6 0.1,1.9 0.1,1.9 1,1 1.6,1 2.4,1.6 1.9,0.8 4.6,0.4 5.6,-0.6 z m 71.1,0.1 c 0.1,-1 -0.4,-2.7 -1,-3.5 -0.3,-0.3 -0.4,-0.3 -0.6,0 -0.4,0.6 -0.3,3.4 0.1,4.1 0.5,1 1.4,0.6 1.5,-0.6 z M 18.3,46.3 c 2.3,-2.2 2.8,-3.1 2.3,-3.7 -0.2,-0.2 -0.5,-0.1 -1,0.4 -0.4,0.4 -0.5,0.7 -0.3,0.7 0.5,0 0.2,1.3 -0.4,1.7 -0.3,0.2 -0.8,0.2 -1.1,0.1 -0.4,-0.2 -0.5,-0.3 -0.2,-0.9 0.5,-0.9 -0.1,-0.8 -1.1,0.3 -0.9,0.9 -1.8,3 -1.5,3.4 0.4,0.4 1.2,0 3.3,-2 z M 15.8,47 c -0.2,-0.6 0.4,-1.8 1,-1.8 0.6,0 0.6,1.3 0.1,1.9 C 16.4,47.6 16,47.6 15.8,47 Z M 17,46.2 c 0,-0.2 -0.1,-0.3 -0.3,-0.3 -0.2,0 -0.3,0.1 -0.3,0.3 0,0.2 0.1,0.3 0.3,0.3 0.2,0 0.3,-0.1 0.3,-0.3 z m -1,-1.4 c 0.5,-0.5 1.5,-1.2 2.3,-1.6 l 1.4,-0.7 -0.8,-0.4 c -0.7,-0.1 -1.7,0.4 -2.2,0.8 -0.9,0.7 -2.3,3.1 -2.2,4.1 0,0.5 0.1,0.4 0.4,-0.3 0.1,-0.5 0.6,-1.4 1.1,-1.9 z m 5.2,1.8 c 1.1,-0.5 2.2,-2 2.1,-2.6 -0.1,-0.7 -1,-1.2 -1.7,-0.9 -0.5,0.2 -0.5,0.2 0,0.6 0.4,0.3 0.5,0.6 0.3,1.1 -0.2,0.8 -1.9,1.8 -2.6,1.5 -0.5,-0.2 -1.2,0.5 -0.9,0.9 0.3,0.3 1.6,0 2.8,-0.6 z m -5.4,-3.8 c -0.1,-0.2 -2.1,0.6 -2.1,0.9 0,0.1 0.1,0.7 0.2,1.3 l 0.2,1 0.9,-1.5 c 0.5,-1 0.9,-1.7 0.8,-1.7 z m 4.5,2.7 c 0.3,-0.6 0,-0.7 -0.5,-0.1 -0.3,0.3 -0.3,0.5 -0.1,0.5 0.3,0 0.5,-0.2 0.6,-0.4 z m 1.1,-0.8 c 0,-0.3 -0.1,-0.4 -0.3,-0.3 -0.2,0.1 -0.3,0.3 -0.3,0.5 0,0.2 0.1,0.3 0.3,0.3 0.2,0 0.3,-0.2 0.3,-0.5 z m -2.5,-0.1 c 0,-0.2 -0.1,-0.3 -0.3,-0.3 -0.2,0 -0.3,0.1 -0.3,0.3 0,0.2 0.1,0.3 0.3,0.3 0.1,0 0.3,-0.1 0.3,-0.3 z m 5.7,-0.5 c -0.2,-0.3 -0.5,-0.4 -0.6,-0.3 -0.1,0.1 0,0.3 0.3,0.5 0.7,0.4 0.8,0.4 0.3,-0.2 z M 44.5,27.7 c 5,-1.5 5.1,-1.5 4.9,-2.3 -0.4,-1.6 -1.3,-2.7 -2.7,-3.5 -1.2,-0.6 -1.8,-0.7 -3.8,-0.6 -2.8,0.2 -4.4,0.8 -6.1,2.7 -1.5,1.6 -1.9,2.7 -1.5,3.9 0.5,1.8 2.7,1.8 9.2,-0.2 z m 58.7,328.7 c -4.7,-0.6 -9.4,-1.9 -15.3,-4.2 -9.3,-3.6 -14.3,-6.8 -20.9,-13.2 -4.7,-4.6 -8.8,-9.5 -10.8,-12.8 -0.7,-1.1 -1.1,-2.1 -1.1,-2.1 0,0 1.1,0.4 2.4,1 11.7,5.9 22.8,6.1 34.2,0.5 3.5,-1.7 4.3,-2.2 6.8,-4.7 3.2,-3.2 4.4,-5.3 5.3,-9.5 1.1,-5.2 0,-12.7 -2.5,-18.2 -1.1,-2.4 -4,-7.4 -6.2,-10.6 -0.6,-0.9 -1.1,-1.8 -1.1,-2 0,-0.5 4.7,-4.9 5.3,-4.9 0.3,0 1.1,0.8 1.8,1.7 0.7,0.9 1.5,1.7 1.7,1.8 0.2,0.1 0.3,-2.2 0.1,-7.2 -0.5,-17.6 -0.6,-40.6 -0.2,-52.9 1,-34 1.3,-44.8 2.5,-76 0.3,-7.7 0.5,-16.6 0.4,-19.7 -0.1,-5 -0.2,-5.9 -1,-8.2 -1,-3.1 -3.5,-7.7 -5.5,-10.5 -0.8,-1.1 -2.6,-3 -4,-4.2 -2.3,-2 -2.6,-2.3 -2.4,-3 0.5,-2 2.8,-4.4 4.9,-5 0.6,-0.2 1,0 1.9,1.2 2.4,2.8 4.8,5.1 5.5,5.1 0.4,0 0.9,-0.4 1.2,-0.9 0.5,-0.8 0.6,-1.6 0.5,-6.8 0,-8.5 -1,-30 -1.6,-33.8 -1,-7.3 -2.2,-10.5 -6.4,-16.8 -4.8,-7.3 -8.9,-10.1 -11.3,-7.8 -1.1,1.1 -0.9,1.6 1.8,6.6 1.2,2.2 2.6,5.1 3,6.4 1.9,5.6 0,10.7 -4.9,13 -1.4,0.6 -2.1,0.8 -3.7,0.7 C 81.1,59.2 77.9,57.8 76.2,56 L 74.9,54.6 74,55.9 c -1.1,1.7 -2.8,3.4 -5.5,5.5 -1.3,1 -1.9,1.7 -1.9,2.2 0,1.5 -1.7,6.5 -3.1,9.2 -0.8,1.5 -2.2,3.8 -3.2,5 -1,1.4 -1.6,2.4 -1.5,2.7 0.1,0.2 0.9,1.2 1.6,2.2 3.1,4.1 4.5,8.8 4.8,16.1 0.2,4.9 -0.5,13.7 -1.4,17.4 -1.7,7.5 -2.2,10.7 -2.2,16.4 0,6.1 0.6,10.6 2.7,18.8 1.4,5.7 2.3,13.3 2.3,19.9 0,5.8 -0.8,8.5 -3.1,10.8 -1.1,1.1 -1.1,1.2 -1.1,3.6 0,1.4 0.2,4.6 0.4,7.2 0.7,8.5 -0.6,12.5 -4.5,14.1 -2.9,1.2 -7.6,0.9 -9.7,-0.6 -1.5,-1 -3.2,-3.7 -3.9,-6 -1.6,-5.3 -2.7,-17.8 -3.5,-39.5 -0.3,-7.3 -0.7,-17 -1,-21.6 -0.3,-4.6 -0.5,-10.4 -0.5,-13 0,-5.5 -0.5,-10.8 -1.1,-13 -0.3,-1 -0.9,-1.9 -1.9,-2.8 -1.3,-1.2 -1.5,-1.5 -1.8,-3.7 -1.1,-6.9 0.9,-16.7 4.4,-21.4 l 0.8,-1.1 -10.3,0.1 c -9.3,0.1 -10.5,0 -12.2,-0.5 -4.5,-1.4 -7.2,-3.4 -7.9,-6 -1.6,-5.7 1.6,-10.7 8.1,-12.7 1.6,-0.5 3.7,-0.7 8.6,-1 3.6,-0.2 8.2,-0.5 10.3,-0.8 6.8,-0.8 15.5,-3.2 20.7,-5.6 1.1,-0.5 1.2,-1.3 1.5,-8.8 0.2,-4.9 0.1,-6 -0.4,-7.7 l -0.6,-1.9 -0.5,1 c -0.6,1.2 -3,4.1 -4.1,5.1 -1.8,1.5 -5.9,4 -7.7,4.7 -1,0.4 -4,1.1 -6.6,1.6 -2.7,0.5 -5.2,1.2 -5.6,1.4 -0.4,0.3 -1.1,1.2 -1.5,2 -1.6,3.1 -3.7,4.2 -9.3,5 -5.8,0.8 -9.7,0.3 -12,-1.6 C 9.4,57.5 8.4,55.6 8.8,55 8.9,54.8 8.2,54.7 6.9,54.7 3.7,54.7 1.7,53.3 2.9,51.6 3.3,51.1 3.4,51.1 5.3,51.5 7.3,52 8.2,52 9.9,51.3 11.1,50.8 11,50.5 9.3,50.1 7.8,49.7 5.8,48.2 4.6,46.5 4.1,45.8 4,45.5 4.3,45 c 0.6,-1.1 1.3,-1.1 2.6,0.1 1.4,1.3 3.1,2.1 4.7,2.1 1,0 1.1,-0.1 1.1,-0.8 0,-0.9 -1.4,-2.7 -2.1,-2.7 -0.2,0 -0.9,-0.4 -1.4,-0.8 -1.4,-1.1 -1.3,-2.3 0.1,-3.9 1.6,-1.8 4.4,-2.7 8.9,-2.9 3.1,-0.1 3.8,0 6.1,0.7 3.1,1 4.9,2.2 6.5,4.3 1.3,1.9 2.6,2.4 5.6,2.4 2.5,0 5.4,-1.3 7.8,-3.3 1.6,-1.5 3.6,-4.1 3.3,-4.4 -0.1,-0.1 -2.5,0.1 -5.2,0.4 -5.7,0.7 -8.6,0.4 -11.6,-0.8 -3.2,-1.4 -5.4,-4.9 -5,-8 0.4,-3.4 4,-7.8 8.8,-10.8 5.1,-3.1 9.7,-3.8 15.2,-2.3 6.4,1.8 9.2,4.8 10.2,11.1 0.2,1.2 0.5,2.4 0.8,2.5 4.1,2.5 6.7,10.2 6.8,20.3 0,2.4 0,2.5 0.4,1.4 0.2,-0.6 0.5,-2.9 0.6,-5 0.1,-2.1 0.4,-4.6 0.7,-5.5 0.8,-2.7 2.7,-5.3 5.2,-6.7 0.9,-0.5 1.4,-1.1 1.5,-1.7 0.7,-3.4 2.3,-5.4 5.4,-7 1.6,-0.8 2.3,-0.9 5.2,-1 4.1,-0.1 6.5,0.4 10.1,2.3 4.6,2.4 8.1,6.6 11.5,13.6 1.6,3.2 2.2,3.8 3,2.9 0.2,-0.2 0.8,-2.6 1.3,-5.3 1,-5 1.8,-7.6 3.3,-10.5 0.9,-1.8 1.1,-1.9 2.1,-1.3 0.6,0.4 0.5,0.5 -0.8,3 -1.6,2.9 -2.7,6.4 -3.5,10.6 -0.6,3.1 -0.8,3.8 -1.9,4.9 -0.7,0.7 -2.2,1 -3,0.5 -0.2,-0.1 -1.1,-1.7 -1.8,-3.6 -4.2,-10.4 -11,-16 -19,-16 -4,0 -6,0.6 -7.8,2.4 -1.4,1.4 -2.6,3.6 -2.6,4.4 0,0.3 0.8,0.8 1.8,1.3 3.3,1.6 4.6,4.3 4.2,8.5 -0.2,2.2 -0.2,2.2 0.9,3.6 2.1,2.6 2.4,5.1 0.9,6.7 -1.7,1.7 -3.5,0.6 -4.2,-2.6 -0.3,-1.5 -0.3,-2.1 0.6,-6 0.5,-2.3 1,-4.6 1,-4.9 0,-1.1 -1.2,-3 -2.4,-3.8 -2.4,-1.6 -5,-1.1 -7.2,1.4 -2.1,2.3 -2.5,3.9 -3,10.1 -0.3,4.4 -0.4,4.8 -1.6,7.2 -1.1,2.2 -1.3,2.9 -1.4,5.4 l -0.2,2.8 0.7,-0.4 c 1.3,-0.7 5.2,-4.9 6,-6.5 0.7,-1.5 0.7,-1.7 0.5,-5 -0.6,-7.5 -0.2,-9.7 1.8,-10.8 0.5,-0.3 1,-0.5 1.1,-0.5 0.5,0 0.1,1.4 -0.7,2.6 -0.8,1.3 -0.9,1.6 -1,5.6 -0.1,5.3 0.3,7 2.3,9.2 2.4,2.5 5.8,3.8 9,2.6 1.9,-0.4 3.2,-2.8 3.9,-4.1 0.3,-0.5 0.6,-2.1 0.6,-3.4 0.2,-2.9 -0.5,-4.8 -3.6,-10.7 -2.1,-3.9 -2.4,-5 -1.8,-6.7 0.4,-1.1 2.3,-1.9 3.9,-1.6 3,0.5 5.5,2.6 8.9,7.6 3.7,5.3 5.3,8.6 6.6,14.1 0.9,3.7 1.9,18.9 2.1,33.4 l 0.2,12.5 -0.9,1 c -1.6,1.9 -3.8,1.3 -6.8,-1.9 l -1.5,-1.9 -1.7,1.7 -1.7,1.7 1.4,1 c 1.6,1.1 5.3,5.5 6.3,7.6 1.6,3.1 3.8,8.6 4.3,10.9 0.5,2.2 0.5,3.6 0.3,11.8 -0.3,10.8 -1,30 -1.5,38.7 -1,17.3 -1.8,67.2 -1.4,87.6 0.2,13.5 0.3,14 0.8,13.1 0.8,-1.4 3.1,-3.3 4.8,-4 1.9,-0.9 5.9,-0.9 8.3,-0.1 1.8,0.6 3.7,2.2 4.8,4.1 l 0.6,1 0.7,-1.4 c 2,-3.9 3.9,-6.7 6.5,-9.2 2.7,-2.6 2.7,-2.7 2.1,-3.3 -0.3,-0.3 -0.8,-0.9 -1.1,-1.2 -0.5,-0.7 -0.5,-0.6 -2.3,1.1 -2.4,2.4 -4.2,3.7 -5.2,3.7 -0.4,0 -1.2,-0.4 -1.7,-0.9 l -1,-2 -0.2,-6.1 c -0.1,-4 -0.5,-15.3 -1,-25.3 -0.8,-18.8 -1.1,-37.5 -1.8,-109.4 -0.2,-22.6 -0.2,-37.1 0,-38.9 0.4,-4.3 1.6,-8.2 3.9,-13.3 1.4,-3 1.4,-2.8 -0.2,-3.5 -1.8,-0.8 -1.7,-0.8 -1.7,0.2 0,0.4 -0.1,1.2 -0.3,1.6 -0.3,0.7 -0.5,0.8 -1.4,0.7 -1.7,-0.2 -1.9,-1 -1.7,-6 0.4,-10.9 2.5,-22 5.2,-28.1 0.8,-1.8 1.2,-2 2.3,-1.1 l 0.7,0.6 -1.6,4.2 c -2.2,5.7 -3.3,10.5 -4.1,16.8 -0.8,6.7 -1,12.2 -0.4,12.2 0.2,0 0.4,-0.5 0.5,-1 0.3,-1.6 1,-2.7 1.8,-3 0.8,-0.3 3.4,1 3.7,1.7 0.2,0.6 0,1.3 -2.1,7.2 -1.7,4.8 -2.1,7.1 -2.4,11.5 -0.2,3.5 0.1,48.9 0.8,103.2 0.3,22.6 0.5,31.8 1.1,43.5 0.4,8.4 0.8,18.6 0.8,23.4 0,7.2 0.1,8.6 0.5,9.2 0.3,0.4 0.8,0.7 1.1,0.7 0.3,0 2.1,-1.5 4,-3.2 3.2,-3 3.5,-3.2 4.4,-3 1.3,0.3 2.7,1.6 3.1,3 0.3,1.1 0.3,1.1 -3.3,4.7 -3.8,3.8 -5,5.4 -7.1,9.6 l -1.2,2.5 0.1,20.2 c 0.1,21.9 0.1,22.2 1.9,25.6 1.4,2.6 4.6,5.6 7.8,7.2 3.6,1.8 6.2,2.3 12.3,2.5 4.4,0.1 5.6,0.1 8.3,-0.5 4.5,-0.9 8.8,-2.3 12.2,-4 1.6,-0.8 2.9,-1.4 3,-1.3 0.3,0.3 -3.2,7.4 -4.7,9.5 -2.1,3 -6.3,7.6 -9.4,10.4 -5.9,5.2 -17.1,10.6 -27.8,13.3 -7.8,1.9 -18.1,2.6 -25.3,1.6 z" /></g><g
           id="g42384_1_"><path
             class="st23"
             d="m 158.4,168.6 c -0.3,0 0,-0.1 -0.3,0 -0.9,0.3 0.1,0.1 -1.3,0.3 -1.9,0.4 -2.8,0.2 -4.4,-0.4 -0.1,-0.1 -2.1,-0.8 -2.3,-0.8 -1.3,-0.3 -1.5,-0.7 -2.8,-1 -0.8,0 -1.4,0.2 -1.8,0.5 -0.9,1 -0.9,3.7 0,4.9 0.3,0.5 1.5,1.7 1.6,1.8 0.4,0 0.5,-1.3 0.2,-2.4 -1.3,-0.8 -0.8,-3.5 0.1,-3.5 0.3,0 1.7,0.6 3,1.2 2.5,1.2 4.5,1.5 6.7,0.9 l 1,-0.3 -0.1,1.4 0.2,1.3 0.4,-1 c 1,-1 0.9,-2.3 0.2,-2.8 -0.2,-0.1 0.1,-0.1 -0.4,-0.1 z"
             id="path3980"
             style="fill:#1a1a1a" /><path
             class="st23"
             d="m 160.4,227.2 c 0.2,0.1 1.9,0.7 2.3,0.8 0.8,0.2 3.8,-0.1 5.6,-0.5 4.5,-1.1 9.8,-6 9.8,-9 0,-2 -3,-4.6 -6.8,-5.7 -2.3,-0.7 -2.4,-0.6 -2.4,0.4 0,0.4 -0.1,0.5 0.8,0.6 1.6,0.2 4.3,1.5 5.7,2.6 0.8,0.7 1,1.1 1,2.1 0,3.5 -6.6,8.1 -11.7,8.1 -2.1,0 -5.1,0.3 -4.3,0.6 z"
             id="path3982"
             style="fill:#1a1a1a" /><path
             class="st23"
             d="m 156,183.7 c 2.3,-0.4 2.3,-0.5 4.1,-6 1,-3.1 1.2,-4.2 1,-4.8 -0.2,-0.4 -0.6,-0.8 -0.8,-0.8 -0.6,0 -2,1.5 -2,2.2 0,1 0.1,1.4 0.8,0.2 0.4,-0.6 0.7,-1.1 0.8,-1 0.1,0.2 -2.5,8 -2.9,8.5 -0.2,0.2 -0.2,0.3 -0.7,0.4 -0.6,0.1 -0.8,0.4 -0.9,0.9 -0.1,0.6 -0.2,0.8 0.6,0.4 z"
             id="path3984"
             style="fill:#1a1a1a" /><path
             class="st23"
             d="m 155.4,197.5 c 1.7,1 4.3,2.9 5.9,4.4 1.6,1.4 3.4,2.6 3.5,2.6 0.9,0 0.1,-1.3 -1.4,-2.9 -1.5,-1.6 -1.5,-1.6 -1.4,-3.4 0.1,-2.4 -0.7,-5.3 -2,-7.1 -0.6,-0.8 -1.5,-2.3 -2.1,-3.3 -0.7,-1.2 -1.3,-1.9 -1.8,-2 -1,-0.3 -1.1,0.1 -1.1,0.9 0,0.5 0.2,0.6 0.8,0.6 0.6,0 0.4,0.3 0.9,1.3 0.4,0.8 1.3,2.3 2.1,3.4 1.4,2.1 1.9,3.8 1.7,5.8 l -0.1,1 -4.2,-2.6 c -4.6,-2.9 -6.6,-4.6 -8.5,-7.6 -1.3,-1.9 -2.4,-5.2 -1.9,-5.7 0.1,-0.1 1,0.6 1.9,1.6 1.7,1.8 4,4 2.8,1.3 -0.4,-0.8 -3.8,-4.6 -4.7,-4.6 -2.4,0 -1.6,4.6 1.4,9.2 2.1,3 3.9,4.6 8.2,7.1 z"
             id="path3986"
             style="fill:#1a1a1a" /><path
             class="st23"
             d="m 177,204.2 c -0.9,0 -5.4,4.7 -5.4,5.7 0,0.9 1,1.7 2.6,2 3.4,0.6 4.4,-0.3 4.5,-3.8 0,-2.8 -0.5,-3.9 -1.7,-3.9 z m -0.2,6.2 c -0.7,0.3 -2.8,0.2 -3.2,-0.1 -0.4,-0.2 -0.1,-0.8 1.2,-2.4 0.9,-1.1 1.8,-2.1 1.9,-2.1 0.8,0 0.9,4.3 0.1,4.6 z"
             id="path3988"
             style="fill:#1a1a1a" /><path
             class="st23"
             d="m 158.5,160.2 c -0.6,-0.1 -0.2,1.8 0.1,1.4 1.4,0.6 1.7,1.6 0.9,2.7 -0.8,1.1 -2.6,1.2 -5.2,0.5 -5.8,-1.7 -8.3,-4.9 -8.7,-11.2 -0.1,-2.1 -0.1,-2.8 0.2,-2.6 0.2,0.1 0.6,1.1 0.6,1.3 0,0.7 1.5,3 1.9,3 0.5,0 0.6,-1.4 0.1,-2.2 -0.2,-0.3 -0.7,-1.5 -1.1,-2.6 -0.9,-2.4 -1.6,-2.7 -2.6,-1 -1.4,2.3 -0.5,8.8 1.6,11.9 0.4,0.5 0.8,1 1.4,1.5 0.8,0.6 1.6,1.2 2.4,1.8 1.3,0.8 2.8,1.5 4.3,1.8 0.9,0.2 1.8,0.3 2.6,0.3 0.7,-0.1 1.4,-0.2 2,-0.4 1.4,-0.6 2.3,-1.7 2.4,-3.4 0,-1.3 -1.5,-2.7 -2.9,-2.8 z"
             id="path3990"
             style="fill:#1a1a1a" /><path
             class="st23"
             d="m 170.8,166.8 c 0,0.9 0,0 0.8,-1.5 0.7,-1.5 1.2,-1.6 1.2,-5.4 0,-3.4 -0.3,-4.3 -0.8,-5.1 -0.9,-1.6 -1.1,-1.3 -0.9,0.8 0.6,5.4 0.4,6.6 -0.3,8.7 0,1 0,2.2 0,2.5 z"
             id="path3992"
             style="fill:#1a1a1a" /><path
             class="st23"
             d="m 172.2,142.1 c -0.5,0.5 -0.4,0.1 -0.5,0.5 -0.5,2.2 2,0.4 3.5,-2.6 2,-4.2 0.6,-6.4 -2.6,-4.1 -0.5,0.3 -0.5,-0.1 -0.5,0.3 0,0.7 -0.5,2.1 0.5,1.3 0.4,-0.3 1.1,-0.8 1.5,-1 0.7,-0.4 0.7,-0.3 0.5,0.7 -0.4,1.7 -1.4,3.9 -2.4,4.9 z"
             id="path3994"
             style="fill:#1a1a1a" /><path
             class="st23"
             d="m 217.7,59.3 c -0.2,-2.6 -0.8,-5.1 -2,-7.6 -0.3,-0.6 -0.6,-1.3 -1,-2.1 -0.3,-0.4 -0.5,-0.8 -0.8,-1.3 -0.1,-0.1 -0.2,-0.2 -0.3,-0.4 -0.7,-0.9 -1.5,-1.7 -2.4,-2.5 -0.1,-0.1 -0.8,-0.7 -0.8,-0.8 -0.8,-0.7 -1,-0.6 -2,-1.1 -2.7,-1.3 -5.5,-1.5 -9.2,-1.1 -2.1,0.3 -2.8,0.6 -3.9,1 -0.4,0.2 -1.3,0.4 -1.6,0.7 0,0 -0.1,0 -0.1,0.1 v 0 c -0.1,0.1 -0.8,0.3 -0.9,0.4 -0.1,0.1 0,0.4 0,0 -0.1,1.1 0.4,0.9 0.9,0.7 3.9,-1.5 11.1,-1.8 13.7,-0.6 2.1,1 4.2,3 6.1,5.8 2.2,3.3 3,6.1 3,10.2 0,4 -0.6,6.3 -2.7,10.6 -2.5,5.2 -5.4,7.9 -8.4,7.9 -1.3,0 -1.6,-0.1 -3.3,-1.9 -1.1,-1.1 -3.8,-4.5 -6.1,-7.5 -4.4,-5.9 -5.3,-6.9 -11,-13.2 -5.3,-5.9 -6.6,-7.5 -8,-10.3 -1.9,-3.7 -2.6,-6.2 -2.8,-9.3 -0.3,-3.8 0,-4.6 1.9,-5.6 2.1,-1.2 3,-2.1 5.9,-6.4 2.2,-3.3 2.8,-3.9 5.9,-6.3 3.6,-2.8 5.4,-4.9 6.4,-7.4 0.9,-2.2 1.1,-4.9 0.7,-6.9 -0.8,-3.7 -4.5,-5.3 -7.6,-3.3 -1.1,0.7 -2.6,2.3 -2.4,2.9 1.5,-0.3 1.6,0 1.9,-0.5 0.7,-1.2 2.1,-2.1 3.1,-2.1 1.4,-0.3 2.9,0.8 3.5,2.3 0.3,0.7 0.4,1.3 0.4,2 0,3.1 -0.4,4.8 -1.9,6.9 -0.5,0.7 -1.1,1.5 -1.7,2.2 -0.7,0.9 -1.5,1.6 -2.3,2.3 -0.1,0.1 -0.2,0.2 -0.3,0.2 -0.9,0.8 -1.9,1.4 -2.9,2.1 -0.9,0.8 -1.5,1.4 -2.1,2.2 -0.6,1 -1.3,2 -2,2.9 -2.5,3.8 -3.6,4.8 -5.5,5.8 -1.4,0.7 -1.8,1 -2.1,2 -0.7,1.8 -0.5,6.5 0.3,9.4 1.1,4 2.9,7.3 6.9,12.1 3.5,3.5 6.7,7.3 9.8,11.2 1.3,1.6 2.3,2.8 3.2,4.1 0.9,1.1 1.7,2.2 2.5,3.4 0.2,0.3 0.4,0.6 0.7,0.9 2,2.5 4.2,5.2 5,5.9 0.4,0.4 1.2,0.9 1.7,1.2 2.3,1.2 4.5,0.4 8,-2.8 0.2,-0.2 0.3,-0.3 0.5,-0.5 0.7,-0.8 1.3,-1.6 1.9,-2.5 1.8,-2.9 3,-6.1 3.6,-9 0.5,-2.2 0.7,-4.3 0.6,-6.4 z"
             id="path3996"
             style="fill:#1a1a1a" /><path
             class="st23"
             d="m 167.9,133.9 c -0.1,-0.4 -0.9,0.2 -2,1.2 -1.6,1.4 -4.6,2.8 -7.5,3.5 -2.8,0.6 -6.5,1.9 -10.1,3.5 -1.5,0.7 -2.9,1.1 -3.2,1 -1.9,-0.7 -1.8,-9.3 0.1,-16.2 0.3,-1 1.2,-3.6 2.1,-5.9 2.4,-5.7 3.2,-8.8 1.5,-6.7 -1.1,1 -5.1,11.6 -5.9,16 -0.3,1.5 -0.6,4.6 -0.6,6.8 0,3.7 0,4.3 0.7,5.6 0.5,0.8 1.1,1.6 1.5,1.8 0.7,0.3 1.1,0.3 3.9,-0.8 1,-0.5 2,-1 3.1,-1.3 2.2,-0.9 4.6,-1.6 6.2,-2 3.4,-0.7 6,-1.8 7.8,-3.1 1.4,-1.1 2.7,-2.7 2.4,-3.4 z"
             id="path3998"
             style="fill:#1a1a1a" /><path
             class="st23"
             d="m 171.9,150.8 c 1,0.2 1.2,0.5 1.4,3.9 0.2,1.5 0.5,3.1 0.7,3.5 0.6,0.9 1.8,1 2.6,0.2 0.6,-0.7 1.9,-4.7 2.6,-7.9 0.3,-1.5 0.5,-4.1 0.5,-6.6 0,-4 0,-4.2 -0.7,-4.7 -0.7,-0.4 -0.8,-0.4 -1.3,0 -0.3,0.2 -1.3,1.7 -2.1,3.3 -0.8,1.5 -2.2,3.7 -3.1,4.7 -1.7,2.2 -1.2,3.9 -0.6,3.6 z m 2.1,-3.1 c 0.7,-0.8 2,-2.6 2.7,-4 l 1.3,-2.5 -0.1,4.3 c -0.1,3.4 -0.3,5 -1,7.5 -1.4,5.2 -2.1,5.9 -2.1,2.2 0,-2.7 -0.6,-4.8 -1.5,-5.5 l -0.7,-0.5 z"
             id="path4000"
             style="fill:#1a1a1a" /><path
             class="st23"
             d="m 156,213.4 c -1.5,1.2 -1.1,0.5 -0.9,1.6 l 0.6,1.7 2.9,-3.4 c 1.9,-1.9 3.5,-3.7 3.7,-4 0.4,-0.6 0.4,-0.6 1.2,0.3 2.1,2.2 1.5,-0.8 -0.3,-3.2 -1.2,-1.5 -3.8,-3.5 -9.7,-7.4 -5.4,-3.5 -5.5,-3.5 -6.4,-3.1 -2.5,1.2 -3.1,7.5 -1.2,12.4 0.9,2.3 2.6,4.6 3.5,4.7 2.8,0.7 0.9,-1 -0.2,-2 -1.4,-1.2 -2.7,-4.6 -2.9,-7.6 -0.1,-2.7 0.4,-5.5 1.1,-6.1 0.5,-0.4 0.7,-0.3 4.6,2.3 1.2,0.8 3.2,2.2 4.5,3 1.3,0.8 2.3,1.7 2.3,1.9 0,0.9 -2,3.7 -3.4,5 -0.9,0.8 -0.9,0.8 -0.9,2 l 0.3,1.6 1.3,-1.8 c 0.9,-1 2.1,-2.7 2.8,-3.8 0.7,-1.2 1.3,-2.1 1.4,-2.1 0.1,0 0.5,0.3 0.8,0.8 0.5,0.8 0.5,0.9 0,1.9 -0.7,1.1 -3,3.6 -5.1,5.3 z"
             id="path4002"
             style="fill:#1a1a1a" /><path
             class="st23"
             d="m 179.4,169.3 c -0.7,-4.9 -1.7,-6.9 -3.6,-6.9 -1.1,0 -1.2,0.1 -2.6,2.9 -0.8,1.6 -1.8,3.4 -2.3,4 -0.3,0.4 -0.8,2.2 -0.1,2.2 0.8,0 2.2,-2.1 3.5,-4.8 1.5,-3.2 1.7,-3.4 2.3,-2.4 0.9,1.3 1.5,4.4 1.5,7.5 0,3.6 -0.4,5.8 -1.4,7 l -1.1,0.3 -1.7,-0.3 c -1.3,-0.6 -2.7,-1 -4.6,-1.1 -3.5,-0.3 -4,-0.5 -4.3,-1.7 -0.2,-0.7 -0.2,-0.9 0.4,-2 1.4,-0.7 1.4,-1.9 1,-2.1 -1,-0.4 -2.9,1.7 -2.9,3.5 0,1.2 0.7,2.6 1.6,3.1 1.5,0.4 3.2,0.4 4.7,0.8 1.3,0.2 2.7,0.5 3.3,0.8 2,0.9 3.1,0.9 4.3,-0.2 1.8,-1.9 2.6,-6.4 2,-10.6 z"
             id="path4004"
             style="fill:#1a1a1a" /><path
             class="st23"
             d="m 165.8,159 c 0.3,-1.7 1.3,-3.6 1.4,-4 0.1,-0.5 0.3,-0.4 0,-0.4 -0.9,0 -2.2,0.7 -2.8,3.9 -0.4,1.7 -0.9,4.2 -1.3,5.6 -0.8,3.3 -0.8,4.4 0.1,5 0.9,0.5 1.8,0.5 2.8,-0.1 0.8,-0.1 0.5,-0.3 0.6,-1.1 0.1,-0.9 0.6,-1.2 -1.3,-0.6 -1.2,0.5 -1.7,0 -0.9,-2.8 0.4,-1.3 1.1,-3.8 1.4,-5.5 z"
             id="path4006"
             style="fill:#1a1a1a" /><path
             class="st23"
             d="m 167.7,138.5 c -0.5,0 -2.5,1.9 -2.6,2.5 -0.1,1 0,1.6 0.7,2.4 0.3,0.4 1.3,1.4 1.5,1.3 0.5,0 0.2,-1.6 -0.2,-2.2 -0.5,-0.7 -0.5,-1.7 -0.1,-2 0.9,0.1 1.2,-2 0.7,-2 z"
             id="path4008"
             style="fill:#1a1a1a" /><path
             class="st23"
             d="m 166,147.5 c -0.7,-1.4 -3.8,-4.1 -5.2,-4.6 -2,-0.3 -5.6,-0.2 -8.5,0.9 -1.3,0.7 -2.6,1.5 -3.8,2.4 -0.5,0.5 -0.5,1 -0.4,1.7 0.2,1 0.8,1.1 0.8,0.2 0,-0.8 1.6,-2 4,-3.1 1.7,-0.7 2.2,-0.8 5.1,-0.7 l 2.2,0.1 c 0.7,0 1.9,1 2.3,1.4 l 0.5,0.4 c 1.6,1.6 1.8,2 1.8,3.2 0,3 -3,6.3 -6,6.6 -0.7,-0.1 -0.5,0.4 -0.6,1.3 -0.1,0.7 2.2,0.1 3.3,-0.7 3.6,-2.1 5.8,-6.6 4.5,-9.1 z"
             id="path4010"
             style="fill:#1a1a1a" /><path
             class="st23"
             d="m 197.5,76.9 c -0.6,-0.9 -1.2,-1.7 -1.7,-2.6 -0.8,-1 -1.5,-2.1 -2.3,-3.1 -1,-1.2 -2,-2.3 -2.9,-3.5 -2.8,-3.6 -5.6,-7.2 -8.7,-10.6 -4.8,-5 -7.7,-6.1 -10.5,-5 -0.7,0.3 -1.4,0.7 -2,1.4 -1,1.5 -1.8,3.1 -2.7,4.7 -0.6,1.2 -1.2,2.3 -1.8,3.4 0,0.1 -0.1,0.1 -0.2,0.2 -0.3,0.5 0,0.4 0.3,0.8 0.4,0.4 0.2,0.6 1.1,-0.6 0.5,-0.7 1.5,-2.6 2.2,-4.1 1.6,-3.5 2.4,-4.2 4.7,-4.4 1.4,-0.1 1.9,0 2.8,0.5 2.7,1.7 12.2,12.3 18,20.1 2,2.7 3.6,5.8 3.6,7.1 0,1.4 -1.2,2.8 -2.9,3.5 -1.9,0.8 -10.8,3 -14.3,3.6 -4.5,0.8 -9.8,2.2 -12.9,3.5 -3.7,1.5 -4.5,1.5 -5.5,-0.1 -1.8,-2.8 -3.8,-7.3 -4.9,-10.8 -1.9,-6.1 -1.5,-9.9 1,-11.5 0.5,-0.3 1.3,-0.8 1.6,-1 0.4,-0.3 0.9,-0.4 0.6,-0.7 -0.9,-0.9 -3.9,0.6 -5.1,2.9 -0.6,1.1 -0.7,1.8 -0.7,4.5 0,0.7 0.1,1.3 0.2,2 0.3,2 0.8,3.9 1.4,5.9 0.7,1.8 1.6,3.9 2.6,5.9 0.9,1.7 1.9,3.4 2.9,5.1 0.4,0.4 1.1,0.7 1.4,0.8 0.2,0 0.4,0 0.6,-0.1 0.6,-0.2 1.8,-0.6 3.1,-1.1 1.7,-0.9 3.5,-1.4 5.4,-1.9 0.5,-0.2 0.9,-0.3 1.3,-0.5 1.8,-0.5 3.6,-0.9 5.4,-1.2 0.8,-0.2 1.5,-0.3 2.4,-0.5 10.6,-2.3 15.2,-3.7 16.5,-4.8 1.3,-1.1 1.8,-3.4 1.2,-5.2 -0.2,-0.8 -0.6,-1.6 -1.2,-2.6 z"
             id="path4012"
             style="fill:#1a1a1a" /><path
             class="st23"
             d="m 155.5,52.1 c -0.1,-1.3 -0.4,-2.9 -1.1,-4 -0.2,-0.3 -0.5,-0.6 -0.8,-0.9 -0.4,-0.4 -0.7,-0.6 -1,-0.7 -0.1,0 -0.2,0 -0.2,0 -0.2,0 -0.4,0 -0.7,0.2 -0.6,0.1 -1.2,0.8 -1.7,1.7 -0.1,0.1 -0.1,0.3 -0.2,0.4 -0.2,0.5 -0.3,1.1 -0.4,1.6 -0.1,0.7 -0.2,1.5 -0.2,2.2 0,0.1 0,0.2 0,0.3 0,0.7 0,1.3 0,1.8 0.1,0.9 0.2,1.8 0.5,2.7 0.6,1.6 1.9,2.3 3.1,1.7 0.5,-0.3 0.9,-0.9 1.4,-1.6 0.2,-0.4 0.3,-0.8 0.5,-1.1 0.3,-1 0.6,-2.2 0.7,-3.3 0,-0.1 0,-0.2 0,-0.3 0.1,-0.4 0.1,-0.5 0.1,-0.7 z M 152,58 c -0.1,0 0.1,0 0,0 0,0 -0.3,0 -0.4,0 -1,0 -1.4,-6.8 -0.4,-8.7 0.6,-1.3 1.2,-1.4 2.1,-0.2 0.8,1.1 1.4,3.8 0.9,5.9 0,1.3 -0.9,2.5 -2.2,3 z"
             id="path4014"
             style="fill:#1a1a1a" /><path
             class="st23"
             d="m 188.8,3.5 c -0.7,0.3 0,0.8 0.9,0.8 0.3,0 0.4,0.6 0.5,0.8 0.5,0.7 -0.2,3.3 -1,5.2 -0.8,1.6 -0.9,1.8 -1.5,1.5 -0.8,-0.4 -0.8,-0.4 -1.3,1.3 -0.5,1.7 -1.2,2 -1.2,0.6 0,-1.3 -0.1,-2.2 -1.1,-1.9 -0.4,0.1 -0.6,-0.1 -0.4,1.5 0.2,1.8 0.2,1.9 -0.5,1.9 -0.5,0 -1,-0.5 -1.8,-1.7 -1.6,-2.5 -2.5,-3.2 -4.3,-3.4 -3.7,-0.3 -6.9,1.6 -8.7,5.1 -1,2 -0.2,1.4 -4.4,1.2 -2.2,0.4 -4.4,1.8 -6.1,3.5 -1.9,1.9 -2.5,3 -5,8.3 -0.7,1.5 -1.3,2.3 -2.1,2.8 -0.6,0.4 -1.5,1.3 -2,2 -0.8,1.2 -1.3,2.1 -1.5,7.2 -0.2,3.1 -0.3,6.5 -0.6,7.7 -0.7,3 -1.9,5.4 -2.9,6 -2.1,1.4 -4.1,-0.5 -4.1,-3.8 0,-2.6 0.5,-4.1 2.1,-6 1.5,-1.8 2.7,-3 1.5,-2.8 -0.9,0.1 -3.5,3.2 -4.1,4.8 -0.3,0.8 -0.9,2.4 -0.9,3.8 0,2.4 0.5,3.7 1.9,4.9 1.4,1.5 2.8,1.4 4.1,0.6 0.5,-0.2 1.2,-1.1 1.6,-1.5 0.6,-0.7 0.7,-0.9 1.2,-2 0.9,-2.1 1.2,-4.6 1.3,-6.4 0,-0.2 0,-0.4 0,-0.6 0,-0.5 0,0.1 0,-0.4 0,-0.1 0,-2.1 0.1,-2.1 0,-0.3 -0.1,-0.6 -0.1,-0.9 -0.1,-2.3 -0.1,-3.7 0.7,-5.9 0.3,-0.8 0.7,-1.4 1.1,-2 0,-0.1 0.1,-0.1 0.1,-0.2 0.8,-0.9 1.8,-1.8 2.6,-2.7 0.4,-0.6 0.8,-1.3 1.1,-2 0.3,-0.8 0.7,-1.5 1,-2.3 1,-2.3 2.4,-4.3 4.1,-5.8 0.7,-0.6 1.3,-1.1 1.8,-1.4 0.5,-0.4 1,-0.7 1.6,-0.8 1.3,-0.4 2.5,-0.3 3.7,0 1.4,-0.1 2.4,-0.4 3.2,-2 0.4,-0.9 1.2,-2 1.7,-2.5 0.1,-0.1 0.3,-0.2 0.4,-0.3 1.2,-1.2 2.8,-2 4.6,-2 1.4,0 2.6,0.7 3.5,1.6 0.6,0.6 1.1,1.3 1.5,2 0.8,1.2 1.4,1.8 2.5,2 3.4,-0.7 5.4,-3.2 6.9,-6 2.1,-4.5 1.1,-9.2 -1.7,-7.7 z"
             id="path4016"
             style="fill:#1a1a1a" /><path
             class="st23"
             d="m 164.2,48.7 c -0.8,-0.1 -1.5,0.1 -2.3,0.4 -0.8,0.4 -1.6,1 -2.3,1.5 -0.4,0.4 -0.8,0.8 -1.2,1.3 -0.5,0.8 -1,1.6 -1.5,2.4 -0.4,1.2 0.6,-1.1 0,0 l -0.7,1.1 c -0.1,0.3 -1.2,2.9 -1.4,3.1 0,0.1 -0.1,0.1 -0.1,0.2 -1,3.3 -1.7,5.6 -0.9,8.3 0.1,0.1 0.1,0.2 0.2,0.2 0.6,0.7 1,0.8 1.8,0.6 1,-0.2 1.9,-0.8 2.3,-1.6 0.5,-0.8 -0.8,-1 -1.6,-0.3 -2.4,2.2 -2.1,-3.8 0.5,-9 2.1,-4.4 5.9,-7.6 7.8,-6.6 0.6,0.4 0.7,0.7 0.7,2.4 0,2 -0.2,3 -1.9,5.6 -0.5,0.5 -0.3,1.1 -0.2,1.4 0.1,0.4 0.1,0.8 0.5,0.4 2,-2.5 2.5,-5 2.9,-8.2 -0.2,-2.2 -1,-3.1 -2.6,-3.2 z"
             id="path4018"
             style="fill:#1a1a1a" /><path
             class="st23"
             d="m 173.8,28 c 0.1,0 0.3,-0.1 0.5,-0.1 0.4,-0.1 0.8,-0.2 1.2,-0.4 1.4,-1 2.7,-2.3 3.6,-3.7 1.4,-2.8 1.6,-6.3 -0.3,-8.2 -1.6,-1.5 -3.7,-1.2 -5.3,0.7 -2.1,2.9 -1.6,4.9 -1.7,7.6 0.1,0.9 0.2,1.7 0.5,2.5 0.3,1 0.8,1.5 1.5,1.6 z m 1.9,-11.6 c 0.9,-0.6 1.1,-0.6 1.8,-0.1 1,0.7 1.6,2.8 1.3,4.6 -0.1,0.8 -0.6,2.1 -1.2,2.9 -0.6,0.9 -1.6,1.9 -2.3,2.4 l -1.3,0.1 -0.5,-1 c -1,-3.4 0,-7.6 2.2,-8.9 z"
             id="path4020"
             style="fill:#1a1a1a" /><path
             class="st23"
             d="m 158.3,34.2 c -0.1,-0.2 -0.2,-0.4 -0.3,-0.5 -0.2,-0.3 -0.4,-0.5 -0.6,-0.7 -0.2,-0.2 -0.4,-0.4 -0.7,-0.5 -0.4,-0.3 -1.1,-0.6 -1.7,-0.8 -0.4,0 -0.7,0 -1.1,0.1 0,0 -0.1,0 -0.1,0.1 -2.5,2.1 -2.1,3.1 -2.5,5 -0.1,1.8 0.3,3.6 0.7,5.4 0.3,1 0.7,1.9 1.1,2.8 0.8,1.1 1.9,2.1 3.2,2.4 0.3,-0.1 0.6,-0.2 1,-0.4 0.1,-0.2 0.3,-0.3 0.4,-0.6 1.7,-2.4 1.9,-9.3 0.6,-12.3 z m -1,10.1 c -0.5,1.9 -0.9,2.3 -1.8,1.3 -1,-1.1 -2.3,-4.1 -2.7,-6.3 -0.6,-3.2 0.4,-6.1 2.1,-6.1 0.9,0 2,1.2 2.4,2.6 0.5,1.5 0.4,6.8 0,8.5 z"
             id="path4022"
             style="fill:#1a1a1a" /><path
             class="st23"
             d="m 253.3,135.1 c -0.2,-1.1 -1,-1.8 -1.9,-1.8 -0.4,0 -1.5,0.7 -2.5,1.5 -2.1,1.7 -4.7,3 -8.4,4.1 -2.8,0.9 -7.8,1.8 -9.4,1.8 -1.6,0 -3.1,-0.8 -3.7,-1.9 -0.7,-1.2 -0.4,-1.9 0.6,-1.9 1.3,0 9.2,-2.1 12.6,-3.4 1.8,-0.6 4.8,-2 6.8,-2.9 4.4,-2.1 5.1,-2.9 5.1,-6.3 0,-0.1 -0.1,-1.7 -0.1,-1.7 -0.2,0.1 -0.4,2.6 -0.6,3.1 -0.6,2.1 -1.4,3.1 -1.6,1.8 -0.3,-1.8 0.6,-5.2 1.7,-5.3 0.1,-0.2 0.4,3 0.5,0.4 -0.2,-1.3 -0.9,-1.4 -2.5,-0.7 -8,3.1 -19.9,6.6 -21.2,6.3 -0.5,-0.2 -0.6,0.6 2.4,-10.9 5,-19.1 6.7,-32.8 8.1,-67.6 0.5,-11.9 -0.1,-19.9 -1.4,-20.7 -1.6,-1.1 -5.8,1.2 -6.5,3.5 -0.1,0.3 0.1,1.7 0.5,3.1 0.5,2.1 0.7,3.6 0.8,9.4 0.1,6.9 0,11.2 -1.2,33.8 -0.7,13.6 -0.9,15.7 -2.1,22.3 -2.2,12.3 -3.5,14.9 -7.3,15.7 -2.2,0.5 -3.4,0.3 -3.4,-0.6 0,-1.5 3.4,-15.5 6,-24.8 3.2,-11.7 4.4,-18.6 5,-29 0.5,-8.5 0.3,-13.9 -0.8,-20.6 -2,-12.6 -7,-36.8 -8.1,-38.9 -1,-1.9 -5,-1.2 -6.1,1.2 -0.5,1.1 -0.5,1.2 0.3,2.7 0.6,1.2 0.8,2.1 0.8,3.5 0,2.5 -0.6,3.2 -4.8,5.5 -3.6,1.9 -6.9,4.3 -8.4,6 -0.5,0.7 -1.9,3 -2.9,5.2 -1,2.2 -2.1,4.5 -2.4,5.1 -0.7,1.4 -2.9,3.5 -3.8,3.9 -0.4,0.1 -0.8,0.5 -0.9,0.9 -0.2,0.5 0.2,0.7 0.8,0.6 0.3,-0.1 1,0 1.9,-0.8 1.8,-1.4 3.5,-4 5.6,-8.7 1,-2.2 2.3,-4.6 2.8,-5.2 1.3,-1.5 4.1,-4.4 8,-6 5.1,-2.8 6.3,-4.3 5.5,-8.2 -0.2,-1 -1.2,-2.5 -1.1,-2.5 0.6,0.4 3.9,-0.5 4.2,-1.2 0.1,-0.2 0.4,1.8 0.5,2.2 0.1,0.4 0.1,1.8 0.6,4 1.2,5.4 5,24.1 5.8,29.3 0.4,2.3 1.1,5.2 1.5,6.5 1,3 1,6.8 0.1,9.5 -0.5,1.5 -0.6,2.7 -0.6,6.1 0,7.1 -1.2,14.8 -3.9,25.2 -0.8,3.2 -2.4,9.6 -3.6,14.1 -1.1,4.5 -2.3,9.4 -2.6,10.9 -0.7,4 -0.6,3.8 -2.6,3.8 -1,0 -1.8,-0.1 -1.8,-0.2 0,-1.2 2.3,-9.3 5.5,-19.3 1,-3.3 2.3,-7.4 2.7,-9.3 1.3,-5.3 2.5,-14.2 2.7,-19.6 l 0.2,-5 -0.7,0.7 c -0.7,0.6 -0.8,1.1 -1,5.6 -0.3,5.8 -1.5,14.4 -2.8,19.6 -0.5,2 -2,7.1 -3.3,11.2 -1.4,4.1 -2.9,9.3 -3.5,11.5 -0.6,2.2 -1.2,4.1 -1.3,4.3 -0.2,0.2 -2.4,0.5 -4.9,0.6 -5.1,0.3 -7.7,0.8 -12.2,2.2 -4.3,1.3 -4.5,1.4 -7.1,1 -3.7,-0.5 -6,-1.8 -9.8,-5.6 -3.4,-3.3 -9.1,-10.6 -11,-14 -0.6,-1.1 -1.1,-2 -1.1,-2.1 0,-0.2 5.3,-2.6 7.9,-3.4 1.4,-0.5 5.1,-1.4 8.1,-2 15,-3.1 20.1,-4.8 25.2,-8.2 9.9,-6.7 15,-19.2 12.2,-30.3 -0.6,-2.6 -3.4,-8.1 -5,-9.9 -2.1,-2.4 -5.8,-3.8 -10.9,-4.2 -5.4,-0.4 -12.3,1.3 -10.9,2.7 0,0 0,0 0.5,0 1.4,-0.8 3.3,-1.3 4.9,-1.5 0.9,-0.3 2.1,-0.1 3.4,-0.2 1.7,-0.1 1.6,-0.1 4.8,0.4 2.6,0.7 4.2,1.3 4.1,1.2 0.3,0.1 1.2,0.6 1.3,0.7 l 1.4,1.1 c 1.4,1 -0.5,-0.7 0,0 1,1.1 2.1,2.5 2.6,3.5 l -0.2,-0.3 c 0.5,0.6 0,0 1.1,2.2 0.3,0.7 0,-0.5 0,-0.5 0,0 -0.9,-1.5 -0.9,-1.4 0.8,1.2 1.1,2.7 1.6,4 v 0 0 c 0.9,2.4 1.4,5.1 1.5,7.7 0.1,1.6 0.1,3.2 -0.2,4.8 -0.1,0.6 -0.2,1.3 -0.4,1.9 -0.5,2.6 -1.5,5.1 -2.8,7.5 -1.4,2.7 -3.3,5.1 -5.5,6.8 -1.7,1.6 -3.6,3 -5.7,4.2 -3.3,2 -10.5,4.1 -21.2,6.2 -1.3,0.2 -2.4,0.5 -3.5,0.7 -0.9,0.3 -1.8,0.5 -2.8,0.7 -0.5,0.2 -1.1,0.4 -1.6,0.5 -1.8,0.6 -3.6,1.2 -5.4,1.9 -0.4,0.1 -0.8,0.3 -1.2,0.4 -0.3,0.1 -0.5,0.2 -0.8,0.4 -2.3,1.1 -2.7,1.4 -2.8,2.2 -0.1,0.7 0.4,1.9 1.3,3.5 1.5,2.1 3,4.3 4.5,6.4 0,0.1 0.1,0.1 0.1,0.2 0.4,0.6 0.9,1.2 1.4,1.8 0,0.1 0.1,0.1 0.1,0.2 3.2,3.9 7,7.2 10.9,10.2 3.9,1.7 7.5,1.8 11.9,0.3 6.2,-2.1 7.3,-2.2 18.6,-2.2 9.9,0 10.2,0 11.6,-0.7 1.9,-1 2.8,-2.9 4.3,-8.6 2.2,-8.6 3.1,-15.7 3.7,-28.5 0.1,-4.2 0.4,-9.5 0.6,-11.9 0.5,-7.5 0.5,-23.7 0.3,-26.2 -0.1,-1.3 -0.3,-3 -0.6,-4.6 -0.7,-3.5 -0.7,-3.5 -0.7,-3.5 0.3,0 3,-0.6 3.9,-1.1 l 1,-0.8 0.4,4.5 c 0.3,5.7 -0.6,29 -1.5,39.7 -1.7,19 -3,26.8 -7.3,43.1 -3,11.5 -3.4,13.4 -3.4,16.3 0,2.8 0.9,4.7 2.6,5.6 2.6,1.3 12.3,-0.4 18.1,-3.3 l 2.8,-2.1 0.2,2.9 c 0.1,1.1 0.7,2.1 0.4,2.3 -0.5,0.5 -1.2,0.9 -3,1.6 -8.4,3.4 -23.1,6.1 -39.2,7.2 -4.7,0.3 -10,0.4 -10,0.2 0,-0.1 0.3,-0.9 0.8,-1.9 0.5,-1.1 0.9,-2.7 1,-4 l 0.2,-2.2 4.2,-0.2 c 4.8,-0.3 10.1,-1.3 13.2,-2.7 2.3,-1 4.4,-3.2 5.8,-5.9 1.9,-3.8 2.5,-8.5 1.3,-10 l -1.4,-0.8 -9.5,-0.2 c -9.6,-0.2 -10.4,-0.2 -13.2,0.4 -8.2,1.7 -16.6,6.8 -18.5,11 -1.2,2.5 -2.3,20.2 -1.9,28.1 0.3,4.2 1.3,10.3 3.5,20.3 0.7,3.3 1.7,8.6 2.2,11.7 0.8,5.3 1.4,6.6 1.4,17.1 0,15 -1,19.6 -3.5,25.5 -2,4.9 -4,8.3 -8,10.3 l -3.1,0.9 -4.7,0.8 -4.4,-0.5 -3.4,-1.5 c -6.6,-3.1 -12.6,-12.4 -15.7,-23.2 -2,-7 -2.4,-14.3 -2.3,-39.9 L 141.5,165.1 141,158 c -1.1,-7.9 -1.5,-20.8 -0.9,-25.6 0.8,-6.1 4,-15 7.5,-20.7 0.8,-1.3 2.5,-3.2 2.4,-3.7 l 0.1,-2.3 -2.3,3.2 c -1,1.1 -3.5,5.9 -5.1,9.8 -3.2,7.8 -3.7,10.3 -4.1,18.6 -0.3,6.7 -0.2,10.3 0.8,18.1 1.2,9.8 1.4,14.1 1.2,31.2 -0.3,28.4 0.5,34.4 5.6,45.2 4.5,9.3 10,15 16.6,17.1 3.8,1.2 9.6,0.6 13.2,-1.2 4.6,-2.5 8,-7.7 9.9,-15.2 1,-2.9 1.9,-10.6 1.8,-18 0.4,-9.5 -1.3,-23.4 -4.5,-36.7 -2.4,-9.9 -3.2,-17.9 -2.5,-26.9 0.2,-2.7 0.5,-7 0.7,-9.6 0.4,-5.2 0.9,-6.9 2.5,-8.7 2.3,-2.5 6.5,-4.8 12,-6.7 3.5,-1.2 5.6,-1.5 9.6,-1.6 4.4,-0.1 4.2,-0.2 3.5,1 -1.9,3.3 -6.5,5 -14.1,5.1 -1.6,0 -3.4,-0.1 -4.1,-0.2 -1.2,-0.2 -1.4,-0.1 -2.5,1 -0.9,0.9 -1.3,1.6 -1.6,3.1 -0.5,2.1 -0.3,3.5 0.5,4.4 0.5,0.5 1.2,0.6 6.5,0.6 3.3,0 8.3,-0.1 11.3,-0.3 2.9,-0.1 6.4,-0.3 7.6,-0.2 l 2.3,0.1 -3.6,0.9 c -2.9,0.7 -4.7,0.9 -9.4,1.1 -5.8,0.2 -5.9,0.3 -6.7,1.1 -1.1,1.1 -1.9,3.7 -1.9,6.4 0,2.5 0.4,3.1 2.1,3.5 4.9,1.1 24.6,-0.6 37.3,-3.3 12,-2.5 18.6,-5.1 19.9,-7.8 0.6,-1.3 1,-4.6 0.7,-5.7 z M 218.9,4.2 c -1,0.6 -3.5,0.8 -3.6,0.5 -0.4,-1.1 3.2,-2.8 4.2,-1.7 0.7,0.6 0.3,0.6 -0.6,1.2 z m 17,28 c -1.1,0.6 -3.5,1.1 -3.6,0.7 -0.3,-1.6 4.1,-4.1 5.2,-2.8 0.2,0.2 -0.6,1.6 -1.6,2.1 z m -8,102.3 c 0,-1.2 0.7,-4.2 1.1,-4.5 0.2,-0.1 2.9,-0.9 5.9,-1.6 3,-0.7 7.4,-2.4 9.8,-3.2 2.3,-0.8 4.9,-2.1 5.2,-2.2 0.4,-0.2 0.1,1 -0.2,1.9 -0.2,0.6 -0.3,1.6 -0.3,2.2 0,1.1 0,1.1 -3.1,2.6 -4.6,2.1 -8.8,3.6 -13,4.5 -4.6,1 -5.5,1 -5.4,0.3 z m -10.2,-8.8 c 0.4,-2.3 0.4,-2.2 2.5,-2.2 1.1,0 2.3,0.1 2.7,0.2 0.9,0.2 1.2,1.5 0.9,3.3 l -0.2,1.3 h -2.1 c -3.8,-0.1 -4.2,-0.4 -3.8,-2.6 z m -27.4,9.5 c -0.9,1.9 -1.3,2.2 -1.8,1.6 -1.1,-1.1 0.6,-6 2.1,-6 0.8,0 0.6,2.6 -0.3,4.4 z m 22.3,1.9 c -4.1,0.8 -10.5,0.6 -14.1,0.6 l -8.2,0.3 0.3,-0.5 c 0.4,-0.3 1.1,-2.5 1.3,-4.2 v -2.4 l 5,0.2 c 8.3,0 12.8,-2 15.1,-6.6 l 0.7,-1.4 2,0.1 c 1.1,0 1.9,0.2 1.9,0.4 -0.1,0.2 -0.2,1.2 -0.3,2.3 -0.2,1.9 -0.1,2.1 0.6,2.8 0.6,0.6 1.2,0.8 3.4,1 1.5,0.2 2.6,0.4 2.6,0.6 0,0.5 -2,4 -2.8,5 -1.1,0.6 -8.1,1.8 -7.5,1.8 z M 195,149.2 c -0.3,-0.8 0.2,-4.4 0.7,-5.7 0.5,-1.2 1.6,-1.2 2.3,-0.9 1.1,0.4 0.4,5 -0.9,6.4 -0.8,0.9 -1.8,1 -2.1,0.2 z m 57.6,-10.1 c -0.3,1 -0.4,1.3 -0.9,1.4 -2.1,0.3 -1.3,-7.1 0.6,-6.2 0.6,0.3 0.9,3.1 0.3,4.8 z"
             id="path4024"
             style="fill:#1a1a1a" /><path
             class="st23"
             d="M 223.2,31.2 C 221.3,23 220,20.1 217.5,18.9 c -1.1,-0.5 -1.5,-0.5 -3.3,-0.2 -4.6,0.7 -8.1,3.5 -10.2,7.9 -2.3,4.8 -3.4,7 -4.4,8.2 -0.9,1.8 -4.2,3.6 -6.3,3.9 -0.3,0.1 -0.4,0 -0.7,0.1 0,0 -0.1,1.3 0,0.3 v 0 0 l 1,-0.3 c -1.2,0 -1.1,0.2 -1.1,1.2 0.1,0.8 0.7,0.3 1.7,0.1 3.1,-0.6 7,-4 8.8,-7.7 0.5,-1.1 1.5,-3.2 2.2,-4.7 2.2,-4.5 5.7,-7.3 9.7,-7.6 2.8,-0.2 4,1.1 5.5,5.9 0.8,2.7 2.4,9.7 2.9,13 0.2,1.3 0.4,2.7 0.5,3.1 0.1,0.9 0.6,0.8 1.3,0.5 0.1,-0.6 -0.7,-5.8 -1.9,-11.4 z"
             id="path4026"
             style="fill:#1a1a1a" /><path
             class="st23"
             d="m 160.2,94.9 c -1.7,-2.9 -3.2,-5.9 -4.6,-9 -0.3,-0.6 -0.6,-1.3 -0.8,-1.9 -0.3,-0.7 -0.5,-1.4 -0.7,-2 -0.6,-1.9 -1,-3.8 -1.1,-5.7 -0.2,-1.9 -0.2,-1.9 -0.2,-4.9 0,-0.1 0,-1.4 0,-1.5 -0.5,-4 -1.8,-7.2 -4,-10.5 -0.2,-0.2 -0.3,-0.5 -0.5,-0.7 -1.1,-1.6 -1.3,-1.7 -2.2,-1.5 -0.2,0 -0.7,0.1 -1.2,0.2 -1.5,0.5 -2.8,0.8 -4.3,0.1 -0.1,0 -1,-0.5 -1.1,-0.6 -0.2,0.1 0.1,0.1 0,0 -1.9,-0.9 -2.5,-2.5 -2.8,-4.4 -0.9,-3.2 0.2,-7.1 3.2,-10.4 0.8,-0.9 2.2,-2 3,-2.4 0.9,-0.5 2.1,-1.5 2.1,-1.9 0,-0.8 -1.2,-0.2 -3.1,0.8 -2.1,1.1 -4.5,3.6 -5.7,6.2 -2.5,5.3 -0.9,11.3 3.6,13.6 1.9,1 4.2,1.1 5.6,0.4 0.8,-0.4 0.9,-0.4 1.8,0.7 1.5,1.8 3.5,6.1 4,8.6 0.3,1.3 0.5,4 0.5,6.7 0,2.7 0.1,5.1 0.4,6.1 0.6,2.3 2.5,6.5 4.9,10.8 2.4,4.3 2.8,5.7 1.9,6.7 -0.3,0.3 -0.3,1.6 -0.2,1.9 0.3,-0.1 -0.3,0 0,0 0.9,0 2,-1.2 2.2,-2.6 0,-0.8 0,-1.3 -0.7,-2.8 z"
             id="path4028"
             style="fill:#1a1a1a" /><path
             class="st23"
             d="m 181.4,120.1 c -0.9,-0.7 -1.8,-1.3 -2.6,-2.1 l -0.1,-0.1 c -0.2,-0.2 -0.4,-0.3 -0.6,-0.5 -0.5,-0.4 -1,-0.8 -1.5,-1.3 -0.2,-0.1 -0.3,-0.3 -0.5,-0.5 -0.5,-0.5 -1,-0.9 -1.5,-1.4 -0.9,-0.8 -1.7,-1.6 -2.4,-2.6 -2,-2.2 -3.6,-4.4 -4.7,-6.4 -0.9,-1.3 -1.7,-2.7 -2.6,-4.1 -0.9,-1 -1.7,-1.4 -2.5,-1.4 -1.5,0 -2.5,0.9 -3.7,3.2 -0.8,2.3 -0.3,3.9 0.8,1.3 0.6,-0.9 1.4,-2.1 1.9,-2.5 0.8,-0.7 0.9,-0.7 1.7,-0.3 0.5,0.3 1.5,1.7 2.6,3.7 0.9,1.8 2.2,3.8 2.7,4.5 1.7,2.3 7.7,8.2 10.7,10.6 1.6,1.3 3.1,2.7 3.3,3 1.1,2 -0.6,3.7 -6.6,6.6 -3.7,1.9 -3.6,1.6 -3.6,2.3 0,0.4 -0.1,1.1 0,1.1 0.1,0 1.5,-0.8 3.9,-1.9 5.9,-2.8 8.3,-5 8.3,-7.5 0.1,-0.9 -0.8,-2.1 -3,-3.7 z"
             id="path4030"
             style="fill:#1a1a1a" /><path
             class="st23"
             d="m 182.5,230.3 c 1,-2 1.7,-5.1 1.5,-6.8 -0.2,-1.9 -0.8,-2.7 -2.1,-2.7 -1.4,0 -2.5,0.7 -5.2,3.1 -1.2,1.2 -3.6,3 -5.2,4.1 -4.8,3.2 -6.2,4.4 -6.8,5.6 -0.7,1.3 -0.5,2.2 0.7,2.8 1.9,1.1 8.1,0.4 11.6,-1.2 1.8,-0.9 4.8,-3.6 5.5,-4.9 z m -8,4.4 c -3.8,1.2 -8.8,1.1 -8.7,-0.1 0,-0.5 1.8,-2 5.5,-4.6 1.9,-1.3 4.7,-3.4 6.1,-4.6 4.6,-3.9 5.3,-4 5.1,-0.4 -0.3,4.7 -3.1,8.2 -8,9.7 z"
             id="path4032"
             style="fill:#1a1a1a" /><path
             class="st23"
             d="m 154.8,232.5 c 3.7,1.8 5.8,1.5 5.4,-0.9 -0.2,-1.2 -1,-1.9 -3.2,-3.2 -3.6,-1.9 -5.6,-4.6 -7.5,-9.8 -1.5,-4.1 -3.1,-5.4 -4.7,-3.8 -1.5,1.5 -1.2,3.4 1.3,8.6 2,4.2 5,7.3 8.7,9.1 z m -8.5,-16.7 c 0.3,0 0.8,0.7 1.3,1.8 3.6,8.1 4.9,10 8.6,11.9 2.1,1.1 3,2 2.6,2.6 -0.3,0.4 -0.4,0.4 -2.1,-0.3 -2.1,-0.8 -4.9,-2.8 -6.2,-4.3 -3.6,-4.3 -6.2,-11.7 -4.2,-11.7 z"
             id="path4034"
             style="fill:#1a1a1a" /><path
             class="st23"
             d="m 166.4,244.3 c 1,0.1 2.9,0.2 4.3,0.1 4.3,-0.3 8.4,-2.6 9.7,-5.6 0.5,-1.2 0.5,-1.3 0,-2.1 -0.7,-1.1 -1.7,-1 -4.3,0.3 -6,3 -9.3,2.8 -17.2,-1.1 -1.4,-0.6 -2.9,-1.2 -3.3,-1.2 -1,0 -1.5,0.8 -1.5,2.2 0,2.7 6.5,6.6 12.3,7.4 z m -6.8,-6.4 c 4.6,2.2 6.2,2.6 10,2.5 2.9,-0.1 3.4,-0.3 6,-1.5 2.9,-1.4 3.7,-1.6 3.7,-0.9 0,0.9 -2,2.8 -4.1,3.8 -2,0.9 -2.5,1 -5.4,1.2 -3.9,0 -6.4,-0.5 -9.6,-2 -2.4,-1.2 -4.2,-2.7 -4.6,-4 -0.3,-1 0.3,-0.9 4,0.9 z"
             id="path4036"
             style="fill:#1a1a1a" /><path
             class="st23"
             d="M 173.5,47.8 C 172.1,45 171.1,42 171.3,39 c 0,-1 0,-2.3 0,-3.8 l 0.1,-3.6 c -0.1,-1.1 -0.4,-2.2 -1.1,-3 -0.6,-0.5 -1.3,-0.7 -2.1,-0.6 -1.5,0.7 -3.2,1.1 -4.9,1 -0.1,0 -0.1,0 -0.2,0 -1.8,-0.2 -1,0.2 -1,0.8 0,1.1 2,1 4.7,0.1 3.2,-1 3.7,-0.2 3.1,5.8 -0.3,3.7 -0.3,4.5 0.2,6.9 0.3,1.5 0.9,3.5 1.3,4.4 0.9,2.1 1,2.6 0.1,2.6 -1.1,0 -1.9,-0.6 -2.1,-1.5 -0.3,-1.1 -1.3,-2.5 -2.2,-3 -0.4,-0.2 -1.9,-0.5 -3.3,-0.6 l -2.6,-0.2 0.1,-1.4 c 0.1,-0.8 0.1,-2.7 0.2,-4.3 0.1,-3.4 -0.4,-4.8 -2.6,-7.4 -0.7,-0.9 -1.3,-2 -1.3,-2.4 0,-1.2 1.2,-2.9 3.3,-4.6 2,-1.7 2.9,-2.1 4.2,-1.9 0.6,0.1 0.8,0.3 0.8,1.1 0,0.8 -0.2,1 -1.1,1.5 -0.6,0.3 -1.6,0.6 -2.3,0.6 -1,0 -0.3,1.1 -0.3,0.6 0,-0.5 -0.6,0.7 0.2,0.8 1.1,0.1 2.6,-0.3 3.6,-1.1 0.2,-0.1 0.3,-0.3 0.5,-0.4 0.2,-0.2 0.4,-0.4 0.6,-0.7 0.9,-1.4 0.9,-2 -0.1,-3 -0.7,-0.7 -1.7,-0.9 -2.9,-0.7 -0.9,0.2 -1.8,0.6 -2.6,1 -1.4,0.8 -2.8,2.1 -4,3.7 -0.8,1 -1.2,1.8 -1.3,2.6 0,0.4 0,0.7 0.1,1 0.2,0.6 0.7,1.3 1.4,2.2 1.6,1.9 2.3,2.9 2.5,4.6 0.1,0.4 0.2,0.8 0.2,1.2 0.2,2 0,4 -0.3,6 0,0.4 0,0.8 0,1.1 0.1,0.2 0.2,0.5 0.3,0.7 0.3,0.3 0.6,0.6 1.1,0.8 0.6,0.1 1.3,0.2 2.2,0.2 3.1,0.3 3.9,0.7 4.5,2.5 0.2,0.6 0.7,1.3 1.2,1.7 0.7,0.6 1.3,0.7 2.2,0.6 1.4,0 1.7,-0.2 2,-0.9 0.2,-0.7 0.3,-1 -0.2,-2.2 z"
             id="path4038"
             style="fill:#1a1a1a" /><path
             class="st23"
             d="m 164.1,181.3 c -2.6,0.8 -4,2.5 -3.9,5 0.1,2.3 1.3,4.8 3,6 3.1,1.9 3.2,0.9 0.9,-1 -2.2,-1.8 -3.2,-4.5 -2.4,-6.4 0.4,-0.8 0.9,-1.3 2.3,-1.9 1.6,-0.7 2.1,-0.8 4.1,-0.6 2.5,0.2 3.7,0.8 4.2,2.1 0.6,1.5 -0.3,4.3 -2.2,6.7 -0.4,0.6 -0.6,2.9 1,1 1.6,-1.8 2.7,-4.7 2.7,-6.7 0,-0.7 0,-1.1 -0.1,-1.5 -1.9,-3.4 -6.1,-3.4 -9.6,-2.7 z"
             id="path4040"
             style="fill:#1a1a1a" /><path
             class="st23"
             d="m 170.6,195.6 c -1.2,-0.1 -0.9,0.6 -0.8,1.1 -0.2,0.5 0,0 1,0.2 1.6,0.3 3.1,1.5 3.4,2.7 0.4,1.7 -1.5,4.5 -4.7,6.7 -0.5,0.3 -0.4,0.5 -0.3,0.9 0.1,1 0.1,1 1.7,0 2.5,-1.6 4.8,-5 4.8,-7 0,-2.4 -2.4,-4.6 -5.1,-4.6 z"
             id="path4042"
             style="fill:#1a1a1a" /><path
             class="st23"
             d="m 186,201.5 c -0.3,-1.9 -0.9,-2.7 -2.2,-2.7 -1.5,0 -2.1,0.5 -2.9,2.3 -0.6,1.4 -0.8,2.3 -0.9,5.6 -0.2,4.5 0,5.9 0.9,6.8 1.4,1.4 3.3,0.1 4.3,-2.8 0.5,-1.8 1,-7.4 0.8,-9.2 z m -2.8,9.7 c -1.3,2.7 -2.1,1.1 -2,-4.1 0.1,-2.7 0.3,-4.1 0.8,-5.3 0.7,-1.6 1.5,-1.9 2,-1.1 0.7,1.1 0.2,8.6 -0.8,10.5 z"
             id="path4044"
             style="fill:#1a1a1a" /><path
             class="st23"
             d="m 178,183.8 c -1.3,3.7 -1.3,3.6 -2.8,5.9 -1.9,2.9 -2,3.7 -0.8,5.5 0.5,0.8 1.4,1.7 2,2 1.3,0.7 1.4,0.7 2.3,0.2 1.1,-0.5 2.4,-2.7 3.2,-5.3 0.6,-1.8 0.7,-3 0.7,-6.6 0,-3.9 -0.1,-4.5 -0.6,-5.1 -1.3,-1.5 -2.6,-0.4 -4,3.4 z m 3.5,2.2 c -0.2,4.3 -0.9,7.2 -2.4,9.1 -0.5,0.6 -1,1.1 -1.2,1.1 -0.7,0 -2.7,-2.1 -2.7,-2.8 0,-0.3 0.7,-1.7 1.6,-3.1 0.9,-1.4 2,-4 2.6,-5.6 1.6,-4.9 2.3,-4.5 2.1,1.3 z"
             id="path4046"
             style="fill:#1a1a1a" /></g></g></g></g></svg>