<?xml version="1.0" encoding="UTF-8" standalone="no"?>
<!-- Created with Inkscape (http://www.inkscape.org/) -->

<svg
   xmlns:dc="http://purl.org/dc/elements/1.1/"
   xmlns:cc="http://creativecommons.org/ns#"
   xmlns:rdf="http://www.w3.org/1999/02/22-rdf-syntax-ns#"
   xmlns:svg="http://www.w3.org/2000/svg"
   xmlns="http://www.w3.org/2000/svg"
   xmlns:sodipodi="http://sodipodi.sourceforge.net/DTD/sodipodi-0.dtd"
   xmlns:inkscape="http://www.inkscape.org/namespaces/inkscape"
   width="210mm"
   height="297mm"
   viewBox="0 0 210 297"
   version="1.1"
   id="svg63687"
   inkscape:version="0.92.2 5c3e80d, 2017-08-06"
   sodipodi:docname="Kidney main outline 8.skinny.svg">

  <sodipodi:namedview
     id="base"
     pagecolor="#ffffff"
     bordercolor="#666666"
     borderopacity="1.0"
     inkscape:pageopacity="0.0"
     inkscape:pageshadow="2"
     inkscape:zoom="0.35"
     inkscape:cx="-740.42031"
     inkscape:cy="317.16043"
     inkscape:document-units="mm"
     inkscape:current-layer="layer7"
     showgrid="false"
     inkscape:window-width="1508"
     inkscape:window-height="856"
     inkscape:window-x="1380"
     inkscape:window-y="56"
     inkscape:window-maximized="0" />
  <metadata
     id="metadata63684">
    <rdf:RDF>
      <cc:Work
         rdf:about="">
        <dc:format>image/svg+xml</dc:format>
        <dc:type
           rdf:resource="http://purl.org/dc/dcmitype/StillImage" />
        <dc:title />
      </cc:Work>
    </rdf:RDF>
  </metadata>
  <g
     inkscape:label="Outline"
     inkscape:groupmode="layer"
     id="layer1"
     style="display:inline">
    <path
       style="display:inline;opacity:0.73000004;fill:#1a1a1a;stroke-width:0.06341157"
       d="m 70.533054,227.48996 c -0.33516,-0.17856 -0.53927,-0.45523 -0.6638,-0.89978 -0.0495,-0.17665 -0.16376,-1.17758 -0.25396,-2.2243 -0.70554,-8.18798 -1.06472,-11.88557 -1.83943,-18.93615 -0.82468,-7.50537 -1.02687,-10.3799 -1.08873,-15.47879 -0.0382,-3.14744 0.021,-5.37874 0.20599,-7.77112 0.43009,-5.56105 1.44488,-10.63699 3.06225,-15.31735 0.21046,-0.60902 0.37661,-1.11245 0.36924,-1.11874 -0.0763,-0.065 -1.42475,-0.70618 -1.79302,-0.85259 -0.90069,-0.35809 -3.64985,-1.14101 -5.57311,-1.58714 -0.7681,-0.17818 -1.50963,-0.26764 -3.67042,-0.44284 -0.44995,-0.0365 -0.84928,-0.0867 -0.8874,-0.11152 -0.0381,-0.0249 -1.12468,-0.0596 -2.41458,-0.0773 -2.20914,-0.0303 -2.35997,-0.0397 -2.5988,-0.16285 -0.27913,-0.1439 -0.61756,-0.60428 -0.8457,-1.15041 -0.29172,-0.69832 -0.51709,-2.63641 -0.51709,-4.44675 v -1.05912 h -0.99832 c -0.97886,0 -1.00995,-0.005 -1.59463,-0.21755 -0.32796,-0.11966 -0.70991,-0.30521 -0.84877,-0.41235 -0.28522,-0.22005 -0.89698,-1.19328 -1.11254,-1.76989 -0.57941,-1.54988 -0.74103,-2.65814 -0.68157,-4.67351 0.044,-1.49318 0.0606,-1.65449 0.31316,-3.04501 0.23724,-1.30642 0.63989,-2.29814 1.21867,-3.00159 0.16696,-0.2029 0.38267,-0.40987 0.47938,-0.45992 0.22865,-0.11834 1.39184,-0.12114 2.46438,-0.006 1.48514,0.15952 7.11848,0.1898 10.0779,0.0542 0.99357,-0.0456 2.38726,-0.10964 3.09711,-0.14244 0.70984,-0.0328 1.66538,-0.10208 2.12341,-0.15394 0.45804,-0.0519 1.60293,-0.15207 2.5442,-0.22268 2.12546,-0.15943 3.50696,-0.32193 4.8173,-0.56663 0.55779,-0.10417 1.59839,-0.29396 2.31244,-0.42176 1.15294,-0.20635 2.1465,-0.45535 5.945,-1.48992 0.35814,-0.0975 1.04271,-0.30636 1.52125,-0.46404 0.47853,-0.15768 1.30109,-0.41561 1.82789,-0.57318 1.46212,-0.43734 3.08511,-1.0353 4.77694,-1.75998 l 1.53317,-0.65672 -0.42687,-0.0483 c -2.96806,-0.33621 -5.76294,-1.79788 -8.5029,-4.44682 -3.44042,-3.32612 -5.74064,-7.52306 -7.04559,-12.85527 -1.14223,-4.66726 -1.32794,-9.83435 -0.54036,-15.03446 1.24046,-8.190281 4.72045,-15.365719 10.53044,-21.712869 5.01223,-5.475628 11.65218,-9.314074 18.892336,-10.921344 2.6439,-0.58693 4.70785,-0.80833 7.52446,-0.80715 2.47446,7.5e-4 4.05741,0.14412 6.085,0.54997 4.86456,0.97373 9.21181,3.0605 14.73663,7.073892 9.45918,6.871446 17.43369,16.365107 23.20491,27.625471 5.24585,10.2353 8.57058,21.58687 9.68954,33.08275 0.90813,9.32995 0.30142,19.36345 -1.65036,27.29304 -1.68498,6.84561 -4.18216,12.17251 -7.88869,16.82787 -0.94661,1.18894 -1.46116,2.06441 -1.89188,3.2189 -0.33449,0.89656 -0.46008,1.48522 -0.67348,3.15658 -0.37704,2.95323 -0.84194,5.13248 -1.64331,7.70328 -2.48127,7.95981 -7.83133,15.55755 -14.42402,20.48384 -7.39993,5.5295 -16.52574,8.09638 -25.95635,7.30091 -7.00956,-0.59125 -13.738926,-3.20203 -18.888866,-7.32825 -4.7444,-3.8013 -8.45328,-9.06553 -10.78689,-15.31043 -1.42706,-3.81893 -2.15323,-7.67075 -2.24902,-11.9295 -0.12156,-5.40487 0.72732,-9.87842 2.6122,-13.76607 1.56361,-3.22501 3.90483,-5.95742 6.89776,-8.05033 0.37906,-0.26506 0.65591,-0.48194 0.61525,-0.48194 -0.1692,0 -1.34713,0.47844 -1.90366,0.77321 -2.26197,1.19803 -4.03542,2.89846 -5.79676,5.55803 -0.86256,1.30243 -1.31987,2.11076 -2.06912,3.65727 -0.70688,1.45907 -1.067,2.34087 -1.5916,3.89729 -2.26029,6.70606 -3.11436,15.71649 -2.42693,25.60416 0.32112,4.61893 0.66713,7.63752 1.77792,15.51051 0.5344,3.78767 0.55122,4.07897 0.25772,4.46408 -0.097,0.12732 -0.29599,0.29337 -0.44213,0.36901 -0.25302,0.13095 -0.37778,0.13977 -2.61097,0.18417 -1.2899,0.0256 -2.81591,0.0654 -3.39113,0.0884 -1.02136,0.0408 -1.05254,0.0382 -1.33109,-0.11018 z m 5.38776,-2.36924 c 0,-0.021 -0.0704,-0.61331 -0.15652,-1.31633 -0.0861,-0.70302 -0.242,-1.99188 -0.34646,-2.86415 -0.10447,-0.87227 -0.36084,-2.99902 -0.56972,-4.72611 -0.69693,-5.76234 -0.86552,-7.46195 -1.01619,-10.24518 -0.0562,-1.03846 -0.0764,-1.66785 -0.15956,-4.97986 -0.0308,-1.22457 0.0591,-4.71901 0.15702,-6.10748 0.39511,-5.60178 1.27699,-10.09509 2.9455,-15.00769 1.12241,-3.30473 2.35498,-5.7263 4.1553,-8.1637 2.08099,-2.81738 4.26279,-4.77274 6.62186,-5.93459 1.45223,-0.71523 2.72781,-1.06519 4.40236,-1.20781 0.701,-0.0597 0.91098,-0.0519 1.77168,0.0653 0.6527,0.0889 1.31467,0.13312 1.99664,0.1333 0.56112,0 1.47808,0.0424 2.03768,0.094 1.57371,0.14492 4.248856,0.53065 4.596146,0.66272 1.24779,0.47452 1.80102,1.36589 1.79413,2.89073 -0.002,0.57056 -0.0344,0.80109 -0.17467,1.2641 -0.3355,1.10764 -1.03172,2.24265 -2.18181,3.55691 -0.32409,0.37034 -0.60462,0.71344 -0.6234,0.76242 -0.021,0.0547 0.0475,0.13891 0.17764,0.21829 0.28331,0.17287 0.63894,0.16752 2.25698,-0.0339 1.46903,-0.1829 1.8944,-0.17106 2.40776,0.067 0.39586,0.18355 0.78532,0.56432 0.98934,0.96727 0.0847,0.16721 0.29921,0.86977 0.47678,1.56125 0.32516,1.2662 0.67704,2.17138 0.95052,2.44508 0.19057,0.19073 0.45484,0.1725 0.6638,-0.0458 0.23387,-0.24432 0.27195,-0.42169 0.39027,-1.81788 0.0562,-0.66292 0.12957,-1.32877 0.16308,-1.47966 0.14572,-0.65593 0.65036,-1.28314 1.24373,-1.54583 0.35894,-0.15891 1.14406,-0.21922 1.59467,-0.1225 1.07682,0.23112 1.81032,0.95659 2.06636,2.04374 0.28059,1.1913 -0.0251,3.38189 -0.73156,5.24119 -0.29729,0.7825 -0.3459,1.05145 -0.25266,1.398 0.0717,0.26655 0.39385,0.74342 0.58077,0.85974 0.20352,0.12665 0.42592,-0.0124 0.81177,-0.50769 0.20891,-0.26814 0.53108,-0.75622 0.71595,-1.08462 0.41675,-0.74032 0.87268,-1.2282 1.36238,-1.45782 0.31151,-0.14607 0.44633,-0.17153 0.8753,-0.16525 0.6178,0.009 0.97416,0.13415 2.01458,0.70732 0.83871,0.46204 1.66277,0.77445 2.04209,0.77416 0.39158,0 0.72233,-0.22344 0.93786,-0.63271 0.16098,-0.30567 0.1799,-0.39728 0.15332,-0.74265 -0.0206,-0.26725 -0.0822,-0.48148 -0.19177,-0.66609 -0.23191,-0.39087 -0.88492,-1.18801 -1.60166,-1.95519 -1.39868,-1.49711 -1.98757,-2.87494 -1.91067,-4.4704 0.0529,-1.0963 0.36179,-1.92689 0.94714,-2.54632 0.55302,-0.58521 1.17609,-0.89881 2.06966,-1.04168 0.85333,-0.13643 1.76743,0.15312 2.44762,0.77529 0.19309,0.17662 0.52776,0.56771 0.74371,0.8691 0.79917,1.11536 1.40372,1.86197 1.6267,2.00896 0.12608,0.0831 0.40038,0.19599 0.60955,0.25085 0.85694,0.22474 1.45004,-0.14151 1.53519,-0.94803 0.0191,-0.18115 -0.0746,-0.61936 -0.31964,-1.49451 -0.56755,-2.02687 -0.59402,-2.61807 -0.15418,-3.44397 0.23526,-0.44177 0.58477,-0.76733 1.47426,-1.3733 0.85674,-0.58365 1.0853,-0.82138 1.21328,-1.26201 0.19843,-0.68315 -0.13188,-1.44452 -0.76017,-1.75217 -0.30326,-0.1485 -0.45454,-0.17672 -1.09971,-0.20522 -0.66099,-0.0291 -0.98054,6.3e-4 -2.74473,0.25593 -2.90313,0.42017 -3.26028,0.4511 -5.1976,0.45027 -1.8844,-7.5e-4 -2.66758,-0.075 -4.05668,-0.38412 -4.74396,-1.05583 -8.03422,-4.15628 -8.791,-8.28391 -0.16005,-0.87289 -0.14386,-2.48122 0.0335,-3.3212 0.41834,-1.98205 1.17504,-3.36672 2.63407,-4.82002 1.60914,-1.60281 3.42085,-2.56192 5.74319,-3.04038 1.99226,-0.41046 3.78013,-0.23963 5.30319,0.50672 0.80541,0.39467 1.36665,0.83143 2.89928,2.2562 1.91422,1.77949 2.2371,2.06761 2.73152,2.43742 0.96858,0.72447 1.52924,0.93588 2.50636,0.94507 0.83508,0.008 0.98133,-0.0641 1.04818,-0.51588 0.0246,-0.16639 0.0835,-0.41318 0.13084,-0.5484 0.1945,-0.55568 0.15214,-0.691 -0.65579,-2.09491 -0.59942,-1.04159 -0.86385,-1.68399 -1.03536,-2.51528 -0.23006,-1.11506 -0.12129,-1.71967 0.46445,-2.58157 0.27459,-0.40404 0.38844,-0.89928 0.34535,-1.5021 -0.0246,-0.34348 -0.0603,-0.46525 -0.1607,-0.54657 -0.11375,-0.0922 -1.02912,-0.30365 -1.75593,-0.40565 -0.13944,-0.0196 -0.88105,-0.0791 -1.64802,-0.13241 -2.35908,-0.16381 -3.30788,-0.34822 -4.38078,-0.85141 -0.70257,-0.32951 -1.23164,-0.69793 -1.82057,-1.26777 -0.64953,-0.62848 -1.05543,-1.18427 -1.40633,-1.92562 -0.47601,-1.00571 -0.5614,-1.41791 -0.5614,-2.71011 0,-1.27217 0.0842,-1.69341 0.52775,-2.64074 0.82713,-1.7665 2.53947,-3.13397 4.40755,-3.51985 0.77886,-0.16089 1.58767,-0.15005 2.88381,0.0387 1.16121,0.16906 1.18506,0.16684 1.4686,-0.13708 0.40924,-0.43865 0.5355,-0.86351 0.33975,-1.14322 -0.052,-0.0743 -0.43789,-0.368 -0.85751,-0.65264 -0.49453,-0.33546 -0.85504,-0.63323 -1.02471,-0.84642 -0.34781,-0.43699 -0.71947,-1.24038 -0.92383,-1.99693 -0.1513,-0.56014 -0.1666,-0.72454 -0.1694,-1.82104 -0.003,-1.08582 0.0141,-1.28385 0.17068,-1.99757 0.0956,-0.43574 0.17376,-0.81077 0.17376,-0.83341 0,-0.0772 -0.83833,-0.398 -1.03747,-0.39699 -0.13282,6.8e-4 -0.80712,0.32379 -2.03673,0.97595 -3.11874,1.65413 -3.53778,1.81408 -4.35437,1.66209 -1.46187,-0.27209 -2.30111,-1.55555 -2.18599,-3.34306 0.093,-1.44397 0.47652,-2.16728 2.57817,-4.86234 1.30728,-1.67639 1.53134,-2.03408 1.68233,-2.68566 0.15836,-0.68339 0.01,-1.10647 -0.46104,-1.31502 -0.41418,-0.18336 -0.75174,-0.131 -2.08889,0.32404 -1.32159,0.44976 -1.84128,0.54408 -2.71308,0.49244 -0.85246,-0.0505 -1.32684,-0.17883 -2.15511,-0.58305 -0.94399,-0.4607 -1.71594,-1.14907 -2.16764,-1.93292 -0.45707,-0.79318 -0.82085,-1.12965 -1.13581,-1.05054 -0.20762,0.0521 -0.50336,0.47895 -0.59405,0.8573 -0.11662,0.48653 -0.004,0.87286 0.50909,1.75173 0.5998,1.02668 0.65411,1.18365 0.6183,1.78678 -0.0707,1.19034 -1.01755,2.10313 -2.11057,2.03459 -0.63326,-0.0397 -0.86861,-0.20127 -2.07537,-1.42471 -1.15976,-1.1758 -1.82736,-1.7345 -2.22348,-1.86076 -0.41535,-0.13239 -1.1206,0.11026 -1.1206,0.38557 0,0.30935 0.5078,0.8506 1.61633,1.72276 0.59478,0.46797 0.88202,0.86381 0.98417,1.35627 0.0953,0.45951 0.0382,0.84811 -0.19637,1.3348 -0.20394,0.42323 -0.63613,0.89399 -1.781,1.93991 -0.52798,0.48234 -0.7191,0.70359 -0.87156,1.00892 -0.32273,0.64638 -0.23233,1.23386 0.21891,1.42256 0.31828,0.13309 0.4933,0.11375 1.29722,-0.14335 0.6659,-0.21296 0.79471,-0.23352 1.48956,-0.2377 0.71745,-0.004 0.78222,0.006 1.14094,0.18162 1.01596,0.4974 1.71186,1.80484 1.96842,3.69822 0.22256,1.64239 0.18185,4.13992 -0.0975,5.98015 -0.71372,4.70233 -2.45758,7.98681 -5.413,10.19516 -0.93968,0.70215 -1.67206,1.10798 -3.55714,1.97111 -3.446706,1.57816 -5.690306,2.72785 -6.883176,3.52714 -0.48854,0.32735 -1.72165,1.31292 -1.68659,1.34801 0.0102,0.0103 0.49454,0.0473 1.07619,0.0822 1.19113,0.0716 1.33864,0.11893 1.55187,0.49863 0.11735,0.20896 0.14194,0.35025 0.14194,0.8155 0,1.21744 -0.53391,2.43019 -1.35723,3.08286 l -0.32248,0.25566 -0.72894,-0.0392 c -0.40091,-0.0215 -0.88581,-0.0806 -1.07755,-0.13125 -0.19174,-0.0506 -0.67114,-0.13873 -1.06532,-0.19574 -0.39418,-0.057 -1.09071,-0.21589 -1.54783,-0.35309 -0.45713,-0.13719 -0.86743,-0.24944 -0.91179,-0.24944 -0.14967,0 -1.32189,1.0783 -1.36664,1.25714 -0.0234,0.0936 -0.0892,0.40671 -0.14619,0.69576 -0.10899,0.553 -0.39901,1.33834 -0.58719,1.59007 -0.0613,0.082 -0.25405,0.23067 -0.42835,0.3304 -0.35346,0.20223 -0.78201,0.23644 -1.55294,0.124 l -0.41201,-0.0601 -0.65417,0.64815 c -0.95744,0.94866 -0.89778,0.82298 -0.96249,2.02774 -0.0744,1.38569 -0.28532,2.12934 -0.75608,2.66594 -0.28263,0.32217 -0.50093,0.36612 -1.6174,0.32556 l -0.95393,-0.0346 -0.45182,0.65477 c -0.2485,0.36012 -0.61214,0.90422 -0.80806,1.20911 l -0.35625,0.55435 0.25828,0.16319 c 0.43943,0.27762 0.60206,0.86007 0.50486,1.8081 -0.12374,1.20672 -1.16822,3.80514 -2.00286,4.98259 -0.3025,0.42674 -0.88656,0.98966 -1.18954,1.14646 -0.30537,0.15804 -0.82791,0.12733 -1.11952,-0.0658 l -0.24267,-0.16073 -0.35091,1.05955 c -2.14236,6.46879 -3.12804,13.78506 -2.99729,22.24773 0.0897,5.8074 0.37301,9.1534 2.00069,23.63054 0.23159,2.05987 0.68749,6.71187 0.92632,9.45221 0.0532,0.61059 0.11209,1.26003 0.13083,1.44321 l 0.0341,0.33305 h 1.89701 c 1.04335,0 1.897,-0.0172 1.897,-0.0381 z m 36.922026,-90.76313 c -0.76155,-0.25241 -1.31495,-0.74615 -1.72463,-1.53872 -0.58743,-1.13641 -0.81097,-2.34297 -0.76275,-4.11701 0.0273,-1.00612 0.0537,-1.22862 0.22219,-1.87142 0.23079,-0.88079 0.59778,-1.74377 1.00515,-2.36361 0.52989,-0.80624 1.75059,-1.91234 2.24365,-2.033 0.0878,-0.0215 0.35875,0.002 0.60216,0.0532 1.27429,0.26564 2.12744,1.11152 2.62118,2.59887 0.33849,1.01968 0.41814,2.35595 0.22762,3.81887 -0.35249,2.70655 -1.35015,4.68693 -2.68361,5.32704 -0.28964,0.13903 -0.46343,0.17474 -0.92694,0.19046 -0.35491,0.0121 -0.66628,-0.0124 -0.82402,-0.0647 z m 1.46435,-0.89127 c 0.74842,-0.34877 1.25925,-1.12714 1.75919,-2.68056 0.3965,-1.23203 0.51272,-2.0244 0.51031,-3.47954 -0.002,-1.38903 -0.0782,-1.83375 -0.44617,-2.61341 -0.35405,-0.75023 -1.08587,-1.32633 -1.77526,-1.39754 -0.31141,-0.0321 -0.36808,-0.0165 -0.67269,0.1863 -1.36473,0.90844 -2.31102,2.70851 -2.52713,4.80714 -0.0926,0.89914 -0.003,2.35599 0.19236,3.11952 0.26937,1.05405 0.87603,1.85503 1.61015,2.12592 0.35865,0.13234 0.98756,0.10072 1.34924,-0.0678 z m 2.56063,88.64561 c 7.93401,-0.44162 15.08905,-3.20713 20.95613,-8.09982 6.39994,-5.33706 10.78788,-12.34078 12.78939,-20.41351 0.40506,-1.63373 0.48417,-2.06334 1.08642,-5.8997 0.0931,-0.59314 0.25418,-1.41653 0.35791,-1.82973 0.10372,-0.4132 0.17574,-0.76416 0.16002,-0.77989 -0.036,-0.036 -1.35256,1.3898 -1.88142,2.03754 -0.21821,0.26727 -0.65813,0.87624 -0.97761,1.35327 -0.31948,0.47704 -0.63114,0.87703 -0.6926,0.88887 -0.0615,0.0118 -0.18164,-0.0243 -0.26709,-0.0803 -0.24578,-0.16117 -0.20314,-0.41445 0.17536,-1.04169 0.77365,-1.28205 1.90192,-2.60453 3.57955,-4.1957 0.71724,-0.68028 1.02275,-1.04089 2.14981,-2.53751 0.72255,-0.95949 1.57627,-2.12992 1.89713,-2.60094 5.80169,-8.51685 8.45475,-20.75352 7.75726,-35.77886 -0.2362,-5.08843 -0.83951,-9.75712 -1.90598,-14.74926 -3.0298,-14.18252 -9.5568,-27.50477 -18.5857,-37.935262 -5.36771,-6.20093 -10.87648,-10.666873 -17.28092,-14.009556 -3.51573,-1.834985 -7.02054,-2.920255 -10.71213,-3.317065 -1.19851,-0.12882 -3.79571,-0.14669 -4.97577,-0.0342 -4.97993,0.47461 -10.670676,2.030592 -14.556966,3.980222 -5.82751,2.923478 -10.65333,7.846658 -14.18857,14.474827 -2.39486,4.490084 -3.81332,9.117904 -4.3505,14.193804 -0.13322,1.25881 -0.1533,4.66031 -0.035,5.93142 0.57896,6.22187 2.77724,12.21124 5.91209,16.10796 2.00302,2.48981 4.26633,4.13611 6.80315,4.94852 0.54409,0.17425 1.41455,0.38992 1.54695,0.38329 0.0239,-10e-4 -0.49973,-0.27953 -1.16355,-0.61852 -2.65621,-1.35643 -4.51287,-2.91304 -6.2966,-5.27901 -4.57024,-6.06203 -5.93961,-14.09054 -4.03051,-23.63054 0.79903,-3.992827 1.87123,-7.17615 3.5576,-10.56238 3.87989,-7.790801 9.66161,-13.317934 17.041616,-16.291223 4.77134,-1.922296 9.57543,-2.524015 14.48254,-1.813945 2.9425,0.425784 5.79533,1.354392 8.87396,2.888517 1.83761,0.915705 2.71554,1.41978 4.34191,2.492951 5.6545,3.731199 11.00224,9.195528 16.45664,16.815437 5.38843,7.527743 9.38105,15.333573 12.15173,23.757403 2.22916,6.77742 3.48115,13.34567 3.88153,20.3635 0.0925,1.62125 0.0925,5.9113 -1e-5,7.51737 -0.61284,10.6402 -3.44184,20.21733 -8.61057,29.14962 -2.65574,4.58949 -7.08389,10.92112 -11.51306,16.46207 -2.76644,3.46087 -4.47325,5.42714 -6.27898,7.23351 -1.48311,1.48362 -2.55377,2.43696 -3.99625,3.55833 -6.56654,5.10476 -13.60956,7.19449 -21.36044,6.33784 -4.56022,-0.50401 -8.38497,-1.90628 -12.296556,-4.50833 -4.02336,-2.67638 -7.12099,-6.17445 -9.33764,-10.54473 -1.61403,-3.18216 -2.51128,-6.04218 -2.9004,-9.24507 -0.14771,-1.21572 -0.14788,-3.73224 -3.2e-4,-4.94201 0.46019,-3.77357 1.51905,-6.66839 3.34636,-9.14863 0.64854,-0.88028 2.16429,-2.39177 2.96549,-2.95715 1.15112,-0.81231 2.53268,-1.42891 3.83406,-1.71115 0.83663,-0.18145 2.71815,-0.22887 3.53718,-0.0891 1.54449,0.26348 2.590076,0.83529 3.669556,2.00678 0.28865,0.31323 0.54851,0.56953 0.57748,0.56953 0.0841,0 0.59517,-1.13404 0.71468,-1.58594 0.0653,-0.24727 0.10987,-0.65362 0.11111,-1.01501 0.002,-0.7258 -0.11781,-1.05103 -0.52437,-1.41757 -0.28504,-0.25699 -1.25141,-0.73897 -1.48326,-0.73979 -0.075,0 -0.76382,-0.1304 -1.530786,-0.2892 -1.00261,-0.20758 -1.61029,-0.2989 -2.16244,-0.32494 l -0.76795,-0.0362 0.0305,0.31803 c 0.0335,0.34869 -0.0624,0.7156 -0.25521,0.97705 -0.16338,0.22151 -0.5186,0.40571 -1.63053,0.84551 -1.86467,0.73754 -3.89791,1.89416 -5.26077,2.99261 -0.75828,0.61117 -1.88768,1.71753 -2.51539,2.46408 -1.10713,1.31675 -2.41564,3.48638 -3.08385,5.11334 -0.94227,2.29425 -1.53281,4.83767 -1.82486,7.85966 -0.11238,1.1627 -0.0947,4.11018 0.033,5.51908 0.43093,4.75263 1.54318,8.82103 3.49461,12.7827 1.67908,3.40874 3.61451,6.15861 6.05053,8.59664 2.35655,2.35848 4.82652,4.10833 7.9784,5.6523 5.368536,2.6298 11.088286,3.8053 16.932926,3.47998 z m -1.14094,-11.5395 c 4.41105,-0.59917 8.31896,-2.07531 11.97986,-4.52515 4.82801,-3.23087 9.08944,-7.7794 15.88271,-16.95275 6.81254,-9.1994 11.01329,-16.77688 13.39905,-24.16976 1.43241,-4.43865 2.38768,-9.09346 2.8186,-13.73426 0.22687,-2.44324 0.25671,-3.19572 0.25661,-6.47064 0,-3.83145 -0.10021,-5.56891 -0.5099,-8.84956 -1.35614,-10.85982 -5.26419,-21.93149 -11.29681,-32.00431 -3.59119,-5.996315 -8.19399,-11.983923 -12.61092,-16.405037 -7.00339,-7.010023 -13.96314,-10.876824 -21.40875,-11.894564 -1.20033,-0.164074 -3.98389,-0.232377 -5.2243,-0.128199 -6.75859,0.567642 -13.176836,3.663563 -18.356426,8.854471 -3.96402,3.972672 -6.9522,9.0973 -8.81889,15.124086 -1.35564,4.376793 -2.05561,9.444753 -1.85871,13.457383 0.31835,6.48749 2.38217,11.61353 6.30534,15.66099 1.91358,1.97421 3.83696,3.27021 5.84728,3.94001 1.41236,0.47057 2.85422,0.6649 3.81562,0.51426 0.95425,-0.14952 2.31266,-0.72877 3.31169,-1.41215 2.239056,-1.53162 3.666196,-4.25319 4.119106,-7.85526 0.11033,-0.87746 0.10928,-4.18861 -0.002,-5.01158 -0.12331,-0.9154 -0.14725,-0.96651 -0.51377,-1.09679 -0.36696,-0.13045 -0.63965,-0.34427 -0.82798,-0.64924 l -0.13473,-0.21817 -0.32833,0.16495 c -0.45741,0.22979 -1.707696,1.02774 -3.992486,2.54804 -3.14768,2.09445 -4.37539,2.61587 -6.19229,2.62989 -0.9731,0.008 -1.37888,-0.10962 -1.78385,-0.51492 -0.43707,-0.43744 -0.53109,-0.81279 -0.46267,-1.84706 0.11885,-1.79679 0.0601,-2.36159 -0.35892,-3.45281 -0.23008,-0.59908 -0.29506,-1.20908 -0.18724,-1.75758 0.0426,-0.2168 0.24901,-0.92485 0.45864,-1.57346 0.55981,-1.73204 0.56094,-2.00266 0.015,-3.60872 -0.48939,-1.43977 -0.41476,-2.11561 0.45416,-4.11279 0.53875,-1.23832 0.6621,-2.49633 0.3752,-3.82652 -0.13046,-0.60484 -0.13081,-1.632627 -7.3e-4,-2.122616 0.15693,-0.591102 0.5251,-1.232142 0.96014,-1.671735 1.25657,-1.269718 3.11583,-1.187471 4.37426,0.193505 0.37347,0.409832 0.9009,1.248318 1.92381,3.058326 1.34589,2.38152 1.47509,2.6014 1.8626,3.17019 0.43079,0.63228 1.372036,1.64834 1.920076,2.07267 0.19621,0.15192 0.65754,0.46503 1.02518,0.6958 l 0.66842,0.41958 0.24183,-0.17532 c 0.18925,-0.13721 0.3416,-0.18434 0.70065,-0.21674 0.70851,-0.0639 0.75847,-0.0813 1.37861,-0.47928 1.01639,-0.65225 1.98883,-0.97241 3.22784,-1.0627 l 0.6449,-0.047 0.15006,-0.37005 c 0.21091,-0.52009 0.43658,-0.83851 0.73377,-1.03535 0.14071,-0.0932 0.24262,-0.2039 0.22647,-0.24602 -0.0162,-0.0421 -0.39078,-1.35778 -0.8325,-2.92369 -0.44172,-1.565904 -1.18838,-4.203081 -1.65923,-5.860392 -0.47085,-1.657312 -0.91405,-3.270215 -0.98489,-3.584232 -0.17503,-0.77593 -0.18766,-2.061607 -0.0255,-2.59823 0.31669,-1.048063 0.89773,-1.676298 1.9095,-2.064581 0.29368,-0.112712 0.51747,-0.147381 0.98247,-0.152206 0.74227,-0.0077 1.10671,0.09797 1.83818,0.532974 1.23352,0.733574 2.06466,0.716903 3.38273,-0.06788 0.28352,-0.168802 0.78543,-0.396893 1.11537,-0.506885 0.98813,-0.329406 1.40695,-0.225798 2.22076,0.549338 0.84639,0.806171 1.17135,0.875927 2.50373,0.537447 0.41834,-0.106276 0.89093,-0.193602 1.0502,-0.194052 0.34803,-7.49e-4 0.8955,0.151883 1.19998,0.335056 0.33674,0.202579 1.03072,0.890875 1.62104,1.607793 0.8079,0.981124 1.32149,1.324856 2.78349,1.862865 0.86127,0.316938 1.28506,0.564525 1.73973,1.016384 0.62055,0.616681 0.89226,1.312186 0.89059,2.279583 -0.001,0.894029 -0.22673,1.660144 -0.75362,2.563928 -0.34916,0.598932 -0.76655,1.10969 -1.87265,2.291587 -0.45715,0.488467 -1.67319,1.787353 -2.70232,2.886413 -3.10993,3.32125 -3.86137,4.13426 -3.86137,4.17781 0,0.0229 0.1193,0.0789 0.26512,0.12443 0.54452,0.17009 0.88157,0.57816 1.00186,1.21296 0.0826,0.4357 -0.009,0.83369 -0.46479,2.01964 l -0.34779,0.90499 0.52258,0.43685 c 0.76235,0.63727 1.02149,0.97074 1.82749,2.35179 0.19345,0.33146 0.48767,0.78821 0.65384,1.015 0.36849,0.50296 1.14155,1.31366 1.36217,1.42851 0.0889,0.0463 0.42374,0.11342 0.74407,0.14922 0.63199,0.0706 1.0225,0.21333 1.3002,0.47516 0.0977,0.0921 0.1975,0.16501 0.22184,0.16205 0.0243,-0.003 0.30099,-0.29313 0.61475,-0.64482 2.31166,-2.59112 3.7046,-4.63742 4.95526,-7.27951 0.73738,-1.55775 0.99287,-2.03831 1.45027,-2.72782 0.75131,-1.13259 1.55924,-1.86066 2.40505,-2.16734 0.51363,-0.18623 1.5256,-0.2337 2.00552,-0.0941 0.97239,0.28292 1.40197,0.91202 1.6652,2.4386 0.19229,1.11517 0.56257,1.91879 1.49677,3.24844 0.96232,1.36969 1.23832,1.86323 5.21489,9.32534 1.79658,3.37132 1.91894,3.67231 1.87027,4.60032 -0.0392,0.7469 -0.33272,1.33533 -0.99863,2.00178 -0.77875,0.77941 -1.61829,1.13453 -3.02427,1.27926 -0.92967,0.0957 -2.0069,-0.0206 -4.23646,-0.45752 -1.88277,-0.36894 -3.19282,-0.5937 -4.15176,-0.71229 -0.87992,-0.10883 -4.75823,-0.10896 -5.83146,-1.9e-4 -1.2161,0.12323 -1.14093,0.0914 -1.14093,0.48258 0,0.42692 -0.14136,0.83794 -0.39344,1.14401 -0.22163,0.2691 -0.73979,0.54158 -1.03274,0.54308 -0.59224,0.003 -1.00291,0.30381 -1.32975,0.97393 -0.31671,0.64933 -0.41593,1.09923 -0.45681,2.07134 -0.12624,3.0019 0.9137,5.72819 2.92798,7.67597 0.19846,0.19189 0.42519,0.44889 0.50384,0.5711 0.12133,0.18849 0.2086,0.23968 0.57537,0.33749 0.49749,0.13267 0.85106,0.30019 1.17962,0.55891 0.12703,0.10003 0.29982,0.18187 0.38398,0.18187 0.0842,0 0.67905,-0.14133 1.32197,-0.31407 4.07973,-1.0961 7.92141,-2.6608 11.53202,-4.69691 1.75083,-0.98734 2.4794,-1.28629 3.3282,-1.3656 1.12244,-0.10487 2.14162,0.39521 2.56672,1.25942 0.21379,0.43464 0.28094,0.78012 0.37807,1.94528 0.10652,1.27774 0.32789,1.97648 0.99484,3.14017 0.67809,1.18312 0.80624,2.11964 0.51647,3.77453 -0.19402,1.10801 -0.20432,3.01565 -0.0205,3.80626 0.0887,0.3816 0.12491,0.76177 0.12386,1.30048 -0.002,0.90925 -0.13265,1.44598 -0.57714,2.36668 -0.48418,1.00289 -0.70748,1.92551 -0.80903,3.34271 -0.0952,1.32838 -0.19515,1.71773 -0.56649,2.20651 -0.21761,0.28642 -0.7525,0.64299 -1.11631,0.74415 -0.36127,0.10045 -1.13482,0.071 -1.70045,-0.0647 -0.80022,-0.192 -1.45392,-0.48026 -6.22361,-2.74443 -8.45274,-4.01253 -9.05461,-4.29672 -9.09966,-4.29672 -0.0249,0 -0.17178,0.11663 -0.3263,0.25917 -0.15451,0.14255 -0.47146,0.349 -0.70433,0.45878 -0.39006,0.1839 -0.47576,0.1997 -1.08893,0.20075 -1.38889,0.002 -2.24055,-0.46592 -4.3736,-2.40499 -0.69711,-0.63371 -0.7543,-0.66062 -1.03507,-0.48695 -0.9222,0.57043 -1.2909,1.72849 -1.43612,4.51075 -0.1076,2.06151 -0.32778,3.26937 -0.85573,4.69439 -0.59776,1.6134 -0.75362,3.28479 -0.44664,4.78954 0.17538,0.85971 0.20394,0.91985 0.43671,0.91985 0.1116,0 1.21467,-0.14576 2.45128,-0.3239 3.85654,-0.55558 5.01183,-0.49878 6.05437,0.29767 0.32343,0.24709 0.55638,0.35435 0.67796,0.31219 0.21414,-0.0743 3.57846,-0.56123 4.82018,-0.69773 3.3856,-0.37214 8.86247,-0.64078 9.82673,-0.48201 1.28418,0.21147 1.98455,0.96127 2.29275,2.45455 0.0912,0.44184 0.0953,0.7096 0.0354,2.30836 -0.0788,2.1033 -0.14195,2.7883 -0.35555,3.85546 -0.26083,1.30315 -0.76077,2.6935 -1.32882,3.69545 -0.79423,1.40088 -0.93674,1.8522 -1.11138,3.51953 -0.1978,1.88856 -0.51239,2.77638 -1.24298,3.50791 -0.81086,0.81189 -1.92374,0.96642 -3.25619,0.45215 -1.29995,-0.50173 -6.54835,-4.16112 -10.5384,-7.34779 -0.7251,-0.5791 -1.34171,-1.05291 -1.37025,-1.05291 -0.0285,0 -0.15889,0.14274 -0.28968,0.3172 -0.42071,0.56119 -0.81756,0.80189 -1.32965,0.8065 -0.61376,0.005 -1.09001,-0.23984 -1.93553,-0.99716 l -0.4754,-0.42579 -0.50708,0.0411 c -1.79836,0.14558 -3.26345,1.26226 -3.86025,2.94223 -0.0906,0.25504 -0.16473,0.49067 -0.16473,0.52362 0,0.033 0.23273,0.30959 0.51717,0.61474 1.40055,1.50251 2.03092,2.7761 1.83246,3.70225 -0.0793,0.36989 -0.24349,0.66668 -0.56822,1.02686 -0.18496,0.20516 -0.20405,0.25348 -0.12786,0.32374 0.0493,0.0454 1.44442,1.11958 3.10036,2.38701 4.2246,3.23344 4.90686,3.77868 5.48398,4.38257 0.79517,0.83205 1.29928,1.66123 1.51894,2.49836 0.14397,0.5487 0.13188,1.4256 -0.0267,1.93943 -0.24235,0.78512 -0.53994,1.14133 -2.11058,2.52627 -0.67251,0.593 -1.08035,1.02322 -1.7383,1.83373 -0.66904,0.82415 -1.11912,1.11892 -2.35926,1.54511 -1.11879,0.38449 -1.66858,0.72289 -2.85978,1.76018 -1.29691,1.12935 -1.96745,1.53723 -2.73342,1.66272 -0.5086,0.0833 -0.83721,0.0417 -1.83654,-0.23231 -0.91324,-0.25046 -1.41068,-0.27807 -1.80227,-0.10004 -0.14512,0.066 -0.51366,0.38135 -0.85292,0.72987 -0.72033,0.74 -1.06371,0.93333 -1.7342,0.97639 -1.52118,0.0977 -2.88401,-0.95448 -3.309,-2.55475 -0.14099,-0.53087 -0.18616,-1.60124 -0.0964,-2.28376 0.0413,-0.31402 0.20051,-1.14188 0.35381,-1.83969 0.57107,-2.59957 0.85828,-4.72921 0.94964,-7.04158 0.0898,-2.27263 0.28267,-4.29368 0.51025,-5.3472 0.0857,-0.39669 0.15582,-0.75791 0.15582,-0.80272 0,-0.0448 -0.12755,-0.13021 -0.28344,-0.18979 -0.46458,-0.17758 -0.68995,-0.51344 -0.8008,-1.19344 -0.0677,-0.41572 0.005,-0.76465 0.45267,-2.16491 0.15515,-0.48552 0.24619,-0.87589 0.22446,-0.96252 -0.0219,-0.0876 -0.18205,-0.23708 -0.40104,-0.37454 -0.71722,-0.45021 -1.57517,-0.59103 -2.30209,-0.37787 -0.34708,0.1018 -1.73621,0.80731 -1.80323,0.91582 -0.0605,0.0979 -0.71013,3.07098 -0.91451,4.18511 -0.20568,1.12127 -0.81974,4.95348 -1.14355,7.13674 -0.37158,2.50526 -0.65254,3.62143 -1.18165,4.69439 -0.7852,1.59229 -2.25986,2.63266 -3.7316,2.63266 -0.95644,0 -1.53667,-0.27358 -2.496006,-1.17692 -0.7293,-0.68673 -0.81231,-0.74656 -1.62205,-1.16922 -0.98659,-0.51498 -1.28132,-0.81648 -1.49888,-1.53335 -0.24301,-0.80073 -0.68628,-1.2668 -1.40915,-1.48165 -0.62578,-0.18599 -1.06759,-0.54544 -1.24526,-1.01314 -0.0394,-0.10371 -0.11289,-0.38905 -0.16332,-0.6341 -0.11047,-0.53675 -0.44029,-1.23345 -0.76138,-1.60837 -0.1294,-0.15108 -0.45883,-0.43147 -0.73206,-0.62309 -0.86421,-0.60606 -0.94322,-0.77459 -1.00679,-2.14721 -0.055,-1.18763 -0.10557,-1.35594 -0.67744,-2.25455 -0.47288,-0.74308 -0.58958,-1.07317 -0.58861,-1.66494 0.001,-0.8222 0.28265,-1.52908 0.84551,-2.12471 0.32945,-0.34862 1.16376,-1.03565 1.68915,-1.39096 0.40667,-0.27501 2.90452,-1.77995 5.92655,-3.5707 1.42934,-0.84698 2.639716,-1.57813 2.689716,-1.62478 0.078,-0.0728 0.0568,-0.11793 -0.14943,-0.31843 -0.29271,-0.2845 -0.47971,-0.58093 -0.48003,-0.76093 -1.2e-4,-0.0836 0.32199,-0.49088 0.85297,-1.07844 0.94271,-1.04317 0.97178,-1.10713 0.69158,-1.52206 -0.50377,-0.746 -1.0887,-1.25313 -1.938926,-1.68102 -1.94699,-0.97985 -4.76732,-0.86966 -7.05365,0.27561 -4.68497,2.34676 -7.73153,8.52198 -7.4883,15.1784 0.21118,5.77926 2.51997,11.60742 6.38451,16.11667 2.44836,2.85679 5.42271,5.16646 8.773436,6.81279 2.96041,1.45456 6.10028,2.35613 9.39321,2.69713 1.32929,0.13765 4.67714,0.088 5.97776,-0.0887 z m -0.0199,-6.9867 c 0.19262,-0.0924 0.52722,-0.37473 0.90732,-0.76548 0.97817,-1.0056 1.27692,-1.07862 2.97702,-0.72758 1.26477,0.26116 1.66295,0.27961 2.22976,0.10332 0.49734,-0.15468 0.76864,-0.33924 2.05085,-1.39512 1.30346,-1.07337 1.80813,-1.40356 2.62865,-1.71984 1.15482,-0.44514 1.51738,-0.71718 2.93218,-2.20016 0.33922,-0.35556 1.01472,-0.97611 1.5011,-1.37901 1.03589,-0.85805 1.40385,-1.30664 1.59889,-1.9493 0.41396,-1.36399 -0.31727,-2.7898 -2.33972,-4.56212 -1.62545,-1.42444 -4.62358,-3.75281 -7.12684,-5.53475 -0.84554,-0.60189 -0.88495,-0.62193 -1.45251,-0.73831 -0.41042,-0.0841 -0.74473,-0.20509 -1.12752,-0.40787 -1.69946,-0.9003 -1.97029,-1.01535 -2.44679,-1.03943 -0.80672,-0.0408 -1.17699,0.27119 -1.86877,1.57451 -0.47466,0.89429 -0.70144,1.18371 -1.13818,1.45265 -0.28772,0.1772 -0.32367,0.22747 -0.44593,0.6236 -0.37882,1.22746 -0.59668,2.96806 -0.66533,5.31556 -0.0722,2.46868 -0.25762,4.12207 -0.70796,6.31205 -0.15425,0.75015 -0.39405,1.93378 -0.53288,2.63028 l -0.25243,1.26636 0.12885,0.75923 c 0.072,0.42435 0.19925,0.91314 0.28844,1.10813 0.55152,1.20568 1.82344,1.77159 2.8618,1.27328 z m -12.84019,-5.62915 c 0.91521,-0.43883 1.91709,-1.63592 2.31587,-2.76709 0.22738,-0.64501 0.55445,-2.41633 1.19566,-6.47559 0.55625,-3.52131 0.78869,-4.83213 1.16926,-6.5938 0.2106,-0.9749 0.38291,-1.85532 0.38291,-1.95649 0,-0.11912 -0.0795,-0.27692 -0.22567,-0.44778 -0.38786,-0.45347 -0.57891,-0.9465 -0.87655,-2.26212 -0.15392,-0.68037 -0.33973,-1.3958 -0.41292,-1.58984 -0.25196,-0.66811 -0.75148,-1.01468 -1.52737,-1.05972 -0.63559,-0.0369 -2.74851,0.2655 -2.97657,0.426 -0.0885,0.0623 -2.072076,1.27831 -4.407826,2.7022 -6.49543,3.95963 -6.38487,3.88222 -6.83722,4.78715 -0.40971,0.81966 -0.36937,1.32573 0.15787,1.98023 0.61084,0.75826 0.81369,1.36354 0.81526,2.43257 0.001,1.02069 0.23643,1.55915 0.89016,2.04026 0.9029,0.66445 1.05106,0.87938 1.39959,2.0303 0.36902,1.21859 0.53367,1.40449 1.5087,1.7034 0.47239,0.14481 0.57461,0.20493 0.89686,0.52746 0.3175,0.31776 0.38465,0.43031 0.52845,0.88591 0.0906,0.28706 0.20514,0.59909 0.25451,0.69341 0.1316,0.25142 0.45771,0.53522 0.92459,0.80462 0.63671,0.36739 1.38763,0.93506 1.80649,1.36564 0.758896,0.78011 1.284326,1.03028 2.091716,0.99586 0.41081,-0.0175 0.58666,-0.0598 0.92623,-0.22258 z m 41.29872,-16.50207 c 0.14508,-0.0659 0.37942,-0.23561 0.52076,-0.37707 0.57293,-0.5734 0.77765,-1.28276 1.02749,-3.56029 0.13485,-1.22937 0.46277,-2.24761 1.01418,-3.14925 1.16021,-1.89712 1.66232,-4.09929 1.75035,-7.67681 0.0491,-1.99622 -0.0443,-2.49302 -0.57426,-3.05649 -0.50486,-0.5367 -0.96525,-0.61311 -3.36845,-0.55906 -4.75057,0.10683 -8.8947,0.50697 -11.91646,1.15058 -0.11574,0.0246 -0.12677,0.0783 -0.12677,0.61657 0,0.5417 -0.0159,0.61792 -0.19621,0.93849 -0.21308,0.37889 -0.91637,1.03253 -1.74134,1.61837 -0.56754,0.40302 -0.96573,0.81797 -1.10623,1.15275 -0.15376,0.36635 -0.12432,0.96684 0.0865,1.76467 0.10141,0.3838 0.27153,1.02764 0.37804,1.43074 0.10652,0.40311 0.23013,0.81304 0.2747,0.91096 0.12745,0.27993 3.48228,2.92921 6.04429,4.77312 3.05791,2.20082 5.14011,3.5175 6.26535,3.96189 0.56707,0.22396 1.25395,0.24901 1.66807,0.0608 z m -30.38004,-2.27212 c 0.0177,-0.0611 0.0667,-0.48796 0.10912,-0.94866 0.0883,-0.96037 0.0262,-1.54131 -0.22338,-2.0881 -0.51288,-1.12367 -1.81671,-1.57534 -2.68488,-0.93006 -0.47307,0.3516 -0.63966,0.8299 -0.80502,2.31127 -0.052,0.46569 -0.0948,0.92038 -0.0951,1.01042 l -6.4e-4,0.1637 0.39616,-0.0831 c 1.03221,-0.21648 2.28572,0.0235 2.99497,0.57321 0.16764,0.12996 0.26953,0.12709 0.30876,-0.009 z m 7.79618,-4.35194 c 0.85355,-1.19424 1.91775,-1.81865 3.70353,-2.17301 l 0.14556,-0.0288 -0.12353,-0.17252 c -0.29718,-0.415 -0.98918,-1.17622 -1.22412,-1.34655 -0.66991,-0.48568 -1.54881,-0.57525 -2.29403,-0.2338 -0.73183,0.33532 -1.43136,1.28071 -1.61904,2.18808 -0.20128,0.97312 0.0259,2.10194 0.58166,2.89016 l 0.12784,0.18132 0.21168,-0.45738 c 0.11642,-0.25155 0.33712,-0.6329 0.49045,-0.84742 z M 73.756464,166.1898 c 0.69727,-0.62743 1.38919,-1.95439 2.08198,-3.99285 0.29402,-0.86511 0.43407,-1.8032 0.28316,-1.89656 -0.1213,-0.075 -0.42652,0.13303 -0.79819,0.54407 -0.47587,0.52629 -1.13143,1.82288 -1.55038,3.0664 -0.29788,0.88415 -0.38184,1.2665 -0.48382,2.20337 -0.0502,0.46121 0.0251,0.47339 0.46725,0.0756 z m -1.10899,-0.26588 c 0.018,-0.096 0.0511,-0.34575 0.0735,-0.55509 0.13133,-1.2278 0.60705,-2.86338 1.12318,-3.86162 0.27288,-0.52778 0.4313,-0.74161 0.88749,-1.19797 0.30543,-0.30554 0.55532,-0.57742 0.55532,-0.6042 0,-0.0267 -0.2781,-0.18669 -0.61801,-0.35535 -0.33991,-0.16867 -0.7321,-0.38337 -0.87155,-0.47712 -0.34627,-0.23277 -0.98113,-0.47932 -1.82665,-0.70937 -0.38982,-0.10605 -1.2935,-0.4356 -2.00817,-0.73233 -0.71467,-0.29672 -1.52759,-0.59494 -1.80649,-0.66271 -2.22248,-0.5401 -2.27786,-0.56019 -2.35124,-0.85281 -0.0243,-0.097 -0.001,-0.21653 0.0589,-0.3089 0.0965,-0.14744 0.12561,-0.15162 1.36899,-0.19718 1.4467,-0.053 3.23087,7e-4 4.34613,0.13086 0.41834,0.0488 1.43092,0.11885 2.25018,0.15564 0.81925,0.0368 2.25688,0.11004 3.19473,0.1628 0.93784,0.0528 1.72852,0.0725 1.75705,0.044 0.0285,-0.0285 0.009,-0.20837 -0.0425,-0.39956 -0.42457,-1.56432 -0.45185,-3.67631 -0.0647,-5.00835 0.0859,-0.29551 0.14877,-0.54467 0.13975,-0.55371 -0.009,-0.009 -0.1858,0.0119 -0.39282,0.0464 -0.76562,0.12796 -3.29094,0.38455 -4.94017,0.50195 -0.52293,0.0372 -2.0904,0.0674 -3.48325,0.0672 -1.39287,0 -4.25948,0.0453 -6.37024,0.10116 -2.11078,0.0559 -4.29415,0.0867 -4.85194,0.0685 -0.55779,-0.0182 -1.25661,-0.009 -1.55294,0.0196 -0.56917,0.0557 -1.66818,0.19932 -1.69639,0.2217 -0.009,0.007 0.0566,0.20809 0.14619,0.44626 0.46396,1.23365 0.60486,2.88717 0.48284,5.66658 -0.10139,2.30989 -0.29145,3.4502 -0.73913,4.43467 l -0.15145,0.33305 h 1.31174 c 0.85028,0 1.51243,0.033 1.88221,0.0933 0.31376,0.0512 1.18373,0.13792 1.93326,0.19275 0.74954,0.0548 1.7336,0.16977 2.1868,0.25544 1.33531,0.2524 4.09945,0.9994 5.673,1.5331 0.72726,0.24667 2.29084,0.95972 2.69388,1.22852 0.13945,0.093 0.48173,0.28386 0.76062,0.4241 0.27891,0.14026 0.56143,0.31528 0.62784,0.38894 0.16444,0.18239 0.27476,0.16815 0.31396,-0.0405 z m 49.379656,-2.66954 c 0.0179,-0.029 -0.0293,-0.33588 -0.10482,-0.68196 -0.11659,-0.53407 -0.13736,-0.83067 -0.13731,-1.96142 6e-5,-1.57806 0.0755,-2.01404 0.62958,-3.63788 0.58861,-1.7251 0.66767,-2.17604 0.82479,-4.70416 0.16139,-2.59692 0.31324,-3.1266 1.22883,-4.28609 0.24621,-0.3118 0.44808,-0.58289 0.44861,-0.60244 0.002,-0.0709 -1.30952,-1.22688 -1.74213,-1.53564 -0.54958,-0.39224 -1.30154,-0.75419 -1.96611,-0.94634 -0.44809,-0.12957 -0.63997,-0.14613 -1.67856,-0.14488 -1.3293,0.001 -1.97861,0.0943 -3.16927,0.45261 -3.16958,0.95376 -5.83,3.57213 -6.56137,6.45768 -0.22999,0.90737 -0.31021,1.83629 -0.22865,2.6474 0.29961,2.97927 1.58756,5.09743 4.12783,6.78855 2.00173,1.3326 4.19242,1.98468 7.19425,2.14142 0.48807,0.0255 0.93562,0.0507 0.99458,0.0561 0.0589,0.005 0.12184,-0.0139 0.13975,-0.0429 z m -67.641226,-1.67595 c 0.6834,-0.72709 0.99869,-2.66077 0.9975,-6.11776 -7e-4,-2.01911 -0.11234,-2.89501 -0.49005,-3.84439 -0.0976,-0.24529 -0.34413,-0.42577 -0.58163,-0.42577 -0.36503,0 -0.90004,0.84436 -1.14677,1.80982 -0.49794,1.94856 -0.42218,6.57049 0.13201,8.0529 0.28004,0.7491 0.69182,0.94771 1.08894,0.5252 z m 20.17071,-4.29067 c 0.22951,-0.36238 0.40828,-0.6679 0.39727,-0.67891 -0.011,-0.011 -0.40407,-0.0372 -0.87348,-0.0583 -0.46941,-0.0211 -1.59794,-0.10961 -2.50784,-0.19682 -0.90991,-0.0872 -1.82266,-0.14987 -2.02834,-0.13925 l -0.37396,0.0193 0.31693,0.12108 c 0.1743,0.0666 0.6739,0.27193 1.1102,0.45631 0.43631,0.18439 1.11094,0.424 1.49918,0.53247 0.38824,0.10847 0.98681,0.30503 1.33013,0.4368 0.34333,0.13176 0.64413,0.22305 0.66843,0.20287 0.0243,-0.0202 0.23198,-0.3332 0.46148,-0.69558 z m 75.387256,-0.80467 c 0.62721,-0.26222 0.82996,-0.71575 0.90431,-2.02286 0.0299,-0.52484 0.0726,-1.09697 0.0951,-1.27143 0.0693,-0.53888 0.32906,-1.3376 0.6556,-2.01572 0.63054,-1.3094 0.75857,-2.26303 0.50445,-3.75747 -0.12009,-0.7063 -0.15068,-1.1147 -0.14962,-1.99793 7.5e-4,-0.6846 0.0309,-1.20954 0.0786,-1.36941 0.11617,-0.39003 0.3207,-1.82437 0.28982,-2.03244 -0.14154,-0.95364 -0.26477,-1.29839 -0.70942,-1.98459 -0.58261,-0.8991 -0.78747,-1.52097 -0.89296,-2.71067 -0.0907,-1.02244 -0.22795,-1.74467 -0.39521,-2.07925 -0.52882,-1.05775 -1.68034,-1.27267 -3.1267,-0.58357 -0.24403,0.11628 -0.90007,0.47417 -1.45787,0.79531 -0.55779,0.32115 -1.5989,0.87844 -2.31356,1.23842 -2.88038,1.45085 -4.46886,2.05782 -8.7472,3.34239 -1.33154,0.39979 -2.17422,0.68459 -2.25963,0.76369 -0.0749,0.0694 -0.21469,0.30229 -0.31058,0.51758 -0.0959,0.21529 -0.3386,0.64024 -0.53935,0.94433 -0.47601,0.72105 -0.59978,1.08368 -0.59075,1.73086 0.009,0.62702 0.0646,0.78034 1.03955,2.8547 0.40998,0.87227 0.82434,1.80948 0.9208,2.0827 0.10467,0.29646 0.22885,0.53085 0.30797,0.5813 0.0729,0.0465 2.72822,1.31118 5.90067,2.81039 3.17243,1.49922 6.31002,2.98199 6.9724,3.29507 0.66238,0.31307 1.38972,0.63366 1.61633,0.71242 0.90693,0.31521 1.69375,0.37088 2.20732,0.15618 z m -69.974996,-0.68296 c 0.11041,-0.13314 0.25651,-0.59291 0.32523,-1.02351 0.0984,-0.61675 0.0805,-3.85725 -0.0239,-4.31564 -0.12907,-0.56681 -0.20797,-0.72953 -0.35367,-0.72953 -0.15947,0 -0.44894,0.5506 -0.63937,1.21619 -0.26013,0.90916 -0.22109,3.62437 0.0629,4.37229 0.1943,0.51175 0.44432,0.70268 0.62882,0.4802 z m -27.9688,-0.78847 c 0.0389,-0.0256 0.10652,-0.38917 0.15034,-0.80786 0.10748,-1.02698 0.32375,-1.84952 0.66985,-2.54762 0.54814,-1.10567 1.09076,-1.39877 2.92952,-1.58246 0.51345,-0.0513 1.20451,-0.12197 1.53571,-0.15707 0.33984,-0.036 1.05776,-0.0456 1.64802,-0.0221 0.57522,0.0229 2.11549,0.008 3.42281,-0.032 1.30733,-0.0405 4.33081,-0.10261 6.71886,-0.13791 2.38804,-0.0353 4.74123,-0.0875 5.2293,-0.11593 1.06886,-0.0623 3.03342,-0.29141 4.95956,-0.57826 l 0.90288,-0.13447 0.22221,0.13745 c 0.12222,0.0756 0.2222,0.16146 0.2222,0.19082 0,0.10648 0.40291,0.4531 0.7044,0.606 0.51535,0.26136 1.70648,0.47081 1.82052,0.32011 0.0291,-0.0385 0.0859,-0.36273 0.12618,-0.72053 0.0403,-0.35779 0.14825,-0.87776 0.23996,-1.15547 0.0917,-0.27771 0.15253,-0.54203 0.13514,-0.58737 -0.0174,-0.0453 -0.25374,-0.14784 -0.52523,-0.22778 -0.2715,-0.0799 -0.6244,-0.22201 -0.78421,-0.31572 -0.37629,-0.22062 -1.07512,-0.9099 -1.32817,-1.31 -0.24892,-0.39358 -0.2545,-0.62318 -0.0208,-0.85704 0.52572,-0.52616 2.4953,-0.1727 5.32655,0.95589 1.30409,0.51984 4.14017,1.21306 5.01784,1.2265 l 0.22184,0.004 0.0398,-0.44584 c 0.0571,-0.63883 0.27705,-1.3847 0.56797,-1.92579 0.13854,-0.25767 0.24386,-0.47638 0.23405,-0.48603 -0.015,-0.0147 -0.52078,-0.0696 -1.74931,-0.18975 -0.95053,-0.093 -3.15456,-0.62557 -4.0683,-0.98309 -1.17452,-0.45955 -1.52125,-0.70455 -1.52125,-1.0749 0,-0.26635 0.70862,-0.56804 2.82065,-1.20088 1.53119,-0.45879 2.79386,-0.87243 5.10253,-1.67152 1.75684,-0.60809 4.83434,-1.57568 5.83146,-1.83345 0.29633,-0.0766 0.54571,-0.14352 0.55418,-0.14872 0.008,-0.005 -0.0377,-0.12145 -0.10261,-0.25834 -0.0649,-0.1369 -0.15663,-0.40592 -0.20381,-0.59782 -0.0975,-0.39667 -0.11918,-1.8672 -0.0331,-2.24486 l 0.0562,-0.24658 -0.24638,0.044 c -0.80078,0.14298 -2.70197,0.90202 -5.09537,2.03432 -0.71467,0.33811 -1.37071,0.63698 -1.45786,0.66417 -0.0872,0.0272 -0.82877,0.33541 -1.64803,0.68493 -2.1278,0.90777 -2.98382,1.21141 -6.46532,2.29334 -1.66352,0.51697 -1.97664,0.60676 -4.3419,1.24519 -1.77887,0.48015 -2.76228,0.69205 -5.41945,1.16772 -1.71202,0.30648 -3.01951,0.46527 -5.261,0.6389 -0.92384,0.0716 -2.0061,0.17197 -2.40501,0.22313 -3.05051,0.39122 -12.00034,0.5311 -15.45118,0.24149 l -0.45688,-0.0384 0.22667,0.62703 c 0.12467,0.34485 0.30731,0.85539 0.40587,1.13452 0.30443,0.86212 0.4659,2.185 0.46074,3.77454 -0.005,1.46547 -0.1019,2.83512 -0.24629,3.47285 -0.13439,0.59347 -0.59372,1.97531 -0.76453,2.29998 -0.0826,0.15701 -0.22538,0.37825 -0.31727,0.49165 l -0.16709,0.20616 0.75291,-7.4e-4 c 0.4141,-6.3e-4 0.78471,-0.0219 0.82357,-0.0476 z m -2.39693,-0.35724 c 0.41102,-0.21276 0.68234,-0.73119 1.09107,-2.08484 0.27815,-0.9212 0.37861,-1.7607 0.41935,-3.50423 0.033,-1.41292 0.024,-1.59784 -0.12444,-2.56923 -0.15888,-1.03934 -0.50497,-2.20949 -0.85878,-2.90358 -0.12354,-0.24237 -0.61543,-0.71236 -0.74553,-0.71236 -0.0744,0 -0.52716,0.47165 -0.71051,0.74016 -0.42176,0.61766 -0.85608,2.25674 -1.02582,3.87142 -0.0969,0.92154 -0.0744,2.99636 0.0403,3.71822 0.21681,1.36487 0.86477,2.89711 1.42445,3.36844 0.22592,0.19025 0.25925,0.19542 0.48996,0.076 z m 34.93472,-4.4121 c 0.26423,-0.26444 0.46863,-0.88425 0.54699,-1.65859 0.0502,-0.49676 -0.0794,-0.8588 -0.33014,-0.92178 -0.20159,-0.0506 -0.33021,0.0654 -0.50068,0.45183 -0.33873,0.76775 -0.45484,1.89002 -0.21988,2.12516 0.16035,0.16049 0.34549,0.16173 0.50371,0.003 z m 8.19685,-3.22309 c 0.38046,-0.39745 0.85074,-1.79927 0.7959,-2.37243 -0.0187,-0.1959 -0.0365,-0.21166 -0.22809,-0.20286 -0.11426,0.005 -0.25207,0.0464 -0.30625,0.0914 -0.14865,0.12348 -0.43737,0.73145 -0.58798,1.23813 -0.12903,0.43409 -0.18564,1.28427 -0.0918,1.37821 0.0889,0.089 0.25735,0.0356 0.41819,-0.13241 z m -8.43158,-0.53605 0.31827,-0.26668 -0.25848,-0.10987 c -0.62258,-0.26464 -2.54726,-0.65608 -2.54726,-0.51807 0,0.0712 0.46085,0.51365 0.78431,0.75294 0.23424,0.1733 0.91682,0.39694 1.23523,0.40472 0.087,0.002 0.28302,-0.1081 0.46793,-0.26304 z m 4.99388,-4.26191 c 0.39989,-0.36239 0.92666,-0.86267 1.17062,-1.11172 l 0.44355,-0.45282 -0.44355,0.15355 c -0.24396,0.0844 -0.70026,0.25272 -1.01402,0.37394 -0.94271,0.3642 -2.96931,0.9347 -3.32037,0.9347 -0.24983,0 2.07566,0.74332 2.37145,0.75801 0.0359,0.002 0.39243,-0.29326 0.79232,-0.65566 z m 8.23824,-3.44204 c 0.54036,-0.25629 0.95225,-0.46612 0.91529,-0.46628 -0.0639,0 -1.20736,0.34456 -2.94866,0.88923 l -0.79737,0.24941 -0.10588,0.38115 c -0.0582,0.20962 -0.10588,0.39601 -0.10588,0.41419 0,0.0182 0.4635,-0.19977 1.03001,-0.48432 0.56651,-0.28456 1.47214,-0.72708 2.01249,-0.98338 z m 31.117216,-0.39883 c -1.44201,-1.61192 -2.32023,-3.49832 -2.6299,-5.64894 -0.15117,-1.04986 -0.10031,-3.00741 0.0955,-3.67731 0.13886,-0.47496 0.47869,-1.21311 0.70481,-1.53092 0.12129,-0.17048 0.12124,-0.17102 -0.0202,-0.21429 -0.078,-0.0238 -0.48411,-0.0584 -0.90245,-0.0769 -1.63743,-0.0721 -3.08124,0.47584 -4.18804,1.58963 -0.73581,0.74046 -1.17038,1.46303 -1.46143,2.4299 -0.14517,0.48225 -0.16856,0.67597 -0.17087,1.41514 -0.004,1.24208 0.27448,2.22166 0.90178,3.17345 1.04085,1.57924 2.73189,2.48676 5.25811,2.82187 0.38262,0.0507 2.75382,0.2041 2.7893,0.18039 0.0127,-0.008 -0.15686,-0.21635 -0.37663,-0.46202 z m -26.54591,-1.84542 c 1.70583,-1.01372 3.09852,-2.38756 4.08251,-4.02728 1.35988,-2.26609 2.25716,-5.84084 2.35652,-9.38837 0.0833,-2.97375 -0.55124,-5.08812 -1.73538,-5.78264 -0.47028,-0.27583 -0.96933,-0.274 -1.85604,0.007 -0.39936,0.12648 -0.73383,0.23768 -0.74324,0.2471 -0.009,0.009 0.0379,0.51503 0.10511,1.12356 0.30127,2.72672 0.31907,4.44156 0.064,6.16604 -0.49771,3.36467 -2.19917,6.16822 -4.695286,7.73663 l -0.53636,0.33701 0.47699,0.002 c 0.706076,0.004 0.992996,0.19299 1.296666,0.85683 0.37744,0.82512 0.33759,2.54409 -0.0783,3.37818 -0.0368,0.0739 0.52947,-0.22034 1.26285,-0.65617 z m -1.83826,-0.0145 c 0.13734,-0.32837 0.11839,-1.83061 -0.0284,-2.25203 -0.0638,-0.18318 -0.15342,-0.33305 -0.19912,-0.33305 -0.332706,0 -0.395986,1.86117 -0.089,2.61681 0.0943,0.23207 0.21107,0.22036 0.31651,-0.0317 z m -4.333136,-2.49066 c 0.25297,-0.098 0.44718,-0.19098 0.43158,-0.2066 -0.0156,-0.0156 -0.29387,0.0166 -0.61839,0.0716 -0.32453,0.055 -0.82537,0.11923 -1.11298,0.14285 -0.28762,0.0236 -0.52293,0.0623 -0.52293,0.0859 0,0.0237 0.0445,0.17381 0.099,0.33365 l 0.0989,0.29063 0.58245,-0.26988 c 0.32034,-0.14844 0.78942,-0.35009 1.04238,-0.4481 z m 49.297656,-8.37592 c 0.74729,-0.0647 1.3703,-0.21819 1.91122,-0.47105 1.41191,-0.66005 1.74231,-1.68009 1.0922,-3.37196 -0.10222,-0.26603 -0.43027,-0.90833 -0.72899,-1.42735 -0.29873,-0.51901 -0.66517,-1.15776 -0.81431,-1.41944 -0.14915,-0.26168 -0.87713,-1.63194 -1.61774,-3.04501 -1.90984,-3.64392 -2.68704,-4.98352 -3.86455,-6.66096 -0.86195,-1.22788 -1.00092,-1.5617 -1.20167,-2.88641 -0.0687,-0.45358 -0.16932,-0.93067 -0.22355,-1.06022 -0.13498,-0.32253 -0.44904,-0.66637 -0.74817,-0.81909 -0.52985,-0.27054 -1.55333,-0.20045 -2.13444,0.14616 -0.80483,0.48005 -1.73999,1.80679 -2.63615,3.74003 -1.53902,3.32004 -3.60588,6.22779 -6.47722,9.11246 -0.73367,0.73709 -0.90978,0.949 -0.94507,1.13733 -0.0713,0.38042 0.0236,2.73308 0.12988,3.21657 0.13418,0.61093 0.41681,1.18145 0.7759,1.56628 0.16785,0.17989 0.622,0.53749 1.0092,0.79466 0.81193,0.53928 0.70441,0.52158 2.18003,0.35878 1.38359,-0.15265 4.77591,-0.15134 6.1484,0.002 1.46077,0.16361 2.64367,0.34209 3.70805,0.55951 1.80067,0.36782 3.35309,0.61753 3.67636,0.59137 0.1743,-0.0141 0.51659,-0.0429 0.76062,-0.0641 z m -53.051116,-4.46578 c 0.88844,-0.21319 1.87466,-0.57436 2.65967,-0.97402 0.43755,-0.22276 1.69183,-1.01109 2.95297,-1.85598 1.53501,-1.02836 2.477826,-1.61346 3.144526,-1.95144 0.54286,-0.2752 0.99271,-0.54511 1.04644,-0.62788 0.0518,-0.0798 0.14543,-0.30219 0.208,-0.49408 0.18339,-0.56249 0.50999,-0.98257 1.33752,-1.72036 1.23918,-1.1048 1.51475,-1.44993 1.58866,-1.98964 0.0836,-0.61029 -0.27339,-1.08888 -1.1841,-1.58754 -0.91302,-0.49994 -1.35067,-1.06945 -1.43385,-1.86584 l -0.0397,-0.38035 -0.32491,-0.0675 c -0.55755,-0.11584 -1.87582,-1.0605 -2.649956,-1.89895 -0.89905,-0.97372 -1.37115,-1.69949 -3.25195,-4.99928 -0.97853,-1.71678 -1.53222,-2.503784 -2.02175,-2.873689 -0.89695,-0.677761 -1.85988,-0.578319 -2.70651,0.279498 -0.41392,0.419401 -0.64741,0.819275 -0.78334,1.34161 -0.13523,0.519581 -0.1203,0.906751 0.0648,1.678881 0.36306,1.51507 0.25933,2.71796 -0.35419,4.10724 -0.91428,2.07037 -0.94753,2.49226 -0.34375,4.36169 0.24259,0.7511 0.2743,1.50979 0.0955,2.28434 -0.0773,0.33498 -0.23751,0.897 -0.35594,1.24894 -0.40224,1.19542 -0.41856,2.05133 -0.0627,3.29294 0.26493,0.92452 0.30679,1.26153 0.2647,2.13105 -0.0216,0.44667 -0.0565,0.9484 -0.0775,1.11494 -0.0517,0.40999 0,0.57434 0.27716,0.88138 0.376,0.41653 0.84675,0.66655 1.2823,0.68106 0.0872,0.003 0.38779,-0.0498 0.66807,-0.11701 z m 27.756176,-2.63694 c 0.30186,-0.0875 0.7115,-0.2415 0.91033,-0.34212 0.35426,-0.17928 3.56117,-2.01376 3.61569,-2.06832 0.0153,-0.0153 -0.12174,-0.20697 -0.30439,-0.42602 -0.53399,-0.64042 -1.33952,-1.73686 -1.85916,-2.5306 -0.36957,-0.56451 -0.64076,-0.88699 -1.16034,-1.37977 -0.37293,-0.3537 -0.69721,-0.64309 -0.72061,-0.64309 -0.0503,0 -1.43126,1.74891 -1.86139,2.35733 -0.67243,0.95117 -0.94824,1.80846 -0.95598,2.97144 -0.007,1.00632 0.10408,1.41326 0.48979,1.79929 0.45099,0.45135 0.94909,0.522 1.84606,0.26186 z m -10.57151,-8.63076 c 0.18702,-0.10865 0.31091,-0.24866 0.42785,-0.4835 0.28218,-0.56675 0.19485,-1.04224 -0.34281,-1.86653 -0.32799,-0.50286 -0.57016,-1.06771 -0.57016,-1.32992 0,-0.21809 -0.0964,-0.23843 -0.75196,-0.15866 -0.94211,0.11464 -1.95358,0.45406 -2.65989,0.89259 l -0.21088,0.13093 0.46443,0.51693 c 2.18453,2.43149 2.77397,2.80329 3.64342,2.29816 z m 7.88304,-2.76011 c 0.47634,-0.13188 1.96647,-0.65651 2.16165,-0.76106 0.0575,-0.0308 0.15989,-0.14949 0.22759,-0.26378 0.11502,-0.19417 2.94058,-3.2324 5.562,-5.98064 2.64027,-2.767988 2.97317,-3.1607 3.33912,-3.939155 0.30245,-0.643386 0.43254,-1.187861 0.43374,-1.815437 0.002,-1.270257 -0.69369,-1.98417 -2.67526,-2.743624 -1.10646,-0.424054 -1.66714,-0.835167 -2.44974,-1.796256 -1.46492,-1.79902 -1.83191,-1.951105 -3.70747,-1.536463 -1.42653,0.315373 -1.78138,0.238858 -2.6317,-0.56744 -0.85253,-0.808411 -1.14361,-0.820766 -2.61225,-0.110936 -0.53719,0.259635 -1.07653,0.502172 -1.19854,0.538968 -0.72609,0.21898 -1.27102,0.138224 -2.25019,-0.333482 -1.04659,-0.504187 -1.29336,-0.574026 -2.02833,-0.574026 -0.55175,0 -0.67901,0.02143 -0.98247,0.16546 -0.94316,0.447625 -1.42925,1.485888 -1.26354,2.698886 0.14736,1.078685 0.14058,1.052753 2.75072,10.521005 0.40397,1.46541 0.76418,2.73906 0.80046,2.83035 0.0363,0.0913 0.2202,0.29922 0.40871,0.4621 0.18951,0.16375 0.54894,0.60008 0.80393,0.97592 1.13868,1.67837 2.30565,2.34259 4.13894,2.35582 0.52353,0.004 0.81728,-0.0278 1.17263,-0.12621 z"
       id="path3184"
       inkscape:connector-curvature="0"
       sodipodi:insensitive="true" />
  </g>
  <g
     inkscape:groupmode="layer"
     id="LAYER_EFO"
     inkscape:label="Layer_EFO"
     style="display:inline">
    <path
       id="UBERON_0001224"
       d="m 87.403494,146.9382 c 3.50769,-6.28147 16.835636,-11.12318 16.835636,-11.12318 3.00784,-3.21506 5.07011,-10.47541 4.59638,-15.52385 -0.18422,-1.83104 -1.40761,-3.55301 -3.24988,-3.1868 -0.84218,0.15695 -1.75056,0.38793 -2.51378,0.0479 -1.00009,-0.47084 -0.50005,-2.0403 0.36845,-2.7204 0.8685,-0.6801 2.05281,-1.28173 2.13177,-2.38035 0.10527,-1.1771 -1.10536,-1.96183 -1.97386,-2.74656 -0.23686,-0.20927 -0.47373,-0.47084 -0.55268,-0.78474 -0.23686,-0.99399 1.26327,-1.59562 2.1844,-1.09862 0.89482,0.47084 1.39486,1.46483 2.10545,2.19725 0.71059,0.73241 2.0265,1.1771 2.71077,0.41852 0.50004,-0.54931 0.36845,-1.43867 0.0526,-2.14493 -0.31581,-0.6801 -0.76322,-1.3602 -0.7369,-2.11878 0.0263,-0.75857 0.81586,-1.5433 1.50013,-1.17709 0.31582,0.1831 0.88992,0.65856 1.04783,0.99861 1.34222,2.45883 5.44768,1.59028 5.44768,1.59028 0.42109,-0.26158 2.34738,-0.28701 2.84742,-0.26086 0.65795,0.0262 1.158,0.65395 1.23695,1.30789 0.0526,0.65394 -0.21054,1.28173 -0.55268,1.83104 -1.39486,2.30188 -4.00035,4.39449 -3.47399,7.01027 0.10527,0.47083 -0.0622,1.31965 0.27997,1.6597 0.94746,0.94168 2.93084,0.32828 4.08884,-0.32568 1.158,-0.65394 2.13177,-1.62177 3.36872,-2.11877 0.68427,-0.26158 1.71068,-0.23542 1.8949,0.47084 0.10527,0.41852 -0.15791,0.81089 -0.34213,1.1771 -1.36855,2.51114 0.0263,5.80701 2.60549,7.08873 0.21055,0.10464 0.18423,0.41853 0.31582,0.62779 0.34213,0.47084 -0.13159,1.1771 -0.68427,1.33404 -0.579,0.15695 -1.25051,0.44912 -1.82951,0.31833 -2.10545,-0.39236 -4.2763,-0.13522 -5.72379,1.40808 -1.4475,1.54331 -2.00018,3.84519 -1.4475,5.88549 0.2895,1.07246 0.92113,2.06646 1.78963,2.79887 2.316,1.88336 5.24847,1.6881 8.1961,2.15894 0.65795,0.10463 1.88374,-0.014 2.01533,0.63994 0.13159,0.65394 -0.50004,1.17709 -0.8685,1.72641 -1.28958,1.88335 0.15791,4.34218 1.4475,6.19937 0.23686,0.36621 0.50005,0.75858 0.47373,1.1771 -0.0263,0.83705 -1.57257,1.71411 -2.41475,1.66179 -2.60223,-0.13079 -4.50779,-1.25736 -6.01119,-4.01934 -4.12258,-4.50285 -9.2718,-2.7745 -12.86542,0.55267 -3.74297,3.46544 -2.52654,10.54155 1.65804,13.49738 1.78963,1.28172 4.00035,1.85719 6.21108,2.11877 2.4739,0.28774 4.74052,0.0477 7.18811,-0.42314 1.15799,-0.23542 2.62854,-0.41391 3.78654,-0.15233 1.158,0.26158 2.21072,1.41252 1.89491,2.5373 -0.39478,1.43867 -2.55286,1.75257 -3.13186,3.16508 -0.42109,0.99399 0.15791,2.09262 0.44741,3.11277 0.2895,1.02015 0.13159,2.48498 -0.94745,2.7204 -0.92114,0.20926 -2.54119,-0.12233 -3.09387,-0.8809 -1.13168,-1.54331 -2.24708,-3.33202 -4.01039,-2.62576 -1.05273,0.41852 -1.5544,1.2571 -1.5544,2.38188 0,1.12478 -0.0914,2.13728 0.6192,3.02664 0.73691,0.91552 1.77335,2.35671 2.19444,3.45533 0.42109,1.09863 0.55507,2.0716 -0.60292,2.30702 -1.31591,0.26158 -2.56908,-0.94764 -3.91131,-1.02611 -1.8949,-0.13079 -2.90432,3.01872 -4.615,3.09461 0,0 -0.66378,-1.69389 -0.19005,-2.84483 0.11694,-1.84693 1.10429,-3.66479 0.36739,-5.12962 -0.73691,-1.46483 -2.83623,-2.2291 -3.59946,-0.76427 -0.36845,0.6801 -0.23686,1.49099 -0.26318,2.24957 -0.0526,0.75857 -0.56392,2.05327 -1.32714,2.13175 -0.84218,0.10463 -1.18022,-1.3101 -1.31181,-2.14714 -0.1316,-0.83705 -0.51118,-1.48441 -0.9849,-2.19067 -1.00009,-1.41252 -5.05935,0.13905 -5.19272,-1.19445 -0.21055,-0.0262 0.15791,0.13081 0,0 -0.579,-0.44468 0.35392,-1.25134 0.90664,-1.72218 1.34222,-1.15094 2.25154,-2.90773 1.77781,-4.60798 -0.63164,-2.24956 -3.04679,-2.42579 -5.3891,-2.53042 -2.079126,-0.10463 -1.711686,0.45718 -1.711686,0.45718 -0.50004,-0.0261 -3.355712,-3.84937 -3.566252,-4.29405 0,0 0.23686,0.41853 0,0 -2.52907,-4.27366 -3.346022,-5.7467 -5.774164,-10.98604 -0.13159,-0.62779 -0.771894,-2.09578 -0.560964,-2.69741 1.31404,-1.52338 -1.21901,1.00024 0.38639,-0.59538"
       class="st5"
       style="opacity:0.73000004;fill:none;fill-opacity:1;stroke-width:0.26674685"
       inkscape:connector-curvature="0"
       sodipodi:nodetypes="cccccsccccsccscccccccsscccscccscccscccccscccsccscccscsccccscccscccccccccccc"
       inkscape:label="UBERON_0001224">
      <title
         id="desc30057">Pelvis</title>
    </path>
    <path
       id="UBERON_0000056"
       d="m 87.403494,146.9382 c -6.593462,4.59693 -10.032242,8.34273 -13.926821,14.5526 -7.140051,11.34442 -6.447116,27.5072 -5.012272,40.11513 0.956571,8.60239 0.696325,16.03934 2.541123,24.18314 0,0 1.611449,0.9214 3.592899,0.97517 0,0 1.702104,-0.63009 1.907088,-0.79139 0.17081,-0.16131 0.17081,-0.37637 0.136651,-0.59143 -0.88824,-8.22603 -1.847368,-16.07129 -2.05234,-24.32423 -0.204982,-8.25295 1.115137,-17.45565 5.283006,-25.03652 1.605669,-2.90333 3.462702,-5.10102 6.298234,-7.33227 2.83553,-2.23125 6.784523,-2.80096 10.747422,-3.17732 -4.372854,-5.05393 -8.216797,-12.0673 -9.651642,-18.08898"
       class="st1"
       style="opacity:0.73000004;fill:none;fill-opacity:1;stroke-width:0.29790449"
       inkscape:connector-curvature="0"
       inkscape:label="UBERON_0000056"
       sodipodi:nodetypes="cccccccccscc">
      <title
         id="desc30059">Ureter</title>
    </path>
    <path
       id="UBERON_0000362"
       d="m 96.05114,132.77405 c 5.64341,3.34811 11.60131,-15.04847 5.46518,-15.7767 0.39218,-1.12534 1.88769,-2.67253 2.63639,-3.62204 1.39047,-1.79352 0.0752,-4.59598 -2.06395,-5.33449 2.35309,-1.12533 3.02687,-1.10171 5.37998,-2.22705 -1.89387,1.10041 1.14738,-0.29166 1.14738,-0.29166 l -1.14738,0.29166 c 1.14738,-0.29166 1.69352,-1.02079 5.97279,1.89422 1.06959,0.17584 2.68284,0.0718 3.71679,-0.24472 1.06959,-0.3165 4.02291,-0.49921 4.37944,0.52063 0.10696,0.35167 -0.58766,2.47871 -0.62332,2.83038 1.58311,2.41035 3.34207,6.12358 6.32782,5.99655 0,0 -1.31838,-0.59241 0,0 0.17826,0.42201 0,0.94951 -0.14261,1.40669 -0.64176,2.07486 -0.13807,4.70152 1.43067,6.21371 0.5348,0.49234 1.35027,0.78453 1.20766,1.48786 -0.0713,0.49235 -0.5348,0.84402 -0.92699,1.16052 -3.09192,0.29498 -2.94099,4.00904 -2.51315,6.22457 0.42783,2.25069 0.66264,3.83898 2.48094,5.21049 0.71308,0.52752 3.3123,1.50641 3.3836,2.38559 0.0713,0.91434 -0.6774,1.65285 -0.92697,2.53203 -0.32089,1.33635 0.64175,2.63753 1.2122,3.90354 0.57044,1.26601 0.39218,3.27054 -0.99828,3.44637 -0.49916,0.0704 -1.55052,0.26507 -1.97836,0.0541 -1.49743,-0.70334 -2.30002,-2.09375 -3.47657,-3.25427 -1.06959,0.10551 -1.8092,1.1362 -1.98746,2.1912 -0.53481,2.98921 -0.66241,4.10596 -1.47332,8.71809 -0.28523,1.47701 -0.50649,4.76303 -0.50649,4.76306 1.35481,1.12534 4.68033,0.2935 6.39168,-0.12851 1.71135,-0.422 4.24272,0.28134 3.95749,2.00452 -0.21392,1.33636 -1.99657,1.8287 -2.56702,3.05955 -0.49914,1.09017 0.14262,2.32102 0.42783,3.5167 0.28523,1.1605 -0.56133,3.08385 -1.77354,2.97835 -0.85568,-0.1055 -1.56908,-1.01535 -2.42475,-1.2967 -0.92699,-0.31649 -2.14795,-0.24514 -2.14795,-0.24514 -0.82003,0.59784 -2.99758,1.90269 -3.03323,2.92253 0.72138,1.79893 3.43385,3.65027 2.6547,5.07657 -0.6061,0.91435 -2.22445,0.43488 -3.22275,0.0129 -0.99828,-0.422 -1.35451,-0.48087 -2.4241,-0.19954 -1.64004,0.45716 -2.31744,2.91887 -4.0288,2.84853 -0.6061,-1.16051 -0.89034,-2.77367 -0.0703,-3.82869 -0.14261,-1.01984 -1.42448,-1.12026 -2.45193,-1.35976 -1.73266,-0.40389 -2.45096,1.67979 -3.30663,1.08195 -1.28351,-0.91434 -0.91786,-3.16503 -2.09443,-4.22004 -0.74871,-0.66818 -1.33737,-1.20373 -2.33567,-1.1334 -0.99828,0.0704 -3.51878,0.45839 -2.99902,-0.39506 l 1.39548,-2.29138 c -0.71306,-2.3562 -3.2631,-2.92279 -5.75882,-2.85246 -2.49572,0.0704 -4.28749,0.96672 -6.24841,2.51407 l -2.14965,3.02696 c 0,0 -1.02995,4.45586 -0.7735,7.16092 1.21072,6.25965 3.49479,10.81829 7.80883,14.8625 4.04851,3.7466 6.95822,5.55629 11.73483,6.85088 1.88962,0.80883 6.04511,1.70388 8.113,1.84455 2.81659,0.21102 7.68832,-1.30587 10.21969,-2.50154 3.74358,-1.79353 6.69218,-4.03982 9.97148,-7.82702 0.53479,-0.84401 1.46017,-1.7188 2.13758,-2.42214 0.92699,-0.98469 1.54013,-1.06251 2.68103,-2.57731 5.02708,-4.51205 7.56566,-8.71329 9.17004,-14.26969 1.60438,-5.5564 3.07914,-9.82398 3.69198,-16.06537 1.60974,-9.4057 2.71154,-16.19571 -0.006,-25.45421 -0.69035,-2.59858 -0.44813,-2.09574 -0.80466,-3.9596 -0.39305,-3.13452 0.099,-1.24028 -0.77819,-4.08266 -0.69801,-3.82668 -1.2297,-4.31982 -2.26365,-6.50016 -1.28351,-2.70788 -2.88438,-5.51343 -4.41746,-8.11581 -1.88962,-3.27053 -3.58353,-6.97112 -5.90098,-9.96032 -4.35879,-6.630298 -12.59261,-15.247949 -18.28904,-15.241443 -12.42073,-3.143877 -19.51078,2.191848 -26.784,7.572407 -0.97175,1.184832 -4.2444,3.992313 -5.2002,6.951586 -0.47968,2.41495 -1.51094,6.00135 -1.07774,7.11451 -0.74871,6.01358 0.24879,5.02961 0.74793,11.04318 0.0713,0.84401 1.50497,4.55806 2.32499,5.82932 1.79019,3.63532 2.07087,3.51634 2.07087,3.51634 l 1.79475,2.70488 2.06225,1.95392"
       class="st0"
       inkscape:connector-curvature="0"
       style="opacity:0.73000004;fill:none;fill-opacity:1;stroke-width:0.35409245"
       sodipodi:nodetypes="cccccccccccccccccccccsccccccsccccccccscccsccsscsccccccccccscccccccccccccccc"
       inkscape:label="UBERON_0000362">
      <title
         id="desc30055">Renal Medula</title>
    </path>
    <g
       inkscape:label="UBERON_0001225"
       style="fill:none;fill-opacity:1"
       transform="matrix(0.34977714,0,0,0.35450604,80.101753,74.527391)"
       id="UBERON_0001225">
      <title
         id="title16603">Cortex of kidney</title>
      <path
         sodipodi:nodetypes="ccsccccscccccccccccccccccccccscc"
         inkscape:connector-curvature="0"
         class="st0"
         d="m 31.385589,140.79831 c 5.754838,9.95729 12.851749,20.2631 18.709914,23.35902 C 41.591656,172.3861 14.557947,155.83181 8.5385673,142.26595 2.9956071,129.7738 -2.1313951,117.79931 -0.81046504,103.29965 -1.510465,68.999654 14.030753,35.148918 42.630753,16.048918 c 15.5,-10.2999998 35.734623,-16.78297255 54.334623,-14.9829725 26.200004,2.6 50.701934,20.2000005 68.501934,39.6000005 29.6,32.4 51.58556,73.060184 59.73269,115.582974 8.56882,44.7237 3.23269,85.75325 -14.94903,126.28514 -11.2,21.7 -26.8,42.43189 -42.3,61.33189 -8.3,10.1 -18.23462,18.6681 -28.73462,26.3681 -21.9,16.1 -52.883662,20.64892 -77.883662,9.94892 -25,-10.8 -42.349032,-34.34257 -47.283656,-60.76811 -1.6,-12.5 2.701743,-36.71105 9.450968,-37.51486 -2.805806,28.62757 8.165376,46.98298 24.414408,63.69784 4.3,3.7 10.450968,7.46594 15.450968,10.16594 17.950968,7.38514 35.649033,14.2557 53.649024,7.7557 10.4,-3.7 24.88506,-12.60245 32.88506,-20.20245 C 157.99946,333.70217 162.5,328.3 170.6,320.6 c 4.5,-4.3 8.27924,-6.92164 11.77924,-12.02164 11.93268,-18.2 16.83848,-41.30462 20.28752,-62.23868 5.23462,-25.17648 8.02633,-41.61827 6.34461,-59.1353 -1.2,-5.9 -3.15623,-11.65876 -4.35623,-17.55876 -0.41486,-7.3 -1.28601,-4.96827 -4.1261,-22.97934 -1.2,-8.2 -8.06411,-22.37975 -11.46411,-29.97975 C 174.19215,87.589226 154.34605,54.35171 130.3,40.325974 c -6.6,-5.2 -16.18615,-6.515418 -24.28615,-8.515418 0,0 -5.9747,-0.471882 -8.974701,-0.571882 -23.2,-0.9 -33.24734,7.426911 -53.489359,19.786993 -2.1,2.1 -14.520974,15.29136 -15.920974,17.99136 -1.4,2.7 -2.158914,6.755994 -2.758914,9.755994 -5.318279,20.148913 -1.239149,32.082379 1.077195,49.267519"
         id="path16567" />
    </g>

    <g
        id="UBERON_0004200"
        inkscape:label="UBERON_0004200"
        style="fill:none">
      <title
          id="desc30079">Kidney pyramid</title>
      <g
          style="opacity:0.73000004;stroke-width:0.99598545"
          id="g2021"
          transform="matrix(0.27787581,0,0,0.26658299,44.105194,55.224917)">
        <path
            inkscape:connector-curvature="0"
            style="stroke-width:0.99598545"
            class="st1"
            d="m 229.4,118.1 c -4.7,2 -5.7,8.2 -5.3,13.4 0.6,6.4 2.4,12.7 4.2,18.9 1.8,6.1 3.6,12.2 5.4,18.3 1.4,4.7 2.1,9.9 4.3,14.3 2,4 5.4,7.4 9,10 7,5.2 17.5,5.2 24.5,0.1 2.5,-1.8 4.5,-4.2 6.5,-6.5 6.8,-7.9 13.7,-15.8 20.5,-23.7 2.9,-3.3 5.8,-6.7 7.4,-10.8 1.6,-4.1 1.6,-9 -1,-12.5 -3.5,-4.5 -10.1,-5.2 -14.2,-9 -3.4,-3.1 -5.2,-8.4 -9.7,-9.5 -4.5,-1.1 -9.5,3 -13.7,1.1 -2.3,-1 -3.8,-3.6 -6.2,-4.5 -4.5,-1.7 -8.7,3.4 -13.4,4.1 -3.3,0.4 -6.4,-1.2 -9.4,-2.6 -3,-1.3 -6.6,-2.4 -9.4,-0.7"
            id="path2019" />
      </g>
      <g
          style="opacity:0.73000004;stroke-width:0.99598545"
          id="g2025"
          transform="matrix(0.26279304,0,0,0.26658299,48.275314,55.145607)">
        <path
            inkscape:connector-curvature="0"
            style="stroke-width:0.99598545"
            class="st1"
            d="m 324.7,200 c 2.9,-4.2 4.7,-9.1 8.1,-12.9 3.4,-3.8 9.5,-6 13.6,-3.1 4.2,2.9 4.2,9.1 6.2,13.8 1.7,3.9 5,6.9 7.4,10.5 2.2,3.3 3.5,7.1 5.1,10.7 3.8,8.8 9,16.8 13.8,25.1 2,3.5 4,7.4 3.7,11.4 -0.6,6.3 -6.9,10.7 -13.1,11.5 -6.2,0.8 -12.4,-1 -18.6,-2.3 -10.8,-2.4 -21.8,-3.4 -32.8,-3.1 -4.2,0.1 -8.6,0.4 -12.6,-1.2 -4.4,-1.8 -7.6,-5.9 -8.7,-10.5 -1.1,-4.6 -0.2,-9.6 2.2,-13.7 2.1,-3.7 5.2,-6.6 8,-9.7 6.6,-7.2 12.2,-15.3 16.6,-24.1 2.6,-5.2 4.8,-10.8 8.9,-15"
            id="path2023" />
      </g>
      <g
          style="opacity:0.73000004;stroke-width:0.99598545"
          id="g2029"
          transform="matrix(0.26313361,0,0,0.26658299,48.472634,54.491897)">
        <path
            inkscape:connector-curvature="0"
            style="fstroke-width:0.99598545"
            class="st1"
            d="m 388.5,299.2 c -2.1,-2.6 -5.9,-3.4 -9.2,-2.7 -3.3,0.6 -6.2,2.3 -9.2,4 -11.8,6.5 -24.2,11.8 -37.1,15.8 -3.8,1.2 -7.7,2.2 -11.1,4.2 -3.4,2 -6.6,4.8 -7.9,8.6 -0.9,2.5 -0.2,5.3 -0.5,7.9 -0.5,7 5.5,17 11.5,20 7.4,3.7 15.8,8.6 23.4,12 9.8,4.4 19.6,8.7 29.4,13.1 3.1,1.4 6.7,2.7 9.7,1.1 2.8,-1.5 3.8,-5 3.9,-8.2 0.1,-3.2 -0.3,-6.5 0.9,-9.4 0.7,-1.7 1.8,-3.3 2.6,-5 3.1,-6.9 -0.8,-14.9 0,-22.5 0.4,-3.7 2,-7.4 1.6,-11.1 -0.5,-6 -5.6,-10.7 -6.6,-16.6 -0.4,-2.2 -0.1,-4.6 -0.4,-6.8 -0.3,-1.9 -1,-3.6 -2,-5.2"
            id="path2027" />
      </g>
      <g
          style="opacity:0.73000004;stroke-width:0.99598545"
          id="g2033"
          transform="matrix(0.26921269,0,0,0.26658299,46.093724,54.650517)">
        <path
            inkscape:connector-curvature="0"
            style="stroke-width:0.99598545"
            class="st1"
            d="m 376.5,406 c -3.3,-1 -6.8,-0.9 -10.2,-0.7 -14.2,0.6 -25.32769,-1.84716 -39.32769,0.55284 -1.3,0.2 -10.96317,-1.75751 -6.67231,4.44716 0,0 -0.72411,4.78647 -1.02411,5.58647 -1.5,3.3 -3.97589,3.01353 -6.67589,5.41353 -1.6,1.4 -3.4,2.6 -4.3,4.5 -1.1,2.2 -0.7,4.8 -0.4,7.2 0.5,3.5 1.1,7.1 3,10.2 1.2,2 3,3.7 4.7,5.3 9.8,9.1 20.4,17.4 31.6,24.8 3.2,2.1 6.6,4.2 10.3,4.9 3.8,0.7 8.1,-0.1 10.5,-3 3.4,-4 2.2,-10 3.3,-15.1 1.4,-6.8 6.9,-12.1 8.8,-18.8 1.6,-5.4 0.7,-11.2 1.3,-16.8 0.4,-3.5 1.4,-7 1.1,-10.5 -0.4,-3.5 -2.6,-7.2 -6.1,-7.7"
            id="path2031"
            sodipodi:nodetypes="cccscccccccccccccc" />
      </g>
      <g
          style="opacity:0.73000004;stroke-width:0.99598545"
          id="g2037"
          transform="matrix(0.25874795,0,0,0.27551111,49.599754,49.676877)">
        <path
            inkscape:connector-curvature="0"
            style="stroke-width:0.99598545"
            class="st1"
            d="m 248,519 c 1,-7 -0.2,-12.7 0.9,-19.6 1,-6.9 3.4,-13.7 7.8,-19.1 1.9,-2.3 4.3,-4.4 7.3,-5.1 2.2,-0.5 4.4,-0.1 6.6,0.5 9.9,2.6 18.2,8.9 26.3,15.1 4.3,3.3 8.5,6.6 12.8,9.8 3.8,2.9 7.7,5.9 10.2,9.9 2.6,4 3.6,9.4 1.5,13.6 -2,3.9 -6.2,6.1 -9.4,9.1 -2.2,2.1 -4,4.5 -6.3,6.5 -5.4,4.5 -13,5.7 -18.2,10.4 -2.2,2 -4.1,4.7 -6.9,5.6 -4.8,1.5 -9.9,-2.7 -14.8,-1.4 -3.5,1 -5.6,4.5 -9,5.9 -3.7,1.5 -8.1,-0.2 -10.6,-3.2 -2.5,-3 -3.4,-7.2 -3.2,-11.1 0.1,-3.9 1.2,-7.8 2.1,-11.6 1.6,-6.9 2.8,-13.9 3.4,-20.9"
            id="path2035" />
      </g>
      <g
          style="opacity:0.73000004;stroke-width:0.99598545"
          id="g2041"
          transform="matrix(0.26240175,0,0,0.26658299,48.777724,54.762677)">
        <path
            inkscape:connector-curvature="0"
            style="stroke-width:0.99598545"
            class="st1"
            d="m 158.66384,482.67642 c -0.5,-2.2 0.4,-4.5 1.8,-6.2 1.4,-1.7 3.3,-3 5.2,-4.2 10.5,-6.9 21.4,-13.2 32.3,-19.4 2.6,-1.5 5.3,-3 8.2,-4 2.6,-0.8 5.4,-1.1 8.2,-0.9 1.6,0.1 3.3,0.5 4.6,1.4 2,1.3 3,3.6 3.9,5.8 1.7,4.3 3.2,8.8 3.3,13.4 0.1,4 -0.7,8 -1.5,11.9 -2.8,15.4 -3.6,31.2 -8.2,46.1 -1.1,3.5 -2.5,7.1 -5.2,9.6 -4.2,3.8 -11.4,3.9 -15.6,0 -1.4,-1.2 -2.5,-2.8 -4,-3.9 -2.1,-1.5 -5,-1.9 -6.7,-3.8 -2.3,-2.5 -2.1,-6.8 -4.9,-8.6 -1.4,-0.9 -3.2,-0.9 -4.7,-1.7 -3.8,-2.1 -3,-8.1 -5.8,-11.4 -1.6,-1.9 -4.2,-2.7 -5.5,-4.7 -1.6,-2.4 -0.9,-5.6 -1.4,-8.4 -0.5,-2.9 -2.3,-5.4 -3.4,-8.1 -1.1,-2.7 -1.3,-6.2 0.8,-8.2"
            id="path2039" />
      </g>
      <g
          style="opacity:0.73000004;stroke-width:0.99598545"
          id="g2045"
          transform="matrix(0.26434649,0,0,0.27278528,47.959484,54.196267)">
        <path
            inkscape:connector-curvature="0"
            style="stroke-width:0.99598545"
            class="st1"
            d="m 160.1,170 c -1,-3.9 0.4,-8.3 3.5,-10.8 3.1,-2.6 7.7,-3.1 11.3,-1.4 4.5,2.2 6.8,7.1 9,11.6 3,6.2 6.3,12.3 10.9,17.5 5.6,6.4 12.9,11.1 18.8,17.1 2.2,2.2 4.3,5 4.1,8.1 -0.2,2.3 -1.7,4.2 -3.2,5.9 -8.9,10.3 -20.4,18.1 -32.1,25.2 -4.8,2.9 -9.9,5.9 -15.5,6.2 -3.6,0.2 -7.7,-1.1 -8.9,-4.4 -1.2,-3.2 0.8,-6.9 0.3,-10.3 -0.4,-2.7 -2.5,-5 -3,-7.7 -0.8,-4.1 1.7,-8 2.9,-11.9 0.9,-3 1.1,-6.2 0.5,-9.2 -0.7,-3.7 -2.5,-7.2 -2.3,-11 0.3,-5.9 5.4,-10.8 5.4,-16.7 0,-2.5 -0.9,-4.8 -1.5,-7.2 -0.6,-2.4 -0.8,-5.1 0.4,-7.2"
            id="path2043" />
      </g>
    </g>
    <g
       transform="matrix(0.05430077,0.06433364,0.06354029,-0.05351273,183.40587,128.90962)"
       id="UBERON_0001285"
       style="fill:none;"
       title="nephron"
       inkscape:label="UBERON_0001285">
      <title>nephron</title>
      <desc
         id="desc30061">Nephron</desc>
      <g
         id="g18908"
         transform="translate(65.312,242.6668)"/>
      <g
         id="g18942"
         transform="matrix(0.92241831,-0.04321117,0.18984836,0.97710086,-626.28013,-470.56861)">
        <g
           transform="translate(141.998,320.719)"
           id="g18912">
          <path
             inkscape:connector-curvature="0"
             id="path18910"
             d="m 0,0 c 1.559,-1.057 3.06,-2.017 4.472,-3.094 0.235,-0.179 0.211,-0.909 0.086,-1.318 -1.053,-3.429 -2.273,-6.812 -3.219,-10.269 -1.368,-5.002 -2.791,-9.995 -3.264,-15.203 -0.364,-4.017 -0.973,-8.011 -1.353,-12.026 -0.183,-1.943 -0.124,-3.913 -0.095,-5.87 0.009,-0.578 0.203,-1.193 0.459,-1.72 0.706,-1.459 2.221,-1.566 3.116,-0.211 0.547,0.826 0.957,1.742 1.463,2.682 0.567,-0.189 1.158,-0.385 2.009,-0.666 -0.348,-1.468 -0.661,-2.968 -1.06,-4.445 -1.121,-4.162 -2.487,-8.271 -3.348,-12.484 -0.603,-2.95 -0.752,-6.038 -0.735,-9.062 0.228,-39.194 0.489,-78.389 0.815,-117.584 0.14,-16.917 0.342,-33.834 0.718,-50.747 0.257,-11.51 0.941,-23.011 1.296,-34.521 0.291,-9.392 0.38,-18.788 0.554,-28.183 0.017,-0.91 -0.5797921,-2.19901 -0.5797921,-3.25801 -6.497383,0.38607 -13.3390569,2.34546 -21.3890069,3.81287 0,1.377 0.05227,8.60586 0.05227,8.60586 -0.063,11.357 1.231531,14.03728 1.343531,25.39228 0.149,15.354 0.535,30.705 0.834,46.058 0.185,9.556 0.323,19.114 0.619,28.668 0.27,8.749 0.769,17.491 1.087,26.239 0.399,11.029 0.744,22.061 1.052,33.094 0.097,3.513 0.182,7.046 -0.065,10.545 -0.181,2.565 -0.701,5.157 -1.456,7.618 -0.958,3.12 -2.246,6.146 -3.501,9.166 -1.627,3.917 -5.57,8.843 -9.467,12.031 1.341,1.496 2.683,2.992 4.004,4.464 1.377,-1.506 2.754,-3.163 4.301,-4.643 0.782,-0.748 1.829,-1.266 2.832,-1.724 1.001,-0.456 2.451,0.246 3.046,1.526 0.408,0.879 0.732,1.899 0.727,2.854 -0.063,9.718 -0.033,19.441 -0.37,29.151 -0.288,8.308 -0.845,16.616 -1.611,24.893 -0.665,7.18 -3.236,13.829 -7.024,19.942 -2.053,3.313 -4.328,6.51 -6.744,9.569 -1.205,1.527 -3.069,2.382 -5.084,2.699 -3.504,0.552 -6.02,-2.179 -4.932,-5.567 0.616,-1.92 1.666,-3.698 2.451,-5.568 1.325,-3.159 2.677,-6.311 3.863,-9.523 0.919,-2.485 0.618,-5.077 -0.052,-7.568 -1.1,-4.092 -5.241,-7.372 -8.743,-6.843 -4.111,0.622 -7.237,2.736 -8.7,6.787 -1.551,4.294 -3.548,8.258 -2.406,12.738 0.337,1.324 2.534,3 3.105,4.262 0.097,0.215 0.366,0.383 0.391,0.592 0.076,0.616 0.069,1.241 0.096,1.862 -0.561,-0.194 0.818,-1.351 0.408,-1.716 -2.037,-1.81 -3.133,-4.472 -3,-7 0.148,-2.832 1.609,-5.191 2,-8 2.572,-5.832 2,-3 -2,-7 -1.454,-1.957 -6.792,-4.645 -9.051,-5.879 0.124,2.514 0.164,4.9 0.405,7.266 0.075,0.729 0.665,1.421 1.076,2.095 1.783,2.93 2.44,6.112 2.309,9.517 -0.106,2.752 -0.261,5.521 -0.074,8.261 0.249,3.658 2.287,6.426 5.145,8.572 1.228,0.922 2.691,1.132 4.228,0.735 3.148,-0.815 6.126,-3.881 5.383,-7.526 -0.574,-2.81 -1.144,-5.621 -1.644,-8.444 -0.395,-2.23 -0.335,-4.465 0.421,-6.627 0.56,-1.601 1.431,-2.318 2.595,-2.253 1.203,0.066 2.521,1.191 2.843,2.575 0.465,1.997 0.017,3.878 -0.95,5.649 -0.209,0.384 -0.417,0.809 -0.735,1.09 -3.951,2.969 -5.578,4.132 -2.951,5.969 0.513,4.719 -0.414,5.994 -5,8 -1.339,0.586 -3,1 -0.39,4.962 2.585,3.923 5.408,7.784 10.11,8.073 7.438,0.456 13.11,-2.823 17.634,-8.414 3.583,-4.429 6.059,-9.458 7.691,-14.907 0.333,-1.113 0.974,-1.891 2.132,-2.218 1.315,-0.371 2.403,-0.056 2.881,1.212 1.138,3.022 2.227,6.071 3.149,9.165 1.248,4.188 2.674,8.29 4.798,12.122 C -0.727,-1.086 -0.405,-0.636 0,0" />
        </g>
        <g
           transform="translate(73.1719,279.925)"
           id="g18916">
          <path
             inkscape:connector-curvature="0"
             id="path18914"
             d="m 0,0 c -0.762,-2.513 -0.32,-6.42 -1.172,-8.768 -0.206,-0.568 -2.264,-2.164 -3,-2 -6.802,-3.493 -13.548,-4.15 -21.358,-4.251 -3.715,-0.048 -7.433,-0.004 -11.144,-0.155 -1.576,-0.065 -3.162,-0.425 -4.696,-0.83 -1.649,-0.436 -2.588,-1.668 -2.596,-3.035 -0.007,-1.288 0.926,-2.584 2.477,-3.057 1.365,-0.416 2.801,-0.788 4.214,-0.825 2.352,-0.061 4.715,0.111 7.067,0.274 6.477,0.447 12.95,0.664 19.354,-0.653 2.818,-0.578 5.518,-1.523 8.031,-3.029 3.751,-2.248 5.564,-5.798 7.028,-9.679 1.404,-3.722 1.714,-7.619 2.05,-11.521 0.467,-5.435 0.453,-10.878 -0.223,-16.282 -0.594,-4.749 -1.653,-9.44 -2.227,-14.191 -0.545,-4.515 -0.827,-9.069 -1.046,-13.614 -0.412,-8.56 0.526,-17.02 2.527,-25.333 1.529,-6.35 2.742,-12.725 3.154,-19.252 0.358,-5.656 0.11,-11.261 -0.986,-16.826 -0.351,-1.783 -1.162,-3.297 -2.428,-4.588 -2.07,-2.112 -5.465,-1.808 -6.794,0.844 -0.723,1.443 -1.134,3.196 -1.139,4.811 -0.009,2.541 0.359,5.096 0.719,7.622 1.039,7.282 1.269,14.561 0.264,21.867 -1.335,9.701 -2.845,19.4 -2.866,29.213 -0.016,7.518 0.828,14.991 2.221,22.399 1.486,7.898 2.087,15.873 0.955,23.86 -0.353,2.488 -1.306,4.933 -2.264,7.282 -1.175,2.881 -3.793,4.349 -6.43,5.652 -4.81,2.377 -10.005,3.029 -15.274,3.047 -4.912,0.017 -9.824,-0.259 -14.737,-0.326 -3.213,-0.043 -6.346,0.434 -9.419,1.495 -4.132,1.426 -6.89,6.157 -5.749,11.078 1.321,5.7 5.479,9.455 11.493,10.09 4.052,0.428 8.128,0.615 12.185,0.994 8.38,0.783 16.593,2.505 24.685,4.754 C -4.762,-2.276 -2.553,-1.069 0,0" />
        </g>
        <g
           transform="translate(74,318.1575)"
           id="g18920">
          <path
             inkscape:connector-curvature="0"
             id="path18918"
             d="m 0,0 c -2.617,0.228 -6.468,0.78 -9,1 -0.775,1.343 -1,8 -3.504,8.432 -2.438,2.771 -5.646,3.615 -9.253,2.924 -4.213,-0.807 -7.5,-2.859 -9.265,-6.943 -1.375,-3.182 0.332,-5.931 3.814,-6.157 2.466,-0.16 4.694,0.71 6.983,1.445 C -16.928,1.76 -15.387,1.333 -12,2 -4.959,3.387 2.705,1.268 5.019,-5.527 6.717,-10.515 7.313,-15.684 7.253,-20.88 7.174,-27.667 6.864,-34.463 6.352,-41.231 5.958,-46.433 4.651,-51.513 2.266,-56.174 c -1.483,-2.897 -3.48,-5.532 -5.27,-8.269 -0.423,-0.647 -0.957,-0.821 -1.737,-0.394 -2.02,1.106 -4.089,2.124 -6.298,3.258 0.038,-0.22 -0.011,-0.114 0.018,-0.082 4.166,4.44 6.37,9.917 8.02,15.619 1.929,6.671 2.642,13.547 3.021,20.468 0.245,4.463 -0.03,8.861 -1.021,13.22 -1.044,4.592 -4.156,7.325 -8.853,7.145 -3.775,-0.145 -7.533,-0.781 -11.29,-1.272 -3.132,-0.409 -6.242,-0.911 -9.42,-0.394 -6.257,1.019 -9.845,7.146 -7.527,13.061 1.641,4.189 4.567,7.36 8.237,9.891 4.749,3.277 9.896,4.485 15.594,3.164 5.083,-1.177 9.016,-3.752 11.121,-8.708 C -2.37,8.724 0.274,1.51 0,0" />
        </g>
        <g
           transform="translate(28.4429,281.9456)"
           id="g18924">
          <path
             inkscape:connector-curvature="0"
             id="path18922"
             d="m 0,0 c -1.785,0.314 -4.203,0.621 -6.555,1.194 -1.594,0.388 -2.544,1.634 -2.723,3.3 -0.213,1.982 1.321,3.316 3.251,2.788 1.149,-0.314 2.232,-0.86 3.355,-1.273 2.997,-1.104 9.29,-0.944 11.882,2.204 1.211,1.469 1.977,3.082 2.135,4.976 0.351,4.231 -0.864,7.736 -4.673,10.029 -1.712,1.031 -3.636,1.344 -5.541,1.132 -2.211,-0.247 -4.382,-0.844 -6.571,-1.289 -0.469,-0.096 -0.934,-0.248 -1.406,-0.278 -1.037,-0.066 -1.952,0.251 -2.338,1.29 -0.389,1.048 -0.111,2.103 0.852,2.63 1.49,0.815 3.039,1.682 4.671,2.047 4.089,0.914 8.175,0.821 12.093,-0.948 2.162,-0.976 3.999,-2.333 5.256,-4.386 2.321,-3.791 6.083,-4.573 10.205,-3.51 4.858,1.254 8.69,4.294 11.42,8.589 0.3,0.472 0.567,0.966 0.886,1.423 0.518,0.744 0.983,1.984 1.621,2.088 1.233,0.201 2.659,-0.02 3.843,-0.483 1.145,-0.448 2.141,-1.357 3.084,-2.198 0.293,-0.261 0.404,-1.033 0.251,-1.44 -1.16,-3.072 -2.956,-5.717 -5.404,-7.943 -3.807,-3.461 -8.008,-6.24 -13.024,-7.566 -1.998,-0.528 -4.077,-0.75 -6.118,-1.118 -0.901,-0.163 -1.867,-0.195 -2.676,-0.563 -0.659,-0.3 -1.475,-0.929 -1.63,-1.558 C 14.729,3.367 10.489,1.26 5.188,0.49 3.689,0.272 2.168,0.2 0,0" />
        </g>
        <g
           transform="translate(54.3115,216.7634)"
           id="g18928">
          <path
             inkscape:connector-curvature="0"
             id="path18926"
             d="M 0,0 C 1.312,0.086 2.61,0.171 3.686,0.242 3.555,-4.083 3.564,-8.481 3.262,-12.858 2.467,-24.359 2.363,-35.857 2.781,-47.375 c 0.538,-14.782 0.876,-29.57 1.425,-44.35 0.187,-5.024 0.535,-10.064 1.231,-15.037 0.381,-2.716 1.426,-5.405 2.569,-7.927 1.203,-2.654 4.115,-3.571 6.701,-2.525 1.646,0.666 2.492,2.103 3.163,3.6 2.029,4.526 2.229,9.271 1.481,14.099 -0.342,2.201 -0.731,4.395 -1.107,6.646 1.226,0.045 2.364,0.086 3.58,0.13 0.056,-0.317 0.154,-0.62 0.157,-0.924 0.059,-5.237 0.189,-10.474 0.123,-15.711 -0.041,-3.127 -0.495,-6.213 -2.339,-8.918 -3.803,-5.58 -10.578,-4.799 -14.139,-0.533 -1.931,2.315 -2.794,5.325 -3.006,8.35 -0.52,7.407 -0.844,14.829 -1.335,22.239 C 0.456,-75.735 0.871,-63.219 0.754,-50.71 0.657,-40.195 0.518,-29.681 0.366,-19.167 0.274,-12.779 0.124,-6.393 0,0" />
        </g>
        <g
           transform="translate(56.7324,215.6282)"
           id="g18932">
          <path
             inkscape:connector-curvature="0"
             id="path18930"
             d="m 0,0 c -2.125,0.142 -3.901,1.223 -4.971,3.402 -1.673,3.407 -1.702,7.058 -1.354,10.682 0.523,5.428 1.767,10.694 4.17,15.649 1.881,3.879 2.477,4.23 6.606,2.982 1.482,-0.448 2.922,-1.072 4.327,-1.732 1.35,-0.634 1.476,-1.077 0.664,-2.318 C 7.365,25.491 5.857,22.063 5.005,18.387 4.213,14.968 4.431,11.483 4.765,8.011 4.883,6.782 4.896,5.535 4.848,4.3 4.742,1.594 2.986,-0.021 0,0" />
        </g>
        <g
           transform="translate(22,309.1575)"
           id="g18936">
          <path
             inkscape:connector-curvature="0"
             id="path18934"
             d="M 0,0 C -1.737,0.272 -3.127,-1.576 -3.956,-3.126 -4.784,-4.677 -5.191,-7.708 -4,-9 c 0.776,-0.842 1.084,-1.313 2,-2 0.916,-0.687 1.151,-0.865 1,-2 -0.292,-2.189 -1.398,-2.345 -3.006,-3.859 -1.742,-1.641 -1.305,-4.718 0.359,-6.438 C -1.984,-25.018 -0.374,-25.7 2,-26 c 4.809,-0.608 10.833,0.003 14.826,2.75 3.993,2.747 6.457,8.014 4.955,12.622 -0.365,1.122 -0.941,2.165 -1.591,3.149 -2.2,3.332 -5.375,6.101 -9.159,7.373 C 7.247,1.165 1.292,1.259 -2,-1" />
        </g>
        <g
           transform="translate(24.0767,298.6042)"
           id="g18940">
          <path
             inkscape:connector-curvature="0"
             id="path18938"
             d="M 0,0 C -3.607,1.028 -4.417,2.868 -2.431,5.52 -2.54,7.386 -1.841,8.485 -0.335,8.817 0.946,9.59 2.77,9.819 4.239,9.924 7,10.122 9.973,9.616 12.418,8.279 c 6.966,-3.812 9.264,-15.695 2.014,-20.35 -2.907,-1.867 -6.462,-2.338 -9.854,-2.15 -1.417,0.078 -2.923,0.253 -4.304,0.609 -2.573,0.661 -4.234,3.697 -3.478,6.433 0.437,1.576 1.645,2.533 1.83,4.341 0.226,2.213 -0.436,4.458 -1.063,6.545 -0.554,1.845 -3.45,1.059 -2.893,-0.797 0.692,-2.305 1.275,-5.19 0.316,-7.536 -0.399,-0.976 -1.503,-1.673 -1.923,-2.689 -0.578,-1.399 -0.594,-2.9 -0.059,-4.313 1.707,-4.509 7.374,-5.354 11.574,-5.593 10.329,-0.589 19.224,6.148 16.847,17.101 C 19.364,9.381 10.75,14.696 1.208,12.497 -7.741,10.434 -9.983,0.892 -0.798,-2.893 0.986,-3.627 1.763,-0.726 0,0" />
        </g>
      </g>
    </g>
  </g>
</svg>
