<?xml version="1.0" encoding="UTF-8" standalone="no"?>
<!-- Generator: Adobe Illustrator 23.0.3, SVG Export Plug-In . SVG Version: 6.00 Build 0)  -->

<svg
   xmlns:dc="http://purl.org/dc/elements/1.1/"
   xmlns:cc="http://creativecommons.org/ns#"
   xmlns:rdf="http://www.w3.org/1999/02/22-rdf-syntax-ns#"
   xmlns:svg="http://www.w3.org/2000/svg"
   xmlns="http://www.w3.org/2000/svg"
   xmlns:sodipodi="http://sodipodi.sourceforge.net/DTD/sodipodi-0.dtd"
   xmlns:inkscape="http://www.inkscape.org/namespaces/inkscape"
   width="95.575813"
   height="151.60188"
   viewBox="0 0 95.575813 151.60188"
   version="1.1"
   style="enable-background:new 0 0 510.2 680.3;"
   xml:space="preserve"
   id="svg38"
   sodipodi:docname="kidney.duct.svg"
   inkscape:version="0.92.2 5c3e80d, 2017-08-06"><metadata
     id="metadata44"><rdf:RDF><cc:Work
         rdf:about=""><dc:format>image/svg+xml</dc:format><dc:type
           rdf:resource="http://purl.org/dc/dcmitype/StillImage" /><dc:title /></cc:Work></rdf:RDF></metadata><defs
     id="defs42" /><sodipodi:namedview
     pagecolor="#ffffff"
     bordercolor="#666666"
     borderopacity="1"
     objecttolerance="10"
     gridtolerance="10"
     guidetolerance="10"
     inkscape:pageopacity="0"
     inkscape:pageshadow="2"
     inkscape:window-width="1263"
     inkscape:window-height="855"
     id="namedview40"
     showgrid="false"
     inkscape:zoom="1.3876231"
     inkscape:cx="207.49632"
     inkscape:cy="-60.79702"
     inkscape:window-x="91"
     inkscape:window-y="63"
     inkscape:window-maximized="0"
     inkscape:current-layer="svg38" /><style
     type="text/css"
     id="style2" /><g
     id="Outline"
     transform="matrix(0.20835186,0,0,0.21815367,-4.5531012,18.695537)"><path
       id="path161"
       class="st0"
       d="m 308.8,569.9 c -0.2,-0.1 -0.2,-0.2 0,-0.6 0.4,-0.8 0.9,-1.1 2.7,-1.4 0.9,-0.2 1.7,-0.4 1.8,-0.5 0.3,-0.5 0.8,-3.6 0.5,-3.6 -0.1,0 -1.5,0.5 -2.9,1.2 -2.9,1.3 -3.9,1.4 -4.4,0.5 -0.7,-1.4 0,-2.4 2.8,-4.1 1.1,-0.7 2.1,-1.4 2.2,-1.6 0.1,-0.2 0,-0.5 -0.2,-0.7 -0.2,-0.3 -0.8,-0.4 -2.2,-0.5 -1.8,-0.1 -2,-0.1 -2.5,-0.7 -0.7,-0.8 -0.8,-2.1 -0.1,-2.8 0.7,-0.6 1.7,-0.6 4,0.1 2.7,0.9 2.9,0.8 3.7,-1.2 0.4,-0.9 0.7,-2 0.8,-2.5 l 0.2,-0.8 -1.2,0.4 c -0.7,0.2 -1.8,0.4 -2.6,0.5 -1.3,0.1 -1.4,0.1 -1.9,-0.6 -0.8,-1 -0.5,-1.9 0.8,-3 0.6,-0.5 1.7,-1.4 2.5,-2.2 1.1,-1.1 1.4,-1.5 1.4,-2.1 0,-1.2 -0.6,-1.2 -2.9,-0.1 -2.3,1.1 -2.7,1.2 -3.8,0.6 -0.9,-0.4 -1.2,-1 -1.2,-2 0,-1.1 0.4,-1.6 1.4,-2.1 0.9,-0.5 4.2,-1.2 5.3,-1.2 0.7,0 1.7,-0.7 1.5,-1 -0.2,-0.3 -1.4,-0.5 -4.4,-0.6 -3.4,-0.2 -4.1,-0.5 -4.3,-2 -0.1,-0.8 0,-1.1 0.7,-1.6 0.4,-0.3 1,-0.6 1.3,-0.6 0.3,0 1.8,0 3.4,-0.1 2.4,0 2.9,-0.1 3.4,-0.5 0.6,-0.6 0.7,-1.4 0.1,-1.9 -0.4,-0.3 -0.9,-0.4 -3.5,-0.4 -2.9,0 -3,0 -3.6,-0.6 -0.8,-0.8 -0.9,-2.2 -0.2,-3.4 0.6,-1 1.4,-1.1 3.8,-0.6 1,0.2 2.1,0.3 2.5,0.2 0.7,-0.1 0.8,-0.3 1,-1 0.3,-1.6 0.2,-2.4 -0.3,-2.9 -0.3,-0.2 -0.7,-0.7 -1.1,-1 -1.2,-1.1 -1.1,-4.1 0.3,-7.6 0.4,-1 0.8,-2.5 1,-3.3 0.3,-1.7 0.3,-1.8 -1.4,-4.7 -0.6,-1.1 -0.6,-1.1 -0.2,-4.6 0.1,-0.8 0,-1.3 -0.3,-1.9 -0.6,-1.1 -0.5,-1.4 0.5,-2.5 1.1,-1.1 1.1,-1.8 0.2,-4.2 -0.7,-1.9 -0.6,-2.5 0.3,-4.1 0.5,-0.9 0.6,-1.2 0.5,-3.1 0,-1.2 -0.1,-2.2 -0.1,-2.3 0,-0.1 -0.4,-0.6 -0.9,-1.2 -1.1,-1.3 -1.1,-2 0,-3 0.9,-0.8 0.9,-0.8 0.9,-3 0,-2 0.1,-2.3 1,-3.9 l 0.9,-1.8 -0.8,-1.8 c -0.7,-1.5 -0.8,-2.1 -0.8,-3.7 0,-1.6 0.1,-2.2 0.7,-3.4 0.9,-1.9 0.8,-2.8 -0.5,-4.3 l -0.9,-1.1 -0.1,-6.3 c -0.1,-5.6 -0.1,-6.5 -0.6,-7.8 -0.7,-2.1 -0.7,-2.8 0.3,-3.6 l 0.8,-0.7 -0.2,-2.6 c -0.2,-2.4 -0.2,-2.6 -0.9,-3.3 -0.6,-0.7 -0.7,-0.9 -0.7,-2.4 0,-0.9 0,-2 -0.1,-2.4 0,-0.7 0,-0.7 0.8,-0.8 1.1,-0.2 1.2,-0.7 0.6,-3.1 -0.6,-2.2 -0.3,-3.4 1.2,-5.3 l 1,-1.3 -0.7,0.1 c -2.9,0.6 -3.7,0.7 -4.3,0.4 -0.7,-0.3 -0.9,-1.1 -0.4,-2 0.2,-0.3 0.1,-0.7 -0.2,-1.4 -0.9,-1.7 -0.1,-2.4 3.1,-3.1 l 1.3,-0.3 -1,-0.9 c -0.5,-0.5 -1,-1 -1,-1.1 0,-0.3 0.9,-0.9 1.8,-1.1 1.2,-0.3 0.5,-0.5 -1.3,-0.4 -2,0.1 -2.7,-0.3 -2.7,-1.4 0,-1.3 1.1,-2.1 3.2,-2.3 1.8,-0.2 2.7,-0.7 2.7,-1.4 0,-0.6 -0.1,-0.6 -1.2,-0.6 -1.3,0 -2,-0.4 -2,-1.2 0,-0.3 -0.3,-0.5 -1.4,-0.7 -1.6,-0.3 -2.5,-1 -2.7,-2.1 -0.3,-1.5 1.6,-2.1 3.2,-0.9 0.5,0.3 1,0.6 1.3,0.5 0.4,-0.1 0.4,-0.3 0.4,-1.6 -0.1,-1.5 -0.1,-1.5 0.9,-2.3 0.6,-0.4 1,-1 1,-1.2 0,-0.6 -0.3,-0.6 -0.7,0 -1.1,1.7 -5.4,1.6 -5.9,-0.1 -0.2,-0.8 0.2,-1.5 1.4,-2.2 0.9,-0.6 1,-0.7 0.6,-0.9 -0.2,-0.2 -0.9,-0.4 -1.4,-0.5 -2.4,-0.4 -2.7,-2.8 -0.3,-3.5 1.1,-0.3 2.8,-1.6 2.8,-2.1 0,-0.2 -0.3,-0.7 -0.6,-1.1 -0.3,-0.4 -0.6,-0.9 -0.6,-1 0,-0.1 0.4,-0.7 0.9,-1.3 1.3,-1.6 1.1,-1.9 -0.8,-1.2 -2.8,1 -4.5,0.5 -4.5,-1.1 0,-1 1.1,-1.9 3.5,-2.8 2.4,-0.9 2.9,-1.2 2.9,-2 0,-0.8 -0.5,-1 -2.9,-1.2 -2.2,-0.1 -3.2,-0.5 -3.9,-1.4 -0.6,-0.8 -0.5,-1.3 0.3,-2.1 1,-1 2.6,-1.2 4.4,-0.5 0.8,0.3 1.5,0.5 1.6,0.5 0.1,0 0.1,-0.4 0,-1 -0.1,-0.8 -0.1,-1.1 0.5,-1.7 1.2,-1.4 0.6,-2.2 -1.5,-2.2 -1.5,0 -3.6,-0.6 -4.2,-1.2 -0.3,-0.3 -0.5,-0.8 -0.5,-1.2 0,-1 0.9,-1.2 4.4,-1.1 1.7,0.1 3,0 3.2,-0.1 0.3,-0.2 0.3,-0.6 -0.2,-3 -0.3,-1.5 -0.6,-3.6 -0.6,-4.6 0,-1 -0.1,-2.4 -0.2,-3 -0.1,-1 0,-1.5 0.5,-3 1,-2.6 1,-3.4 0.2,-4.4 -1.1,-1.4 -1.2,-2.1 -0.8,-3.4 0.3,-0.8 0.4,-1.4 0.3,-2.2 -0.1,-0.6 -0.3,-2 -0.4,-3 -0.1,-1.2 -0.4,-2.1 -0.7,-2.6 -0.9,-1.2 -0.7,-1.8 1,-3.4 0.8,-0.8 1.5,-1.5 1.5,-1.7 0,-0.2 -0.3,-1.3 -0.6,-2.6 -0.6,-2 -0.6,-2.6 -0.5,-4.7 0.1,-1.3 0.2,-3.8 0.2,-5.5 0,-3 0.1,-3.2 0.8,-4.7 0.4,-0.9 1,-1.8 1.2,-2.2 0.4,-0.6 0.4,-0.7 -0.2,-1.6 -1.9,-2.7 -2.3,-6.2 -1.4,-10.4 0.7,-2.9 0.7,-5.4 0.1,-7.7 -0.2,-0.9 -0.4,-2.5 -0.4,-3.6 0,-1.2 -0.2,-2.6 -0.4,-3.4 -0.8,-2.5 -0.4,-4.6 1.1,-6.8 0.6,-0.9 0.6,-0.9 0.3,-3.3 -0.2,-1.3 -0.6,-3.3 -0.9,-4.5 -0.3,-1.1 -0.6,-2.4 -0.6,-2.9 0,-0.5 -0.2,-1.5 -0.4,-2.2 -0.7,-2.1 -0.4,-4.4 0.8,-6.8 l 1,-1.9 -0.8,-0.8 c -1,-1 -0.8,-1.6 0.6,-3.1 0.8,-0.9 0.9,-1.1 0.5,-1.1 -0.3,0 -0.8,-0.1 -1.3,-0.3 -0.7,-0.3 -0.8,-0.3 -0.6,-1.1 l 0.2,-0.8 h -1.2 c -1.8,0 -3.6,-0.4 -4.3,-1.1 -0.8,-0.7 -0.8,-2 -0.2,-2.8 0.5,-0.6 1.8,-0.7 4,-0.4 1.1,0.2 1.2,0.2 1.4,-0.4 0.1,-0.3 0.3,-1 0.4,-1.6 l 0.2,-1 h -0.9 c -1.3,0 -2,-0.6 -2,-1.6 0,-1 0.5,-1.4 2.7,-2.1 2,-0.6 2.3,-0.9 1.4,-1.1 -0.5,-0.1 -1.1,0 -1.8,0.3 -1.7,0.7 -2.7,0.7 -3.7,0.1 -0.9,-0.5 -1.4,-1.5 -1.2,-2 0.2,-0.5 1.2,-1.1 2.6,-1.5 l 1.2,-0.3 -1.4,-0.6 c -1.9,-0.8 -2.7,-1.8 -2.7,-3.3 0,-2.1 1.1,-2.6 2.8,-1.3 1.4,1.2 3.3,1.6 3.8,0.9 0.2,-0.3 0.2,-0.6 -0.2,-1.3 -0.9,-1.7 -0.5,-3 1.3,-4.1 0.5,-0.3 0.5,-0.3 -0.1,-0.8 -0.5,-0.4 -0.8,-0.5 -3.3,-0.3 -3.2,0.2 -4.4,0 -5.1,-0.7 -0.7,-0.7 -0.6,-1.9 0.2,-2.6 0.6,-0.6 0.8,-0.6 4.7,-0.7 2.7,-0.1 4.1,-0.2 4.2,-0.4 0.2,-0.5 -1.4,-0.8 -3.5,-0.8 -4.5,0 -6.2,-1.2 -4.8,-3.5 0.8,-1.3 1.8,-1.6 4.9,-1.4 l 2.7,0.2 0.8,-0.8 c 0.7,-0.6 0.8,-0.9 0.6,-1.1 -0.6,-0.7 -1.4,-0.9 -5,-1 -3.8,-0.2 -4.7,-0.4 -6,-1.5 -0.4,-0.4 -0.6,-0.8 -0.6,-1.6 0,-2 1.1,-2.4 3.8,-1.4 3.4,1.1 6.1,1.1 10.9,-0.4 3,-0.9 4.5,-1 6.3,-0.5 1.1,0.3 1.1,0.3 1.8,-0.3 0.9,-0.9 1.9,-1.2 3.2,-1 1.2,0.2 1.9,-0.2 2.2,-1.3 0.4,-1.5 0.9,-1.7 4.9,-1.2 l 2.3,0.3 2.1,-1.2 c 3.5,-2 3.4,-2 7,-2.2 3.6,-0.2 3.9,-0.3 5.4,-2.1 0.9,-1.1 2.4,-2 3.3,-2 0.3,0 2,-0.4 4,-0.9 2.9,-0.7 3.9,-1.1 5.3,-1.9 1,-0.6 2,-1.1 2.2,-1.1 0.8,0 1.7,-0.5 3.3,-1.9 l 1.5,-1.4 -0.7,-1.4 c -1.5,-2.9 -7.7,-7.3 -22.5,-16 -24.4,-14.2 -25.4,-14.7 -37.1,-19.4 -12.6,-5 -19.4,-6.7 -40.7,-10.6 -10.1,-1.8 -12.6,-2.2 -18.7,-2.8 -17.4,-1.6 -32.7,-1.7 -57.2,-0.5 -18.4,0.9 -20.1,1.1 -27.8,2.3 -17.8,2.8 -39.4,8.7 -57.8,15.7 -8.8,3.4 -21.1,10.3 -28.2,15.8 -3.6,2.8 -8.6,7.8 -9.6,9.7 -0.5,0.9 -0.8,1.6 -0.8,1.7 0.1,0.1 0.8,-0.1 1.5,-0.3 2.7,-0.7 3.2,-0.7 4.5,0.1 1,0.6 1.5,0.7 3.9,0.9 1.5,0.1 5.6,0.2 9.1,0.1 5.5,-0.1 6.5,-0.1 7.5,-0.5 2.6,-1 4.8,-0.8 7.7,0.5 1.9,0.9 5.2,1.3 8.9,1.2 1.6,0 2.3,0 3.4,0.5 1.3,0.5 1.8,0.5 6.5,0.6 5.5,0 5.8,0.1 7.6,1.6 1.3,1.1 1.9,1.2 3.2,0.7 0.6,-0.3 1.6,-0.5 2.3,-0.5 1.1,0 1.3,0.1 2,0.8 0.5,0.5 0.9,1.2 1.1,1.9 0.6,2.2 0.6,2.2 2,2.9 2.3,1.1 2.7,2.4 1.2,5.1 -0.6,1.1 -0.6,1.5 -0.6,3.4 0,1.4 0.2,2.9 0.5,4.2 0.3,1.1 0.5,2.5 0.5,3.1 0,0.6 0.1,3.2 0.3,5.8 0.2,3.4 0.2,4.9 0,5.4 -0.4,1 -0.3,1.6 0.2,2.6 0.7,1.3 0.6,1.9 -0.4,3.1 -0.5,0.7 -0.9,1.3 -0.9,1.8 0,0.4 -0.6,1.9 -1.4,3.4 -1.2,2.4 -1.4,3 -1.6,4.8 -0.2,1.6 -0.4,2.3 -0.9,3.2 l -0.7,1.1 h 1.7 c 2,0 2.5,0.4 2.3,1.7 -0.3,1.7 -1.4,2.4 -4.2,2.9 l -1.8,0.3 1.4,0.6 c 1.7,0.7 1.9,1.3 1.2,2.5 -0.5,0.8 -0.5,0.9 -0.1,1.5 0.4,0.6 0.5,0.6 1.7,0.4 2.1,-0.3 2.7,-0.2 3.3,0.5 0.7,0.8 0.8,2.1 0.1,2.8 -0.4,0.4 -0.8,0.5 -1.9,0.5 -0.8,0 -2,0.1 -2.7,0.2 l -1.3,0.2 v 1.1 c 0,1.3 -0.3,1.6 -2.2,2.6 -1.9,1 -2.5,1.6 -2.3,2.3 0.1,0.3 0.2,0.7 0.4,0.8 0.1,0.1 1.2,-0.8 2.3,-1.9 l 2.1,-2 h 3.7 c 3.6,0 3.7,0 4.2,0.6 0.6,0.7 0.6,1.4 0.1,2.1 -0.4,0.6 -3.1,1.5 -4.3,1.5 -0.4,0 -0.7,0.1 -0.7,0.2 0,0.2 1,0.5 3.2,0.9 1.6,0.3 2.4,1.5 2,2.9 -0.4,1.2 -0.9,1.4 -4.3,1.2 -2.9,-0.2 -3.1,-0.2 -2.9,0.3 0.7,2.4 0.5,2.9 -1.3,3.4 -1.7,0.5 -1.9,0.6 -2.1,1.5 -0.1,0.4 -0.2,0.8 -0.3,1.1 -0.2,0.4 -0.1,0.4 1.6,0.3 2.8,-0.2 5.9,0.8 5.9,2 0,1.1 -3.1,2.7 -5.8,2.9 -1,0.1 -1.8,0.2 -1.9,0.3 -0.1,0.1 0.2,0.4 0.6,0.7 0.6,0.4 1,0.5 1.8,0.4 0.6,-0.1 1.9,-0.2 2.9,-0.3 1.7,-0.1 1.9,-0.1 2.5,0.4 0.8,0.6 0.9,1.3 0.3,2.5 -0.5,1.2 -1.5,1.8 -2.9,1.8 -0.6,0 -1.7,0.1 -2.3,0.2 l -1.2,0.2 1,0.6 c 1.2,0.7 1.4,1.2 0.9,2.3 -0.2,0.4 -0.4,1.7 -0.5,2.7 -0.1,1.7 -0.2,2 -0.8,2.5 -0.3,0.3 -1,0.6 -1.5,0.7 -0.5,0.1 -0.9,0.3 -0.9,0.5 0,0.3 -0.1,0.4 3,-0.6 2.3,-0.7 3.4,-0.7 3.9,0 1.1,1.3 0.3,2.5 -2.6,3.9 -1.1,0.5 -1.9,1 -1.8,1.1 0.1,0 0.9,0.1 1.7,0.2 1.2,0.1 1.6,0.3 2.3,1 1,1 1.1,2.1 0.3,2.5 -0.6,0.3 -4.8,0.2 -6.1,-0.2 -0.5,-0.1 -0.6,-0.1 -0.4,0.3 0.1,0.2 0.2,0.8 0.3,1.4 0.1,0.9 0.1,1 -1,2 l -1.1,1 0.9,1.7 c 0.8,1.6 0.9,1.9 1,3.9 0,1.2 0.2,3 0.5,3.9 0.4,1.7 0.4,1.7 -0.1,3.8 -0.8,2.9 -0.9,5.9 -0.4,9.1 0.2,1.5 0.5,4 0.7,5.6 0.2,2.1 0.4,3.2 0.7,3.6 1.1,1.5 1.3,1.9 1.3,2.6 0,0.8 -0.9,1.8 -1.9,2.1 -0.5,0.2 -1.5,2.9 -1.5,4.3 0,0.6 0.3,1.4 0.9,2.4 1.4,2.5 1.1,3.8 -0.9,3.8 h -0.8 l -0.1,1.3 c -0.2,1.8 -1.2,3.3 -5.1,7 -1.8,1.7 -3.2,3.2 -3.2,3.3 0,0.1 0.4,0.6 0.9,1.1 2.8,2.6 4,7.6 2.8,11.5 -0.3,1.1 -0.5,2.8 -0.6,5.5 -0.2,4.2 -0.1,4.7 1.1,5.7 0.7,0.6 0.6,1.2 -0.2,2 -0.5,0.5 -0.7,0.9 -0.7,1.5 0,0.4 -0.2,1.1 -0.4,1.5 -0.3,0.7 -0.7,2.4 -1,5.2 -0.1,1 0,1.6 0.4,2.7 0.6,1.6 0.5,1.9 -0.6,3 -0.8,0.7 -0.7,1.4 0.2,3.6 1.1,2.5 0.8,3.8 -1.4,6 -0.6,0.6 -1.2,1.3 -1.2,1.4 0,0.1 0.2,0.3 0.5,0.5 0.4,0.2 1.1,0.2 2.9,-0.1 5,-0.8 5.7,-0.9 6.6,-0.5 0.5,0.2 1,0.6 1.2,1.2 0.4,0.8 0.4,0.9 0,1.5 -0.7,1 -1.5,1.4 -4,1.7 -1.3,0.2 -3.1,0.4 -4,0.6 -0.9,0.1 -1.7,0.3 -1.8,0.5 -0.2,0.2 -0.1,0.9 0.1,2.1 l 0.3,1.8 1.6,-0.2 c 2.8,-0.3 3.2,-0.3 4,0.6 0.7,0.8 0.9,1.9 0.5,2.8 -0.3,0.8 -1.5,1.1 -3.6,1 -1.3,-0.1 -2,-0.1 -2.3,0.1 -0.2,0.2 -0.4,1.1 -0.5,2.2 -0.2,2.2 -0.2,2.9 0.2,3.9 0.3,0.6 0.3,0.7 1.3,0.5 0.6,-0.1 1.7,-0.2 2.5,-0.3 1.4,-0.1 1.5,-0.1 2,0.5 0.8,1 0.7,2.6 -0.1,3.4 -0.3,0.3 -0.8,0.6 -1.1,0.6 -0.3,0 -0.7,0.2 -0.9,0.5 -0.4,0.4 -0.4,0.8 -0.3,2.5 0.1,1.6 0.1,2.1 -0.2,2.5 -0.7,1 -1.5,0.7 -3.2,-1.1 -1.2,-1.3 -1.5,-1.5 -1.7,-1.2 -0.3,0.8 -0.2,1.5 0.8,3.9 0.5,1.3 1,2.7 1,3 0,1 0.7,1.1 1.4,0.2 0.3,-0.4 0.9,-1.1 1.2,-1.5 l 0.7,-0.8 1.9,0.1 c 2.7,0.2 3.6,0.8 3.7,2.4 0,1 -0.5,1.5 -2,2.2 -0.7,0.3 -0.9,0.5 -0.8,0.8 0.1,0.2 0.3,0.9 0.5,1.5 0.3,1 0.3,1.1 -0.3,1.5 -0.5,0.4 -0.9,0.5 -1.8,0.4 -1.2,-0.1 -1.2,-0.1 -1.6,0.8 -0.2,0.5 -0.8,1.3 -1.4,1.7 -0.8,0.6 -1,0.9 -0.9,1.4 0.1,0.6 0.3,0.7 2.2,1.3 3.2,1 3.9,1.4 4.3,2.2 0.4,0.7 0.4,0.8 -0.4,1.4 -0.4,0.4 -1.1,0.7 -1.5,0.8 -0.4,0.1 -0.7,0.2 -0.7,0.3 0,0.1 0.3,0.5 0.5,1 0.6,1.1 0.4,1.5 -0.6,2.1 -0.6,0.4 -1.2,0.5 -3,0.5 -2.1,0 -2.1,0 -1.8,0.5 0.4,0.6 1.5,1.1 4,1.7 3,0.7 3.8,1.5 3,2.8 -0.5,0.8 -1.2,1 -3.6,1.2 l -2,0.2 0.5,0.6 c 0.7,0.8 0.6,1.6 -0.3,3 -0.5,0.8 -0.7,1.3 -0.6,1.8 0.2,0.8 0.7,1.1 3.3,2.1 1.1,0.4 2.2,1 2.4,1.3 0.5,0.7 0.5,1.5 0,1.8 -0.5,0.4 -3,0.2 -5.2,-0.5 -0.9,-0.3 -1.7,-0.4 -1.8,-0.4 -0.1,0.1 0.2,0.7 0.7,1.4 0.8,1.2 0.8,1.3 0.9,3.9 0,1.5 0.1,3.5 0.2,4.6 0.2,1.7 0.1,2.2 -0.4,3.6 -0.6,1.8 -0.6,2.4 0.4,4.6 0.3,0.8 0.7,2.2 0.9,3.1 0.3,1.5 0.2,1.8 -0.4,4 -0.9,3.1 -1.1,5 -0.8,7.5 0.2,1.9 0.2,2 -0.4,2.7 -0.7,0.9 -0.8,1.5 -1,6.3 -0.1,1.9 -0.2,3.8 -0.3,4.2 -0.1,0.7 -0.1,0.8 0.5,0.9 0.9,0.2 2.3,1.5 3,2.8 0.3,0.6 1,1.7 1.5,2.4 1,1.5 1.1,2.4 0.5,4.6 -0.6,2.3 -0.5,2.7 0.9,3.9 l 1.3,1.1 -0.6,1.3 c -0.5,1.1 -0.6,1.7 -0.6,4.3 0,1.7 0.1,3.7 0.2,4.5 0.2,1.3 0.1,1.8 -0.5,3.6 l -0.7,2.2 0.8,2.1 c 0.5,1.4 0.8,2.7 0.9,3.9 0.1,1.9 0.1,2.3 -1,5.9 -0.3,1.2 -0.7,2.5 -0.8,2.8 l -0.1,0.7 H 86.6 38.9 l 0.2,-5.2 c 0.2,-6.2 0.5,-22.6 0.9,-40.9 0.8,-42.4 1,-54.1 1.5,-75.5 0.9,-41.4 3.3,-136.6 4.7,-185.8 0.1,-4.8 0.5,-18.9 0.9,-31.4 0.3,-12.4 0.8,-28.3 1,-35.2 0.3,-10.3 0.4,-27.2 0.4,-90.7 V 26.9 H 61.2 73.9 V 90 c 0,34.7 0,63.1 0.1,63.1 0.1,0 1.8,-1 4,-2.3 6.9,-4.1 10.4,-5.6 23.8,-10.6 22.8,-8.4 27.7,-9.9 51.9,-15.2 14.8,-3.3 15.5,-3.3 32.8,-4.6 17.4,-1.2 20.2,-1.3 37,-1.1 34.8,0.3 43,1.2 70.2,7 12.8,2.8 17.1,4.1 36.6,11.7 20.8,8.1 34.1,14 42.5,18.9 1.6,0.9 2.9,1.7 3,1.7 0.1,0 0.1,-29.6 0.1,-65.9 V 27.1 h 12.1 12.1 v 78.4 c 0,45 0.1,83.1 0.2,89.5 0.1,6.1 0.5,19.9 0.7,30.6 0.2,10.7 0.6,24.2 0.7,29.9 0.1,5.7 0.5,20.8 0.9,33.5 0.3,12.8 0.8,30.7 1,39.8 0.5,22.1 1.3,54.7 1.7,73.2 0.2,8.3 0.6,24.1 0.9,35.1 0.3,11 0.7,27.5 0.9,36.5 0.2,9.1 0.5,22.7 0.7,30.3 0.4,13.7 0.4,15.8 0.9,35.7 0.1,5.7 0.4,14.4 0.5,19.3 0.1,4.9 0.2,9.2 0.1,9.6 l -0.1,0.6 h -23.7 c -18.2,0 -23.5,0.1 -22.8,0.3 0.5,0.2 1,0.3 1,0.4 -0.1,0.1 -54.5,0.2 -54.9,0.1 z M 83.6,569 c 1.4,-0.7 1.4,-0.7 2.8,-0.1 1.4,0.6 3.8,0.6 6,0 2.2,-0.6 2.7,-0.6 4.1,0.1 1.1,0.6 1.3,0.6 4.3,0.5 2,-0.1 3.7,-0.3 4.6,-0.6 0.8,-0.2 2.2,-0.5 3.1,-0.6 1.5,-0.1 1.8,-0.1 2.7,0.4 1,0.6 1.2,0.6 4.5,0.5 4.1,-0.1 7.3,-0.5 8.5,-1.1 1.3,-0.6 1.6,-0.6 3.6,0.4 2,1 4.8,1.4 5.4,0.7 0.2,-0.2 0.7,-1.9 1.2,-3.8 0.9,-3.8 0.9,-4.5 -0.3,-8.5 -0.7,-2.4 -0.7,-3 0,-5.2 0.4,-1.1 0.6,-2 0.5,-2.4 -0.3,-1 -0.1,-8.7 0.1,-9.5 0.3,-0.8 0.2,-0.9 -0.6,-1.7 -1.1,-1.1 -1.2,-1.6 -1,-3.3 0.1,-0.7 0.2,-1.7 0.3,-2.3 0.1,-0.6 0,-1.4 -0.2,-1.9 -0.4,-1.2 -2.1,-3.9 -2.8,-4.6 -1,-0.9 -2.8,-0.9 -6.8,0 -2.5,0.6 -4.6,0.8 -8.6,1.1 l -5.3,0.4 -1,-0.5 c -1.3,-0.7 -1.9,-0.7 -2.8,0 -1.2,0.8 -2.1,0.8 -4.7,0 -2.3,-0.7 -2.5,-0.7 -3,-0.4 -0.7,0.4 -1.6,0.5 -2,0.1 -0.5,-0.5 -3.6,-1.2 -4.8,-1.1 -0.9,0.1 -1.8,-0.1 -4.3,-0.8 -2.3,-0.7 -3.8,-1 -5.3,-1.1 -2.7,-0.2 -5.4,-1 -8.2,-2.6 -2.2,-1.2 -2.2,-1.2 -3.3,-1 -1.1,0.3 -3.6,0.2 -4.7,-0.1 -0.7,-0.2 -1.6,0.6 -1.6,1.6 0,1 1.1,1.5 4.7,1.7 2.1,0.1 3,0.3 3.6,0.6 0.4,0.3 0.8,0.6 0.8,0.7 0,0.4 -1.8,0.9 -3.4,0.9 -1,0 -2.5,0.1 -3.5,0.3 -1.9,0.3 -1.8,0.2 -1.2,1.8 0.2,0.6 0.3,0.6 3.5,1.3 1.4,0.3 2.7,0.6 2.9,0.7 0.6,0.3 0.5,0.9 -0.2,1.5 -0.6,0.5 -0.9,0.6 -4.1,0.7 -1.9,0.1 -3.7,0.2 -3.9,0.3 -0.6,0.3 -0.7,0.8 -0.3,1.8 0.2,0.6 0.3,1.4 0.3,2 -0.1,1.3 -0.1,1.4 1.1,1.8 1.8,0.6 2.6,2.1 1.7,3.2 -0.5,0.6 -0.7,2.4 -0.3,2.4 0.1,0 0.9,-0.2 1.8,-0.4 1.4,-0.3 1.8,-0.4 3,-0.1 1.9,0.4 3,1.2 3,2.1 0,0.5 -0.2,0.8 -0.7,1 -1.3,0.6 -3.2,1 -6,1.2 -5.3,0.5 -3.6,1.2 2.7,1.2 4.2,0 4.8,0.1 5.2,1.1 0.5,1.2 0.3,1.2 -5,1.4 -4.4,0.1 -5.1,0.2 -5.8,0.6 -1.1,0.6 -1.3,1.8 -0.3,2.4 0.6,0.4 1,0.4 4.4,0.1 2.1,-0.2 4.1,-0.3 4.4,-0.4 0.9,-0.1 1.7,0.6 1.7,1.6 0,1.5 -0.5,1.7 -5,1.8 l -4,0.1 -0.2,1.4 c -0.1,0.8 -0.3,2 -0.5,2.7 l -0.4,1.3 h 2.2 c 1.8,0 2.3,0.1 2.8,0.5 1.4,1 0.4,2.5 -1.8,2.8 -1.2,0.2 -1.2,0.2 -1.2,1 0,0.7 -0.1,0.8 -0.7,0.9 -2.3,0.5 -2.6,0.9 -0.8,1.3 1,0.2 1.8,0.2 4,0 1.6,-0.2 3.7,-0.2 5,-0.1 1.9,0.1 2.4,0.1 3.1,-0.3 0.9,-0.4 0.9,-0.4 1.4,0.1 0.5,0.5 0.9,0.6 3.7,0.7 0.5,0.2 1.3,0 1.9,-0.3 z m 4.2,-10 c -4.8,-1.6 -6.5,-4.1 -7.1,-11.3 -0.3,-3.2 -0.1,-6 0.6,-9.2 0.3,-1.6 1.5,-3.2 3.2,-4.4 2.2,-1.5 3.4,-1.9 6.8,-1.7 2.6,0.1 3,0.2 4.5,0.8 2.3,1 3.9,2.8 5.3,5.5 1.4,2.9 1.8,4.6 1.8,7.6 0,5.5 -2.7,10.2 -7,12.2 -1.5,0.7 -1.9,0.8 -4.1,0.9 -2,0 -2.9,0 -4,-0.4 z m 224.7,10.4 c -0.3,-0.1 -0.8,-0.1 -1.1,0 -0.3,0.1 -0.1,0.1 0.6,0.1 0.7,0 0.8,-0.1 0.5,-0.1 z m 28.2,-0.2 c 0.7,-0.1 5.9,-0.2 11.5,-0.2 18.2,-0.2 23.6,-0.5 26,-1.7 l 1.2,-0.6 0.8,0.8 c 0.8,0.7 0.8,0.8 2.5,0.6 l 1.7,-0.2 1.3,-1.5 1.3,-1.5 -0.2,-1.6 c -0.4,-4.3 -0.4,-4.1 -1.2,-4.1 -1,0 -2.3,-0.6 -2.7,-1.2 -0.4,-0.7 -0.4,-3.2 0,-3.8 0.3,-0.6 1.2,-1 2.2,-1 0.5,0 0.7,-0.1 0.8,-0.5 0.7,-3.3 0.8,-4.8 0.4,-5.1 -0.1,-0.1 -0.7,0.3 -1.3,0.8 -1.3,1.2 -2.3,1.3 -3.2,0.4 -0.5,-0.5 -0.6,-0.8 -0.6,-2.2 0,-2.2 0.4,-3.1 1.8,-3.7 0.6,-0.3 1.1,-0.6 1.2,-0.6 0.1,0 0.1,-0.8 0.1,-1.6 0,-1.4 0,-1.5 1.1,-2.4 1,-0.9 1.1,-0.9 0.5,-0.9 -0.4,0 -1,-0.2 -1.5,-0.5 -0.7,-0.5 -0.9,-0.8 -1.2,-2.1 -0.2,-0.9 -0.3,-2.5 -0.3,-3.7 0.1,-1.9 0.1,-2.2 0.7,-2.7 0.3,-0.3 1.1,-0.8 1.8,-1 0.9,-0.3 1.2,-0.6 1.3,-1 0.2,-0.7 0.2,-0.8 -1.2,-1 -0.7,-0.1 -1.4,-0.5 -1.8,-0.8 -0.5,-0.5 -0.6,-0.8 -0.6,-1.9 0,-0.7 -0.1,-1.5 -0.3,-1.7 -0.3,-0.4 -0.4,-0.4 -2.6,0.1 -1.5,0.3 -3.4,1.1 -5.5,2.1 -1.8,0.8 -3.6,1.6 -4.1,1.7 -1.2,0.2 -4.9,-0.5 -6.9,-1.4 -1.3,-0.5 -2.4,-0.8 -4.3,-0.9 -3.5,-0.3 -4.6,-0.1 -5.9,1.2 -0.7,0.7 -1.6,0.9 -2.4,0.8 -0.5,-0.1 -2,0.3 -4.6,1.1 -2.1,0.7 -4.3,1.2 -4.8,1.2 -0.5,0 -1.8,-0.4 -3,-0.9 -3.3,-1.4 -4.5,-1.6 -8.3,-1.5 -1.8,0.1 -3.7,0.2 -4.1,0.3 -0.6,0.1 -1,0.1 -1.7,-0.4 -0.6,-0.3 -1,-0.4 -1,-0.3 -0.2,0.5 -1.3,1.7 -1.8,1.8 -0.3,0.1 -0.9,0 -1.5,-0.3 -0.8,-0.4 -1.1,-0.4 -2,-0.1 -0.6,0.2 -1.3,0.4 -1.6,0.4 -0.3,0.1 -0.9,0.4 -1.2,0.7 -0.6,0.6 -1.1,0.7 -4.3,0.2 -2.5,-0.3 -3,-0.2 -2.8,0.9 l 0.1,0.7 3.2,0.1 c 1.9,0.1 3.4,0.2 3.7,0.4 0.8,0.4 1.3,1.5 1.3,2.8 0,0.9 -0.1,1.2 -0.6,1.5 -1.1,0.7 -2.2,0.9 -5.3,0.9 -2.4,0 -3.1,0.1 -3.3,0.4 -0.5,0.8 -0.3,0.9 3.9,1.1 3.9,0.2 4.4,0.4 4.4,2 0,1.3 -0.8,1.9 -3.2,2.2 -3,0.4 -4.2,0.7 -4.7,1.2 -0.8,0.7 -0.4,1.7 0.6,1.7 0.3,0 1.2,-0.4 2,-0.8 2.9,-1.6 4.8,-1 4.8,1.6 0,1.1 -0.1,1.3 -1,2.2 -0.6,0.5 -1.7,1.5 -2.4,2.1 -1.4,1.1 -2,2.1 -1.3,2.1 0.2,0 1,-0.2 1.8,-0.5 3.7,-1.3 4.6,0.1 3,4.4 -0.8,2.2 -1.4,2.8 -2.8,2.8 -0.7,0 -0.7,0.1 -0.3,1 0.9,1.6 0.2,2.8 -2.9,4.4 -1.5,0.8 -2.2,1.5 -1.8,1.8 0.1,0.1 1.2,-0.4 2.5,-1 3.6,-1.7 5.1,-1.5 5,0.7 0,0.6 -0.2,1.3 -0.3,1.6 -0.1,0.3 -0.2,1 -0.1,1.7 l 0.2,1.3 4.2,0.2 c 2.3,0.1 7.4,0.2 11.2,0.3 3.9,0.1 7.1,0.2 7.1,0.2 0.1,0.1 0,0.2 -0.2,0.3 -0.3,0.5 0.1,0.5 3.5,0.1 z m 21.4,-2.8 c -2.5,-0.3 -7.8,-3.2 -9.8,-5.4 -2.4,-2.5 -3.1,-5.1 -3.1,-11.1 0,-3.8 0.1,-4.6 0.6,-6.4 1.6,-5.7 4.1,-9.2 7.7,-11.4 3.6,-2.1 7.2,-2.4 10.3,-0.9 2.9,1.4 4.4,3.5 6,8.8 1.2,3.9 1.1,11.4 -0.3,16.7 -1.8,7.2 -5.7,10.4 -11.4,9.7 z m -52.9,-9.3 c -0.2,-0.1 -0.6,-0.1 -0.9,0 -0.2,0.1 0,0.1 0.4,0.1 0.4,0 0.7,0 0.5,-0.1 z M 104.5,525.7 c 0.4,-0.2 0.8,-0.5 1,-0.7 0.5,-0.5 1.8,-0.5 3,0.1 0.6,0.3 1.5,0.5 2.2,0.5 2.2,0 8.8,-0.6 10.5,-1.1 1,-0.2 2.3,-0.5 3,-0.6 0.7,-0.1 1.6,-0.4 2.1,-0.6 1.5,-0.8 1.8,-1.5 1.9,-6.1 0.1,-3.7 0.2,-4.2 0.8,-5.4 0.5,-1 0.6,-1.5 0.5,-2 -0.3,-1.4 0.1,-5.5 0.9,-7.9 0.7,-2.1 0.7,-2.3 0.4,-3.9 -0.2,-0.9 -0.6,-2.4 -1,-3.3 -0.9,-2 -0.9,-3.2 -0.2,-5 0.4,-1.1 0.5,-1.6 0.3,-3 -0.1,-0.9 -0.2,-2.9 -0.2,-4.4 0,-2.6 0,-2.7 -0.8,-3.6 -0.4,-0.5 -1.3,-1.2 -2.1,-1.6 -1.3,-0.6 -1.4,-0.7 -5.6,-0.7 -3.8,0 -4.5,-0.1 -6.5,-0.6 -1.2,-0.3 -2.5,-0.6 -2.9,-0.6 -1.6,0 -2.6,-0.5 -4,-1.9 -1.5,-1.5 -2,-1.7 -3.6,-1.1 -0.5,0.2 -1.2,0.4 -1.6,0.4 -1.3,0 -5.8,-1.7 -6.9,-2.6 -0.5,-0.4 -1,-0.8 -1.1,-0.8 -0.1,0 -0.7,0.2 -1.5,0.4 -1.2,0.4 -1.4,0.4 -2.1,0 -0.6,-0.3 -0.9,-0.7 -1.3,-1.5 -0.4,-0.9 -0.6,-1.1 -1.3,-1.3 -0.5,-0.1 -1.1,-0.2 -1.3,-0.2 -0.5,0 -1.1,-0.6 -1.3,-1.3 -0.3,-1 -1.3,-1.5 -5.9,-2.9 -6.1,-1.8 -7,-2 -7.9,-2 -1,0 -1.7,-0.5 -1.9,-1.3 -0.2,-0.7 -0.3,-0.7 -2.7,0.3 -1.5,0.7 -1.8,1 -2.4,3 -0.3,1 -0.3,1.2 0.1,1.7 0.2,0.3 0.4,1 0.4,1.8 0,1 0.1,1.4 0.6,2 1.1,1.3 0.7,2.8 -1.1,3.9 -1.1,0.7 -1.2,1.1 -0.6,2.2 0.3,0.6 0.3,1 0.1,1.9 -0.4,1.5 -0.2,2 0.9,2.7 1.5,0.9 1.7,1.6 0.6,3.1 -0.7,1 -0.7,1.2 -0.7,3.8 0,2.7 0,2.8 0.6,3.3 0.7,0.6 1.1,1.7 1.1,3.3 0.1,1 -0.3,1.6 -1,2.1 -0.2,0.1 -0.3,0.3 -0.3,0.5 0,0.2 -0.3,0.9 -0.6,1.7 -0.6,1.3 -0.6,1.6 -0.5,3.3 0.1,1.6 0.3,2 0.8,2.6 0.7,0.9 1.4,2.8 1.4,4.2 0,0.9 -0.1,1.1 -0.8,1.7 l -0.8,0.7 -0.3,3.6 c -0.2,2 -0.2,3.9 -0.1,4.3 0.2,1 0.8,1.8 1.3,1.8 0.2,0 0.9,0.3 1.4,0.6 l 0.9,0.6 0.6,-0.6 c 1.6,-1.4 2.7,-1.5 4.5,-0.2 1.6,1.2 6.7,2.9 8.5,2.9 1.8,0 4,0.5 5.3,1.1 1.8,0.9 2.7,1.1 3.9,0.7 1.4,-0.5 1.7,-0.4 3.3,0.3 1.5,0.6 2.9,0.8 3.7,0.4 0.4,-0.2 0.7,-0.1 1.3,0.2 1,0.5 3.3,1.3 3.9,1.3 0.3,0.1 0.8,0 1.1,-0.2 z M 83.7,513.3 c -3.6,-0.5 -6.7,-2.9 -8.7,-6.8 -1.5,-3.1 -1.9,-4.6 -1.8,-8.4 0,-3.5 0.4,-5.2 1.8,-8.8 1,-2.5 3.5,-6.6 4.8,-7.9 2.9,-2.8 7.3,-3.4 11.3,-1.6 3.8,1.8 6.1,5.3 6.9,10.6 0.5,3.3 0.4,5.4 -0.3,9.8 -0.7,4.4 -1,5.6 -2.3,7.9 -1.7,3.2 -4,4.8 -7.5,5.2 -2.1,0.3 -2,0.3 -4.2,0 z m 261.7,12 c 1.3,-0.3 2.9,-0.8 3.7,-1.2 1,-0.5 1.6,-0.7 2.4,-0.6 0.9,0.1 1.1,0 1.8,-0.6 2,-1.7 6.6,-1.8 11.4,-0.4 1.1,0.3 2.9,0.8 4,1.1 l 2,0.4 2.5,-1.2 c 1.4,-0.7 3.3,-1.7 4.4,-2.3 2.5,-1.4 2.6,-1.4 3,-1 0.4,0.4 0.5,0.4 1.1,0 0.9,-0.5 1.3,-0.5 2.5,0.1 0.9,0.5 1,0.5 1.4,0.1 0.5,-0.5 0.8,-2 0.8,-4.1 V 514 l -3.4,1.1 c -4.2,1.3 -6,1.5 -7,0.8 -0.4,-0.3 -0.8,-0.8 -0.9,-1 -0.4,-1 0.6,-2.5 2.3,-3.3 0.9,-0.5 0.9,-0.5 0.8,-1.4 -0.3,-1.6 -0.2,-2.4 0.4,-3.1 0.5,-0.5 0.7,-0.6 1.7,-0.5 0.6,0.1 2,0.2 3.1,0.3 1.7,0.1 2,0.1 2.3,-0.3 0.5,-0.6 0.4,-1 -0.3,-1.7 -0.5,-0.5 -0.9,-0.6 -1.8,-0.6 -0.7,0 -1.8,-0.2 -2.4,-0.4 -1.5,-0.4 -2,-1.3 -1.6,-2.5 0.3,-0.9 1.1,-1.3 3.3,-1.3 2,0 3,-0.2 3,-0.5 0,-0.4 -1.6,-0.9 -3.5,-1.1 -2.2,-0.3 -3.4,-0.8 -4.3,-1.8 -0.7,-0.9 -0.8,-1.6 -0.1,-2.4 0.7,-0.9 1.5,-0.8 3.2,0.2 1,0.6 1.6,0.8 2.3,0.8 1.4,0 1.6,-0.2 1.5,-1.7 0,-0.7 0,-1.8 0.2,-2.4 0.2,-1 0.1,-1.2 -0.3,-1.7 -0.5,-0.5 -0.7,-0.5 -2.4,-0.4 -2.2,0.2 -3.5,-0.1 -4.1,-0.9 -0.5,-0.7 -0.5,-1.3 0.1,-1.9 0.5,-0.5 0.7,-0.5 3.6,-0.3 2.8,0.1 3.2,0.1 3.5,-0.2 0.3,-0.4 0.3,-0.5 -0.4,-1 -1,-0.8 -1.9,-0.9 -3.3,-0.5 -1.5,0.5 -2.4,0.2 -2.8,-0.9 -1.5,-3.4 -1.6,-3.8 -1.5,-4.3 0.3,-0.9 1,-1.8 1.9,-2.2 0.8,-0.4 1,-0.4 2.4,0 1.8,0.4 3.4,0.5 3.4,0.1 0,-0.1 -0.4,-0.7 -0.9,-1.2 -0.5,-0.6 -0.9,-1.2 -0.9,-1.4 0,-0.2 0.4,-0.7 0.9,-1.2 1.1,-1.1 1.4,-2 0.7,-2.4 -0.6,-0.5 -2.3,-0.4 -3.9,0.2 -1.7,0.6 -3.2,0.6 -5,0.1 -1.6,-0.4 -2.5,-1.2 -2.5,-2.4 0,-1.4 1.1,-2 4.3,-2.3 3.6,-0.4 5.8,-1.5 5.8,-3 0,-1.4 -1.7,-1.4 -4.7,0.1 -1.2,0.6 -2.5,1.1 -2.7,1.1 -0.3,0 -0.8,0.2 -1.2,0.4 -0.7,0.3 -0.8,0.3 -1.5,-0.3 l -0.8,-0.6 -0.6,0.8 c -0.8,1.1 -1.8,1 -3,-0.1 -0.5,-0.5 -1,-0.8 -1.1,-0.8 -0.1,0 -0.4,0.3 -0.6,0.7 -0.2,0.4 -0.6,0.8 -0.8,1 -0.8,0.6 -3.9,1.1 -7.9,1.3 -10,0.5 -8.9,0.5 -9.9,-0.1 -1.1,-0.7 -1.3,-0.8 -2,-0.1 -1.1,1 -2.1,1.1 -6.6,1 -2.3,-0.1 -4.5,-0.2 -4.8,-0.4 -0.4,-0.1 -0.9,-0.6 -1.3,-0.9 -0.8,-0.9 -1.4,-0.9 -2.3,-0.1 -1.2,1 -1.9,1.2 -3.3,0.7 -1.9,-0.6 -2.6,-0.4 -5.4,1.7 -1.7,1.2 -2.7,1.8 -3.4,1.9 -1.7,0.3 -2.1,0.5 -2.9,1.7 -0.7,1.1 -0.7,1.4 -0.8,3.7 0,2.6 -0.3,3.3 -1.3,3.8 -0.5,0.3 -0.5,0.3 0.2,1.1 0.9,1 1.3,2.3 1.3,4.8 0,1.6 -0.1,2.1 -0.5,2.7 -1,1.3 -1,2.2 -0.4,4.1 0.9,2.5 0.8,3.6 -0.3,4.8 -0.8,0.8 -0.8,1 -0.6,1.5 0.7,1.2 0.7,1.9 0.2,3.3 -0.6,1.5 -0.5,1.7 0.7,4.1 1.2,2.4 1.2,3.6 -0.2,8 -0.6,1.8 -1.1,3.8 -1.2,4.4 -0.1,1 -0.1,1.2 0.6,1.8 0.4,0.4 1,0.9 1.3,1.1 0.5,0.4 0.6,0.5 0.5,1.9 -0.1,1.7 0.2,2 1.4,1.4 1,-0.5 2.3,-0.5 3.1,0.1 0.3,0.3 0.7,0.5 0.8,0.5 0.1,0 0.4,-0.5 0.7,-1.1 0.3,-0.6 0.8,-1.4 1.1,-1.7 l 0.5,-0.6 1.1,1.1 c 0.6,0.6 1.2,1.1 1.3,1.1 0.1,0 0.5,-0.3 0.8,-0.6 0.4,-0.5 0.7,-0.6 1.2,-0.5 1.7,0.4 3.8,0.6 5.5,0.6 1,0 2.3,0.2 2.8,0.4 0.5,0.2 1.5,0.5 2,0.6 0.6,0.1 1.6,0.5 2.2,0.8 0.6,0.3 1.4,0.5 1.6,0.5 0.2,0 1.5,-0.5 2.8,-0.8 z m 4.9,-6.7 c -3.5,-0.6 -7.9,-4.2 -10.2,-8.4 -1.2,-2.2 -1.8,-4.2 -2.1,-6.9 -1.1,-8.7 2.9,-17 9.7,-20.3 2.4,-1.2 4.3,-1.5 7.5,-1.4 2.5,0.1 3,0.2 4.4,0.8 2.9,1.3 4.1,3 6.4,8.4 1.6,3.8 2,5.7 2.2,9.5 0.2,4.1 -0.2,6 -1.8,9.2 -1.4,2.8 -4.2,5.7 -6.8,7 -3.6,1.7 -6.9,2.5 -9.3,2.1 z M 132.5,475.7 c -2.5,-1.3 -3,-1.9 -2.8,-3.6 0.1,-0.6 0.4,-1.4 0.7,-1.8 l 0.6,-0.8 -0.5,-1 c -0.3,-0.5 -0.5,-1.2 -0.5,-1.4 0,-0.7 1,-1.1 3.1,-1.2 2.1,-0.2 2.8,-0.3 2.8,-0.6 0,-0.1 -0.4,-0.3 -0.8,-0.4 -1.9,-0.4 -5.3,-1.6 -5.8,-2.1 -0.7,-0.6 -0.8,-2.2 -0.1,-2.9 0.3,-0.4 0.8,-0.4 2.6,-0.4 2,0 3.2,-0.2 2.8,-0.6 -0.1,-0.1 -1.2,-0.2 -2.5,-0.3 -2.7,-0.2 -3.4,-0.6 -3.4,-1.9 0,-0.4 0.1,-0.9 0.3,-1 0.2,-0.1 1.8,-0.2 3.6,-0.2 2.2,0 3.3,-0.1 3.5,-0.3 0.2,-0.2 0.2,-0.4 0.1,-0.5 -0.1,-0.1 -1.4,-0.5 -2.9,-0.8 -1.6,-0.4 -3,-0.9 -3.2,-1.1 -0.3,-0.3 -0.5,-0.9 -0.6,-1.6 -0.1,-1.1 -0.1,-1.1 1.1,-2.2 0.7,-0.7 1.3,-1.4 1.5,-2 0.3,-1.1 1.1,-1.5 2.4,-1.3 0.9,0.1 0.9,0.1 0.8,-0.3 -0.1,-0.3 -0.3,-0.9 -0.3,-1.4 -0.1,-1.1 0.5,-1.8 2,-2.3 1.1,-0.3 1.1,-0.9 0.2,-1.4 -1.5,-0.7 -2.8,-0.3 -3.7,1.3 -0.6,1.2 -3.2,2 -3.9,1.2 -0.1,-0.2 -0.5,-1.3 -0.9,-2.6 -0.4,-1.3 -0.9,-3 -1.2,-4 -0.6,-2 -0.5,-3.1 0.4,-4.1 0.5,-0.5 0.7,-0.6 1.2,-0.5 0.8,0.2 1.1,0.5 1.8,1.8 0.4,0.6 0.7,1.2 0.9,1.2 0.1,0 0.2,-1 0.2,-2.3 0,-2 0.1,-2.4 0.5,-2.8 0.3,-0.3 0.8,-0.5 1.1,-0.5 0.4,0 0.7,-0.2 1,-0.7 0.4,-0.7 0.4,-0.7 -0.3,-1 -0.5,-0.2 -0.9,-0.2 -1.8,0.1 -1.7,0.6 -2.9,0.5 -3.4,-0.2 -0.8,-1 -1.2,-3.5 -0.8,-5.5 0.2,-0.9 0.3,-2 0.4,-2.5 0.2,-1.4 0.8,-1.7 3.6,-1.6 2.4,0.1 2.5,0.1 2.4,-0.5 -0.1,-0.7 -1.1,-1 -3.6,-0.8 -2.9,0.2 -3,0.1 -3.1,-3 0,-1.4 0,-2.7 0.1,-2.9 0.2,-0.7 1.6,-1.1 5.4,-1.5 2.7,-0.3 3.8,-0.5 4.2,-0.9 0.5,-0.4 0.5,-0.5 0.2,-0.7 -0.5,-0.4 -1.5,-0.3 -4.7,0.2 -4,0.7 -4.6,0.6 -5.7,-0.3 -0.8,-0.6 -1.2,-0.8 -3,-1 -1.5,-0.2 -2.4,-0.2 -3.2,0 -1.6,0.4 -2.6,0.3 -4.1,-0.3 -1.6,-0.7 -2.5,-0.8 -3.5,-0.2 -0.6,0.3 -0.9,0.4 -1.4,0.2 -0.5,-0.2 -1.3,-0.1 -2.8,0.1 -1.7,0.3 -2.9,0.3 -6.4,0 -2.3,-0.2 -4.7,-0.4 -5.3,-0.5 -0.9,-0.2 -1.2,-0.2 -2.3,0.4 -0.7,0.3 -1.5,0.6 -1.7,0.6 -0.2,0 -1,-0.3 -1.8,-0.7 -1,-0.5 -1.6,-0.7 -2.1,-0.6 -3.8,0.8 -3.8,0.8 -9.7,-0.4 -1.5,-0.3 -1.8,-0.2 -4.5,1.4 -1.4,0.8 -2.1,0.8 -3.3,-0.2 -1.2,-1.1 -2,-1.3 -3.9,-1.3 -1.8,0 -2,0.2 -1.7,2.3 0.2,2 0.3,2.2 0.9,2.2 0.9,0 1.4,0.7 1.4,2.1 0,1.1 -0.1,1.3 -0.6,1.7 -0.3,0.3 -1,0.5 -1.5,0.6 -0.9,0.2 -0.9,0.2 -0.7,0.9 0.2,0.7 0.2,1.5 0,4.9 -0.1,1.8 0.2,3 0.7,3 0.8,0 1.5,0.7 1.7,1.6 0.2,1.2 -0.2,1.9 -1.4,2.3 -1.3,0.4 -1.4,0.7 -0.8,2.8 0.4,1.4 0.6,1.6 1.3,1.9 0.4,0.2 0.9,0.6 1.1,0.9 0.2,0.5 0.2,0.7 -0.5,1.5 -0.9,1 -0.9,1.1 -0.5,3.6 0.3,2 0.1,2.5 -0.9,2.5 -1.1,0 -1.7,2.7 -0.9,4.1 0.2,0.3 0.4,1 0.4,1.5 0,0.9 0.3,1.2 1.3,1.2 0.9,0 1.6,0.7 1.6,1.4 0,0.5 -0.3,1 -1.1,1.7 -1.8,1.7 -2,3.1 -1.5,7.6 l 0.1,1 0.9,-0.6 c 0.5,-0.3 1.2,-0.7 1.6,-0.7 0.7,-0.2 0.8,-0.1 2.6,1.8 0.2,0.2 0.8,0.5 1.2,0.6 0.5,0.1 3,0.8 5.6,1.6 2.6,0.8 5.1,1.5 5.5,1.6 0.7,0.2 1.9,1.1 3.3,2.7 0.3,0.3 0.7,0.5 1.3,0.5 1,0 2,0.7 2.2,1.7 0.1,0.4 0.4,0.9 0.6,1.1 0.4,0.4 0.6,0.3 1.9,-0.1 0.8,-0.3 1.5,-0.5 1.6,-0.5 0.1,0 0.7,0.5 1.4,1 0.8,0.7 1.5,1.1 2.2,1.2 0.5,0.1 1.7,0.4 2.5,0.8 l 1.6,0.6 1.2,-0.5 c 1.8,-0.7 2.5,-0.5 4.6,1.3 1.8,1.6 2,1.6 4.6,1.9 0.7,0.1 1.8,0.4 2.5,0.6 1,0.4 2,0.5 8.2,0.7 6.3,0.2 7.3,0.3 8.5,0.7 2.2,1.1 2.3,0.8 0,-0.3 z m -46,-25.5 c -0.9,-0.2 -2.9,-0.9 -4.3,-1.6 -4.1,-2 -6.7,-4.9 -7.8,-8.9 -0.5,-2 -0.4,-6.5 0.4,-9.3 0.7,-2.5 2.6,-6.4 3.9,-7.8 2,-2.2 4.6,-3.4 8,-3.8 4.7,-0.5 8.2,0.6 11.4,3.5 3.3,3 4.9,6.3 5.1,10.2 0.2,4.3 -1.8,10.9 -4.2,13.7 -1.3,1.5 -3.5,3 -5.2,3.6 -1.9,0.7 -5.1,0.9 -7.3,0.4 z m 233.4,19.1 c 0.4,-0.1 1.6,-0.9 2.7,-1.8 2.3,-1.7 3.4,-2.2 4.8,-2 3,0.5 2.8,0.5 3.6,-0.3 1.1,-1.1 2.2,-1 3.7,0.2 0.6,0.5 1.3,1 1.6,1 0.2,0 2.2,0.1 4.4,0.1 l 3.9,0.1 1.3,-0.8 c 0.7,-0.5 1.5,-0.8 1.7,-0.8 0.2,0 0.9,0.3 1.5,0.7 0.9,0.6 1.4,0.7 2.9,0.7 1,0 2.1,-0.1 2.3,-0.2 0.3,-0.2 2.1,-0.3 4.3,-0.3 4.8,0 6,-0.3 7.5,-1.8 1,-1 1.2,-1.1 2,-0.9 0.6,0.1 1.1,0.4 1.6,0.9 0.8,0.9 1.1,0.8 1.3,-0.3 0.2,-1.1 0.5,-1.4 1.4,-1.4 0.8,0 1.7,0.7 1.7,1.3 0,0.4 0.3,0.4 2,0.1 0.7,-0.1 1.6,-0.5 2,-0.8 0.8,-0.7 2.1,-1.1 3.8,-1.1 1.8,0 2.6,-0.7 2.5,-2 -0.1,-0.7 -0.2,-1.1 -0.6,-1.2 -1.5,-0.8 -1.8,-1.2 -1.8,-1.8 0,-0.4 0.2,-0.8 0.4,-1 0.3,-0.3 0.4,-0.6 0.2,-1.7 -0.1,-1 0,-1.5 0.2,-2 0.2,-0.4 0.7,-1.4 1,-2.2 l 0.6,-1.5 -0.5,-1.6 c -0.3,-0.9 -0.6,-2.8 -0.8,-4.2 -0.5,-4.6 -0.4,-4.5 -1.2,-5.1 -1.9,-1.4 -2.2,-1.8 -2.2,-2.9 0,-1.2 0.4,-1.7 1.7,-1.9 1.2,-0.2 1.7,-0.8 1.7,-1.9 0,-1 -0.7,-1.9 -2.2,-2.6 -1.6,-0.8 -1.4,-2.2 0.7,-4.4 l 1.5,-1.5 -0.1,-2.7 c 0,-2.5 0.2,-3.8 0.9,-5.8 0.1,-0.3 -0.1,-0.4 -0.8,-0.5 -0.5,-0.1 -1.8,-0.4 -2.8,-0.6 -1,-0.3 -2.1,-0.5 -2.4,-0.5 -0.3,0 -1.5,0.4 -2.7,1 l -2.1,1 h -3.3 c -1.9,0 -3.7,-0.2 -4.2,-0.3 -0.7,-0.3 -1.1,-0.2 -2.3,0.2 -1.1,0.3 -2.5,0.5 -5.7,0.6 -3.9,0.1 -4.3,0.1 -5.4,-0.4 -0.7,-0.3 -1.3,-0.5 -1.4,-0.5 -0.1,0 -0.8,0.5 -1.5,1.2 -1.7,1.5 -3.5,2.4 -5.4,2.6 -1.8,0.2 -7.2,-0.4 -8.2,-0.8 -0.4,-0.2 -1.3,-0.4 -2,-0.6 -0.7,-0.2 -1.5,-0.5 -1.8,-0.8 -0.4,-0.3 -0.7,-0.4 -1.3,-0.3 -0.4,0.1 -2.7,0.2 -5.1,0.4 -5.5,0.3 -6.5,0.6 -8.3,2.3 -2.1,2 -2.4,3.3 -1.7,6 0.5,2.1 0.5,2.8 -0.3,3.6 -1,1 -1.3,3 -0.6,3.7 0.9,1 1.1,1.6 1.1,4 0,2.6 -0.3,4.1 -0.9,4.6 -0.5,0.4 -0.5,1.1 0.2,2.4 0.5,1.1 0.7,2.3 0.4,4.8 0,0.5 0,1.8 0.1,2.9 0.1,1.4 0.1,2.6 -0.1,3.7 -0.3,1.5 -0.3,1.6 0.2,2.2 2,2.4 2.3,4 1.2,6.3 -0.7,1.5 -0.9,3.8 -0.4,5.3 0.3,1 1.3,2.1 2,2.2 0.3,0.1 0.5,0.1 0.6,0.1 0.2,-0.1 0.6,-0.2 0.9,-0.4 z m 41.6,-16.5 c -2.6,-0.4 -4.4,-0.9 -5.7,-1.7 -2.6,-1.6 -4.8,-4.6 -5.9,-7.8 -0.6,-1.8 -0.7,-2.3 -0.7,-5.5 0,-4 0.5,-6.6 1.7,-9.2 1.5,-3.1 4.2,-5.6 7.2,-6.5 2.9,-0.9 8.4,-0.3 11.2,1.2 2.6,1.4 4.4,3.8 5.2,6.7 0.5,2 1.4,8.6 1.1,8.7 -0.1,0.1 -0.3,1 -0.3,2 -0.3,3.4 -2,8.3 -3.6,10 -0.4,0.5 -1.4,1.2 -2.2,1.6 -1.3,0.6 -1.7,0.7 -4.3,0.7 -1.7,-0.1 -3.3,-0.1 -3.7,-0.2 z m -15.1,-38.1 c 0.5,-0.2 1.7,-1.1 2.6,-1.9 1.8,-1.6 2.6,-1.8 3.9,-0.9 0.7,0.4 1.2,0.5 4.8,0.5 3.6,0 4.3,-0.1 5.4,-0.5 0.9,-0.4 1.6,-0.5 2.4,-0.4 0.6,0.1 2.5,0.3 4.3,0.4 l 3.2,0.3 2,-0.9 c 1.7,-0.8 2.2,-0.9 3.6,-0.9 0.9,0 2.1,0.2 2.7,0.4 1.4,0.5 1.8,0.2 1.7,-1.1 -0.1,-0.9 -0.1,-1 -1.3,-1.3 -1.1,-0.4 -1.2,-0.5 -1.3,-1.2 0,-0.4 0.1,-1.1 0.3,-1.5 0.2,-0.4 0.4,-1.2 0.4,-1.8 0,-0.6 0.2,-1.5 0.5,-2 0.3,-0.5 0.5,-1.4 0.5,-2 0,-0.9 -0.1,-1 -0.6,-1 -0.9,0 -2.1,-0.7 -2.2,-1.3 -0.3,-1.2 0,-1.7 1,-2.1 1.4,-0.5 1.4,-0.6 1,-1.4 -0.6,-1 -0.5,-1.4 0.5,-2.3 1.4,-1.4 1.1,-2.4 -0.7,-2.2 -1.4,0.2 -2,-0.1 -2.5,-1.3 -0.4,-0.9 -0.4,-1 0,-1.9 0.3,-0.6 0.9,-1.1 1.9,-1.7 0.8,-0.4 1.6,-1 1.8,-1.2 0.2,-0.2 0.3,-1.2 0.3,-2.5 v -2 l -0.9,0.2 c -1.9,0.5 -3.2,-0.4 -3.2,-2.1 0,-1.2 0.4,-1.7 1.9,-2.2 1.3,-0.4 1.8,-1.4 2,-3.9 l 0.2,-1.9 -1.2,0.2 c -2.1,0.3 -2.8,-0.7 -2.8,-4 0,-1.8 0.3,-2.3 1.7,-2.5 0.6,-0.1 0.9,-0.4 1.6,-1.6 0.5,-0.8 0.9,-1.7 0.9,-2 0,-0.8 -0.7,-2.1 -1.1,-2.3 -0.2,-0.1 -1.9,-0.2 -3.7,-0.4 -1.8,-0.1 -4.1,-0.4 -5.2,-0.6 -2.6,-0.5 -6.6,-0.5 -8.8,0 -1.2,0.3 -2.2,0.4 -3.4,0.3 -1.4,-0.1 -2,-0.1 -3,0.4 -1.5,0.6 -2.7,0.6 -3.7,0.2 -0.4,-0.2 -1.3,-0.4 -2.1,-0.5 -1.8,-0.2 -2.7,-0.7 -3.4,-1.7 -0.3,-0.5 -0.8,-1 -1.2,-1.1 -1.2,-0.4 -2.9,-0.1 -4,0.7 -1.1,0.8 -2.2,1 -3.3,0.5 -0.3,-0.1 -0.9,0 -1.7,0.3 -1.1,0.4 -1.8,0.5 -5.4,0.5 -4.4,0 -5,0.1 -6.1,1 -1.5,1.1 -1.8,1.2 -2.7,0.6 l -0.9,-0.5 -1.1,0.8 c -1.2,0.9 -3.8,2.1 -6.3,2.9 l -1.7,0.6 0.8,0.5 c 1.5,0.9 1.9,2.6 0.9,3.9 -0.5,0.6 -0.5,0.9 -0.4,1.6 0.4,1.8 -0.9,2.3 -3.5,1.3 -1.6,-0.6 -2.3,-0.6 -3,0 l -0.6,0.4 0.8,0.3 c 0.4,0.2 1.3,0.3 1.9,0.3 3.4,0 4.7,0.8 4.7,2.7 0,1.3 -0.7,1.9 -3.2,2.8 -2.5,0.9 -2.7,1 -3.2,1.7 -0.4,0.6 -0.4,0.6 0.5,0.4 0.5,-0.1 1.3,-0.4 1.9,-0.6 1.5,-0.6 2.6,-0.6 3.1,0.1 0.6,0.8 0.5,2 -0.2,3 -0.6,0.9 -0.6,0.9 -0.1,1.6 0.8,1.3 0.6,1.9 -1,3.4 -1,0.9 -1.7,1.4 -2.1,1.4 -0.9,0 -1,0.4 -0.2,0.6 1.1,0.2 2.3,1 2.3,1.6 0,0.6 -0.6,1.9 -1.3,2.6 l -0.5,0.5 h 1.2 c 1,0 1.3,-0.1 1.8,-0.7 0.4,-0.4 0.8,-0.9 0.9,-1.1 0.6,-1.1 2.6,0.6 2.6,2.2 0,0.5 -0.3,1 -1,1.7 -0.9,1 -1,1 -0.8,2.3 0.1,1.2 0.1,1.5 -0.4,2.1 -0.7,1 -0.4,1.5 1.1,1.7 1.4,0.2 1.8,0.6 1.8,2.1 0,1.3 -0.7,2.1 -2.2,2.5 -2.3,0.5 -3.7,1 -3.7,1.2 0,0.1 0.8,0.2 1.9,0.2 2.7,0 3.4,0.7 2.2,2.4 -0.5,0.7 -0.5,0.9 -0.3,2.1 0.2,1.1 0.4,1.3 1.2,1.7 0.5,0.2 1.1,0.7 1.3,1 0.3,0.5 0.3,0.6 0,1.4 l -0.4,0.8 1.5,-0.2 c 0.8,-0.1 3.4,-0.3 5.7,-0.5 2.3,-0.2 4.4,-0.5 4.8,-0.6 1,-0.4 1.5,-0.3 2.2,0.4 0.5,0.5 0.9,0.6 1.9,0.6 0.7,0 1.6,0.2 2,0.4 1.3,0.6 7.9,0.7 9.5,0 z m 14.8,-9.3 c -3.5,-0.5 -7.5,-3.7 -9.4,-7.4 -1.5,-3.1 -1.9,-4.8 -1.9,-9.3 0,-3.3 0.1,-4.1 0.6,-6.1 0.8,-3.1 1.9,-5.4 3.7,-8.4 1.8,-2.9 3.2,-4.4 5.1,-5.2 1.2,-0.5 1.7,-0.6 3.6,-0.6 2,0 2.4,0.1 3.5,0.7 4.8,2.4 6.5,6.7 6.5,16.1 0,6.4 -1,11 -3.2,15.3 -2.1,3.8 -4.7,5.4 -8.5,4.9 z m -285.4,-1 c 0.8,-0.5 1.9,-1 2.4,-1.1 0.5,-0.1 2,0.2 3.5,0.5 2.7,0.7 5,0.8 6.4,0.4 1.6,-0.5 2.9,-0.3 3.9,0.3 1.1,0.8 1.7,0.8 3.3,0.1 1.3,-0.5 1.7,-0.5 6.6,0 3.4,0.4 6.7,0.4 7.6,-0.1 1,-0.5 1.8,-0.5 2.5,0 0.5,0.3 0.6,0.3 1.7,0 1.3,-0.5 2.3,-0.4 3.9,0.4 0.9,0.4 1.3,0.5 2.3,0.4 1.2,-0.2 3.1,-0.2 5.4,-0.1 1.6,0.1 2.7,-0.5 3.9,-2.2 1.1,-1.5 1.1,-2.4 0.3,-4.4 -0.7,-1.8 -0.7,-2.6 -0.1,-3.6 0.5,-0.8 0.5,-1.1 0.3,-3.6 -0.2,-2.9 0.2,-6.1 0.7,-7 0.2,-0.3 0.4,-1 0.4,-1.7 0.1,-0.7 0.3,-1.5 0.6,-1.9 l 0.5,-0.7 -0.6,-1 c -0.7,-1.1 -0.7,-1.4 -0.5,-6.8 0.1,-2 0.3,-3.7 0.5,-4.4 1.2,-3.6 0.6,-6.5 -1.8,-9.7 -1,-1.3 -1.2,-1.4 -4.1,-2.3 -1,-0.3 -2.5,-1 -3.4,-1.6 -1.8,-1.1 -2.1,-1.2 -3.2,-0.8 -0.4,0.1 -2.6,0.4 -5,0.5 -2.4,0.1 -4.9,0.4 -5.7,0.6 -1.8,0.5 -2.7,0.5 -4,-0.1 -1.1,-0.5 -1.2,-0.5 -2.6,-0.1 -0.8,0.2 -2.1,0.7 -3,1.1 -2,0.9 -4.4,1.1 -7.3,0.5 -2.4,-0.5 -3.2,-0.5 -4.4,0 -1.4,0.6 -2.9,0.3 -4.1,-0.6 -1.4,-1.1 -2.3,-1.4 -5.1,-1.8 -1.9,-0.3 -2.8,-0.6 -4.4,-1.4 -2.2,-1.1 -2.7,-1.1 -4,-0.1 -0.9,0.8 -0.9,1 0,1.9 0.4,0.4 0.7,0.9 0.7,1.1 0,0.2 -0.5,0.9 -1.1,1.5 -1.3,1.2 -1.3,1.7 -0.5,2.8 0.5,0.7 0.7,0.8 1.7,0.8 0.6,0 1.9,-0.2 2.9,-0.3 2.1,-0.4 2.9,-0.2 3.5,0.7 0.5,0.8 0.2,1.8 -0.6,2.1 -0.4,0.1 -2.2,0.5 -4,0.9 -1.8,0.3 -3.4,0.7 -3.5,0.8 -0.1,0.1 0.1,0.5 0.6,0.8 0.7,0.6 0.8,0.8 0.6,1.6 -0.1,0.8 -0.1,1 0.8,1.8 1.5,1.3 1.3,2.4 -0.6,3.1 -1.4,0.5 -0.1,0.5 1.7,0 3.4,-1 5.9,-0.5 6,1.1 0.1,1.4 -0.8,1.7 -6.1,2.1 -1.7,0.1 -2.7,0.4 -2.4,0.7 0.1,0.1 1.3,0.2 2.7,0.4 1.4,0.1 2.8,0.4 3.2,0.6 0.9,0.4 1.4,1.4 1.1,2.3 -0.3,0.9 -1.5,1.3 -4.4,1.5 -1.2,0.1 -2.2,0.2 -2.1,0.3 0,0.1 0.2,0.6 0.4,1.2 0.4,1 0.4,1.1 -0.1,2.1 -0.5,0.9 -0.5,1.1 -0.2,2.2 0.2,0.8 0.4,1.3 0.7,1.5 0.3,0.1 1.5,0.2 2.7,0.2 2.5,0 3.6,0.3 4.4,1.3 0.7,0.9 0.7,1 -0.3,1.6 -0.7,0.4 -1.1,0.5 -3.6,0.3 -2.4,-0.1 -2.9,-0.1 -3.2,0.2 -0.3,0.3 -0.2,0.4 0.5,0.9 0.5,0.3 0.9,0.5 1,0.5 0.2,0 0.3,0.3 0.6,1.5 l 0.2,0.7 h 2.3 c 1.7,0 2.4,0.1 2.7,0.4 0.6,0.5 0.6,1.3 0,2 -0.4,0.5 -0.7,0.6 -4.7,0.8 -4.8,0.3 -4.9,0.3 -4.9,2.3 0,2.1 0.7,2.8 2.7,2.8 0.9,0 1.7,0.4 2.8,1.5 0.4,0.4 0.8,0.7 1.1,0.7 -0.3,0 0.5,-0.5 1.3,-1 z M 90.9,397 c -4.5,-1.5 -8.2,-5.8 -9.4,-10.8 -0.5,-2.2 -0.4,-4.5 0.4,-8.2 0.7,-3.3 1.4,-5 3.1,-7.1 2.3,-2.9 5.8,-5.2 8.5,-5.5 2.6,-0.3 5.8,0.8 8,2.7 1.6,1.5 2.5,3.3 3.2,6.2 0.4,1.9 0.5,2.9 0.3,5.9 -0.3,6.8 -1.6,10.5 -5,14.1 -2.3,2.4 -3.7,3.1 -6.1,3.1 -1,0 -2.3,-0.1 -3,-0.4 z m 227.9,-39.6 c 0.7,-0.3 1.7,-0.9 2.1,-1.2 1.4,-1.1 1.8,-1.1 2.7,-0.8 0.8,0.3 0.9,0.3 2.4,-0.4 l 1.5,-0.8 h 4.1 c 3.7,0 4.2,-0.1 5.7,-0.6 1.5,-0.5 1.7,-0.5 2.7,-0.2 0.9,0.3 1.1,0.3 1.7,-0.1 1.5,-0.9 2.7,-1.4 3.8,-1.4 1.6,0 2.9,0.6 3.6,1.5 0.7,1 1.9,1.6 3.2,1.6 0.5,0 1.2,0.2 1.6,0.4 0.9,0.5 1.8,0.4 3.4,-0.2 1.2,-0.5 1.7,-0.6 3.1,-0.5 1,0.1 2.8,0 4.4,-0.3 3.3,-0.5 4.3,-0.5 6.6,0 1,0.2 3.2,0.5 5,0.7 1.8,0.2 3.3,0.4 3.4,0.5 0.4,0.3 1.2,-0.2 1.6,-0.9 0.5,-1 0.5,-1.2 -0.7,-1.2 -1.8,0 -2.7,-0.5 -3,-1.4 l -0.3,-0.8 h -2.2 c -2.1,0 -4.1,-0.4 -4.7,-0.9 -0.4,-0.3 -0.4,-1.3 0,-1.6 0.9,-0.8 6.5,-0.5 8.3,0.4 2.7,1.4 4.2,0.1 3,-2.4 -0.3,-0.5 -0.6,-1 -0.7,-1 -0.1,0 -0.4,-0.3 -0.6,-0.7 -0.4,-0.7 -0.4,-0.8 0.2,-1.3 0.3,-0.3 0.7,-0.6 0.9,-0.7 0.2,-0.1 0.2,-0.6 -0.2,-1.9 -0.5,-1.7 -0.6,-1.9 -1.3,-2 -2.1,-0.4 -6.1,-1.9 -6.4,-2.4 -0.8,-1.1 -0.2,-2 1.3,-1.9 0.5,0 1.9,0.5 3.2,1 1.3,0.5 2.5,0.9 2.6,0.9 0.2,-0.1 0.4,-0.5 0.4,-1 0,-0.5 0.2,-2.3 0.5,-4 0.3,-1.7 0.4,-3.2 0.4,-3.3 -0.2,-0.4 -0.9,-0.3 -3.7,0.5 -1.4,0.4 -3.4,0.8 -4.4,0.9 -1.6,0.1 -1.8,0.1 -2.5,-0.4 -0.5,-0.4 -0.7,-0.7 -0.7,-1.4 0,-1.3 0.7,-1.8 1.9,-1.6 1.5,0.3 3.6,0.3 4.7,-0.1 0.6,-0.2 1.4,-0.3 1.8,-0.4 0.9,-0.2 2.5,-2.2 2.3,-3 -0.1,-0.3 -0.2,-1.1 -0.4,-1.8 -0.3,-1.4 -0.5,-1.7 -2.2,-2.2 -2,-0.6 -3.4,-2.5 -2.8,-3.7 0.4,-0.7 1.3,-0.7 3.1,0 0.8,0.3 1.5,0.4 1.6,0.3 0.1,-0.1 0.3,-0.7 0.4,-1.2 l 0.2,-1 -1.7,-0.2 c -1.9,-0.2 -7.3,-1.6 -8.4,-2.2 -0.8,-0.5 -1.3,-1.6 -1,-2.3 0.4,-0.7 1.4,-0.8 2.5,-0.3 4,1.6 4.7,1.8 6.3,1.9 1.6,0.1 1.7,0.1 1.7,-0.6 0.2,-1.8 -0.2,-2.1 -4,-2.8 -1.9,-0.4 -2.9,-0.5 -4.2,-0.3 -1.6,0.2 -1.7,0.1 -2.4,-0.6 -0.9,-0.8 -0.9,-1.4 -0.3,-3.3 0.5,-1.7 0.4,-1.8 -2.2,-1.7 -2.4,0.1 -3.7,0.6 -8.4,2.9 -3.5,1.7 -3.5,1.7 -6,1.8 -1.8,0.1 -2.8,0.3 -3.4,0.6 -0.7,0.4 -1.3,0.5 -3.7,0.4 -2.5,0 -3,-0.1 -4.8,-0.7 -1.1,-0.4 -2.4,-1 -2.9,-1.4 l -1,-0.6 -4.6,0.9 c -2.6,0.5 -4.8,0.8 -5,0.7 -0.2,-0.1 -0.6,-0.3 -0.9,-0.5 -0.7,-0.4 -1.1,-0.2 -2.3,0.8 -0.9,0.7 -1.3,0.7 -3,-0.2 -2.4,-1.2 -3.6,-0.7 -4.9,1.9 -0.7,1.3 -0.7,1.6 -0.9,5.9 -0.2,4.6 -0.1,6.3 0.7,9 0.7,2.6 0.6,3 -1.2,4.6 -0.8,0.8 -1.4,1.4 -1.3,1.4 0.4,0 0.9,2 1.4,5 0.5,3.1 0.5,3.3 0,4.2 -0.5,1 -0.5,1.6 0.4,2.5 1.1,1.2 1.1,2.1 0.4,4.3 -0.9,2.7 -1,4.3 -0.4,8.2 0.3,1.8 0.5,3.6 0.5,4 0,0.7 0.4,1.2 0.8,1.2 0.1,0.1 0.9,-0.1 1.6,-0.5 z m 32.5,-12 c -2,-0.5 -4.7,-2 -6.2,-3.5 -2.9,-2.8 -4.2,-6.2 -4.2,-11.2 0,-4.4 1,-7.9 3.6,-12.2 1.5,-2.4 2.8,-3.8 4.5,-4.6 6.1,-2.8 13.1,-1.2 15.7,3.6 1.5,2.8 2.1,5.6 2,10.8 0,7.3 -2.1,12.8 -5.7,15.4 -2.6,1.9 -6.4,2.6 -9.7,1.7 z m -264.1,8.9 c 1.1,-0.4 1.2,-0.4 2.5,0.1 1.1,0.4 1.8,0.5 3.8,0.5 2.7,0 3.8,-0.3 5.5,-1.3 1.4,-0.9 3.4,-1.1 5.1,-0.4 1.1,0.4 1.4,0.4 2.5,0.1 0.7,-0.2 3.6,-0.5 6.3,-0.7 2.8,-0.2 5.6,-0.4 6.3,-0.5 1.1,-0.1 1.4,0 2.9,0.9 0.9,0.6 2.3,1.3 3,1.5 l 1.9,0.6 1.1,-0.4 c 1.6,-1.1 3.7,-4.1 5.5,-6.3 1.3,-1.6 1.7,-2.2 1.7,-2.8 0,-1.7 1.1,-3.2 2.4,-3.2 0.8,0 0.7,-0.4 -0.2,-1.8 -1,-1.6 -1.2,-2.9 -0.5,-5.4 0.7,-2.5 0.9,-2.8 1.9,-3.2 0.5,-0.2 0.8,-0.5 0.8,-0.6 0,-0.1 -0.3,-0.8 -0.7,-1.5 -0.6,-1.1 -0.8,-1.6 -1,-4 -0.1,-1.5 -0.4,-4.1 -0.6,-5.7 -0.5,-3.5 -0.4,-6.8 0.3,-9.7 0.4,-1.8 0.4,-2 0,-4 -0.2,-1.1 -0.4,-2.8 -0.4,-3.7 0,-1.3 -0.1,-1.9 -0.6,-3 -1,-2.1 -1.2,-2.2 -3.1,-2.2 -1.3,0 -2.3,-0.2 -4.7,-1 l -3,-1 -0.7,0.6 c -1,0.8 -1.6,0.8 -2.9,-0.2 -1.8,-1.4 -4.4,-1.8 -5.7,-0.8 -0.8,0.6 -0.4,0.6 -4.7,-0.4 -0.9,-0.2 -2.1,-0.5 -2.7,-0.6 -0.7,-0.2 -1.4,-0.5 -1.8,-1 -0.8,-0.8 -0.8,-0.8 -1.6,-0.2 -0.9,0.7 -2.4,0.6 -4.5,-0.3 -1.2,-0.5 -2.6,-0.8 -3.9,-1 -1.1,-0.1 -2.2,-0.2 -2.4,-0.3 -0.2,0 -0.8,0.2 -1.5,0.5 -3.7,1.6 -11.2,1.1 -13.5,-0.9 -0.7,-0.6 -1,-0.7 -1.6,-0.6 -1.9,0.5 -2,0.4 -4.1,-0.6 -1.8,-0.9 -2.2,-1 -2.8,-0.8 -0.9,0.3 -1.5,2.3 -1.1,3.9 0.4,1.4 0.4,2 -0.1,2.6 -0.6,0.7 -0.4,1.6 0.5,3 1,1.5 1,2.2 0.4,3.4 -0.5,0.8 -0.5,0.8 0.1,1.5 0.9,1 0.8,2.1 -0.3,3.1 -1,1 -1.3,2.2 -1,4.8 0.1,1 0.2,2.3 0.2,3 0,1 0.2,1.4 0.8,2.1 0.4,0.4 0.8,1.1 0.8,1.4 0,0.6 -0.6,1.4 -1.1,1.4 -0.6,0 -0.9,0.7 -1.5,3.5 -0.3,1.6 -0.6,2.9 -0.6,3 0,0.1 0.3,0.3 0.7,0.5 0.9,0.4 1.7,1.3 1.7,2 0,0.3 -0.3,1 -0.6,1.5 l -0.6,0.9 0.5,0.9 c 0.6,0.9 0.6,1 -0.1,6.1 -0.1,0.7 0,1.2 0.3,1.6 0.2,0.3 0.4,1 0.4,1.5 0,0.7 -0.1,0.9 -0.8,1.3 -0.5,0.3 -0.9,0.7 -1,0.9 -0.3,0.7 -0.9,5.3 -0.7,5.8 0.3,0.9 0.9,1.3 2,1.3 0.8,0 1.6,0.3 3,1 1.5,0.7 2.5,1.1 4.2,1.3 2.4,0.4 4.2,1 5.6,2.1 1.2,0.6 2,0.6 4,-0.1 z m -0.1,-15.5 c -2.2,-0.5 -4.6,-1.8 -6.5,-3.7 -3.3,-3.2 -4.1,-5.7 -4.1,-13 0,-5.2 0.3,-8 1.6,-11.4 1.5,-4.2 3.8,-7 6.8,-8.5 1.6,-0.8 1.8,-0.8 4.6,-0.8 2.8,0 3,0 4.6,0.8 2.9,1.3 5.4,4.3 6.7,7.9 1.1,3.2 1.5,5.4 1.5,9.8 0,4.4 -0.4,6.6 -1.7,9.9 -1.4,3.5 -4.4,6.9 -7.1,8.2 -1.8,0.9 -4.4,1.2 -6.4,0.8 z m 262.5,-34.1 c 0.8,-0.3 1.7,-0.5 2.8,-0.4 1.5,0 2,-0.1 4.6,-1.2 1.6,-0.7 3.6,-1.5 4.4,-1.8 1.9,-0.8 5.9,-1.8 7.2,-1.8 1.4,0 2.2,0.3 3.8,1.5 1.8,1.3 3.2,2 4.5,2.2 1.2,0.2 3.4,-0.3 3.9,-0.8 0.2,-0.3 0.2,-1.3 -0.3,-4.6 -0.3,-2.3 -0.6,-4.5 -0.8,-4.8 -0.3,-0.7 -1.2,-1.5 -1.7,-1.5 -0.2,0 -0.7,-0.3 -1.1,-0.6 -0.7,-0.6 -0.7,-0.6 -0.4,-2.1 0.3,-1.7 0.6,-2.1 1.8,-2.6 l 0.9,-0.4 0.1,-2.6 c 0.1,-1.5 0.3,-2.9 0.4,-3.2 0.4,-0.7 0.1,-1.1 -1,-1.3 -0.4,-0.1 -1.1,-0.4 -1.5,-0.7 -0.6,-0.5 -0.7,-0.8 -0.7,-1.6 0,-0.8 0.1,-1.1 0.6,-1.5 0.6,-0.4 0.7,-0.4 1.7,-0.1 1.4,0.5 1.7,0.4 0.9,-0.6 -0.9,-1.3 -0.8,-2.1 0.4,-2.7 0.9,-0.4 1,-0.6 1,-1.4 0,-0.9 0,-0.9 -1.1,-1.2 -1.3,-0.3 -1.6,-0.8 -1.6,-3.1 0,-2 0.7,-3.4 1.7,-3.6 0.9,-0.2 1.1,-0.8 0.7,-1.8 -0.1,-0.4 -0.3,-1.4 -0.3,-2.2 0,-2 -0.1,-2.1 -1.5,-3.1 -1.1,-0.8 -1.2,-0.9 -1.2,-1.8 0,-0.8 0.2,-1.1 0.8,-1.8 1.2,-1.2 1.4,-1.9 1.2,-4.6 l -0.2,-2.3 -1.1,-0.1 c -0.6,-0.1 -1.7,-0.2 -2.3,-0.4 -2.5,-0.5 -2.5,-0.5 -8.1,2.3 -0.6,0.3 -1.7,0.7 -2.5,0.8 -0.7,0.1 -1.8,0.3 -2.4,0.5 -0.9,0.3 -1.2,0.3 -2.2,-0.1 -3.8,-1.4 -3.2,-1.4 -4.8,-0.1 l -0.8,0.7 h -4.9 c -4.6,0 -5,0 -6.3,-0.5 -1,-0.4 -1.8,-0.5 -3.1,-0.5 -1.8,0 -4.6,-0.3 -5.9,-0.7 -0.4,-0.1 -1,-0.5 -1.4,-0.8 -0.6,-0.6 -0.7,-0.6 -2.3,-0.4 -2.3,0.2 -3.4,0.6 -5.3,1.9 -1.5,1 -1.7,1.1 -3.6,1.1 -1.9,0.1 -2,0.1 -3.8,1.3 -3,2 -3.7,3 -4.1,5.9 -0.2,1.6 0.3,5.2 1.2,7.6 0.8,2.3 1.3,5.6 1.1,7.2 -0.1,0.6 -0.5,1.6 -0.9,2.3 -1,1.5 -1.2,3 -0.7,5 0.2,0.8 0.5,2.6 0.5,4 0.1,1.5 0.3,3.3 0.5,4.1 0.5,2.1 0.4,4.5 -0.2,6.5 -0.6,2 -0.7,5.7 -0.2,7.9 0.4,2 1.6,3.1 3.6,3.5 0.8,0.2 1.9,0.5 2.5,0.8 0.9,0.4 1.1,0.5 1.5,0.2 1.9,-1.4 2.4,-1.5 3.5,-0.9 0.9,0.5 1.7,0.4 5.9,-0.4 4.2,-0.9 5.1,-0.8 6.5,0.4 0.4,0.3 1.6,0.8 2.7,1.2 1.7,0.5 2.3,0.6 3.9,0.5 1.5,-0.2 2.9,-0.5 3.5,-0.7 z m 2.4,-17.5 c -2.5,-0.5 -4.5,-1.6 -6.4,-3.4 -3.3,-3.2 -4.2,-6.3 -3.4,-12 0.4,-3.1 0.9,-5 2.1,-7.3 2.4,-4.8 6.3,-7.4 11.5,-7.9 4.1,-0.4 8,1.9 9.9,5.6 1.3,2.6 1.8,5.2 1.8,9.4 0,4.3 -0.4,6.3 -2.1,9.5 -2.4,5.1 -7.5,7.4 -13.4,6.1 z m -217.5,8.7 c 0.5,-0.2 1.2,-0.4 1.6,-0.5 1,-0.2 1.5,-1.1 1.2,-2.2 -0.5,-2 0.5,-2.9 2.6,-2.2 0.6,0.2 1.9,0.4 2.8,0.4 2.5,0.1 2,-0.4 -1.1,-1.1 -2.1,-0.5 -2.6,-0.7 -3,-1.3 l -0.5,-0.7 0.6,-0.4 c 0.3,-0.2 1.6,-0.8 2.9,-1.2 2.1,-0.8 3.1,-1.4 2.7,-1.8 -0.1,-0.1 -1,0.1 -2.1,0.4 -3.7,1.1 -5.3,1 -5.5,-0.4 -0.1,-0.5 0.1,-0.9 0.8,-1.5 0.5,-0.4 1.1,-0.8 1.4,-0.9 0.9,-0.1 1.4,-1.1 1.5,-3.3 l 0.1,-2.1 -0.7,-0.4 c -1.3,-0.7 -1.6,-2.6 -0.4,-3 0.3,-0.1 1.4,-0.2 2.5,-0.1 2.1,0 2.2,0 2.9,-0.9 0.4,-0.5 0.4,-0.6 0.1,-0.8 -0.5,-0.3 -2.2,-0.3 -3.8,0.1 -1.9,0.5 -2.2,0.5 -2.9,-0.3 -1.5,-1.6 -1.8,-2.1 -1.5,-2.7 0.4,-0.7 1.7,-1.2 3.4,-1.2 1.6,0 4.3,-1 3.9,-1.4 -0.4,-0.4 -2.6,-0.7 -3.9,-0.5 -2.7,0.3 -3.3,-0.3 -2.8,-2.8 0.2,-0.9 0.5,-1.8 0.7,-2 0.2,-0.2 1,-0.6 1.7,-0.8 l 1.3,-0.4 -0.2,-1.4 c -0.1,-1.2 -0.1,-1.4 0.4,-1.9 0.5,-0.5 0.7,-0.5 3,-0.4 1.3,0.1 2.6,0.2 2.7,0.3 0.2,0.1 0.5,0 0.7,-0.2 0.8,-0.6 0.2,-1.1 -1.6,-1.5 -2.4,-0.6 -3.4,-1.1 -3.7,-1.9 -0.4,-1.1 0.3,-1.6 2.9,-2 3,-0.5 3.4,-0.7 1.4,-1.1 -0.9,-0.1 -2.2,-0.3 -3,-0.3 h -1.4 l -2.1,2 c -3,2.9 -3.5,3 -4.4,1.5 -1.2,-2 -0.8,-3.1 1.8,-5 1.6,-1.1 1.9,-1.5 1.9,-1.9 0,-0.3 0.1,-0.9 0.4,-1.3 0.4,-0.7 0.6,-0.8 2.8,-1 1.3,-0.2 2.6,-0.4 2.9,-0.4 0.6,-0.1 0.6,-0.2 0.1,-0.5 -0.3,-0.2 -0.9,-0.3 -2.2,-0.2 -1.7,0.1 -1.8,0.1 -2.4,-0.6 -0.8,-1 -1,-1.7 -0.7,-2.7 0.4,-1 0.4,-1.1 -0.5,-1.4 -0.4,-0.2 -0.9,-0.5 -1.1,-0.8 -0.4,-0.6 -0.5,-2 -0.1,-2.2 0.1,-0.1 1.1,-0.3 2.2,-0.5 2,-0.3 3.7,-1.2 3.3,-1.6 -0.1,-0.1 -0.9,-0.1 -1.8,0.1 -0.9,0.2 -2.1,0.4 -2.8,0.4 -0.7,0 -1.7,0.1 -2.3,0.3 -0.9,0.2 -1.7,0.2 -4,-0.2 l -2.9,-0.4 -1.4,0.6 c -0.8,0.3 -1.5,0.6 -1.6,0.5 -0.5,-0.3 -2.2,-0.1 -3.3,0.3 -0.9,0.3 -1.4,0.4 -2.2,0.2 -0.7,-0.2 -1.6,-0.2 -2.6,0 -1.4,0.2 -1.6,0.2 -2.7,-0.3 -0.6,-0.3 -1.7,-0.6 -2.3,-0.8 -1.2,-0.2 -1.2,-0.2 -2.4,0.7 -1.3,1 -2.6,1.4 -6.3,1.9 -1.9,0.3 -3.8,0 -4.5,-0.6 -0.3,-0.3 -0.5,-0.3 -1.6,0.3 -1.5,0.7 -2.4,0.7 -3.7,0.1 -1,-0.5 -1.1,-0.5 -1.6,-0.1 -0.3,0.2 -0.8,0.4 -1.2,0.4 -0.7,0 -2,-0.9 -2.6,-1.7 -0.3,-0.4 -0.5,-0.5 -1.3,-0.4 -0.5,0.1 -1.7,0.2 -2.8,0.2 -1.8,0.1 -2.1,0.2 -4.5,1.4 -2.8,1.4 -3.2,1.5 -4.7,1 -1.2,-0.4 -4.2,-0.5 -4.5,-0.1 -0.2,0.3 -1.6,3.5 -1.6,3.7 0,0 0.4,0 0.9,-0.1 0.7,-0.1 1.1,-0.1 1.7,0.2 1,0.5 1,0.4 0.4,1.4 -0.3,0.5 -0.8,0.8 -1.5,1 -1.3,0.4 -1.9,1.2 -1.6,2.4 0.2,0.8 0.5,1.3 2.3,2.7 0.8,0.6 0.8,0.7 0.6,1.4 -0.2,0.4 -0.6,0.8 -1.1,1.1 -1.2,0.6 -1.4,0.8 -1.5,2.5 -0.1,0.8 -0.2,1.7 -0.3,2 -0.2,0.5 -0.1,0.5 1,0.7 1.5,0.2 2.1,0.8 2,1.9 -0.1,0.6 -0.3,0.9 -1,1.2 -0.9,0.4 -1.2,0.9 -0.7,1.2 0.5,0.3 1,1.6 0.9,2.1 -0.1,0.3 -0.5,0.9 -0.9,1.3 -0.7,0.7 -0.7,1 -0.7,2.1 0,0.7 -0.1,1.8 -0.3,2.4 -0.2,0.6 -0.3,1.3 -0.3,1.4 0.1,0.2 0.6,0.4 1.2,0.5 1.3,0.2 1.9,0.8 1.9,2 0,1.2 -0.3,1.6 -1.8,2.3 -0.7,0.4 -1.4,0.8 -1.5,1 -0.1,0.2 0,1.1 0.3,1.9 0.4,1.5 0.4,1.7 0,3.4 -0.2,1 -0.4,2.5 -0.4,3.3 0,1.3 0.1,1.5 0.5,1.6 0.3,0.1 0.7,0.4 0.9,0.8 0.3,0.5 1.1,1 2.6,1.7 l 2.2,1 1,-0.4 c 1.4,-0.5 1.4,-0.5 2.7,0.5 1,0.8 1.3,1 4,1.5 1.6,0.3 3.4,0.5 3.9,0.4 2.2,-0.3 4.1,-0.7 5.1,-1.2 0.7,-0.3 1.4,-0.4 1.8,-0.4 0.4,0.1 1.7,0.2 2.9,0.4 2.1,0.2 2.4,0.3 3.3,1 1.2,1 2.5,1 3.8,0.2 1.2,-0.7 1.6,-0.7 2.7,0.3 0.8,0.7 1.4,1 4,1.6 l 3.1,0.7 1,-0.7 c 0.9,-0.6 1.1,-0.7 2.2,-0.5 3.3,0.4 3.6,0.5 4.4,1.4 0.5,0.5 0.9,0.9 1,0.9 0.1,0 0.5,-0.4 0.9,-0.8 0.8,-1 1.4,-1.1 2.3,-0.2 0.7,0.6 5.1,2.2 6,2.3 0.6,0.5 1.2,0.3 1.7,0.1 z m -47,-15.5 c -2.9,-0.7 -6.8,-3.3 -8.5,-5.6 -2.3,-3.2 -2.5,-8.2 -0.7,-13.6 1.6,-4.6 4.8,-9.1 8,-11.1 2.2,-1.4 3.7,-1.7 7,-1.6 4.4,0.1 7,1.3 8.9,3.8 1.1,1.5 1.6,3.1 2.4,7.2 1,5.3 0.7,8.3 -1.4,12.5 -0.8,1.7 -1.4,2.4 -3.3,4.2 -2.3,2.3 -4.1,3.4 -6.5,4.1 -1.3,0.4 -4.3,0.4 -5.9,0.1 z m 232.2,-32.7 c 1,-0.6 1.8,-0.8 3.3,-0.9 1.7,-0.2 2.2,-0.3 3.8,-1.3 1.1,-0.6 2.3,-1.2 2.8,-1.2 0.5,-0.1 1.3,-0.2 1.9,-0.4 2,-0.4 2.8,-0.3 3.8,0.6 0.5,0.5 1,0.8 1.2,0.8 1.7,0 6.8,0.6 8.7,1.1 2.3,0.6 2.7,0.6 6.3,0.4 3.9,-0.2 4.3,-0.3 5.5,-1.2 0.9,-0.7 2,-0.7 3.7,0 2,0.9 2.6,0.9 3.4,0.5 0.4,-0.2 1.5,-0.6 2.5,-0.8 1,-0.2 2.9,-1 4.2,-1.7 2.9,-1.5 4.1,-1.7 6,-1.1 1.3,0.4 3.7,0.5 3.7,0.3 0,-0.1 -0.2,-0.7 -0.5,-1.3 -0.6,-1.4 -0.6,-2.2 -0.2,-5.9 0.3,-3.2 0.2,-3.8 -1.3,-5 -0.7,-0.5 -0.9,-0.9 -0.9,-1.4 0,-0.8 0.2,-1.1 1.1,-1.5 0.4,-0.2 0.9,-0.5 0.9,-0.7 0.1,-0.2 -0.4,-5.4 -0.8,-7.2 -0.1,-0.3 -0.6,-1 -1.1,-1.4 -0.8,-0.7 -1,-1 -1,-1.6 0,-1 0.6,-1.5 1.6,-1.5 0.8,0 0.8,0 0.8,-1.1 0,-0.8 -0.2,-1.3 -0.7,-1.9 -0.7,-0.9 -0.9,-1.9 -0.5,-2.9 0.2,-0.5 0.1,-0.5 -0.7,-0.7 -1.2,-0.2 -2.2,-0.7 -2.4,-1.2 -0.3,-0.9 -0.2,-1.8 0.5,-2.2 0.6,-0.4 0.7,-0.4 1.8,0 0.6,0.2 1.2,0.3 1.3,0.3 0.1,-0.1 0,-0.8 -0.2,-1.6 -0.1,-0.8 -0.2,-1.8 -0.1,-2.3 0.1,-0.7 0.1,-0.9 -0.5,-1.2 -0.5,-0.3 -1,-0.4 -2.3,-0.2 -1.6,0.2 -1.7,0.1 -2.2,-0.5 -0.7,-0.9 -0.7,-1.3 0.1,-2.3 0.3,-0.4 0.6,-1.1 0.6,-1.5 0,-0.6 0.7,-1.6 1.2,-1.6 0.1,0 0.7,0.2 1.2,0.4 1,0.3 1,0.3 1.3,-0.3 0.1,-0.3 0.2,-1.2 0.1,-1.9 -0.1,-0.7 0,-1.5 0.1,-1.7 0.1,-0.3 0.2,-1.9 0.1,-4 -0.2,-4.7 -0.4,-5 -2.7,-3.3 -0.8,0.6 -1.6,1 -2,1 -0.4,0 -1.8,0.6 -3.2,1.3 -2.7,1.4 -5.3,2.3 -8.4,2.9 -2.3,0.5 -2.7,0.7 -4.5,2.6 -1.6,1.7 -2.4,1.9 -5.9,1.9 -2.9,0 -3.2,0.1 -6.3,2 -2.1,1.3 -2.3,1.4 -3.4,1.3 -0.7,-0.1 -1.9,-0.2 -2.7,-0.4 -1.6,-0.4 -2,-0.2 -2.7,1 -0.8,1.4 -1.3,1.7 -3.1,1.7 -1.5,0 -1.8,0.1 -2.5,0.7 -1.2,1 -1.6,1.1 -3.3,0.6 -1.7,-0.5 -2,-0.4 -6.7,1 -1.5,0.5 -2.8,0.7 -4.8,0.8 -2.5,0.1 -2.9,0.1 -5,-0.5 -1.2,-0.4 -2.3,-0.6 -2.4,-0.5 -0.3,0.3 0.2,1.2 1,1.5 0.4,0.2 2.3,0.4 4.2,0.5 5.2,0.3 6.6,0.8 6.6,2.9 0,0.7 -0.2,1.1 -0.8,1.7 -1.3,1.3 -3.3,1.6 -5.8,1 -0.9,-0.2 -1.4,-0.2 -1.8,0 -0.6,0.3 -1.4,1.4 -1.1,1.7 0.1,0.1 1.6,0.3 3.3,0.4 3.7,0.3 4.6,0.6 5.1,1.7 0.5,1.2 0.5,1.3 -0.6,1.8 -0.8,0.4 -1.5,0.5 -4.1,0.5 -3.3,0 -5,0.3 -5,0.8 0,0.5 1.5,0.7 4,0.5 1.5,-0.1 2.6,-0.1 3.3,0.1 2.6,0.7 3,2.6 0.9,3.8 -1,0.6 -1,0.9 -0.4,2.2 0.7,1.3 0.6,2 -0.3,2.7 -1.4,1.2 -3.6,1.1 -5.2,-0.2 -0.9,-0.7 -1.1,-0.6 -0.9,0.2 0.1,0.5 0.5,0.7 1.5,1.1 2.4,0.9 2.8,1.2 2.8,1.9 0,0.6 -0.2,0.8 -0.9,1.2 -0.5,0.3 -1.4,0.6 -2,0.7 -0.7,0.2 -1,0.4 -0.8,0.5 0.4,0.4 1.7,0.3 3,-0.1 1.7,-0.6 2.5,-0.5 3.4,0.3 0.6,0.6 0.7,0.8 0.5,1.4 -0.3,0.8 -1.5,1.6 -2.9,2 -1.4,0.4 -1.6,0.7 -0.6,0.7 1.9,0 3,1.1 2.3,2.3 -0.2,0.3 -0.5,1 -0.5,1.5 -0.1,0.6 -0.4,1.2 -0.8,1.6 -0.6,0.6 -0.8,0.6 -1.8,0.5 -2.4,-0.4 -2.8,-0.4 -3.2,-0.1 -0.3,0.2 -0.3,0.3 0.2,0.7 0.5,0.4 0.9,0.5 2.7,0.5 2.5,0 3.6,0.3 3.8,1 0.1,0.3 0.6,0.9 1,1.3 1,0.9 1,1.6 -0.4,2.8 l -0.9,0.9 0.6,0.6 c 0.3,0.3 0.6,0.6 0.7,0.6 0.1,0 0.7,-0.6 1.4,-1 z m 31.2,-12.9 c -4,-1.9 -6.4,-6.8 -7,-14.4 -0.7,-8 2.1,-15.4 6.9,-18.1 3.6,-2.1 8.8,-1.7 11.6,0.8 2.2,1.9 4.5,6.3 5.5,10.3 0.6,2.4 0.6,7.5 -0.1,10 -1.4,5 -4.6,8.7 -9.6,11.2 -1.4,0.7 -1.9,0.8 -3.7,0.9 -1.9,0 -2.2,-0.1 -3.6,-0.7 z m -271,0.2 c 1.2,-0.9 2.8,-1.4 5.1,-1.7 1,-0.1 2.2,-0.4 2.8,-0.5 1.6,-0.4 1.8,-0.3 3.5,1 l 1.6,1.2 0.6,-0.7 c 0.7,-0.8 1.5,-0.9 2.2,-0.2 0.8,0.8 2.4,0.9 3.7,0.1 l 1.1,-0.6 1.2,0.7 c 1.4,0.9 2,0.9 5.4,0.2 1.3,-0.3 2.5,-0.5 2.6,-0.5 0.1,0 0.7,-0.4 1.4,-1 1,-0.8 1.4,-1 2.3,-1 1.5,0 2.9,0.4 3.7,1 0.7,0.5 0.8,0.5 2.1,0.2 1.1,-0.2 1.6,-0.3 2.4,0 0.9,0.2 1.2,0.2 2.3,-0.2 0.9,-0.4 1.6,-0.4 2.3,-0.3 0.8,0.1 1.2,0 1.7,-0.3 0.8,-0.5 2.3,-0.5 6.3,-0.2 2.1,0.2 2.5,0.1 3.7,-0.3 1.6,-0.6 3.1,-1.9 3.3,-2.9 0.1,-0.4 0.2,-1.5 0.3,-2.6 0.2,-1.7 0.3,-2.2 1.5,-4 0.7,-1.2 1.3,-2.6 1.4,-3.2 0.1,-0.6 0.5,-1.7 0.9,-2.4 0.6,-1.1 0.7,-1.4 0.4,-1.8 -0.2,-0.4 -0.3,-2.5 -0.4,-8.2 -0.1,-7.3 -0.1,-7.8 -0.6,-8.7 -0.3,-0.6 -0.6,-1.8 -0.8,-3.3 l -0.3,-2.3 0.9,-2.6 c 0.5,-1.4 0.9,-2.8 0.8,-3 -0.1,-0.3 -0.7,-0.6 -1.4,-0.9 -1.5,-0.5 -2.3,-1.5 -2.5,-3.1 -0.2,-1.3 -0.9,-2.3 -1.8,-2.3 -0.3,0 -1.2,0.2 -1.9,0.5 -1.8,0.7 -2.8,0.5 -4.2,-0.8 -1.9,-1.6 -1.7,-1.6 -7.2,-1.6 -4.9,0 -5.1,0 -6.7,-0.7 -1.8,-0.7 -2.2,-0.8 -2.6,-0.4 -0.4,0.4 -1.7,0.3 -3.3,-0.1 -0.7,-0.2 -2.1,-0.4 -2.9,-0.4 -1.4,0 -1.9,-0.1 -3.5,-0.9 -2.4,-1.1 -4.2,-1.3 -6.5,-0.6 -1.4,0.4 -2.8,0.6 -7.8,0.8 -5.6,0.2 -6.3,0.2 -7.7,-0.1 -1.3,-0.4 -1.8,-0.4 -2.8,-0.1 -1.4,0.3 -1.9,0.2 -3.4,-0.7 -0.6,-0.4 -1.3,-0.7 -1.6,-0.7 -0.9,0 -3.8,1.3 -3.8,1.7 0,0.2 -0.2,2.1 -0.4,4.2 l -0.4,3.9 0.8,-0.7 c 0.9,-0.8 2.6,-1.2 4.7,-1.2 1.1,0 1.5,0.1 2,0.6 0.6,0.6 0.7,1 0.4,2 -0.2,0.7 -0.8,1 -4.1,2.1 -1.4,0.5 -2.7,1 -2.8,1.1 -0.5,0.5 -1.1,2.9 -1.1,4.4 0,2.6 0.9,3.2 3.5,2.2 1.9,-0.7 5.3,-0.9 6.3,-0.4 0.4,0.2 0.9,0.7 1,1 0.3,0.8 0.1,1.9 -0.5,2.2 -0.3,0.1 -2.2,0.4 -4.3,0.6 -3.9,0.3 -5,0.6 -5,1.2 0,0.4 1.8,0.5 5.5,0.1 2.9,-0.3 4,-0.1 4.2,0.9 0.2,0.8 -0.3,1.8 -1.2,2.1 -0.3,0.2 -1.9,0.4 -3.5,0.7 -3.2,0.4 -4,0.8 -4.2,1.8 -0.1,0.4 -0.4,0.9 -0.7,1.3 -0.8,0.9 -1.1,1.7 -1.1,3.6 0,2.5 -0.1,2.5 2.6,2.3 2,-0.1 2.3,-0.1 3,0.3 0.4,0.3 0.8,0.6 0.8,0.7 0,0.1 -0.8,0.4 -1.8,0.5 -2.2,0.4 -2.9,0.7 -2.9,1.6 0,1.4 1,1.9 3.6,1.5 2.2,-0.3 2.3,-0.3 2.3,0 0,0.6 -1,1.2 -2,1.2 -1,0 -1.1,0 -1.6,1.2 -0.8,1.8 -1.6,1.8 -3.7,0.2 -0.6,-0.5 -1.2,-0.8 -1.3,-0.7 -0.3,0.2 0.7,4.8 1.2,5.5 0.2,0.3 0.5,0.5 0.7,0.5 0.6,0 3.6,-1 6,-2 1.8,-0.7 2.6,-0.9 3.4,-0.9 1,0.1 1.1,0.2 1.2,0.7 0,0.3 0,1 -0.2,1.5 -0.3,0.8 -0.3,0.9 -1.5,1 -1.6,0.1 -2.3,0.7 -2.1,1.7 0.1,0.4 0.2,0.9 0.2,1.2 0.1,0.4 -0.2,0.6 -1.4,1 -1.6,0.6 -4,0.8 -6.1,0.4 -1,-0.2 -1.2,-0.2 -1.4,0.3 -0.1,0.3 -0.3,1.1 -0.4,1.9 -0.1,1.2 -0.1,1.5 0.3,1.7 0.3,0.1 0.7,0.1 1,0 0.3,-0.1 0.9,-0.2 1.4,-0.2 0.8,0 1.1,0.1 2,1.1 1.4,1.6 2.3,1.6 3.8,0.6 z m 18.2,-12.4 c -2.3,-0.7 -3.9,-1.8 -5.2,-3.6 -2.6,-3.3 -3.5,-5.9 -3.5,-9.8 0,-3 0.5,-7.2 1.2,-9.9 1.3,-5.1 5.9,-11.8 9.4,-13.5 1.2,-0.6 1.5,-0.7 4,-0.7 2.4,0 2.9,0.1 4.1,0.6 1.7,0.8 3.7,2.5 4.5,4 2.3,4.1 3.1,14.7 1.5,19.5 -0.9,2.6 -1.9,4.6 -3.8,7.4 -3.3,4.8 -5.2,6.1 -9,6.2 -1.4,0.1 -2.6,0 -3.2,-0.2 z"
       inkscape:connector-curvature="0"
       style="fill:#1a1a1a" /></g><g
     id="LAYER_EFO"
     inkscape:label="Layer_EFO"
     style="display:inline"
     transform="matrix(0.20835186,0,0,0.21815367,-4.5531012,18.695537)"><g
       id="CL_0005011"
       inkscape:label="CL_0005011"
       style="display:inline;fill:none"><path
         class="st1"
         d="m 321.1,569.7 c -0.5,-0.9 -1.2,-1.2 -2.3,-1.1 -1.1,0.1 -2.4,0.2 -3.5,0.2 -0.1,-0.8 -0.9,-0.2 -0.9,-1.1 0,-0.3 0.2,-1.5 0.3,-1.9 0.1,-0.7 0.7,-1.6 0.4,-2.1 -0.3,-0.5 -0.9,-1.5 -1.5,-1.5 -0.8,0.1 -1.6,0.5 -2.5,0.9 -1,0.5 -2.8,2.2 -3.9,2.6 0.1,-1.1 -0.7,-2.2 1.4,-3.1 0.8,-0.4 1.1,-1.4 1.8,-2 1.6,-1.2 2.2,-1.1 0.8,-2.9 0.5,-0.1 0.7,-0.7 1.2,-0.8 1,-0.2 1.7,-0.2 1.9,-1.2 0.2,-0.8 0.7,-2.3 1,-3 0.2,-0.5 0.5,-0.5 0.5,-1 0,-1.7 -0.2,-2.5 -2,-2.1 -0.5,0.1 -1,0.4 -1.6,0.6 -0.5,0.1 -1.8,0.1 -2.6,0.3 0.4,-1.4 1.2,-1.8 2.1,-2.4 0.9,-0.7 1.6,-1.3 2.4,-2.1 0.3,-0.3 0.6,-1.1 0.6,-1.6 0.2,-2.4 -0.3,-3.3 -2.6,-2.5 -0.8,0.3 -1.6,0.8 -2.4,1.2 -0.7,0.4 -1.5,0.5 -1.9,-0.2 -0.5,-0.8 -0.7,-1.4 -0.1,-1.7 0.5,-0.3 1.3,-0.6 1.9,-0.7 1.3,-0.2 2.7,-0.5 4.1,-0.7 1.1,-0.2 1.9,-0.9 1.9,-2 0,-1.1 -0.4,-1.3 -1.3,-1.4 -1.4,-0.2 -2.9,-0.3 -4.3,-0.3 -0.6,0 -1.4,-0.1 -2.1,-0.1 -0.3,-0.1 -0.3,-0.2 -0.7,-0.4 0.3,-0.3 -0.3,-0.9 0,-0.9 0.9,-0.1 2.2,-0.3 3.3,-0.4 1.1,0 2.5,0 3.6,-0.3 1.8,-0.5 2.4,-0.6 2.3,-2.1 -0.1,-1.5 -0.8,-2.7 -2.2,-2.9 -0.5,-0.1 -1,0 -1.6,0 -1,0 -2.2,0.1 -3.2,0.1 -0.8,0 -1.3,0.1 -1.2,-0.6 0.1,-0.7 -0.5,-2.4 0.4,-2.2 1.4,0.3 3.4,0.7 4.8,0.8 0.8,0.1 1.5,0.4 1.9,-0.5 0.1,-0.1 0.3,-0.3 0.5,-0.4 0.2,0 0.4,-0.2 0.6,-0.3 1.3,-0.7 2.3,-1.3 3.6,-0.3 -0.3,-0.6 1.9,0 2.4,-0.4 0.5,-0.4 1,-1.5 1.4,-2.1 2.6,1.1 4.1,1.3 5,1.3 1.3,0 2,-0.1 2.9,-0.1 2.3,0 4.6,0.3 6.8,1.5 1,0.6 1.8,0.6 3,0.9 1,0.3 2.3,-0.5 3.5,-0.8 1.8,-0.5 3.5,-1.2 5.4,-1.8 0.2,-0.1 0.3,0.7 0.5,0.7 1.4,-0.5 1.5,-0.2 2.4,-1.1 0.9,-1 2.8,-1.5 4.2,-1.4 1.4,0.1 2.9,-0.1 4.3,0.1 0.8,0.1 2.5,1 3.3,1.3 0.9,-0.1 0.4,0.3 0.9,0.5 1.3,0.3 3,0.4 4.5,0.6 0.7,0.1 1.3,-0.5 2,-0.8 2.1,-0.9 3.9,-1.9 6,-2.9 0.4,-0.2 1.2,0.1 1.6,0 0.8,-0.2 2,-0.4 2.6,-0.1 0.4,-0.1 0.1,0 0.3,0.2 0.3,0.2 0.6,0.8 0.5,1.1 -0.5,2.1 1,2.7 3.2,2.9 0.6,0.1 0.7,0.7 0.6,1.5 -0.1,0.4 -0.6,1 -1.1,1.1 -2.3,0.6 -2.8,1 -3,3.4 -0.1,1.7 0.2,3.5 0.6,5.2 0.1,0.5 1,0.9 1.6,1.3 0.3,0.2 0.8,0.1 1.3,0.2 -0.3,0.3 -0.5,0.5 -0.7,0.6 -1.3,0.6 -1.7,1.7 -1.4,3 0.2,0.9 0,1.3 -0.9,1.6 -1.6,0.6 -2.2,1.4 -2.2,3.1 0,0.4 0,0.9 -0.1,1.3 -0.1,0.9 0.4,1.1 1.3,1.5 0.9,0.5 1.4,0.1 2.1,-0.7 0.4,-0.4 0.7,-0.9 1.2,-1.3 0.1,0 0.7,0.9 0.8,0.9 0.1,0.5 0.3,1.1 0.2,1.6 -0.2,1.3 -0.5,2.6 -0.7,3.8 0,0.1 -0.1,0.2 -0.2,0.3 -2.5,-0.1 -3.1,0.4 -3.2,2.6 -0.1,2.6 -0.1,2.3 3.1,2.4 0,0.3 0.8,1.7 0.8,2 0.1,1.1 0.1,2.2 0.3,3.3 0.2,1.1 0,1.8 -0.8,2.5 -0.6,0.5 -1.1,1.3 -1.5,1.8 -0.9,0 -1.7,0 -2.6,0.2 -0.7,0.2 -1.1,0.1 -1.5,-0.5 -0.4,-0.6 -1.1,-1.1 -1.7,-0.6 -1.5,1.2 -3.4,1 -5.1,1.3 -1.4,0.3 -3,0.1 -4.4,0.3 -0.7,0.1 -11.2,0.4 -11.9,0.6 -1.3,0 7.2,0 5.8,0 -0.1,-0.1 -0.2,-0.2 -0.4,-0.3 -2.7,-0.7 -5.7,0.4 -8.5,0.4 -1.3,0 -2.8,0.1 -4.1,0 -1.5,-0.1 -2.5,-1 -3.8,-0.2 -2.7,0 -5.2,0 -7.9,0 -0.6,-0.4 0,0.3 -0.6,0.2 -1.5,-0.1 -3.8,-0.4 -5.1,0 -1.6,0.5 -3.6,-0.6 -5.2,-0.8 -1,-0.1 -2.2,0.3 -3.2,0.5 -1,0.4 -2.2,0.4 -3.5,0.4 z m 53.6,-22.2 c 0.2,-4.1 -1,-8 -2.5,-11.8 -1.8,-4.6 -7.3,-6 -12.1,-4.5 -6.6,2.2 -9.1,6.7 -10.6,12.7 -0.6,2.5 -0.6,5.2 -0.5,7.7 0.1,3.7 0.9,7.4 3.9,9.9 2.1,1.7 4.5,3.1 7,4.1 5.1,2 10.1,-0.2 12.2,-5.1 2,-4.1 2.3,-8.6 2.6,-13 z"
         id="path6"
         inkscape:connector-curvature="0"
         style="opacity:0.47000002;enable-background:new" /><path
         class="st1"
         d="m 132.1,435.1 c -0.5,-0.7 -0.9,-1.6 -1.5,-2.2 -0.4,-0.5 -1.2,-1.1 -1.7,-1 -0.5,0.1 -1.1,0.8 -1.4,1.4 -0.5,1.3 -0.2,2.6 0.3,3.8 1.2,1.1 2.4,2.7 2.2,4.8 -0.1,1.2 1.2,0.3 2.4,0 1.1,-0.3 0.5,-0.9 1,-2 0.2,-0.5 3.7,-1 4.1,-1 0.9,0 -0.3,1.4 0.2,2 0.6,0.7 -0.4,0.9 -1,1.1 -1.8,0.5 -2.4,1.7 -1.4,3.4 0.1,0.2 0.2,0.4 0.3,0.7 -0.5,-0.1 -0.8,-0.2 -1.1,-0.2 -1.5,-0.3 -2.3,0.3 -2.5,1.8 -0.1,0.5 -0.7,1 -1.1,1.3 -1.4,1 -1.6,1.4 -1.2,2.9 0.3,1.3 3.5,1.8 4.8,2 1.5,0.2 0.5,0.6 1.9,1 0,0.2 0,0.4 -0.1,0.7 -1,0.1 -1.9,0.2 -3,0.2 -0.9,0 -1.7,-0.3 -2.7,-0.3 -0.9,0 -1.7,0.2 -1.9,1.3 -0.1,1.1 1.7,1 2.7,1.1 0.9,0.2 2.2,-0.1 3.1,0 0.5,0 -0.4,1 0.2,1.1 0,0.1 0,0.3 0,0.4 -0.4,0.1 -0.7,0.2 -1.1,0.3 -0.8,0 -1.7,-0.1 -2.6,-0.1 -0.9,0 -1.8,0.1 -2.2,1.1 -0.4,1 1.4,1.7 2.6,2.2 1.3,0.6 2.7,0.6 4.1,1 0.6,0.2 -0.1,1.1 0.5,1.2 0,0.2 0,0.3 0,0.5 -0.9,0.1 -1.8,0.3 -2.9,0.4 -0.5,0.1 -1,-0.1 -1.5,0 -1.5,0.3 -1.9,1.4 -1,2.5 0.6,0.7 0.5,1.1 0,1.8 -1.4,1.9 -0.2,2.5 1.8,3.6 1.1,0.6 1.6,2.4 2.8,3.1 -0.7,-0.2 -1.4,-0.2 -2.1,-0.5 -1.8,-0.9 -3.7,-1 -5.7,-0.9 -3.4,0.1 -6.8,-0.1 -10.2,-0.2 -0.2,0 -0.4,0 -0.6,-0.1 -1.6,-1 -3.4,-1.2 -5.3,-1.2 -0.6,0 -1.3,-0.7 -1.9,-1.1 -0.7,-0.6 -1.3,-1.3 -2.1,-1.8 -1.1,-0.7 -2.4,-0.7 -3.5,0 -0.7,0.5 -1.2,0.4 -2.1,0 -1,-0.5 -2.2,-0.8 -3.2,-1 -0.7,-0.1 -1.2,-0.3 -1.7,-0.9 -0.9,-1.4 -1.9,-1.6 -3.5,-0.8 -1.4,0.7 -1.8,0.5 -2.3,-1 -0.3,-1.1 -1,-1.7 -2.3,-1.7 -1,0 -1.5,-0.3 -1.9,-1.3 -0.3,-0.7 -1,-1.2 -1.7,-1.6 -0.7,-0.4 -1.5,-0.5 -2.4,-0.7 -3.1,-0.9 -6.1,-1.8 -9.1,-2.7 -0.4,-0.1 -0.9,-0.1 -1.3,-0.3 -0.3,-0.1 -0.8,-0.4 -0.9,-0.7 -0.6,-1.5 -1.6,-1.9 -3.1,-1.1 -0.4,0.2 -0.8,0.5 -1.5,1 -0.1,-1.3 -0.2,-2.3 -0.3,-3.3 0,-0.5 -0.2,-1 -0.1,-1.4 0,-0.5 0.1,-2.4 0.2,-2.9 0.3,-1.3 0.9,-1.3 2.1,-2 0.3,-0.2 0.7,-0.9 0.5,-1.4 -0.2,-0.5 -1.1,-0.9 -1.6,-0.9 -1.1,0.1 -1.3,-0.3 -1.2,-1.2 0,-0.3 0.1,-0.7 -0.1,-0.9 -1,-1.5 -0.4,-3.1 0.4,-4.6 1.7,-0.1 1.6,-0.1 1.3,-1.9 -0.1,-1.1 -0.2,-2.1 -0.3,-3.2 0,-0.2 0.3,-0.5 0.4,-0.7 0.3,-0.4 1.1,-1 1,-1.3 -0.2,-0.6 -0.8,-1 -1.2,-1.4 -0.2,-0.2 -0.7,-0.2 -0.8,-0.2 -0.3,-1 -0.5,-1.8 -0.8,-2.6 -0.3,-0.7 -0.6,-2.4 0.4,-2.7 1.6,-0.4 2.3,0.2 2.2,-1.2 -0.2,-1.4 -0.6,-1.7 -2.2,-1.8 -0.2,-1 -0.4,-2 -0.5,-3 0,-0.3 -0.1,-0.7 0.1,-0.9 0.9,-1.4 0.5,-2.8 -0.1,-4.1 -0.1,-0.1 -0.1,-0.3 -0.1,-0.5 0,0 0,-0.1 -0.1,0.1 1.1,-0.4 1,-1.2 1.7,-1.7 0.4,-0.3 1.5,-0.7 1.5,-1.3 -0.1,-1.4 -0.7,-1.8 -2.2,-1.8 -0.1,-1.1 -0.2,-2.1 -0.4,-3.1 -0.2,-1.1 -0.2,-2.8 1,-2.8 0.6,0 1.4,-0.1 2.1,0 0.6,0.2 1.6,0.6 2.1,1 1.6,1.7 3.3,1.4 5.1,0 1.2,-0.9 2.3,-0.5 4.1,0 2.4,0.6 4.6,0.5 7.2,0 0.2,0 0.8,0.2 1,0 1.4,-1 2.9,0.2 4.1,1 1.1,0.8 0.9,-0.3 2.1,-1 0.6,-0.4 2.4,-0.2 3.1,0 1.3,0.3 2.8,0.9 4.1,1 2.3,0.1 4,0.2 6.2,0 1.5,-0.1 2.5,-0.9 4.1,0 0,0 0,0.1 0,0 1.6,-1.3 4.6,-0.8 6.2,0 1.2,0.7 0.8,0.3 2.1,0 0.5,-0.1 2.5,-1 3.1,-1 1,0.1 2.2,1.7 3.1,2 0.9,0.3 1.1,0.6 2.1,1 0.7,0.2 2.4,0.1 3.1,0 2.1,-0.3 2.1,-0.7 4.1,-1 0.4,0 2.7,0.8 3.1,1 -0.4,0.3 -2.2,1.1 -2.6,1.1 -2.2,0.3 -4.4,0.6 -6.6,0.8 -2.5,0.3 -2.7,2 -2.4,3.8 0.2,0.4 0.1,1 -0.1,1.5 -0.3,1.2 1.1,0.7 2.3,0.8 0.9,0.1 1.1,0.1 2.1,0 0.4,-0.9 0.8,-0.1 1,0 0.7,0.1 0.3,0.7 1,1 0.1,0.1 0.3,1.2 0.3,1.2 -0.7,0.1 -1.4,0.2 -2.1,0.2 -0.4,0 -0.9,-0.1 -1.3,-0.2 -2.1,-0.1 -2.4,1.2 -2.5,3.4 0,1.1 -0.4,2 -0.3,3.1 0.1,1.3 1,1.4 1.7,2.5 0.6,0.9 1,0.4 2.1,0 0.5,-0.2 3.1,0 2.1,1 -0.3,0.3 0.6,-1.2 1,-1 -0.2,0.5 -0.9,2 -1.2,2.4 -0.1,0.1 -0.4,0.1 -0.7,0.1 -1,0 -1.4,0.6 -1.5,1.6 0,1.3 0,2.5 0,3.8 0.1,0.2 0.1,0.2 0,0.3 z m -57.5,1.3 c 0.1,0.8 0.1,1.7 0.2,2.5 1,5.6 4.3,8.2 9.3,10 7.2,2.7 13,1.3 16.4,-6 1,-2.2 1.9,-5 2.1,-7 0.2,-9.9 -4.3,-15.8 -11.4,-16.8 -5.8,-0.5 -10.7,1.3 -13.3,5.9 -2,3.5 -3.3,7.3 -3.3,11.4 z"
         id="path8"
         inkscape:connector-curvature="0"
         style="opacity:0.47000002;enable-background:new" /><path
         class="st1"
         d="m 70.7,285.3 c 0,-1.3 0,-2.6 0,-3.9 0,-0.1 0,-0.2 0,-0.2 0.7,-1.7 0.7,-3.4 0,-5.2 -0.4,-1.1 0.6,-1.8 1.6,-2.1 1,-0.4 1.9,-0.9 1.7,-2.2 -0.1,-1.3 -0.7,-2 -2.1,-2 -1.1,0 -1.4,-0.5 -1,-1.4 0.5,-1.1 0.8,-2.2 0.4,-3.5 -0.1,-0.4 0.2,-0.9 0.5,-1.2 1.6,-1.7 1.6,-2.1 0.2,-3.9 -0.1,-0.1 -0.2,-0.3 -0.3,-0.5 0.8,-0.7 2.7,-0.5 2.2,-2.3 -0.3,-1.1 -1.1,-1.4 -3.2,-1.4 0.1,-0.4 0.1,-0.8 0.2,-1.1 0.1,-0.4 0.3,-0.8 0.3,-1.2 -0.2,-1.4 -0.1,-2.5 1.7,-2.8 0.4,-0.1 1,-1.1 0.9,-1.6 -0.1,-0.5 -0.8,-1.2 -1.3,-1.4 -0.9,-0.3 -1.3,-0.7 -1.6,-1.6 -0.5,-1.6 -0.2,-2.3 1.4,-2.9 0.4,-0.2 1,-0.2 1.2,-0.4 0.4,-0.4 0.6,-1.1 0.9,-1.6 -0.5,-0.3 -1,-0.7 -1.6,-0.7 -0.5,-0.1 -1.1,0.2 -1.9,0.3 0.2,-0.6 0.4,-1 0.5,-1.4 0.1,-0.3 0.4,-0.6 0.5,-1 0.4,-1.6 0.5,-1.7 2.2,-1.6 1.2,0.1 2.4,-0.1 3.5,0.6 1.1,0.7 2.3,-0.4 3.4,-0.9 1.8,-0.8 3.5,-2.3 5.8,-1.6 0.4,0.1 1,0 1.5,-0.3 0.8,-0.5 1.4,-0.4 1.9,0.4 0.1,0.2 0.3,0.4 0.5,0.5 1.4,1.4 2.4,1.5 3.9,0.2 1.3,1.4 4.3,1.4 5.7,-0.2 0.4,0.3 0.8,0.8 1.3,0.9 0.8,0.2 1.7,0.4 2.7,0.3 1.9,-0.3 3.9,-0.6 5.7,-1.1 0.8,-0.2 1.5,-0.9 2.3,-1.4 0.2,-0.1 0.3,-0.5 0.5,-0.5 1.1,0.2 2.4,0.2 3.3,0.8 1,0.6 1.8,1 3,0.5 0.9,-0.4 1.8,-0.4 2.9,0 0.6,0.2 1.5,0 2.2,-0.3 0.8,-0.4 1.6,-0.7 2.6,-0.3 0.4,0.2 1.1,0.1 1.5,-0.1 1.6,-1.2 3.4,-0.8 5,-0.5 1.5,0.3 3,0.5 4.5,0 0.3,-0.1 0.7,-0.1 1,-0.1 0.5,0 1,0.1 1.4,0 1.2,-0.2 2.5,-0.5 3.7,-0.8 0.1,0.2 0.2,0.3 0.2,0.5 -0.5,0.4 -0.9,0.9 -1.5,1 -0.9,0.3 -1.9,0.3 -2.9,0.5 -0.5,0.1 -1.5,0.3 -1.5,0.5 0,0.7 0.1,1.6 0.5,2.2 0.4,0.5 1.3,0.8 1.9,1.1 -0.9,1.8 -0.9,2.3 0.5,4 0.3,0.3 0.9,0.4 1.4,0.4 0.8,0 1.5,-0.3 2.3,-0.3 0.4,0 0.7,0.3 1.1,0.5 -0.3,0.1 -0.7,0.4 -1,0.4 -1.5,0.2 -3,0.3 -4.5,0.6 -0.4,0.1 -0.8,0.8 -1,1.3 -0.2,0.5 0,1 0,1.4 -1.3,0.9 -2.6,1.6 -3.7,2.5 -0.5,0.4 -0.8,1.3 -0.8,2 0.1,0.8 0.5,1.6 1,2.3 0.5,0.7 1.4,0.5 1.9,0 1.2,-1 2.3,-2.2 3.5,-3.3 0.4,-0.4 0.9,-0.8 1.4,-0.8 1.7,0 3.5,0.2 5.4,0.6 -0.5,0.2 -1.1,0.5 -1.6,0.6 -1.1,0.2 -2.3,0.2 -3.3,0.5 -0.5,0.1 -1.1,0.6 -1.1,1 -0.1,0.5 0.3,1.3 0.7,1.5 1,0.5 2.3,0.7 3.4,1.1 0.5,0.1 1,0.1 1.4,0.3 0.2,0.1 0.5,0.6 0.4,0.8 0,0.2 -0.5,0.5 -0.8,0.5 -1.3,-0.1 -2.7,-0.2 -4,-0.4 -2.3,-0.2 -3.2,0.8 -2.4,3 0.1,0.2 0.1,0.4 0.2,0.7 -0.8,0.3 -1.6,0.5 -2.5,0.8 -0.8,0.3 -1.4,0.8 -1.2,1.8 0,0.3 -0.2,0.6 -0.2,0.9 -0.1,0.7 -0.3,1.6 0,2 0.4,0.5 1.4,0.8 2.1,0.7 1.5,-0.2 2.9,-0.3 4.3,0.2 0.1,0.1 0.3,0.1 0.6,0.3 -1.1,0.9 -2.4,1.3 -3.6,1.4 -0.8,0.1 -1.7,0 -2.6,0.2 -0.6,0.2 -1.3,0.8 -1.4,1.3 -0.1,0.5 0.6,1.2 0.9,1.7 0.1,0.1 0.4,0.1 0.4,0.2 0.8,1.8 2.2,1 3.4,0.7 0.8,-0.2 1.6,-0.3 2.6,-0.3 0.4,0 0.9,0.3 1.3,0.4 -0.4,0.5 -0.8,1.3 -1.3,1.4 -1.1,0.2 -2.3,0 -3.4,0 -0.9,0 -1.6,0.1 -1.9,1.1 -0.2,0.9 0.1,1.6 0.9,2 0.4,0.2 0.8,0.4 0.9,0.5 -0.1,1.1 -0.1,2 -0.2,3 -0.1,1 0.1,2.2 -1.4,2.4 -0.6,0.1 -1.2,0.7 -1.7,1.1 -0.9,0.9 -0.7,2.1 0.6,2.4 0.9,0.2 1.9,-0.1 3,-0.3 1.2,-0.3 2.4,-0.7 3.5,-1.1 0.1,0.2 0.2,0.3 0.2,0.5 -0.3,0.2 -0.5,0.6 -0.8,0.7 -1.3,0.5 -2.8,0.9 -4.1,1.5 -0.5,0.2 -0.9,0.6 -1.4,0.9 0.3,0.5 0.6,1.2 1.1,1.4 1.1,0.4 2.5,0.6 3.7,0.9 0.5,0.1 1,0.3 1.5,0.4 0,0.1 0,0.3 -0.1,0.4 -1,0 -1.9,0.1 -3,0 -0.7,-0.1 -1.3,-0.4 -2.1,-0.6 -1.7,-0.3 -2.7,0.7 -2.2,2.4 0.4,1.3 -0.2,2.2 -1.5,2.4 -0.3,0 -0.6,0 -0.8,0.1 -1.4,1 -2.8,0.3 -4.2,-0.2 -0.7,-0.3 -1.4,-0.4 -2.3,-0.7 -0.4,-0.1 -0.8,-0.3 -1.1,-0.6 -1.1,-1.1 -1.8,-1.1 -2.7,0.1 -0.8,1.1 -0.8,1.1 -1.6,0 -0.7,-0.9 -1.4,-1.4 -2.7,-1.2 -0.3,0 -0.7,0 -1,-0.2 -1.2,-0.5 -2.2,-0.3 -3.2,0.6 -0.3,0.3 -0.9,0.4 -1.3,0.3 -1.7,-0.3 -3.4,-0.8 -5.1,-1.2 -0.5,-0.1 -1,-0.5 -1.3,-0.8 -1,-1.2 -1.7,-1.3 -3.1,-0.4 -0.9,0.7 -2.7,0.7 -3.5,-0.2 -0.9,-1 -2.1,-1.1 -3.4,-1.1 -0.8,0 -1.6,-0.1 -2.4,-0.3 -1,-0.3 -1.9,-0.2 -2.9,0.4 -0.5,0.3 -1.1,0.3 -1.7,0.5 -0.5,0.1 -1.1,0 -1.5,0.2 -1.2,0.7 -2.5,0.5 -3.7,0.2 -1.3,-0.3 -2.8,-0.5 -4.2,-0.8 -0.5,-0.1 -0.9,-0.5 -1.2,-0.8 -1.1,-1.2 -1.5,-1.3 -3,-0.7 -0.7,0.3 -1.3,0.4 -2.1,-0.2 -0.4,-0.4 -1,-0.6 -1.5,-0.7 -0.9,-0.3 -1.9,-0.5 -2.4,-1.7 0.3,-0.2 -0.4,-0.4 -0.8,-0.6 z m 34.4,-21.4 c -0.4,-2.1 -0.3,-4.9 -1,-7 -1,-3 -2.9,-7.1 -7.7,-8.2 -5,-1.2 -9.2,-0.1 -12.6,3.5 -3.9,4.1 -6.1,9 -6.7,14.5 -0.5,5.1 1.4,9.1 5.8,11.7 4.3,2.6 9,3.3 13.8,0.5 5.3,-5 8.2,-8.3 8.4,-15 z"
         id="path10"
         inkscape:connector-curvature="0"
         style="opacity:0.47000002;enable-background:new" /><path
         class="st1"
         d="m 382.6,378.7 c 0,1.3 0,2.5 0,3.6 0.1,1.6 -1.1,2 -2.3,2.5 -1.3,0.6 -2.4,1.8 -2.1,2.9 0.2,0.7 0.7,1.6 1.3,2 0.5,0.3 1.4,-0.2 2.5,-0.3 0.6,0.5 0.5,1.8 -0.3,2.4 -1.2,0.8 -1.2,1.7 0,3.1 -0.9,0.8 -3.2,0.4 -2.7,2.4 0.3,1.4 1.6,1.6 3,1.7 -0.3,1.3 0.2,2.5 -0.9,3.6 -0.4,0.3 0,1.4 0,2.2 -0.3,0.6 -0.9,1.3 -0.9,2 0,1 0.9,1.4 1.8,1.6 1.3,0.2 1.1,1.1 0.9,1.9 -0.2,0.9 -0.9,0.7 -1.5,0.5 -2.7,-1.2 -5.1,-0.5 -7.5,0.9 -1,0.6 -2.1,0.6 -3.1,0.2 -0.1,0 -0.1,-0.1 -0.2,-0.1 -1.3,0 -2.9,0.3 -4,-0.2 -1.5,-0.8 -2.7,-0.1 -3.9,0.4 -0.3,0.1 -0.6,0.1 -0.9,0.2 -2.5,0.1 -5,0.2 -7.5,0.2 -0.5,0 -1,-0.2 -1.4,-0.5 -1.2,-0.8 -1.8,-0.9 -3,0 -0.5,0.4 -0.9,0.9 -1.4,1.3 -1.9,1.8 -4.2,2.5 -6.9,1.9 -0.8,-0.2 -1.6,-0.2 -2.5,-0.2 -1,0 -1.9,0 -2.9,-0.7 -0.4,-0.3 -1.1,-0.2 -1.7,-0.1 -0.7,0.1 -1.3,0 -1.8,-0.7 -0.6,-0.9 -1.5,-0.7 -2.4,-0.3 -0.6,0.2 -1.3,0.2 -2.1,0.3 -2.1,0.2 -4.1,0.3 -6.1,0.5 -1.2,0.1 -8.4,1.5 -9.7,1.5 0.3,-0.4 2.2,-1.1 3.7,-1.8 1.5,-0.7 3,-1.4 2.6,-1.7 -0.6,-0.5 -7.1,1 -3.6,-0.1 -0.1,-0.6 1.1,-2.5 1,-3.4 -0.1,0 -0.2,0 -0.3,0 0.3,-0.4 0.6,-0.7 0.9,-1.1 0.8,-1.3 0.3,-2.3 -1.2,-2.4 -1,0 -1.9,0.1 -3,0.1 0,-0.1 -0.1,-0.3 -0.1,-0.4 0.4,-0.2 0.8,-0.4 1.3,-0.5 1,-0.2 2.1,-0.3 3,-0.7 1,-0.4 1.6,-1.1 1.7,-2.3 0,-1.3 -0.6,-2.1 -1.9,-2.1 -0.9,0 -1.5,-0.1 -1.6,-1.2 1.2,-0.8 1.3,-2 0.8,-3.4 -0.1,-0.3 0.2,-0.9 0.5,-1.1 1.7,-1.2 1.9,-2.7 0.5,-4.1 -0.7,-0.8 -1.5,-0.8 -1.9,0.2 -0.7,1.6 -2.1,1.6 -3.8,1.4 0.5,-0.6 1,-0.9 1.3,-1.4 0.3,-0.7 0.8,-1.5 0.6,-2.1 -0.2,-0.5 -1.1,-0.8 -1.8,-1.1 -0.3,-0.2 -0.7,-0.1 -1.3,-0.2 0.3,-0.2 0.4,-0.4 0.5,-0.4 1.7,0.1 2.6,-1.3 3.6,-2.2 0.9,-0.8 0.8,-1.8 -0.4,-3.3 0.3,-0.4 0.6,-0.8 0.9,-1.3 0.5,-0.8 0.6,-1.7 0,-2.5 -0.6,-0.8 -1.5,-0.7 -2.4,-0.5 -0.6,0.2 -1.2,0.5 -1.8,0.8 -0.5,0.2 -0.9,0.2 -1.6,0.3 0.3,-1.3 1.2,-1.4 2.1,-1.7 1.2,-0.4 2.4,-0.8 3.5,-1.4 0.9,-0.5 1.3,-1.4 1.1,-2.4 -0.2,-1.1 -0.9,-1.8 -2.1,-2 -1.1,-0.2 -2.4,-0.1 -3.6,-0.2 -0.6,-0.1 -1.2,-0.3 -1.8,-0.6 0.9,-0.9 1.8,-0.9 2.9,-0.6 0.8,0.3 1.6,0.7 2.5,0.8 1.3,0.2 2.1,-0.5 1.7,-1.8 -0.2,-0.7 -0.2,-1.2 0.4,-1.7 1.1,-1 0.6,-3.1 -0.8,-3.9 -0.4,-0.2 -5.2,-0.4 -5.3,-0.4 1.8,-0.7 8.1,-1.3 10.2,-2.2 1,-0.4 1.9,-1.1 2.8,-1.7 0.5,-0.4 0.8,-0.5 1.3,0 0.8,0.8 1.5,0.6 2.4,-0.1 1.2,-1.1 2.7,-1.5 4.5,-1.4 2.8,0.2 5.5,0.6 8.2,-0.8 0.4,-0.2 1,0 1.4,0.1 1.1,0.5 2.1,0.4 2.9,-0.5 1.2,-1.2 3.1,-1.3 4.6,-0.6 0.2,0.1 0.4,0.3 0.5,0.5 0.7,1.8 2.3,2.1 4,2.2 0.4,0 0.9,0 1.2,0.2 1.5,1 3,0.7 4.4,-0.1 1,-0.5 1.9,-0.7 3.1,-0.2 0.6,0.2 1.4,0.2 2.1,0 3.4,-1 6.8,-1 10.2,-0.2 1.3,0.3 2.9,0.4 4.2,0.5 1.4,0.2 2.9,0.2 4.3,0.4 0.8,0.1 1.4,2.5 1,3.2 -0.4,0.7 -0.7,1.4 -1.2,2.1 -0.2,0.3 -0.5,0.5 -0.8,0.6 -1.4,0.2 -2.1,0.7 -2.1,2.2 0,1 0.2,2.1 0.4,3.1 0.3,1.2 1.4,1.6 2.8,1.2 0.9,-0.3 1.1,-0.1 0.9,0.8 -0.2,1.1 -0.2,2.3 -0.5,3.4 -0.1,0.5 -0.7,1.1 -1.2,1.3 -1.9,0.5 -2.7,1.4 -2.3,3 0.4,1.4 1.8,2 3.6,1.3 0,-0.5 0.1,-0.5 0.5,-0.6 z m -9.5,5.3 c -0.1,-1.8 -0.1,-3.7 -0.4,-5.5 -0.5,-3.8 -2.4,-6.1 -5.2,-9 -1,-0.7 -2.2,-0.8 -3.4,-0.8 -3.7,-0.2 -6.4,1 -8.5,4.1 -0.8,1.4 -1.7,2.8 -2.4,4.2 -2.6,5.2 -3.4,10.7 -2.3,16.5 0.9,5.2 3.4,8.4 8,10.8 3.6,1.6 7.1,0.9 9.4,-2.1 1.1,-1.5 2.1,-3.2 2.7,-4.9 1.6,-4.2 1.9,-8.7 2.1,-13.3 z"
         id="path12"
         inkscape:connector-curvature="0"
         style="opacity:0.47000002;enable-background:new" /><path
         class="st1"
         d="m 308.5,214.7 c 0.5,-0.2 1,-0.4 1.6,-0.4 1.4,0 2.8,0.1 4.2,0 0.7,0 1.5,0 2.2,-0.2 0.6,-0.2 1.5,-0.7 1.5,-1 0,-0.7 -0.4,-1.6 -0.9,-2.1 -0.5,-0.5 -1.4,-0.6 -2.2,-0.6 -1.3,-0.1 -2.8,-0.1 -4.2,-0.2 -0.5,0 -1,-0.3 -1.6,-0.4 0.7,-1.7 1.5,-2.1 3.1,-1.6 1.6,0.5 3.2,0.4 4.7,-0.2 1.2,-0.5 2.1,-1.4 2.1,-2.7 0,-1.3 -1.1,-2 -2.3,-2.3 -1.2,-0.3 -2.5,-0.3 -3.8,-0.4 -1.3,-0.1 -2.7,0 -4,-0.2 -0.9,-0.1 -1.6,-0.6 -2.1,-1.7 0.6,0 1.1,-0.1 1.5,0.1 5,0.8 9,0.9 13.4,-0.6 1.6,-0.6 3.2,-0.8 4.7,-0.1 1,0.4 2.1,0.3 2.8,-0.7 0.5,-0.7 1.2,-0.9 2.2,-0.7 2.1,0.3 3.1,-0.4 3.8,-2.2 0.1,-0.3 0.6,-0.7 0.9,-0.7 0.9,0 1.8,0.1 2.6,0.4 1.2,0.5 2.4,0.6 3.5,-0.1 1.4,-0.8 2.8,-1.7 4.2,-2.5 0.4,-0.2 1,-0.4 1.5,-0.4 1.2,-0.1 2.6,-0.2 3.8,-0.1 2.2,0.1 3.7,-0.9 4.8,-2.4 0.8,-1.1 1.6,-1.6 3,-1.8 2.1,-0.3 4,-0.9 6,-1.5 1.9,-0.6 6.6,-2.9 8.3,-3.8 2.1,-1 2.9,-2 3.4,-2 2.1,0 0.1,6.3 1,8 -0.6,0.9 -0.4,2.8 0,4 0.2,0.5 -1.5,0.7 -1.7,1.3 -0.5,-0.2 -0.7,-0.2 -1,-0.3 -1.6,-0.6 -1.2,0.3 -1.3,2 0,0.4 -0.8,0.8 -1,1 -0.7,0.7 -0.6,1.2 0,2 0.6,0.9 0.4,0.9 1.4,0.6 0.6,-0.2 1.2,-0.2 1.8,-0.1 0.9,0.2 2.4,0.5 1.8,1.5 -0.2,0.5 0.8,2.1 0,2 -0.6,0 0.9,1.2 1,2 -0.7,-0.3 -2.6,-0.5 -2.9,-0.6 -1.2,-0.4 -0.9,-0.3 -1.2,0.6 -0.3,0.9 -0.1,1.6 1,2 0.7,0.2 1.2,0.8 2.1,1 -1,1.6 -0.2,2.8 1,4 0.4,0.4 0,1.2 0,2 -0.3,0.1 -1.2,0.5 -1.3,0.4 -0.8,-0.1 -0.3,-0.2 -0.7,0.6 -0.4,0.9 -0.7,1.7 0,2 1.5,0.8 1.8,2.7 2.1,4 0.1,1.3 0.8,2.7 1,4 0.2,1 0.2,1.6 -1,2 -1.4,0.4 -2.3,1.1 -1,2 1.9,1.3 2.6,3 2.1,5 -0.1,0.4 0.1,2.6 0,3 -0.4,1.8 -0.1,4.3 1,6 0.1,0.2 -1.8,-1.6 -1.7,-1 -1.2,-0.1 -2.5,0.1 -3.4,-0.3 -2.4,-0.3 -3.3,0.4 -5.5,1.3 -0.4,0.2 -2.3,0.9 -2.7,1 -1,0.4 -2.1,0.7 -3.1,1 -0.5,0.1 -0.7,0.7 -1,1 -1.4,1.1 -2.9,-0.7 -4.1,-1.3 -1.7,-0.8 -1.7,-0.9 -3.1,0.3 -0.9,0.9 -2.9,1.5 -4,1.4 -1.8,-0.1 -3.6,-0.4 -5.4,-0.4 -0.9,0 -1.8,-0.4 -2.8,-0.6 -0.9,-0.2 -1.9,-0.5 -3,-0.6 -1.9,-0.2 -3.8,-0.3 -5.7,-0.5 -0.4,0 -0.8,-0.3 -1.1,-0.7 -0.8,-1.1 -1.5,-0.7 -3.1,-0.9 -0.7,0.2 -1.3,0.8 -2,0.8 -2.5,1.8 -3.2,1.7 -4.8,2.4 -0.6,0.3 -1.9,0.7 -2.6,0.6 -1.2,-0.1 -1.4,-0.3 -2.5,0.5 -0.7,0.5 -2.2,0.4 -2.5,0.3 -0.4,-0.4 -0.8,-0.9 -1.1,-1.3 -0.2,0.1 -0.4,0.3 -0.7,0.4 0.6,-0.4 1.3,-0.7 1.8,-1.2 0.5,-0.5 1,-1.2 1,-1.8 0,-0.5 -0.9,-0.9 -1.4,-1.3 -0.6,-1.7 -0.7,-1.1 -2.8,-1.1 -1.2,0 -2.7,-0.9 -3.9,-1 -0.3,0 -0.6,-0.5 -0.9,-0.8 0.4,-0.2 0.7,-0.6 1.1,-0.6 0.5,0 1.1,0.2 1.6,0.4 1.7,0.6 3.3,-0.3 3.4,-2.1 0,-0.4 0.1,-0.8 0.3,-1.1 0.6,-0.6 0.7,-1.4 0.2,-1.9 -0.4,-0.5 -1.1,0.6 -1.8,0.4 -0.3,-0.1 -0.8,-1.1 -1.2,-1.1 0,-0.1 0,-0.2 -0.1,-0.3 0.7,-0.2 1.4,-0.3 2.1,-0.6 0.7,-0.3 1.4,-0.7 1.9,-1.2 0.3,-0.3 0.5,-1.2 0.3,-1.5 -0.4,-0.6 -0.7,-0.4 -1.3,-0.5 -0.9,-0.1 -2.3,0.1 -3.1,0.4 -0.8,0.3 -1.7,0 -2.8,-0.8 0.6,-0.2 1,-0.3 1.4,-0.4 0.7,-0.2 1.4,-0.4 2.1,-0.8 1,-0.7 0.9,-1.7 -0.2,-2.2 -0.7,-0.4 -1.6,-0.5 -2.5,-0.9 -0.8,-0.3 -1.3,-0.8 -1,-2 0.4,0.4 0.8,0.7 1.1,1 1.2,1.1 3.6,1.2 4.8,0.1 1,-0.8 1.1,-1.6 0.4,-2.7 -0.9,-1.5 -0.9,-1.6 0.6,-2.5 1.3,-0.7 1.5,-2.4 0.2,-3.1 -0.8,-0.5 -1.5,-0.2 -2.4,-0.3 -1.3,0 -3.1,-0.2 -4.6,-0.2 -0.6,0 -1.1,-0.2 -1.7,-0.3 0.5,0.1 0.4,-0.1 0.4,-0.3 z m 59.5,3.2 c 0,-4.9 -1.7,-9.2 -4.4,-13.2 -2.3,-3.3 -5.5,-3.8 -9.2,-3.4 -4,0.4 -6.6,3 -8.4,6.3 -2.5,4.4 -2.4,8.9 -1.9,13.8 0.4,3.5 1.2,6.8 3.2,9.9 3.5,3.3 6.1,5.2 10.5,3 6.9,-3.3 10.1,-9 10.2,-16.4 z"
         id="path14"
         inkscape:connector-curvature="0"
         style="opacity:0.47000002;enable-background:new" /></g><g
       id="CL_1001431"
       inkscape:label="CL_1001431"
       style="display:inline;fill:none"><path
         class="st2"
         d="m 68.8,325.9 c 0.4,-2.1 0.7,-4.1 1.1,-6.2 0,-0.2 0.3,-0.5 0.5,-0.6 1.5,-0.6 2,-1.9 0.6,-2.9 -0.7,-0.6 -1.1,-1.1 -0.8,-2.1 0.1,-0.3 0.1,-0.8 0,-1.1 -0.9,-1.6 -0.2,-3.4 -0.3,-5 0,-0.4 0.3,-1 0.6,-1.3 1.6,-1.1 1.7,-2.6 0.2,-3.9 -0.1,-0.1 -0.2,-0.2 -0.2,-0.3 1.2,-1.4 1.3,-2.7 0.1,-4.2 -0.8,-1.1 -1.2,-1.9 -0.3,-3.2 0.5,-0.6 0.3,-1.4 -0.1,-2.3 -0.4,-0.9 0,-2.2 0.3,-3.2 0.3,-0.9 1.2,-1 2.2,-0.6 0.8,0.4 1.6,0.7 2.4,1.2 0.9,0.6 1.9,0.7 2.8,0.2 0.7,-0.4 1.2,-0.3 1.7,0.4 0.4,0.5 1.1,1 1.7,1.1 1.9,0.4 3.7,0.8 5.6,1 0.8,0.1 1.7,-0.1 2.6,-0.2 0.6,-0.1 1.3,-0.1 2,-0.3 0.7,-0.2 1.4,-0.3 2.2,-0.7 0.8,-0.4 1.3,-0.6 2.1,-0.2 0.1,0.1 0.2,0.2 0.3,0.1 2.5,-0.4 4.6,1 6.8,1.7 1.3,0.5 2.5,0 3.6,-1.1 1.9,1.7 3.7,2.1 5.7,2.5 0.7,0.1 0.9,0.2 1.6,0.5 1.1,0.4 2.3,0.6 3.1,-0.5 0.1,-0.1 0.3,-0.3 0.4,-0.3 1.3,0.2 3.7,-0.3 4.6,0.5 2.4,2 1.7,2.5 3.6,0.6 1,0.3 2.4,0.2 3.2,0.4 1.1,0.4 2.5,0.7 3.6,0.9 0.8,0.2 0.9,0.6 1.7,0.5 0.6,-0.1 1.6,-0.7 2,-0.1 1.4,1.8 2.6,4.1 2.1,6.4 -0.1,0.7 -0.2,1.8 -0.1,2.6 0.1,1 0.7,1.7 0.4,2.6 -1,3.5 -1.6,7.3 -1,11 0.5,2.6 0.6,5.3 1,8 0.1,0.7 0.4,1.1 0.8,1.8 0.2,0.4 1.5,1.4 1.3,1.7 0,0.2 -1.9,0.4 -2.2,0.4 -0.1,0.6 0.6,0.8 0,1.2 -0.2,0.8 -0.7,2.2 -1,3 -0.5,1.5 -1,1.7 0,3 0.4,0.6 0.6,2.4 1,3 -0.2,0.2 -0.8,0.2 -0.8,0.2 -1.1,0.7 -1.1,0.7 -1.2,2.8 0,0.7 -1.1,1.8 -1.5,2.3 -1.3,2.6 -2.3,4.3 -5.2,6.3 -1.8,1.6 -3.2,1.2 -3.7,1.1 -1,-0.1 -2,-0.6 -3,-1 -0.4,-0.2 -0.8,-0.5 -1.2,-0.8 -1.4,-1.1 -2.4,-0.9 -4.2,-0.3 -1,0.4 -2.5,0.2 -3.6,0.3 -2.6,0.3 -5.6,-0.1 -8.2,0.3 -0.4,0.1 -0.9,0.1 -1.2,-0.1 -2.1,-1.1 -4.2,-0.5 -5.9,0.8 -2.5,1.9 -5.2,0.9 -7.9,0.7 -0.3,0 -0.5,-0.1 -0.8,-0.3 -1.2,-0.8 -2.2,-0.2 -3.3,0.5 -1.2,0.7 -2.6,0 -3.6,-0.9 -1.5,-1.4 -3.6,-1.8 -5.6,-2 -1.3,-0.1 -2.5,-0.4 -3.5,-1.1 -1.1,0.3 -2.4,-1.5 -4,-1.1 -0.7,0.2 -1.5,-1.2 -1.4,-2.1 0.2,-1.2 0.3,-2.4 0.4,-3.6 0.1,-1 0.3,-1.8 1.4,-2.3 1,-0.4 1.2,-1.6 0.4,-2.7 -0.6,-0.9 -0.4,-1.7 -0.2,-2.7 0.3,-1.3 0.4,-2.7 0.5,-4.1 0,-0.4 -0.3,-0.9 -0.6,-1.2 -0.5,-0.5 -0.4,-0.8 0,-1.3 1.4,-1.5 1.1,-3 -0.8,-3.9 -0.3,0.4 -0.4,0.3 -0.8,0.2 z m 7.4,-4.1 c 0.2,2 0.3,3.5 0.4,5.1 0.3,6.1 5.8,12.1 12.7,12.2 1.9,0 3.5,-0.4 4.9,-1.4 3,-2.1 5,-4.9 6.3,-8.2 1.7,-4.6 2.2,-9.4 1.3,-14.3 -0.6,-3.8 -1.7,-7.5 -4.5,-10.4 -4.9,-5.2 -13.2,-4.3 -17,1.1 -3.3,4.9 -4,10.5 -4.1,15.9 z"
         id="path17"
         inkscape:connector-curvature="0"
         style="opacity:0.68000034;enable-background:new" /><path
         class="st2"
         d="m 67.1,520.7 c -0.7,-1 -1.4,-1.4 -2.7,-1.4 -0.4,0 -1.1,-1.1 -1.1,-1.7 -0.1,-1.5 0,-3 0.1,-4.5 0.1,-0.9 0.3,-1.8 0.3,-2.8 0,-0.7 0,-1.2 0.8,-1.5 0.3,-0.1 0.6,-0.3 0.7,-0.6 0.6,-0.9 -0.3,-4.4 -1.2,-5 -0.3,-0.2 -0.6,-0.5 -0.6,-0.8 -0.2,-1.2 -0.4,-2.5 -0.3,-3.7 0.1,-1.3 1.3,-2.3 1.2,-3.7 0,-0.1 0.5,-0.2 0.6,-0.3 0.3,-0.4 0.7,-0.8 0.7,-1.2 0,-1 -0.1,-2.1 -0.5,-3 -0.2,-0.5 -0.8,-0.9 -1.3,-1.3 0,-1.6 0,-3.4 0,-5.2 0,-0.4 0.3,-0.9 0.6,-1.2 1.2,-1.1 1.1,-2.6 -0.4,-3.3 -1.2,-0.5 -1.5,-1.3 -1.1,-2.4 0.3,-0.9 0.4,-1.8 -0.2,-2.6 -0.6,-0.9 -0.3,-1.5 0.7,-1.8 0.4,-0.2 0.8,-0.4 1.1,-0.7 1.2,-1.2 0.9,-2.8 -0.6,-3.7 0,-0.9 0.1,-1.8 0,-2.6 -0.1,-0.4 -0.5,-0.7 -0.8,-1.1 0.3,-1 0.7,-2.1 1,-3.2 0,-0.1 0.2,-0.3 0.3,-0.4 1.3,-0.5 2.7,-1 4,-1.6 0,0 1.1,-1.1 1.1,-1 0.2,1.5 1.3,2.1 3.1,2 1.3,0 2.8,0.6 4.1,1 2.4,0.7 3.8,1.4 6.2,2 1.2,0.3 2.8,1.7 3.1,3 0.3,1.1 1,-0.1 2.1,0 0.9,0 1.7,1 2.1,2 0.4,1.7 2.3,1.9 4.1,1 1.2,-0.6 2.4,1 3.1,2 0.4,0.5 1.3,-0.2 2.1,0 1.1,0.4 1,0.6 2.1,1 1,0.5 1,0.5 2.1,0 1.6,-0.8 4.1,-0.4 5.1,1 1,1.5 2.4,1.9 4.1,2 1.1,0.1 2,0.8 3.1,1 0.7,0.2 1.3,0 2.1,0 2.4,0.1 4.7,0.1 7.2,0 2.3,-0.1 4.1,2.4 4.7,4.4 0.2,0.6 0,1.4 0,2.1 0,1 -0.2,2.1 0.1,3 0.5,1.7 0.5,3.4 -0.3,5 -0.8,1.6 -0.5,3 0.3,4.5 0.7,1.4 1,3 1.3,4.5 0.1,0.6 -0.3,1.3 -0.5,1.9 -0.3,1.3 -0.7,2.5 -1,3.8 -0.2,1 -0.2,2.1 -0.2,3.2 0,0.5 -0.1,1.2 0.1,1.6 0.3,0.7 0.1,1.1 -0.3,1.8 -0.5,0.8 -0.7,1.8 -0.8,2.8 -0.1,1.8 -0.1,3.6 -0.1,5.5 -0.1,2.6 -1.6,3.9 -4.3,4 -1,0 -2,0.5 -3,0.7 -0.8,0.2 -1.6,0.3 -2.6,0.4 -1.7,0.1 -3.6,0.2 -5.3,0.3 -1.7,0.2 -3.5,0.6 -5.1,-0.6 -0.8,-0.6 -2.1,-0.6 -2.8,0.2 -1.5,1.5 -3.1,0.7 -4.6,0.3 -0.4,-0.1 -0.8,-0.5 -1.2,-0.6 -0.4,-0.2 -1.1,-0.5 -1.4,-0.3 -1.2,0.8 -2.4,0.3 -3.5,0 -0.5,-0.1 -0.9,-0.4 -1.4,-0.6 -0.5,-0.2 -1.3,-0.5 -1.6,-0.3 -1.7,1.2 -3.5,0.5 -4.9,-0.3 -1.6,-0.8 -3.2,-1.1 -4.9,-1 -1,0 -2.1,-0.2 -3,-0.5 -1.5,-0.4 -3.1,-0.9 -4.6,-1.5 -0.5,-0.2 -0.9,-0.5 -1.3,-0.8 -1.7,-1.5 -2.9,-1.6 -4.6,-0.1 -0.7,0.4 -0.9,0.6 -1.4,0.9 z m 31.3,-24.8 c -0.1,0 -0.2,0 -0.3,0 0,-0.2 0,-0.4 0,-0.6 0,-3.6 -0.5,-7 -2.4,-10.2 C 92,478.8 82.3,477 77.6,484 c -2.3,3.3 -3,6.5 -3.9,10.3 -1.1,5.1 -0.1,9.5 3.1,14 3.1,4.3 6.2,5.7 11.3,5 4.2,-0.6 6.5,-2.9 8,-6.3 0.4,-0.8 0.7,-1.7 0.9,-2.6 0.5,-2.8 0.9,-5.6 1.4,-8.5 z"
         id="path19"
         inkscape:connector-curvature="0"
         style="opacity:0.68000034;enable-background:new" /><path
         class="st2"
         d="m 380.2,244.6 c 0,1.6 0.1,3.3 0,4.9 -0.1,0.6 -0.5,1.4 -1,1.7 -1.5,1.1 -1.7,2.9 0,3.8 1.5,0.8 2,1.7 1.5,3.3 -0.2,0.7 0.2,1.6 0.4,2.4 0.2,0.8 0.2,1.5 -0.9,1.5 -0.3,0 -0.6,0.2 -0.7,0.4 -1.2,1.5 -1.1,3.2 -0.8,4.9 0.2,1.1 0.8,1.4 2.8,1.6 0,0.5 0.1,1.1 0,1.6 0,0.2 -0.3,0.5 -0.6,0.6 -1.5,0.4 -2,1.5 -0.9,2.7 0.3,0.3 0.6,0.6 0.7,1.2 -0.3,-0.1 -0.7,-0.1 -1,-0.3 -0.9,-0.5 -1.7,-0.8 -2.6,0.2 -0.6,0.7 -0.4,2.3 0.5,2.9 0.5,0.4 1.2,0.6 2,0.8 0.9,0.2 1.1,0.6 0.7,1.3 -0.7,1.3 -0.7,2.7 -0.4,4.1 0.2,1 0.2,1.8 -1.2,2.1 -1.5,0.3 -1.4,1.9 -1.7,3.1 -0.3,0.9 0.4,1.9 1.3,2 2.2,0.4 2.3,2 2.5,3.5 0.3,2.2 0.5,4.3 0.8,6.5 0.1,0.9 -0.1,1.1 -1,1.4 -3,1 -5.3,0.2 -7.7,-1.8 -1.4,-1.2 -3.3,-2.2 -5.7,-1.4 -1.7,0.6 -3.6,0.7 -5.3,1.6 -2.4,1.2 -4.9,2.1 -7.4,3 -0.3,0.1 -0.7,0.2 -0.9,0.1 -1.6,-0.4 -3.2,0.1 -4.6,0.8 -0.5,0.3 -1.4,-0.1 -2.1,0.1 -2.1,0.6 -3.8,-0.5 -5.8,-0.9 -0.3,-0.1 -0.6,-0.3 -0.8,-0.5 -1.1,-1 -2.4,-1.5 -3.9,-1.2 -2.4,0.4 -4.6,0.9 -7,1.4 -0.4,0.1 -1,0.1 -1.3,-0.1 -1.5,-0.8 -2.3,-0.9 -3.6,0.2 -0.8,0.7 -1.3,0.8 -2.2,0.1 -0.5,-0.4 -1.2,-0.6 -2,-0.6 -2.3,-0.1 -3.7,-1.3 -4.1,-3.5 -0.5,-2.9 -0.6,-5.7 0.4,-8.5 0.8,-2.3 0.5,-4.5 -0.2,-6.8 -0.3,-1.2 -0.2,-2.4 -0.3,-3.7 -0.1,-1.1 0,-2.3 -0.4,-3.3 -0.8,-2.1 -0.7,-3.9 0.7,-5.6 0.7,-0.9 1,-1.9 0.8,-3 -0.3,-2.2 -0.4,-4.4 -1.3,-6.5 -0.8,-1.9 -0.9,-4.1 -1.2,-6.2 -0.1,-1 0.3,-2 0.5,-3.1 0.4,-1.9 2.2,-2.7 3.6,-3.8 1.4,-1 3,-1.9 4.9,-1.3 0.5,0.1 1.2,-0.2 1.6,-0.5 1.9,-1.1 3.5,-2.6 6,-2.4 0.4,0 0.7,-0.3 1.1,-0.4 0.4,0 0.9,0 1.1,0.2 1.4,1.9 3.7,1.5 5.7,2 0.4,0.1 0.9,0.1 1.3,0 1.6,-0.3 3.1,0.2 4.6,0.8 1.2,0.5 2.8,0.3 4.2,0.3 1.4,0 2.9,-0.1 4.3,0 1.2,0.1 2.4,-0.1 3.3,-1 0.7,-0.8 1.5,-0.9 2.7,-0.4 1.6,0.8 3.5,1.6 5.3,0.3 0,0 0.1,-0.1 0.1,0 3.2,0.4 5.2,-2.2 7.9,-3 1,-0.3 1.9,-0.5 3,-0.2 1.2,0.4 2.7,0.4 4.3,0.6 z M 341.9,275 c -0.5,6.2 5.4,13.3 14.3,12.7 5.3,-1.6 8.8,-4.7 10.5,-9.5 1.4,-5.8 1.3,-8.6 0.1,-14.3 -1.3,-4.3 -5.8,-7.5 -9.9,-7.4 -5.4,0.2 -9.7,2.5 -12.3,7.2 -2,3.5 -2.6,7.2 -2.7,11.3 z"
         id="path21"
         inkscape:connector-curvature="0"
         style="opacity:0.68000034;enable-background:new" /><path
         class="st2"
         d="m 332.1,414.9 c 1,0.1 1.3,1.4 2.8,1.2 0.3,0 0.7,-0.1 0.8,0.1 1,1 2.3,0.7 3.4,0.8 1.1,0.1 2.3,0.3 3.3,0.4 2.3,0.2 4.4,-0.7 6.3,-1.9 0.8,-0.5 1.4,-0.9 2.3,-1.6 0.5,-0.5 0.9,-0.4 1.5,-0.1 0.7,0.4 1.5,0.7 2.4,0.7 2.5,0 4.9,-0.1 7.4,-0.2 0.7,0 1.5,-0.3 2.3,-0.6 0.7,-0.3 1.2,-0.4 2.1,0 0.6,0.3 1.5,0.2 2.3,0.2 0.9,0 1.7,-0.1 2.7,0.1 1.2,0.3 2.8,-0.2 3.9,-0.9 0.5,-0.3 0.8,0 1.3,-0.3 1.2,-0.7 2.5,-0.9 3.9,-0.4 1.4,0.5 3,0.6 4.6,0.9 -0.4,1.2 -0.8,2.2 -1,3.2 -0.2,1 -0.4,2.1 -0.1,3.1 0.5,2 0.2,2.9 -1.4,4.2 -0.5,0.4 -0.9,0.8 -1.3,1.3 -0.9,1.3 -0.4,2.8 1.2,3.4 1.1,0.3 1.6,1.3 1.5,2.6 -0.1,1 -0.6,1.5 -1.6,1.5 -0.9,0 -1.6,0.5 -1.9,1.5 -0.2,1.1 0.2,2.1 1.2,2.7 0.3,0.2 0.8,0.3 1.1,0.5 0.4,0.4 0.8,0.8 0.8,1.3 0.2,3 0.2,6.1 1.4,8.9 0.2,0.4 0.2,1 0,1.4 -0.6,1 -0.6,2.2 -1.4,3.2 -0.5,0.6 -0.1,1.9 -0.1,3.3 -1.4,1.2 -1.1,2.2 1.1,3.1 0.2,0.1 0.5,0.3 0.6,0.5 0.6,1.6 -0.3,2.8 -2.1,2.8 -1.8,0 -3.5,0 -4.8,1.5 -0.1,0.1 -0.4,0.2 -0.5,0.2 -0.9,0.2 -1.9,0.4 -2.9,0.6 0,0 -0.9,-0.1 -1,-0.4 -0.3,-0.8 -0.1,-1.4 -1.1,-1.4 -0.9,0.1 -1.1,0.7 -1.2,1.5 0,0.3 -0.3,0.6 -0.6,1.2 -1,-0.5 -1.6,-0.9 -2.8,-0.9 -0.8,0 -1.1,-0.7 -1.6,0 -0.3,0.5 -0.9,1 -1.4,1.1 -3,0.8 -5.5,1.6 -8.5,1 -0.2,0 -1.4,0.1 -1.5,0.2 -1.4,0.7 -2.8,0.7 -4.3,0.1 -0.4,0.1 -1.9,-0.1 -2.3,-0.4 -1.4,-1 -1.3,-1.2 -2.7,-0.1 -1.1,1 -1.9,1.2 -3.2,1 -1.4,-0.1 -3.2,-0.1 -4.7,0 -1.2,0.1 -2.4,0.2 -3.3,-0.7 -1.6,-1.6 -2.7,-2.2 -4,-0.8 -0.6,0.7 -1.2,1.5 -2.2,1 -1.4,-0.7 -3.1,-1 -4.5,-0.1 -1.2,0.8 -2.4,1.8 -3.6,2.6 -1.6,1.1 -3.9,0.9 -4.1,-1.4 -0.8,-2.3 -1,-3.8 0.3,-5.9 1,-1.5 0.4,-4.4 -1,-5.6 -0.4,-0.3 -0.8,-1.2 -0.6,-1.6 0.6,-2.5 0.7,-4.9 0,-7.3 V 447 c 0.8,-2.1 0.5,-4.1 -0.7,-6 -0.3,-0.5 -0.1,-1 0.4,-1.6 0.5,-0.6 0.8,-1.6 0.8,-2.4 0.1,-1.4 0,-2.9 -0.1,-4.3 -0.1,-0.6 -0.4,-1.3 -0.9,-1.7 -0.6,-0.5 -0.6,-0.9 -0.4,-1.6 0.2,-0.9 0,-2 1.2,-2.4 0.2,-0.1 0.4,-0.8 0.4,-1.2 -0.1,-0.9 -0.1,-1.9 -0.5,-2.8 -0.9,-2.3 0.4,-4.1 2,-5.6 1.6,-1.5 3.5,-1.7 5.4,-2 2,-0.2 4.1,-0.6 6.2,-0.7 0.7,0.3 2.2,0 3,0.2 z m 42.6,28.1 c 0.1,0 0.2,-3.6 0.3,-3.6 -0.4,-2.8 -0.4,-6.2 -1,-9 -1,-4.4 -3,-6.9 -7.4,-8 -1.4,-0.3 -3,-0.3 -4.4,-0.4 -5.2,-0.6 -9.7,3.5 -11.2,7.2 -0.6,1.5 -1,3 -1.3,4.6 -0.9,5 0.3,10.1 3.4,14.4 1.7,2.4 3.7,3.6 6.7,4.2 2.5,0.5 4.2,1 6.7,0.5 5.1,-1 4.6,-0.5 6.6,-4.5 1.2,-2.5 1.6,-5.4 1.6,-5.4 z"
         id="path23"
         inkscape:connector-curvature="0"
         style="opacity:0.68000034;enable-background:new" /></g><g
       id="CL_0002201"
       inkscape:label="CL_0002201"
       style="display:inline;fill:none"><path
         class="st3"
         d="m 93.1,235.2 c -0.6,-0.6 -1.1,0.1 -1.5,-0.4 -1.2,-1.3 -1.7,-2.5 -3.4,-1.9 -0.4,0.2 -1,0 -1.4,0.1 -1.2,0.2 -2.4,0.4 -3.5,0.7 -0.5,0.1 -1.1,0.3 -1.5,0.5 -0.5,0.2 -0.9,0.5 -1.3,0.8 -1.2,1.1 -3.2,1.1 -4.2,-0.2 -1.1,-1.4 -0.9,-1.6 -2.7,-1.1 -0.3,0.1 -0.7,0.3 -0.9,0.2 -0.3,-0.1 -1.5,0.2 -1.5,-0.1 0.1,-0.9 -0.1,-2.1 0,-3 0.2,-0.9 1.5,-2.1 2.1,-2 2.7,0.8 4.7,0.2 7.2,-1 -0.1,-0.2 -3.2,-2.5 -1,-1 -0.9,-1.4 1.9,-1.1 3.6,-1.3 0.5,-0.1 0.3,0.6 0.5,0.3 0.4,-0.6 -0.1,-1.3 0,-2 0.1,-0.8 1,-1.6 0.4,-1.6 -0.5,0 -1,0 -1.4,0.2 -1.3,0.5 -2.7,1.2 -4,1.7 -0.2,0.1 -0.5,0.1 -0.8,0.2 -0.6,0.2 -1.3,0.2 -1.9,0.5 -1.1,0.6 -3.2,1.1 -3.6,0 -0.4,-1.5 -0.7,-3.5 -1,-5 0,-0.1 1.2,-0.5 1.3,-0.9 0.6,0.4 1.1,0.7 1.5,1.1 2.1,1.6 1.4,0.2 2.3,-2.2 0,-0.1 1.6,0.9 1.7,0.7 1.2,0 1.7,0.3 2.4,-1.7 -0.5,0 -0.1,0.2 -0.5,0.3 -0.9,0.1 -1.8,0.3 -2.8,0.3 -1.3,0 -3,-0.6 -3,-1.6 0,-1 1.7,-1.5 3.1,-1.5 0.9,0 1.1,-0.2 2.1,-0.5 -1,-1.1 -1.4,-1.6 -2.8,-1.4 -0.5,0.1 -0.9,0.2 -1.4,0.3 -1.3,0.2 -3.1,1.4 -3,0.1 0,-0.6 0.1,-2.4 0,-3 -0.1,-1.1 0.1,-2.3 1,-3 0.3,-0.2 0,-1.6 0,-2 0.2,-1.4 2.9,-1.9 4.1,-2 1.3,-0.1 2.9,0.8 4.2,0.6 0.4,0 -0.5,-0.5 -0.1,-0.6 1,-0.3 2.2,-1.1 2.1,-2 -0.2,-1.1 -0.3,-0.9 -1.2,-0.9 -1.4,0.1 -2.9,0.2 -4.3,0.3 -1.1,0.1 -3.5,-0.4 -4.8,-0.4 0.6,-1.2 2.7,-0.8 3.5,-0.9 1.9,-0.2 2.7,-1 4.7,-1.1 1.4,-0.1 0.9,0.1 1,-1 0.1,-1.1 1.2,-0.8 0,-1 -2.1,-0.2 -3.7,-1.3 -5.6,-0.4 -0.5,0.2 -1.2,0.4 -1.7,0.4 -0.8,0 -1.6,1.9 -1.8,1 -0.5,-2.2 -1.5,-7.2 -1,-9 1.9,-0.7 4.2,-1.4 6.2,-2 1.1,-0.4 2.1,-1 2.1,-2 -0.1,-1 0.5,-1 -0.4,-1 -2.4,0.1 -6.5,-0.5 -7.8,2 0.3,-3 0.6,-6.2 1,-9 1,-0.4 4.1,-0.6 5.1,-1 1,-0.5 1.4,0.3 2.1,0.8 1.2,0.9 2.4,1.1 3.8,0.6 0.6,-0.2 1.5,-0.1 2.3,0.2 1.4,0.6 2.8,0.6 4.2,0.4 2.6,-0.3 4.6,-0.9 7.2,-1 1.1,-0.1 3,-0.6 4.1,-1 2.5,-1 4.6,0.5 6.9,1.7 1.4,0.9 3,1.1 4.6,0.8 0.6,-0.1 1.3,0.1 1.9,0.4 1,0.4 1.9,0.6 3.1,0 0.3,-0.2 1,-0.2 1.4,0 2.6,1.4 5.2,1.4 8,1 1.4,-0.2 3.1,-0.1 4.5,0.2 0.8,0.1 1.6,0.7 2.3,1.3 1.4,1.5 2.5,0.6 4.3,-0.4 1.6,-0.9 3.7,1 3.8,2.9 0.1,1.9 0.9,3 2.8,3.4 1.2,0.3 1.4,1 1,2.2 -0.4,1 -0.9,1.9 -1.2,2.9 -0.2,0.7 -0.4,1.6 -0.3,2.3 0.2,1.8 0.1,3.6 1.2,5.2 0.1,0.1 0.2,0.3 0.2,0.4 0,1.7 0,3.5 0.1,5.2 0.1,1.8 0.2,3.6 0.2,5.4 0,0.8 0,1.5 -0.2,2.3 -0.2,1.1 -0.3,2.2 0.5,3.2 0.2,0.3 -0.1,1 -0.3,1.4 -0.3,0.7 -1.1,1.4 -1.1,2 0.1,1.8 -0.9,3.1 -1.7,4.4 -0.8,1.3 -1.2,2.5 -1.2,3.9 0,3 -1.1,4.3 -4.1,5.3 -1.5,0.5 -2.8,0.4 -4.3,0.1 -1.8,-0.3 -3.8,-0.7 -5.6,0.5 -0.2,0.2 -0.6,0.2 -0.9,0.1 -1.2,-0.3 -2.3,-0.1 -3.3,0.5 -0.3,0.2 -1,0.3 -1.3,0.1 -1.1,-0.5 -2.2,-0.4 -3.2,0 -0.7,0.3 -1.3,0.3 -1.8,-0.4 -0.2,-0.2 -0.5,-0.5 -0.8,-0.5 -1.1,-0.2 -2.3,-0.5 -3.4,-0.5 -0.5,0 -1.1,0.6 -1.6,1 -0.5,0.3 -0.9,0.8 -1.4,1 -1.9,0.5 -3.9,0.9 -5.9,1.1 -0.6,0.1 -1.4,-0.2 -2.1,-0.6 -1.6,-1.1 -1.6,-1 -3.3,0.1 -0.6,0.4 -1.7,0 -2.7,0 0,0 -0.1,-0.1 -0.1,-0.2 -2.2,-1.4 -3.1,-1.3 -4.1,0.7 z m 21.1,-32.4 c 0,-0.9 0.1,-2.3 0,-3 -0.4,-2.9 -0.1,-4.2 -1,-7 -2.3,-6.7 -10.7,-9.9 -15.4,-5 -1.9,2 -3.6,4.4 -5,6.8 -2.5,4.4 -3,9.4 -3.3,14.4 -0.3,4.2 1.4,7.7 4.1,10.9 3.7,4.3 9.8,4.4 13.4,0 4.1,-5.2 7.6,-10.4 7.2,-17.1 z"
         id="path26"
         inkscape:connector-curvature="0"
         style="opacity:0.23999999;enable-background:new" /><path
         class="st3"
         d="m 61.9,568.5 c 0.4,-0.2 2.4,-0.7 2.8,-0.7 1.5,-0.3 0.7,-0.8 0.3,-2.3 0.6,-0.1 2.4,0.2 3,0.1 0.9,-0.2 1.1,-0.9 1.1,-2.1 0,-0.8 -0.4,-1.2 -1.5,-1.2 -0.8,0 -1.6,0.2 -2.5,0.2 -0.3,0 -1.8,0 -2.2,0 0.2,-1 0.8,-2.1 1,-3 0.2,-0.9 -0.1,-3 0,-4 0.7,0 2.8,1.4 3.5,1.4 1.8,-0.1 3.6,0 5.4,-0.2 1.4,-0.2 0.7,-0.8 0.3,-2.2 -0.2,-0.7 0.4,-1.1 -0.4,-1.1 -2.5,0.2 -6.4,0.8 -8.8,1.1 -1,0.1 -1.7,-1.1 -2.1,-2 -0.3,-0.8 1.6,-1.2 2.9,-1.5 0.7,-0.2 1.4,-0.2 2.2,-0.2 1.9,-0.1 3.9,-0.1 5.8,-0.2 0.7,0 0.6,-0.1 1.4,-0.1 0.5,-1.1 0.3,-1.8 -1,-2 -1,-0.2 -1.7,-0.3 -2.8,-0.3 -2.2,0.2 -5.3,1 -7.5,0.3 0,-0.1 1,-0.9 0.9,-1 0.6,-0.1 1.2,-0.4 1.8,-0.4 1.4,-0.1 2.8,-0.1 4.2,-0.3 1.1,-0.2 1.2,-0.9 2.3,-1.3 1.3,-0.6 1.2,-0.3 0,-1 -1.7,-0.9 -2.2,-1.6 -4.1,-1 -0.6,0.2 -2.4,-0.2 -3.1,0 -0.1,-1 -1,-2.2 0,-3 0.9,-0.8 0.4,-1.6 -1,-2 -1.8,-0.5 -1.4,0.7 -1,-1 0.1,-0.5 -0.7,-3.5 -1,-4 -0.5,-0.9 0,-0.7 1,-1 0.8,-0.2 2.6,-0.6 3.5,-0.6 1.4,0 2.8,0.1 4.2,-0.1 0.6,-0.1 0.3,-0.8 0.5,-1.3 0.2,-0.9 0.3,-1.1 -0.4,-1.2 -1.7,-0.4 -4,0.5 -5.7,0.2 -0.2,-0.6 -0.7,-2.1 -1,-3 1.1,-0.2 3.2,-0.8 4.3,-0.9 1.2,-0.1 2.4,0 3.6,-0.1 0.6,-0.1 -0.4,-0.6 0.3,-1 -1.2,-1.1 -0.7,-1.3 -2.3,-1.1 -1.4,0.2 -4.4,0.3 -5.9,0.1 -0.8,-0.2 -1.1,-1.1 -1,-2 0.2,-0.9 2.4,-1.6 3.2,-1.3 1.7,0.6 3.5,0.5 5.1,-0.2 0.3,-0.1 0.8,0.1 1.2,0.4 3.4,2.3 7.2,3.7 11.4,3.5 0.8,0 1.5,0.3 2.4,0.6 1.4,0.4 2.9,1 4.3,1.3 0.7,0.1 1.5,-0.2 2.3,-0.3 0.8,0.2 1.6,0.5 2.4,0.7 0.3,0.1 0.7,0.1 0.9,0.3 0.9,0.7 1.7,0.9 2.7,-0.1 0.1,-0.2 0.7,0 1.1,0.1 1.4,0.4 2.8,1 4.2,1.2 0.7,0.1 1.6,-0.3 2.3,-0.7 0.8,-0.6 1.3,-0.8 2.3,-0.2 1.7,1.2 3.6,0.6 5.5,0.5 1.6,-0.1 3.4,-0.2 5,-0.3 0.3,0 0.6,0.1 0.8,0 2.4,-0.7 4.7,-1 7.1,-1.6 2.2,-0.5 4.1,0.1 5,2.1 0.3,0.8 0.9,1.5 1.3,2.2 0.3,0.8 0.6,1.7 0.7,2.5 0,0.7 -0.3,1.4 -0.5,2.1 -0.5,2 0,3.1 2.1,4.8 -1,1.1 -0.4,2.5 -0.6,3.8 -0.3,2.3 -0.2,4.4 0.1,6.6 0.1,1.1 -0.5,2.2 -0.9,3.3 -0.5,1.2 -0.2,2.3 0.2,3.5 0.5,1.8 0.9,3.6 1.2,5.4 0.1,0.8 -0.3,1.7 -0.5,2.6 -0.3,1.2 -0.6,2.3 -0.8,3.5 -0.2,1.3 -1.1,2 -2.5,1.7 -0.7,-0.2 -1.5,-0.2 -2.3,-0.4 -0.8,-0.2 -1.4,-0.5 -2.1,-1 -1.1,-0.8 -1.7,-0.9 -2.9,-0.1 -0.4,0.3 -0.9,0.4 -1.4,0.5 -1.9,0.3 -3.9,0.5 -5.7,0.7 -0.4,0 -0.8,-0.2 -1.2,-0.2 -0.6,0 -1.2,0.1 -1.9,0.1 -0.8,0 -1.8,0.2 -2.3,-0.2 -1.3,-1.3 -3,-0.7 -4.4,-0.7 -0.9,0 -1.9,0.6 -2.9,0.9 -0.3,0.1 -0.7,0.1 -1.1,0.1 -1.4,-0.1 -2.8,-0.3 -4.2,0.3 -0.7,0.3 -1.9,-0.2 -2.8,-0.7 -1.4,-1 -2.8,-0.3 -4.1,0 -2.2,0.6 -4.2,0.9 -6.4,-0.3 -0.5,-0.3 -1.5,-0.1 -2.1,0.2 -1.1,0.8 -2.3,1 -3.5,0.5 -0.3,-0.1 -0.6,0.1 -0.9,0 -0.3,0 -0.8,0 -1,-0.2 -0.5,-0.8 -1.3,-0.8 -1.9,-0.4 -1.5,1 -3,-0.1 -4.5,0.1 -1.5,0.2 -3.2,0.1 -4.7,0.4 -1.4,0.2 -2.3,0.9 -3.6,0.5 -0.2,-0.2 -2.1,-1 -2.1,-1.1 z m 18.5,-24.8 c 0.2,2.6 0.2,4.5 0.4,6.5 0.4,3.3 1.6,6.3 4.7,7.9 6.1,3.1 11.2,1.1 14.3,-4.6 1.9,-3.6 3.4,-8.1 2.1,-12 -1.5,-4.7 -4.2,-9.3 -10.8,-9.1 -0.2,0 -0.4,0 -0.6,-0.1 -3.4,-0.7 -8.9,2.8 -9.4,6.6 -0.3,1.8 -0.5,3.6 -0.7,4.8 z"
         id="path28"
         inkscape:connector-curvature="0"
         style="opacity:0.23999999;enable-background:new" /><path
         class="st3"
         d="m 68.6,380.2 c 0.6,0 1.2,0.1 1.8,0 1.1,-0.1 2.3,-0.2 3.3,-0.5 0.8,-0.3 1.5,-1 1.3,-1.9 -0.2,-0.6 -0.8,-1.3 -1.4,-1.5 -1.2,-0.3 -2.7,-0.3 -4,-0.5 -0.6,-0.1 -1.2,-0.1 -1.7,-0.2 0,-0.2 0,-0.3 0,-0.5 1,-0.1 2.2,-0.3 3.2,-0.4 1.2,-0.1 2.6,-0.2 3.8,-0.3 0.9,-0.1 1.8,-0.6 1.7,-1.7 0,-1 -0.8,-1.4 -1.7,-1.6 -1.6,-0.3 -3.3,0 -4.8,0.6 -0.6,0.2 -1.2,0.3 -1.9,0.3 0.9,-0.8 2.8,-0.7 2.4,-2.3 -0.2,-0.8 -1.2,-1.4 -2.2,-2.3 0.7,-1 0.4,-2.1 -1.1,-2.9 0.1,-0.1 0.1,-0.2 0.2,-0.3 0.6,-0.1 1.2,-0.3 1.8,-0.4 1.6,-0.3 3.3,-0.6 4.9,-0.9 0.9,-0.2 1.7,-0.5 1.6,-1.7 -0.1,-1 -1.3,-1.8 -2.5,-1.7 -1.1,0.2 -2.4,0.5 -3.5,0.7 -0.9,0.2 -1.7,0.4 -2.4,-0.8 -0.8,-1.4 -0.9,-1.5 0.2,-2.5 2.1,-1.9 2.1,-2.1 -0.2,-3.8 0.3,-0.4 0.7,-0.8 1.1,-1.1 0.8,-0.6 1.6,-1.1 2.7,-0.6 0.6,0.3 1.1,0.6 1.7,0.9 1.1,0.8 2.4,1 3.7,1.1 1.8,0.2 3.7,0.5 5.2,1.8 1.4,1.3 2.9,1.4 4.5,0.5 0.9,-0.5 1.7,-0.3 2.7,-0.1 2.9,0.6 5.8,1.4 8.7,-0.3 1.2,-0.7 2.7,-1 4.1,-1.4 0.4,-0.1 0.9,0 1.3,0.3 1.2,0.8 2.5,0.7 3.7,0.3 2.9,-0.9 5.8,-0.6 8.8,-0.8 0.7,-0.1 1.4,-0.1 2.2,-0.3 1,-0.4 1.9,-0.3 2.8,0.3 1.8,1.4 3.9,2.1 6.2,2.6 0.5,0.1 1,0.4 1.3,0.8 2.8,3.1 4.4,6.2 3.2,10.2 -0.5,1.6 -0.6,3.3 -0.9,5.1 0.1,0.3 0.7,0.9 0.6,1.3 -0.6,2.2 -0.4,4.7 1.4,6.7 -1,0.8 -0.9,0.5 -0.7,1.8 0,0.3 -1.6,1.5 -1.7,1.8 0.5,0.2 1.2,0.5 0,1.3 -0.2,1.9 -0.8,3.8 -0.4,5.6 0.4,1.8 0.9,2.7 -0.3,4.2 -0.4,0.5 -0.5,1.7 -0.3,2.5 0.2,0.7 0.5,1.8 0.6,2.5 0.1,0.7 0.2,1.9 -0.2,2.5 -0.8,1.3 -2,2.2 -3.9,2.5 -0.6,0.1 -1.4,0.1 -2.1,-0.1 -1,-0.4 -1.4,0.2 -2.6,0.8 -0.4,0.1 -2.6,-0.3 -3.6,-0.9 -1.5,-0.9 -3.1,-0.4 -4.8,-0.2 -0.2,0.1 -0.7,0 -0.9,-0.2 -0.9,-0.6 -1.7,0 -2.7,0.5 -0.3,0.2 -0.8,-0.1 -1.2,-0.1 -1.8,0 -3.7,-0.1 -5.5,-0.3 -1.7,-0.2 -3.5,-0.5 -5.3,-0.6 -0.7,0 -0.9,0.4 -1.5,0.8 -1.5,0.9 -2.5,0.6 -3.9,-0.5 -0.9,-0.8 -1.8,-0.7 -3.1,-0.4 -1.5,0.4 -3.2,0.4 -4.8,0.3 -1.6,-0.1 -2.6,-0.1 -4.3,-0.5 -1.5,-0.3 -2.6,1.1 -3.8,1.8 -1.6,1.1 -2.3,0.1 -3.7,-1.4 -0.7,-0.8 -1.6,-1.1 -2.8,-1.1 -1.6,0.1 -2.3,-0.7 -2.3,-2.9 0,-1.5 0.6,-2.1 2.3,-2.1 1.9,0 3.9,-0.1 5.9,-0.2 0.5,0 1.1,-0.2 1.4,-0.5 0.4,-0.4 0.8,-1 0.7,-1.5 -0.1,-0.4 -0.7,-1 -1.2,-1.1 -1,-0.2 -2.1,-0.1 -3.1,0 -0.9,0.1 -1.4,0 -1.4,-1 0,-1 -0.6,-1.4 -1.5,-1.6 -0.3,-0.1 -0.6,-0.4 -0.8,-0.6 0.3,-0.2 0.6,-0.6 0.9,-0.6 1.2,0 2.6,0 3.8,0.1 0.5,0 1.1,0.2 1.5,0.1 0.6,-0.2 1.5,-0.6 1.6,-1 0.1,-0.5 -0.5,-1.3 -1,-1.7 -1.5,-1 -3.4,-0.7 -5.1,-0.7 -1.9,0 -1.8,0 -2.2,-1.8 -0.2,-1 -0.2,-1.7 0.5,-2.5 0.3,-0.4 0.1,-1.2 0,-1.8 -0.1,-0.3 -0.4,-0.6 -0.6,-0.8 0.3,-0.4 0.3,-0.5 0.3,-0.6 z m 36.1,-0.9 c 0,-3.1 -0.3,-5.8 -1.4,-8.4 -1.9,-4.5 -8.1,-6.6 -12.6,-4.6 -2.7,1.2 -4.4,2.8 -6.1,5.2 -2.2,3 -2.7,6.1 -3.2,9.7 -0.8,6.5 2.8,13.4 8.7,15.5 3.1,1.1 5.7,0.9 8.3,-1.3 1.7,-1.5 3.2,-3.2 4.2,-5.3 1.7,-3.6 1.9,-7.4 2.1,-10.8 z"
         id="path30"
         inkscape:connector-curvature="0"
         style="opacity:0.23999999;enable-background:new" /><path
         class="st3"
         d="m 321.5,525.4 c -1.3,-1.6 -2.7,-1.5 -4.1,-0.6 -0.3,0.2 -0.8,0 -1.2,0 0,-0.4 -0.1,-0.8 0.1,-1.1 0.4,-1.3 0.2,-2.1 -1.1,-2.8 -1.1,-0.6 -1.4,-1.5 -1.2,-2.6 0.3,-1.2 0.7,-2.4 1,-3.7 0.5,-1.7 1.3,-3.4 1.3,-5.2 0,-1.3 -0.7,-2.7 -1.4,-3.9 -0.7,-1.2 -0.9,-2.3 -0.2,-3.5 0.7,-1.4 0.2,-2.5 -0.6,-3.8 2.6,-1.5 2.1,-3.6 1.1,-5.7 -0.7,-1.5 -0.6,-2.8 0.4,-4 0.2,-0.3 0.5,-0.7 0.5,-1.1 -0.3,-2.3 0.5,-4.9 -1.8,-6.8 -0.1,-0.1 -0.1,-0.2 -0.2,-0.4 1.9,-0.7 1.9,-2.3 1.7,-4 -0.2,-1.7 0.3,-3.3 1.4,-4.6 0.3,-0.3 0.8,-0.7 1.2,-0.7 1.7,0.2 3,-0.8 4.2,-1.8 0.7,-0.5 1.3,-1.1 2.1,-1.5 1.1,-0.8 2.4,-1 3.7,-0.3 1.2,0.7 2.3,0 3.3,-0.8 1.1,-0.9 1.5,-0.9 2.4,0.2 0.8,1.2 1.9,1.2 3.3,1.2 1.7,0 3.4,0 5.1,0.1 1.6,0.1 3.2,0 4.4,-1.2 0.5,-0.6 1,-0.4 1.5,0 0.9,0.9 1.9,1.1 3.2,0.8 0.4,-0.1 0.9,0 1.3,0 0.4,0 1,0.2 1.3,0 1.2,-0.8 2.6,-0.5 3.9,-0.4 2.3,0.1 4.5,-0.2 6.7,-0.7 1.1,-0.3 2.2,-0.6 2.7,-1.7 0.3,-0.7 0.8,-0.6 1.2,-0.1 1.4,1.9 2.7,1.8 3.9,-0.3 0.5,0.4 0.9,1.1 1.4,1.2 0.5,0.1 1.2,-0.6 1.8,-0.6 2.5,-0.2 4.2,-2.6 6.9,-2.1 0.2,0 0.4,0.1 0.6,0.1 0.4,1.2 0,1.9 -1,2.6 -1.4,0.8 -2.9,1.3 -4.5,1.2 -1,0 -2.2,0.3 -3.2,0.7 -0.9,0.3 -1.5,1.2 -1.2,2.1 0.2,0.7 0.8,1.5 1.5,1.7 2.1,0.7 4.1,1.1 6.3,0.1 0.8,-0.4 1.7,-0.5 2.7,-0.5 0.5,0 1.5,0.6 1.5,0.8 -0.1,0.6 -0.4,1.4 -0.9,1.8 -1.4,1 -1.5,1.7 -0.1,2.8 0.3,0.3 0.5,0.7 0.7,1.1 -0.1,0.1 -0.2,0.3 -0.2,0.4 -1.1,-0.2 -2.4,-0.2 -3.4,-0.5 -1.5,-0.5 -2.5,-0.3 -3.8,1.4 -0.8,0.9 -0.5,1.9 0.1,2.9 0.3,0.4 0.5,0.9 0.6,1.4 0.3,1.6 1.5,2.5 3.2,1.8 1.4,-0.6 2.5,-0.3 3.6,0.5 0.2,0.2 0.5,0.6 0.4,0.8 -0.1,0.2 -0.5,0.5 -0.8,0.5 -1.5,-0.1 -3.1,-0.2 -4.7,-0.3 -1.5,-0.1 -2.4,0.5 -2.4,1.5 0,1 0.9,1.8 2.4,1.8 1,0 2.2,-0.1 3.2,-0.1 1.5,0 2.1,0.9 1.6,2.3 -0.2,0.7 -0.2,1.5 -0.2,2.2 0.1,0.6 0.4,1.3 -0.3,1.6 -0.6,0.2 -1.3,0.3 -1.9,0.1 -0.7,-0.2 -1.4,-0.8 -2.2,-1.2 -0.8,-0.4 -1.6,-0.8 -2.4,-0.1 -0.8,0.7 -0.8,1.8 -0.3,2.5 0.5,0.7 1.4,1.3 2.3,1.6 1.1,0.4 2.4,0.3 3.5,0.5 0.8,0.2 1.5,0.5 2.3,0.8 0,0.2 -0.1,0.4 -0.1,0.5 -0.4,0 -0.9,0 -1.3,0.1 -1.1,0.1 -2.3,0.1 -3.5,0.2 -0.8,0.1 -1.4,0.6 -1.5,1.4 -0.1,0.9 0.2,1.7 1.1,2.1 0.8,0.3 1.7,0.4 2.6,0.5 0.6,0.1 1.4,-0.1 1.9,0.2 0.5,0.2 0.9,0.9 0.9,1.4 0,0.3 -0.6,1.1 -0.9,1.1 -1.1,0.1 -2.3,0 -3.4,-0.3 -1.1,-0.3 -2.2,-0.7 -3.1,0.3 -0.9,1 -0.8,2 -0.2,3.1 0.1,0.2 0,0.8 -0.2,0.9 -0.6,0.5 -1.4,0.8 -2.1,1.3 -0.5,0.5 -1.1,1.3 -1.1,1.9 0,0.6 0.6,1.5 1.2,1.8 1.1,0.7 2.5,0.4 3.7,0 2.1,-0.7 4.2,-1.3 6.6,-2.1 -0.1,1.9 0,3.3 -0.3,4.7 -0.3,1.4 -1,1.5 -2.2,0.7 -1,-0.7 -1.4,-0.7 -3,0.5 -0.7,-1.4 -1.4,-0.7 -2.4,-0.1 -2.5,1.4 -4.9,2.6 -7.4,3.8 -0.3,0.2 -0.8,0 -1.2,0 -0.6,-0.1 -1.2,-0.3 -1.9,-0.4 -1.3,-0.3 -2.6,-0.8 -3.8,-1.1 -3.1,-0.9 -6.4,-1.3 -9.5,-0.3 -0.3,0.1 -0.6,0.3 -0.8,0.5 -0.8,0.8 -1.6,1.5 -3,0.9 -0.3,-0.1 -0.7,0.1 -1,0.3 -2.3,1.6 -5,1.4 -7.5,2.2 -0.3,0.1 -0.7,-0.4 -1,-0.5 -0.6,-0.3 -1.2,-0.6 -1.9,-0.8 -0.5,-0.2 -1.2,-0.1 -1.6,-0.3 -2.2,-1.1 -4.4,-0.8 -6.7,-0.9 -0.7,0 -1.4,-0.1 -2.1,-0.4 -0.8,-0.4 -1.3,-0.3 -1.8,0.4 -0.7,0.9 -1.1,0.8 -1.7,-0.2 -0.3,-0.5 -0.9,-0.9 -1.4,-1.3 -0.4,0.5 -0.9,0.9 -1.2,1.4 -0.7,0.5 -1,1.2 -1.4,2.1 z m 46.9,-24.9 c -0.1,-1.1 -0.2,-2.1 -0.3,-3.2 -0.4,-3.5 -2.1,-6.6 -3.4,-9.8 -1.6,-3.8 -4.7,-5.7 -8.5,-6 -6.2,-0.5 -11.2,1.9 -14.7,6.9 -1.9,2.7 -3.3,5.9 -3.6,9.1 -0.7,7.5 1.2,14.2 7.9,19 3.1,2.2 6.3,2.8 9.8,1.5 1.2,-0.5 2.7,-0.8 3.8,-1.5 1.6,-1 3.3,-2.1 4.5,-3.4 3.2,-3.6 4.5,-7.9 4.5,-12.6 z"
         id="path32"
         inkscape:connector-curvature="0"
         style="opacity:0.23999999;enable-background:new" /><path
         class="st3"
         d="m 370.2,301.4 c -0.3,0.3 0.7,1 0.5,1.2 -0.7,0.9 -0.9,1.7 -0.3,2.7 0.5,1 0.3,1 1.3,0.8 2.3,-0.4 4.4,0.2 6.6,0.7 2.1,0.5 3.6,1.9 3.2,4.1 -2.5,0.2 -6.1,-0.3 -8.1,-1.4 -0.7,-0.4 -0.9,-0.5 -1.6,-0.6 -0.5,-0.1 -0.6,-0.2 -0.8,0.2 -0.2,0.5 -1.4,0.5 -1,0.9 0.5,0.5 1.2,0.9 1.9,1.1 1.7,0.6 3.6,1.1 5.4,1.5 1,0.2 2.8,0 4.1,0.1 -0.2,0.8 -0.3,2.9 -0.5,3.7 -1.2,-0.5 -2.8,-1.2 -3.8,-1.3 -1.4,-0.2 -1.7,0.4 -1.1,1.7 0.6,1.4 1,1.6 2.5,1.9 1.1,0.2 2.4,0.5 2.4,1.5 0,0.3 0.4,1.1 0.5,1.3 0.6,0.9 0.4,2.7 -0.5,3.4 -0.7,0.6 -0.8,1.6 -2.2,1.4 -0.5,-0.1 -1.3,0.2 -1.8,0.4 -1.2,0.5 -3,1.2 -4.4,0.6 -1.2,-0.6 -1.4,-0.2 -1.7,0.8 -0.4,1.1 -1,1.2 0.3,1.3 1.2,0.1 2.5,0 3.7,-0.3 1.7,-0.4 3.5,-0.9 5.2,-1.4 0.8,-0.2 1.7,-0.4 1.7,0.1 -0.1,0.9 0.1,2.8 0,3.7 -0.2,1.3 -0.9,2.8 -0.9,4.1 0,1.1 -0.7,1.5 -1.6,1.2 -0.9,-0.4 -2,-0.9 -2.9,-1.2 -0.7,-0.3 -1.1,-0.5 -1.9,-0.5 -0.5,0 -1.4,0.2 -1.5,0.6 -0.1,0.4 -0.2,0.9 0.2,1.1 1.5,0.7 3.2,1.2 4.7,1.6 0.6,0.2 2.3,0.2 3,0.3 0.3,1.2 0.7,3.1 1.2,4.3 -0.2,0.1 -0.7,0.3 -0.9,0.4 -0.4,0.4 -0.5,1 -0.5,1.4 0,0.4 -0.9,0.1 -0.5,0.4 1.1,0.8 2.3,2.8 1.7,4 -0.1,0.2 -0.8,0.7 -1,0.6 -0.7,-0.1 -1.9,-0.2 -2.4,-0.5 -1.4,-1 -2.3,-0.7 -3.8,-0.8 -1.1,0 -2.3,-0.1 -3.3,0 -0.4,0 -1.1,0 -1.2,0.3 -0.1,0.4 -0.7,0.8 -0.4,0.9 1,0.4 2.1,0.7 3.2,0.8 0.9,0.1 1.8,-0.1 2.7,-0.1 0.6,0 1.2,0.1 1.2,0.9 0.1,0.9 0.8,1.2 1.6,1.3 0.8,0.1 2.4,0.4 3.4,0.5 -0.9,2.2 -0.1,2.9 -2.4,2.5 -2.5,-0.4 -6,-0.6 -8.4,-1.2 -2.6,-0.7 -4.2,-0.3 -6.6,0 -1.5,0.2 -2.8,0.8 -4.4,0.3 -0.7,-0.2 -2.3,0.1 -3.1,0.5 -1.1,0.5 -2.4,1 -3.4,0.2 -0.2,-0.2 -1.3,-0.4 -1.6,-0.4 -1.7,0.1 -3.2,-0.3 -4.2,-1.9 -0.8,-1.5 -3.9,-1.6 -5.4,-0.4 -0.8,0.7 -1.5,1.2 -2.7,0.6 -0.4,-0.2 -1.8,-0.4 -2.2,-0.2 -2.4,1.3 -4.7,1.4 -7.2,1.1 -2.5,-0.3 -4.2,-0.1 -6,1.4 -2.1,-1.1 -1.7,-0.9 -3.7,0.6 -0.8,0.7 -2.6,1.4 -3.7,1.8 -0.8,0.3 -1.5,-1.2 -1.5,-1.9 0,-2.1 -0.6,-4.2 -0.8,-6.4 -0.2,-2.5 0.2,-4.5 1,-6.7 0.5,-1.4 0.1,-2.6 -0.8,-3.6 -0.6,-0.7 -0.8,-1.3 -0.3,-2.1 1,-1.6 0,-3.1 -0.1,-4.7 -0.1,-0.7 0,-1.5 -0.2,-2.2 -0.2,-0.8 -0.5,-1.6 -0.8,-2.5 -0.1,0 -0.3,-0.1 -0.4,-0.1 0.5,-0.4 0.9,-0.9 1.5,-1.3 1.4,-0.9 1.7,-2.1 1.4,-3.6 -0.4,-1.8 -1,-3.6 -1,-5.4 0,-2.6 0.2,-5.3 0.2,-7.9 0,-1.3 0.9,-2.7 1.5,-4 0.7,-1.3 2.9,-1.5 4.2,-0.6 1.7,1.2 2.1,1.2 3.7,-0.2 0.7,-0.6 1.3,-0.7 2.1,-0.1 0.7,0.7 1.5,0.5 2.6,0.2 2.5,-0.6 4.9,-0.9 7.4,-1.4 0.3,-0.1 0.7,0 0.9,0.2 1.3,1.3 3.2,1.5 4.8,2.2 0.6,0.3 1.4,0.3 2.3,0.3 0.5,0 1,-0.2 1.4,-0.1 1.4,0.3 2.7,0 3.9,-0.7 0.4,-0.2 0.9,-0.4 1.4,-0.3 2.4,0.3 4.5,-0.4 6.6,-1.5 1.9,-1.1 4.1,-2 6.3,-2.7 1.2,-0.4 2.7,-0.6 4,-0.7 1,0.6 1.6,1 2.1,1.2 z m -3.3,27.1 c 0,-3.1 -0.3,-6.2 -1.4,-9.2 -1,-3 -3,-5.1 -6.2,-6.1 -2.1,-0.6 -4.1,-1 -6.4,-0.6 -3,0.6 -5.8,2.2 -7.5,4.7 -3.2,4.6 -4.9,9.5 -4.4,15.3 0.4,5.6 2.5,9.6 8,12 7.3,3.2 14,-0.1 16.1,-6.6 1.1,-3.2 1.8,-6.3 1.8,-9.5 z"
         id="path34"
         inkscape:connector-curvature="0"
         style="opacity:0.23999999;enable-background:new" /></g></g></svg>