<?xml version="1.0" encoding="UTF-8" standalone="no"?>
<!-- Generator: Adobe Illustrator 23.0.3, SVG Export Plug-In . SVG Version: 6.00 Build 0)  -->

<svg
   xmlns:i="&amp;ns_ai;"
   xmlns:dc="http://purl.org/dc/elements/1.1/"
   xmlns:cc="http://creativecommons.org/ns#"
   xmlns:rdf="http://www.w3.org/1999/02/22-rdf-syntax-ns#"
   xmlns:svg="http://www.w3.org/2000/svg"
   xmlns="http://www.w3.org/2000/svg"
   xmlns:sodipodi="http://sodipodi.sourceforge.net/DTD/sodipodi-0.dtd"
   xmlns:inkscape="http://www.inkscape.org/namespaces/inkscape"
   version="1.1"
   x="0px"
   y="0px"
   viewBox="0 0 510.2 680.3"
   style="enable-background:new 0 0 510.2 680.3;"
   xml:space="preserve"
   id="svg77"
   sodipodi:docname="Kidney .Nephron. Collecting duct update 050919 .svg"
   enable-background="new"
   inkscape:version="0.92.2 5c3e80d, 2017-08-06"><metadata
     id="metadata83"><rdf:RDF><cc:Work
         rdf:about=""><dc:format>image/svg+xml</dc:format><dc:type
           rdf:resource="http://purl.org/dc/dcmitype/StillImage" /></cc:Work></rdf:RDF></metadata><defs
     id="defs81"><filter
       inkscape:collect="always"
       style="color-interpolation-filters:sRGB"
       id="filter162"><feBlend
         inkscape:collect="always"
         mode="multiply"
         in2="BackgroundImage"
         id="feBlend164" /></filter></defs><sodipodi:namedview
     pagecolor="#ffffff"
     bordercolor="#666666"
     borderopacity="1"
     objecttolerance="10"
     gridtolerance="10"
     guidetolerance="10"
     inkscape:pageopacity="0"
     inkscape:pageshadow="2"
     inkscape:window-width="886"
     inkscape:window-height="609"
     id="namedview79"
     showgrid="false"
     inkscape:zoom="0.34690578"
     inkscape:cx="89.34895"
     inkscape:cy="340.14999"
     inkscape:window-x="1752"
     inkscape:window-y="141"
     inkscape:window-maximized="0"
     inkscape:current-layer="LAYER_x5F_EFO" /><style
     type="text/css"
     id="style2">
</style><g
     id="LAYER_EFO"
     inkscape:label="Layer_EFO"><g
       id="CL_0005011"
       inkscape:label="CL_0005011"
       style="fill:none"><path
         d="m 349.3,264.1 c 0.5,-0.6 1.1,-1.1 1.5,-1.7 0.5,-0.7 0.5,-1.3 -0.3,-1.8 -0.3,-0.2 -0.7,-0.5 -0.8,-0.8 -0.4,-1.3 -1.4,-1.5 -2.5,-1.5 -1,0 -2.1,0 -3.1,-0.1 -0.5,-0.1 -1,-0.4 -1.6,-0.6 0.6,-1 1.4,-0.9 2.1,-0.7 0.5,0.1 1.1,0.4 1.6,0.4 1.1,0.1 1.7,-0.6 2.1,-1.5 0.3,-0.8 0.7,-1.6 0.8,-2.5 0.1,-0.5 -0.2,-1.2 -0.6,-1.5 -0.7,-0.4 -1.5,-0.5 -2.4,-0.8 0.7,-0.3 1.5,-0.5 2.2,-0.9 1.5,-0.7 2.1,-1.6 1.8,-2.5 -0.5,-1.1 -1.7,-1.5 -3.2,-1 -0.6,0.2 -1.3,0.5 -2,0.6 -0.5,0.1 -1,-0.1 -1.6,-0.2 0,-0.1 0,-0.2 0,-0.3 0.8,-0.3 1.7,-0.5 2.5,-0.9 0.5,-0.3 1.2,-0.9 1.2,-1.3 -0.1,-0.5 -0.7,-1.1 -1.2,-1.4 -0.6,-0.4 -1.3,-0.5 -2,-0.8 -0.8,-0.3 -1.2,-0.8 -0.9,-1.9 0.5,0.4 0.9,0.7 1.3,1 1.3,0.9 2.7,1 4.1,0.3 1.3,-0.7 1.5,-1.6 0.9,-2.9 -0.8,-1.6 -0.8,-1.6 0.6,-2.6 1.4,-1 1.3,-2.7 -0.4,-3.2 -1.3,-0.4 -2.8,-0.3 -4.2,-0.4 -1,-0.1 -2.1,0 -3.1,-0.1 -0.3,0 -0.5,-0.2 -0.7,-0.4 0,-0.1 0,-0.3 0,-0.4 0.8,-0.2 1.6,-0.4 2.5,-0.5 1.4,-0.1 2.8,0 4.2,0 0.5,0 1.1,0 1.5,-0.2 0.6,-0.3 1.5,-0.8 1.5,-1.2 0.1,-1 -0.4,-2 -1.5,-2.1 -1.5,-0.2 -3.1,-0.3 -4.6,-0.5 -0.7,-0.1 -1.5,-0.2 -2.2,-0.3 0.3,-1.8 1.2,-2.3 2.8,-1.8 1.6,0.5 3.2,0.4 4.8,-0.3 1.3,-0.6 2,-1.6 1.8,-2.8 -0.1,-1.4 -1.2,-1.9 -2.3,-2.1 -2.2,-0.3 -4.4,-0.3 -6.6,-0.5 -1.2,-0.1 -2.3,-0.2 -2.8,-1.9 0.6,0.1 1.1,0 1.6,0.2 3.6,1.5 7.1,1.1 10.7,0.1 1,-0.3 2,-0.8 3,-0.9 1.2,-0.2 2.5,-0.2 3.7,0 1.2,0.2 2,0.1 3,-0.7 0.5,-0.5 1.4,-0.7 2.2,-0.7 1.6,0.1 2.8,-0.4 3.4,-2 0.3,-0.8 0.9,-1.1 1.7,-1 0.5,0.1 1,0.1 1.4,0.3 1.9,0.9 3.6,0.4 5.1,-0.8 2.3,-1.8 4.9,-2.5 7.9,-2.2 1.9,0.2 3.5,-0.6 4.7,-2.2 0.9,-1.2 2,-1.8 3.5,-2.1 3,-0.5 6,-1.4 8.7,-3 1.1,-0.6 2.5,-0.8 3.7,-1.4 0.8,-0.4 1.5,-1 2.3,-1.5 0.9,-0.7 1.5,-0.5 1.7,0.6 0.2,1.3 0.2,2.5 0.2,3.8 0,2 0,4.1 0,6.1 0,0.5 -0.2,0.9 -0.4,1.5 -0.5,-0.2 -1,-0.3 -1.4,-0.4 -1.2,-0.3 -1.8,0.1 -2.1,1.3 -0.2,0.6 -0.6,1.2 -0.7,1.8 -0.1,0.6 -0.3,1.3 -0.1,1.7 0.2,0.4 1,0.8 1.5,0.9 0.6,0.1 1.2,-0.2 1.8,-0.3 1.3,-0.1 1.8,0.5 1.7,1.9 -0.1,1.2 0.2,2.4 0.3,3.7 -0.6,-0.2 -1.1,-0.3 -1.6,-0.5 -0.8,-0.2 -1.5,-0.2 -1.9,0.6 -0.4,0.9 -0.2,1.7 0.6,2.2 0.8,0.4 1.7,0.6 2.7,1 -0.8,1.4 -0.4,2.6 0.7,3.7 0.3,0.4 0.3,1.2 0.3,1.8 0,1 -0.8,0.6 -1.3,0.8 -0.5,0.2 -1,0.6 -1.1,1 -0.1,0.5 0.1,1.4 0.5,1.7 1.3,0.8 1.7,2 1.7,3.5 0.1,1.4 0.4,2.7 0.6,4 0.2,1 0,1.7 -1.1,2.2 -1.5,0.7 -1.6,1.7 -0.3,2.7 1.4,1.1 1.8,2.5 1.6,4.3 -0.2,1 -0.4,2.1 -0.4,3.1 0,1.3 0.3,2.6 0.6,3.8 0.1,0.4 0.2,0.7 0.4,1.3 -1.1,-0.1 -2,0.1 -2.8,-0.2 -2.8,-1.2 -5.1,0.1 -7.5,1.3 -1.4,0.7 -2.9,1.1 -4.3,1.6 -0.1,0.1 -0.4,0 -0.5,0.1 -1.6,1.3 -3.2,0.6 -4.7,-0.2 -1.3,-0.6 -2.4,-0.5 -3.5,0.4 -0.6,0.5 -1.6,0.8 -2.4,0.9 -1.4,0.2 -2.8,0.2 -4.2,0.2 -1.3,0 -2.6,-0.2 -3.9,-0.4 -2.8,-0.4 -5.5,-0.7 -8.3,-1.2 -0.7,-0.1 -1.4,-0.6 -2.1,-0.9 -0.7,-0.3 -1.4,-0.8 -2,-0.7 -2.3,0.4 -4.6,0.4 -6.5,2 -1,0.9 -2.3,1.1 -3.7,1.2 -0.9,0 -2,0.4 -2.8,0.9 -2.1,1.2 -2,1.3 -3.1,-0.3 z m 26,-29.2 c 0.2,1.8 0.3,3.6 0.5,5.4 0.5,3.4 1.5,6.6 3.7,9.2 2.3,2.8 5.6,3.8 8.9,2.4 4.4,-1.8 7.9,-4.8 9.6,-9.4 3,-7.9 1.2,-15.2 -3.7,-21.8 -1.1,-1.5 -2.7,-2.3 -4.6,-2.6 -4.5,-0.9 -8.5,0.8 -11,4.6 -2.5,3.7 -3.4,7.8 -3.4,12.2 z"
         id="path4"
         inkscape:connector-curvature="0"/><path
         d="m 414.6,395.3 c 0,1.3 0.1,2.5 -0.1,3.6 -0.1,0.6 -0.7,1.3 -1.2,1.7 -0.5,0.4 -1.2,0.6 -1.7,0.9 -1.4,1 -1.6,2.5 -0.6,3.8 0.5,0.7 1.2,0.7 1.9,0.6 0.4,-0.1 0.9,0.1 1.4,0.1 -0.1,0.6 -0.2,1.3 -0.4,1.8 -0.2,0.5 -0.9,0.9 -0.9,1.4 0,0.6 0.4,1.2 0.6,1.9 -0.7,0.8 -2.7,0.2 -2.4,2.2 0.2,1.6 1.6,1.6 3.2,1.9 -0.3,1.2 -0.6,2.2 -0.9,3.3 0,0.1 -0.2,0.2 -0.2,0.3 0.1,1.5 -0.5,2.8 -0.8,4.2 -0.2,1 0.7,1.3 1.5,1.5 0.8,0.1 1.3,0.5 1.2,1.5 -0.1,1.2 -0.5,1.5 -1.7,1 -2.2,-0.9 -4.5,-0.7 -6.6,0.5 -1.3,0.7 -2.5,1 -4.1,0.6 -1.6,-0.4 -3.5,-0.5 -5.2,-0.6 -0.5,0 -1.1,0.1 -1.5,0.2 -3.3,1.3 -6.6,0.7 -9.9,0.8 -0.4,0 -0.9,-0.3 -1.3,-0.6 -0.9,-0.6 -1.8,-0.6 -2.6,0.2 -0.3,0.3 -0.7,0.6 -1,0.9 -2.1,2.1 -4.7,3 -7.6,2.3 -0.8,-0.2 -1.6,-0.1 -2.4,-0.1 -0.6,0 -1.1,-0.2 -1.6,-0.3 -1,-0.2 -1.9,-0.4 -2.8,-0.6 -0.4,-0.1 -1,-0.2 -1.3,-0.5 -0.7,-0.8 -1.3,-0.7 -2.2,-0.6 -2.9,0.4 -6,0.7 -8.9,1 -0.9,0.1 -9.1,1.4 -10.1,1.5 0.7,-2.1 1,-2 3.1,-3 -0.8,-0.4 1.5,-4.1 2,-4.9 0.3,-0.6 0.8,-1.6 0.5,-2 -0.4,-0.5 -1.3,-0.7 -2.1,-0.8 -0.7,-0.1 -1.4,0 -2.2,-0.3 0.4,-0.2 0.7,-0.5 1.1,-0.6 0.9,-0.3 1.8,-0.4 2.7,-0.7 1.4,-0.4 2.1,-1.3 2,-2.6 -0.1,-1.2 -0.6,-1.7 -1.8,-1.8 -1.7,-0.1 -1.8,-0.5 -1,-1.9 0.3,-0.6 0.5,-1.4 0.3,-2 -0.2,-1 0.1,-1.6 0.8,-2.2 1.3,-1.2 1.3,-2.7 0,-3.8 -0.6,-0.5 -1.5,0.5 -2.1,1.3 -1,1.5 -1.2,0.6 -3.1,0.4 0.5,-1 1.4,-2.1 1.4,-3.1 0,-1.5 -1.8,-1.2 -2.5,-1.7 1,-0.8 2.1,-1.5 3.3,-2.4 1.1,-0.8 1.1,-1.8 0.4,-2.8 -0.4,-0.6 -0.4,-1.1 0.1,-1.6 0.2,-0.2 0.3,-0.5 0.5,-0.7 0.4,-0.8 0.4,-1.6 -0.2,-2.3 -0.6,-0.7 -1.4,-0.6 -2.2,-0.3 -1,0.4 -2.1,0.8 -3.2,1.1 -0.1,-0.2 -0.2,-0.3 -0.3,-0.5 0.5,-0.4 1,-0.9 1.5,-1.2 1.2,-0.6 2.4,-1 3.8,-1.5 1.2,-0.5 1.5,-1.4 1.3,-2.5 -0.2,-1.2 -0.9,-1.8 -2.1,-1.9 -1,-0.1 -2,-0.1 -3.1,-0.2 -0.7,-0.1 -1.3,-0.3 -2.1,-0.5 0.7,-1.1 1.6,-1.2 2.5,-0.9 0.9,0.3 1.7,0.7 2.6,0.8 1.4,0.3 1.9,-0.3 1.7,-1.7 -0.1,-0.5 0,-1.2 0.3,-1.5 1.2,-1.7 0.9,-3.2 -1,-4.2 -0.1,-0.1 -5.5,-1.4 -5.9,-1.6 1.1,-0.4 7.3,0.6 8.2,0.2 1.8,-0.9 3.6,-1.9 5.4,-2.7 0.4,-0.2 1,-0.2 1.3,0.1 0.8,0.5 1.4,0.5 2.1,-0.1 1.6,-1.4 3.5,-1.7 5.6,-1.5 2.4,0.3 4.8,0.3 7,-0.8 0.4,-0.2 1,-0.2 1.5,0 1.2,0.4 2.1,0.2 3.1,-0.6 1.2,-1 2.5,-1.2 4,-0.6 0.4,0.1 0.8,0.4 1,0.8 0.7,1.6 2.1,1.9 3.8,2.1 0.6,0.1 1.3,0.2 1.8,0.5 1.2,0.5 2.4,0.4 3.6,-0.2 1.2,-0.6 2.3,-0.7 3.7,-0.4 0.6,0.2 1.4,0.1 2,-0.1 3.3,-0.8 6.4,-0.8 9.7,-0.2 2.5,0.5 5.2,0.6 7.7,0.9 1.6,0.2 2.6,1.9 1.9,3.3 -0.6,1.3 -1,2.8 -2.9,3.1 -0.4,0.1 -0.9,0.9 -1,1.4 -0.1,1.1 0,2.2 0.2,3.2 0.3,1.5 1,1.9 2.5,1.6 0.3,-0.1 0.6,-0.1 1.3,-0.2 -0.3,1.7 -0.6,3.3 -1,4.8 -0.1,0.4 -0.8,0.8 -1.2,1 -1.7,0.7 -2.3,1.5 -1.8,3 0.4,1.2 1.5,1.7 3.3,1.3 -0.3,0 0,0 0.4,-0.2 z m -9.4,4.7 c -0.1,-1 -0.1,-3.1 -0.4,-5.1 -0.3,-2.7 -1.2,-5.2 -3.1,-7.3 -3.7,-4.2 -10.1,-4.2 -13.4,0.3 -4.6,6.1 -7,13 -5.9,20.7 0.6,4.7 2.5,8.6 6.7,11.3 5.3,3.4 9.9,2.2 12.8,-3.3 2.6,-4.9 3.3,-10.2 3.3,-16.6 z"
         id="path6"
         inkscape:connector-curvature="0"/><path
         d="m 356.9,540.3 c 1.1,1.1 2.2,0.9 3.7,0.8 3,-0.4 6.2,-0.6 9.2,0.7 0.1,0.1 0.3,0.1 0.4,0.2 2.5,1.3 5.1,1.8 7.8,0.6 1.1,-0.5 2.2,-0.8 3.3,-1.1 0.9,-0.2 1.8,-0.2 2.6,-0.4 0.7,-0.2 1.4,-0.4 1.9,-0.8 1.2,-1.1 2.5,-1.4 4.1,-1.4 2.4,0.1 4.8,0.4 7.1,1.5 1.4,0.6 3,0.8 4.6,1 0.7,0.1 1.6,-0.2 2.3,-0.4 0.9,-0.3 1.9,-0.8 2.7,-1.3 2.1,-1.4 4.6,-1.7 7,-2.3 1,-0.3 1.5,0.2 1.5,1.3 -0.1,2.6 0.2,3 2.7,3.4 0.3,0.1 0.9,0.4 0.9,0.5 0,0.4 -0.2,0.9 -0.5,1.1 -0.4,0.3 -1,0.5 -1.5,0.7 -1.1,0.4 -1.8,1.2 -1.7,2.3 0.1,1.9 0.2,3.7 0.5,5.6 0.2,1.4 1.5,1.5 2.8,1.9 -0.3,0.3 -0.5,0.5 -0.7,0.6 -1,0.6 -1.5,1.5 -1.2,2.7 0.2,1 -0.1,1.5 -1,1.8 -1.4,0.5 -2,1.5 -2,2.9 0,0.6 -0.2,1.2 0,1.7 0.2,0.6 0.5,1.4 1,1.7 0.6,0.3 1.5,0.1 2.1,-0.2 0.6,-0.3 1.1,-0.9 1.9,-1.7 0.1,0.8 0.4,1.3 0.3,1.8 -0.1,1.2 -0.3,2.4 -0.6,3.5 -0.1,0.3 -0.6,0.6 -0.9,0.7 -2,0.2 -2.3,0.6 -2.4,2.6 -0.1,2.1 0.5,3 2.2,3.3 0.5,0.1 0.9,0.1 1.4,0.2 0.2,1.7 0.3,3.2 0.5,4.8 0,0.4 -0.1,0.8 -0.3,1.1 -1.1,2 -2.8,3.1 -5.2,2.8 -0.4,0 -0.8,-0.4 -1.1,-0.8 -0.5,-0.5 -1,-0.6 -1.7,-0.3 -1.2,0.5 -2.5,0.8 -3.8,1 -0.3,0.1 -0.7,-0.3 -1.1,-0.3 -0.4,0 -0.8,0 -1.2,0.1 -0.5,0.2 -1,0.5 -1.6,0.6 -2.3,0.1 -4.6,0.2 -6.8,0.2 -1.1,0 -2.2,-0.3 -3.3,-0.4 -1.1,-0.1 -2.2,-0.2 -3.2,0 -2.8,0.7 -5.5,0.5 -8.3,0.2 -0.6,-0.1 -1.3,-0.1 -1.9,-0.2 -0.8,-0.1 -1.6,-0.4 -2.4,-0.4 -0.9,0 -1.7,0.2 -2.6,0.4 -0.5,0.1 -1,0.4 -1.4,0.4 -1.6,0 -3.2,0 -4.8,-0.1 -0.6,0 -1.2,-0.4 -1.8,-0.5 -0.7,-0.1 -1.4,-0.1 -2.1,0 -1,0 -1.9,0.1 -2.9,0.1 -1.1,0.1 -2.2,0.2 -3.3,0.2 -0.9,0 -1.8,0.3 -2.5,-0.6 -0.1,-0.2 -1,-0.1 -1.1,0 -0.4,0.7 -1,0.6 -1.7,0.6 -1.2,0 -2.3,-0.1 -3.5,0 -0.7,0 -1.1,-0.2 -1,-1 0,-0.9 0.2,-1.7 0.2,-2.6 0,-0.9 0.1,-1.9 -0.3,-2.6 -0.6,-0.9 -1.7,-0.5 -2.6,-0.1 -1.1,0.5 -2.1,1 -3.1,1.5 -0.3,0.2 -0.7,0.3 -1.1,0.4 -0.1,-0.1 -0.2,-0.2 -0.2,-0.3 0.4,-0.4 0.7,-0.9 1.1,-1.2 0.6,-0.4 1.3,-0.7 1.9,-1 2.3,-1.3 1.9,-3.8 1.5,-4.4 -1.9,-0.3 2,-0.5 -1.6,-0.3 -1.8,0.1 5,0 4.8,-2.7 0.2,-0.8 0.6,-1.6 0.8,-2.4 0.4,-2.2 -0.7,-3.1 -2.8,-2.4 -0.9,0.3 -1.8,0.6 -2.7,0.8 -0.1,-0.1 -0.2,-0.2 -0.3,-0.3 0.5,-0.6 0.9,-1.2 1.4,-1.7 0.9,-0.8 1.9,-1.5 2.8,-2.3 1,-0.9 1.2,-2.4 0.7,-3.6 -0.5,-1 -1.6,-1.4 -3,-0.8 -0.8,0.3 -1.6,0.8 -2.3,1.2 -0.8,0.4 -1.6,0.6 -2,-0.4 -0.4,-1 0.5,-1.4 1.2,-1.5 1.2,-0.3 2.5,-0.4 3.8,-0.6 0.6,-0.1 1.1,-0.2 1.7,-0.3 1.1,-0.3 1.5,-1.1 1.4,-2.2 -0.1,-1 -0.8,-1.4 -1.7,-1.5 -1.7,-0.1 -3.4,-0.2 -5,-0.3 -0.6,0 -1.1,-0.2 -1.7,-0.3 0.3,-1.1 1.1,-1.1 1.8,-1.1 1.4,0 2.8,0 4.2,-0.1 0.4,0 0.8,-0.1 1.2,-0.2 1.8,-0.4 2.2,-1 2,-2.5 -0.1,-1.6 -1.1,-2.7 -2.6,-2.8 -1.4,-0.1 -2.7,0 -4.1,0 -0.8,0 -1.5,0 -1.5,-1.1 0,-1.1 0.7,-1.1 1.5,-0.9 1.3,0.2 2.5,0.4 3.8,0.4 0.6,0 1.4,-0.3 1.9,-0.7 0.8,-0.6 3.4,-1.3 4.4,-0.9 1.5,0.6 2.2,0.4 3,-1 -0.3,0.1 -0.2,-0.2 0.1,-0.6 z m 25.4,26.8 c 0,0.5 -0.1,1 0,1.4 1,5.7 2.5,9.9 7.7,12.4 0.8,0.4 1.5,0.8 2.2,1.1 5.2,2.3 10.4,0.4 12.5,-4.9 1,-2.5 1.6,-5.2 2,-7.8 1,-5.8 0.6,-11.5 -2,-17 -1.6,-3.4 -4.2,-5.3 -8,-5.3 -4.9,0 -8.5,2.5 -11.1,6.5 -2.5,4.2 -3.5,8.8 -3.3,13.6 z"
         id="path8"
         inkscape:connector-curvature="0"/><path
         d="m 105.8,475.9 c -0.1,-2 -0.2,-3.8 -0.2,-5.5 0.1,-1.5 0.8,-2.6 2,-3.6 0.4,-0.4 0.7,-1.2 0.6,-1.7 -0.1,-0.4 -0.9,-1 -1.4,-1 -1.1,-0.1 -1.5,-0.5 -1.4,-1.6 0,-0.3 -0.1,-0.6 -0.3,-0.9 -0.7,-1.1 -0.6,-2.2 -0.1,-3.3 0.2,-0.4 0.7,-0.8 1.1,-0.9 0.9,-0.2 1.1,-0.7 1,-1.5 -0.1,-0.7 -0.2,-1.4 -0.3,-2 -0.2,-1.2 -0.1,-2.3 0.9,-3.1 0.6,-0.5 0.3,-1.3 -0.8,-1.9 -0.8,-0.5 -2,-2.9 -1.7,-3.7 0.1,-0.4 0.6,-0.7 1,-0.8 0.9,-0.3 1.7,-0.6 1.6,-1.8 -0.1,-1.1 -0.3,-2 -1.6,-2.2 -0.2,0 -0.5,-0.2 -0.5,-0.3 -0.1,-1.3 -0.2,-2.6 -0.3,-3.9 0,-1 0.2,-2.2 0,-3.1 -0.3,-1 0,-1.3 0.9,-1.6 1.8,-0.5 2,-0.9 1.9,-2.8 -0.1,-0.9 -0.4,-1.4 -1.4,-1.5 -0.2,0 -0.5,-0.1 -0.5,-0.2 -0.1,-1.4 -0.2,-2.8 -0.3,-4.2 0,-0.1 0.3,-0.3 0.5,-0.3 1.6,-0.1 3.2,-0.2 4.5,1.1 1.4,1.4 2.4,1.5 3.9,0.3 1.7,-1.3 3.4,-1.6 5.4,-0.9 2,0.6 4.2,1.2 6.2,0.5 1.8,-0.6 3.2,-0.3 4.7,0.6 0.6,0.4 1.7,-0.1 2.6,-0.2 0.8,-0.1 1.6,-0.4 2.4,-0.4 4.1,0.5 8.2,1.1 12.4,0.3 0.2,0 0.4,-0.1 0.6,0 1.1,0.3 2.1,0 3.2,-0.3 0.7,-0.2 1.8,0.1 2.6,0.5 1.3,0.6 2.5,0.6 3.8,0.3 2.3,-0.4 4.7,-0.5 6.7,1.2 0.5,0.4 1.3,0.5 2,0.5 1.9,-0.2 3.8,-0.6 5.7,-0.9 0.8,-0.1 1.7,-0.4 2.5,0.7 -0.7,0.3 -1.3,0.6 -1.9,0.7 -1.9,0.3 -3.8,0.5 -5.7,0.7 -2.2,0.3 -2.8,1.2 -2.3,3.4 0.1,0.6 0.1,1.3 0,2 -0.1,1.3 0.2,1.7 1.4,1.7 0.7,0 1.4,-0.2 2.1,-0.2 0.7,0 1.5,0.1 2.2,0.2 0.3,0.1 0.5,0.5 0.8,0.7 -0.3,0.2 -0.5,0.5 -0.8,0.5 -0.8,0 -1.5,0 -2.3,-0.1 -1.9,-0.2 -2.8,0.5 -2.9,2.4 -0.1,1.7 -0.4,3.4 -0.2,5.1 0.3,2.6 1.4,3.2 3.9,2.3 1.4,-0.5 1.4,-0.5 2.5,0.2 -0.2,0.8 -0.5,1.4 -1.5,1.5 -0.9,0.1 -1.3,0.8 -1.2,1.6 0,1.2 0,2.4 0,3.7 -0.1,0 -0.2,0.1 -0.4,0.1 -0.3,-0.5 -0.5,-1.1 -0.9,-1.5 -0.5,-0.6 -1.3,-1.4 -1.8,-1.4 -0.6,0.1 -1.3,1 -1.4,1.7 -0.2,0.9 0,1.9 0.2,2.8 0.4,1.8 1,3.5 1.5,5.3 0.4,1.5 1.2,2 2.6,1.2 0.8,-0.4 1.4,-1.1 1.9,-1.8 1,-1.5 3,-1.5 4.2,0.2 -2.1,0.7 -4.1,1.6 -2.5,4.4 -0.3,0.1 -0.4,0.1 -0.6,0.1 -2.1,-0.1 -2.1,-0.1 -2.9,1.8 -0.2,0.5 -0.7,0.9 -1.1,1.2 -1,0.7 -1.4,1.5 -1.2,2.8 0.3,1.2 1.1,1.7 2.3,2 1.2,0.2 2.4,0.6 3.6,0.9 0.2,0.1 0.4,0.4 0.6,0.6 -0.2,0.1 -0.5,0.4 -0.7,0.4 -1.1,0.1 -2.2,0 -3.3,0 -0.5,0 -1,-0.1 -1.6,-0.1 -0.9,0 -1.6,0.2 -1.7,1.2 -0.1,1 0.5,1.6 1.4,1.7 0.5,0.1 1.1,0.1 1.7,0.2 0.9,0.1 1.7,0.2 2.6,0.3 0,0.1 0,0.3 0.1,0.4 -0.4,0.1 -0.9,0.3 -1.3,0.3 -0.8,0 -1.5,0 -2.3,-0.1 -1,-0.1 -1.8,0.1 -2.1,1.3 -0.2,1.2 0.2,2.1 1.3,2.5 1.5,0.6 3,1 4.5,1.5 0.4,0.1 0.7,0.2 1.1,0.3 0,0.1 0,0.3 0,0.4 -1,0.2 -2,0.3 -3,0.5 -0.4,0.1 -0.8,0 -1.2,0 -1.5,0.2 -2,1.2 -1.1,2.4 0.5,0.7 0.4,1.3 0,2 -1.4,2.2 -0.9,3.8 1.4,5 0.8,0.4 1.6,0.8 2.4,1.5 -0.4,-0.1 -0.8,-0.2 -1.2,-0.3 -1.6,-0.3 -3.3,-0.8 -4.9,-0.9 -2.2,-0.2 -4.5,0 -6.7,-0.1 -2.1,-0.1 -4.3,0.1 -6.3,-0.9 -0.6,-0.3 -1.2,-0.4 -1.9,-0.4 -1.8,0.1 -3.1,-0.8 -4.2,-2 -1.4,-1.5 -3,-2.2 -5,-1 -0.3,0.2 -1,0.1 -1.5,-0.1 -0.8,-0.2 -1.6,-0.7 -2.5,-0.9 -1.2,-0.2 -2.3,-0.6 -3,-1.7 -0.6,-0.9 -1.6,-0.8 -2.5,-0.4 -2,0.8 -2,0.8 -2.7,-1.1 -0.4,-1 -1,-1.4 -2,-1.4 -0.9,0 -1.5,-0.3 -1.9,-1.1 -0.6,-1.3 -1.8,-1.9 -3.1,-2.2 -3.6,-1 -7.3,-2.1 -10.9,-3.2 -0.5,-0.1 -0.9,-0.5 -1.2,-0.9 -1.1,-1.6 -1.7,-1.7 -3.3,-0.7 -0.6,0.3 -0.9,0.5 -1.5,0.9 z m 22.1,-39.6 c -3.7,0 -7.1,0.9 -9.6,3.9 -3.9,4.7 -5.3,10.3 -4.4,16.3 0.8,5.4 4.5,8.6 9.5,10.5 7.9,3.1 15.1,-0.5 17.4,-8.7 0.5,-1.6 0.8,-3.3 1.2,-4.9 1.9,-8 -5.6,-17.6 -14.1,-17.1 z"
         id="path10"
         inkscape:connector-curvature="0"/><path
         d="m 113.2,258.1 c -1.1,-0.2 -2.2,-0.3 -3.3,-0.5 0.4,-1 0.8,-2.1 1.3,-3.2 0.1,-0.2 0.5,-0.5 0.8,-0.4 1.4,0.1 2.7,0.3 4.1,0.5 0.7,0.1 1.5,0.2 2.1,-0.1 1.1,-0.4 2.1,-1.1 3.2,-1.7 1.2,-0.6 2.3,-1 3.7,-0.7 0.5,0.1 1.2,0 1.7,-0.3 0.8,-0.3 1.4,-0.2 1.9,0.4 0.1,0.2 0.3,0.3 0.4,0.4 1.5,1.4 2,1.5 3.8,0.4 1.9,1.4 3.7,1.3 5.6,-0.2 1.5,1.2 3.3,1.3 5.1,0.9 2.4,-0.4 4.8,-0.8 6.9,-2.5 0.6,-0.5 2,-0.2 2.9,0.2 1.4,0.7 2.7,1.1 4.2,0.5 0.2,-0.1 0.5,-0.1 0.7,-0.1 1.5,0.5 2.9,-0.2 4.3,-0.3 1.8,-0.1 3.5,-0.5 5.3,-1 0.6,-0.2 1.4,0 2,0.2 3.2,0.8 6.4,0.1 9.6,-0.4 0.5,-0.1 1,-0.2 1.6,-0.3 -0.1,1.1 -0.9,1.4 -1.5,1.6 -0.8,0.3 -1.7,0.3 -2.6,0.5 -0.5,0.2 -1.3,0.5 -1.4,0.9 -0.2,0.9 0.1,1.8 1,2.2 0.4,0.2 0.8,0.4 0.9,0.5 0,1.1 -0.2,2 0,2.8 0.5,1.6 1.4,1.9 3.3,1.6 0.6,-0.1 1.3,0 2,0 0,0.2 0,0.3 0.1,0.5 -0.4,0.1 -0.8,0.3 -1.3,0.4 -0.8,0.1 -1.7,0.2 -2.5,0.3 -2,0.3 -2.2,0.5 -2.5,2.5 0,0.3 -0.3,0.6 -0.6,0.8 -0.9,0.6 -1.8,1.2 -2.6,1.9 -1.5,1.1 -1.4,3.7 0.2,4.7 0.4,0.2 1.3,0 1.7,-0.3 1.1,-0.8 2,-1.8 2.9,-2.8 0.8,-0.9 1.8,-1.3 3,-1.1 1.3,0.2 2.5,0.3 3.8,0.5 0,0.1 0,0.3 0,0.4 -0.9,0.2 -1.7,0.4 -2.6,0.6 -0.6,0.1 -1.3,0.1 -1.9,0.4 -0.4,0.2 -1,0.7 -1,1.1 0,0.5 0.4,1.2 0.9,1.4 1,0.5 2.1,0.7 3.2,1 0.6,0.2 1.6,0.1 1.5,1 -0.1,1 -1.1,0.6 -1.8,0.6 -1,-0.1 -2,-0.2 -3,-0.3 -2,-0.1 -2.7,0.7 -2.2,2.7 0.1,0.3 0.1,0.5 0.2,0.9 -0.7,0.2 -1.4,0.5 -2,0.7 -0.9,0.3 -1.5,0.8 -1.5,1.9 0,0.5 -0.2,0.9 -0.3,1.4 -0.2,1.5 0.3,2.2 1.9,2.2 1.1,0 2.2,-0.1 3.2,0 0.5,0 1,0.3 1.8,0.5 -1.3,1.1 -2.6,1.5 -4,1.5 -0.9,0 -1.8,0.2 -2.6,0.5 -0.8,0.3 -1,1.1 -0.4,1.9 0.5,0.6 0.8,1.2 1.4,1.6 0.4,0.3 1.1,0.3 1.6,0.3 1.1,-0.1 2.1,-0.4 3.2,-0.5 0.5,-0.1 1.1,0.1 1.7,0.2 -0.4,1.3 -1.2,1.8 -2.3,1.7 -0.8,0 -1.7,-0.2 -2.5,0 -0.5,0.1 -1.3,0.5 -1.5,0.9 -0.2,0.5 0.1,1.5 0.5,1.8 1.3,0.7 1.2,1.7 1.1,2.8 -0.1,0.6 -0.1,1.2 -0.1,1.8 -0.1,0.8 -0.5,1.4 -1.3,1.7 -0.5,0.2 -1.1,0.4 -1.4,0.8 -0.4,0.5 -0.9,1.4 -0.7,1.8 0.2,0.4 1.2,0.9 1.7,0.8 1.5,-0.2 2.9,-0.7 4.3,-1 0.4,-0.1 0.8,-0.2 1.3,-0.1 -1.4,2.1 -4.3,1.7 -5.9,3.4 0.2,1 0.9,1.4 1.8,1.6 1,0.2 2,0.5 3,0.7 0.4,0.1 0.7,0.2 1.1,0.4 0,0.2 0,0.3 -0.1,0.5 -1.1,-0.1 -2.3,-0.1 -3.4,-0.2 -0.4,0 -0.8,-0.3 -1.3,-0.4 -1.6,-0.4 -2.5,0.4 -2.3,2.1 0.3,2.1 0.1,2 -1.9,2.8 -3.2,1.2 -5.7,-0.5 -8.2,-1.9 -0.8,-0.4 -1.3,-0.5 -1.9,0.2 -0.3,0.4 -0.6,0.8 -1,1.3 -0.3,-0.4 -0.6,-0.7 -0.9,-1 -0.6,-0.8 -1.3,-1.2 -2.4,-1.2 -0.5,0 -1,-0.3 -1.5,-0.3 -0.8,0.1 -1.7,0.3 -2.5,0.4 -0.7,0.1 -1.4,0.5 -2.1,0.4 -1.3,-0.2 -2.7,-0.5 -4,-0.9 -0.8,-0.3 -1.5,-0.7 -2.1,-1.2 -0.8,-0.7 -1.5,-0.9 -2.4,-0.3 -1.5,1 -2.9,1 -4.2,-0.4 -0.1,-0.1 -0.1,-0.1 -0.2,-0.1 -2.5,-0.6 -5,-1.3 -7.7,-0.6 -2.4,0.7 -4.8,1.7 -7.4,0.9 -0.8,-0.2 -1.6,-0.3 -2.4,-0.5 -1.1,-0.1 -2.1,-0.5 -2.8,-1.4 -0.6,-0.8 -1.4,-0.9 -2.2,-0.5 -0.9,0.5 -1.7,0.5 -2.6,-0.2 -0.4,-0.3 -0.9,-0.3 -1.3,-0.6 -1.1,-0.8 -2.3,-1.6 -3.3,-2.5 -0.2,-0.1 -0.1,-0.5 -0.1,-0.8 0.1,-1.4 0.3,-2.8 0.4,-4.2 0.1,-1.1 0.1,-2.2 -0.1,-3.3 -0.4,-1.9 -0.4,-2.2 1.5,-3 1.1,-0.5 1.7,-1.2 1.5,-2.4 -0.1,-1 -0.6,-1.6 -1.6,-1.7 -1.6,-0.2 -1.7,-0.3 -1.2,-1.9 0.1,-0.4 0.3,-0.8 0.3,-1.2 -0.1,-1.7 0.3,-3.2 1.5,-4.5 0.3,-0.3 0,-1.2 -0.2,-1.7 -0.2,-0.5 -0.5,-0.8 -0.8,-1.2 0.8,-0.8 2.4,-0.6 2.1,-2.2 -0.4,-1.6 -1.8,-1.3 -3,-1.6 0.1,-1.3 0.2,-2.6 0.4,-3.8 0.1,-0.4 0.8,-0.7 1.1,-1.1 0.5,-0.5 1.2,-0.9 1.3,-1.5 0,-0.5 -0.6,-1.2 -1.1,-1.5 -0.9,-0.5 -1.6,-1.1 -1.8,-2.1 -0.3,-1.3 0.2,-2.2 1.6,-2.5 1.2,-0.6 1.7,-1.3 2.1,-2.6 z m 16.8,7.5 c -2.9,-0.1 -6,1.7 -8.5,4.7 -3.5,4.1 -5.3,8.8 -5.8,14.2 -0.9,9.8 9.2,14.6 15.2,13.2 6.5,-1.4 13.1,-8.7 12.1,-18 -0.2,-1.7 -0.5,-3.5 -0.9,-5.2 -0.5,-1.7 -1,-3.5 -2,-4.9 -2.1,-3.2 -5.4,-3.9 -10.1,-4 z"
         id="path12"
         inkscape:connector-curvature="0"/></g><g
       id="CL_1001431"
			 style="fill:none"
       inkscape:label="CL_1001431"><path
         d="m 411.3,261 c 0,1.5 0.1,3.1 0,4.5 -0.1,0.7 -0.4,1.5 -0.9,2 -1.8,1.8 -1.7,2.8 0.4,4.2 0.8,0.5 1.2,1.2 1.2,2.2 0,1.1 0.1,2.2 0.3,3.4 0.1,0.7 0.1,1.2 -0.7,1.4 -1.2,0.3 -1.6,1.3 -1.8,2.3 -0.1,0.5 -0.1,1 -0.1,1.4 0.1,2.4 0.3,2.8 2.7,3.3 0.2,1 0.3,1.9 -1,2.4 -1,0.4 -1.2,1.2 -0.6,2.1 0.3,0.4 0.6,0.8 0.7,1.5 -0.4,-0.1 -0.7,-0.2 -1.1,-0.3 -0.9,-0.4 -1.7,-0.6 -2.3,0.4 -0.5,0.7 -0.3,2 0.5,2.7 0.6,0.4 1.3,0.5 1.9,0.9 0.3,0.2 0.7,0.7 0.7,1.1 -0.1,1.5 -0.4,3.1 -0.4,4.7 0,1 -0.2,1.6 -1.3,2 -1.6,0.6 -1.5,2.1 -1.7,3.5 -0.1,1.1 0.8,1.4 1.7,1.7 1.2,0.3 1.7,1.3 1.9,2.4 0.3,2.5 0.6,5.2 1,7.7 0.1,0.8 -0.2,1.2 -0.9,1.4 -2.1,0.8 -4.2,0.5 -6.1,-0.7 -0.7,-0.5 -1.4,-1.1 -2.1,-1.6 -1.5,-1.1 -3.1,-1.3 -5,-0.9 -4.1,0.9 -7.8,3 -11.7,4.3 -0.8,0.3 -1.7,0.3 -2.5,0.4 -0.7,0.1 -1.6,0 -2.2,0.3 -2.9,1.1 -5.8,1.2 -8.6,0 -0.6,-0.2 -1.2,-0.5 -1.7,-0.9 -1.2,-0.9 -2.4,-1.2 -3.9,-0.9 -2,0.4 -4,0.9 -6,1.2 -0.8,0.1 -1.7,0 -2.4,-0.3 -1,-0.4 -1.9,-0.4 -2.7,0.4 -0.8,0.8 -1.6,0.9 -2.5,0.2 -0.5,-0.4 -1.3,-0.5 -2.1,-0.6 -2.2,-0.4 -3.4,-1.4 -3.8,-3.7 -0.5,-3 -0.3,-6 0.4,-9 0.4,-1.6 0.2,-3.6 0.1,-5.4 -0.1,-1.4 -0.3,-2.9 -0.5,-4.4 -0.2,-1.7 -0.6,-3.4 -0.7,-5.2 -0.1,-1.2 -0.2,-2.8 0.4,-3.7 1.8,-2.3 1.5,-4.9 1,-7.4 -0.4,-2.1 -1.2,-4.2 -1.6,-6.4 -0.4,-2.1 -0.6,-4.3 0.1,-6.5 0.1,-0.3 0.1,-0.5 0.3,-0.8 0.9,-2.3 5.5,-5 7.9,-4.8 0.7,0.1 1.6,-0.2 2.1,-0.6 1.9,-1.6 4.2,-2.2 6.6,-2.5 0.5,-0.1 1,0.3 1.5,0.5 0.7,0.4 1.4,1 2.2,1.1 1.7,0.3 3.5,0.3 5.2,0.4 0.9,0.1 1.9,0.4 2.8,0.5 1.2,0.2 2.5,0.6 3.9,0.6 1.9,0.1 4,0 5.9,0 1.1,0 2.1,-0.2 2.8,-1.1 0.7,-0.8 1.5,-0.8 2.4,-0.4 0.5,0.2 1,0.6 1.5,0.7 0.7,0.2 1.5,0.5 2.1,0.3 2.3,-0.8 5,-0.7 7.1,-2.3 0.9,-0.7 2,-1.1 3.1,-1.5 0.6,-0.2 1.3,-0.3 1.9,-0.2 1.1,1.2 2.7,1.6 4.6,2 z M 399,288.6 c 0.1,-2.9 -0.4,-5.8 -1.4,-8.5 -1.4,-4 -5.2,-7 -9.1,-7 -5.1,0 -9.7,3.7 -12.5,8.2 -2.4,3.8 -1.8,7.4 -2,11.8 1,4.7 1.4,5.8 4.7,8.3 7.9,2.9 14,2.8 18.5,-4.2 1.3,-2.9 1.9,-5.6 1.8,-8.6 z"
         id="path15"
         inkscape:connector-curvature="0"/><path
         d="m 416.3,429.6 c -0.3,1.3 -0.7,2.6 -0.9,3.8 -0.1,1.1 0,2.2 0.1,3.3 0.1,1.3 -0.3,2.3 -1.2,3.1 -0.5,0.4 -0.9,0.8 -1.3,1.3 -1.1,1.4 -0.8,2.9 0.8,3.6 1,0.5 1.6,1.2 1.6,2.3 0,1.2 -0.4,1.8 -1.6,1.9 -0.9,0.1 -1.6,0.4 -1.8,1.4 -0.2,1.2 0.1,2.2 1.2,2.7 1.3,0.6 1.7,1.5 1.9,2.8 0.4,2.7 1.1,5.5 1.3,8.2 0.1,1.2 -0.7,2.6 -1,3.8 -0.2,0.9 -0.4,1.7 -0.5,2.6 -0.1,0.5 0,1.1 -0.3,1.6 -0.6,1.1 -0.5,1.7 0.6,2.4 0.5,0.3 1.1,0.6 1.3,1.1 0.6,1.2 -0.3,2.5 -1.7,2.6 -0.8,0.1 -1.7,0 -2.5,0.2 -0.6,0.1 -1.2,0.4 -1.8,0.7 -0.7,0.3 -1.4,0.7 -2.1,1 -0.9,0.3 -1.9,0.6 -2.4,-0.8 -0.1,-0.3 -1,-0.6 -1.5,-0.5 -0.3,0 -0.7,0.7 -0.9,1.1 -0.2,0.4 -0.3,0.8 -0.6,1.5 -0.4,-0.4 -0.6,-0.7 -0.8,-1 -1,-1.2 -2.4,-1.1 -3.5,0 -0.6,0.6 -1.4,1.1 -2.1,1.4 -2.5,0.7 -5.2,0.9 -7.8,0.4 -0.5,-0.1 -1,0.1 -1.5,0.2 -1.8,0.4 -3.6,0.7 -5.3,-0.3 -1.4,-0.9 -1.8,-0.8 -3.1,0 -0.8,0.5 -1.8,0.8 -2.8,0.9 -1.9,0.1 -3.9,0.1 -6,-0.1 -0.8,-0.1 -1.7,-0.5 -2.3,-1 -1.6,-1.3 -2.4,-1.4 -3.9,0 -0.6,0.6 -1.3,0.7 -2.1,0.4 -1.8,-0.8 -3.3,-0.3 -4.9,0.8 -0.9,0.7 -1.9,1.5 -2.9,2.2 -1.6,1.1 -3.2,0.5 -3.9,-1.2 -0.8,-2 -0.8,-4.1 0.2,-6.1 1,-2 0.8,-3.7 -0.7,-5.4 -0.8,-0.8 -0.9,-1.6 -0.8,-2.7 0.2,-2 0,-4 0,-6.1 0,-0.4 -0.1,-0.9 0,-1.3 0.5,-1.8 0.2,-3.4 -0.7,-5.1 -0.4,-0.7 -0.4,-1.2 0,-1.9 1.5,-2.4 1.4,-6.6 -0.3,-8.9 -0.5,-0.7 -0.2,-2.9 0.6,-3.5 0.8,-0.5 0.8,-1.2 0.7,-2 -0.1,-0.6 -0.2,-1.2 -0.3,-1.8 -0.9,-3.6 1.1,-7 4.8,-7.9 1.2,-0.3 2.4,-0.4 3.6,-0.5 2.2,-0.2 4.5,-0.3 6.7,-0.5 0.3,0 0.6,0 0.8,0.1 1.9,1.3 4.2,1.7 6.4,2.1 0.9,0.1 1.8,0.2 2.7,0.3 3.2,0.5 6.1,-0.3 8.4,-2.7 0.9,-0.9 1.7,-1.4 2.9,-0.5 0.2,0.2 0.6,0.3 0.9,0.3 3.3,0.1 6.7,0.3 10.1,-0.6 0.8,-0.2 1.6,0 2.4,-0.1 3.1,0 6.5,1.1 9.5,-0.8 1.4,-0.9 2.9,-1 4.6,-0.5 1,1.3 2.4,1.4 3.7,1.7 z m -20.1,39.3 c 0,-0.1 0,-0.1 0,0 0.4,-0.1 1.3,-0.2 1.7,-0.2 3.7,0 6.2,-1.5 7.5,-5.1 0.7,-2.1 0.9,-2.3 1.4,-4.5 0.3,-1.2 1.2,-3.5 1.2,-4.7 -0.1,-2.2 -0.5,-4.4 -0.8,-6.6 -0.7,-4.5 -3.1,-7.7 -7.5,-9 -1.4,-0.4 -2.9,-0.4 -4.5,-0.6 -5.7,-1 -10.2,3.2 -11.7,7 -1.6,4 -2.2,8.4 -1.5,12.7 2,6.6 4.6,9.6 10.1,10.5 1.1,0.2 2.7,0.3 4.1,0.5 z"
         id="path17"
         inkscape:connector-curvature="0"/><path
         d="m 176,359.4 c -2.5,0.2 -3,1.7 -3.1,3.7 0,0.3 -0.1,0.6 -0.3,0.9 -2.1,2.8 -4.4,5.5 -7.4,7.4 -0.5,0.3 -1.4,0.5 -2,0.3 -1.2,-0.4 -2.3,-1 -3.3,-1.6 -1.1,-0.7 -2.2,-1.1 -3.5,-0.9 -2.4,0.3 -4.8,0.4 -7.2,0.7 -1.6,0.2 -3.2,0.5 -4.8,0.6 -0.6,0.1 -1.2,0 -1.7,-0.2 -2,-0.8 -3.8,-0.7 -5.8,0.5 -2.7,1.7 -5.9,1.7 -8.8,0.6 -1.1,-0.4 -2.1,-0.4 -3.1,0.2 -1.2,0.7 -2.2,0.4 -3.3,-0.3 -1.2,-0.8 -2.7,-1.5 -4.1,-1.8 -2.1,-0.4 -4.2,-0.8 -6.2,-2 -0.6,-0.4 -1.4,-0.5 -2.1,-0.5 -1.3,-0.1 -2.1,-0.7 -2,-2 0.1,-1.4 0.2,-2.8 0.5,-4.2 0.1,-0.6 0.6,-1.3 1.2,-1.7 1,-0.8 1.1,-1.4 0.7,-2.6 -0.3,-0.9 -0.4,-1.8 -0.4,-2.7 0,-1.3 0.3,-2.5 0.5,-3.8 0,-0.4 -0.1,-1 -0.3,-1.3 -0.6,-0.7 -0.5,-1.3 0,-2 1.1,-1.4 0.8,-2.7 -0.8,-3.4 -0.8,-0.3 -0.9,-0.7 -0.7,-1.4 0.3,-1 0.4,-2.1 0.6,-3.2 0.2,-1.1 0.4,-2.2 1.7,-2.8 0.8,-0.3 1,-1.3 0.4,-1.8 -1.1,-1 -1.4,-2.1 -1.3,-3.6 0.1,-1.6 -0.2,-3.3 -0.3,-5 0,-0.5 0.2,-1.1 0.4,-1.4 1.8,-2.2 1.8,-2.2 0.2,-4.4 1.4,-1.5 1,-3 -0.2,-4.6 -0.7,-0.8 -0.7,-1.7 -0.2,-2.7 0.3,-0.5 0.4,-1.4 0.2,-1.9 -0.5,-1.2 -0.3,-2.4 0.1,-3.5 0.3,-1 1,-1.3 1.9,-0.9 0.9,0.3 1.7,0.8 2.6,1.3 0.9,0.5 1.7,0.6 2.7,0.3 0.5,-0.2 1.2,0.1 1.7,0.3 0.6,0.3 1.1,0.9 1.7,1.1 3.4,1 6.9,1.4 10.4,0.5 0.3,-0.1 0.6,-0.1 0.8,-0.2 2.6,-1.3 5.2,-0.6 7.8,0.3 0.8,0.3 1.5,0.8 2.2,0.8 1.2,0 2.3,-0.3 3.7,-0.5 0.7,1.3 2.3,1.5 4,1.7 1.1,0.2 2.1,0.6 3.2,0.9 0.9,0.3 1.8,0.3 2.5,-0.5 0.7,-0.7 3.4,-0.4 4.5,0.4 0.3,0.2 0.6,0.5 0.9,0.8 0.9,0.9 1.8,0.9 2.7,0 0.3,-0.3 0.9,-0.3 1.2,-0.2 1.1,0.3 2.2,0.8 3.3,1 1.4,0.3 2.8,0.4 4.2,0.7 0.6,0.1 1.2,0.3 1.6,0.8 1.2,1.6 1.6,3.3 1.5,5.3 -0.1,1.2 0.3,2.4 0.4,3.5 0.1,0.9 0.2,1.9 -0.1,2.8 -0.8,3.5 -0.9,6.9 -0.3,10.4 0.3,1.7 0.4,3.3 0.5,5 0.1,1.8 0.2,3.6 1.4,5.1 0.5,0.6 0.5,1.2 -0.5,1.4 -0.9,0.2 -1.3,0.9 -1.5,1.7 -0.2,0.8 -0.4,1.6 -0.7,2.4 -0.5,1.5 -0.4,2.9 0.5,4.2 0.8,0.6 1.1,1.2 1.6,2 z m -35.5,-22.6 c -0.1,-1 -0.1,-2.4 -0.3,-3.8 -0.5,-3.9 -1.6,-7.6 -4.3,-10.7 -4.6,-5.3 -13,-4.7 -17,1.1 -1.7,2.5 -2.7,5.3 -3.3,8.2 -0.8,3.8 -0.6,7.6 -0.4,11.5 0.1,3.7 1.4,6.7 4,9.3 5.2,5.2 12.2,4.9 16.8,-0.8 3.3,-4.2 4.4,-9.2 4.5,-14.8 z"
         id="path19"
         inkscape:connector-curvature="0"/><path
         d="m 108,537.2 c -1,-0.4 -1.9,-0.6 -2.5,-1.1 -0.6,-0.5 -1.1,-1.3 -1.2,-2 -0.1,-1.7 0.1,-3.5 0.2,-5.3 0,-0.6 0,-1.2 0.2,-1.8 0.1,-0.5 0.4,-1.1 0.8,-1.3 0.7,-0.5 0.9,-1 0.9,-1.8 -0.1,-1.5 -0.6,-2.9 -1.5,-4.2 -1,-1.5 -1.1,-3.5 -0.4,-5.2 0.5,-1.2 0.8,-2.5 1.8,-3.5 0.7,-0.7 0.1,-3.5 -0.7,-4.5 -0.4,-0.4 -0.6,-1.1 -0.7,-1.6 -0.1,-1 0,-2 -0.1,-3 0,-1.1 0.2,-2 0.9,-2.9 0.9,-1.1 0.7,-2.2 -0.5,-2.8 -1.2,-0.7 -1.4,-1.5 -1.1,-2.8 0.2,-0.7 0,-1.6 -0.2,-2.3 -0.4,-1 -0.2,-1.5 0.7,-2 0.6,-0.3 1.1,-0.8 1.5,-1.3 0.5,-0.8 0.5,-1.8 -0.2,-2.4 -0.7,-0.6 -0.7,-1.2 -0.7,-2 -0.1,-0.8 -0.4,-1.5 -0.6,-2.2 -0.1,-0.3 -0.1,-0.6 0,-0.9 0.2,-3 2.4,-3.8 5,-4.5 0.1,1.8 1.5,1.8 2.9,2.1 1.9,0.3 3.8,1 5.6,1.6 1.5,0.4 3,0.9 4.5,1.3 1.3,0.3 2.2,0.9 2.7,2.3 0.1,0.4 0.9,0.9 1.5,1 1.1,0.2 1.9,0.5 2.3,1.8 0.4,1.4 1.7,1.9 3.1,1.3 1.2,-0.5 2,-0.4 2.8,0.6 0.2,0.3 0.6,0.5 1,0.6 1.5,0.6 3,1.2 4.6,1.6 0.7,0.2 1.5,0 2.2,-0.2 1.9,-0.7 2.6,-0.6 3.8,1.1 0.8,1.2 2.1,1.7 3.5,1.8 0.9,0.1 1.8,0.2 2.7,0.5 3,1.1 6.2,0.6 9.3,0.8 1.2,0.1 2.5,0.4 3.6,0.9 1.6,0.8 2.4,2.3 2.2,4.3 -0.1,1.4 0.2,2.8 0.2,4.2 0,1.4 0,2.8 -0.5,4.1 -0.5,1.5 -0.6,2.8 0.1,4.2 0.3,0.7 0.6,1.4 0.8,2.1 0.6,1.9 0.9,3.7 0.1,5.7 -1,2.6 -1.2,5.4 -0.8,8.3 0,0.3 0,0.8 -0.2,1 -0.9,1.4 -1,2.9 -1.1,4.5 0,1.4 0,2.8 0,4.2 -0.1,2.3 -1.3,3.6 -3.5,4 -4.1,0.6 -8.2,1.1 -12.4,1.7 -1.3,0.2 -2.5,-0.1 -3.7,-0.7 -0.6,-0.3 -1.9,-0.5 -2.3,-0.1 -1.8,1.7 -3.6,1 -5.3,0.3 -1,-0.4 -1.7,-0.6 -2.8,-0.4 -0.9,0.2 -2,-0.2 -3,-0.6 -1.1,-0.4 -2,-0.7 -3.3,-0.2 -0.8,0.3 -2.1,0.1 -3,-0.3 -1.8,-0.9 -3.7,-1.2 -5.7,-1.4 -3.2,-0.3 -6.3,-1.2 -8.9,-3.2 -1.3,-1 -2.3,-1 -3.6,0 -0.4,0.1 -0.7,0.4 -1,0.6 z m 17.1,-7.2 c 2.3,0.1 5,-0.7 6.9,-3.2 1.5,-1.9 2.5,-4.1 3,-6.5 0.3,-1.8 0.6,-3.5 0.9,-5.3 0.7,-4.9 0.4,-9.6 -1.9,-14 -3.5,-6.5 -12.7,-6.5 -17,1 -1.3,2.3 -2.1,3.8 -3,6.3 -1.8,4.9 -1.9,9.9 0.2,14.7 2.3,5.5 4.9,7.2 10.9,7 z"
         id="path21"
         inkscape:connector-curvature="0"/></g><g
       id="CL_0002201"
			 style="fill:none"
       inkscape:label="CL_0002201"><path
         d="m 111.5,218 c 0.4,-1.1 1.3,-1.2 2.1,-1.3 2,-0.2 4,-0.3 5.9,-0.4 1.5,-0.1 2.1,-0.7 2.1,-1.7 0,-1.1 -0.9,-2.2 -2.2,-2.1 -1.9,0.1 -3.8,0.5 -5.7,0.8 -0.5,0.1 -1.1,0.4 -1.5,0.3 -0.5,-0.1 -1.2,-0.5 -1.4,-0.9 -0.8,-2.1 -0.1,-4.2 0.7,-6.2 0.1,-0.3 0.6,-0.4 0.9,-0.5 1.5,-0.6 3.1,-1.1 4.7,-1.6 1.3,-0.5 1.8,-1.3 1.6,-2.4 -0.3,-1.2 -1.2,-1.4 -2.3,-1.4 -2,0.1 -4,0 -5.7,1.7 0.1,-1.5 0.3,-2.9 0.4,-4.4 0,-0.4 0.1,-0.9 0.2,-1.3 0.2,-2.9 0.3,-2.9 3.1,-3.7 1,-0.3 1.9,-0.2 2.7,0.4 1.1,0.9 2.4,1.1 3.8,0.7 0.7,-0.2 1.5,0 2.3,0.1 1.3,0.1 2.6,0.4 3.9,0.4 2.8,-0.1 5.6,-0.2 8.4,-0.5 1.3,-0.1 2.7,-0.4 4,-0.7 1.9,-0.5 3.8,-0.4 5.5,0.5 1.6,0.9 3.3,1.3 5.1,1.2 0.6,0 1.2,0.1 1.8,0.3 1.2,0.4 2.4,0.7 3.7,0.1 0.4,-0.2 1.1,0 1.5,0.2 2.1,1 4.3,1.2 6.7,1 1.3,-0.1 2.6,-0.1 4,-0.1 1.6,0 3,0.5 4.2,1.7 1.2,1.3 2.7,1.5 4.4,0.7 2.2,-1 3.3,-0.5 3.6,1.9 0.2,1.6 1.1,2.6 2.7,3.1 1.5,0.5 1.6,0.8 1.1,2.2 -0.2,0.6 -0.5,1.3 -0.8,1.9 -1.2,2.9 -0.8,5.6 0.4,8.4 0.2,0.4 0.3,0.8 0.3,1.2 0.1,3.1 0.2,6.2 0.3,9.2 0,1.1 -0.2,2.1 -0.2,3.2 0,0.8 -0.1,1.7 0.3,2.3 0.5,1 0.2,1.7 -0.3,2.5 -0.4,0.8 -0.6,1.6 -1,2.4 -0.4,1 -0.8,2.1 -1.4,3 -1,1.5 -1.6,3 -1.5,4.8 0.1,3.1 -2.2,4.8 -5.6,5.2 -1.4,0.2 -2.8,-0.2 -4.2,-0.4 -1.4,-0.2 -2.8,-0.1 -4.1,0.6 -0.2,0.1 -0.6,0.3 -0.8,0.2 -1.4,-0.3 -2.7,0.4 -3.9,0.5 -1.7,0.2 -3.5,-0.1 -5.3,0.1 -0.9,0.1 -1.9,-0.8 -2.9,-1.2 -1.6,-0.5 -2.9,-0.2 -4.2,0.9 -0.6,0.5 -1.5,0.8 -2.3,1 -1,0.3 -2,0.3 -3,0.6 -1.6,0.4 -3,0.4 -4.3,-0.8 -0.6,-0.6 -1.3,-0.4 -1.9,0.1 -1.4,0.9 -2.6,0.9 -3.9,-0.2 -1,-0.8 -1.4,-0.7 -2.7,1 -0.8,-0.6 -1.6,-1.2 -2.4,-1.7 -0.5,-0.3 -1.2,-0.7 -1.8,-0.6 -2,0.2 -4,0.6 -5.9,1.1 -1.1,0.3 -2.2,0.9 -3.2,1.5 -1.4,0.9 -2.4,0.9 -3.4,-0.3 -1,-1.3 -2.2,-1.7 -3.8,-1.1 -0.9,0.3 -1.4,-0.1 -1.4,-1.1 0,-0.2 0,-0.5 0.1,-0.7 0.4,-2.4 0.4,-2.4 2.9,-2 2.4,0.4 4.6,-0.2 6.7,-1.2 0,-0.2 0,-0.3 -0.1,-0.4 -0.9,-1.8 -0.3,-2.8 1.8,-2.9 0.7,0 1.4,0 1.5,-0.9 0.1,-0.7 0.2,-1.8 -0.1,-2 -0.6,-0.3 -1.6,-0.4 -2.3,-0.2 -2.4,0.7 -4.7,1.6 -7.1,2.5 -1.2,0.4 -1.8,0.2 -2.1,-0.9 -0.4,-1.6 -0.8,-3.2 -1.1,-4.9 0.1,-0.1 0.2,-0.2 0.4,-0.2 0.6,0.5 1.3,0.9 1.9,1.4 1.6,1.1 2.4,0.9 3.1,-0.9 0.3,-0.8 0.7,-1 1.5,-1 1,0.1 1.8,-0.2 2.1,-1.4 -1,0.1 -2,0.2 -2.9,0.3 -0.5,0 -0.9,0.1 -1.4,0.1 -0.9,-0.1 -1.7,-0.4 -1.8,-1.5 -0.1,-1.1 0.7,-1.5 1.6,-1.6 1,-0.2 2,-0.3 3.3,-0.5 -1,-1.2 -2.1,-1.5 -3.4,-1.3 -3,0.3 -3,0.3 -3.1,-2.6 -0.1,-1.3 0.1,-2.4 1.2,-3.3 0.2,-0.2 0.4,-0.5 0.4,-0.7 0.2,-1.5 1.2,-1.9 2.5,-2 1.5,-0.2 3,-0.3 4.4,-0.6 0.5,-0.1 1.2,-0.3 1.5,-0.6 0.4,-0.4 0.8,-1.2 0.6,-1.7 -0.1,-0.5 -0.9,-1 -1.4,-1 -1.4,-0.1 -2.9,0.1 -4.3,0.1 -1.1,0.3 -2.4,0.2 -3.8,0.2 z m 40.4,3.7 c -0.5,-3.4 -0.6,-6.4 -1.3,-9.8 -0.9,-4 -2.5,-7.9 -6.6,-8.8 -4,-0.8 -7.1,0.6 -9.7,3.6 -5.1,5.8 -7,12.5 -7.2,19.9 -0.1,4.1 1.2,7.6 3.9,10.7 2.7,3.1 6.2,4.2 10.2,3.2 1.3,-0.3 1.9,0 2.8,-1 6.6,-11.6 8.2,-11.7 7.9,-17.8 z"
         id="path24"
         inkscape:connector-curvature="0"/><path
         d="m 418,516.9 c -0.6,0.1 -1.2,0.2 -1.8,0.2 -0.8,0.1 -1.7,0.1 -2.5,0.1 -1,0.1 -1.7,0.5 -1.8,1.6 -0.1,1.1 0.4,1.8 1.5,2 1,0.2 2,0.2 3.1,0.4 0.5,0.1 1.1,0.3 1.5,0.7 0.3,0.3 0.4,1 0.2,1.3 -0.2,0.4 -0.8,0.7 -1.2,0.7 -1.1,0 -2.1,-0.2 -3.3,-0.4 -0.9,-0.2 -1.8,-0.4 -2.6,0.4 -0.7,0.8 -0.8,1.7 -0.4,2.7 0.4,0.8 0.1,1.3 -0.7,1.7 -0.6,0.4 -1.2,0.8 -1.7,1.3 -1.3,1.4 -0.6,3.3 1.4,3.5 0.8,0.1 1.7,0 2.5,-0.3 1.8,-0.5 3.7,-1.1 5.5,-1.7 0.4,-0.1 0.7,-0.2 1.3,-0.4 -0.1,1.7 -0.2,3.3 -0.4,4.8 -0.2,1.1 -0.8,1.4 -1.7,0.9 -1.1,-0.8 -2.1,-0.8 -3.3,0.2 -0.7,-0.9 -1.4,-0.6 -2.2,-0.2 -2.2,1.2 -4.5,2.3 -6.6,3.5 -0.9,0.5 -1.8,0.5 -2.8,0.3 -2.4,-0.6 -4.9,-1.4 -7.3,-1.9 -1.7,-0.3 -3.7,-0.3 -5.5,-0.1 -1,0.1 -2,0.9 -3.1,1.3 -0.5,0.2 -1.1,0.4 -1.6,0.6 -0.8,0.2 -1.6,0.3 -2.3,0.5 -2.2,0.6 -4.5,1.2 -6.7,1.8 -0.1,0 -0.3,0 -0.5,-0.1 -1.6,-0.6 -3.3,-1.3 -4.9,-1.7 -1.3,-0.4 -2.7,-0.4 -4.1,-0.6 -1.4,-0.2 -2.7,-0.4 -4.2,-0.5 -0.5,0 -1.1,0.1 -1.4,0.4 -0.8,0.9 -1.3,0.7 -1.9,-0.2 -0.3,-0.4 -0.8,-0.8 -1.4,-1.4 -0.8,1.2 -1.5,2.3 -2.2,3.5 -1.2,-1.3 -2.5,-1.3 -4.1,-0.5 -0.9,0.4 -1.4,0 -1.1,-0.9 0.4,-1.5 -0.1,-2.4 -1.4,-3.2 -1,-0.5 -1.1,-1.5 -0.9,-2.5 0.5,-1.9 1,-3.9 1.7,-5.9 0.8,-2.4 0.7,-4.6 -0.7,-6.8 -0.8,-1.2 -0.7,-2.4 -0.3,-3.9 0.3,-1.1 -0.1,-2.3 -0.2,-3.8 1.8,-1.2 1.6,-3.2 0.7,-5.5 -0.7,-1.5 -0.6,-2.9 0.4,-4.2 0.2,-0.3 0.4,-0.7 0.4,-1.1 0,-1.2 0.1,-2.4 -0.1,-3.6 -0.3,-1.2 -0.9,-2.3 -1.4,-3.7 1.7,-0.7 1.4,-2.5 1.4,-4.2 0,-1.2 0.5,-2.5 1,-3.6 0.4,-0.9 1.1,-1.3 2.2,-1.4 0.9,-0.1 1.7,-0.5 2.5,-1 1,-0.7 2,-1.5 3.1,-2.2 1,-0.8 2.2,-1 3.5,-0.4 1.3,0.6 2.2,0.3 3.2,-0.4 1.5,-1.2 1.5,-1.1 2.8,0.2 0.5,0.5 1.4,0.9 2.1,0.9 2.3,0.2 4.7,0.3 6.9,0.2 1.1,-0.1 2.2,-0.6 3.3,-1.1 0.7,-0.4 1.1,-0.5 1.8,0 0.6,0.4 1.3,0.8 1.9,0.8 4.1,-0.2 8,-0.5 12.1,-0.8 0.8,-0.1 1.7,-0.2 2.5,-0.5 0.8,-0.3 1.5,-0.9 2.1,-1.5 0.5,-0.6 0.9,-0.7 1.4,-0.1 0.1,0.2 0.3,0.3 0.4,0.4 1.1,1.1 1.9,1 2.9,-0.2 0.1,-0.2 0.2,-0.3 0.4,-0.5 1.8,2 3.6,0.3 5.3,-0.2 1.1,-0.3 2,-1.1 3.1,-1.3 0.7,-0.2 1.8,0 2.4,0.5 0.6,0.5 0,1.8 -1.3,2.3 -1.3,0.5 -2.7,0.8 -4.2,1.1 -1,0.2 -2,0.4 -2.9,0.6 -0.8,0.2 -1.5,0.7 -1.5,1.7 0,1 0.5,1.7 1.4,2.1 2,0.8 4.1,1 6.2,0.2 0.8,-0.3 1.8,-0.5 2.7,-0.5 1.5,0 1.9,1 1,2.2 -0.2,0.3 -0.6,0.6 -0.9,0.8 -0.7,0.6 -0.7,1.2 -0.1,1.9 0.5,0.5 0.8,1.1 1.2,1.6 -0.1,0.1 -0.2,0.3 -0.2,0.4 -1.1,-0.2 -2.3,-0.3 -3.5,-0.6 -1.5,-0.4 -2.6,0.1 -3.7,1.3 -0.9,1.1 -0.5,2.1 0.1,3.2 0.2,0.4 0.4,0.8 0.5,1.2 0.5,1.9 1.4,2.4 3.3,1.7 1.2,-0.4 2.2,-0.3 3.3,0.5 0.2,0.2 0.6,0.7 0.5,0.8 -0.2,0.3 -0.6,0.5 -0.9,0.5 -1.2,0 -2.3,-0.1 -3.6,-0.2 -0.5,0 -1,0 -1.6,0 -0.8,0 -1.6,0.4 -1.5,1.2 0.1,0.6 0.6,1.4 1.2,1.7 0.6,0.3 1.5,0.2 2.2,0.2 0.6,0 1.3,-0.1 1.9,-0.1 1.4,0 1.9,0.7 1.7,2.1 -0.1,1 -0.2,2 -0.1,3 0,0.7 -0.2,1.2 -0.9,1.2 -0.8,0 -1.6,-0.2 -2.4,-0.4 -0.6,-0.2 -1,-0.6 -1.5,-0.9 -0.8,-0.4 -1.5,-0.4 -2.1,0.3 -0.6,0.7 -0.6,1.5 -0.1,2.2 1,1.3 2.4,1.8 4.1,2 1.1,0.1 2.2,0.5 3.3,0.7 0.2,0.1 0.4,0.3 0.5,0.4 -0.2,0.5 -0.2,0.6 -0.3,0.7 z m -17,1.1 c 0.1,-5.8 -2,-10.8 -4.7,-15.8 -1.2,-2.2 -3.4,-3.6 -6,-4 -5.3,-0.9 -10.2,0.3 -13.9,4.2 -4,4.1 -5.7,9.1 -5.6,14.7 0.1,6.7 2.5,12.1 8.1,16.2 2.3,1.7 4.9,2.4 7.7,1.8 1.8,-0.4 3.7,-1 5.3,-1.8 6.1,-3.2 8.9,-8.5 9.1,-15.3 z"
         id="path26"
         inkscape:connector-curvature="0"/><path
         d="m 172.9,555.9 c -0.4,3.3 -0.5,6.4 -0.4,9.5 0.1,1.2 -0.1,2.5 -0.5,3.7 -0.5,1.4 -0.6,2.7 -0.1,4.1 0.3,0.7 0.5,1.5 0.7,2.3 0.6,2.1 0.9,4.1 0,6.2 -0.2,0.6 -0.3,1.2 -0.5,1.9 -0.5,2.4 -0.5,2.3 -3.1,2.4 -1.5,0 -3,-0.1 -4.3,-1.1 -0.4,-0.3 -1.3,-0.4 -1.7,-0.2 -2,1.2 -4.1,1.1 -6.2,1.2 -2,0.1 -4,0 -6,0 -0.3,0 -0.7,0 -0.9,-0.1 -1.9,-1.3 -3.9,-0.6 -5.9,-0.2 -1.2,0.2 -2.5,0.3 -3.7,0.4 -1.4,0.1 -2.8,0 -4.3,0 -0.3,0 -0.7,0.1 -1,-0.1 -1.6,-1 -3.2,-0.4 -4.8,-0.1 -2,0.3 -4.1,0.5 -6.1,-0.3 -0.4,-0.2 -1,-0.1 -1.4,0 -2.2,0.7 -4.4,0.8 -6.6,0 -0.3,-0.1 -0.8,0 -1.1,0.1 -0.5,0.1 -1,0.4 -1.5,0.4 -3.2,0 -6.4,0.1 -9.6,0 -0.7,0 -1.4,-0.2 -2.1,-0.3 0,-0.1 0,-0.2 -0.1,-0.4 0.4,-0.2 0.7,-0.5 1.1,-0.5 1.2,-0.1 2,-0.5 1.7,-1.8 0.9,-0.2 1.7,-0.3 2.4,-0.6 0.5,-0.2 1.2,-0.9 1.1,-1.3 -0.1,-0.6 -0.7,-1.2 -1.3,-1.5 -0.5,-0.3 -1.2,-0.1 -1.8,-0.1 -0.7,0 -1.4,0.1 -2.3,0.1 0.4,-2 0.7,-3.8 1.2,-5.9 2.4,0 4.8,0.1 7.1,0 1.4,-0.1 1.9,-0.9 1.5,-2.1 -0.2,-0.8 -0.7,-1.1 -1.6,-1 -2.1,0.2 -4.3,0.4 -6.4,0.5 -0.5,0 -1.1,0.2 -1.4,0 -0.6,-0.3 -1.2,-0.7 -1.4,-1.3 -0.1,-0.3 0.4,-1.1 0.8,-1.4 0.5,-0.3 1.1,-0.5 1.7,-0.5 3,0 6,0 8.9,0 0.5,-1.7 0.1,-2.5 -1.5,-2.5 -1.9,-0.1 -3.7,0 -5.6,0 -1.2,0 -2.4,-0.2 -3.7,-0.3 0,-0.2 0,-0.3 0,-0.5 0.9,-0.1 1.8,-0.3 2.6,-0.4 2,-0.3 4.1,-0.6 6.1,-1.1 0.5,-0.1 1.1,-0.7 1.2,-1.1 0,-0.4 -0.5,-1 -1,-1.3 -1.5,-1 -3.2,-1.2 -5,-0.7 -0.6,0.2 -1.2,0.3 -2.1,0.6 0.2,-1 0.2,-1.8 0.6,-2.4 0.7,-1.3 0.4,-2.6 -1,-3 -1.4,-0.4 -1.9,-1 -1.5,-2.5 0.1,-0.5 -0.2,-1.1 -0.4,-1.6 -0.5,-1.3 -0.3,-1.9 1.2,-2 1.7,-0.1 3.5,-0.1 5.2,-0.2 0.6,0 1.2,-0.2 1.7,-0.5 0.3,-0.2 0.6,-0.7 0.6,-1.1 0,-0.3 -0.6,-0.6 -0.9,-0.7 -1.3,-0.3 -2.6,-0.6 -3.9,-0.9 -1.8,-0.4 -1.9,-0.5 -2.1,-2.4 2.6,-1.2 5.7,0 8.4,-1.4 -1,-1 -2.1,-1.4 -3.4,-1.4 -1.4,0 -2.8,-0.1 -4.2,-0.4 -1.2,-0.2 -1.7,-0.9 -1.4,-1.8 0.2,-0.9 0.9,-1.3 2.1,-1 1.5,0.4 2.9,0.4 4.4,-0.1 0.5,-0.2 1.2,0 1.7,0.3 3.4,2.2 7,3.4 11.1,3.5 1.5,0 3,0.8 4.5,1.2 1.3,0.4 2.5,0.6 3.9,0.5 1.2,-0.1 2.6,0.5 3.8,1 0.8,0.3 1.5,0.5 2.2,0 0.3,-0.2 0.8,-0.2 1.2,-0.1 1.2,0.3 2.3,0.7 3.5,1 1.1,0.3 2,0.2 2.9,-0.5 0.8,-0.7 1.5,-0.6 2.4,-0.2 1,0.4 2.2,0.6 3.4,0.6 1.6,0 3.2,-0.1 4.7,-0.4 3.2,-0.5 6.5,-1 9.7,-1.7 2.7,-0.5 4,-0.1 5.3,2.3 0.6,1.1 1.2,2.2 1.6,3.3 0.2,0.7 0.3,1.6 0.1,2.2 -0.8,2.4 -0.5,4.3 1.5,5.7 z m -31.7,7.3 c 0,-3.6 -1.1,-6.9 -3.3,-9.9 -1.5,-2.2 -3.6,-3.5 -6.3,-3.9 -1.4,-0.2 -2.9,-0.3 -4.4,-0.2 -3.2,0.2 -6.6,4.6 -7.2,7.4 -0.4,5.1 -0.2,7.9 0.7,12.3 0.5,2.4 0.5,4.2 2.6,5.6 3.8,2.6 9.4,2.4 12.9,-0.5 3.5,-2.7 4.9,-6.5 5,-10.8 z"
         id="path28"
         inkscape:connector-curvature="0"/><path
         d="m 412.9,369.9 c -0.4,1.8 -0.7,2.1 -2.3,1.8 -3,-0.5 -6,-1.1 -9,-1.3 -2.1,-0.2 -4.3,0.3 -6.4,0.4 -1.3,0.1 -2.5,0 -3.8,0.1 -0.8,0.1 -1.6,0.3 -2.4,0.6 -1.2,0.5 -2.2,0.3 -3.4,0.1 -2.2,-0.4 -3.8,-1.2 -5.4,-2.9 -1.1,-1.1 -4.1,-0.7 -5.4,0.3 -0.8,0.7 -1.6,0.9 -2.6,0.4 -0.5,-0.2 -1.2,-0.1 -1.7,0.1 -1.8,0.7 -3.6,1 -5.5,0.8 -2.6,-0.3 -5,-0.2 -7.2,1.4 -0.2,0.2 -0.7,0.1 -1,0 -1,-0.6 -1.8,-0.3 -2.6,0.3 -1,0.7 -2.2,1.3 -3.3,1.9 -0.9,0.4 -1.4,0.1 -1.5,-0.8 -0.3,-2 -0.5,-4 -0.8,-6.1 -0.4,-2.4 -0.1,-4.6 0.9,-6.8 0.6,-1.5 0.4,-2.7 -0.7,-3.8 -0.7,-0.7 -0.7,-1.3 -0.3,-2.2 0.2,-0.4 0.5,-0.9 0.4,-1.3 -0.4,-2.8 -0.4,-5.6 -1.7,-8.4 0.4,-0.3 0.8,-0.8 1.2,-1 1.3,-0.8 1.8,-2.1 1.4,-3.4 -1.4,-4.4 -1,-9 -0.7,-13.4 0.1,-1.5 0.9,-3 1.7,-4.4 0.6,-1.1 2.4,-1.3 3.7,-0.4 1.4,1.1 2.6,1 3.8,-0.2 0.5,-0.5 1.1,-0.5 1.9,-0.2 0.7,0.3 1.5,0.5 2.2,0.4 2.4,-0.4 4.7,-0.9 7.1,-1.3 0.4,-0.1 1,0 1.4,0.2 2.9,2.1 6.1,2.5 9.5,2.4 0.1,0 0.2,0 0.2,0 2.2,-1 4.6,-0.9 6.8,-1.3 1.2,-0.2 2.4,-0.9 3.5,-1.5 2.9,-1.4 5.8,-3 9.1,-3.1 0.7,0 1.4,0.2 2.2,0.3 -0.3,0.9 -0.4,1.6 -0.7,2.2 -0.7,1.8 0.6,3.5 2.5,3.2 2.5,-0.4 4.9,0.3 7.3,1 1,0.3 1.5,1.5 1,2.4 -0.1,0.3 -0.7,0.5 -1,0.4 -1.7,-0.4 -3.4,-0.8 -5.1,-1.2 -0.8,-0.2 -1.5,-0.8 -2.3,-0.9 -0.6,-0.1 -1.3,0.3 -1.9,0.5 0.2,0.7 0.3,1.5 0.7,2 0.4,0.5 1.2,0.7 1.8,0.9 2.6,0.7 5.3,1.3 8.1,2 -0.1,0.5 -0.3,1.3 -0.5,2.2 -1,-0.3 -1.8,-0.7 -2.7,-0.9 -0.6,-0.1 -1.6,-0.1 -1.8,0.3 -0.3,0.5 -0.2,1.5 0.1,1.9 0.8,0.8 1.8,1.5 2.8,1.9 1.1,0.4 1.8,1 1.7,2.2 0,0.2 0,0.4 0,0.5 1.1,1.5 0,2.5 -0.9,3.6 -0.2,0.2 -0.5,0.6 -0.7,0.6 -2.1,0.1 -4.1,1.7 -6.4,0.6 -1.1,-0.5 -2,0.1 -2.2,1.2 -0.2,1.2 0.5,2.3 1.7,2.2 2.1,-0.2 4.1,-0.7 6.1,-1 0.7,-0.1 1.4,-0.4 2.1,-0.6 0.8,-0.2 1.2,0.1 1.1,0.9 -0.3,2.3 -0.6,4.7 -0.9,7 -0.1,0.7 -0.5,0.8 -1.1,0.6 -1,-0.4 -2,-0.9 -3.1,-1.3 -0.6,-0.2 -1.2,-0.6 -1.8,-0.5 -0.5,0 -1.1,0.5 -1.6,0.8 0.3,0.5 0.5,1.4 1,1.6 1.7,0.7 3.5,1.3 5.3,1.8 0.7,0.2 1.2,0.4 1.3,1.2 0.1,0.5 0.3,1.1 0.5,1.6 0.2,0.7 0.1,1.1 -0.5,1.6 -1.1,0.7 -1,1.1 -0.1,2.1 0.4,0.5 1,1 1.1,1.6 0.2,0.7 0.2,1.8 -0.2,2.1 -0.5,0.4 -1.7,0.4 -2.2,0.1 -2.3,-1.4 -4.9,-1 -7.4,-1.2 -0.3,0 -0.6,0 -0.8,0.1 -0.4,0.2 -0.9,0.6 -0.9,0.9 0,0.4 0.4,1.1 0.7,1.1 1.5,0.3 3.1,0.5 4.7,0.6 1,0 1.7,0 1.9,1.2 0.1,0.4 0.7,0.8 1.2,0.9 1.1,0.2 2,0.2 2.8,0.3 z m -14,-25.7 c -0.4,-2.5 -0.6,-5 -1.1,-7.4 -0.7,-3.4 -2.6,-6 -6,-7.1 -1.9,-0.6 -3.9,-0.9 -5.9,-0.8 -2.9,0.2 -5.7,1.1 -7.5,3.6 -3.6,5 -5.7,10.5 -5,16.7 0.5,4.5 2.5,8.2 6.5,10.7 6.9,4.2 14.9,1.8 17.4,-6.5 0.9,-3 1.5,-6 1.6,-9.2 z"
         id="path30"
         inkscape:connector-curvature="0"/><path
         d="m 107.2,382 c 1.9,-0.4 3.6,-0.7 5.3,-1.1 0.5,-0.1 1,-0.2 1.5,-0.3 0.8,-0.2 1.7,-0.4 1.6,-1.6 -0.1,-1 -1,-1.9 -2.1,-1.7 -1.3,0.1 -2.5,0.5 -3.8,0.7 -0.9,0.2 -1.6,0.1 -2.2,-0.8 -0.8,-1.3 -0.8,-1.7 0.3,-2.8 0.2,-0.2 0.4,-0.3 0.5,-0.5 1,-1 1,-1.4 -0.1,-2.5 -0.2,-0.2 -0.5,-0.4 -0.7,-0.6 1.1,-1.9 2.4,-2.5 4.1,-1.4 1.9,1.1 3.9,1.5 6,1.9 1.4,0.2 2.7,0.9 3.9,1.7 1.4,0.9 2.6,1.1 4.2,0.5 0.8,-0.3 1.8,-0.3 2.7,-0.2 1.3,0.1 2.7,0.5 4,0.6 1.6,0.2 3.1,-0.2 4.5,-0.9 1.2,-0.6 2.5,-1 3.8,-1.3 0.5,-0.1 1.1,0.2 1.7,0.3 0.9,0.1 1.9,0.4 2.8,0.4 2.5,-0.2 4.9,-0.6 7.4,-0.9 1.5,-0.2 3,-0.5 4.5,-0.5 0.7,0 1.5,0.2 2.1,0.5 1.9,0.8 3.7,1.6 5.5,2.5 0.7,0.3 1.5,0.7 2,1.2 2.6,2.8 3.5,6.1 2.4,9.9 -0.5,1.7 -0.9,3.5 -0.4,5.3 0.1,0.4 -0.1,0.9 -0.2,1.4 -0.5,2.1 -0.4,4.1 0.9,5.6 -1.3,4 -2.8,7.7 -2,11.9 0.2,1.3 -0.1,2.5 -0.6,3.8 -0.3,0.8 -0.1,2.2 0.3,3 1.1,2 0.5,3.6 -0.8,5.1 -1.3,1.5 -2.9,1.9 -4.9,1.5 -0.9,-0.2 -2,-0.1 -2.9,0.1 -1,0.3 -2,0.3 -2.9,-0.2 -1.4,-0.8 -2.9,-1.1 -4.5,-0.3 -0.3,0.2 -0.8,-0.1 -1.2,-0.1 -0.7,0 -1.5,-0.1 -2.2,0 -0.8,0.1 -1.5,0.5 -2.3,0.4 -2.9,-0.2 -5.7,-0.5 -8.6,-0.7 -1.1,-0.1 -2.3,0.1 -3.3,0.5 -1.1,0.4 -2,0.6 -2.9,-0.3 -0.9,-0.8 -1.9,-0.8 -2.9,-0.5 -2.4,0.7 -4.9,0.6 -7.2,-0.2 -2.3,-0.8 -4.4,-0.7 -6.2,1 -0.9,0.9 -1.8,0.7 -2.5,-0.3 -0.7,-1 -1.7,-1.4 -2.9,-1.4 -1.7,0 -2.3,-0.8 -2.2,-3.1 0,-1.5 0.5,-1.9 2.2,-2 1.8,-0.1 3.5,-0.1 5.3,-0.2 0.4,0 0.9,0 1.2,-0.2 0.5,-0.5 1.1,-1.1 1.2,-1.7 0,-0.3 -0.9,-1 -1.5,-1.1 -0.9,-0.2 -1.9,0 -2.9,0 -0.4,0 -1,-0.4 -1,-0.6 0,-1.3 -0.7,-1.9 -1.9,-2.2 -0.2,0 -0.3,-0.3 -0.6,-0.6 0.7,-0.2 1.1,-0.5 1.6,-0.5 1.2,0 2.5,0.1 3.7,0.2 1,0.1 2.1,-0.1 2.3,-1 0.2,-1.1 -0.8,-1.8 -1.7,-2 -1.2,-0.2 -2.5,-0.3 -3.8,-0.3 -2,0 -3.3,-1.8 -2.4,-3.6 0.7,-1.3 0.6,-2.3 -0.3,-3.6 0.6,-0.1 1,-0.1 1.4,-0.2 1.3,-0.2 2.5,-0.3 3.8,-0.5 0.8,-0.1 1.5,-0.5 1.5,-1.4 0.1,-1 -0.5,-1.6 -1.4,-1.9 -0.9,-0.3 -2,-0.4 -2.9,-0.5 -0.9,-0.1 -1.8,-0.2 -2.7,-0.3 0,-0.1 0,-0.3 0,-0.4 0.4,-0.1 0.7,-0.3 1.1,-0.3 1.6,-0.2 3.3,-0.3 4.9,-0.5 0.3,0 0.6,0 0.8,-0.1 0.8,-0.2 1.6,-0.6 1.6,-1.6 0,-1 -0.8,-1.5 -1.5,-1.5 -1.4,0 -2.8,0.1 -4.1,0.3 -0.7,0.1 -1.4,0.4 -2.2,0.6 0,-0.1 -0.1,-0.2 -0.1,-0.3 0.4,-0.2 0.7,-0.4 1.1,-0.6 1.1,-0.6 1.2,-1.4 0.4,-2.3 -0.3,-0.4 -0.7,-0.6 -1,-1 -0.2,-0.2 -0.4,-0.5 -0.4,-0.7 0.1,-1.7 0.1,-1.7 -1.2,-3 z m 36.4,14.9 c -0.2,-1.8 -0.2,-3.3 -0.5,-4.7 -0.2,-1.1 -0.5,-2.2 -0.9,-3.2 -1.8,-4.8 -8.5,-7.9 -13.5,-4.7 -3.9,2.5 -6.6,5.7 -7.5,10.3 -0.3,1.6 -0.6,3.2 -0.8,4.8 -0.9,6.4 3.5,13.3 9.6,15.2 2.6,0.8 5.1,0.5 7.2,-1.3 2.9,-2.6 4.9,-5.7 5.6,-9.5 0.4,-2.4 0.6,-4.8 0.8,-6.9 z"
         id="path32"
         inkscape:connector-curvature="0"/></g></g>
	<g
     id="Outline"><g
       id="Outline_1_"><g
         id="Outline_2_"><path
           d="m 260.5,591.3 c -59.4,0.2 -118.7,0.5 -178.1,0.7 -2.3,0 -2.7,-0.4 -2.6,-2.7 0.1,-15.1 0.4,-30.1 0.5,-45.2 0.5,-31.5 1,-62.9 1.4,-94.4 0.2,-17.3 0.7,-34.5 1,-51.8 0.4,-22.4 0.9,-44.8 1.4,-67.2 0.4,-17.8 0.8,-35.7 1.2,-53.5 0.3,-11.8 0.6,-23.6 0.9,-35.4 0.4,-15.1 0.9,-30.3 1.4,-45.4 0.1,-2.6 0.3,-5.1 0.3,-7.7 0,-1 0.5,-1.4 1.3,-1.5 0.4,-0.1 0.8,-0.1 1.2,-0.1 70.7,-0.5 141.4,-0.9 212,-1.4 40.8,-0.3 81.7,-0.6 122.5,-0.9 1.1,0 2.2,0.2 3.3,0.4 0.3,0.1 0.7,0.6 0.7,1 0.3,7.5 0.6,14.9 0.8,22.4 0.3,8.5 0.7,17 1,25.5 0.3,10.6 0.7,21.1 1,31.7 0.8,26.1 1.5,52.1 2.2,78.2 0.7,24 1.3,48.1 2,72.1 0.7,27.7 1.5,55.3 2.2,83 0.6,20 1.2,40.1 1.6,60.1 0.1,6 0.3,11.9 0.5,17.9 0.1,3.9 0.4,7.9 0.5,11.8 0.1,2.1 -0.1,2.2 -2.1,2.2 -56.2,0.1 -112.5,0.3 -168.7,0.4 -3.2,0 -6.5,0 -9.7,0 0.3,0 0.3,-0.1 0.3,-0.2 z M 180.4,192.1 c -0.1,0.3 -0.1,0.5 -0.1,0.6 0.5,1.7 0.3,3.1 -1,4.4 -0.1,0.1 -0.1,0.5 -0.1,0.7 0.2,0.8 0.4,1.7 0.8,2.5 0.3,0.6 0.8,1.3 1.4,1.6 2.5,1.2 2.9,2.4 1.8,4.9 -0.5,1.1 -0.9,2.4 -0.8,3.5 0,1.7 0.5,3.5 0.8,5.2 0.1,0.5 0.3,1.1 0.3,1.6 0.1,1.7 0.2,3.3 0.1,5 0,2.5 -0.1,5.1 -0.1,7.6 0,0.6 0.1,1.2 0.4,1.7 0.7,1.5 0.7,1.9 -0.4,3.2 -0.3,0.4 -0.6,0.9 -0.8,1.4 -0.4,1.1 -0.7,2.2 -1.1,3.2 -0.5,1.4 -1.4,2.7 -1.6,4.1 -0.3,1.9 -0.3,3.8 -1.8,5.5 0.6,-0.1 1,-0.1 1.3,-0.1 0.4,0 0.8,-0.1 1.2,0 1.4,0.2 1.7,0.7 1.4,2 -0.3,1.4 -1.3,2 -2.5,2.2 -0.9,0.2 -1.9,0.4 -3.1,0.6 0.9,0.4 1.4,0.7 2,1 1,0.6 1.2,1.1 0.5,2 -0.3,0.5 -0.8,1 -0.2,1.4 0.4,0.3 1.1,0.5 1.6,0.6 0.6,0 1.3,-0.2 1.9,-0.2 1.2,0 1.9,0.8 1.9,2 0,1.3 -0.6,1.8 -1.9,1.9 -1.4,0.1 -2.8,0.2 -4.3,0.2 0,0.4 -0.1,0.6 0,0.8 0.3,1.4 -0.3,2.2 -1.6,2.7 -0.7,0.3 -1.2,0.7 -1.9,1.1 -1.1,0.6 -1.1,1.4 -0.4,2.6 1,-1 2,-1.9 2.9,-2.9 0.8,-0.9 1.8,-1.5 3,-1.4 1.6,0.1 3.3,0.1 4.9,0.3 0.5,0.1 1.3,0.7 1.4,1.2 0.1,0.6 -0.3,1.5 -0.8,1.8 -1,0.5 -2.3,0.7 -3.4,1.1 -0.3,0.1 -0.6,0.1 -0.9,0.2 0,0.1 0,0.2 0,0.3 1.2,0.2 2.4,0.5 3.6,0.8 1.2,0.3 1.7,1.2 1.5,2.5 -0.2,1.1 -0.8,1.6 -2,1.6 -0.7,0 -1.4,-0.1 -2,-0.2 -1,-0.1 -2,-0.1 -3.2,-0.2 0.2,0.7 0.3,1.2 0.4,1.7 0.3,1.3 0,1.8 -1.3,2.1 -2.4,0.5 -1.9,0.3 -2.5,3.1 0.5,0 0.9,0 1.3,-0.1 1.8,-0.4 3.4,0 5,0.8 1.2,0.6 1.3,1.4 0.2,2.3 -1.4,1.1 -3,1.7 -4.9,1.8 -0.7,0 -1.3,0.1 -2.2,0.2 1,1.2 2,1.5 3.2,1.2 1.2,-0.2 2.4,-0.3 3.6,-0.3 1.4,0 2,1 1.6,2.3 -0.5,1.8 -1.3,2.3 -3.1,2.4 -1,0 -2,0.1 -3,0.2 0.4,0.5 0.9,0.7 1.2,1 0.3,0.4 0.6,1 0.6,1.4 -0.1,1.3 -0.6,2.6 -0.6,4 -0.1,1.3 -0.7,2 -1.8,2.3 -0.4,0.1 -0.8,0.3 -1.2,0.4 0,0.1 0.1,0.2 0.1,0.4 0.4,-0.1 0.9,-0.2 1.3,-0.3 1.3,-0.4 2.5,-0.8 3.8,-1 0.5,-0.1 1.5,0.3 1.7,0.7 0.2,0.6 0.2,1.6 -0.2,2 -0.5,0.7 -1.5,1 -2.2,1.5 -0.6,0.3 -1.2,0.6 -1.8,0.9 1,0.4 1.8,0.5 2.7,0.7 1,0.2 2.1,1.6 2,2.4 -0.3,1.3 -1.4,1.2 -2.3,1.1 -1.5,-0.1 -3,-0.3 -4.8,-0.4 1.3,2.3 0,3.5 -1.6,4.6 0.2,0.4 0.3,0.6 0.4,0.9 1.2,1.8 1.7,3.8 1.4,6 -0.1,0.7 0.1,1.5 0.3,2.2 0.5,1.4 0.5,2.8 0,4.2 -0.8,2.6 -1,5.3 -0.6,8.1 0.3,2.5 0.6,5.1 0.8,7.6 0.1,1.4 0.4,2.6 1.3,3.7 1.1,1.3 0.7,2.5 -0.9,3.4 -0.5,0.2 -1,0.7 -1.1,1.1 -0.8,2.1 -1.5,4.3 0.3,6.3 0.2,0.2 0.2,0.4 0.3,0.6 0.7,1.8 0.3,2.5 -1.7,2.6 -0.2,0 -0.4,0 -0.7,0.1 0.2,2.3 -1,4.1 -2.5,5.6 -1.3,1.4 -2.7,2.7 -4.1,4.1 -0.6,0.6 -1.3,1.1 -2,1.6 0.6,0.6 0.9,1 1.2,1.3 2.6,2.8 3.8,6.2 3.1,9.8 -0.6,3 -0.7,5.9 -1.1,8.9 -0.2,1.5 0,2.9 1.3,4 0.7,0.6 0.6,1.2 -0.1,1.7 -0.8,0.6 -1.2,1.3 -1,2.3 0,0.2 -0.1,0.4 -0.1,0.6 -0.4,2.1 -0.9,4.1 -1.2,6.2 -0.1,0.7 0.2,1.4 0.5,2.1 0.5,1.1 0.4,2 -0.5,2.8 -0.9,0.7 -0.9,1.6 -0.4,2.6 1.8,3.8 1.6,4.7 -1.3,7.6 -0.1,0.1 -0.1,0.1 -0.2,0.2 -0.1,0.3 -0.5,0.7 -0.4,0.8 0.2,0.3 0.6,0.5 0.9,0.7 0.3,0.1 0.6,0 0.9,-0.1 2.1,-0.3 4.2,-0.7 6.3,-0.9 1.5,-0.2 2.7,0.6 2.9,1.9 0.1,0.9 -0.9,2 -2.2,2.4 -0.3,0.1 -0.5,0.1 -0.8,0.2 -1.9,0.3 -3.9,0.5 -5.8,0.8 -0.7,0.1 -1.4,0.3 -1.2,1.3 0.2,1 0.4,1.9 0.7,3.1 1.1,-0.1 2.2,-0.3 3.3,-0.4 1.6,-0.2 2.8,0.8 2.9,2.3 0,1.5 -0.8,2.3 -2.6,2.3 -0.8,0 -1.6,-0.3 -2.4,-0.2 -0.4,0 -1.1,0.3 -1.1,0.6 -0.2,1.8 -0.3,3.7 -0.2,5.6 0,0.9 0.8,1.1 1.6,0.9 0.8,-0.2 1.6,-0.4 2.3,-0.5 1.4,-0.1 2.1,0.4 2.4,1.6 0.3,1.5 -0.2,2.5 -1.6,2.9 -1,0.3 -1.4,0.9 -1.4,1.9 0.1,0.9 0.2,1.8 0.2,2.7 -0.1,1.4 -1.1,1.9 -2.2,1 -0.5,-0.4 -0.8,-0.8 -1.2,-1.3 -0.4,-0.5 -0.8,-1 -1.3,-1.5 -0.7,1.1 -0.5,2 -0.1,2.9 0.5,1.4 1,2.8 1.5,4.1 0.2,0.4 0.4,0.9 0.6,1.3 0.4,-0.3 0.8,-0.7 1.2,-1 0.2,-0.2 0.2,-0.4 0.4,-0.6 0.6,-1 1.4,-1.5 2.6,-1.3 0.8,0.1 1.6,0.2 2.4,0.4 0.9,0.2 1.6,0.8 1.6,1.8 0.1,1.1 -0.4,1.8 -1.4,2.1 -1.8,0.7 -1.6,0.9 -1,2.3 0.5,1.4 0.1,2.1 -1.4,2.2 -0.5,0 -1.1,-0.1 -1.4,-0.1 -0.9,1 -1.7,2 -2.5,2.9 -0.9,1 -0.8,1.6 0.5,2.1 1.2,0.4 2.5,0.8 3.8,1.2 0.5,0.2 1,0.5 1.4,0.9 0.6,0.7 0.6,1.5 -0.4,1.9 -0.6,0.3 -1.2,0.6 -1.9,0.9 0.1,0.2 0.2,0.3 0.3,0.5 1,1.7 0.4,3 -1.7,3.1 -0.6,0 -1.2,0 -1.8,0 -0.6,0 -1.2,0.1 -1.8,0.1 0,0.1 -0.1,0.2 -0.1,0.4 0.5,0.4 1.1,0.8 1.7,1.1 1.1,0.4 2.3,0.7 3.4,1 0.5,0.1 1.1,0.2 1.4,0.6 0.4,0.3 0.9,0.9 0.8,1.3 -0.1,0.5 -0.7,1 -1.2,1.4 -0.3,0.2 -0.8,0.2 -1.3,0.3 -1,0.1 -2,0.2 -3.1,0.4 1.1,1.2 1,2.3 0.1,3.5 -1.1,1.4 -0.8,2.4 0.9,3.1 1.1,0.5 2.2,0.9 3.3,1.4 0.8,0.4 1.3,1.1 1,1.9 -0.2,0.4 -1.1,0.8 -1.6,0.7 -1.4,-0.1 -2.8,-0.5 -4.2,-0.8 -0.4,-0.1 -0.8,-0.2 -1.4,-0.4 0.3,0.5 0.4,0.7 0.5,0.9 1.3,1.6 1.7,3.3 1.2,5.3 -0.2,0.6 0,1.3 0.1,1.9 0.6,2 0.5,4 -0.2,6 -0.3,0.9 -0.2,1.9 0,2.9 0.2,0.9 0.7,1.8 1,2.7 0.6,1.9 0.8,3.8 0.1,5.7 -1,2.7 -1.4,5.6 -0.7,8.5 0.1,0.5 -0.2,1 -0.4,1.6 -0.3,1 -0.9,1.9 -1,2.8 -0.3,2.6 -0.4,5.2 -0.5,7.8 0,0.3 0.4,0.7 0.7,1 0.8,0.7 1.7,1.4 2.4,2.2 0.5,0.6 0.6,1.4 1.1,2 1.8,1.8 1.7,3.9 1,6.1 -0.6,1.9 -0.4,2.4 1.3,3.5 0.8,0.6 0.7,1.1 0.6,2 -0.4,2.3 -1,4.7 -0.7,7.1 0.2,2 0.4,3.8 -0.4,5.6 -0.6,1.3 -0.5,2.6 0.1,3.9 1.3,3 1.4,6.1 0.2,9.2 -0.4,1.1 -0.6,2.2 -0.9,3.5 0.6,0 1,0 1.5,0 54.4,-0.3 108.8,-0.5 163.2,-0.8 3.1,0 6.2,-0.3 9.2,-1.2 0.3,-0.1 0.7,-0.3 0.8,-0.6 0.3,-1.1 0.4,-2.1 0.7,-3.5 -0.8,0.3 -1.4,0.5 -1.9,0.7 -1.1,0.5 -2.2,1.1 -3.4,1.6 -0.8,0.3 -1.7,0.3 -2.1,-0.5 -0.5,-0.8 -0.3,-1.6 0.4,-2.3 0.4,-0.4 0.8,-0.7 1.2,-1 0.9,-0.6 1.8,-1.1 2.6,-1.7 0.3,-0.2 0.7,-0.8 0.6,-1.1 -0.1,-0.3 -0.7,-0.6 -1.1,-0.7 -0.7,-0.1 -1.4,0 -2,-0.1 -0.9,-0.1 -1.8,-0.3 -2,-1.3 -0.1,-0.7 -0.1,-1.6 0.3,-2.1 0.5,-0.8 1.5,-0.7 2.4,-0.4 1,0.3 2,0.7 3.1,1 0.5,0.1 1.3,-0.1 1.4,-0.4 0.6,-1.4 1,-2.9 1.6,-4.5 -0.8,0.2 -1.4,0.3 -1.9,0.5 -0.6,0.2 -1.1,0.4 -1.7,0.5 -1,0.2 -1.8,0 -2.3,-1 -0.4,-1 0,-1.8 0.8,-2.4 0.6,-0.5 1.4,-1 2,-1.6 0.7,-0.7 1.4,-1.5 2,-2.4 0.2,-0.3 0.2,-1 0,-1.2 -0.2,-0.2 -0.8,-0.3 -1.2,-0.1 -0.9,0.3 -1.7,0.8 -2.6,1.3 -1.5,0.7 -3.1,0.3 -3.7,-1 -0.6,-1.3 0.1,-2.7 1.8,-3.2 1.5,-0.5 3,-0.6 4.5,-1 0.6,-0.1 1.1,-0.4 1.7,-0.7 0,-0.1 -0.1,-0.2 -0.1,-0.4 -0.4,-0.1 -0.7,-0.3 -1.1,-0.3 -1,-0.1 -2,-0.2 -3,-0.3 -0.9,-0.1 -1.8,0 -2.6,-0.2 -0.9,-0.2 -1.8,-0.5 -1.8,-1.7 0,-1.2 0.6,-1.9 1.7,-2.2 0.7,-0.2 1.4,-0.1 2.1,-0.1 1.3,0 2.6,0.1 3.8,-0.1 0.8,-0.1 1.6,-0.4 1.5,-1.5 -0.1,-1.1 -0.9,-1.3 -1.8,-1.3 -1.3,0 -2.6,0.1 -3.8,0.1 -0.9,0 -1.8,-0.2 -2.2,-1.2 -0.5,-1.2 -0.2,-2.2 0.5,-3.2 0.6,-0.8 1.5,-0.6 2.3,-0.4 0.8,0.2 1.6,0.5 2.5,0.5 0.7,0 1.6,0 1.9,-0.5 0.7,-0.7 0.4,-3.2 -0.2,-3.6 -2,-1.2 -2.1,-3 -1.7,-4.9 0.4,-1.7 1,-3.4 1.6,-5 0.7,-2.2 0.8,-4.2 -0.7,-6.1 -0.9,-1.1 -1,-2.4 -0.6,-3.8 0.4,-1.2 0.4,-2.3 -0.2,-3.3 -0.4,-0.8 -0.3,-1.4 0.4,-2 1.1,-0.9 1.2,-2 0.8,-3.2 -0.1,-0.3 -0.2,-0.7 -0.4,-1 -0.8,-1.6 -0.7,-3.1 0.3,-4.7 0.4,-0.6 0.3,-1.6 0.4,-2.4 0,-0.3 -0.2,-0.6 -0.1,-0.8 0.5,-1.5 -0.2,-2.4 -1.1,-3.4 -0.9,-1.1 -0.9,-1.6 0.2,-2.4 0.9,-0.7 1.1,-1.5 1,-2.6 -0.2,-1.8 0.2,-3.6 1.3,-5.1 0.5,-0.7 0.5,-1.3 0.1,-2 -1.5,-2.9 -1.8,-5.8 -0.1,-8.8 0.6,-1 0.3,-2.1 -0.4,-2.9 -1.5,-1.4 -1.4,-3.1 -1.4,-4.9 0,-4 0.5,-8.1 -0.9,-12.1 -0.2,-0.6 0,-1.6 0.5,-2 0.8,-0.7 0.9,-1.4 0.9,-2.2 -0.1,-0.9 0,-1.9 -0.2,-2.7 -0.1,-0.7 -0.6,-1.3 -0.9,-2 -0.2,-0.5 -0.6,-1 -0.6,-1.6 -0.1,-1 -0.2,-2 -0.1,-2.9 0,-0.3 0.4,-0.9 0.7,-0.9 1.3,0 1.3,-0.8 1.1,-1.7 -0.1,-0.4 -0.2,-0.9 -0.3,-1.3 -0.8,-2.1 -0.2,-4 1.2,-5.7 0.3,-0.3 0.6,-0.6 1,-1.1 -0.4,0 -0.6,0 -0.7,0 -1.1,0.2 -2.3,0.5 -3.4,0.6 -1.4,0.1 -1.8,-0.6 -1.4,-2 0.1,-0.4 0.1,-0.9 -0.1,-1.3 -0.8,-1.6 -0.5,-2.3 1.2,-2.8 1,-0.3 1.9,-0.6 3.1,-0.9 -0.5,-0.4 -0.9,-0.7 -1.2,-1 -0.9,-0.9 -0.8,-1.5 0.4,-1.9 0.4,-0.1 0.7,-0.3 1.1,-0.4 0,-0.1 -0.1,-0.2 -0.1,-0.3 -0.7,0.1 -1.4,0.2 -2.1,0.2 -0.9,0 -1.9,-0.1 -2.1,-1.1 -0.3,-1.1 0.5,-1.7 1.3,-2.2 0.3,-0.2 0.7,-0.3 1.1,-0.3 0.7,-0.1 1.5,-0.1 2.2,-0.4 0.5,-0.2 0.8,-0.8 1.2,-1.2 -0.5,-0.2 -0.9,-0.4 -1.4,-0.6 -0.5,-0.2 -1.5,-0.3 -1.5,-0.5 -0.2,-1.3 -1.1,-1.2 -2,-1.5 -0.6,-0.2 -1.3,-0.4 -1.7,-0.8 -0.4,-0.5 -0.5,-1.3 -0.4,-1.9 0.1,-0.3 1,-0.7 1.5,-0.6 0.7,0.1 1.2,0.6 1.9,0.9 0.3,0.1 0.8,0.2 1.1,0.1 0.1,0 0.3,-0.6 0.2,-0.8 -0.5,-1.5 -0.1,-2.5 1.3,-3.3 0.3,-0.2 0.4,-0.7 0.6,-1.1 -2,1.4 -3.2,1.9 -4.8,1.5 -0.6,-0.2 -1.4,-0.7 -1.6,-1.3 -0.2,-0.4 0.4,-1.2 0.8,-1.7 0.4,-0.4 0.9,-0.7 1.7,-1.3 -1.1,-0.3 -1.9,-0.5 -2.6,-0.7 -0.8,-0.2 -1.2,-0.8 -1.2,-1.6 0,-0.8 0.4,-1.3 1.2,-1.6 0.9,-0.4 1.7,-0.9 2.5,-1.4 0.8,-0.5 0.9,-1.2 0.1,-1.9 -0.9,-0.8 -0.8,-1.5 0,-2.3 0.4,-0.4 0.6,-1 0.9,-1.5 -0.1,-0.1 -0.2,-0.1 -0.3,-0.2 -0.3,0.1 -0.5,0.1 -0.8,0.2 -0.9,0.3 -1.8,0.6 -2.8,0.8 -0.9,0.2 -1.7,0 -2.1,-0.9 -0.4,-1 0,-1.8 0.8,-2.3 0.9,-0.5 1.8,-1 2.8,-1.4 0.6,-0.3 1.2,-0.4 1.8,-0.7 0.4,-0.3 0.9,-0.9 0.8,-1.2 -0.1,-0.4 -0.7,-0.9 -1.1,-1 -0.6,-0.2 -1.3,-0.1 -1.9,-0.2 -0.9,-0.2 -1.9,-0.2 -2.8,-0.7 -0.5,-0.3 -1.1,-1.1 -1,-1.7 0,-0.6 0.7,-1.3 1.2,-1.6 1.1,-0.6 2.4,-0.6 3.6,-0.1 0.6,0.2 1.1,0.4 2,0.7 -0.6,-1.5 -0.4,-2.5 0.6,-3.4 0.7,-0.6 0.1,-1.2 -0.6,-1.5 -0.6,-0.2 -1.3,-0.2 -1.9,-0.3 -0.8,-0.1 -1.7,-0.2 -2.5,-0.4 -1,-0.3 -1.8,-0.9 -1.6,-2 0.2,-1.1 1.3,-0.8 2.1,-0.8 1.4,0 2.7,0.1 4.1,0.1 1.4,0 1.5,-0.2 1.3,-1.5 -0.3,-2.6 -0.5,-5.2 -1,-7.8 -0.4,-2 0,-3.9 0.8,-5.7 0.6,-1.2 0.5,-2.4 -0.5,-3.4 -0.9,-1 -1,-2.1 -0.4,-3.3 0.3,-0.5 0.3,-1.2 0.3,-1.8 -0.1,-1.3 -0.3,-2.7 -0.6,-4 -0.1,-0.6 -0.4,-1.3 -0.8,-1.8 -0.5,-0.9 -0.4,-1.6 0.2,-2.3 0.2,-0.2 0.4,-0.4 0.6,-0.6 1.6,-1 1.9,-2.2 1.2,-4.1 -1,-2.5 -1.1,-5.2 -0.3,-7.9 0.1,-0.5 0.1,-1 0,-1.5 -0.5,-2.9 0,-5.6 1.8,-7.9 0.4,-0.5 0.4,-0.9 0,-1.5 -2.1,-3.2 -2.7,-6.7 -1.6,-10.3 1.5,-5.1 -0.5,-10 -0.6,-14.9 0,-0.1 -0.1,-0.1 -0.1,-0.2 -0.8,-2.4 -0.5,-4.5 1,-6.6 0.3,-0.4 0.6,-1.1 0.5,-1.6 -0.5,-3.5 -0.8,-7 -1.7,-10.3 -0.9,-3.2 -0.6,-6.1 1.1,-8.8 0.4,-0.7 0.4,-1.1 -0.2,-1.6 -1.1,-1 -1,-1.5 -0.1,-2.6 0.4,-0.5 0.9,-1 1.3,-1.4 -0.9,-0.3 -1.6,-0.5 -2.3,-0.8 0.1,-0.6 0.3,-1.1 0.4,-1.7 -0.7,0 -1.4,0 -2,0 -0.7,0 -1.4,-0.1 -2,-0.2 -1.6,-0.4 -2.3,-1.3 -2.1,-2.6 0.2,-1.2 1.2,-1.7 2.8,-1.5 2.8,0.4 2.8,0.4 3.3,-2.4 0,-0.1 0,-0.1 -0.1,-0.3 -0.2,0 -0.4,0 -0.7,0 -1,0 -1.9,-0.3 -2.1,-1.4 -0.2,-1.2 0.6,-1.6 1.6,-1.9 1,-0.3 1.9,-0.7 3,-1.1 -1,-0.9 -1.8,-0.5 -2.6,-0.1 -1.2,0.6 -2.5,0.9 -3.6,-0.1 -0.4,-0.4 -0.9,-1.1 -0.9,-1.6 0,-0.5 0.7,-1 1.2,-1.3 0.6,-0.3 1.4,-0.5 2.3,-0.8 -0.9,-0.4 -1.5,-0.7 -2.1,-1 -1.5,-0.8 -2.1,-2 -1.8,-3.5 0.3,-1.5 1.2,-1.8 2.4,-1 0.7,0.5 1.4,1 2.1,1.3 0.6,0.2 1.3,0 1.9,0 -0.1,-0.6 -0.1,-1.1 -0.3,-1.6 -0.7,-1.5 -0.5,-2.4 0.9,-3.4 0.3,-0.2 0.6,-0.5 0.9,-0.7 0,-0.1 0,-0.3 0,-0.4 -0.7,-0.2 -1.4,-0.5 -2,-0.5 -1.2,0 -2.4,0.2 -3.6,0.2 -0.8,0 -1.7,0 -2.3,-0.4 -0.6,-0.3 -1.1,-1.1 -1.2,-1.7 -0.2,-0.9 0.5,-1.5 1.3,-1.8 0.5,-0.2 1.1,-0.2 1.7,-0.2 1.7,0 3.4,0 5.2,-0.1 0.4,0 0.8,-0.2 1.4,-0.3 -1.2,-1.1 -2.4,-0.8 -3.5,-1 -1.3,-0.1 -2.7,-0.2 -4,-0.5 -1.3,-0.3 -1.7,-1.6 -0.9,-2.8 0.8,-1.2 1.9,-1.8 3.3,-1.7 1,0.1 1.9,0.2 2.9,0.3 1.4,0.2 2.3,-0.5 3.1,-1.8 -0.8,-0.3 -1.4,-0.8 -2.2,-0.9 -1.5,-0.2 -3.1,-0.1 -4.7,-0.2 -1.5,-0.1 -2.9,-0.3 -4.1,-1.4 -0.7,-0.7 -0.9,-2 -0.4,-2.9 0.5,-0.9 1.4,-0.8 2.2,-0.6 0.8,0.2 1.7,0.6 2.5,0.8 1.6,0.4 3.2,0.6 4.5,0.4 0,-1.4 0,-2.5 0,-3.6 0,-2.9 0.7,-5.8 -0.6,-8.6 -0.9,-2 -0.6,-4.2 0.2,-6.3 0.4,-0.9 0.4,-2 0.5,-3 0,-1.2 -0.1,-2.4 -0.2,-3.9 -56.1,-0.2 -111.9,0.1 -167.8,0.5 z m -74.3,283.7 c 0.6,-0.4 0.9,-0.6 1.2,-0.8 1.6,-1 2.2,-0.9 3.3,0.7 0.3,0.4 0.7,0.8 1.2,0.9 3.6,1.1 7.3,2.1 10.9,3.2 1.3,0.4 2.5,1 3.1,2.2 0.4,0.8 1.1,1.1 1.9,1.1 1,0 1.6,0.5 2,1.4 0.7,1.9 0.7,1.9 2.7,1.1 0.9,-0.4 1.9,-0.5 2.5,0.4 0.8,1.1 1.8,1.4 3,1.7 0.8,0.2 1.6,0.6 2.5,0.9 0.5,0.1 1.1,0.3 1.5,0.1 2,-1.3 3.5,-0.6 5,1 1.1,1.2 2.4,2.1 4.2,2 0.6,0 1.3,0.1 1.9,0.4 2,1 4.2,0.9 6.3,0.9 2.2,0.1 4.5,-0.1 6.7,0.1 1.7,0.1 3.3,0.6 4.9,0.9 0.4,0.1 0.8,0.2 1.2,0.3 -0.8,-0.7 -1.6,-1 -2.4,-1.5 -2.3,-1.2 -2.8,-2.8 -1.4,-5 0.4,-0.7 0.5,-1.2 0,-2 -0.9,-1.2 -0.4,-2.2 1.1,-2.4 0.4,0 0.8,0 1.2,0 1,-0.1 2,-0.3 3,-0.5 0,-0.1 0,-0.3 0,-0.4 -0.4,-0.1 -0.7,-0.2 -1.1,-0.3 -1.5,-0.5 -3.1,-0.9 -4.5,-1.5 -1.1,-0.4 -1.6,-1.4 -1.3,-2.5 0.2,-1.2 1.1,-1.4 2.1,-1.3 0.8,0 1.5,0.1 2.3,0.1 0.4,0 0.9,-0.2 1.3,-0.3 0,-0.1 0,-0.3 -0.1,-0.4 -0.9,-0.1 -1.7,-0.2 -2.6,-0.3 -0.6,-0.1 -1.1,-0.1 -1.7,-0.2 -0.9,-0.2 -1.5,-0.7 -1.4,-1.7 0.1,-1.1 0.9,-1.2 1.7,-1.2 0.5,0 1,0.1 1.6,0.1 1.1,0 2.2,0 3.3,0 0.2,0 0.5,-0.3 0.7,-0.4 -0.2,-0.2 -0.4,-0.5 -0.6,-0.6 -1.2,-0.3 -2.4,-0.7 -3.6,-0.9 -1.1,-0.2 -2,-0.7 -2.3,-2 -0.3,-1.2 0.2,-2.1 1.2,-2.8 0.4,-0.3 0.9,-0.7 1.1,-1.2 0.8,-2 0.8,-2 2.9,-1.8 0.1,0 0.3,0 0.6,-0.1 -1.7,-2.8 0.3,-3.7 2.5,-4.4 -1.2,-1.7 -3.1,-1.7 -4.2,-0.2 -0.5,0.7 -1.2,1.4 -1.9,1.8 -1.4,0.7 -2.1,0.2 -2.6,-1.2 -0.5,-1.8 -1.1,-3.5 -1.5,-5.3 -0.2,-0.9 -0.4,-1.9 -0.2,-2.8 0.2,-0.7 0.9,-1.7 1.4,-1.7 0.6,-0.1 1.3,0.8 1.8,1.4 0.4,0.4 0.6,1 0.9,1.5 0.1,0 0.2,-0.1 0.4,-0.1 0,-1.2 0,-2.4 0,-3.7 0,-0.9 0.4,-1.6 1.2,-1.6 1,-0.1 1.3,-0.7 1.5,-1.5 -1,-0.7 -1,-0.7 -2.5,-0.2 -2.5,0.9 -3.6,0.3 -3.9,-2.3 -0.2,-1.7 0.1,-3.4 0.2,-5.1 0.1,-1.9 1,-2.6 2.9,-2.4 0.8,0.1 1.5,0.1 2.3,0.1 0.3,0 0.5,-0.3 0.8,-0.5 -0.3,-0.2 -0.5,-0.7 -0.8,-0.7 -0.7,-0.2 -1.5,-0.2 -2.2,-0.2 -0.7,0 -1.4,0.2 -2.1,0.2 -1.3,0 -1.6,-0.5 -1.4,-1.7 0.1,-0.7 0.1,-1.4 0,-2 -0.5,-2.2 0.1,-3 2.3,-3.4 1.9,-0.3 3.8,-0.4 5.7,-0.7 0.6,-0.1 1.2,-0.4 1.9,-0.7 -0.8,-1.1 -1.7,-0.8 -2.5,-0.7 -1.9,0.3 -3.8,0.7 -5.7,0.9 -0.6,0.1 -1.5,-0.1 -2,-0.5 -2,-1.7 -4.4,-1.6 -6.7,-1.2 -1.4,0.2 -2.5,0.3 -3.8,-0.3 -0.8,-0.4 -1.9,-0.7 -2.6,-0.5 -1.1,0.3 -2.1,0.6 -3.2,0.3 -0.2,0 -0.4,0 -0.6,0 -4.2,0.9 -8.3,0.2 -12.4,-0.3 -0.8,-0.1 -1.6,0.3 -2.4,0.4 -0.9,0.1 -2,0.5 -2.6,0.2 -1.6,-0.9 -2.9,-1.2 -4.7,-0.6 -2.1,0.7 -4.2,0.1 -6.2,-0.5 -2,-0.6 -3.7,-0.4 -5.4,0.9 -1.5,1.2 -2.5,1.1 -3.9,-0.3 -1.3,-1.3 -2.9,-1.2 -4.5,-1.1 -0.2,0 -0.5,0.2 -0.5,0.3 0.1,1.4 0.2,2.8 0.3,4.2 0,0.1 0.4,0.1 0.5,0.2 0.9,0.1 1.3,0.7 1.4,1.5 0.2,1.8 -0.1,2.3 -1.9,2.8 -0.9,0.3 -1.1,0.6 -0.9,1.6 0.3,1 0,2.1 0,3.1 0,1.3 0.1,2.6 0.3,3.9 0,0.1 0.3,0.3 0.5,0.3 1.3,0.2 1.5,1.1 1.6,2.2 0.1,1.2 -0.7,1.4 -1.6,1.8 -0.4,0.2 -0.9,0.5 -1,0.8 -0.3,0.8 0.9,3.2 1.7,3.7 1,0.6 1.4,1.4 0.8,1.9 -1,0.9 -1.1,1.9 -0.9,3.1 0.1,0.7 0.2,1.3 0.3,2 0.1,0.8 -0.1,1.3 -1,1.5 -0.4,0.1 -0.9,0.5 -1.1,0.9 -0.5,1.1 -0.6,2.2 0.1,3.3 0.2,0.3 0.3,0.6 0.3,0.9 -0.1,1.1 0.3,1.5 1.4,1.6 0.5,0.1 1.3,0.6 1.4,1 0.1,0.5 -0.2,1.4 -0.6,1.7 -1.1,1 -1.9,2.1 -2,3.6 0.2,1.6 0.4,3.4 0.5,5.4 z m 69.8,-116.2 c -0.5,-0.8 -0.7,-1.4 -1.1,-2 -0.9,-1.3 -1,-2.7 -0.5,-4.2 0.3,-0.8 0.5,-1.6 0.7,-2.4 0.2,-0.9 0.6,-1.5 1.5,-1.7 0.9,-0.2 1,-0.8 0.5,-1.4 -1.2,-1.5 -1.3,-3.3 -1.4,-5.1 -0.1,-1.7 -0.3,-3.4 -0.5,-5 -0.6,-3.5 -0.5,-7 0.3,-10.5 0.2,-0.9 0.1,-1.9 0.1,-2.8 -0.1,-1.2 -0.5,-2.4 -0.4,-3.5 0.1,-2 -0.3,-3.8 -1.5,-5.3 -0.3,-0.4 -1,-0.7 -1.6,-0.8 -1.4,-0.3 -2.8,-0.4 -4.2,-0.7 -1.1,-0.2 -2.2,-0.7 -3.3,-1 -0.4,-0.1 -1,0 -1.3,0.2 -0.9,0.9 -1.8,0.9 -2.7,0 -0.3,-0.3 -0.6,-0.5 -0.9,-0.8 -1.1,-0.8 -3.8,-1.1 -4.5,-0.4 -0.8,0.7 -1.6,0.8 -2.6,0.5 -1.1,-0.3 -2.1,-0.7 -3.2,-0.9 -1.7,-0.2 -3.3,-0.5 -4,-1.7 -1.4,0.2 -2.6,0.6 -3.8,0.5 -0.7,0 -1.5,-0.6 -2.2,-0.8 -2.5,-0.8 -5.1,-1.6 -7.7,-0.3 -0.2,0.1 -0.5,0.2 -0.8,0.2 -3.5,1 -6.9,0.5 -10.3,-0.5 -0.6,-0.2 -1.1,-0.8 -1.7,-1.1 -0.5,-0.2 -1.2,-0.5 -1.7,-0.3 -1,0.3 -1.8,0.2 -2.7,-0.3 -0.8,-0.5 -1.7,-0.9 -2.6,-1.3 -0.9,-0.3 -1.6,0 -1.9,0.9 -0.3,1.2 -0.6,2.3 -0.1,3.5 0.2,0.5 0.1,1.4 -0.2,1.9 -0.5,1 -0.5,1.9 0.2,2.7 1.2,1.5 1.6,3 0.2,4.6 1.6,2.2 1.6,2.2 -0.2,4.4 -0.3,0.4 -0.5,1 -0.4,1.4 0.1,1.7 0.4,3.3 0.3,5 -0.1,1.5 0.2,2.6 1.3,3.6 0.6,0.6 0.4,1.5 -0.4,1.8 -1.3,0.5 -1.5,1.6 -1.7,2.8 -0.2,1.1 -0.3,2.1 -0.6,3.2 -0.2,0.8 0,1.1 0.7,1.4 1.6,0.7 1.9,2 0.8,3.4 -0.5,0.7 -0.6,1.3 0,2 0.3,0.3 0.4,0.9 0.3,1.3 -0.1,1.3 -0.4,2.5 -0.5,3.8 0,0.9 0.1,1.9 0.4,2.7 0.4,1.2 0.3,1.8 -0.7,2.6 -0.5,0.4 -1,1.1 -1.2,1.7 -0.3,1.4 -0.4,2.8 -0.5,4.2 -0.1,1.4 0.7,2 2,2 0.7,0 1.5,0.1 2.1,0.5 1.9,1.2 3.9,1.6 6.1,2 1.4,0.3 2.9,1 4.1,1.8 1.1,0.7 2.1,1.1 3.3,0.3 1,-0.6 2,-0.6 3.1,-0.2 3,1.1 6,1.2 8.7,-0.6 1.9,-1.2 3.7,-1.3 5.7,-0.5 0.5,0.2 1.2,0.2 1.7,0.2 1.6,-0.2 3.2,-0.5 4.9,-0.6 2.4,-0.3 4.8,-0.4 7.1,-0.7 1.3,-0.1 2.4,0.2 3.5,0.9 1,0.7 2.1,1.3 3.3,1.6 0.6,0.2 1.4,0 2,-0.3 3,-2 5.2,-4.7 7.3,-7.5 0.2,-0.2 0.3,-0.6 0.3,-0.9 0,-1.8 0.5,-3.4 3.1,-3.5 z m -62.8,-101 c -0.4,1.3 -0.9,2 -2,2.3 -1.4,0.3 -1.8,1.2 -1.6,2.5 0.2,1.1 0.9,1.6 1.8,2.1 0.5,0.3 1.2,1 1.1,1.5 -0.1,0.5 -0.8,1 -1.3,1.5 -0.4,0.4 -1.1,0.7 -1.1,1.1 -0.3,1.3 -0.3,2.6 -0.4,3.8 1.1,0.3 2.6,0 3,1.6 0.4,1.6 -1.3,1.4 -2.1,2.2 0.3,0.4 0.7,0.8 0.8,1.2 0.2,0.6 0.5,1.4 0.2,1.7 -1.2,1.3 -1.6,2.8 -1.5,4.5 0,0.4 -0.2,0.8 -0.3,1.2 -0.5,1.6 -0.4,1.7 1.2,1.9 1.1,0.1 1.5,0.7 1.6,1.7 0.1,1.2 -0.4,1.9 -1.5,2.4 -1.9,0.8 -1.9,1 -1.5,3 0.2,1.1 0.1,2.2 0.1,3.3 -0.1,1.4 -0.3,2.8 -0.4,4.2 0,0.3 0,0.7 0.1,0.8 1.1,0.9 2.2,1.7 3.3,2.5 0.4,0.3 0.9,0.3 1.3,0.6 0.8,0.7 1.7,0.7 2.6,0.2 0.9,-0.5 1.6,-0.3 2.2,0.5 0.7,0.9 1.7,1.2 2.8,1.4 0.8,0.1 1.6,0.2 2.4,0.5 2.6,0.8 5,-0.2 7.4,-0.9 2.6,-0.8 5.1,-0.1 7.7,0.6 0.1,0 0.1,0.1 0.2,0.1 1.3,1.4 2.7,1.4 4.2,0.4 0.9,-0.6 1.6,-0.4 2.4,0.3 0.6,0.5 1.4,1 2.1,1.2 1.3,0.4 2.6,0.8 4,0.9 0.7,0.1 1.4,-0.3 2.1,-0.4 0.8,-0.2 1.7,-0.4 2.5,-0.4 0.5,0 1,0.3 1.5,0.3 1,0 1.8,0.4 2.4,1.2 0.2,0.3 0.5,0.6 0.9,1 0.4,-0.5 0.7,-0.9 1,-1.3 0.6,-0.7 1.1,-0.6 1.9,-0.2 2.5,1.4 5,3.1 8.2,1.9 2,-0.7 2.2,-0.7 1.9,-2.8 -0.2,-1.6 0.6,-2.4 2.3,-2.1 0.4,0.1 0.8,0.3 1.3,0.4 1.1,0.1 2.3,0.2 3.4,0.2 0,-0.2 0,-0.3 0.1,-0.5 -0.4,-0.1 -0.7,-0.3 -1.1,-0.4 -1,-0.3 -2,-0.5 -3,-0.7 -0.9,-0.2 -1.6,-0.7 -1.8,-1.6 1.6,-1.7 4.5,-1.3 5.9,-3.4 -0.5,-0.1 -0.9,0 -1.3,0.1 -1.4,0.4 -2.8,0.8 -4.3,1 -0.6,0.1 -1.6,-0.4 -1.7,-0.8 -0.2,-0.5 0.3,-1.3 0.7,-1.8 0.3,-0.4 0.9,-0.6 1.4,-0.8 0.8,-0.3 1.2,-0.8 1.3,-1.7 0,-0.6 0,-1.2 0.1,-1.8 0.2,-1.1 0.2,-2.1 -1.1,-2.8 -0.4,-0.2 -0.6,-1.2 -0.5,-1.8 0.1,-0.4 0.9,-0.8 1.5,-0.9 0.8,-0.1 1.7,0 2.5,0 1.1,0.1 1.9,-0.4 2.3,-1.7 -0.6,-0.1 -1.1,-0.3 -1.7,-0.2 -1.1,0.1 -2.1,0.4 -3.2,0.5 -0.5,0.1 -1.2,0 -1.6,-0.3 -0.6,-0.4 -0.9,-1.1 -1.4,-1.6 -0.6,-0.8 -0.4,-1.5 0.4,-1.9 0.8,-0.3 1.7,-0.5 2.6,-0.5 1.4,-0.1 2.7,-0.4 4,-1.5 -0.8,-0.2 -1.3,-0.5 -1.8,-0.5 -1.1,-0.1 -2.1,0 -3.2,0 -1.6,0 -2.1,-0.6 -1.9,-2.2 0.1,-0.5 0.3,-0.9 0.3,-1.4 0,-1.1 0.6,-1.6 1.5,-1.9 0.7,-0.2 1.3,-0.4 2,-0.7 -0.1,-0.4 -0.1,-0.7 -0.2,-0.9 -0.5,-2 0.2,-2.8 2.2,-2.7 1,0 2,0.2 3,0.3 0.7,0 1.7,0.5 1.8,-0.6 0.1,-0.9 -0.9,-0.8 -1.5,-1 -1.1,-0.3 -2.2,-0.6 -3.2,-1 -0.4,-0.2 -0.9,-0.9 -0.9,-1.4 0,-0.4 0.6,-0.9 1,-1.1 0.6,-0.3 1.2,-0.2 1.9,-0.4 0.9,-0.2 1.7,-0.4 2.6,-0.6 0,-0.1 0,-0.3 0,-0.4 -1.3,-0.1 -2.5,-0.3 -3.8,-0.5 -1.2,-0.2 -2.2,0.2 -3,1.1 -0.9,1 -1.9,2 -2.9,2.8 -0.4,0.3 -1.3,0.5 -1.7,0.3 -1.6,-0.9 -1.6,-3.5 -0.2,-4.7 0.9,-0.7 1.8,-1.2 2.6,-1.9 0.3,-0.2 0.5,-0.5 0.6,-0.8 0.3,-2 0.4,-2.2 2.5,-2.5 0.8,-0.1 1.7,-0.2 2.5,-0.3 0.4,-0.1 0.8,-0.2 1.3,-0.4 0,-0.2 0,-0.3 -0.1,-0.5 -0.7,0 -1.3,-0.1 -2,0 -1.8,0.3 -2.8,0 -3.3,-1.6 -0.3,-0.8 0,-1.7 0,-2.8 -0.1,-0.1 -0.5,-0.3 -0.9,-0.5 -0.9,-0.5 -1.2,-1.4 -1,-2.2 0.1,-0.4 0.9,-0.7 1.4,-0.9 0.8,-0.2 1.7,-0.3 2.6,-0.5 0.7,-0.2 1.4,-0.5 1.5,-1.6 -0.6,0.1 -1.1,0.3 -1.6,0.3 -3.2,0.5 -6.4,1.2 -9.6,0.4 -0.7,-0.2 -1.4,-0.3 -2,-0.2 -1.7,0.5 -3.4,0.8 -5.3,1 -1.4,0.1 -2.8,0.7 -4.3,0.3 -0.2,-0.1 -0.5,0 -0.7,0.1 -1.5,0.6 -2.8,0.2 -4.2,-0.5 -0.8,-0.4 -2.3,-0.7 -2.9,-0.2 -2.1,1.7 -4.5,2 -6.9,2.5 -1.8,0.3 -3.6,0.3 -5.1,-0.9 -1.9,1.5 -3.8,1.6 -5.6,0.2 -1.8,1.1 -2.4,1 -3.8,-0.4 -0.1,-0.1 -0.3,-0.3 -0.4,-0.4 -0.5,-0.7 -1.1,-0.8 -1.9,-0.4 -0.5,0.2 -1.2,0.4 -1.7,0.3 -1.4,-0.3 -2.5,0.1 -3.7,0.7 -1.1,0.6 -2.1,1.2 -3.2,1.7 -0.6,0.2 -1.4,0.1 -2.1,0.1 -1.4,-0.1 -2.7,-0.3 -4.1,-0.5 -0.3,0 -0.7,0.2 -0.8,0.4 -0.5,1.1 -0.9,2.2 -1.3,3.2 1,0.5 2.1,0.6 3.2,0.8 z m 301,136.7 c -0.4,0.1 -0.7,0.2 -0.9,0.2 -1.6,0.4 -2.8,-0.1 -3.2,-1.3 -0.4,-1.4 0.1,-2.2 1.8,-3 0.5,-0.2 1.1,-0.6 1.2,-1 0.4,-1.5 0.6,-3.1 1,-4.8 -0.7,0.1 -1,0.1 -1.3,0.2 -1.5,0.3 -2.2,-0.1 -2.5,-1.6 -0.2,-1 -0.3,-2.1 -0.2,-3.2 0,-0.5 0.6,-1.4 1,-1.4 1.8,-0.3 2.2,-1.8 2.9,-3.1 0.7,-1.5 -0.3,-3.1 -1.9,-3.3 -2.5,-0.3 -5.1,-0.4 -7.6,-0.9 -3.2,-0.6 -6.3,-0.6 -9.5,0.2 -0.6,0.2 -1.4,0.3 -2,0.1 -1.3,-0.4 -2.4,-0.2 -3.6,0.4 -1.1,0.6 -2.3,0.7 -3.5,0.2 -0.6,-0.2 -1.2,-0.4 -1.8,-0.5 -1.5,-0.2 -2.9,-0.5 -3.7,-2.1 -0.2,-0.3 -0.6,-0.6 -1,-0.8 -1.4,-0.6 -2.8,-0.4 -3.9,0.6 -0.9,0.8 -1.8,1 -3,0.6 -0.5,-0.2 -1.1,-0.2 -1.5,0 -2.2,1.1 -4.6,1 -6.9,0.8 -2,-0.2 -3.9,0 -5.5,1.5 -0.6,0.6 -1.3,0.6 -2.1,0.1 -0.3,-0.2 -1,-0.2 -1.3,-0.1 -1.8,0.9 -3.5,1.9 -5.3,2.7 -0.9,0.4 -1.9,0.7 -2.9,1.1 0.3,0.2 0.5,0.3 0.6,0.4 1.8,1 2.1,2.5 1,4.2 -0.3,0.4 -0.3,1 -0.3,1.5 0.2,1.4 -0.3,2 -1.7,1.7 -0.9,-0.2 -1.7,-0.6 -2.6,-0.8 -0.9,-0.3 -1.8,-0.2 -2.5,0.9 0.8,0.2 1.4,0.4 2.1,0.5 1,0.1 2,0.1 3,0.2 1.2,0.1 1.9,0.7 2.1,1.9 0.2,1.2 -0.1,2.1 -1.3,2.5 -1.2,0.5 -2.5,0.9 -3.7,1.5 -0.6,0.3 -1,0.8 -1.5,1.2 0.1,0.2 0.2,0.3 0.3,0.5 1,-0.4 2.1,-0.8 3.1,-1.1 0.8,-0.3 1.6,-0.4 2.2,0.3 0.6,0.7 0.6,1.5 0.2,2.3 -0.1,0.2 -0.3,0.5 -0.5,0.7 -0.4,0.5 -0.5,1 -0.1,1.6 0.7,1 0.7,2 -0.4,2.8 -1.1,0.8 -2.2,1.6 -3.2,2.4 0.7,0.5 2.5,0.1 2.5,1.7 0,1 -0.9,2.1 -1.4,3.1 1.9,0.2 2.3,0.1 3.4,-1.5 0.5,-0.8 1,-0.7 1.7,-0.2 1.3,1.1 1.4,2.6 0,3.8 -0.7,0.6 -1,1.2 -0.8,2.2 0.1,0.6 0,1.5 -0.3,2 -0.8,1.4 -0.6,1.8 1,1.9 1.2,0.1 1.7,0.6 1.8,1.8 0.1,1.3 -0.6,2.2 -2,2.6 -0.9,0.2 -1.8,0.4 -2.7,0.7 -0.4,0.1 -0.8,0.4 -1.1,0.6 0.8,0.2 1.5,0.1 2.2,0.3 0.7,0.1 1.7,0.3 2.1,0.8 0.3,0.4 -0.2,1.4 -0.5,2 1,3.9 -8,6.9 -2,5.9 1.9,1 4.8,-1.3 4,0.8 1,-0.1 2,-0.2 2.9,-0.3 2.9,-0.3 5.9,-0.6 8.8,-1 0.9,-0.1 1.6,-0.2 2.2,0.6 0.3,0.3 0.8,0.4 1.3,0.5 0.9,0.2 1.9,0.4 2.8,0.6 0.5,0.1 1.1,0.2 1.6,0.3 0.8,0.1 1.6,0 2.4,0.1 3,0.7 5.4,-0.1 7.5,-2.3 0.3,-0.3 0.6,-0.6 1,-0.9 0.8,-0.7 1.7,-0.8 2.6,-0.2 0.4,0.3 0.9,0.6 1.3,0.6 3.2,-0.1 6.6,0.5 9.7,-0.8 0.5,-0.2 1,-0.3 1.5,-0.2 1.7,0.1 3.4,0.2 5.1,0.6 1.5,0.4 2.7,0.1 4,-0.6 2.1,-1.2 4.2,-1.4 6.5,-0.5 1.1,0.5 1.5,0.2 1.7,-1 0.1,-0.9 -0.3,-1.3 -1.2,-1.5 -0.8,-0.1 -1.8,-0.5 -1.5,-1.5 0.3,-1.4 0.9,-2.8 0.8,-4.2 0,-0.1 0.2,-0.2 0.2,-0.3 0.3,-1.1 0.6,-2.1 0.9,-3.3 -1.5,-0.3 -2.8,-0.3 -3.1,-1.9 -0.3,-2 1.7,-1.4 2.4,-2.2 -0.2,-0.6 -0.7,-1.3 -0.6,-1.9 0,-0.5 0.7,-0.9 0.9,-1.4 0.2,-0.6 0.3,-1.2 0.4,-1.8 -0.5,-0.1 -0.9,-0.2 -1.4,-0.1 -0.8,0.1 -1.4,0.1 -1.9,-0.6 -1.1,-1.4 -0.9,-2.9 0.6,-3.8 0.5,-0.4 1.2,-0.5 1.7,-0.9 0.5,-0.5 1.1,-1.1 1.2,-1.7 0.3,-1.2 0.2,-2.3 0.2,-3.7 z M 112.2,217.8 c 1.4,0 2.7,0 4,0 1.4,0 2.8,-0.2 4.2,-0.1 0.5,0 1.2,0.6 1.4,1 0.1,0.5 -0.2,1.2 -0.6,1.7 -0.3,0.4 -1,0.5 -1.5,0.6 -1.4,0.2 -2.8,0.4 -4.3,0.6 -1.2,0.2 -2.3,0.6 -2.4,2 0,0.3 -0.2,0.5 -0.4,0.7 -1,0.9 -1.2,2 -1.1,3.3 0.1,2.9 0.1,2.9 3,2.6 1.2,-0.1 2.3,0.2 3.3,1.3 -1.2,0.2 -2.2,0.4 -3.2,0.5 -0.9,0.2 -1.6,0.6 -1.6,1.6 0.1,1.1 0.8,1.4 1.7,1.5 0.4,0 0.9,0 1.3,-0.1 0.9,-0.1 1.8,-0.2 2.8,-0.3 -0.3,1.2 -1.1,1.5 -2,1.4 -0.8,-0.1 -1.2,0.2 -1.5,1 -0.6,1.8 -1.4,2 -3,0.9 -0.6,-0.4 -1.2,-0.9 -1.8,-1.4 -0.1,0.1 -0.2,0.2 -0.4,0.2 0.4,1.6 0.7,3.2 1.1,4.9 0.3,1.1 0.9,1.3 2,0.9 2.3,-0.8 4.5,-1.7 6.8,-2.5 0.7,-0.2 1.7,-0.2 2.2,0.2 0.3,0.2 0.1,1.3 0.1,2 -0.1,0.9 -0.8,0.8 -1.5,0.9 -2,0.1 -2.6,1.1 -1.8,2.9 0,0.1 0,0.2 0.1,0.4 -2.1,1 -4.2,1.6 -6.5,1.2 -2.4,-0.4 -2.4,-0.4 -2.8,2 0,0.2 -0.1,0.5 -0.1,0.7 0,1 0.4,1.4 1.3,1.1 1.5,-0.5 2.6,-0.2 3.6,1.1 0.9,1.2 1.9,1.2 3.2,0.3 1,-0.6 2,-1.2 3.1,-1.5 1.9,-0.5 3.8,-0.8 5.8,-1.1 0.5,-0.1 1.2,0.3 1.7,0.6 0.8,0.5 1.6,1.1 2.4,1.7 1.2,-1.7 1.6,-1.8 2.6,-1 1.3,1 2.5,1.1 3.8,0.2 0.6,-0.4 1.2,-0.6 1.8,-0.1 1.2,1.1 2.6,1.2 4.1,0.8 1,-0.3 2,-0.3 2.9,-0.6 0.8,-0.2 1.7,-0.5 2.2,-1 1.2,-1.2 2.5,-1.5 4,-0.9 1,0.3 1.9,1.3 2.8,1.2 1.7,-0.3 3.5,0 5.1,-0.1 1.2,-0.1 2.5,-0.8 3.8,-0.5 0.2,0.1 0.5,-0.1 0.8,-0.2 1.2,-0.7 2.6,-0.8 4,-0.6 1.3,0.2 2.7,0.5 4,0.4 3.3,-0.4 5.5,-2 5.5,-5.2 0,-1.8 0.6,-3.3 1.5,-4.8 0.6,-0.9 0.9,-2 1.3,-3 0.3,-0.8 0.6,-1.6 0.9,-2.4 0.4,-0.8 0.7,-1.5 0.2,-2.5 -0.3,-0.7 -0.3,-1.6 -0.2,-2.3 0,-1.1 0.2,-2.1 0.2,-3.2 0,-3.1 -0.1,-6.2 -0.3,-9.2 0,-0.4 -0.1,-0.9 -0.3,-1.2 -1.2,-2.7 -1.6,-5.5 -0.4,-8.4 0.3,-0.6 0.5,-1.3 0.7,-1.9 0.5,-1.4 0.3,-1.8 -1.1,-2.2 -1.5,-0.5 -2.4,-1.5 -2.6,-3.1 -0.3,-2.3 -1.3,-2.9 -3.5,-1.9 -1.6,0.8 -3.1,0.6 -4.3,-0.7 -1.1,-1.2 -2.5,-1.7 -4.1,-1.7 -1.3,0 -2.6,0 -3.8,0.1 -2.2,0.2 -4.4,0 -6.4,-1 -0.4,-0.2 -1.1,-0.4 -1.5,-0.2 -1.2,0.6 -2.4,0.3 -3.6,-0.1 -0.6,-0.2 -1.2,-0.3 -1.8,-0.3 -1.8,0.1 -3.4,-0.3 -4.9,-1.2 -1.7,-1 -3.5,-1 -5.3,-0.5 -1.3,0.3 -2.6,0.6 -3.9,0.7 -2.7,0.2 -5.4,0.4 -8.1,0.5 -1.3,0 -2.5,-0.3 -3.8,-0.4 -0.7,-0.1 -1.5,-0.3 -2.2,-0.1 -1.4,0.3 -2.6,0.2 -3.7,-0.7 -0.8,-0.6 -1.6,-0.7 -2.6,-0.4 -2.8,0.8 -2.8,0.9 -3,3.7 0,0.4 -0.1,0.9 -0.1,1.3 -0.1,1.5 -0.3,2.9 -0.4,4.4 1.6,-1.7 3.6,-1.6 5.5,-1.7 1,0 1.9,0.1 2.2,1.4 0.2,1.1 -0.3,1.9 -1.5,2.4 -1.5,0.6 -3,1.1 -4.5,1.6 -0.3,0.1 -0.8,0.3 -0.9,0.5 -0.8,2 -1.4,4 -0.7,6.2 0.1,0.4 0.8,0.8 1.3,0.9 0.5,0.1 1,-0.3 1.5,-0.3 1.8,-0.3 3.7,-0.7 5.5,-0.8 1.3,-0.1 2.2,0.9 2.2,2.1 0,1 -0.6,1.6 -2.1,1.7 -1.9,0.2 -3.8,0.3 -5.7,0.4 -0.5,-0.1 -1.3,0 -1.7,1.1 z m 298.9,43.4 c -1.8,-0.3 -3.3,-0.6 -4.9,-0.8 -0.6,-0.1 -1.3,0 -1.9,0.2 -1,0.4 -2.1,0.8 -3,1.5 -2.1,1.6 -4.6,1.5 -7,2.3 -0.6,0.2 -1.4,-0.1 -2.1,-0.3 -0.5,-0.2 -1,-0.5 -1.5,-0.7 -0.9,-0.4 -1.7,-0.4 -2.4,0.4 -0.7,0.9 -1.7,1.1 -2.8,1.1 -1.9,0 -3.8,0.1 -5.8,0 -1.3,-0.1 -2.5,-0.4 -3.7,-0.6 -0.9,-0.2 -1.9,-0.4 -2.8,-0.5 -1.7,-0.2 -3.4,-0.2 -5.1,-0.4 -0.8,-0.1 -1.4,-0.8 -2.2,-1.1 -0.5,-0.2 -1,-0.5 -1.5,-0.5 -2.4,0.3 -4.6,0.9 -6.5,2.5 -0.5,0.4 -1.4,0.7 -2.1,0.6 -2.4,-0.2 -6.8,2.3 -7.8,4.5 -0.1,0.3 -0.2,0.5 -0.2,0.8 -0.7,2.1 -0.5,4.2 -0.1,6.3 0.4,2.1 1.2,4.1 1.6,6.2 0.5,2.5 0.8,4.9 -1,7.2 -0.6,0.8 -0.5,2.4 -0.4,3.6 0.1,1.7 0.5,3.3 0.7,4.9 0.2,1.4 0.5,2.8 0.5,4.3 0.1,1.7 0.4,3.6 -0.1,5.2 -0.8,2.9 -1,5.7 -0.4,8.6 0.4,2.2 1.5,3.3 3.7,3.6 0.7,0.1 1.5,0.2 2,0.6 1,0.7 1.7,0.6 2.5,-0.2 0.8,-0.8 1.6,-0.8 2.6,-0.4 0.7,0.3 1.6,0.4 2.4,0.3 2,-0.3 3.9,-0.8 5.9,-1.2 1.4,-0.3 2.7,0 3.8,0.9 0.5,0.4 1.1,0.6 1.7,0.9 2.8,1.2 5.6,1.1 8.5,0 0.7,-0.3 1.5,-0.2 2.2,-0.3 0.8,-0.1 1.7,-0.2 2.5,-0.4 3.8,-1.3 7.4,-3.3 11.5,-4.2 1.8,-0.4 3.4,-0.2 4.9,0.9 0.7,0.5 1.4,1.1 2.1,1.6 1.9,1.2 3.8,1.4 6,0.7 0.7,-0.3 1,-0.7 0.9,-1.4 -0.3,-2.5 -0.6,-5 -1,-7.5 -0.2,-1.1 -0.7,-2.1 -1.9,-2.4 -0.9,-0.3 -1.8,-0.6 -1.7,-1.7 0.2,-1.3 0.1,-2.9 1.7,-3.4 1.1,-0.4 1.2,-1 1.3,-2 0,-1.5 0.3,-3 0.4,-4.5 0,-0.4 -0.3,-0.9 -0.7,-1.1 -0.6,-0.4 -1.3,-0.5 -1.9,-0.9 -0.8,-0.6 -1,-1.9 -0.5,-2.6 0.6,-0.9 1.4,-0.8 2.3,-0.4 0.3,0.2 0.7,0.2 1,0.3 -0.1,-0.7 -0.4,-1.1 -0.7,-1.5 -0.6,-1 -0.4,-1.7 0.6,-2.1 1.3,-0.5 1.2,-1.4 1,-2.4 -2.4,-0.6 -2.6,-0.8 -2.7,-3.2 0,-0.5 0,-1 0.1,-1.4 0.2,-1 0.6,-2 1.8,-2.3 0.8,-0.2 0.8,-0.7 0.7,-1.4 -0.2,-1.1 -0.3,-2.2 -0.3,-3.3 0,-1 -0.4,-1.7 -1.2,-2.2 -2.1,-1.5 -2.2,-2.3 -0.4,-4.1 0.5,-0.5 0.8,-1.3 0.9,-2 0.6,-1.6 0.5,-3.1 0.5,-4.6 z m 6.3,255.3 c 0,-0.1 0,-0.2 0,-0.4 -0.2,-0.1 -0.3,-0.3 -0.5,-0.4 -1.1,-0.3 -2.2,-0.6 -3.2,-0.7 -1.6,-0.2 -3,-0.6 -4,-2 -0.5,-0.7 -0.5,-1.5 0.1,-2.2 0.6,-0.8 1.4,-0.8 2.1,-0.3 0.5,0.3 1,0.8 1.5,0.9 0.8,0.3 1.6,0.4 2.4,0.4 0.7,0 0.9,-0.5 0.9,-1.2 0,-1 0,-2 0.1,-3 0.2,-1.4 -0.3,-2.1 -1.7,-2.1 -0.6,0 -1.3,0.1 -1.9,0.1 -0.8,0 -1.6,0.1 -2.2,-0.2 -0.5,-0.3 -1.1,-1.1 -1.2,-1.7 -0.1,-0.8 0.7,-1.2 1.5,-1.2 0.5,0 1,0 1.6,0 1.2,0.1 2.3,0.2 3.5,0.2 0.3,0 0.7,-0.3 0.9,-0.5 0.1,-0.1 -0.2,-0.6 -0.5,-0.8 -0.9,-0.8 -2,-0.9 -3.2,-0.5 -1.8,0.6 -2.6,0.1 -3.2,-1.7 -0.1,-0.4 -0.3,-0.8 -0.5,-1.2 -0.6,-1.1 -1,-2.1 -0.1,-3.2 0.9,-1.2 2,-1.7 3.6,-1.3 1.1,0.3 2.2,0.4 3.4,0.6 0.1,-0.1 0.2,-0.3 0.2,-0.4 -0.4,-0.5 -0.8,-1.1 -1.2,-1.6 -0.7,-0.7 -0.7,-1.3 0.1,-1.9 0.3,-0.3 0.6,-0.5 0.9,-0.8 0.9,-1.2 0.5,-2.1 -1,-2.2 -0.9,0 -1.8,0.2 -2.7,0.5 -2.1,0.8 -4.1,0.6 -6.1,-0.2 -0.9,-0.4 -1.4,-1.1 -1.4,-2.1 0,-1 0.6,-1.5 1.5,-1.7 1,-0.3 2,-0.4 2.9,-0.6 1.4,-0.3 2.8,-0.6 4.1,-1.1 1.2,-0.5 1.9,-1.8 1.3,-2.3 -0.5,-0.5 -1.6,-0.6 -2.4,-0.5 -1.1,0.2 -2,1 -3,1.3 -1.7,0.5 -3.4,2.2 -5.2,0.2 -0.2,0.2 -0.3,0.4 -0.4,0.5 -1,1.3 -1.7,1.3 -2.9,0.2 -0.1,-0.1 -0.3,-0.3 -0.4,-0.4 -0.5,-0.6 -0.9,-0.5 -1.4,0.1 -0.5,0.6 -1.3,1.1 -2.1,1.5 -0.8,0.3 -1.6,0.5 -2.5,0.5 -4,0.3 -7.9,0.6 -11.9,0.8 -0.6,0 -1.4,-0.4 -1.9,-0.8 -0.7,-0.5 -1.1,-0.4 -1.8,0 -1,0.6 -2.1,1.1 -3.2,1.1 -2.3,0.1 -4.6,0 -6.8,-0.2 -0.7,-0.1 -1.6,-0.4 -2.1,-0.9 -1.4,-1.3 -1.3,-1.3 -2.8,-0.2 -1,0.7 -2,1 -3.1,0.4 -1.2,-0.6 -2.3,-0.4 -3.4,0.4 -1,0.7 -1.9,1.6 -3,2.2 -0.8,0.5 -1.6,0.9 -2.5,1 -1.1,0.1 -1.8,0.5 -2.2,1.4 -0.5,1.2 -0.9,2.4 -1,3.6 0,1.7 0.3,3.5 -1.4,4.2 0.5,1.3 1.2,2.5 1.4,3.7 0.2,1.2 0.1,2.4 0.1,3.6 0,0.4 -0.2,0.8 -0.4,1.1 -1,1.3 -1.1,2.7 -0.4,4.2 0.9,2.1 1.1,4.1 -0.7,5.4 0.1,1.5 0.5,2.8 0.2,3.8 -0.5,1.4 -0.5,2.7 0.3,3.9 1.4,2.1 1.5,4.4 0.7,6.7 -0.7,1.9 -1.1,3.8 -1.7,5.8 -0.3,1 -0.1,2 0.9,2.5 1.3,0.7 1.8,1.7 1.4,3.2 -0.2,1 0.3,1.4 1.1,0.9 1.5,-0.8 2.8,-0.7 4,0.5 0.7,-1.2 1.4,-2.3 2.2,-3.5 0.6,0.6 1.1,0.9 1.4,1.4 0.6,0.9 1.1,1.1 1.9,0.2 0.3,-0.3 0.9,-0.4 1.4,-0.4 1.4,0.1 2.8,0.3 4.1,0.5 1.3,0.2 2.7,0.2 4,0.6 1.6,0.5 3.2,1.2 4.8,1.7 0.1,0.1 0.3,0.1 0.5,0.1 2.2,-0.6 4.4,-1.2 6.6,-1.8 0.8,-0.2 1.6,-0.3 2.3,-0.5 0.6,-0.1 1.1,-0.4 1.6,-0.6 1,-0.4 2,-1.2 3,-1.3 1.8,-0.2 3.6,-0.2 5.4,0.1 2.4,0.4 4.8,1.2 7.2,1.9 1,0.3 1.8,0.2 2.8,-0.3 2.2,-1.2 4.4,-2.3 6.5,-3.5 0.8,-0.5 1.5,-0.7 2.2,0.2 1,-1 2,-1 3.2,-0.2 0.9,0.6 1.5,0.3 1.7,-0.9 0.2,-1.5 0.3,-3.1 0.4,-4.8 -0.6,0.2 -1,0.3 -1.3,0.4 -1.8,0.6 -3.6,1.2 -5.4,1.7 -0.8,0.2 -1.7,0.4 -2.5,0.3 -1.9,-0.2 -2.6,-2.1 -1.4,-3.5 0.5,-0.5 1.1,-1 1.7,-1.3 0.7,-0.4 1.1,-0.9 0.7,-1.7 -0.4,-1 -0.3,-1.9 0.4,-2.7 0.7,-0.8 1.6,-0.6 2.6,-0.4 1.1,0.2 2.1,0.4 3.2,0.4 0.4,0 1,-0.3 1.2,-0.7 0.2,-0.3 0,-1 -0.2,-1.3 -0.4,-0.4 -1,-0.6 -1.5,-0.7 -1,-0.2 -2,-0.2 -3,-0.4 -1.1,-0.2 -1.6,-0.9 -1.5,-2 0.1,-1.1 0.8,-1.5 1.8,-1.6 0.8,-0.1 1.7,-0.1 2.5,-0.1 0.8,0 1.4,-0.1 2,-0.2 z m -309.3,20.8 c 0.2,-0.2 0.6,-0.5 1,-0.8 1.3,-1 2.3,-1 3.6,0 2.6,2 5.7,2.9 8.9,3.2 2,0.2 3.9,0.6 5.7,1.4 0.9,0.4 2.1,0.6 3,0.3 1.3,-0.5 2.2,-0.2 3.3,0.2 0.9,0.4 2.1,0.8 3,0.6 1.1,-0.2 1.8,0 2.8,0.4 1.8,0.8 3.5,1.5 5.3,-0.3 0.4,-0.4 1.7,-0.3 2.3,0.1 1.2,0.6 2.4,0.9 3.7,0.7 4.1,-0.6 8.2,-1.1 12.3,-1.7 2.3,-0.3 3.5,-1.6 3.5,-3.9 0,-1.4 0,-2.8 0,-4.2 0,-1.6 0.1,-3.1 1.1,-4.5 0.2,-0.3 0.2,-0.7 0.2,-1 -0.4,-2.8 -0.2,-5.6 0.8,-8.3 0.8,-2 0.5,-3.8 -0.1,-5.7 -0.2,-0.7 -0.5,-1.4 -0.8,-2.1 -0.6,-1.4 -0.5,-2.7 -0.1,-4.2 0.4,-1.3 0.4,-2.7 0.5,-4.1 0,-1.4 -0.3,-2.8 -0.2,-4.2 0.2,-2 -0.6,-3.4 -2.2,-4.3 -1.1,-0.6 -2.4,-0.9 -3.6,-0.9 -3.1,-0.1 -6.2,0.3 -9.3,-0.8 -0.9,-0.3 -1.8,-0.4 -2.7,-0.5 -1.4,-0.2 -2.6,-0.6 -3.5,-1.8 -1.1,-1.6 -1.9,-1.8 -3.8,-1.1 -0.7,0.3 -1.5,0.4 -2.2,0.2 -1.6,-0.4 -3.1,-1 -4.6,-1.6 -0.4,-0.1 -0.8,-0.3 -1,-0.6 -0.8,-1 -1.7,-1.1 -2.8,-0.6 -1.4,0.6 -2.6,0.1 -3.1,-1.3 -0.4,-1.2 -1.1,-1.6 -2.3,-1.7 -0.5,-0.1 -1.3,-0.5 -1.5,-1 -0.4,-1.4 -1.4,-1.9 -2.7,-2.3 -1.5,-0.4 -3,-0.9 -4.5,-1.3 -1.9,-0.5 -3.7,-1.2 -5.6,-1.6 -1.4,-0.2 -2.8,-0.3 -2.9,-2.1 -2.6,0.6 -4.7,1.5 -5,4.5 0,0.3 0,0.6 0,0.9 0.2,0.7 0.5,1.5 0.6,2.2 0.1,0.8 0.1,1.4 0.7,2 0.7,0.7 0.8,1.6 0.2,2.4 -0.4,0.5 -0.9,1 -1.5,1.3 -0.8,0.5 -1.1,1 -0.7,2 0.3,0.7 0.4,1.6 0.2,2.3 -0.3,1.3 -0.1,2.1 1.1,2.8 1.2,0.7 1.4,1.7 0.5,2.8 -0.7,0.9 -0.9,1.8 -0.9,2.9 0,1 -0.1,2 0.1,3 0.1,0.6 0.3,1.2 0.7,1.6 0.8,1 1.4,3.7 0.7,4.5 -1,1 -1.3,2.3 -1.8,3.5 -0.7,1.7 -0.6,3.6 0.4,5.2 0.9,1.3 1.3,2.7 1.5,4.2 0.1,0.8 -0.2,1.3 -0.9,1.8 -0.4,0.3 -0.6,0.9 -0.8,1.3 -0.2,0.6 -0.2,1.2 -0.2,1.8 -0.1,1.8 -0.3,3.5 -0.2,5.3 0,0.7 0.6,1.5 1.2,2 0.8,0.5 1.7,0.7 2.6,1.1 z M 415.9,429.6 c -1.3,-0.3 -2.6,-0.4 -3.9,-0.9 -1.6,-0.5 -3.1,-0.4 -4.5,0.5 -3,1.9 -6.2,0.8 -9.3,0.8 -0.8,0 -1.6,-0.1 -2.4,0.1 -3.3,0.9 -6.6,0.7 -9.9,0.6 -0.3,0 -0.7,-0.1 -0.9,-0.3 -1.2,-0.9 -2,-0.4 -2.9,0.5 -2.3,2.4 -5.1,3.1 -8.3,2.7 -0.9,-0.1 -1.8,-0.2 -2.7,-0.3 -2.2,-0.3 -4.4,-0.8 -6.3,-2.1 -0.2,-0.1 -0.5,-0.2 -0.8,-0.1 -2.2,0.1 -4.4,0.3 -6.6,0.5 -1.2,0.1 -2.4,0.2 -3.6,0.5 -3.7,0.8 -5.7,4.2 -4.8,7.8 0.1,0.6 0.2,1.2 0.3,1.8 0.1,0.8 0,1.4 -0.7,2 -0.8,0.6 -1.1,2.8 -0.6,3.5 1.6,2.3 1.8,6.4 0.3,8.8 -0.4,0.7 -0.4,1.2 0,1.9 0.9,1.6 1.1,3.2 0.7,5 -0.1,0.4 0,0.8 0,1.3 0,2 0.1,4 0,5.9 -0.1,1.1 0,1.9 0.8,2.7 1.5,1.6 1.7,3.3 0.7,5.3 -1,2 -1,4 -0.2,6 0.7,1.8 2.3,2.3 3.9,1.2 1,-0.7 1.9,-1.4 2.9,-2.2 1.5,-1.2 3,-1.6 4.8,-0.8 0.8,0.3 1.5,0.2 2.1,-0.4 1.6,-1.4 2.3,-1.3 3.9,0 0.6,0.5 1.5,1 2.3,1 1.9,0.2 3.9,0.2 5.9,0.1 0.9,0 2,-0.4 2.8,-0.9 1.4,-0.8 1.7,-0.9 3.1,0 1.7,1.1 3.5,0.7 5.3,0.3 0.5,-0.1 1,-0.3 1.5,-0.2 2.6,0.4 5.2,0.3 7.7,-0.4 0.8,-0.2 1.6,-0.8 2.2,-1.4 1.1,-1.1 2.5,-1.2 3.5,0 0.2,0.3 0.4,0.5 0.8,1 0.2,-0.6 0.4,-1.1 0.6,-1.5 0.2,-0.4 0.6,-1 0.9,-1.1 0.5,-0.1 1.4,0.2 1.5,0.5 0.5,1.4 1.5,1.1 2.4,0.8 0.7,-0.2 1.4,-0.7 2.1,-1 0.6,-0.3 1.1,-0.6 1.8,-0.7 0.8,-0.2 1.7,-0.1 2.5,-0.2 1.4,-0.1 2.3,-1.4 1.7,-2.6 -0.2,-0.5 -0.9,-0.8 -1.3,-1.1 -1.1,-0.7 -1.2,-1.2 -0.6,-2.4 0.2,-0.4 0.2,-1 0.3,-1.6 0.2,-0.9 0.3,-1.8 0.5,-2.6 0.3,-1.3 1.1,-2.6 1,-3.8 -0.2,-2.7 -0.9,-5.4 -1.3,-8.1 -0.2,-1.3 -0.6,-2.2 -1.9,-2.8 -1.1,-0.5 -1.4,-1.6 -1.2,-2.7 0.1,-1 0.9,-1.3 1.8,-1.4 1.2,-0.2 1.6,-0.7 1.6,-1.9 0,-1.1 -0.6,-1.8 -1.6,-2.3 -1.6,-0.8 -2,-2.2 -0.8,-3.6 0.4,-0.5 0.8,-0.9 1.3,-1.3 1,-0.8 1.3,-1.8 1.2,-3.1 -0.1,-1.1 -0.2,-2.2 -0.1,-3.3 -0.2,-1.4 0.2,-2.6 0.5,-4 z M 349.7,264 c 1,1.6 1,1.5 2.7,0.6 0.8,-0.5 1.9,-0.8 2.8,-0.9 1.4,0 2.7,-0.3 3.7,-1.2 1.9,-1.6 4.3,-1.6 6.5,-2 0.6,-0.1 1.4,0.4 2,0.7 0.7,0.3 1.4,0.8 2.1,0.9 2.8,0.5 5.5,0.8 8.3,1.2 1.3,0.2 2.6,0.3 3.9,0.4 1.4,0 2.8,0 4.2,-0.2 0.8,-0.1 1.8,-0.4 2.4,-0.9 1.2,-0.9 2.3,-1.1 3.5,-0.4 1.5,0.8 3.1,1.5 4.7,0.2 0.1,-0.1 0.3,0 0.5,-0.1 1.5,-0.5 3,-1 4.3,-1.6 2.4,-1.1 4.7,-2.4 7.5,-1.3 0.8,0.3 1.7,0.1 2.8,0.2 -0.2,-0.6 -0.3,-0.9 -0.4,-1.3 -0.2,-1.3 -0.5,-2.6 -0.6,-3.8 0,-1 0.2,-2.1 0.4,-3.1 0.3,-1.7 -0.1,-3.1 -1.6,-4.3 -1.3,-1 -1.2,-2.1 0.3,-2.7 1.1,-0.5 1.2,-1.2 1.1,-2.2 -0.2,-1.3 -0.5,-2.7 -0.6,-4 -0.1,-1.4 -0.4,-2.6 -1.7,-3.5 -0.4,-0.2 -0.6,-1.1 -0.5,-1.7 0.1,-0.4 0.7,-0.8 1.1,-1 0.5,-0.2 1.3,0.2 1.3,-0.8 0,-0.6 0,-1.4 -0.3,-1.8 -1,-1.2 -1.5,-2.3 -0.7,-3.7 -1,-0.3 -1.9,-0.5 -2.7,-1 -0.8,-0.5 -1,-1.4 -0.6,-2.2 0.4,-0.8 1.1,-0.8 1.9,-0.6 0.5,0.2 1,0.3 1.6,0.5 -0.1,-1.3 -0.4,-2.5 -0.3,-3.7 0.1,-1.3 -0.4,-2 -1.7,-1.9 -0.6,0 -1.2,0.3 -1.8,0.3 -0.6,-0.1 -1.3,-0.4 -1.5,-0.9 -0.2,-0.4 0,-1.2 0.1,-1.7 0.2,-0.6 0.6,-1.2 0.7,-1.8 0.3,-1.2 0.9,-1.6 2.1,-1.3 0.4,0.1 0.9,0.3 1.4,0.4 0.2,-0.6 0.4,-1.1 0.4,-1.5 0,-2 0,-4.1 0,-6.1 0,-1.3 0,-2.6 -0.2,-3.8 -0.2,-1.1 -0.7,-1.3 -1.7,-0.6 -0.7,0.5 -1.5,1.1 -2.3,1.5 -1.2,0.5 -2.5,0.8 -3.7,1.4 -2.7,1.5 -5.7,2.4 -8.7,3 -1.5,0.3 -2.6,0.9 -3.5,2.1 -1.1,1.6 -2.7,2.4 -4.7,2.2 -2.9,-0.3 -5.5,0.3 -7.9,2.2 -1.5,1.2 -3.2,1.7 -5.1,0.8 -0.4,-0.2 -0.9,-0.2 -1.4,-0.3 -0.8,-0.1 -1.4,0.2 -1.7,1 -0.6,1.6 -1.8,2.1 -3.4,2 -0.7,0 -1.6,0.2 -2.2,0.7 -0.9,0.8 -1.8,0.9 -3,0.7 -1.2,-0.2 -2.5,-0.2 -3.7,0 -1,0.1 -2,0.6 -3,0.9 -3.6,1.1 -7.1,1.4 -10.7,-0.1 -0.4,-0.2 -0.9,-0.1 -1.6,-0.2 0.5,1.7 1.6,1.8 2.8,1.9 2.2,0.2 4.4,0.2 6.6,0.5 1.1,0.1 2.2,0.7 2.3,2.1 0.1,1.2 -0.5,2.2 -1.8,2.8 -1.6,0.7 -3.1,0.8 -4.8,0.3 -1.6,-0.5 -2.4,0.1 -2.8,1.8 0.8,0.1 1.5,0.2 2.2,0.3 1.5,0.2 3.1,0.2 4.6,0.5 1.1,0.2 1.6,1.2 1.5,2.1 0,0.5 -0.9,0.9 -1.5,1.2 -0.4,0.2 -1,0.2 -1.5,0.2 -1.4,0 -2.8,-0.1 -4.2,0 -0.8,0 -1.6,0.3 -2.5,0.5 0,0.1 0,0.3 0,0.4 0.2,0.1 0.5,0.4 0.7,0.4 1,0.1 2.1,0 3.1,0.1 1.4,0.1 2.9,0 4.2,0.4 1.7,0.5 1.8,2.2 0.4,3.2 -1.4,1.1 -1.4,1.1 -0.6,2.6 0.7,1.3 0.4,2.2 -0.9,2.9 -1.4,0.8 -2.8,0.7 -4.1,-0.3 -0.4,-0.3 -0.8,-0.6 -1.3,-1 -0.3,1.1 0.1,1.6 0.9,1.9 0.7,0.3 1.4,0.4 2,0.8 0.5,0.3 1.2,0.9 1.2,1.4 0.1,0.4 -0.7,1 -1.2,1.3 -0.8,0.4 -1.7,0.6 -2.5,0.9 0,0.1 0,0.2 0,0.3 0.5,0.1 1.1,0.2 1.6,0.2 0.7,-0.1 1.3,-0.4 2,-0.6 1.5,-0.5 2.7,-0.1 3.2,1 0.4,0.9 -0.2,1.7 -1.8,2.5 -0.7,0.3 -1.5,0.6 -2.2,0.9 0.9,0.3 1.7,0.4 2.4,0.8 0.4,0.2 0.6,1 0.6,1.5 -0.1,0.8 -0.5,1.7 -0.8,2.5 -0.3,1 -1,1.6 -2.1,1.5 -0.5,0 -1.1,-0.2 -1.6,-0.4 -0.8,-0.2 -1.5,-0.3 -2.1,0.7 0.6,0.2 1.1,0.6 1.6,0.6 1,0.1 2.1,0.1 3.1,0.1 1.2,0 2.1,0.3 2.5,1.5 0.1,0.3 0.5,0.6 0.8,0.8 0.8,0.5 0.8,1.2 0.3,1.8 0,0.3 -0.6,0.8 -1.1,1.4 z M 173.1,555.9 c -1.9,-1.4 -2.3,-3.3 -1.4,-5.6 0.2,-0.6 0.1,-1.5 -0.1,-2.2 -0.4,-1.2 -1,-2.3 -1.6,-3.3 -1.3,-2.3 -2.6,-2.8 -5.3,-2.3 -3.2,0.6 -6.3,1.2 -9.5,1.7 -1.5,0.2 -3.1,0.4 -4.7,0.4 -1.1,0 -2.3,-0.2 -3.3,-0.6 -0.9,-0.4 -1.6,-0.5 -2.4,0.2 -0.8,0.7 -1.8,0.9 -2.8,0.5 -1.1,-0.4 -2.3,-0.7 -3.4,-1 -0.4,-0.1 -0.9,-0.1 -1.2,0.1 -0.8,0.6 -1.4,0.3 -2.2,0 -1.2,-0.5 -2.5,-1.1 -3.8,-1 -1.4,0.1 -2.6,-0.1 -3.9,-0.5 -1.5,-0.5 -3,-1.2 -4.5,-1.2 -4,-0.1 -7.6,-1.3 -10.9,-3.5 -0.4,-0.3 -1.2,-0.4 -1.6,-0.3 -1.5,0.5 -2.9,0.5 -4.4,0.1 -1.1,-0.3 -1.8,0 -2.1,1 -0.2,0.9 0.2,1.6 1.4,1.8 1.4,0.2 2.8,0.3 4.2,0.4 1.3,0 2.4,0.4 3.4,1.4 -2.7,1.4 -5.7,0.2 -8.3,1.4 0.2,1.9 0.3,2 2.1,2.4 1.3,0.3 2.6,0.5 3.9,0.9 0.4,0.1 0.9,0.4 0.9,0.7 0,0.3 -0.3,0.9 -0.6,1.1 -0.5,0.3 -1.1,0.5 -1.7,0.5 -1.7,0.1 -3.4,0.1 -5.1,0.2 -1.5,0.1 -1.7,0.7 -1.2,2 0.2,0.5 0.5,1.1 0.4,1.6 -0.4,1.4 0.1,2.1 1.5,2.5 1.5,0.4 1.7,1.8 1,3 -0.3,0.6 -0.4,1.4 -0.6,2.4 1,-0.3 1.5,-0.4 2.1,-0.6 1.8,-0.5 3.4,-0.3 4.9,0.7 0.4,0.3 1,0.9 1,1.3 0,0.4 -0.7,1 -1.2,1.1 -2,0.4 -4,0.7 -6,1.1 -0.9,0.1 -1.7,0.3 -2.6,0.4 0,0.2 0,0.3 0,0.5 1.2,0.1 2.4,0.3 3.6,0.3 1.8,0.1 3.7,-0.1 5.5,0 1.5,0.1 1.9,0.9 1.4,2.5 -2.9,0 -5.8,0 -8.8,0 -0.6,0 -1.2,0.1 -1.7,0.5 -0.4,0.3 -0.9,1 -0.8,1.4 0.2,0.5 0.8,1 1.3,1.3 0.4,0.2 0.9,0 1.4,0 2.1,-0.2 4.2,-0.3 6.3,-0.5 0.9,-0.1 1.4,0.2 1.6,1 0.4,1.3 -0.1,2.1 -1.5,2.1 -2.3,0.1 -4.7,0 -7,0 -0.4,2.1 -0.8,3.9 -1.1,5.9 0.9,-0.1 1.6,-0.1 2.3,-0.1 0.6,0 1.3,-0.1 1.8,0.1 0.6,0.3 1.1,0.9 1.3,1.5 0.1,0.3 -0.6,1 -1.1,1.3 -0.7,0.3 -1.5,0.4 -2.4,0.6 0.3,1.3 -0.5,1.7 -1.6,1.8 -0.4,0 -0.7,0.3 -1.1,0.5 0,0.1 0,0.2 0.1,0.4 0.7,0.1 1.4,0.3 2.1,0.3 3.2,0 6.3,0 9.5,0 0.5,0 1,-0.3 1.5,-0.4 0.4,-0.1 0.8,-0.2 1.1,-0.1 2.2,0.8 4.3,0.7 6.5,0 0.4,-0.1 1,-0.2 1.4,0 2,0.9 4,0.6 6,0.3 1.6,-0.3 3.2,-0.9 4.7,0.1 0.2,0.1 0.6,0.1 0.9,0.1 1.4,0 2.8,0 4.2,0 1.2,-0.1 2.5,-0.1 3.7,-0.4 2,-0.4 3.9,-1 5.8,0.2 0.2,0.2 0.6,0.1 0.9,0.1 2,0 3.9,0.1 5.9,0 2.1,-0.1 4.2,0 6.2,-1.2 0.4,-0.2 1.3,-0.1 1.7,0.2 1.3,1 2.7,1.1 4.2,1.1 2.5,-0.1 2.5,0 3,-2.4 0.1,-0.6 0.2,-1.3 0.5,-1.9 0.8,-2.1 0.6,-4.2 0,-6.2 -0.2,-0.8 -0.4,-1.6 -0.7,-2.3 -0.5,-1.4 -0.4,-2.7 0.1,-4.1 0.4,-1.2 0.6,-2.5 0.5,-3.7 0,-3.2 0.1,-6.3 0.4,-9.6 z M 412.9,370.2 c -0.9,-0.1 -1.7,-0.2 -2.6,-0.4 -0.5,-0.1 -1.1,-0.5 -1.2,-0.9 -0.2,-1.2 -1,-1.2 -1.9,-1.2 -1.6,-0.1 -3.2,-0.3 -4.7,-0.6 -0.3,-0.1 -0.7,-0.7 -0.7,-1.1 0,-0.3 0.5,-0.7 0.9,-0.9 0.2,-0.1 0.5,-0.1 0.8,-0.1 2.5,0.1 5,-0.2 7.4,1.2 0.6,0.3 1.7,0.3 2.2,-0.1 0.4,-0.3 0.3,-1.4 0.2,-2.1 -0.1,-0.6 -0.7,-1.2 -1.1,-1.6 -0.9,-1 -0.9,-1.4 0.1,-2.1 0.7,-0.5 0.8,-0.9 0.5,-1.6 -0.2,-0.5 -0.4,-1.1 -0.5,-1.6 -0.1,-0.8 -0.6,-1 -1.3,-1.2 -1.8,-0.5 -3.6,-1.1 -5.3,-1.8 -0.5,-0.2 -0.7,-1 -1,-1.6 0.5,-0.3 1,-0.8 1.6,-0.8 0.6,0 1.2,0.3 1.8,0.5 1,0.4 2.1,0.9 3.1,1.3 0.6,0.2 1,0.1 1.1,-0.6 0.3,-2.3 0.6,-4.7 0.9,-7 0.1,-0.8 -0.3,-1.1 -1.1,-0.9 -0.7,0.2 -1.4,0.4 -2.1,0.6 -2,0.4 -4.1,0.8 -6.1,1 -1.2,0.1 -2,-1 -1.7,-2.2 0.2,-1 1.1,-1.7 2.2,-1.2 2.3,1.1 4.3,-0.5 6.4,-0.6 0.3,0 0.5,-0.3 0.7,-0.6 0.9,-1 1.9,-2 0.9,-3.6 -0.1,-0.1 0,-0.3 0,-0.5 0.1,-1.3 -0.6,-1.8 -1.7,-2.2 -1,-0.4 -2,-1.1 -2.8,-1.9 -0.4,-0.4 -0.4,-1.4 -0.1,-1.9 0.2,-0.3 1.2,-0.4 1.8,-0.3 0.9,0.2 1.7,0.6 2.7,0.9 0.2,-0.9 0.4,-1.7 0.5,-2.2 -2.8,-0.7 -5.5,-1.3 -8.1,-2 -0.6,-0.2 -1.4,-0.4 -1.8,-0.9 -0.4,-0.5 -0.5,-1.3 -0.7,-2 0.6,-0.2 1.3,-0.6 1.9,-0.5 0.8,0.1 1.5,0.7 2.3,0.9 1.7,0.5 3.4,0.9 5.1,1.2 0.3,0.1 0.8,-0.2 1,-0.4 0.5,-0.9 0,-2.1 -1,-2.4 -2.4,-0.7 -4.7,-1.4 -7.3,-1 -1.9,0.3 -3.2,-1.4 -2.5,-3.2 0.2,-0.7 0.4,-1.3 0.7,-2.2 -0.9,-0.1 -1.6,-0.3 -2.2,-0.3 -3.3,0.2 -6.2,1.7 -9.1,3.1 -1.1,0.6 -2.3,1.3 -3.5,1.5 -2.3,0.4 -4.7,0.3 -6.9,1.3 -0.1,0 -0.2,0 -0.2,0 -3.4,0.1 -6.7,-0.3 -9.5,-2.4 -0.3,-0.2 -0.9,-0.3 -1.4,-0.2 -2.4,0.4 -4.7,1 -7.1,1.3 -0.7,0.1 -1.6,-0.1 -2.2,-0.4 -0.7,-0.3 -1.3,-0.3 -1.9,0.2 -1.2,1.3 -2.4,1.3 -3.8,0.2 -1.3,-0.9 -3,-0.8 -3.7,0.4 -0.8,1.4 -1.6,2.9 -1.7,4.4 -0.2,4.5 -0.7,9 0.8,13.4 0.4,1.3 0,2.6 -1.4,3.4 -0.5,0.3 -0.8,0.7 -1.2,1 1.3,2.7 1.3,5.6 1.7,8.4 0.1,0.4 -0.2,0.9 -0.4,1.3 -0.4,0.8 -0.3,1.5 0.3,2.2 1.1,1.1 1.3,2.4 0.7,3.8 -0.9,2.2 -1.2,4.5 -0.9,6.8 0.3,2 0.5,4 0.8,6.1 0.1,1 0.6,1.3 1.5,0.8 1.1,-0.6 2.3,-1.2 3.3,-1.9 0.9,-0.6 1.6,-0.9 2.6,-0.3 0.2,0.1 0.7,0.2 1,0 2.2,-1.6 4.7,-1.7 7.2,-1.4 1.9,0.2 3.7,-0.1 5.5,-0.8 0.5,-0.2 1.2,-0.3 1.7,-0.1 1,0.5 1.8,0.2 2.6,-0.4 1.3,-1.1 4.3,-1.5 5.4,-0.3 1.5,1.6 3.2,2.5 5.4,2.9 1.2,0.2 2.2,0.4 3.4,-0.1 0.7,-0.3 1.6,-0.5 2.4,-0.6 1.3,-0.1 2.5,0 3.8,-0.1 2.1,-0.1 4.3,-0.5 6.4,-0.4 3,0.2 6,0.8 9,1.3 1.5,0.4 1.9,0.1 2.1,-1.7 z M 357.3,540 c -0.2,0.4 -0.4,0.6 -0.5,0.9 -0.9,1.4 -1.5,1.6 -3,1 -1,-0.4 -3.6,0.3 -4.4,0.9 -0.5,0.4 -1.2,0.7 -1.9,0.7 -1.3,0 -2.5,-0.2 -3.8,-0.4 -0.8,-0.1 -1.5,-0.1 -1.5,0.9 0,1.1 0.7,1.1 1.5,1.1 1.4,0 2.7,-0.1 4.1,0 1.5,0.1 2.5,1.2 2.6,2.8 0.1,1.6 -0.3,2.1 -2,2.5 -0.4,0.1 -0.8,0.2 -1.2,0.2 -1.4,0 -2.8,0 -4.2,0.1 -0.7,0 -1.4,0 -1.8,1.1 0.6,0.1 1.2,0.3 1.7,0.3 1.7,0.1 3.4,0.2 5,0.3 0.9,0.1 1.6,0.5 1.7,1.5 0.1,1.1 -0.3,1.9 -1.4,2.2 -0.5,0.1 -1.1,0.2 -1.7,0.3 -1.3,0.2 -2.5,0.4 -3.8,0.6 -0.7,0.2 -1.6,0.5 -1.2,1.5 0.4,1 1.2,0.8 2,0.4 0.8,-0.4 1.5,-0.9 2.3,-1.2 1.4,-0.5 2.5,-0.2 3,0.8 0.6,1.2 0.3,2.7 -0.7,3.6 -0.9,0.8 -1.9,1.5 -2.8,2.3 -0.5,0.5 -0.9,1.2 -1.4,1.7 0.1,0.1 0.2,0.2 0.3,0.3 0.9,-0.3 1.8,-0.5 2.7,-0.8 2.1,-0.7 3.2,0.2 2.8,2.4 -0.2,0.8 -0.6,1.6 -0.8,2.4 -0.4,1.7 -1.3,2.7 -3.1,2.8 0,0 -0.1,0.1 -0.1,0.2 1,2.4 0.8,3.2 -1.5,4.4 -0.6,0.4 -1.3,0.6 -1.9,1 -0.4,0.3 -0.7,0.8 -1.1,1.2 0.1,0.1 0.2,0.2 0.2,0.3 0.4,-0.1 0.7,-0.3 1.1,-0.4 1,-0.5 2.1,-1 3.1,-1.5 0.9,-0.4 2,-0.7 2.6,0.1 0.4,0.6 0.3,1.7 0.3,2.6 0,0.9 -0.1,1.7 -0.2,2.6 0,0.7 0.3,1 1,1 1.2,0 2.3,0 3.5,0 0.6,0 1.2,0.1 1.7,-0.6 0.1,-0.2 1,-0.2 1.1,0 0.7,0.9 1.6,0.7 2.5,0.6 1.1,-0.1 2.2,-0.2 3.3,-0.2 1,-0.1 1.9,-0.1 2.9,-0.1 0.7,0 1.4,0 2.1,0 0.6,0.1 1.2,0.4 1.8,0.5 1.6,0.1 3.2,0.1 4.8,0.1 0.5,0 0.9,-0.3 1.4,-0.4 0.9,-0.2 1.7,-0.4 2.6,-0.4 0.8,0 1.6,0.3 2.4,0.4 0.6,0.1 1.3,0.1 1.9,0.2 2.8,0.2 5.5,0.5 8.3,-0.2 1,-0.3 2.1,-0.1 3.2,0 1.1,0.1 2.2,0.4 3.3,0.4 2.3,0 4.6,-0.1 6.8,-0.2 0.5,0 1,-0.4 1.6,-0.6 0.4,-0.1 0.8,-0.2 1.2,-0.1 0.4,0 0.8,0.4 1.1,0.3 1.3,-0.3 2.6,-0.6 3.8,-1 0.7,-0.3 1.2,-0.3 1.7,0.3 0.3,0.3 0.7,0.7 1.1,0.8 2.3,0.3 4,-0.8 5.2,-2.8 0.2,-0.3 0.3,-0.8 0.3,-1.1 -0.1,-1.6 -0.3,-3.2 -0.5,-4.8 -0.5,-0.1 -1,-0.1 -1.4,-0.2 -1.8,-0.3 -2.3,-1.2 -2.2,-3.3 0.1,-2 0.5,-2.3 2.4,-2.6 0.3,0 0.8,-0.4 0.9,-0.7 0.3,-1.2 0.5,-2.3 0.6,-3.5 0.1,-0.5 -0.2,-1.1 -0.3,-1.8 -0.8,0.7 -1.3,1.4 -1.9,1.7 -0.6,0.3 -1.5,0.4 -2.1,0.2 -0.5,-0.2 -0.8,-1.1 -1,-1.7 -0.2,-0.5 0,-1.1 0,-1.7 0,-1.4 0.6,-2.5 2,-2.9 0.9,-0.3 1.2,-0.9 1,-1.8 -0.3,-1.2 0.2,-2.1 1.2,-2.7 0.2,-0.2 0.4,-0.4 0.7,-0.6 -1.2,-0.4 -2.6,-0.5 -2.8,-1.9 -0.3,-1.8 -0.4,-3.7 -0.5,-5.6 0,-1.2 0.6,-1.9 1.7,-2.3 0.5,-0.2 1.1,-0.3 1.5,-0.7 0.3,-0.2 0.5,-0.7 0.5,-1.1 0,-0.2 -0.6,-0.5 -0.9,-0.5 -2.5,-0.5 -2.8,-0.9 -2.7,-3.4 0,-1 -0.5,-1.5 -1.5,-1.3 -2.4,0.6 -4.8,0.9 -7,2.3 -0.8,0.5 -1.8,1 -2.7,1.3 -0.7,0.3 -1.6,0.5 -2.3,0.4 -1.5,-0.2 -3.2,-0.3 -4.6,-1 -2.3,-1.1 -4.6,-1.4 -7.1,-1.5 -1.6,-0.1 -2.9,0.2 -4.1,1.4 -0.5,0.4 -1.2,0.6 -1.9,0.8 -0.9,0.2 -1.8,0.2 -2.6,0.4 -1.1,0.3 -2.2,0.7 -3.3,1.1 -2.7,1.2 -5.3,0.8 -7.8,-0.6 -0.1,-0.1 -0.3,-0.1 -0.4,-0.2 -3,-1.3 -6.2,-1.1 -9.2,-0.7 -1.1,-0.1 -2.2,0.1 -3.3,-1.1 z M 107,382 c 1.4,1.4 1.3,1.4 1.3,3 0,0.2 0.2,0.5 0.4,0.7 0.3,0.4 0.7,0.6 1,1 0.8,0.9 0.7,1.7 -0.4,2.3 -0.4,0.2 -0.7,0.4 -1.1,0.6 0,0.1 0.1,0.2 0.1,0.3 0.7,-0.2 1.4,-0.5 2.2,-0.6 1.4,-0.2 2.8,-0.4 4.1,-0.3 0.8,0 1.5,0.5 1.5,1.5 0,1.1 -0.8,1.4 -1.6,1.6 -0.3,0.1 -0.6,0.1 -0.8,0.1 -1.6,0.2 -3.3,0.3 -4.9,0.5 -0.4,0 -0.7,0.2 -1.1,0.3 0,0.1 0,0.3 0,0.4 0.9,0.1 1.8,0.2 2.7,0.3 1,0.1 2,0.2 2.9,0.5 0.9,0.3 1.4,0.9 1.4,1.9 -0.1,0.9 -0.8,1.3 -1.5,1.4 -1.3,0.2 -2.5,0.3 -3.8,0.5 -0.4,0.1 -0.8,0.1 -1.4,0.2 0.9,1.3 0.9,2.3 0.3,3.6 -0.9,1.8 0.3,3.6 2.4,3.6 1.3,0 2.6,0.1 3.8,0.3 1,0.2 2,0.9 1.7,2 -0.2,1 -1.3,1.1 -2.3,1 -1.2,-0.1 -2.5,-0.2 -3.7,-0.2 -0.5,0 -1,0.3 -1.6,0.5 0.3,0.4 0.4,0.6 0.6,0.6 1.1,0.3 1.8,0.9 1.9,2.2 0,0.2 0.6,0.5 1,0.6 1,0.1 1.9,-0.2 2.9,0 0.6,0.1 1.5,0.8 1.5,1.1 -0.1,0.6 -0.7,1.2 -1.2,1.7 -0.2,0.2 -0.8,0.2 -1.2,0.2 -1.8,0.1 -3.5,0.1 -5.3,0.2 -1.7,0.1 -2.2,0.5 -2.2,2 0,2.3 0.5,3 2.2,3.1 1.2,0 2.2,0.4 2.9,1.4 0.8,1 1.6,1.1 2.5,0.3 1.9,-1.7 3.9,-1.8 6.2,-1 2.3,0.8 4.8,0.9 7.2,0.2 1,-0.3 2.1,-0.3 2.9,0.5 0.9,0.8 1.8,0.7 2.9,0.3 1,-0.4 2.2,-0.6 3.4,-0.5 2.9,0.1 5.7,0.5 8.6,0.7 0.8,0 1.5,-0.4 2.3,-0.4 0.7,-0.1 1.5,0 2.3,0 0.4,0 0.9,0.3 1.2,0.1 1.6,-0.8 3,-0.5 4.5,0.3 0.9,0.5 1.8,0.5 2.9,0.2 0.9,-0.2 2,-0.3 2.9,-0.1 1.9,0.4 3.5,0.1 4.9,-1.5 1.3,-1.6 1.9,-3.1 0.8,-5.1 -0.5,-0.8 -0.7,-2.2 -0.3,-3 0.5,-1.3 0.9,-2.5 0.6,-3.8 -0.8,-4.2 0.7,-7.9 2,-11.9 -1.3,-1.5 -1.4,-3.5 -0.9,-5.6 0.1,-0.5 0.3,-1 0.2,-1.4 -0.5,-1.8 -0.1,-3.6 0.4,-5.3 1.1,-3.8 0.2,-7 -2.4,-9.9 -0.5,-0.6 -1.3,-0.9 -2,-1.2 -1.8,-0.9 -3.7,-1.7 -5.5,-2.5 -0.7,-0.3 -1.4,-0.5 -2.1,-0.5 -1.5,0.1 -3,0.4 -4.5,0.5 -2.5,0.3 -4.9,0.7 -7.4,0.9 -0.9,0.1 -1.9,-0.2 -2.8,-0.4 -0.6,-0.1 -1.2,-0.4 -1.7,-0.3 -1.3,0.3 -2.6,0.8 -3.8,1.3 -1.5,0.7 -2.9,1.1 -4.5,0.9 -1.3,-0.2 -2.7,-0.5 -4,-0.6 -0.9,-0.1 -1.9,-0.1 -2.7,0.2 -1.5,0.6 -2.8,0.4 -4.2,-0.5 -1.2,-0.8 -2.5,-1.4 -3.9,-1.7 -2.1,-0.4 -4.1,-0.8 -6,-1.9 -1.7,-1.1 -3.1,-0.5 -4.1,1.4 0.2,0.2 0.4,0.4 0.7,0.6 1.1,1 1.1,1.4 0.1,2.5 -0.2,0.2 -0.3,0.3 -0.5,0.5 -1.1,1.1 -1.1,1.5 -0.3,2.8 0.6,0.9 1.3,0.9 2.2,0.8 1.3,-0.2 2.5,-0.6 3.8,-0.7 1.1,-0.1 2,0.8 2.1,1.7 0.1,1.2 -0.8,1.4 -1.6,1.6 -0.5,0.1 -1,0.2 -1.5,0.3 -2,0.3 -3.7,0.7 -5.6,1.1 z M 374.8,191 c -8.3,0 -16.5,0.1 -24.8,0.1 -0.7,0 -1.1,0.4 -1,1 0.2,1 0.3,2.2 0.7,3.1 0.8,1.5 0.6,2.8 -0.4,4 -1.2,1.6 -1.2,3.3 -0.5,5 1.2,3.2 1.4,6.4 0.7,9.6 -0.2,0.7 0,1.5 0,2.4 1.6,-0.5 3.1,-0.9 4.5,-1.4 1.6,-0.5 3.2,-0.7 4.9,-0.1 0.5,0.2 1.3,-0.1 1.7,-0.5 0.9,-0.8 1.9,-1.1 3.1,-0.9 1.3,0.3 1.8,0 2.2,-1.4 0.3,-1.2 1,-1.6 2.2,-1.4 0.5,0.1 1,0.1 1.4,0.2 2.2,0.6 4.1,0.3 5.9,-1.2 1.9,-1.5 4.1,-2 6.5,-1.9 0.5,0 1.1,0.1 1.5,0 1,-0.4 2.3,-0.7 2.9,-1.4 1.3,-1.7 3,-2.5 5,-2.9 2.2,-0.4 4.4,-1 6.5,-1.8 1.5,-0.6 2.7,-1.9 4.4,-2 0.3,0 0.6,-0.2 0.8,-0.5 0.9,-1.1 2,-1.2 3.3,-1.1 0.3,0 0.6,0 1,-0.1 -0.1,-0.6 -0.2,-1.2 -0.2,-1.7 0,-0.9 -0.1,-1.6 -1.3,-1.8 -0.8,-0.1 -1.2,-0.9 -1,-1.7 0.2,-0.5 0.8,-0.8 1.2,-1.2 0.2,-0.1 0.4,-0.1 0.7,-0.2 0,-0.1 0,-0.2 0,-0.3 -4.1,0 -8.2,0 -12.4,0 0,0.3 0,0.6 -0.1,0.9 -0.5,2.7 -1.7,5 -4.4,6.2 -0.8,0.3 -1.5,0.7 -2.3,1 -2.5,0.9 -4.9,1 -7.2,-0.7 -2.2,-1.9 -4,-4.5 -5.5,-7.3 z m -229.1,1.3 c 0,0.1 -0.1,0.3 -0.1,0.4 1,0.3 2.1,0.6 3.1,0.7 2.4,0.2 4.8,0.1 7.1,0.2 0.3,0 0.6,0.1 0.9,0.2 2.2,1 4.5,1.2 6.9,0.8 3,-0.4 5.9,-0.2 8.3,2.1 0.7,0.7 1.6,0.6 2.5,0.3 0.7,-0.3 1.5,-0.6 2.3,-0.6 0.7,0 1,-0.2 1.5,-0.7 1.1,-1.1 0.6,-2.3 0.5,-3.6 -11,0.2 -22,0.2 -33,0.2 z m -9,0.1 c -4.2,0 -8.4,0 -12.6,0 0,0.1 0,0.2 0,0.3 4.2,0.7 8.4,-0.5 12.6,-0.3 z m 207.1,380.8 c -0.7,-0.2 -1.3,-0.3 -1.9,-0.4 0,0.1 -0.1,0.4 -0.1,0.4 0.6,0.1 1.2,0.2 1.8,0.3 0,0 0,-0.1 0.2,-0.3 z"
           id="path36"
           inkscape:connector-curvature="0"
           style="fill:#1a1a1a" /><path
           d="m 136.7,192.4 c -4.2,-0.2 -8.4,1 -12.6,0.3 0,-0.1 0,-0.2 0,-0.3 4.2,0 8.4,0 12.6,0 z"
           id="path38"
           inkscape:connector-curvature="0"
           style="fill:#ffffff" /><path
           d="m 343.8,573.2 c -0.1,0.2 -0.2,0.3 -0.2,0.3 -0.6,-0.1 -1.2,-0.2 -1.8,-0.3 0,0 0,-0.3 0.1,-0.4 0.6,0.1 1.2,0.2 1.9,0.4 z"
           id="path40"
           inkscape:connector-curvature="0"
           style="opacity:0.43999999;enable-background:new" /><path
           d="m 127.5,436.1 c 8.5,-0.6 15.9,8.9 14.2,17 -0.4,1.6 -0.7,3.3 -1.2,4.9 -2.4,8.2 -9.5,11.7 -17.4,8.8 -4.9,-1.9 -8.7,-5.1 -9.5,-10.5 -0.9,-6 0.5,-11.6 4.3,-16.3 2.5,-3 6,-3.9 9.6,-3.9 z"
           id="path42"
           inkscape:connector-curvature="0" /><path
           d="m 140.5,337 c -0.1,5.7 -1.1,10.7 -4.4,15 -4.5,5.7 -11.5,6 -16.7,0.9 -2.6,-2.6 -3.8,-5.7 -4,-9.3 -0.1,-3.9 -0.4,-7.7 0.4,-11.6 0.6,-3 1.6,-5.8 3.3,-8.3 3.9,-5.9 12.2,-6.4 16.8,-1.2 2.7,3.1 3.8,6.8 4.3,10.7 0.2,1.4 0.3,2.8 0.3,3.8 z"
           id="path44"
           inkscape:connector-curvature="0" /><path
           d="m 129.9,266 c 4.7,0.1 8,0.9 10.1,4 1,1.4 1.5,3.2 2,4.9 0.5,1.7 0.8,3.4 0.9,5.2 1,9.3 -5.5,16.5 -12,18 -6.1,1.3 -16.1,-3.3 -15.3,-13.1 0.5,-5.3 2.3,-10.1 5.7,-14.2 2.7,-3.1 5.7,-5 8.6,-4.8 z"
           id="path46"
           inkscape:connector-curvature="0" /><path
           d="m 404.9,400.1 c 0,6.4 -0.6,11.7 -3.1,16.6 -2.8,5.5 -7.4,6.8 -12.6,3.3 -4.1,-2.7 -6,-6.7 -6.6,-11.3 -1.1,-7.7 1.2,-14.6 5.7,-20.7 3.3,-4.5 9.6,-4.5 13.2,-0.4 1.8,2.1 2.6,4.6 3,7.3 0.1,2.2 0.3,4.2 0.4,5.2 z"
           id="path48"
           inkscape:connector-curvature="0" /><path
           d="m 152.6,220.4 c -0.1,7.2 -3.5,12.8 -7.9,17.8 -0.9,1 -2.3,1.7 -3.6,2 -3.9,1 -7.3,-0.1 -9.9,-3.2 -2.6,-3.1 -3.9,-6.6 -3.8,-10.7 0.2,-7.4 1.9,-14.2 6.8,-19.9 2.6,-3 5.6,-4.4 9.4,-3.6 4,0.9 6.6,3.5 7.4,7.5 0.7,3.3 1.1,6.7 1.6,10.1 z"
           id="path50"
           inkscape:connector-curvature="0" /><path
           d="m 399.2,288.1 c 0.1,2.9 -0.5,5.6 -1.6,8.3 -3.2,7.8 -12.1,10.3 -18.8,5.1 -3.2,-2.5 -4.9,-5.8 -4.8,-10 0.2,-4.3 0.8,-8.4 3.1,-12.1 2.7,-4.3 6.7,-6.3 11.7,-6.2 3.8,0 7.5,2.9 8.9,6.8 1.1,2.6 1.6,5.3 1.5,8.1 z"
           id="path52"
           inkscape:connector-curvature="0" /><path
           d="m 400.7,517.7 c -0.2,6.7 -2.9,12 -8.9,15.2 -1.6,0.8 -3.4,1.4 -5.2,1.8 -2.8,0.6 -5.3,-0.1 -7.6,-1.8 -5.4,-4 -7.9,-9.4 -8.1,-16 0,-5.6 1.7,-10.6 5.4,-14.6 3.8,-4 8.5,-5.1 13.7,-4.3 2.5,0.4 4.6,1.7 5.9,4 2.8,4.9 4.9,10 4.8,15.7 z"
           id="path54"
           inkscape:connector-curvature="0" /><path
           d="m 126.3,530.7 c -6,0.2 -9.8,-2.3 -12.1,-7.7 -2.1,-4.9 -1.9,-9.9 -0.2,-14.7 0.9,-2.5 2.2,-4.9 3.5,-7.2 4.3,-7.5 14,-5.9 17.5,0.6 2.4,4.4 2.6,9.1 2.1,14 -0.3,1.8 -0.5,3.6 -0.9,5.3 -0.5,2.4 -1.5,4.5 -3,6.5 -2,2.4 -4.5,3.2 -6.9,3.2 z"
           id="path56"
           inkscape:connector-curvature="0" /><path
           d="m 396.9,469.4 c -1.4,-0.1 -2.8,-0.2 -4.2,-0.4 -5.5,-0.9 -9.8,-5.4 -10.7,-11.4 -0.7,-4.3 -0.1,-8.5 1.5,-12.6 1.5,-3.7 5.9,-7.9 11.5,-6.9 1.4,0.3 3,0.2 4.4,0.6 4.4,1.3 6.8,4.5 7.5,8.9 0.3,2.2 0.7,4.3 0.8,6.5 0.1,1.2 -0.2,2.4 -0.5,3.6 -0.5,2.1 -1,4.3 -1.8,6.3 -1.2,3.5 -3.8,5.2 -7.5,5.2 -0.3,0.1 -0.6,0.1 -1,0.2 0,-0.1 0,-0.1 0,0 z"
           id="path58"
           inkscape:connector-curvature="0" /><path
           d="m 375.6,234.7 c 0,-4.4 1,-8.5 3.4,-12.2 2.5,-3.8 6.5,-5.5 11,-4.6 1.8,0.3 3.5,1.2 4.6,2.6 4.9,6.6 6.8,13.8 3.8,21.8 -1.7,4.6 -5.1,7.6 -9.6,9.4 -3.3,1.4 -6.6,0.4 -8.9,-2.4 -2.2,-2.7 -3.2,-5.9 -3.7,-9.2 -0.4,-1.8 -0.5,-3.6 -0.6,-5.4 z"
           id="path60"
           inkscape:connector-curvature="0" /><path
           d="m 141.9,563.4 c -0.1,4.3 -1.4,8.1 -4.8,10.9 -3.5,2.9 -9,3.1 -12.8,0.5 -2.1,-1.4 -3.1,-3.5 -3.6,-5.9 -0.9,-4.4 -0.9,-8.9 -0.1,-13.3 0.6,-2.9 4.3,-6 7.4,-6.1 1.4,-0.1 2.9,0 4.3,0.2 2.6,0.3 4.7,1.7 6.2,3.9 2.2,2.9 3.5,6.2 3.4,9.8 z"
           id="path62"
           inkscape:connector-curvature="0" /><path
           d="m 398.8,344.6 c -0.1,3.2 -0.7,6.2 -1.6,9.2 -2.4,8.3 -10.5,10.7 -17.4,6.6 -4,-2.4 -6,-6.1 -6.5,-10.7 -0.7,-6.3 1.4,-11.7 4.9,-16.7 1.8,-2.5 4.6,-3.4 7.5,-3.6 1.9,-0.1 4,0.2 5.9,0.8 3.4,1.1 5.2,3.7 6,7.1 0.6,2.3 0.9,4.8 1.2,7.3 z"
           id="path64"
           inkscape:connector-curvature="0" /><path
           d="m 382.2,566.8 c -0.2,-4.9 0.8,-9.5 3.3,-13.6 2.5,-4 6.1,-6.5 11.1,-6.5 3.8,0 6.4,1.9 8,5.3 2.6,5.4 3,11.2 2.1,17 -0.4,2.7 -1,5.4 -2,7.8 -2.1,5.3 -7.3,7.3 -12.5,4.9 -0.8,-0.3 -1.5,-0.8 -2.2,-1.1 -5.1,-2.5 -7.7,-6.7 -7.7,-12.4 -0.1,-0.4 -0.1,-0.9 -0.1,-1.4 z"
           id="path66"
           inkscape:connector-curvature="0" /><path
           d="m 143.4,396.8 c -0.3,2.1 -0.4,4.5 -0.9,6.8 -0.7,3.8 -2.7,7 -5.6,9.5 -2.1,1.9 -4.6,2.2 -7.2,1.3 -6.1,-1.9 -10.5,-8.8 -9.7,-15.2 0.2,-1.6 0.5,-3.2 0.8,-4.8 0.9,-4.6 3.6,-7.9 7.5,-10.3 5,-3.2 11.8,-0.1 13.6,4.6 0.4,1 0.7,2.1 0.9,3.2 0.4,1.6 0.5,3.1 0.6,4.9 z"
           id="path68"
           inkscape:connector-curvature="0" /></g></g></g>
</svg>