<?xml version="1.0" encoding="UTF-8" standalone="no"?>
<!-- Generator: Adobe Illustrator 23.0.3, SVG Export Plug-In . SVG Version: 6.00 Build 0)  -->

<svg
   xmlns:osb="http://www.openswatchbook.org/uri/2009/osb"
   xmlns:dc="http://purl.org/dc/elements/1.1/"
   xmlns:cc="http://creativecommons.org/ns#"
   xmlns:rdf="http://www.w3.org/1999/02/22-rdf-syntax-ns#"
   xmlns:svg="http://www.w3.org/2000/svg"
   xmlns="http://www.w3.org/2000/svg"
   xmlns:xlink="http://www.w3.org/1999/xlink"
   xmlns:sodipodi="http://sodipodi.sourceforge.net/DTD/sodipodi-0.dtd"
   xmlns:inkscape="http://www.inkscape.org/namespaces/inkscape"
   version="1.1"
   x="0px"
   y="0px"
   viewBox="0 0 253.6 356.7"
   style="enable-background:new 0 0 253.6 356.7;"
   xml:space="preserve"
   id="svg354"
   sodipodi:docname="kidney.nephron.svg"
   inkscape:version="0.92.2 5c3e80d, 2017-08-06"><metadata
     id="metadata360"><rdf:RDF><cc:Work
         rdf:about=""><dc:format>image/svg+xml</dc:format><dc:type
           rdf:resource="http://purl.org/dc/dcmitype/StillImage" /></cc:Work></rdf:RDF></metadata><defs
     id="defs358"><linearGradient
       id="linearGradient3090"
       osb:paint="solid"><stop
         style="stop-color:#000000;stop-opacity:1;"
         offset="0"
         id="stop3088" /></linearGradient><linearGradient
       inkscape:collect="always"
       xlink:href="#linearGradient3090"
       id="linearGradient3092"
       x1="9.3000002"
       y1="48.120343"
       x2="32.3"
       y2="48.120343"
       gradientUnits="userSpaceOnUse" /></defs><sodipodi:namedview
     pagecolor="#ffffff"
     bordercolor="#666666"
     borderopacity="1"
     objecttolerance="10"
     gridtolerance="10"
     guidetolerance="10"
     inkscape:pageopacity="0"
     inkscape:pageshadow="2"
     inkscape:window-width="1292"
     inkscape:window-height="778"
     id="namedview356"
     showgrid="false"
     inkscape:zoom="0.66162039"
     inkscape:cx="-254.83878"
     inkscape:cy="420.18052"
     inkscape:window-x="-10"
     inkscape:window-y="9"
     inkscape:window-maximized="0"
     inkscape:current-layer="LAYER_EFO" /><style
     type="text/css"
     id="style2" />

	<g
     id="LAYER_EFO"
     inkscape:label="Layer_EFO">
	<g
       id="UBERON_0001228"
       style="fill:none"><path
               d="m 56.3,324.6 c 8,5.9 18.8,6.6 28.1,4.3 6.7,-1.7 12.5,-6.1 18.9,-8.9 6.4,-2.8 15.1,-3.9 21.4,-0.7 2.5,1.3 3.6,2.6 5.9,4.1 8.4,4.7 13.7,4.6 20,4.2 6.4,-0.4 12.7,-1.9 18.7,-5.2 -5.4,13.4 -15.8,20.7 -28.9,26.7 -13,7.1 -39.8,6.4 -53.5,0.6 -14,-4.8 -24.9,-15.2 -30.6,-25.1"
               inkscape:connector-curvature="0" /></g>
	<g
       id="UBERON_0000074"
       style="fill:none"><g
         id="g31"><g
           id="g29"><g
             id="g27"><defs
               id="defs20"><rect
                 id="SVGID_3_"
                 x="12.3"
                 y="41.299999"
                 width="15"
                 height="13" /></defs><clipPath
               id="SVGID_4_"><use
                 xlink:href="#SVGID_3_"
                 style="overflow:visible"
                 id="use22"
                 x="0"
                 y="0"
                 width="100%"
                 height="100%" /></clipPath><path
               class="st1"
               d="m 14.3,46.3 c 0.3,-1.7 2.5,-4.1 3.1,-4.2 -0.6,0.3 -1.8,1.1 -0.5,0.3 0.6,-0.4 1.8,-0.8 2.4,-1 0.3,-0.1 1.1,-0.1 1.3,0 0.2,0.1 0.9,0.4 0.9,0.9 0,0 0.3,-0.5 0.5,0.3 0.5,-0.1 1.7,-0.2 2.1,0.1 0.3,0.2 0.6,0.6 0.6,0.6 l 0.2,0.9 c 0.5,0.1 1.1,0.1 1.4,0.6 0.7,0.6 0.6,2 0.2,2 v 0 c 0.9,-1 1.1,1.7 0.7,2.9 -0.1,1 -0.6,1.3 -0.9,2.1 l -0.4,0.4 c -0.2,0.4 -0.2,0.3 -0.5,0.7 -0.2,0.3 -0.4,0.4 -0.9,0.7 -0.4,0.2 -1.1,0.3 -1.4,0.6 -1.3,0.2 -1.7,0.3 -3.1,0 C 19.3,54 17.8,52.9 17.2,52.4 15.3,50.5 15.1,50.6 15.1,50.6 14.2,50.8 14.9,51.1 14,52 l -1.3,-2.1 c 0,0 -0.4,-0.4 0,0 l -0.4,-0.6 c 0,0 -0.3,-0.1 -0.1,-1.9 l 2.1,-1.1"
               clip-path="url(#SVGID_4_)"
               id="path25"
               inkscape:connector-curvature="0" /></g></g></g></g>
	<path
       id="UBERON_0001288"
       class="st6"
       d="m 40.3,83.8 c 3.6,0.5 8.2,1 10.4,3.2 -3.2,3.7 -4.9,8.6 -4.5,13.5 0.2,3.1 1.2,6.4 -0.2,9.2 -0.4,0.8 -1,1.4 -1.4,2.2 -0.4,0.9 -0.5,2 -0.6,3 -1.5,22 1.2,44.4 2.5,66.2 0.4,5 0.9,10.1 2.1,15 0.4,1.7 1,3.4 2.1,4.7 1.1,1.3 3,2.1 4.7,1.5 1.9,-0.7 2.6,-2.2 3,-4.2 0.8,-4.1 0.8,-8.6 0,-13.6 -0.1,-0.7 -0.8,-0.7 -1.2,-1.3 -0.5,-0.6 -1.1,-1.1 -1.6,-1.7 -2.1,-2.5 -1.3,-6.2 -0.8,-9.4 2.8,-16 -3.2,-32.3 -1.8,-48.5 0.6,-6.3 2.3,-12.5 2.8,-18.9 C 56.3,98.4 55,90 51,87.2 c 2.3,-2 5.4,-4 8.4,-4.5 4.8,6 5.7,14.4 4.9,22 -0.7,7.7 -2.2,15.3 -3.2,22.9 -2.1,16.5 7,33.2 3.8,49.5 -0.5,2.5 -0.4,5.2 -2.8,5.9 0.7,3.5 0.6,7.7 0.8,11.3 0.1,2.5 -0.5,4.5 -1.3,6.9 -0.7,2.4 -1.6,5 -4.5,5.7 -4,1 -8.4,-0.4 -10.8,-3.8 -2.1,-3.7 -1.9,-6.6 -2.9,-11.4 -0.5,-9.8 -1.4,-20 -2,-31.1 -0.6,-15.2 -1.1,-29.2 -2,-44.9 0,-0.9 0.4,-1.8 0.1,-2.6 -0.3,-0.9 -1,-2.5 -1.6,-3.2 -2.8,-4 -3,-7.7 -2.2,-12.6 0.8,-4.9 1.9,-7.7 3.8,-12.2"
       inkscape:connector-curvature="0"
       style="display:inline;fill:none" />
	<g
       id="UBERON_0001292"
			 style="fill:none"
       inkscape:label="UBERON_0001292"><g
         style="display:inline;"
         id="UBERON_0001292_1_"><g
           id="g62"><g
             id="g60"><g
               id="g58"><defs
                 id="defs35"><rect
                   height="65"
                   width="40.299999"
                   y="14.6"
                   x="26.1"
                   id="SVGID_5_" /></defs><clipPath
                 id="SVGID_6_"><use
                   height="100%"
                   width="100%"
                   y="0"
                   x="0"
                   id="use37"
                   style="overflow:visible"
                   xlink:href="#SVGID_5_" /></clipPath><g
                 id="g56"
                 clip-path="url(#SVGID_6_)"
                 class="st2"><g
                   id="g54"><g
                     id="g52"><g
                       id="g50"><g
                         id="g48"><defs
                           id="defs41"><rect
                             height="17.6"
                             width="25.4"
                             y="35.099998"
                             x="31.299999"
                             id="SVGID_7_" /></defs><clipPath
                           id="SVGID_8_"><use
                             height="100%"
                             width="100%"
                             y="0"
                             x="0"
                             id="use43"
                             style="overflow:visible"
                             xlink:href="#SVGID_7_" /></clipPath><path
                           inkscape:connector-curvature="0"
                           id="path46"
                           clip-path="url(#SVGID_8_)"
                           d="m 31.6,42.6 c 1.3,1.2 0.9,6.2 0.5,9.6 2.9,-1 18.4,-1.5 23.4,-11 1,-1.3 1.7,-2.6 1.4,-3.7 -0.2,-0.6 -0.9,-0.6 -1.4,-1 -1.3,-1.1 -3.8,-3.1 -5.5,-3 -0.5,0 -1.1,1.2 -1.5,1.4 -0.4,0.3 0.3,-0.4 0,0 -1.3,1.8 -1.8,5.4 -7.1,7.5 -2.5,1.6 -4.8,1.5 -7.6,1.4"
                           class="st3" /></g></g></g></g></g></g></g></g><g
           id="g92"><g
             id="g90"><g
               id="g88"><defs
                 id="defs65"><rect
                   height="65"
                   width="40.299999"
                   y="14.6"
                   x="26.1"
                   id="SVGID_9_" /></defs><clipPath
                 id="SVGID_10_"><use
                   height="100%"
                   width="100%"
                   y="0"
                   x="0"
                   id="use67"
                   style="overflow:visible"
                   xlink:href="#SVGID_9_" /></clipPath><g
                 id="g86"
                 clip-path="url(#SVGID_10_)"
                 class="st4"><g
                   id="g84"><g
                     id="g82"><g
                       id="g80"><g
                         id="g78"><defs
                           id="defs71"><rect
                             height="65"
                             width="40.299999"
                             y="14.6"
                             x="26.1"
                             id="SVGID_11_" /></defs><clipPath
                           id="SVGID_12_"><use
                             height="100%"
                             width="100%"
                             y="0"
                             x="0"
                             id="use73"
                             style="overflow:visible"
                             xlink:href="#SVGID_11_" /></clipPath><path
                           inkscape:connector-curvature="0"
                           id="path76"
                           clip-path="url(#SVGID_12_)"
                           d="m 50.5,27.4 c 2.7,-0.7 5.9,-0.5 8.5,0.6 0.3,-5.4 -2.1,-11.1 -9.7,-12.9 -6.4,-1.8 -12.7,0.3 -17.7,4.7 -1.8,1.5 -4.3,4.5 -5,6.6 -0.8,2.1 -0.1,4.4 1.3,6.2 1.4,1.9 3.9,3 6.3,3.3 2.4,0.4 5,0.1 7.6,-0.2 l 6.1,-0.6 c 2.3,-0.3 4.9,-0.5 7,0.4 2.2,0.9 3.3,3.4 3.8,5.5 0.5,2.3 0.5,4 0.5,6.1 -0.1,5.3 -0.6,9.9 -1.9,15.2 -1.2,5.1 -3.3,11.1 -7.7,14.7 2.4,1.2 4.8,1.8 7.6,2.6 4.8,-5 8,-7.8 9.2,-17 1.7,-6.2 1.2,-14.3 0.2,-20.7 -0.3,-2.8 -0.7,-6.3 -2,-8.8 -1.2,-3 -3.1,-5 -6.4,-5.6 -2.7,-1.4 -6.1,-1.4 -9.1,-0.6 -2.9,0.7 -6.8,2 -9.9,2.6 -1.7,-0.1 -2.9,1 -4.6,-0.4 -1.1,-1.1 -1.1,-2.1 0.9,-4.6 1.9,-2.4 6.6,-4.4 9.9,-3.7 3.2,0.7 4.9,3.9 4.7,6.9"
                           class="st5" /></g></g></g></g></g></g></g></g></g><g
         style="display:inline;"
         id="UBERON_0001292"><g
           id="g108"><g
             id="g106"><g
               id="g104"><defs
                 id="defs97"><polygon
                   points="92.3,23.3 92.2,62.3 65.2,62.3 65.3,23.3 "
                   id="SVGID_13_" /></defs><clipPath
                 id="SVGID_14_"><use
                   height="100%"
                   width="100%"
                   y="0"
                   x="0"
                   id="use99"
                   style="overflow:visible"
                   xlink:href="#SVGID_13_" /></clipPath><path
                 inkscape:connector-curvature="0"
                 id="path102"
                 clip-path="url(#SVGID_14_)"
                 d="m 90.6,32 c 0,0 1.8,-3 1.6,-5.6 -0.1,-1.8 -0.1,-1.8 -0.4,-2.1 0,0 0.2,0.3 0,0 0,0 -3.5,-1.4 0,0 0,0 -7.6,-3.6 -13.1,2.8 -1.1,1.2 -2.7,5.1 -1.4,6.1 0,0 1.4,-0.3 2,-0.1 2,0.7 2.2,2.5 3.1,4.2 1.2,2.4 -0.5,4.7 0.5,7.2 2.9,1.4 2.5,2.3 2.5,3.3 0.4,1.8 0.3,3.4 -2.4,3.1 -0.4,0 0.3,0.2 0,0 -1.1,-1 -1.8,-2.5 -1.6,-3.8 0.3,-1.4 1.1,-2.6 1.5,-3.9 0.7,-2.4 0.4,-5.1 -0.7,-7.4 -0.6,-1.2 -1.4,-2.3 -2.8,-2.8 -1.9,-0.7 -4.8,-0.8 -6.3,0.4 -1.8,1.4 -3.1,3.4 -3.8,5.4 -1.1,3.8 -0.5,5.9 -1.2,11.7 -0.6,1.1 -1.4,1.8 -1.3,3.1 -0.3,4.3 0.1,5.2 -0.5,8.1 1.9,-1.2 3.5,-2.3 5.1,-3.9 1.1,-1 2.1,-2.3 2.6,-3.6 0.9,-2.4 0.8,-5.2 0.4,-7.7 -0.4,-2.5 -0.9,-3.1 0.3,-5.4 -0.7,2 -0.7,4.4 -0.3,7.1 0.4,3.7 0.8,6.6 4,9.1 3.1,2.5 8,2 10.8,-0.4 3.1,-2.6 3.6,-6.9 2.3,-10.6 -1.3,-3.6 -3.3,-6.2 -5.4,-10.2 -0.3,-1 -0.7,-3.3 1.1,-4 0.6,-0.8 2.3,-0.3 3.4,-0.1 1.2,0.3 -1.7,-1.8 0,0"
                 class="st7" /></g></g></g></g></g>

	<g
       id="UBERON_0001230"
style="fill:none"><g
         id="g122"><g
           id="g120"><g
             id="g118"><defs
               id="defs112"><rect
                 id="SVGID_15_"
                 x="9.3000002"
                 y="36.299999"
                 width="23"
                 height="24"
               /></defs><clipPath
               id="SVGID_16_"><use
                 xlink:href="#SVGID_15_"
                 style="overflow:visible;fill:url(#linearGradient3092);fill-opacity:1"
                 id="use114"
                 x="0"
                 y="0"
                 width="100%"
                 height="100%" /></clipPath><path
               id="UBERON0001230"
               class="st8"
               d="m 9.3,41.5 h 0.4 c 0,0 0.4,2.1 2.7,1.7 0.9,-0.1 1.6,-0.5 2.4,-0.7 2.3,-0.7 4.9,-1 7.1,-0.1 2.6,0.6 4.7,2.9 4.4,5.8 0,1.5 -0.2,3.1 -1.1,4.2 -0.9,1.1 -1.6,1.7 -3,1.9 -2.4,0.4 -3.1,0.3 -7.1,-0.1 -0.9,-0.4 -2,-1.1 -2.8,-1 -0.8,0.1 -2.7,1.3 -3,2 -0.3,1.8 0.7,2.4 1.4,3.3 1.1,0.9 2.7,1.2 4.2,1.2 4.1,0.1 6.9,0.6 10.4,-0.5 2.1,-0.7 3.8,-1.6 4,-2 2.1,-2.2 2.5,-2.9 2.9,-5 0.2,-2.2 1,-7.8 -0.6,-9.6 -0.5,-0.6 -1.2,-1.4 -1.7,-2 -0.7,-0.8 -1.3,-1.2 -2.1,-1.8 -0.6,-0.4 -1.2,-0.7 -1.9,-1 -1.6,-1.1 -8.5,-2.2 -12,-0.8 -2.5,1.2 -5.9,2.4 -4.2,4.5"
               clip-path="url(#SVGID_16_)"
               inkscape:connector-curvature="0" /></g></g></g></g>

	<path
       id="UBERON_0005097"
       class="st9"
       style="fill:none"
       d="m 91.5,23.6 c 0.8,2.3 0,5.1 -1.1,7.5 5.1,3.6 8.5,8.6 11.5,14.2 1.8,-0.9 4.6,-1.6 6.4,-2.5 -1.6,-5.4 -4.7,-11.9 -9.2,-15.3 -2.4,-1.8 -4.8,-3.2 -7.6,-4.2 z"
       inkscape:connector-curvature="0" />

	<g
       id="UBERON_0004639"
       style="fill:none"
       inkscape:label="UBERON_0004639"><g
         inkscape:label="UBERON_0004639"
         id="UBERON_0004639_1_"><g
           id="g138"><g
             id="g136"><g
               id="g134"><defs
                 id="defs127"><polygon
                   points="4.3,50.2 12.3,50 12.3,44.3 4.3,44.3 "
                   id="SVGID_17_" /></defs><clipPath
                 id="SVGID_18_"><use
                   height="100%"
                   width="100%"
                   y="0"
                   x="0"
                   id="use129"
                   style="overflow:visible"
                   xlink:href="#SVGID_17_" /></clipPath><path
                 inkscape:connector-curvature="0"
                 id="path132"
                 clip-path="url(#SVGID_18_)"
                 d="M 13,47.4 11.6,47.1 C 8.2,46.6 6.1,44.8 6.1,44.8 L 5.2,44.7 c 0.1,0.3 -0.1,1 -0.3,1.2 l 0.4,1.2 c 0.4,0.4 1.5,1.2 2.2,1.9 2.2,0.7 3.9,1.7 5.2,1.6"
                 class="st10" /></g></g></g></g><g
         id="UBERON_0004639"
         inkscape:label="UBERON_0004639"><g
           id="g153"><g
             id="g151"><g
               id="g149"><defs
                 id="defs142"><polygon
                   points="15.4,53.3 12.6,49.4 2.6,50.6 3.5,57.2 "
                   id="SVGID_19_" /></defs><clipPath
                 id="SVGID_20_"><use
                   height="100%"
                   width="100%"
                   y="0"
                   x="0"
                   id="use144"
                   style="overflow:visible"
                   xlink:href="#SVGID_19_" /></clipPath><path
                 inkscape:connector-curvature="0"
                 id="path147"
                 clip-path="url(#SVGID_20_)"
                 d="m 14.5,51.8 c 0,-0.7 -0.4,-0.7 -0.6,-1.2 -0.8,-2.2 -0.7,-1.3 -1.2,-1.3 -1.5,0.1 -0.8,3 -7.2,2.4 L 4.1,51.4 C 2.8,51 3,51.8 3.1,51.5 3,52.1 3,52.3 3,52.3 c -0.1,0.3 -0.2,1.2 0.5,1.4 0.9,0.3 1.3,0.5 2.7,0.7 1.5,0.1 2.7,-0.1 4,-0.2 2.8,-0.7 3.4,-1.6 4.2,-2.5 l 0.1,-0.4"
                 class="st11" /></g></g></g></g></g>

	<g
       id="UBERON_0001291"
       style="fill:none"><g
         id="g162"><g
           id="g160"><g
             id="g158"><path
               class="st12"
               d="m 51.9,87.6 c 3.4,5.3 4,11.5 3.4,17.6 -0.6,6.1 -1.9,12.2 -2.4,18.4 -1.5,16.8 4.9,33.4 1.7,50 -0.4,2.4 -1.1,5.2 0.6,7 1.9,2.3 6.1,1.7 8.3,-0.4 2.2,-2.1 2.7,-5.2 2.8,-8.2 0.5,-12.6 -5.4,-26.3 -5.9,-38.9 -0.3,-9.4 2.8,-17.1 3.8,-26.5 1.1,-9.3 0.9,-16.2 -4.9,-23.9 -3.2,0.5 -5.6,1.8 -8.1,4.4"
               id="path156"
               inkscape:connector-curvature="0" /></g></g></g></g>

	<g
       id="UBERON_0001232"
       style="fill:none"><g
         id="g177"><g
           id="g175"><g
             id="g173"><defs
               id="defs166"><rect
                 id="SVGID_21_"
                 x="103"
                 y="41.700001"
                 width="25"
                 height="229" /></defs><clipPath
               id="SVGID_22_"><use
                 xlink:href="#SVGID_21_"
                 style="overflow:visible"
                 id="use168"
                 x="0"
                 y="0"
                 width="100%"
                 height="100%" /></clipPath><polygon
               class="st13"
               points="115.8,42.7 112.6,42.7 107.5,42.5 105.1,43.9 102.5,45 103.8,48.9 105.1,55.4 106.2,63.9 106.5,76.1 107.2,87.6 106.7,110 105.6,135.2 105,157.2 103.1,211.7 103.9,235.5 104,247.6 104,249.6 104,254.6 104,260.7 104,265.7 104.1,265.6 104,270.7 103.5,270.9 110,268.7 113,267.7 119,268.7 121,269.7 124,272.7 124,265.7 123.5,261.2 122.8,248.7 122.5,236 121.3,218.6 121.1,191.2 119.9,160.7 119.6,136.1 119.6,115.5 118.2,54.5 118.9,47.7 119.4,42.9 "
               clip-path="url(#SVGID_22_)"
               id="polygon171" /></g></g></g></g>

	<g
       id="UBERON_0009091"
       style="fill:none"><g
         id="g191"><g
           id="g189"><g
             id="g187"><defs
               id="defs181"><rect
                 id="SVGID_23_"
                 x="166.89999"
                 y="118.2"
                 width="26.1"
                 height="131" /></defs><clipPath
               id="SVGID_24_"><use
                 xlink:href="#SVGID_23_"
                 style="overflow:visible"
                 id="use183"
                 x="0"
                 y="0"
                 width="100%"
                 height="100%" /></clipPath><path
               id="UBERON_0009091_1_"
               class="st14"
               d="m 187.2,206.1 c -0.3,-5.4 -0.1,-9.9 -1.8,-15.6 -0.4,-3.4 -1.5,-7.1 -2.1,-10.4 -0.4,-2.6 -0.7,-4 -1.6,-8.1 v -0.1 c -0.8,-6.1 -1.7,-12.8 -1.1,-18.9 0.1,-4.8 0.5,-9.8 0.7,-14.2 0.1,-2.3 0.5,-3.6 1.5,-5.7 0,-0.1 0.4,-1 0.5,-1 1,-1.5 1.7,-1.9 3,-3 1.7,-1.4 3.5,-2.5 5.4,-3.3 0.6,-0.3 0.9,-0.9 0.7,-1.5 -0.2,-0.8 -0.5,-1.6 -0.8,-2.4 -0.2,-0.5 -0.7,-0.9 -1.2,-0.9 -0.9,0 -1.9,-0.3 -3.1,-0.5 -1.3,-0.1 -3.3,-1.2 -4.5,-1.8 -1.3,-0.7 -0.4,0 -1.4,1.5 -0.4,0.4 -0.4,-0.3 0,0 0.5,0.5 1.3,1.7 1.8,2.2 0.4,0.3 0.8,1.4 0.8,1.4 0,1.7 -1.1,3.3 -2.8,4.4 -1.3,1.1 -2.2,1.9 -3.7,2.5 -1.5,0.6 -2.2,0.9 -3.7,1.6 0,0 -0.4,0.2 -0.4,0.3 l -0.8,0.4 c -0.3,0.2 -0.3,0.4 -0.4,0.8 0,0.1 0.1,0.7 0,0.8 -0.2,1 0,2.3 0.9,1.8 0.4,-0.2 1.6,-0.8 1.6,-0.8 0.4,-0.4 0.4,0 0.9,0.6 0.2,0.3 0.2,0.8 0.2,1.1 0,0.5 -0.2,0.6 -0.2,1.2 0,0.1 -1,2 -0.3,0.6 -2.6,3.3 -2.2,3.1 -2.9,4.2 -1.7,2 -0.9,0.4 -1.3,1.4 v 6.7 c 0,2.2 0.1,1.7 0,2.4 0,0.2 0.9,0.9 1,1.1 0.2,0.6 -0.1,1.4 0.1,1.9 0,0.1 0,1.2 0,1.3 -0.5,3.9 0.4,4.4 -0.3,6.2 0,0.1 0,0.2 -0.1,0.3 -0.1,0.3 -0.5,0.8 -0.9,1.6 -0.1,-0.5 -0.2,0.2 -0.2,0.7 -0.1,1.9 -0.5,5.9 2.3,1 0.3,-0.5 0.7,-1 1.1,-1.7 0.4,-1 1,-2 1.7,-2.8 0.6,-0.9 1.2,-0.5 2,0.2 0.4,0.9 0.7,1.7 0.9,2.4 1,4.4 0.9,7.1 -0.1,11.3 -0.9,3.9 -3,3.3 -5.3,2.4 -0.1,0 -0.2,-0.1 -0.3,-0.1 -1.2,-0.2 -0.4,-0.2 -2.8,-0.5 0.1,0.3 0,-0.3 -0.1,1.2 0,0.5 -0.4,1.1 0.1,1.3 1.5,0.6 3,1.2 3.6,3.6 0,0.2 0.1,0.5 0,0.7 -0.3,2.2 -1.8,5 -3.6,6.5 -0.7,0.5 -0.7,3.6 -0.1,3.3 0,0 2.1,0.9 2.7,1 0.1,0 0.2,0.1 0.3,0.1 2.3,1.2 3,2.4 2.4,4.7 -0.3,0.3 -0.4,0.9 -0.3,0.8 -1.6,2.9 -1.9,3 -4.3,4.7 -0.1,0.1 -0.3,0.1 -0.4,0.2 -0.1,0 -0.1,0 -0.2,0 -0.5,0.1 -0.9,0.5 -1.1,1 -0.3,1.7 -0.4,4.9 -0.1,4 l 0.7,0.8 c 1.8,0.2 3.8,0.9 5.4,2 1.8,1.3 3,2.9 2.2,5 -0.1,0.8 -0.7,1.5 -1.3,2.4 -2.5,2.7 -4.1,3.1 -7,4.7 -0.1,0.1 -0.3,0.1 -0.4,0.1 -0.6,0.1 -1.8,0.2 -1.8,0.7 0,0.5 0.1,1.1 0.1,1.8 0.1,1 0.5,2.1 1.3,1.4 1.4,-1.1 3.4,-2.5 5.5,-3.7 0.1,0 0.2,-0.1 0.2,-0.2 1.3,-1.1 4.2,-3.4 5.5,-4.8 2.2,-1.9 4.3,-1.1 4,1.5 -0.4,3.6 -1.1,6.7 -3.5,8.4 -3.7,3.8 -8.3,4.2 -13.2,3.7 0,0.2 0.2,0.8 0.2,1.4 -0.2,0.9 -0.4,1.9 0.3,2 2.4,0.4 5.3,0.2 7.7,-0.7 0.1,0 0.1,-0.1 0.2,-0.1 0.6,-0.3 1.7,-0.9 2.2,-1.1 0.5,-0.3 1.9,-0.9 2.3,-0.4 0.4,0.6 0.4,0.9 0.1,1.6 -0.2,0.9 -1.4,2.2 -2.2,2.7 -2.3,1.9 -4.7,2.6 -7.6,2.5 -0.4,0 -1.5,0.1 -2.4,0.1 -0.7,0.1 -1.3,0.7 -1.2,1.4 0,0.2 0,0.5 0,0.8 -0.1,1 -0.5,2.4 0.1,2.3 1,-0.1 4.7,-0.6 5.7,-0.7 2.2,-0.3 5.1,-1.7 7.1,-3.4 0.1,-0.1 0.1,-0.1 0.2,-0.2 3.6,-4 4.9,-8.6 6.2,-13.5 0,-0.1 0,-0.1 0,-0.2 1.6,-6.2 1.9,-10.3 1.5,-19.2 0.1,-2.9 0.1,-3.5 0,-5.2 z m -8.6,-54.6 c -0.5,1.5 -0.7,3.1 -1.2,4.7 0,0.1 -0.1,0.2 -0.1,0.2 -0.8,1.4 -1,1.9 -1,1.9 -2.4,1.7 -1.8,-2.7 -2.4,-3.3 0,-1 0.1,-1.7 0,-2.3 -0.3,-2.2 -2.3,-3.1 -1.7,-3.8 0.7,-1 2.3,-2.9 3.2,-4.4 0.8,-1.4 0,0.1 0,0 1.2,-2.1 2.7,-4.6 3.5,-4.2 0.4,-0.6 -0.8,-0.1 0,0 0.7,0 0.3,1 0.4,1.8 0.1,1.3 0,0.9 0,1.8 0,2.8 -0.4,4.7 -0.7,7.6 z m -0.3,56.7 -0.2,2.1 c 0,0.8 -1.6,1 -2.4,0.9 -0.4,0 -0.8,-0.1 -1.3,-0.3 -0.4,0 -1.2,0.2 -1.8,-0.5 -0.4,-0.7 1.2,-2 1.8,-2.7 0.4,-0.2 -0.4,0.2 0,0 0.2,-0.1 0.2,-0.2 0.6,-0.7 l 0.8,-0.9 c 0.1,-0.1 0.6,-0.7 0.6,-0.7 2,-2.5 1.9,1.7 1.9,2.8 z m -1.7,-11.8 c -3.9,-1 -1.4,-6 -0.1,-7.8 0.4,-0.6 -0.6,0.9 0,0 0.6,-1.6 1.2,-2.2 2.2,-4 0,-0.1 0.1,-0.1 0.1,-0.2 0.2,-0.8 0.7,-1.9 1.2,-2.8 0.5,-0.9 1.8,-0.9 2.2,0 v 0.1 c 0.2,0.3 0.3,3.7 0.2,4.2 -0.2,3.6 -1.2,13.3 -5.8,10.5 m 8.1,9.8 c -0.3,2.8 -0.4,5.9 -2,6.8 -1,1.3 -1.7,-1.2 -1.7,-1.2 -1,-4 -0.5,-6.5 0.2,-9.7 0,-0.1 0.1,-0.2 0.1,-0.3 0.7,-1.3 1.7,-2.4 2.4,-1.9 v -0.4 c 1.7,1.6 0.9,4.1 1,6.5 z"
               clip-path="url(#SVGID_24_)"
               inkscape:connector-curvature="0" /></g></g></g></g>

	<path
       id="UBERON_0009202"
       class="st15"
       style="fill:none"
       d="m 166.8,227.2 c 0.2,1 0.5,2.7 0.6,3.7 0,0.3 -0.5,0.2 -0.8,0.4 -0.6,0.8 -1.5,1.2 -1.8,2.1 -0.6,1.7 0.5,1.7 2.4,2.2 0,0.6 -0.1,2.8 -0.1,3.6 -1,-0.4 -2,-0.1 -2.9,-0.5 -1.7,-0.7 -3.1,-1.7 -4.7,-2.4 -0.8,-0.3 -2.4,-0.6 -3.2,-0.8 -1.5,-0.4 -2.1,-0.5 -1.7,1.1 0.3,1.3 0.8,2.4 2,3 2.5,1.2 5,2.3 7.5,3.5 0.3,0.1 0.5,0.2 0.8,0.2 1.7,0.3 2,0.1 1.9,2.5 0.1,3.7 -0.1,3.4 -4.5,1.7 -6,-1.8 -8.7,-5.8 -11.8,-11.1 -2.7,-2.3 -3.9,-7.2 -5.7,-10.9 -1.6,-3.3 -1.7,-7 -2.3,-10.6 -0.4,-2.6 -0.6,-5.2 -0.7,-7.9 -0.2,-8.5 -0.4,-17 -0.2,-25.4 0.2,-8.1 -0.1,-16.2 -0.7,-24.3 -0.2,-3.5 -1,-6.9 -1.2,-10.3 -0.4,-7.8 -0.8,-15.7 1.9,-23.3 1.7,-4.8 3.9,-9.4 5.9,-14 0.3,-0.7 0.9,-1.3 1.6,-1.8 0.1,1.8 0.4,3.6 0.2,5.3 -0.2,1.2 -1.2,2.2 -1.8,3.4 -3.4,6.2 -3.1,12.8 -4.6,19.9 -0.4,1.8 0,3.7 0.6,5.5 0.4,1.4 1.6,1.8 3,1.4 1.1,-0.3 2.2,-0.7 3.3,-1.1 3.8,-1.4 7.6,-2.8 11.5,-4.1 1.9,-0.6 3.6,-1.3 4.9,-2.8 0.2,-0.2 1.2,-1.2 1.7,-1.5 -0.2,1.6 0.5,4.8 -1,6 -1.4,1.1 -1.9,2.7 -0.5,3.7 0.3,0.2 0.9,-0.2 0.9,0.2 0,2.8 -0.2,6.8 -0.3,9.6 0,0.2 -0.3,1.3 -0.4,1.4 -2.3,2.6 -2,4.7 -2.9,7.8 -0.3,1.2 -0.5,2.4 -0.6,3.7 -0.1,2.1 1.1,1.3 3.2,0.9 0.2,1.3 0.7,6.1 -1.5,4.8 -1,1.4 -1.4,2.7 -0.9,4.2 0.4,1.3 1.5,1.9 2.8,2 1.1,0.1 2.3,0.2 3.6,0.4 -0.1,0.9 -0.2,1.7 -0.3,2.7 -1,-0.1 -2,-0.2 -3,-0.4 -1.8,-0.3 -2,0.3 -3.6,1 -1.5,0.7 -3.5,2.4 -3.2,4.2 0.5,2.6 1.8,4.8 4.1,6.3 0.3,0.2 1.1,0.5 1.1,0.8 0,3 -0.3,7.4 -0.6,10.1 -1.5,-1.1 -2.6,-2.4 -3.8,-3.3 -0.2,-0.1 -0.3,-0.5 -0.2,-0.7 0.5,-2.6 0,-5 -1.3,-7.3 -0.8,-1.5 -1.7,-2.9 -2.5,-4.3 -0.3,-0.4 -0.6,-0.9 -1.1,-1.1 -1,-0.5 -1,-1.1 -0.9,-2.1 0.1,-0.8 0.3,-1.2 1.1,-1.4 1.1,-0.3 1.8,-1.1 2,-2.2 0.6,-2.3 1.2,-4.6 1.8,-6.8 V 174 c -0.2,-0.5 -0.3,-1.1 -0.5,-1.6 -0.4,0.2 -0.6,1 -1.2,1.3 0.2,-0.8 0,-2.3 0.3,-3 0.6,-1.4 0,-2.3 -1.5,-2.2 -2.9,0.1 -5.7,0 -8.3,-1.5 -1.2,-0.7 -3.8,-0.3 -3.6,1 0.2,1.4 -0.1,3 0.5,4 0.9,0.7 1,1.4 1,2.3 -0.1,3.1 0.9,5.7 3,7.9 1.5,1 0.6,2.5 0.8,3.5 -0.1,0 -0.5,-0.6 -0.6,-0.6 -0.9,-1 -1.8,-1.9 -2.8,-2.9 -0.6,-0.6 -1.3,-1.6 -2.2,-0.9 -0.5,0.4 -0.5,1.7 -0.3,2.4 1,3.1 2.4,6.3 4.7,8.8 0.5,0.6 0.9,0.9 1.6,1.4 4,2.8 8,5.5 11.9,8.3 1.8,0.2 2.8,4.6 1.5,7.3 -0.1,0.1 -0.8,-0.5 -0.9,-0.4 -1.6,-1.1 -1.8,-1.2 -3.2,0.1 -1.8,1.7 -3.5,3.5 -5.3,5.3 -1.3,-1.6 -1.1,-3.9 0.5,-5.3 1.1,-1 2.1,-2.4 3,-3.5 0.8,-0.9 0.6,-1.9 -0.2,-2.6 -1.2,-1.2 -2.5,-2.3 -3.8,-3.2 -1.4,-1.1 -3,-1.9 -4.5,-2.9 -2.3,-1.5 -3.6,0.1 -4.4,2.8 -0.8,2.9 -0.2,5.3 0.8,8.1 0.7,2.1 1.4,3.1 2.9,4.7 0.3,0.2 1.2,0.2 0.9,1.2 0.9,4.6 1.5,6.6 4,10.2 1,1 3,2.4 4.4,2.9 3.1,0.5 4.8,0.8 7.2,0.4 0.9,-0.2 1,-0.1 1.2,-0.1 z m -18.3,-73.4 c -0.3,-0.6 -1.2,-2.6 -1.6,-3 -0.5,-0.5 -0.6,0.1 -1.2,0.1 -0.9,0 -1.3,-0.2 -1.4,0.7 0,0.5 0.3,2.4 0.4,2.8 0.2,1.2 -0.4,1.1 -0.1,2.3 1.6,6.5 7.1,9.4 12.6,10 2,-0.3 3.2,-0.8 3.5,-2.2 0.3,-1.3 -0.4,-2.9 -1.8,-3.4 -1,-0.3 -1.1,-0.9 -1,-1.7 0.1,-0.5 0,-1.1 0.1,-1.5 0.1,-0.3 0,-1.4 0.2,-1.5 2.9,-0.3 4.9,-1.3 6.2,-3.6 2.1,-3.7 0.6,-7.8 -3.5,-8.8 -4.1,-1 -8,-0.2 -11.6,2 -0.5,0.3 -0.9,0.9 -1.3,1.4 -0.2,0.3 0.2,0.1 0.4,0.3 0.9,-0.4 0.1,4.6 0.1,6.1 z m -4.3,63.3 c 0,0.1 0,0.2 0,0.4 1,6.3 3.9,9.5 8.6,13.7 1.1,0.7 2.7,1.3 3.9,1.7 1.5,0.4 3.2,0.1 2.6,-1.4 -0.2,-0.6 -0.6,-1.1 -1.1,-1.5 -0.7,-0.6 -1.5,-1 -2.3,-1.4 -1.8,-0.9 -3.3,-2.1 -4.2,-4 -0.6,-1.4 -1.3,-2.8 -2,-4.1 -0.9,-1.7 -1.8,-3.3 -2.7,-4.9 -0.2,-0.4 -0.8,-0.6 -1.3,-0.6 -0.9,-0.2 -1.5,0.6 -1.5,2.1 z"
       inkscape:connector-curvature="0" />

	<g
       id="link_duct"
			 link="duct"
       inkscape:label="link_duct"><rect
         inkscape:label="link_duct"
         style="fill:none;fill-opacity:1;fill-rule:nonzero;stroke:#0000ff;stroke-width:5.73498285;stroke-miterlimit:4.4000001;stroke-dasharray:none;stroke-opacity:1"
         height="25.299999"
         width="32.599998"
         class="st16"
         y="137.2"
         x="96.5"
         id="link_duct" /></g>

	<g
       id="link_glomerulus"
			 link="glomerulus"
       inkscape:label="link_glomerulus"><rect
         inkscape:label="link_glomerulus"
         style="fill:none;fill-opacity:1;fill-rule:nonzero;stroke:#0000ff;stroke-width:5.73498285;stroke-miterlimit:4.4000001;stroke-dasharray:none;stroke-opacity:1"
         height="27.9"
         width="35.599998"
         class="st17"
         y="35.599998"
         x="0.89999998"
         id="link_glomerulus" /></g>

	<path
       id="UBERON_0001290"
       class="st18"
       style="fill:none"
       d="m 35.1,98.4 c -0.4,3.5 -0.4,7.2 1.4,10.2 1.2,2 3.4,3.5 5.6,3.1 2.5,-0.5 3.9,-3.2 4.2,-5.7 0.3,-2.5 -0.3,-5 -0.1,-7.5 0.3,-4 2.5,-7.6 4.6,-10.9 -2,-1.4 -4.3,-2.4 -6.6,-3 -2.5,-0.6 -3.4,-0.2 -4.9,1.7 -2.7,3.4 -3.7,7.9 -4.2,12.1 z"
       inkscape:connector-curvature="0" /></g>

	<g
     id="Outline"><g
       id="Outline_1_"><g
         id="Outline_2_"><g
           id="g276"><g
             id="g42384"><path
               class="st19"
               d="m 156.8,140.1 c 0.4,-0.1 0.7,-0.3 1.1,-0.4 -0.1,-13 0,-25 0.2,-29 0.4,-6.6 0.9,-12.3 1.6,-17 -0.5,-0.8 -0.9,-1.6 -1.3,-2.4 -1,5.7 -1.5,13.2 -1.9,26.9 -0.3,6.6 -0.3,13.2 -0.2,21.8 0.1,0 0.3,0.1 0.5,0.1 z"
               id="path199"
               inkscape:connector-curvature="0"
               style="fill:#b0b0b0" /><path
               class="st19"
               d="m 151.1,142.4 c 0.1,-4.2 0.2,-9.7 0.4,-16.9 0.4,-20.6 0.9,-32 1.3,-34.6 0.3,-1.6 1.1,-4.8 1.9,-7.3 -0.3,-0.8 -0.6,-1.7 -0.9,-2.6 -1.4,3.5 -2.4,7.2 -3.1,11.2 -0.5,3.1 -0.7,9.8 -1.5,47.7 0,1.1 0,2.2 -0.1,3.3 0.6,-0.3 1.3,-0.6 2,-0.8 z"
               id="path201"
               inkscape:connector-curvature="0"
               style="fill:#b0b0b0" /><path
               class="st19"
               d="m 156.2,142.6 c 0,1.1 0,2.1 0.1,3.2 0.2,7.5 0.3,16.2 0.3,21 0.6,0 1.1,-0.1 1.7,-0.2 -0.1,-6 -0.3,-15.1 -0.3,-24.2 -0.7,0.1 -1.2,0.1 -1.8,0.2 z"
               id="path203"
               inkscape:connector-curvature="0"
               style="fill:#b0b0b0" /><path
               class="st19"
               d="m 149.7,164.4 c 0.1,-0.9 0.2,-1.8 0.3,-2.6 0.5,-5 0.8,-7.8 1,-17.4 -0.7,0.4 -1.3,0.8 -2,1.3 -0.2,6.8 -0.3,12.4 -0.5,13.5 -0.1,0.9 -0.3,2.5 -0.5,4.1 0.6,0.2 1.2,0.6 1.7,1.1 z"
               id="path205"
               inkscape:connector-curvature="0"
               style="fill:#b0b0b0" /><path
               class="st19"
               d="m 166.2,180.8 c -0.3,7.2 -0.6,13.9 -0.8,19.3 -0.7,15.7 -1.2,19.1 -2.9,20.8 -2.6,2.5 -5.9,-0.6 -7.6,-6.8 -0.5,-2.3 -0.5,-3.7 -0.3,-13.6 0,-0.4 -0.2,-0.1 -0.2,-0.5 -0.3,-0.2 -0.3,-0.3 -0.6,-0.5 -0.3,11.4 -0.2,12.2 0.2,14.7 1.4,7 3.9,10 7.8,8.8 1.5,-0.4 2.3,-1.6 3.2,-4.1 0.5,-1.4 0.7,-3.6 1.1,-10.3 0.5,-7.9 1,-18.3 1.4,-27.9 -0.5,0.1 -0.9,0.1 -1.3,0.1 z"
               id="path207"
               inkscape:connector-curvature="0"
               style="fill:#b0b0b0" /><path
               class="st19"
               d="m 150.1,182.1 0.8,1.1 -0.1,11.2 c 0.5,0.4 1,0.4 1.6,0.8 0.1,-9.1 0.4,-11.9 0.9,-12 0.3,-0.1 0.6,0.1 0.7,0.3 0.1,0.2 0,5.6 -0.2,12.7 0.3,0.2 0.6,0.3 0.9,0.6 0.2,-5 0.3,-9.2 0.4,-10.8 0.3,-3.6 0.7,-3.1 2,-5.2 1.7,-2.8 1.4,-4.4 1.2,-12.2 -0.2,0 -0.5,0 -0.7,0 -0.3,0 -0.7,0.1 -1,0.1 0,0 0,0 0,0 0,0.2 0,0.3 0,0.4 v 4.2 c 0.3,1.8 0.6,3.7 -0.6,5.3 -0.8,1.1 -2.1,1.9 -3.5,1.8 -2,-0.1 -2.8,-1.3 -3.2,-2.9 l -0.1,-0.2 v -0.6 c -0.2,-0.7 -0.1,-1.4 0,-2.2 0,-0.4 0.1,-0.9 0.1,-1.3 v -0.7 c 0,-1.4 0.1,-3.3 0.2,-5.2 -0.6,-0.2 -1.2,-0.3 -1.8,-0.5 -0.2,2.3 -0.4,4.7 -0.3,7.1 0.1,4.6 0,5.7 2.7,8.2 z"
               id="path209"
               inkscape:connector-curvature="0"
               style="fill:#b0b0b0" /><path
               class="st19"
               d="m 169,180.9 c -0.5,15.6 -0.9,24.8 -1.2,30.1 -0.5,8.2 -2,12.4 -4.6,13.7 -3.4,1.6 -6.8,0.2 -8.6,-3.5 -0.5,-1.1 -1.3,-3.6 -1.7,-5.4 -0.6,-3.2 -0.7,-4 -0.6,-13.3 0,-1.6 -0.1,-2.5 -0.1,-3.8 -0.4,-0.3 -0.5,-0.7 -0.9,-1 -0.1,-0.1 -0.6,0.1 -0.7,0 l 0.2,1.3 c -0.1,14.5 0,16.1 0.5,17.9 1.5,5.3 4,8.6 7.5,9.7 3.2,1 6.7,-0.9 8.5,-4.6 1.6,-3.6 1.7,-3.6 2.9,-40.8 -0.4,-0.2 -0.8,-0.3 -1.2,-0.3 z"
               id="path211"
               inkscape:connector-curvature="0"
               style="fill:#b0b0b0" /><path
               class="st19"
               d="m 174.6,114.2 c -0.2,-0.2 -0.4,-0.4 -0.6,-0.6 -0.2,0.4 -0.4,0.7 -0.6,1.1 -1.6,2.3 -4.5,1.2 -5.4,-1.9 -0.5,-1.5 -0.5,-3.9 -0.1,-7 -0.5,-0.7 -1,-1.5 -1.4,-2.2 -0.9,8 -0.6,10 1,12.6 l 1,1.6 -0.2,6.8 c -0.4,12.3 -1.2,34.8 -2,54 0.4,0.1 0.8,0.1 1.2,0.2 0.1,-3.5 0.3,-6.9 0.4,-10 0.5,-16.2 0.9,-25.4 1.4,-34.1 0.3,-4.4 0.6,-10 0.7,-12.2 0.2,-3.9 0.3,-4.1 0.9,-4.1 0.6,0 0.6,0.1 0.4,6 -0.1,3.3 -0.4,9.5 -0.7,13.8 -0.8,13 -0.8,14 -1.3,32.2 -0.1,3.1 -0.2,5.9 -0.2,8.6 0.4,0.1 0.8,0.2 1.2,0.3 0.1,-3 0.2,-6.2 0.3,-9.7 0.4,-10.9 0.8,-22.1 1,-24.8 0.2,-2.8 0.5,-9.6 0.8,-15.2 0.5,-10.6 0.6,-11.3 2.1,-13.1 0.5,-0.5 0.8,-0.9 1.1,-1.4 -0.4,-0.3 -0.7,-0.6 -1,-0.9 z"
               id="path213"
               inkscape:connector-curvature="0"
               style="fill:#b0b0b0" /><path
               class="st19"
               d="m 193.6,42.1 c 0.4,-0.2 0.9,-0.4 1.4,-0.5 0,-1.6 0,-2.7 0,-3.4 -0.4,0.2 -0.9,0.4 -1.4,0.5 0.1,0.9 0.1,2.1 0,3.4 z"
               id="path215"
               inkscape:connector-curvature="0"
               style="fill:#b0b0b0" /><path
               class="st19"
               d="m 193.7,44 c 0,0 0,0 0,0 -0.1,0.1 -0.2,0.2 -0.3,0.2 -0.1,0.8 -0.3,1.3 -0.3,1.3 -0.5,0 -0.8,-5.3 -0.4,-7.8 0.3,-1.7 0.6,-1.5 0.8,-0.4 0.4,-0.2 0.9,-0.4 1.3,-0.6 -0.1,-0.2 -0.1,-0.4 -0.2,-0.7 -0.9,-2 -2.1,-3.3 -4,-4.3 -1.4,-0.7 -2.1,-0.9 -4.2,-0.9 -1.4,0 -3.2,0.2 -3.9,0.4 -1.9,0.6 -4.1,2.2 -5.6,4.2 -0.8,1 -1.8,2.3 -2.4,2.9 -0.6,0.6 -0.9,0.9 -1.4,0.9 0.1,0.4 0.1,0.8 0.2,1.1 1.4,-0.3 2.3,-1.1 3.8,-3.2 3.2,-4.6 7.9,-6.2 12.4,-4.2 2.2,0.9 2.2,1.1 1.8,5.2 -0.3,3.8 -0.1,6.1 0.8,8.3 0.4,0.9 0.4,1.4 0.2,1.8 -0.4,0.8 -2.4,2.6 -3.3,2.9 -3.7,1.4 -8.5,0 -12.4,-3.4 l -0.5,-0.5 c 0.7,1.3 1.6,2.6 2.5,3.8 2.5,1.6 4.3,2 7.5,1.8 3.2,-0.1 4.7,-0.7 6.4,-2.5 1.8,-1.8 2.4,-3.4 2.5,-7.2 -0.5,0.3 -0.9,0.5 -1.3,0.9 0,-0.1 0,0 0,0 z"
               id="path217"
               inkscape:connector-curvature="0"
               style="fill:#b0b0b0" /><path
               class="st19"
               d="m 212.3,46.3 c -0.7,0.6 -1.4,1.3 -2.2,2.1 -4.8,4.7 -6.1,5.7 -10.6,7.1 -2.3,0.7 -2.8,0.7 -10.8,0.7 -2.1,0 -4,0 -5.6,-0.1 0.5,0.6 1,1.1 1.5,1.7 1.5,0 3.1,0.1 4.8,0.1 8,0 8.9,-0.1 14.1,-2.6 2.7,-1.3 3.3,-1.8 7,-5.5 1,-1 1.9,-1.9 2.7,-2.6 -0.3,-0.3 -0.6,-0.6 -0.9,-0.9 z"
               id="path219"
               inkscape:connector-curvature="0"
               style="fill:#b0b0b0" /><path
               class="st19"
               d="m 219.6,42.2 c -2.2,0.3 -3.6,1 -5.9,3 0.3,0.3 0.6,0.6 0.8,1 1.9,-1.5 3.4,-2.1 5.3,-2.3 2.6,-0.2 3.9,0.1 5.3,1.4 2.5,2.3 3.2,5.2 2.1,9.3 -0.7,2.7 -2.2,5.1 -4.8,7.7 -1.3,1.3 -2.7,2.5 -4.2,3.5 0,0 0,0 0,0.1 -0.2,0.8 -0.4,1.7 -0.6,2.5 2.5,-1.4 4.7,-3.1 6.6,-5.2 3.8,-4.2 5.6,-7.8 5.5,-11.9 -0.1,-6 -4.6,-10 -10.1,-9.1 z"
               id="path221"
               inkscape:connector-curvature="0"
               style="fill:#b0b0b0" /><path
               class="st19"
               d="m 217,66.6 c -3.3,2 -7.2,3.3 -12.2,4.3 -1.9,0.4 -5.7,0.6 -9.2,0.7 0.1,0.1 0.2,0.3 0.3,0.4 0.3,0.3 0.5,0.7 0.7,1.1 7.9,-0.1 14.3,-1.3 19.6,-4 0.3,-0.9 0.6,-1.7 0.8,-2.5 z"
               id="path223"
               inkscape:connector-curvature="0"
               style="fill:#b0b0b0" /><path
               class="st19"
               d="m 222.4,50.7 c -0.9,-1.4 -2.3,-2 -3.9,-1.5 -0.5,0.2 -1,0.5 -1.7,1.1 0.1,0.3 0.3,0.6 0.4,1 0,0.1 0.1,0.1 0.1,0.2 0,0 0,0.1 0,0.1 0.1,0.2 0.2,0.4 0.2,0.6 0.9,-0.9 1.8,-1.3 2.6,-1.3 1.7,0 2,1.4 0.6,3.5 -0.4,0.7 -1.2,1.6 -2.1,2.6 0.1,0.6 0.1,1.3 0.2,1.9 0,0.1 0,0.1 0,0.2 4.1,-4.1 4.9,-6.1 3.6,-8.4 z"
               id="path225"
               inkscape:connector-curvature="0"
               style="fill:#b0b0b0" /><path
               class="st19"
               d="m 216.1,53.8 c 0.1,-0.2 0.3,-0.3 0.4,-0.5 -0.2,-0.6 -0.4,-1.1 -0.7,-1.7 0,-0.1 -0.1,-0.2 -0.1,-0.2 -0.3,0.3 -0.6,0.7 -1,1.1 -4.1,4.7 -5.9,6 -10.6,7.6 -4.2,1.4 -7.7,1.9 -15.9,2.1 0.5,0.6 0.9,1.1 1.3,1.7 10.5,-0.6 13.5,-1.2 18.9,-3.8 3.1,-1.5 5.6,-3.6 7.7,-6.3 z"
               id="path227"
               inkscape:connector-curvature="0"
               style="fill:#b0b0b0" /><path
               class="st19"
               d="m 217.8,60.1 c 0,-0.3 0,-0.6 0,-0.9 0,-0.4 -0.1,-0.8 -0.1,-1.2 -1.9,1.9 -4.2,3.8 -5.3,4.3 -2.5,1.1 -7.2,2.3 -11,2.7 -3,0.3 -6.7,0.4 -10.6,0.2 0.4,0.5 0.8,1 1.2,1.5 7,0.1 11.2,-0.1 13.8,-0.7 5.9,-1.4 8.4,-2.7 12,-5.9 z"
               id="path229"
               inkscape:connector-curvature="0"
               style="fill:#b0b0b0" /><path
               class="st19"
               d="m 145.7,32.9 c -0.2,3.8 -0.8,5.9 -2.8,11.1 -1.9,5 -2.2,6.3 -2.2,9.8 0,0.4 0,0.8 0,1.1 0.5,0.2 0.9,0.4 1.4,0.4 -0.1,-1.3 -0.1,-2.6 0.1,-3.7 0.4,-2.7 0.6,-3.3 2.6,-8.5 2,-5.3 2.5,-7.8 2.5,-12.3 0,-4.1 -0.6,-6.3 -2.2,-8.6 -1.7,-2.5 -3.9,-3.4 -8.1,-3.4 -2.6,0 -5.2,0.7 -7.7,2.1 -1.7,1.1 -5,4.3 -6.5,6.5 l -0.3,1.2 -0.2,1.1 c 1,0.8 1.4,1.2 2.1,-0.2 1.1,-2.2 5.2,-6.7 7.8,-8 4.1,-2 8.2,-1.9 10.6,0.2 2.3,2.1 3.2,5.6 2.9,11.2 z"
               id="path231"
               inkscape:connector-curvature="0"
               style="fill:#b0b0b0" /><path
               class="st19"
               d="m 168.1,75.8 c -1.2,-3.9 -1.9,-5 -6.1,-9.1 -3.8,-3.7 -4.1,-4.1 -4.9,-6.3 -0.5,-1.3 -0.8,-2.6 -1.1,-4.2 -0.2,0.4 -0.5,0.9 -0.7,1.3 0,0 0,0 0,0 -0.1,0.3 -0.3,0.5 -0.4,0.8 0,0.1 -0.1,0.2 -0.2,0.3 -0.6,1.5 -1,2.9 -1.2,4.4 0.2,-0.2 0.4,-0.4 0.5,-0.6 l 1,-1.3 1,1.7 c 0.5,0.9 2,2.7 3.3,4 l 2.4,2.3 -2.2,2.2 c -1.9,1.9 -2.5,2.8 -4.3,6.4 -0.2,0.4 -0.4,0.7 -0.5,1.1 0.2,0.8 0.4,1.7 0.6,2.5 1.5,-4.2 4.4,-8.4 7.3,-10.4 1,-0.6 1.3,-0.4 2.5,1.8 l 0.9,1.7 -1.4,1.3 c -1.8,1.7 -2.8,3.4 -4.2,7.4 -0.7,2 -1.3,4 -1.7,6.1 0.4,0.8 0.8,1.5 1.3,2.3 0.8,-4.7 1.8,-8.3 3.1,-11.1 1.1,-2.2 2.9,-4.4 3.5,-4.2 1.1,0.3 1.4,9 1,16.8 0.1,0 0.2,-0.1 0.3,-0.1 0.1,0 0.2,-0.1 0.3,-0.1 0.3,-0.1 0.6,-0.3 1,-0.4 0,-0.5 0,-1.1 0,-1.6 0.1,-8.6 -0.1,-12.1 -1.1,-15 z"
               id="path233"
               inkscape:connector-curvature="0"
               style="fill:#b0b0b0" /><path
               class="st19"
               d="m 150.7,62.8 c 0,0 -0.1,0 -0.1,0.1 -1.2,0.4 -3.2,0.3 -4.2,-0.2 -1.1,-0.6 -2.8,-2.3 -3.4,-3.6 -0.2,-0.4 -0.3,-0.9 -0.5,-1.5 -0.5,0 -1,0 -1.5,-0.2 0.3,1.6 0.8,2.9 1.7,4.2 2.1,3.1 5.8,4 8.7,2.7 -0.2,-0.4 -0.5,-1 -0.7,-1.5 z"
               id="path235"
               inkscape:connector-curvature="0"
               style="fill:#b0b0b0" /><path
               class="st19"
               d="m 148.4,45.4 c 0,-0.2 0,-0.4 0,-0.6 0,-0.1 0,-0.2 0,-0.4 -0.1,0.2 -0.1,0.5 -0.2,0.7 -2,6.1 -2.3,7 -2.3,8.7 1.8,-2.1 2.3,-6 2.5,-8.4 z"
               id="path237"
               inkscape:connector-curvature="0"
               style="fill:#b0b0b0" /><path
               class="st19"
               d="m 152.9,38.9 c 0.7,0 1.1,1.3 1.1,3.7 0,1.9 -0.1,2.1 -0.5,1.7 -0.3,-0.3 -0.6,-0.3 -0.7,-0.2 0.7,1.2 1.7,2.3 2.8,2.8 0,-1.4 0,-3 0.1,-4.8 0.1,-3.8 0.2,-7.2 0.3,-10.2 -0.4,-0.2 -0.9,-0.4 -1.4,-0.4 0,0.1 0,0.2 0,0.3 l -0.4,6 -1,-0.2 c -0.6,-0.1 -1,-0.2 -1.1,-0.3 0,-0.1 0.1,-1.6 0.2,-3.6 -0.5,0.9 -0.8,2 -1,3 0,1.1 0.1,2.2 0.3,3.4 0.5,-0.8 0.9,-1.2 1.3,-1.2 z"
               id="path239"
               inkscape:connector-curvature="0"
               style="fill:#b0b0b0" /><path
               class="st19"
               d="m 154.2,54.9 c 0.1,1 0.1,1.7 0.1,2.3 0.2,-0.4 0.3,-0.7 0.5,-1.1 0.4,-1.2 0.6,-2.4 0.7,-3.6 -0.2,-2.1 -0.8,-5.2 -2.7,-6 0.1,0.5 0.2,1.1 0.3,1.7 0.5,2 1,5 1.1,6.7 z"
               id="path241"
               inkscape:connector-curvature="0"
               style="fill:#b0b0b0" /><path
               class="st19"
               d="m 149.7,48.7 c -0.1,0.4 -0.2,0.9 -0.3,1.4 -0.1,0.7 -0.2,1.4 -0.2,2 0.3,0.8 0.5,1.7 0.5,2.1 0,0.8 -0.1,1 -0.4,1 0.1,0.6 0.2,1.3 0.5,1.9 0,0 0,0 0,0 0.5,-0.2 1,-0.5 1.1,-0.8 0.4,-0.6 0.2,-2.5 -0.6,-5.2 -0.3,-0.8 -0.5,-1.6 -0.6,-2.4 z"
               id="path243"
               inkscape:connector-curvature="0"
               style="fill:#b0b0b0" /><path
               class="st19"
               d="m 151.1,31.1 c 0,0.6 -0.1,1.1 -0.1,1.6 0.5,-0.5 1.1,-1.1 1.6,-1.6 0.5,-7.3 -0.3,-10.7 -3.2,-13.8 -2.8,-3 -6.1,-4.2 -11.8,-4.2 -4.8,0 -9.9,1.6 -14,4.2 -2.1,1.4 -6.1,5.2 -7.4,7 -0.9,1.3 -0.9,1.4 -0.3,1.8 0.3,0.3 0.7,0.5 0.8,0.5 0.1,0 0.9,-1 1.7,-2.1 2.8,-4.1 8.7,-8 13.7,-9.3 6.4,-1.6 12.7,-0.5 16,2.8 2.8,2.9 3.6,6.3 3,13.1 z"
               id="path245"
               inkscape:connector-curvature="0"
               style="fill:#b0b0b0" /><path
               class="st19"
               d="m 193.9,71.6 c -1.8,0 -3.4,0 -4.5,-0.1 -1.2,-0.1 -5.4,-0.3 -9.4,-0.4 l -7.2,-0.2 -1.9,-2.1 -1.9,-2.1 1.3,-0.4 c 1,-0.3 3.1,-0.3 10.2,0 3.5,0.1 6.6,0.3 9.3,0.3 -0.4,-0.5 -0.8,-1 -1.2,-1.5 -0.7,0 -1.4,-0.1 -2,-0.2 -2.4,-0.2 -4.8,-0.5 -5.3,-0.5 -0.5,-0.1 2.3,-0.3 6.4,-0.5 -0.5,-0.6 -0.9,-1.2 -1.4,-1.7 -1,0 -2.1,0 -3.3,0 -11.6,0 -12.6,-0.1 -16.2,-1.8 -0.3,-0.2 -0.6,-0.3 -0.9,-0.5 -0.2,0.4 -0.5,0.9 -0.7,1.3 0.2,0.1 0.5,0.2 0.8,0.4 2,1 5.6,2.1 6.9,2.1 1.1,0 0.3,0.4 -1.8,0.8 -1.2,0.3 -2.3,0.6 -2.9,0.7 -0.7,0.1 -1,-0.1 -2.6,-2 -0.5,-0.5 -0.9,-1 -1.2,-1.4 -0.1,0 -0.1,0 -0.1,-0.1 -0.1,-0.2 -0.3,-0.4 -0.4,-0.5 0,0 0,-0.1 0,-0.1 -0.2,-0.2 -0.3,-0.5 -0.1,-0.7 0.3,-0.4 0.6,-0.8 0.9,-1.2 -1.3,-0.9 -2,-2 -2.4,-3.5 -0.3,-1 -0.5,-2.2 -0.4,-2.6 l 0.1,-0.8 1.9,1.1 c 0.9,0.5 1.8,1 2.7,1.4 0.2,-0.6 0.3,-1.3 0.4,-1.9 -1.4,-0.7 -2.7,-1.5 -3.5,-2.2 l -1.4,-1.2 V 49 c -0.6,0.4 -1.2,0.8 -1.8,1.2 0.1,3 0.3,5.4 0.6,6.6 1.3,4.7 2.2,6 8.8,12.2 2,2 2.5,2.6 3.4,4.8 1.8,4.3 2,5.3 2.1,16.8 0.6,-0.1 1.2,-0.3 1.7,-0.4 0,-8.7 -0.3,-10.8 -1.4,-14.6 -0.4,-1.5 -0.7,-2.9 -0.6,-3 0.4,-0.4 8.8,-0.3 14.5,0.2 2,0.2 4,0.3 5.9,0.3 -0.7,-0.5 -1.1,-1 -1.4,-1.5 z"
               id="path247"
               inkscape:connector-curvature="0"
               style="fill:#b0b0b0" /><path
               class="st19"
               d="m 168.9,15.2 c 0.3,0.3 0.5,0.5 0.6,1.1 0.1,-0.1 0.1,-0.2 0.2,-0.4 0.3,-0.5 0.6,-1 0.9,-1.5 -2.2,-1.7 -3.2,-1.8 -4.7,-1 -1.6,0.9 -2.8,2.3 -3.6,4.9 0.1,0 0.2,-0.1 0.4,-0.1 0.5,-0.1 0.9,-0.1 1.3,-0.1 1.1,-2.7 3.2,-4 4.9,-2.9 z"
               id="path249"
               inkscape:connector-curvature="0"
               style="fill:#b0b0b0" /><path
               class="st19"
               d="m 172.5,45.5 -1,-0.1 c -1.6,-0.2 -3.5,-0.6 -4.3,-0.9 -3.3,-1.1 -5.3,-4.1 -5.3,-8 0,-3.5 0.7,-5.5 2.8,-7.4 -0.6,0.1 -1.1,0 -1.5,-0.2 -0.1,0 -0.1,0 -0.2,0 l -0.9,0.8 v -1.4 c 0,-1.4 0.5,-4.6 1,-6.9 -0.6,0.2 -1.2,0.5 -1.7,0.8 -0.2,0.9 -0.3,1.9 -0.5,2.9 -0.4,2.6 -0.6,6.2 -0.8,10 0.3,0.7 0.5,1.4 0.5,2.2 0.2,2.2 0,4.3 -0.5,6.5 0.1,0.4 0.2,0.8 0.4,1.2 0.3,0.4 0.7,0.7 1.2,0.9 V 42 l 1.6,1.5 c 1.9,1.9 3.6,2.7 7.2,3.2 1.3,0.2 2.1,0.4 2.7,0.6 -0.2,-0.6 -0.5,-1.2 -0.7,-1.8 z"
               id="path251"
               inkscape:connector-curvature="0"
               style="fill:#b0b0b0" /><path
               class="st19"
               d="m 168.2,35.5 c 0,-1.7 0.8,-2.9 3.2,-4.4 -0.1,-0.6 -0.2,-1.2 -0.5,-1.7 -3.5,2.1 -4.9,4.4 -4.4,7 0.3,2.1 2.3,3.8 4.8,4 0,-0.5 0,-0.9 0,-1.4 -2.3,-0.4 -3.1,-1.5 -3.1,-3.5 z"
               id="path253"
               inkscape:connector-curvature="0"
               style="fill:#b0b0b0" /><path
               class="st19"
               d="M 197.8,10.7 C 197.7,10.3 197,8.1 194.1,6 c 0.1,0.5 0.1,1 0,1.5 1.2,1.2 1.7,2.2 2.1,3.3 0.7,1.5 0.6,3.8 -0.2,5.4 -0.8,1.6 -3.3,3.9 -5.3,4.9 -1.8,0.9 -5.4,1.1 -8.4,0.8 -0.4,0.6 -0.8,1.2 -1.2,1.8 1.7,0.3 3.5,0.4 5.2,0.3 2.5,-0.1 3.2,-0.2 5,-1.1 2.5,-1.3 5.1,-3.8 6,-5.8 1.1,-2.4 1.2,-3.8 0.5,-6.4 z"
               id="path255"
               inkscape:connector-curvature="0"
               style="fill:#b0b0b0" /><path
               class="st19"
               d="m 175.2,11.4 c 0.3,0 0.6,-0.1 0.9,-0.1 0.6,0 1.2,0.1 1.8,0.4 l -1.2,-1.1 c -0.8,-0.8 -1.5,-1.5 -1.5,-1.7 0,-0.2 1.3,-1 2.9,-1.8 l 2.9,-1.4 3,-1 c 4.5,-0.9 6.4,0 7.6,0.8 -0.1,-0.4 -0.3,-0.8 -0.6,-1.2 -1.5,-0.6 -2.5,-0.6 -4.2,-0.6 -3.9,0 -6,1 -8.3,2.3 -1.3,0.6 -3,1.5 -3.8,2 l -1.5,1 -1.9,-0.7 C 169.3,7.6 166,7.5 164,8 c -1.8,0.5 -5,2.8 -6.1,4.5 -1.4,2.2 -2.3,6.2 -3,14.1 0.5,-1 1,-2 1.6,-3 0.4,-4 0.9,-6.9 1.6,-8.9 0.8,-2.4 2.4,-4.2 4.9,-5.5 2.1,-1.2 4.2,-1.3 7.3,-0.5 1.8,0.4 2.9,1 4.9,2.7 z"
               id="path257"
               inkscape:connector-curvature="0"
               style="fill:#b0b0b0" /><path
               class="st19"
               d="m 181,14.8 c 0,0.1 0.1,0.1 0.1,0.2 0.8,1.2 1.4,1.9 2.5,2.1 0.4,-0.2 0.9,-0.4 1.3,-0.6 -0.6,-0.1 -1.3,-0.4 -2.2,-0.8 -0.6,-0.3 -1.2,-0.6 -1.7,-0.9 z"
               id="path259"
               inkscape:connector-curvature="0"
               style="fill:#b0b0b0" /><path
               class="st19"
               d="m 180.4,10.9 -2.1,1 c 0.5,0.3 0.9,0.6 1.4,1 0.1,0.1 0.2,0.2 0.3,0.3 0.3,-0.2 0.7,-0.3 1.3,-0.6 3.3,-1.5 6.6,-1.3 7.7,0.6 0,0 0,0 0,0.1 0.5,-0.5 0.9,-1.1 1.2,-1.7 -0.1,-0.1 -0.2,-0.3 -0.4,-0.4 -2.1,-2.2 -5.5,-2.3 -9.4,-0.3 z"
               id="path261"
               inkscape:connector-curvature="0"
               style="fill:#b0b0b0" /><path
               class="st19"
               d="m 190.1,14.7 c -0.6,0.7 -1.3,1.4 -2.1,2 -0.1,0.1 -0.2,0.2 -0.3,0.3 -0.1,0.1 -0.2,0.2 -0.3,0.2 1.3,-0.3 2.3,-0.9 2.8,-1.9 0.3,-0.5 0.4,-0.9 0.5,-1.4 -0.2,0.4 -0.4,0.6 -0.6,0.8 z"
               id="path263"
               inkscape:connector-curvature="0"
               style="fill:#b0b0b0" /><path
               class="st19"
               d="m 177.8,24.4 c 0.2,-1.2 0.3,-1.4 0.9,-1.2 0.2,0.1 0.4,0.1 0.6,0.1 0.1,-0.1 0.1,-0.2 0.2,-0.3 0.2,-0.5 0.4,-1 0.5,-1.5 -0.5,-0.1 -1,-0.3 -1.4,-0.4 -0.7,-0.4 -2.9,-2 -4.7,-3.7 -0.3,-0.2 -0.5,-0.5 -0.7,-0.7 -0.3,0.6 -0.5,1.2 -0.7,1.8 v 0 c 0.8,0.7 1.9,1.9 2.6,2.8 1.8,2.4 1.5,4.1 -1.6,6.4 0.5,0.2 1.1,0.2 1.7,-0.2 0.8,-0.5 1.6,-1.2 2.3,-1.8 0.1,-0.4 0.2,-0.8 0.3,-1.3 z"
               id="path265"
               inkscape:connector-curvature="0"
               style="fill:#b0b0b0" /><path
               class="st19"
               d="m 168.2,55.5 c 3.7,1.4 8,2.1 14.4,2.3 -0.5,-0.6 -1,-1.1 -1.5,-1.7 -3.8,-0.2 -6.2,-0.6 -9,-1.3 -0.9,-0.2 -1.9,-0.6 -2.9,-1 -0.4,0.6 -0.7,1.1 -1,1.7 z"
               id="path267"
               inkscape:connector-curvature="0"
               style="fill:#b0b0b0" /><path
               class="st19"
               d="m 175.1,92.6 c -0.1,0 -0.2,0.1 -0.3,0.1 0,1 0,2.1 0,3.2 0,9.8 0,13.8 -0.3,16 0.5,0.6 1.1,1.1 1.6,1.7 0.4,-1.9 0.4,-5.6 0.4,-15 0,-2.4 0,-4.5 0,-6.4 -0.4,0 -0.9,0.2 -1.4,0.4 z"
               id="path269"
               inkscape:connector-curvature="0"
               style="fill:#b0b0b0" /><path
               class="st19"
               d="m 167.4,95.2 c -0.1,1 -0.2,2.1 -0.3,3 -0.2,1.2 -0.3,2.3 -0.4,3.3 0.5,0.7 1,1.4 1.5,2.1 0,-0.3 0.1,-0.5 0.1,-0.8 0.5,-2.5 0.7,-4.5 0.8,-8.3 -0.6,0.3 -1.2,0.5 -1.7,0.7 z"
               id="path271"
               inkscape:connector-curvature="0"
               style="fill:#b0b0b0" /></g><g
             id="layer3-1"
             transform="matrix(0.24266386,0,0,0.24370992,29.107597,63.960748)" /><path
             id="path165"
             d="m 121.5,353 c 9,-1.2 15.7,-3 22.5,-6.3 7.9,-3.8 14.3,-8.9 18.5,-14.6 2.1,-3 4.1,-6.3 3.8,-6.5 -0.1,-0.1 -0.6,0.1 -1.1,0.3 -3.8,1.9 -9.1,3 -15.9,3.3 -4.8,0.2 -5.3,0.1 -8.4,-0.6 -4.3,-1.1 -7.9,-2.8 -12.6,-6 -4.9,-3.3 -7.3,-4.2 -11.6,-4.4 -3.3,-0.1 -6.5,0.4 -9.8,1.6 -0.9,0.3 -4.4,2.1 -7.6,4 -4.2,2.4 -7.2,3.8 -10.2,4.9 -6.5,2.4 -7.8,2.6 -13.7,2.6 -5.8,0 -8.6,-0.5 -13.4,-2.5 -1.5,-0.6 -2.7,-1 -2.7,-0.8 0,0.1 2.5,2.8 5.5,5.9 8.1,8.2 13.6,12 21.7,15.1 4.4,1.6 11,3.3 16,4 2.4,0.3 4.8,0.7 5.3,0.8 1.6,0.2 8.9,-0.2 13.7,-0.8 z m -9.2,-5.2 c -2.2,-0.8 -2.1,-2.1 0.2,-2.8 2.8,-0.8 6.3,0 6.3,1.4 0.1,1.5 -3.9,2.3 -6.5,1.4 z m 5.7,-0.6 c 0.4,-0.2 0.7,-0.6 0.6,-0.8 -0.2,-0.6 -2.3,-1.4 -3.7,-1.4 -1.5,0 -3.5,0.8 -3.8,1.5 -0.1,0.2 0.4,0.6 1.1,0.9 1.4,0.6 4.7,0.5 5.8,-0.2 z m -36.1,-7.3 c -2.4,-0.8 -2.8,-1.6 -1.2,-2.5 0.8,-0.4 1.8,-0.6 4.2,-0.6 2.5,0 3.4,0.1 4.2,0.6 2.3,1.2 0.5,2.5 -3.8,2.7 -1.4,0 -3,-0.1 -3.4,-0.2 z m 6.9,-0.7 c 1.2,-0.6 1.2,-1 0,-1.5 -2.7,-1.3 -10.2,-0.3 -8.4,1.2 1.3,1 6.5,1.2 8.4,0.3 z m 51.2,0.4 c -1.8,-0.6 -2.4,-1.4 -1.9,-2.2 1.5,-2.4 11.2,-2 11.2,0.6 0,1.8 -5.9,2.9 -9.3,1.6 z m 7.9,-0.6 c 1.3,-0.8 1.3,-1.3 -0.1,-2.2 -1.6,-0.9 -6.7,-1 -8.3,0 -0.6,0.4 -1.2,0.8 -1.2,1 -0.2,0.5 1.2,1.4 2.6,1.7 1.7,0.5 5.8,0.2 7,-0.5 z m -36.6,-6 c -2.9,-0.8 -3.3,-2.1 -1.1,-3.3 1,-0.5 1.9,-0.6 4.6,-0.6 2.7,0 3.6,0.1 4.6,0.6 1.8,0.9 1.8,2 0,2.8 -1.4,0.9 -6,1.1 -8.1,0.5 z m 7.9,-0.7 c 1.6,-0.8 1.6,-1.4 0.1,-2.2 -2.6,-1.3 -8.6,-0.9 -9.8,0.6 -1.7,2 6.3,3.3 9.7,1.6 z m -9.3,-15 c 3.2,-0.8 7.4,-0.7 10.7,0.1 1.5,0.4 3,0.9 3.3,1 0.5,0.3 0.6,0.3 0.4,-0.3 -0.1,-0.3 -0.6,-1.7 -1,-3.2 -1,-3.4 -1.3,-8.5 -1.6,-26.7 -0.2,-13.7 -0.3,-14.3 -0.9,-15.6 -0.9,-1.7 -2.5,-3.1 -4.4,-3.8 -3.9,-1.5 -9.7,1.2 -10.8,5.1 -0.2,0.6 -0.3,2.2 -0.3,3.7 0,3.1 -0.4,3.9 -2,3.9 -0.8,0 -1.3,-0.4 -2.8,-1.9 l -1.8,-1.9 -1.5,1.3 c -0.8,0.7 -1.5,1.5 -1.5,1.7 0,0.2 0.9,1.5 1.9,2.8 2.1,2.6 5.5,8.7 6.9,12.3 1.3,3.3 1.8,6.4 1.8,10.3 0,4.8 -0.8,8.2 -3.1,13.5 -0.1,0.2 0.9,-0.1 2.2,-0.7 1.2,-0.6 3.3,-1.3 4.5,-1.6 z m 25.5,-61.9 c 0,-1 -0.4,-1.6 -1.3,-2.1 -0.5,-0.3 -1,-0.5 -1.1,-0.5 -0.4,0 -0.1,1.6 0.5,2.4 0.7,1 1.9,1.1 1.9,0.2 z m -76.9,-50 c 1.6,-1 2.8,-3.5 3.3,-6.5 0.4,-2.3 -0.2,-14.8 -0.6,-15.2 -0.1,-0.1 -0.8,-0.1 -1.6,0 -1,0.1 -1.3,0.3 -1.2,0.6 0.5,1.3 0.9,6.1 0.8,10 -0.1,3.8 -0.2,4.6 -0.8,5.7 -1.1,2 -2.1,2.8 -3.9,3 -2.8,0.3 -4.3,-0.9 -5.8,-4.7 -1.7,-4.2 -1.9,-6 -3.1,-21.6 -0.4,-6 -0.9,-12.9 -1.1,-15.4 -1.5,-20.6 -1.8,-33.4 -1.1,-45.5 l 0.2,-2.6 h -1.4 c -2.4,0 -2.3,-0.3 -1.9,7.6 0.8,16.2 1.4,27.7 1.7,35.9 0.5,15.2 1.9,34.9 2.7,39.3 1,5.2 3,8.7 5.7,10 1.9,0.8 6.4,0.5 8.1,-0.6 z m -2,-4.2 c 1.5,-1.5 1.9,-3.2 1.9,-8.5 0,-6.5 -0.4,-8 -2.6,-10.1 -2.7,-2.6 -2.7,-3.1 -1.4,-11.1 1.2,-7.2 0.9,-15.2 -1.1,-26.7 -1.3,-7.6 -1.2,-19.8 0.4,-29.3 0.3,-2.1 0.8,-6.4 1.1,-9.6 0.8,-9.1 0.1,-13.5 -2.5,-16.4 L 51,88.1 50.2,89.2 c -1.1,1.7 -2.3,4.7 -2.8,7.5 -0.4,2 -0.4,3.2 -0.2,6.7 0.3,4.6 0.2,5.7 -1,7 -0.8,0.9 -1.1,2.6 -1.7,10.5 -0.9,11.3 -0.5,24.1 1.3,43.8 0.3,2.8 0.7,8.3 1,12.2 0.9,12.6 1.3,15.9 2.4,19.2 0.9,2.6 2.2,4.5 3.7,5.5 0.6,0.3 1.8,0.4 3.6,-0.4 z M 61.3,179 c 2.7,-1.3 3.5,-3.7 3.5,-11.5 0,-6.7 -0.6,-8.2 -2.2,-16.7 -2.1,-8.6 -2.4,-10.6 -2.6,-17.1 -0.2,-6.9 0.2,-11.4 1.5,-17.9 1.6,-8.1 2,-13.2 1.3,-21 -0.4,-4.3 -1.3,-7.5 -3,-10.6 C 58,81 55.1,79 50,77.6 47.4,76.9 46.9,76.9 35.2,76.9 c -11.5,0 -12.2,0 -13.4,-0.6 -2.4,-1.2 -2.3,-3.6 0.3,-4.6 0.9,-0.3 3.8,-0.5 9.3,-0.7 9.6,-0.3 12.7,-0.9 18.4,-3.2 5.8,-2.4 5.8,-2.3 6.8,-5.4 0.5,-1.5 0.9,-2.7 0.8,-2.8 -0.1,-0.1 -1.4,0.4 -3,1 -6.1,2.4 -17.5,4.3 -30.9,5.3 -5.8,0.4 -8,1.1 -10.2,3.1 -2.7,2.4 -3.6,5 -2.9,8 0.7,2.7 3,4.5 7.4,5.7 1.7,0.5 3.7,0.6 12.6,0.6 11.6,0.1 13,0.2 17.7,2.1 3.6,1.4 5.4,2.8 6.5,5.2 2.7,5.7 2.8,12.1 0.6,25.2 -0.8,4.4 -1,6.9 -1.1,11.9 -0.2,6.8 0.1,10.4 2.2,24.7 0.9,5.9 1,7.3 0.8,11.5 -0.1,2.6 -0.4,6.5 -0.7,8.5 -0.3,2.1 -0.5,4.1 -0.3,4.6 0.2,2.2 2.9,3.1 5.2,2 z M 43.7,109.8 c 1.7,-1 1.8,-1.5 1.5,-6.4 -0.2,-3 -0.1,-5 0.2,-6.3 0.4,-1.9 2.1,-5.9 3.7,-8.3 L 49.9,87.5 49.1,87 c -1,-0.7 -4.2,-1.7 -6,-2 -1.4,-0.2 -1.5,-0.2 -2.4,0.9 -1.3,1.5 -2.9,5.3 -3.9,8.9 -0.7,2.5 -0.8,3.8 -0.9,6.9 0,3.6 0,4 0.9,5.7 0.7,1.4 1.2,2 2.2,2.5 1.8,0.7 3.4,0.7 4.7,-0.1 z M 96.1,95.7 c 1.3,-1.4 1.5,-1.9 0.6,-1.9 -1,0 -3.6,3.1 -3,3.6 0.3,0.3 1.1,-0.3 2.4,-1.7 z M 58.8,77.5 c 4.6,-5.5 6.7,-11.4 7.5,-21.4 0.5,-6 0.2,-15.4 -0.7,-19 -0.7,-3.3 -2.2,-6.2 -3.8,-7.6 -4,-3.5 -9,-3.7 -17.5,-0.9 -4.7,1.6 -7.3,1.9 -9.1,1.1 -2.3,-1 -2.3,-3.2 -0.2,-6 1.8,-2.3 6.8,-4 10.1,-3.4 1.8,0.3 3.9,1.4 4.8,2.4 0.3,0.3 0.8,1.1 1.1,1.8 l 0.6,1.2 2.9,0.1 c 1.6,0.1 3.1,0.2 3.5,0.4 0.6,0.2 0.6,0.1 0.4,-1.6 -0.3,-3.2 -2.2,-6.2 -4.9,-7.8 -0.8,-0.5 -2.6,-1.2 -4,-1.6 -6.5,-1.9 -13,-0.2 -18,4.8 -2.8,2.8 -4,4.9 -4,7.4 0,2.3 0.5,3.6 2.1,5 2.7,2.4 6.5,2.9 14.2,1.6 5.7,-0.9 9.8,-0.9 12,0.1 3,1.4 3.9,3.4 4.6,9.6 0.6,5.2 -0.9,16.7 -2.8,22 -1.2,3.4 -3.6,7.8 -5.2,9.6 l -1.4,1.5 1.2,0.4 c 0.7,0.2 1.9,0.7 2.8,1.1 0.9,0.4 1.8,0.8 2,0.8 0.4,-0.1 1.1,-0.7 1.8,-1.6 z M 49.7,74.9 C 51.2,73.6 53.1,71 54.2,69 l 0.5,-1 -2.3,1 c -5.8,2.3 -9.8,3 -20.1,3.3 -9.6,0.3 -10.7,0.5 -10.7,2 0,1.6 0.8,1.7 10.6,1.5 4.9,-0.1 9.9,0 11,0.1 4.6,0.5 4.9,0.4 6.5,-1 z m 74.1,-15.2 c 0,-0.7 -1.6,-1.3 -2.1,-0.8 -0.3,0.3 -0.2,0.5 0.3,0.8 0.9,0.6 1.8,0.6 1.8,0 z m -99.4,-1 c 1.2,-0.3 2.9,-1 3.8,-1.5 1.4,-0.8 1.9,-1.4 2.8,-3.2 0.6,-1.2 1.3,-2.3 1.6,-2.5 0.3,-0.2 2.2,-0.5 4.2,-0.8 6,-0.8 9.5,-2.3 14.1,-5.8 2.4,-1.9 3.8,-3.4 4.9,-5.7 0.8,-1.5 0.8,-1.6 0.2,-2.2 -0.8,-0.9 -2.6,-1.7 -4.3,-2 l -1.5,-0.2 -1.5,2.1 c -1.9,2.7 -4.2,4.6 -7.1,6.1 -2,1 -2.8,1.2 -4.7,1.3 -3.5,0.2 -5.1,-0.5 -7.2,-2.9 -2.8,-3.3 -6.5,-4.6 -12,-4.4 -4.7,0.2 -8.1,1.9 -7.6,3.7 0.3,1.1 1.6,1.2 4.7,0.6 5,-1 7.9,-0.7 10,1 1.8,1.5 2.5,2.7 2.8,4.8 0.4,3.4 -0.7,5.7 -3.5,7.1 -2,1 -6.8,1.2 -9.1,0.3 -0.9,-0.4 -2.6,-0.2 -3.4,-0.2 -1,0 -1,0 -1.5,0.3 -0.4,1 0.1,2.6 1.1,3.2 2.4,1.8 8.6,2.1 13.2,0.9 z M 9.6,54.3 c 1.1,-0.3 0,0 3,-1 l 1,-1 c 0,0 0.7,-1.9 1,-2 0.8,-0.3 1.6,0.1 2.5,1.4 1.2,1.5 2.3,2.1 4.2,2.1 1.2,0 2.5,-0.6 3.3,-1.5 l 1,-1 h -2 c -1,0 -2,0.1 -2.7,0.3 -1.8,0.7 -4.2,-0.6 -3.8,-2 0.1,-0.3 3.5,-0.3 -0.1,-0.7 -3.2,-0.4 -4.4,0.4 -5.4,1.4 -1.6,1.6 -2,2 -4.5,1.8 C 5.9,52 4.8,51.8 4.5,51.7 4.1,51.6 3.8,51.8 3.6,52.3 c 0,1 0,1 0.7,1.3 1.4,0.7 2.3,0.7 4.3,0.7 z m 8,-1.3 c -0.4,-0.4 -1.1,-1.1 -1.5,-1.6 -1,-1.1 -1.5,-0.9 -1.5,0.5 0,0.9 0.1,1.1 1.1,1.5 0.6,0.2 1.5,0.4 1.9,0.4 h 0.8 z m 2.2,-2 c 0,-0.5 -0.8,-1 -1.5,-1 -0.9,0 -0.9,0.4 0,0.9 0.9,0.4 1.5,0.4 1.5,0.1 z M 21,50.8 c -0.2,-0.6 -0.9,-0.7 -0.9,-0.1 0,0.3 0.2,0.5 0.5,0.5 0.3,0 0.5,-0.2 0.4,-0.4 z m 4.1,-0.6 c 0.5,-0.5 0.9,-1.1 0.9,-1.6 0,-1.2 -0.4,-1.5 -1,-0.6 -1.6,2.2 -1.4,2.3 -2.4,2 -0.6,-0.2 -0.5,-0.6 0,-1.2 0.3,-0.4 0.7,-0.6 0.8,-0.7 2.2,-0.7 0.1,0.3 -0.2,0.6 -0.5,0.6 -0.5,0.6 0,0.6 0.5,0 0.6,-0.1 0.7,-1 0,-0.2 0.4,-0.7 0.8,-1 0.9,-0.7 0.9,-2 0.1,-2.4 -0.5,-0.3 -0.7,-0.2 -1.1,0.5 -0.7,1.1 -2.9,2.2 -4.8,2.4 -1.6,0.2 -2.1,0.7 -0.7,0.9 0.4,0.1 1.6,-0.3 2.5,-0.8 2.2,-1.2 2.3,-1.2 2.1,-0.8 -0.1,0.2 -0.1,0.4 0.1,0.4 0.2,0 0.4,-0.1 0.5,-0.3 0.1,-0.2 0,-0.3 -0.2,-0.3 -0.2,0 -1.5,0.7 -1.4,0.6 0.3,-0.5 2.7,-1.3 2.7,-0.7 0,0.6 -1.1,1.3 -2.4,1.6 -0.5,0.1 -1.4,0.4 -1.8,0.5 -0.9,0.3 -0.9,0.3 1,1.2 2,1 2.7,1 3.8,0.1 z M 13.6,48.3 c 0.4,-0.3 -1,1 0.1,-0.3 0.4,-0.5 0,0.5 -0.1,0.3 -0.1,-0.2 1,-1 -1.4,-0.9 -2.4,0 -3.9,-0.5 -5.1,-1.6 -1,-1 -0.9,-1 -1.6,-0.4 -0.6,0.6 0.1,1.9 0.1,1.9 1,1 1.6,1 2.4,1.6 1.9,0.8 4.6,0.4 5.6,-0.6 z m 71.1,0.1 c 0.1,-1 -0.4,-2.7 -1,-3.5 -0.3,-0.3 -0.4,-0.3 -0.6,0 -0.4,0.6 -0.3,3.4 0.1,4.1 0.5,1 1.4,0.6 1.5,-0.6 z M 18.3,46.2 c 2.3,-2.2 2.8,-3.1 2.3,-3.7 -0.2,-0.2 -0.5,-0.1 -1,0.4 -0.4,0.4 -0.5,0.7 -0.3,0.7 0.5,0 0.2,1.3 -0.4,1.7 -0.3,0.2 -0.8,0.2 -1.1,0.1 -0.4,-0.2 -0.5,-0.3 -0.2,-0.9 0.5,-0.9 -0.1,-0.8 -1.1,0.3 -0.9,0.9 -1.8,3 -1.5,3.4 0.4,0.4 1.2,0 3.3,-2 z m -2.5,0.7 c -0.2,-0.6 0.4,-1.8 1,-1.8 0.6,0 0.6,1.3 0.1,1.9 -0.5,0.5 -0.9,0.5 -1.1,-0.1 z M 17,46.1 c 0,-0.2 -0.1,-0.3 -0.3,-0.3 -0.2,0 -0.3,0.1 -0.3,0.3 0,0.2 0.1,0.3 0.3,0.3 0.2,0 0.3,-0.1 0.3,-0.3 z m -1,-1.4 c 0.5,-0.5 1.5,-1.2 2.3,-1.6 l 1.4,-0.7 -1.1,-0.1 c -0.7,-0.1 -1.4,0.1 -1.9,0.5 -0.9,0.7 -2.3,3.1 -2.2,4.1 0,0.5 0.1,0.4 0.4,-0.3 0.1,-0.5 0.6,-1.4 1.1,-1.9 z m 5.2,1.8 c 1.1,-0.5 2.2,-2 2.1,-2.6 -0.1,-0.7 -1,-1.2 -1.7,-0.9 -0.5,0.2 -0.5,0.2 0,0.6 0.4,0.3 0.5,0.6 0.3,1.1 -0.2,0.8 -1.9,1.8 -2.6,1.5 -0.5,-0.2 -1.2,0.5 -0.9,0.9 0.3,0.3 1.6,0 2.8,-0.6 z m -5.4,-3.8 c -0.1,-0.2 -2.1,0.6 -2.1,0.9 0,0.1 0.1,0.7 0.2,1.3 l 0.2,1 0.9,-1.5 c 0.5,-1 0.9,-1.7 0.8,-1.7 z m 4.5,2.7 c 0.3,-0.6 0,-0.7 -0.5,-0.1 -0.3,0.3 -0.3,0.5 -0.1,0.5 0.3,0 0.5,-0.2 0.6,-0.4 z m 1.1,-0.8 c 0,-0.3 -0.1,-0.4 -0.3,-0.3 -0.2,0.1 -0.3,0.3 -0.3,0.5 0,0.2 0.1,0.3 0.3,0.3 0.2,0 0.3,-0.2 0.3,-0.5 z m -2.5,-0.1 c 0,-0.2 -0.1,-0.3 -0.3,-0.3 -0.2,0 -0.3,0.1 -0.3,0.3 0,0.2 0.1,0.3 0.3,0.3 0.1,0 0.3,-0.1 0.3,-0.3 z M 24.6,44 c -0.2,-0.3 -0.5,-0.4 -0.6,-0.3 -0.1,0.1 0,0.3 0.3,0.5 0.7,0.4 0.8,0.4 0.3,-0.2 z M 44.5,27.6 c 5,-1.5 5.1,-1.5 4.9,-2.3 -0.4,-1.6 -1.3,-2.7 -2.7,-3.5 -1.2,-0.6 -1.8,-0.7 -3.8,-0.6 -2.8,0.2 -4.4,0.8 -6.1,2.7 -1.5,1.6 -1.9,2.7 -1.5,3.9 0.5,1.8 2.7,1.8 9.2,-0.2 z m 58.7,328.7 c -4.7,-0.6 -9.4,-1.9 -15.3,-4.2 -9.3,-3.6 -14.3,-6.8 -20.9,-13.2 -4.7,-4.6 -8.8,-9.5 -10.8,-12.8 -0.7,-1.1 -1.1,-2.1 -1.1,-2.1 0,0 1.1,0.4 2.4,1 11.7,5.9 22.8,6.1 34.2,0.5 3.5,-1.7 4.3,-2.2 6.8,-4.7 3.2,-3.2 4.4,-5.3 5.3,-9.5 1.1,-5.2 0,-12.7 -2.5,-18.2 -1.1,-2.4 -4,-7.4 -6.2,-10.6 -0.6,-0.9 -1.1,-1.8 -1.1,-2 0,-0.5 4.7,-4.9 5.3,-4.9 0.3,0 1.1,0.8 1.8,1.7 0.7,0.9 1.5,1.7 1.7,1.8 0.2,0.1 0.3,-2.2 0.1,-7.2 -0.5,-17.6 -0.6,-40.6 -0.2,-52.9 1,-34 1.3,-44.8 2.5,-76 0.3,-7.7 0.5,-16.6 0.4,-19.7 -0.1,-5 -0.2,-5.9 -1,-8.2 -1,-3.1 -3.5,-7.7 -5.5,-10.5 -0.8,-1.1 -2.6,-3 -4,-4.2 -2.3,-2 -2.6,-2.3 -2.4,-3 0.5,-2 2.8,-4.4 4.9,-5 0.6,-0.2 1,0 1.9,1.2 2.4,2.8 4.8,5.1 5.5,5.1 0.4,0 0.9,-0.4 1.2,-0.9 0.5,-0.8 0.6,-1.6 0.5,-6.8 0,-8.5 -1,-30 -1.6,-33.8 -1,-7.3 -2.2,-10.5 -6.4,-16.8 -4.8,-7.3 -8.9,-10.1 -11.3,-7.8 -1.1,1.1 -0.9,1.6 1.8,6.6 1.2,2.2 2.6,5.1 3,6.4 1.9,5.6 0,10.7 -4.9,13 -1.4,0.6 -2.1,0.8 -3.7,0.7 -2.5,-0.2 -5.7,-1.6 -7.4,-3.4 L 74.9,54.5 74,55.8 c -1.1,1.7 -2.8,3.4 -5.5,5.5 -1.3,1 -1.9,1.7 -1.9,2.2 0,1.5 -1.7,6.5 -3.1,9.2 -0.8,1.5 -2.2,3.8 -3.2,5 -1,1.4 -1.6,2.4 -1.5,2.7 0.1,0.2 0.9,1.2 1.6,2.2 3.1,4.1 4.5,8.8 4.8,16.1 0.2,4.9 -0.5,13.7 -1.4,17.4 -1.7,7.5 -2.2,10.7 -2.2,16.4 0,6.1 0.6,10.6 2.7,18.8 1.4,5.7 2.3,13.3 2.3,19.9 0,5.8 -0.8,8.5 -3.1,10.8 -1.1,1.1 -1.1,1.2 -1.1,3.6 0,1.4 0.2,4.6 0.4,7.2 0.7,8.5 -0.6,12.5 -4.5,14.1 -2.9,1.2 -7.6,0.9 -9.7,-0.6 -1.5,-1 -3.2,-3.7 -3.9,-6 -1.6,-5.3 -2.7,-17.8 -3.5,-39.5 -0.3,-7.3 -0.7,-17 -1,-21.6 -0.3,-4.6 -0.5,-10.4 -0.5,-13 0,-5.5 -0.5,-10.8 -1.1,-13 -0.3,-1 -0.9,-1.9 -1.9,-2.8 -1.3,-1.2 -1.5,-1.5 -1.8,-3.7 -1.1,-6.9 0.9,-16.7 4.4,-21.4 l 0.8,-1.1 -10.3,0.1 c -9.3,0.1 -10.5,0 -12.2,-0.5 -4.5,-1.4 -7.2,-3.4 -7.9,-6 -1.6,-5.7 1.6,-10.7 8.1,-12.7 1.6,-0.5 3.7,-0.7 8.6,-1 3.6,-0.2 8.2,-0.5 10.3,-0.8 6.8,-0.8 15.5,-3.2 20.7,-5.6 1.1,-0.5 1.2,-1.3 1.5,-8.8 0.2,-4.9 0.1,-6 -0.4,-7.7 l -0.6,-1.9 -0.5,1 c -0.6,1.2 -3,4.1 -4.1,5.1 -1.8,1.5 -5.9,4 -7.7,4.7 -1,0.4 -4,1.1 -6.6,1.6 -2.7,0.5 -5.2,1.2 -5.6,1.4 -0.4,0.3 -1.1,1.2 -1.5,2 -1.6,3.1 -3.7,4.2 -9.3,5 -5.8,0.8 -9.7,0.3 -12,-1.6 C 9.4,57.4 8.4,55.5 8.8,54.9 8.9,54.7 8.2,54.6 6.9,54.6 3.7,54.6 1.7,53.2 2.9,51.5 3.3,51 3.4,51 5.3,51.4 7.3,51.9 8.2,51.9 9.9,51.2 11.1,50.7 11,50.4 9.3,50 7.8,49.6 5.8,48.1 4.6,46.4 4.1,45.7 4,45.4 4.3,44.9 4.9,43.8 5.6,43.8 6.9,45 c 1.4,1.3 3.1,2.1 4.7,2.1 1,0 1.1,-0.1 1.1,-0.8 0,-0.9 -1.4,-2.7 -2.1,-2.7 -0.2,0 -0.9,-0.4 -1.4,-0.8 -1.4,-1.1 -1.3,-2.3 0.1,-3.9 1.6,-1.8 4.4,-2.7 8.9,-2.9 3.1,-0.1 3.8,0 6.1,0.7 3.1,1 4.9,2.2 6.5,4.3 1.3,1.9 2.6,2.4 5.6,2.4 2.5,0 5.4,-1.3 7.8,-3.3 1.6,-1.5 3.6,-4.1 3.3,-4.4 -0.1,-0.1 -2.5,0.1 -5.2,0.4 -5.7,0.7 -8.6,0.4 -11.6,-0.8 -3.2,-1.4 -5.4,-4.9 -5,-8 0.4,-3.4 4,-7.8 8.8,-10.8 5.1,-3.1 9.7,-3.8 15.2,-2.3 6.4,1.8 9.2,4.8 10.2,11.1 0.2,1.2 0.5,2.4 0.8,2.5 4.1,2.5 6.7,10.2 6.8,20.3 0,2.4 0,2.5 0.4,1.4 0.2,-0.6 0.5,-2.9 0.6,-5 0.1,-2.1 0.4,-4.6 0.7,-5.5 0.8,-2.7 2.7,-5.3 5.2,-6.7 0.9,-0.5 1.4,-1.1 1.5,-1.7 0.7,-3.4 2.3,-5.4 5.4,-7 1.6,-0.8 2.3,-0.9 5.2,-1 4.1,-0.1 6.5,0.4 10.1,2.3 4.6,2.4 8.1,6.6 11.5,13.6 1.6,3.2 2.2,3.8 3,2.9 0.2,-0.2 0.8,-2.6 1.3,-5.3 1,-5 1.8,-7.6 3.3,-10.5 0.9,-1.8 1.1,-1.9 2.1,-1.3 0.6,0.4 0.5,0.5 -0.8,3 -1.6,2.9 -2.7,6.4 -3.5,10.6 -0.6,3.1 -0.8,3.8 -1.9,4.9 -0.7,0.7 -2.2,1 -3,0.5 -0.2,-0.1 -1.1,-1.7 -1.8,-3.6 -4.2,-10.4 -11,-16 -19,-16 -4,0 -6,0.6 -7.8,2.4 -1.4,1.4 -2.6,3.6 -2.6,4.4 0,0.3 0.8,0.8 1.8,1.3 3.3,1.6 4.6,4.3 4.2,8.5 -0.2,2.2 -0.2,2.2 0.9,3.6 2.1,2.6 2.4,5.1 0.9,6.7 -1.7,1.7 -3.5,0.6 -4.2,-2.6 -0.3,-1.5 -0.3,-2.1 0.6,-6 0.5,-2.3 1,-4.6 1,-4.9 0,-1.1 -1.2,-3 -2.4,-3.8 -2.4,-1.6 -5,-1.1 -7.2,1.4 -2.1,2.3 -2.5,3.9 -3,10.1 -0.3,4.4 -0.4,4.8 -1.6,7.2 -1.1,2.2 -1.3,2.9 -1.4,5.4 l -0.2,2.8 0.7,-0.4 c 1.3,-0.7 5.2,-4.9 6,-6.5 0.7,-1.5 0.7,-1.7 0.5,-5 -0.6,-7.5 -0.2,-9.7 1.8,-10.8 0.5,-0.3 1,-0.5 1.1,-0.5 0.5,0 0.1,1.4 -0.7,2.6 -0.8,1.3 -0.9,1.6 -1,5.6 -0.1,5.3 0.3,7 2.3,9.2 2.4,2.5 6.5,3.5 9.1,2.2 1.5,-0.7 3.1,-2.4 3.8,-3.7 0.3,-0.5 0.6,-2.1 0.6,-3.4 0.2,-2.9 -0.5,-4.8 -3.6,-10.7 -2.1,-3.9 -2.4,-5 -1.8,-6.7 0.4,-1.1 2.3,-1.9 3.9,-1.6 3,0.5 5.5,2.6 8.9,7.6 3.7,5.3 5.3,8.6 6.6,14.1 0.9,3.7 1.9,18.9 2.1,33.4 l 0.2,12.5 -0.9,1 c -1.6,1.9 -3.8,1.3 -6.8,-1.9 l -1.5,-1.9 -1.7,1.7 -1.7,1.7 1.4,1 c 1.6,1.1 5.3,5.5 6.3,7.6 1.6,3.1 3.8,8.6 4.3,10.9 0.5,2.2 0.5,3.6 0.3,11.8 -0.3,10.8 -1,30 -1.5,38.7 -1,17.3 -1.8,67.2 -1.4,87.6 0.2,13.5 0.3,14 0.8,13.1 0.8,-1.4 3.1,-3.3 4.8,-4 1.9,-0.9 5.9,-0.9 8.3,-0.1 1.8,0.6 3.7,2.2 4.8,4.1 l 0.6,1 0.7,-1.4 c 2,-3.9 3.9,-6.7 6.5,-9.2 2.7,-2.6 2.7,-2.7 2.1,-3.3 -0.3,-0.3 -0.8,-0.9 -1.1,-1.2 -0.5,-0.7 -0.5,-0.6 -2.3,1.1 -2.4,2.4 -4.2,3.7 -5.2,3.7 -0.4,0 -1.2,-0.4 -1.7,-0.9 l -1,-0.9 -0.2,-7.2 c -0.1,-4 -0.5,-15.3 -1,-25.3 -0.8,-18.8 -1.1,-37.5 -1.8,-109.4 -0.2,-22.6 -0.2,-37.1 0,-38.9 0.4,-4.3 1.6,-8.2 3.9,-13.3 1.4,-3 1.4,-2.8 -0.2,-3.5 -1.8,-0.8 -1.7,-0.8 -1.7,0.2 0,0.4 -0.1,1.2 -0.3,1.6 -0.3,0.7 -0.5,0.8 -1.4,0.7 -1.7,-0.2 -1.9,-1 -1.7,-6 0.4,-10.9 2.5,-22 5.2,-28.1 0.8,-1.8 1.2,-2 2.3,-1.1 l 0.7,0.6 -1.6,4.2 c -2.2,5.7 -3.3,10.5 -4.1,16.8 -0.8,6.7 -1,12.2 -0.4,12.2 0.2,0 0.4,-0.5 0.5,-1 0.3,-1.6 1,-2.7 1.8,-3 0.8,-0.3 3.4,1 3.7,1.7 0.2,0.6 0,1.3 -2.1,7.2 -1.7,4.8 -2.1,7.1 -2.4,11.5 -0.2,3.5 0.1,48.9 0.8,103.2 0.3,22.6 0.5,31.8 1.1,43.5 0.4,8.4 0.8,18.6 0.8,23.4 0,7.2 0.1,8.6 0.5,9.2 0.3,0.4 0.8,0.7 1.1,0.7 0.3,0 2.1,-1.5 4,-3.2 3.2,-3 3.5,-3.2 4.4,-3 1.3,0.3 2.7,1.6 3.1,3 0.3,1.1 0.3,1.1 -3.3,4.7 -3.8,3.8 -5,5.4 -7.1,9.6 l -1.2,2.5 0.1,20.2 c 0.1,21.9 0.1,22.2 1.9,25.6 1.4,2.6 4.6,5.6 7.8,7.2 3.6,1.8 6.2,2.3 12.3,2.5 4.4,0.1 5.6,0.1 8.3,-0.5 4.5,-0.9 8.8,-2.3 12.2,-4 1.6,-0.8 2.9,-1.4 3,-1.3 0.3,0.3 -3.2,7.4 -4.7,9.5 -2.1,3 -6.3,7.6 -9.4,10.4 -5.9,5.2 -17.1,10.6 -27.8,13.3 -7.8,1.9 -18.1,2.6 -25.3,1.6 z"
             inkscape:connector-curvature="0" /></g><g
           id="g42384_1_"><path
             class="st20"
             d="m 157.6,168.5 c -0.3,0 -0.7,0.1 -1,0.1 -0.1,0 -0.1,0 -0.2,0 -1.9,0.4 -3,0.1 -4.9,-0.8 -0.1,-0.1 -0.2,-0.1 -0.4,-0.1 -1.3,-0.3 -2.5,-0.7 -3.8,-1 -0.8,0 -1.4,0.2 -1.8,0.5 -0.9,1 -0.9,3.7 0,4.9 0.3,0.5 0.7,0.9 0.8,1 0.4,0 0.5,-1.3 0.2,-2.4 -0.4,-1.3 0.1,-2.7 1,-2.7 0.3,0 1.7,0.6 3,1.2 2.5,1.2 4.5,1.5 6.7,0.9 l 1,-0.3 -0.2,1.2 -0.2,1.2 0.9,-0.8 c 1,-1 0.9,-2.3 0.2,-2.8 -0.3,-0.2 -0.8,-0.2 -1.3,-0.1 z"
             id="path278"
             inkscape:connector-curvature="0"
             style="fill:#1a1a1a" /><path
             class="st20"
             d="m 161.6,227.6 c 0.2,0.1 0.7,0.2 1.1,0.3 0.8,0.2 3.8,-0.1 5.6,-0.5 4.5,-1.1 9.8,-6 9.8,-9 0,-2 -3,-4.6 -6.8,-5.7 -2.3,-0.7 -2.9,-0.7 -2.9,0.3 0,0.4 0.4,0.6 1.3,0.7 1.6,0.2 4.3,1.5 5.7,2.6 0.8,0.7 1,1.1 1,2.1 0,3.5 -6.6,8.1 -11.7,8.1 -1.8,0.1 -3.9,0.8 -3.1,1.1 z"
             id="path280"
             inkscape:connector-curvature="0"
             style="fill:#1a1a1a" /><path
             class="st20"
             d="m 156,183.6 c 2.3,-0.4 2.3,-0.5 4.1,-6 1,-3.1 1.2,-4.2 1,-4.8 -0.2,-0.4 -0.6,-0.8 -0.8,-0.8 -0.6,0 -2.5,2.2 -2.5,2.9 0,1 0.6,0.7 1.3,-0.5 0.4,-0.6 0.7,-1.1 0.8,-1 0.1,0.2 -2.5,8 -2.9,8.5 -0.2,0.2 -0.7,0.4 -1.2,0.5 -0.6,0.1 -0.9,0.3 -1,0.8 -0.1,0.6 0,0.7 1.2,0.4 z"
             id="path282"
             inkscape:connector-curvature="0"
             style="fill:#1a1a1a" /><path
             class="st20"
             d="m 155.4,197.4 c 1.7,1 4.3,2.9 5.9,4.4 1.6,1.4 3.1,2.6 3.2,2.6 0.9,0 0.4,-1.3 -1.1,-2.9 -1.5,-1.6 -1.5,-1.6 -1.4,-3.4 0.1,-2.4 -0.7,-5.3 -2,-7.1 -0.6,-0.8 -1.5,-2.3 -2.1,-3.3 -0.7,-1.2 -1.3,-1.9 -1.8,-2 -1,-0.3 -1.7,0 -1.7,0.8 0,0.5 0.2,0.7 0.8,0.7 0.6,0 1,0.3 1.5,1.3 0.4,0.8 1.3,2.3 2.1,3.4 1.4,2.1 1.9,3.8 1.7,5.8 l -0.1,1 -4.2,-2.6 c -4.6,-2.9 -6.6,-4.6 -8.5,-7.6 -1.3,-1.9 -2.4,-5.2 -1.9,-5.7 0.1,-0.1 1,0.6 1.9,1.6 1.7,1.8 2.8,2.3 2.8,1.3 0,-0.9 -3.8,-4.6 -4.7,-4.6 -2.4,0 -1.6,4.6 1.4,9.2 2.1,3 3.9,4.6 8.2,7.1 z"
             id="path284"
             inkscape:connector-curvature="0"
             style="fill:#1a1a1a" /><path
             class="st20"
             d="m 177,204.1 c -0.9,0 -5.4,4.7 -5.4,5.7 0,0.9 1,1.7 2.6,2 3.4,0.6 4.4,-0.3 4.5,-3.8 0,-2.8 -0.5,-3.9 -1.7,-3.9 z m -0.2,6.2 c -0.7,0.3 -2.8,0.2 -3.2,-0.1 -0.4,-0.2 -0.1,-0.8 1.2,-2.4 0.9,-1.1 1.8,-2.1 1.9,-2.1 0.8,0 0.9,4.3 0.1,4.6 z"
             id="path286"
             inkscape:connector-curvature="0"
             style="fill:#1a1a1a" /><path
             class="st20"
             d="m 158.5,160.1 c -1.4,0 -1.3,0.8 0.1,1.4 1.4,0.6 1.7,1.6 0.9,2.7 -0.8,1.1 -2.6,1.2 -5.2,0.5 -5.8,-1.7 -8.3,-4.9 -8.7,-11.2 -0.1,-2.1 -0.1,-2.8 0.2,-2.6 0.2,0.1 0.4,0.3 0.4,0.5 0,0.7 1.7,3.8 2.1,3.8 0.5,0 0.6,-1.4 0.1,-2.2 -0.2,-0.3 -0.7,-1.5 -1.1,-2.6 -0.9,-2.4 -1.6,-2.7 -2.6,-1 -1.4,2.3 -0.5,8.8 1.6,11.9 0.4,0.5 0.8,1 1.4,1.5 0.8,0.6 1.6,1.2 2.4,1.8 1.3,0.8 2.8,1.5 4.3,1.8 0.9,0.2 1.8,0.3 2.6,0.3 0.7,-0.1 1.4,-0.2 2,-0.4 1.4,-0.6 2.3,-1.7 2.4,-3.4 0,-1.3 -1.5,-2.8 -2.9,-2.8 z"
             id="path288"
             inkscape:connector-curvature="0"
             style="fill:#1a1a1a" /><path
             class="st20"
             d="m 169.9,166.5 c 0,0.9 0.9,0.2 1.7,-1.3 0.7,-1.5 0.8,-2 0.8,-5.8 0,-3.4 -0.1,-4.4 -0.6,-5.2 -0.9,-1.6 -1.3,-1.3 -1.1,0.8 0.6,5.4 0.6,6.9 -0.1,9 -0.4,1.1 -0.7,2.2 -0.7,2.5 z"
             id="path290"
             inkscape:connector-curvature="0"
             style="fill:#1a1a1a" /><path
             class="st20"
             d="m 172.2,142 c -0.5,0.5 -1,1.3 -1.1,1.7 -0.5,2.2 2.6,-0.8 4.1,-3.8 2,-4.2 0.6,-6.4 -2.6,-4.1 -0.8,0.6 -1.3,1.2 -1.3,1.6 0,0.7 0.3,0.8 1.3,0 0.4,-0.3 1.1,-0.8 1.5,-1 0.7,-0.4 0.7,-0.3 0.5,0.7 -0.4,1.7 -1.4,3.9 -2.4,4.9 z"
             id="path292"
             inkscape:connector-curvature="0"
             style="fill:#1a1a1a" /><path
             class="st20"
             d="m 217.7,59.2 c -0.2,-2.6 -0.8,-5.1 -2,-7.6 -0.3,-0.6 -0.6,-1.3 -1,-2.1 -0.3,-0.4 -0.5,-0.8 -0.8,-1.3 -0.1,-0.1 -0.2,-0.2 -0.3,-0.4 -0.7,-0.9 -1.5,-1.7 -2.4,-2.5 -0.1,-0.1 -0.1,-0.1 -0.1,-0.2 -0.8,-0.7 -1.7,-1.2 -2.7,-1.7 -2.7,-1.3 -5.2,-1.6 -8.9,-1.2 -2.1,0.3 -3.7,0.6 -4.8,1 -0.4,0.2 -0.7,0.4 -1,0.7 0,0 -0.1,0 -0.1,0.1 0,0 0,0 0,0 -0.1,0.1 -0.2,0.1 -0.3,0.2 -0.1,0.1 -0.2,0.3 -0.2,0.4 -0.1,0.6 0,0.7 0.5,0.5 3.9,-1.5 11.1,-1.8 13.7,-0.6 2.1,1 4.2,3 6.1,5.8 2.2,3.3 3,6.1 3,10.2 0,4 -0.6,6.3 -2.7,10.6 -2.5,5.2 -5.4,7.9 -8.4,7.9 -1.3,0 -1.6,-0.1 -3.3,-1.9 -1.1,-1.1 -3.8,-4.5 -6.1,-7.5 -4.4,-5.9 -5.3,-6.9 -11,-13.2 -5.3,-5.9 -6.6,-7.5 -8,-10.3 -1.9,-3.7 -2.6,-6.2 -2.8,-9.3 -0.3,-3.8 0,-4.6 1.9,-5.6 2.1,-1.2 3,-2.1 5.9,-6.4 2.2,-3.3 2.8,-3.9 5.9,-6.3 3.6,-2.8 5.4,-4.9 6.4,-7.4 0.9,-2.2 1.1,-4.9 0.7,-6.9 -0.8,-3.7 -4.5,-5.3 -7.6,-3.3 -1.1,0.7 -2.5,2.6 -2.3,3.2 0.3,0.8 1,0.5 1.8,-0.8 0.7,-1.2 2.1,-2.1 3.1,-2.1 1.4,-0.3 2.9,0.8 3.5,2.3 0.3,0.7 0.4,1.3 0.4,2 0.6,2.3 -0.4,4.8 -1.9,6.9 -0.5,0.7 -1.1,1.5 -1.7,2.2 -0.7,0.9 -1.5,1.6 -2.3,2.3 -0.1,0.1 -0.2,0.2 -0.3,0.2 -0.9,0.8 -1.9,1.4 -2.9,2.1 -0.9,0.8 -1.5,1.4 -2.1,2.2 -0.6,1 -1.3,2 -2,2.9 -2.5,3.8 -3.6,4.8 -5.5,5.8 -1.4,0.7 -1.8,1 -2.1,2 -0.7,1.8 -0.5,6.5 0.3,9.4 1.1,4 2.9,7.3 6.9,12.1 3.5,3.5 6.7,7.3 9.8,11.2 1.3,1.6 2.3,2.8 3.2,4.1 0.9,1.1 1.7,2.2 2.5,3.4 0.2,0.3 0.4,0.6 0.7,0.9 2,2.5 4.2,5.2 5,5.9 0.4,0.4 1.2,0.9 1.7,1.2 2.3,1.2 4.5,0.4 8,-2.8 0.2,-0.2 0.3,-0.3 0.5,-0.5 0.7,-0.8 1.3,-1.6 1.9,-2.5 1.8,-2.9 3,-6.1 3.6,-9 0.5,-2.1 0.7,-4.2 0.6,-6.3 z"
             id="path294"
             inkscape:connector-curvature="0"
             style="fill:#1a1a1a" /><path
             class="st20"
             d="m 167.4,134.3 c -0.1,-0.4 -0.4,-0.3 -1.5,0.7 -1.6,1.4 -4.6,2.8 -7.5,3.5 -2.8,0.6 -6.5,1.9 -10.1,3.5 -1.5,0.7 -2.9,1.1 -3.2,1 -1.9,-0.7 -1.8,-9.3 0.1,-16.2 0.3,-1 1.2,-3.6 2.1,-5.9 1.8,-4.5 2.4,-7.4 1.5,-6.7 -1.1,1 -5.1,11.6 -5.9,16 -0.3,1.5 -0.6,4.6 -0.6,6.8 0,3.7 0,4.3 0.7,5.6 0.5,0.8 1.1,1.6 1.5,1.8 0.7,0.3 1.1,0.3 3.9,-0.8 1,-0.5 2,-1 3.1,-1.3 2.2,-0.9 4.6,-1.6 6.2,-2 3.4,-0.7 6,-1.8 7.8,-3.1 1.4,-1.1 2.2,-2.2 1.9,-2.9 z"
             id="path296"
             inkscape:connector-curvature="0"
             style="fill:#1a1a1a" /><path
             class="st20"
             d="m 171.9,150.7 c 1,0.2 1.2,0.5 1.4,3.9 0.2,1.5 0.5,3.1 0.7,3.5 0.6,0.9 1.8,1 2.6,0.2 0.6,-0.7 1.9,-4.7 2.6,-7.9 0.3,-1.5 0.5,-4.1 0.5,-6.6 0,-4 0,-4.2 -0.7,-4.7 -0.7,-0.4 -0.8,-0.4 -1.3,0 -0.3,0.2 -1.3,1.7 -2.1,3.3 -0.8,1.5 -2.2,3.7 -3.1,4.7 -1.9,2.2 -2.1,3.4 -0.6,3.6 z m 2.1,-3.1 c 0.7,-0.8 2,-2.6 2.7,-4 l 1.3,-2.5 -0.1,4.3 c -0.1,3.4 -0.3,5 -1,7.5 -1.4,5.2 -2.1,5.9 -2.1,2.2 0,-2.7 -0.6,-4.8 -1.5,-5.5 l -0.7,-0.5 z"
             id="path298"
             inkscape:connector-curvature="0"
             style="fill:#1a1a1a" /><path
             class="st20"
             d="m 156,213.3 c -1.5,1.2 -1.5,1.3 -1.2,2.2 l 0.5,1.1 3.3,-3.4 c 1.9,-1.9 3.5,-3.7 3.7,-4 0.4,-0.6 0.4,-0.6 1.2,0.3 1.7,2 1.5,-0.8 -0.3,-3.2 -1.2,-1.5 -3.8,-3.5 -9.7,-7.4 -5.4,-3.5 -5.5,-3.5 -6.4,-3.1 -2.5,1.2 -3.1,7.5 -1.2,12.4 0.9,2.3 2.6,4.6 3.5,4.7 1.1,0.2 0.9,-1 -0.2,-2 -1.4,-1.2 -2.7,-4.6 -2.9,-7.6 -0.1,-2.7 0.4,-5.5 1.1,-6.1 0.5,-0.4 0.7,-0.3 4.6,2.3 1.2,0.8 3.2,2.2 4.5,3 1.3,0.8 2.3,1.7 2.3,1.9 0,0.9 -2,3.7 -3.4,5 -1.4,1.3 -1.5,1.4 -1.2,2.4 l 0.3,1 1.6,-1.7 c 0.9,-1 2.1,-2.7 2.8,-3.8 0.7,-1.2 1.3,-2.1 1.4,-2.1 0.1,0 0.5,0.3 0.8,0.8 0.5,0.8 0.5,0.9 0,1.9 -0.7,1.2 -3,3.7 -5.1,5.4 z"
             id="path300"
             inkscape:connector-curvature="0"
             style="fill:#1a1a1a" /><path
             class="st20"
             d="m 179.4,169.2 c -0.7,-4.9 -1.7,-6.9 -3.6,-6.9 -1.1,0 -1.2,0.1 -2.6,2.9 -0.8,1.6 -1.8,3.4 -2.3,4 -0.9,1.1 -1.1,2.3 -0.4,2.3 0.8,0 2.5,-2.2 3.8,-4.9 1.5,-3.2 1.7,-3.4 2.3,-2.4 0.9,1.3 1.5,4.4 1.5,7.5 0,3.6 -0.4,5.8 -1.4,7 l -0.8,0.9 -2,-0.9 c -1.3,-0.6 -2.7,-1 -4.6,-1.1 -3.5,-0.3 -4,-0.5 -4.3,-1.7 -0.2,-0.7 0,-1.3 0.6,-2.4 0.7,-1.2 0.7,-1.4 0.3,-1.6 -1,-0.4 -2.4,1.6 -2.4,3.4 0,1.2 0.7,2.6 1.6,3.1 1.5,0.4 3.2,0.4 4.7,0.8 1.3,0.2 2.7,0.5 3.3,0.8 2,0.9 3.1,0.9 4.3,-0.2 1.8,-1.9 2.6,-6.4 2,-10.6 z"
             id="path302"
             inkscape:connector-curvature="0"
             style="fill:#1a1a1a" /><path
             class="st20"
             d="m 165.8,158.9 c 0.3,-1.7 0.7,-3.4 0.8,-3.8 0.1,-0.5 0,-0.7 -0.3,-0.7 -0.9,0 -1.3,0.8 -1.9,4 -0.4,1.7 -0.9,4.2 -1.3,5.6 -0.8,3.3 -0.8,4.4 0.1,5 0.9,0.5 1,0.6 2,0 0.5,-0.2 0.8,-0.6 0.8,-1.1 0,-0.8 0,-0.8 -1.1,-0.4 -1.2,0.5 -1.3,-0.3 -0.5,-3.1 0.4,-1.3 1.1,-3.8 1.4,-5.5 z"
             id="path304"
             inkscape:connector-curvature="0"
             style="fill:#1a1a1a" /><path
             class="st20"
             d="m 166.9,139 c -0.5,0 -1.7,1.3 -1.8,1.9 -0.1,1 0,1.6 0.7,2.4 0.3,0.4 0.8,0.8 1,0.7 0.5,0 0.7,-1 0.3,-1.6 -0.5,-0.7 -0.5,-1.7 -0.1,-2 0.5,-0.2 0.4,-1.4 -0.1,-1.4 z"
             id="path306"
             inkscape:connector-curvature="0"
             style="fill:#1a1a1a" /><path
             class="st20"
             d="m 165.9,147.4 c -0.7,-1.4 -3.8,-4.1 -5.2,-4.6 -2.1,-0.7 -5.6,-0.2 -8.5,0.9 -1.3,0.7 -2.6,1.5 -3.8,2.4 -0.5,0.5 -0.5,1 -0.4,1.7 0.2,1 0.8,1.1 0.8,0.2 0,-0.8 1.6,-2 4,-3.1 1.7,-0.7 2.2,-0.8 5.1,-0.7 l 2.2,0.1 c 0.7,0 1.3,0.3 1.7,0.7 l 1.1,1.1 c 1.6,1.6 1.8,2 1.8,3.2 0,3 -3,6.3 -6,6.6 -1.5,0.1 -2,0.4 -1.6,1 0.4,0.6 3.2,0.4 4.3,-0.4 3.6,-2.1 5.8,-6.6 4.5,-9.1 z"
             id="path308"
             inkscape:connector-curvature="0"
             style="fill:#1a1a1a" /><path
             class="st20"
             d="m 197.5,76.8 c -0.6,-0.9 -1.2,-1.7 -1.7,-2.6 -0.8,-1 -1.5,-2.1 -2.3,-3.1 -1,-1.2 -2,-2.3 -2.9,-3.5 -2.8,-3.6 -5.6,-7.2 -8.7,-10.6 -4.8,-5 -7.7,-6.1 -10.5,-5 -0.7,0.3 -1.4,0.7 -2,1.4 -1,1.5 -1.8,3.1 -2.7,4.7 -0.6,1.2 -1.2,2.3 -1.8,3.4 0,0.1 -0.1,0.1 -0.2,0.2 -0.3,0.5 -0.3,0.7 0,1.1 0.4,0.4 0.5,0.3 1.4,-0.9 0.5,-0.7 1.5,-2.6 2.2,-4.1 1.6,-3.5 2.4,-4.2 4.7,-4.4 1.4,-0.1 1.9,0 2.8,0.5 2.7,1.7 12.2,12.3 18,20.1 2,2.7 3.6,5.8 3.6,7.1 0,1.4 -1.2,2.8 -2.9,3.5 -1.9,0.8 -10.8,3 -14.3,3.6 -4.5,0.8 -9.8,2.2 -12.9,3.5 -3.7,1.5 -4.5,1.5 -5.5,-0.1 -1.8,-2.8 -3.8,-7.3 -4.9,-10.8 -1.9,-6.1 -1.5,-9.9 1,-11.5 0.5,-0.3 1.3,-0.8 1.6,-1 0.4,-0.3 0.5,-0.5 0.2,-0.8 -0.9,-0.9 -3.5,0.7 -4.7,3 -0.6,1.1 -0.7,1.8 -0.7,4.5 0,0.7 0.1,1.3 0.2,2 0.3,2 0.8,3.9 1.4,5.9 0.7,1.8 1.6,3.9 2.6,5.9 0.9,1.7 1.9,3.4 2.9,5.1 0.4,0.4 1.1,0.7 1.4,0.8 0.2,0 0.4,0 0.6,-0.1 0.6,-0.2 1.8,-0.6 3.1,-1.1 1.7,-0.9 3.5,-1.4 5.4,-1.9 0.5,-0.2 0.9,-0.3 1.3,-0.5 1.8,-0.5 3.6,-0.9 5.4,-1.2 0.8,-0.2 1.5,-0.3 2.4,-0.5 10.6,-2.3 15.2,-3.7 16.5,-4.8 1.3,-1.1 1.8,-3.4 1.2,-5.2 -0.2,-0.8 -0.6,-1.6 -1.2,-2.6 z"
             id="path310"
             inkscape:connector-curvature="0"
             style="fill:#1a1a1a" /><path
             class="st20"
             d="m 155.5,52 c -0.1,-1.3 -0.4,-2.9 -1.1,-4 -0.2,-0.3 -0.5,-0.6 -0.8,-0.9 -0.4,-0.4 -0.7,-0.6 -1,-0.7 -0.1,0 -0.2,0 -0.2,0 -0.2,0 -0.4,0 -0.7,0.2 -0.6,0.1 -1.2,0.8 -1.7,1.7 -0.1,0.1 -0.1,0.3 -0.2,0.4 -0.2,0.5 -0.3,1.1 -0.4,1.6 -0.1,0.7 -0.2,1.5 -0.2,2.2 0,0.1 0,0.2 0,0.3 0,0.7 0,1.3 0,1.8 0.1,0.9 0.2,1.8 0.5,2.7 0.6,1.6 1.9,2.3 3.1,1.7 0.5,-0.3 0.9,-0.9 1.4,-1.6 0.2,-0.4 0.3,-0.8 0.5,-1.1 0.3,-1 0.6,-2.2 0.7,-3.3 0,-0.1 0,-0.2 0,-0.3 0.1,-0.4 0.1,-0.5 0.1,-0.7 z m -3.5,5.9 c -0.1,0 -0.2,0 -0.3,0 0,0 0,0 -0.1,0 -1,0 -1.4,-6.8 -0.4,-8.7 0.6,-1.3 1.2,-1.4 2.1,-0.2 0.8,1.1 1.4,3.8 0.9,5.9 0,1.3 -0.9,2.5 -2.2,3 z"
             id="path312"
             inkscape:connector-curvature="0"
             style="fill:#1a1a1a" /><path
             class="st20"
             d="m 188.7,4.1 c -0.7,0.3 -0.5,0.9 0.4,0.9 0.3,0 0.7,0.2 0.8,0.4 0.5,0.7 0.1,2.9 -0.7,4.8 -0.8,1.6 -0.9,1.8 -1.5,1.5 -0.8,-0.4 -0.8,-0.4 -1.3,1.3 -0.5,1.7 -1.2,2 -1.2,0.6 0,-1.3 -0.6,-2.3 -1.2,-2.3 -0.4,0 -0.5,0.3 -0.3,1.9 0.2,1.8 0.2,1.9 -0.5,1.9 -0.5,0 -1,-0.5 -1.8,-1.7 -1.6,-2.5 -2.5,-3.2 -4.3,-3.4 -3.7,-0.3 -6.9,1.6 -8.7,5.1 -1,2 -0.6,1.8 -4.8,1.6 -1.8,-0.1 -3.4,0.8 -5.7,3.1 -1.9,1.9 -2.5,3 -5,8.3 -0.7,1.5 -1.3,2.3 -2.1,2.8 -0.6,0.4 -1.5,1.3 -2,2 -0.8,1.2 -0.9,1.6 -1.1,6.7 -0.2,3.1 -0.5,6.4 -0.8,7.6 -0.7,3 -2.1,6 -3.1,6.6 -2.1,1.4 -4.1,-0.5 -4.1,-3.8 0,-2.6 0.5,-4.1 2.1,-6 1.5,-1.8 1.7,-2.2 0.8,-2.2 -0.9,0 -3.2,2.5 -3.8,4.1 -0.3,0.8 -0.5,2.5 -0.5,3.9 0,2.4 0.5,3.7 1.9,4.9 1.3,0.7 2.6,0.9 3.9,0.7 0.5,-0.2 0.9,-0.5 1.3,-0.9 0.6,-0.7 1.2,-1.6 1.7,-2.7 0.9,-2.1 1.2,-4.6 1.3,-6.4 0,-0.2 0,-0.4 0,-0.6 0,-0.5 0,-1 0,-1.5 0,-0.1 0,-0.2 0.1,-0.2 0,-0.3 0,-0.5 0,-0.8 -0.1,-2.3 -0.2,-4.6 0.6,-6.8 0.3,-0.8 0.7,-1.4 1.1,-2 0,-0.1 0.1,-0.1 0.1,-0.2 0.8,-0.9 1.8,-1.8 2.6,-2.7 0.4,-0.6 0.8,-1.3 1.1,-2 0.3,-0.8 0.7,-1.5 1,-2.3 1,-2.3 2.4,-4.3 4.1,-5.8 0.7,-0.6 1.3,-1.1 1.8,-1.4 0.5,-0.4 1,-0.7 1.6,-0.8 1.3,-0.4 2.5,0.2 3.7,0.5 1.4,-0.1 2.4,-0.9 3.2,-2.5 0.4,-0.9 1.2,-2 1.7,-2.5 0.1,-0.1 0.3,-0.2 0.4,-0.3 1.2,-1.2 2.8,-2 4.6,-2 1.4,0 2.6,0.7 3.5,1.6 0.6,0.6 1.1,1.3 1.5,2 0.8,1.2 1.4,1.9 2.5,2.1 3,-1.2 5.4,-3.3 6.9,-6.1 2.1,-4.5 1,-8.5 -1.8,-7 z"
             id="path314"
             inkscape:connector-curvature="0"
             style="fill:#1a1a1a" /><path
             class="st20"
             d="m 164.2,48.6 c -0.8,-0.1 -1.5,0.1 -2.3,0.4 -0.8,0.4 -1.6,1 -2.3,1.5 -0.4,0.4 -0.8,0.8 -1.2,1.3 -0.5,0.8 -1,1.6 -1.5,2.4 -0.4,1.2 -1,2.3 -1.6,3.4 0,0 0,0 0,0 -0.1,0.3 -0.3,0.6 -0.5,0.8 0,0.1 -0.1,0.1 -0.1,0.2 -1.1,2.8 -1.7,5.6 -0.9,8.3 0.1,0.1 0.1,0.2 0.2,0.2 0.6,0.7 1,0.8 1.8,0.6 1,-0.2 1.6,-0.7 2,-1.5 0.5,-0.8 -0.5,-1.1 -1.3,-0.4 -2.4,2.2 -2.1,-3.8 0.5,-9 2.1,-4.4 5.9,-7.6 7.8,-6.6 0.6,0.4 0.7,0.7 0.7,2.4 0,2 -0.6,3.6 -2.3,6.2 -0.4,0.6 -0.6,1.3 -0.5,1.6 0.1,0.4 0.5,0.3 0.9,-0.1 2,-2.5 2.8,-5.4 3.2,-8.6 -0.2,-2.1 -1,-3 -2.6,-3.1 z"
             id="path316"
             inkscape:connector-curvature="0"
             style="fill:#1a1a1a" /><path
             class="st20"
             d="m 173.8,27.9 c 0.1,0 0.3,-0.1 0.5,-0.1 0.4,-0.1 0.8,-0.2 1.2,-0.4 1.4,-1 2.7,-2.3 3.6,-3.7 1.4,-2.8 1.6,-6.3 -0.3,-8.2 -1.6,-1.5 -3.7,-1.2 -5.3,0.7 -1.4,2.4 -1.6,4.9 -1.7,7.6 0.1,0.9 0.2,1.7 0.5,2.5 0.3,0.9 0.8,1.4 1.5,1.6 z m 1.9,-11.6 c 0.9,-0.6 1.1,-0.6 1.8,-0.1 1,0.7 1.6,2.8 1.3,4.6 -0.1,0.8 -0.6,2.1 -1.2,2.9 -0.6,0.9 -1.6,1.9 -2.4,2.3 l -1.3,0.7 -0.4,-1.4 c -1,-3.5 0,-7.7 2.2,-9 z"
             id="path318"
             inkscape:connector-curvature="0"
             style="fill:#1a1a1a" /><path
             class="st20"
             d="m 158.3,34.1 c -0.1,-0.2 -0.2,-0.4 -0.3,-0.5 -0.2,-0.3 -0.4,-0.5 -0.6,-0.7 -0.2,-0.2 -0.4,-0.4 -0.7,-0.5 -0.4,-0.3 -1.1,-0.6 -1.7,-0.8 -0.4,0 -0.7,0 -1.1,0.1 0,0 -0.1,0 -0.1,0.1 -1.4,1.3 -2.1,3.1 -2.5,5 -0.1,1.8 0.3,3.6 0.7,5.4 0.3,1 0.7,1.9 1.1,2.8 0.8,1.1 1.9,2.1 3.2,2.4 0.3,-0.1 0.6,-0.2 1,-0.4 0.1,-0.2 0.3,-0.3 0.4,-0.6 1.7,-2.4 1.9,-9.3 0.6,-12.3 z m -1,10.1 c -0.5,1.9 -0.9,2.3 -1.8,1.3 -1,-1.1 -2.3,-4.1 -2.7,-6.3 -0.6,-3.2 0.4,-6.1 2.1,-6.1 0.9,0 2,1.2 2.4,2.6 0.5,1.5 0.4,6.8 0,8.5 z"
             id="path320"
             inkscape:connector-curvature="0"
             style="fill:#1a1a1a" /><path
             class="st20"
             d="m 253.5,134.9 c -0.2,-1.1 -1,-1.8 -1.9,-1.8 -0.4,0 -1.5,0.7 -2.5,1.5 -2.1,1.7 -4.7,3 -8.4,4.1 -2.8,0.9 -7.8,1.8 -9.4,1.8 -1.6,0 -3.1,-0.8 -3.7,-1.9 -0.7,-1.2 -0.4,-1.9 0.6,-1.9 1.3,0 9.2,-2.1 12.6,-3.4 1.8,-0.6 4.8,-2 6.8,-2.9 4.4,-2.1 5.1,-2.9 5.1,-6.3 0,-0.1 -0.1,-1.7 -0.1,-1.7 -0.2,0.1 -0.4,2.6 -0.6,3.1 -0.6,2.1 -0.8,2.1 -0.7,0.5 0,-1.5 0.5,-3.5 0.8,-4 0.1,-0.2 0.4,3 0.5,0.4 -0.2,-1.3 -0.9,-1.4 -2.5,-0.7 -8,3.1 -19.9,6.6 -21.2,6.3 -0.5,-0.2 -0.6,0.6 2.4,-10.9 5,-19.1 6.7,-32.8 8.1,-67.6 0.5,-11.9 -0.1,-19.9 -1.4,-20.7 -1.6,-1.1 -5.8,1.2 -6.5,3.5 -0.1,0.3 0.1,1.7 0.5,3.1 0.5,2.1 0.7,3.6 0.8,9.4 0.1,6.9 0,11.2 -1.2,33.8 -0.7,13.6 -0.9,15.7 -2.1,22.3 -2.2,12.3 -3.5,14.9 -7.3,15.7 -2.2,0.5 -3.4,0.3 -3.4,-0.6 0,-1.5 3.4,-15.5 6,-24.8 3.2,-11.7 4.4,-18.6 5,-29 0.5,-8.5 0.3,-13.9 -0.8,-20.6 -2,-12.6 -7,-36.8 -8.1,-38.9 -1,-1.9 -5,-1.2 -6.1,1.2 -0.5,1.1 -0.5,1.2 0.3,2.7 0.6,1.2 0.8,2.1 0.8,3.5 0,2.5 -0.6,3.2 -4.8,5.5 -3.6,1.9 -6.9,4.3 -8.4,6 -0.5,0.7 -1.9,3 -2.9,5.2 -1,2.2 -2.1,4.5 -2.4,5.1 -0.7,1.4 -2.9,3.5 -3.8,3.9 -0.4,0.1 -0.8,0.5 -0.9,0.9 -0.2,0.5 0.2,0.7 0.8,0.6 0.7,-0.3 1.4,-0.7 2.1,-1.1 1.8,-1.4 3.3,-3.7 5.4,-8.4 1,-2.2 2.3,-4.6 2.8,-5.2 1.3,-1.5 4.3,-3.6 7.9,-5.5 5.1,-2.8 6.4,-4.8 5.6,-8.7 -0.2,-1 -0.4,-1.9 -0.3,-1.9 0.4,-0.3 2.3,-1.1 2.7,-1.1 0.2,0 0.5,0.3 0.6,0.7 0.1,0.4 0.6,2.5 1.1,4.7 1.2,5.4 5,24.1 5.8,29.3 0.4,2.3 1.1,5.2 1.5,6.5 1,3 1,6.8 0.1,9.5 -0.5,1.5 -0.6,2.7 -0.6,6.1 0,7.1 -1.2,14.8 -3.9,25.2 -0.8,3.2 -2.4,9.6 -3.6,14.1 -1.1,4.5 -2.3,9.4 -2.6,10.9 -0.7,4 -0.6,3.8 -2.6,3.8 -1,0 -1.8,-0.1 -1.8,-0.2 0,-1.2 2.3,-9.3 5.5,-19.3 1,-3.3 2.3,-7.4 2.7,-9.3 1.3,-5.3 2.5,-14.2 2.7,-19.6 l 0.2,-5 -0.7,0.7 c -0.7,0.6 -0.8,1.1 -1,5.6 -0.3,5.8 -1.5,14.4 -2.8,19.6 -0.5,2 -2,7.1 -3.3,11.2 -1.4,4.1 -2.9,9.3 -3.5,11.5 -0.6,2.2 -1.2,4.1 -1.3,4.3 -0.2,0.2 -2.4,0.5 -4.9,0.6 -5.1,0.3 -7.7,0.8 -12.2,2.2 -4.3,1.3 -4.5,1.4 -7.1,1 -3.7,-0.5 -6,-1.8 -9.8,-5.6 -3.4,-3.3 -9.1,-10.6 -11,-14 -0.6,-1.1 -1.1,-2 -1.1,-2.1 0,-0.2 5.3,-2.6 7.9,-3.4 1.4,-0.5 5.1,-1.4 8.1,-2 15,-3.1 20.1,-4.8 25.2,-8.2 9.9,-6.7 15,-19.2 12.2,-30.3 -0.6,-2.6 -3.4,-8.1 -5,-9.9 -2.1,-2.4 -5.8,-3.8 -10.9,-4.2 -5.4,-0.4 -12.6,1.3 -11.2,2.7 0,0 0.3,0 0.8,0 1.4,-0.8 3.2,-1 4.8,-1.2 1.2,-0.1 2.5,-0.2 3.5,-0.2 1.6,0 3.1,0.2 4.6,0.5 1.8,0.2 3.3,0.6 4.5,1.3 0.1,0 0.1,0 0.2,0.1 0,0 0.1,0.1 0.1,0.1 0.8,0.5 1.5,1 2.2,1.7 0.9,0.7 1.5,1.5 2,2.5 0,0 0,0 0,0 0,0.1 0.1,0.1 0.1,0.2 0,0.1 0.1,0.2 0.1,0.2 0,0 0,0 0,0.1 0.8,1.2 1.4,2.5 1.9,3.8 0,0 0,0 0,0 0,0 0,0 0,0 0.9,2.4 1.4,5.1 1.5,7.7 0.1,1.6 0.1,3.2 -0.2,4.8 -0.1,0.6 -0.2,1.3 -0.4,1.9 -0.5,2.6 -1.5,5.1 -2.8,7.5 -1.4,2.7 -3.3,5.1 -5.5,6.8 -1.7,1.6 -3.6,3 -5.7,4.2 -3.3,2 -10.5,4.1 -21.2,6.2 -1.3,0.2 -2.4,0.5 -3.5,0.7 -0.9,0.3 -1.8,0.5 -2.8,0.7 -0.5,0.2 -1.1,0.4 -1.6,0.5 -1.8,0.6 -3.6,1.2 -5.4,1.9 -0.4,0.1 -0.8,0.3 -1.2,0.4 -0.3,0.1 -0.5,0.2 -0.8,0.4 -2.3,1.1 -2.7,1.4 -2.8,2.2 -0.1,0.7 0.4,1.9 1.3,3.5 1.5,2.1 3,4.3 4.5,6.4 0,0.1 0.1,0.1 0.1,0.2 0.4,0.6 0.9,1.2 1.4,1.8 0,0.1 0.1,0.1 0.1,0.2 3.2,3.9 7,7.2 10.9,10.2 3.9,1.7 7.5,1.8 11.9,0.3 6.2,-2.1 7.3,-2.2 18.6,-2.2 9.9,0 10.2,0 11.6,-0.7 1.9,-1 2.8,-2.9 4.3,-8.6 2.2,-8.6 3.1,-15.7 3.7,-28.5 0.1,-4.2 0.4,-9.5 0.6,-11.9 0.5,-7.5 1,-24.8 0.8,-27.3 -0.1,-1.3 -0.4,-3.3 -0.7,-4.4 -0.5,-2.5 -0.5,-2.3 0.1,-2.3 0.3,0 1.3,-0.4 2.2,-0.9 l 1.7,-0.9 0.2,4.1 c 0.3,5.7 -0.6,29 -1.5,39.7 -1.7,19 -3,26.8 -7.3,43.1 -3,11.5 -3.4,13.4 -3.4,16.3 0,2.8 0.9,4.7 2.6,5.6 2.6,1.3 12.3,-0.4 18.1,-3.3 l 2.5,-1.2 0.1,2 c 0.1,1.1 0.2,2.1 0.3,2.4 0.1,0.3 -0.6,0.8 -2.4,1.5 -8.4,3.4 -23.1,6.1 -39.2,7.2 -4.7,0.3 -10,0.4 -10,0.2 0,-0.1 0.3,-0.9 0.8,-1.9 0.5,-1.1 0.9,-2.7 1,-4 l 0.2,-2.2 4.2,-0.2 c 4.8,-0.3 10.1,-1.3 13.2,-2.7 2.3,-1 4.4,-3.2 5.8,-5.9 1.9,-3.8 2.5,-8.5 1.3,-10 l -0.6,-0.8 -10.3,-0.2 c -9.6,-0.2 -10.4,-0.2 -13.2,0.4 -8.2,1.7 -16.6,6.8 -18.5,11 -1.2,2.5 -2.3,20.2 -1.9,28.1 0.3,4.2 1.3,10.3 3.5,20.3 0.7,3.3 1.7,8.6 2.2,11.7 0.8,5.3 1.4,6.6 1.4,17.1 0,15 -1,19.6 -3.5,25.5 -2,4.9 -4,8.3 -8,10.3 l -3.1,0.9 -4.9,0.8 -4.5,-0.8 -2.5,-1.2 c -6.6,-3.1 -13.2,-12.4 -16.3,-23.2 -2,-7 -2.4,-14.3 -2.3,-39.9 l 0.1,-18.8 -0.9,-6.7 c -1.1,-7.9 -1.5,-20.8 -0.9,-25.6 0.8,-6.1 4,-15 7.5,-20.7 0.8,-1.3 1.3,-2.4 1.2,-2.9 l -0.1,-0.8 -0.9,1 c -1,1.1 -3.5,5.9 -5.1,9.8 -3.2,7.8 -3.7,10.3 -4.1,18.6 -0.3,6.7 -0.2,10.3 0.8,18.1 1.2,9.8 1.4,14.1 1.2,31.2 -0.3,28.4 0.5,34.4 5.6,45.2 4.5,9.3 10,15 16.6,17.1 3.8,1.2 9.6,0.6 13.2,-1.2 4.6,-2.5 8,-7.7 9.9,-15.2 0.7,-2.9 1.5,-10.6 1.8,-18 0.4,-9.5 -1.3,-23.4 -4.5,-36.7 -2.4,-9.9 -3.2,-17.9 -2.5,-26.9 0.2,-2.7 0.5,-7 0.7,-9.6 0.4,-5.2 0.9,-6.9 2.5,-8.7 2.3,-2.5 6.5,-4.8 12,-6.7 3.5,-1.2 5.6,-1.5 9.6,-1.6 4.4,-0.1 4.2,-0.2 3.5,1 -1.9,3.3 -6.5,5 -14.1,5.1 -1.6,0 -3.4,-0.1 -4.1,-0.2 -1.2,-0.2 -1.4,-0.1 -2.5,1 -0.9,0.9 -1.3,1.6 -1.6,3.1 -0.5,2.1 -0.3,3.5 0.5,4.4 0.5,0.5 1.2,0.6 6.5,0.6 3.3,0 8.3,-0.1 11.3,-0.3 2.9,-0.1 6.4,-0.3 7.6,-0.2 l 2.3,0.1 -3.6,0.9 c -2.9,0.7 -4.7,0.9 -9.4,1.1 -5.8,0.2 -5.9,0.3 -6.7,1.1 -1.1,1.1 -1.9,3.7 -1.9,6.4 0,2.5 0.4,3.1 2.1,3.5 4.9,1.1 24.6,-0.6 37.3,-3.3 12,-2.5 18.6,-5.1 19.9,-7.8 0.7,-1.2 1.1,-4.5 0.8,-5.6 z M 219.2,3.8 c -1,0.6 -2.5,0.9 -2.5,0.6 0,-0.6 1.7,-1.7 2.5,-1.7 0.9,0 0.9,0.5 0,1.1 z M 236.1,32 c -1.1,0.6 -2.3,0.6 -2.3,0.2 0,-1.1 3.7,-3.2 4.4,-2.5 0.3,0.2 -1.1,1.8 -2.1,2.3 z m -8,102.3 c 0,-1.2 0.7,-4.2 1.1,-4.5 0.2,-0.1 2.9,-0.9 5.9,-1.6 3,-0.7 7.4,-2 9.8,-2.8 2.3,-0.8 4.5,-1.5 4.8,-1.6 0.4,-0.2 0.5,0 0.2,0.9 -0.2,0.6 -0.3,1.6 -0.3,2.2 0,1.1 0,1.1 -3.1,2.6 -4.6,2.1 -8.8,3.6 -13,4.5 -4.6,1 -5.5,1 -5.4,0.3 z m -10.2,-8.8 c 0.4,-2.3 0.4,-2.2 2.5,-2.2 1.1,0 2.3,0.1 2.7,0.2 0.9,0.2 1.2,1.5 0.9,3.3 l -0.2,1.3 h -2.1 c -3.8,-0.1 -4.2,-0.4 -3.8,-2.6 z m -27.4,9.5 c -0.9,1.9 -1.3,2.2 -1.8,1.6 -1.1,-1.1 0.6,-6 2.1,-6 0.8,0 0.6,2.6 -0.3,4.4 z m 21.9,1.1 c -4.1,0.2 -10.4,0.4 -14,0.4 l -6.6,0.2 0.2,-0.8 c 0.1,-0.4 0.4,-1.7 0.7,-2.9 l 0.6,-2.2 h 3.9 c 8.3,0 12.8,-2 15.1,-6.6 l 0.7,-1.4 2,0.1 c 1.1,0 1.9,0.2 1.9,0.4 -0.1,0.2 -0.2,1.2 -0.3,2.3 -0.2,1.9 -0.1,2.1 0.6,2.8 0.6,0.6 1.2,0.8 3.4,1 1.5,0.2 2.6,0.4 2.6,0.6 0,0.5 -2,4 -2.8,5 -0.5,0.7 -1,0.8 -8,1.1 z M 195.2,149 c -0.3,-0.8 0.2,-4.4 0.7,-5.7 0.5,-1.2 1.9,-2.3 2.6,-2 1.1,0.4 0.1,6.1 -1.2,7.5 -0.8,0.9 -1.8,1 -2.1,0.2 z m 57.6,-10.1 c -0.3,1 -0.6,1.2 -1,0.8 -0.6,-0.6 0,-5.6 0.7,-5.6 0.7,0 0.9,3.1 0.3,4.8 z"
             id="path322"
             inkscape:connector-curvature="0"
             style="fill:#1a1a1a" /><path
             class="st20"
             d="M 223.2,31.1 C 221.3,22.9 220,20 217.5,18.8 c -1.1,-0.5 -1.5,-0.5 -3.3,-0.2 -4.6,0.7 -8.1,3.5 -10.2,7.9 -2.3,4.8 -3.4,7 -4.4,8.2 -1.2,1.6 -3.4,3.1 -5,3.7 -0.3,0.1 -0.7,0.2 -1,0.3 0,0 0,0 -0.1,0 0,0 0,0 0,0 0,0 0,0 0,0 0,0 0,0 0,0 -0.9,0.3 -1,0.4 -0.7,1 0.2,0.4 0.4,0.5 1.4,0.3 3.1,-0.6 7,-4 8.8,-7.7 0.5,-1.1 1.5,-3.2 2.2,-4.7 2.2,-4.5 5.7,-7.3 9.7,-7.6 2.8,-0.2 4,1.1 5.5,5.9 0.8,2.7 2.4,9.7 2.9,13 0.2,1.3 0.4,2.7 0.5,3.1 0.1,0.9 0.9,1 1.3,0.1 0.1,-0.6 -0.7,-5.4 -1.9,-11 z"
             id="path324"
             inkscape:connector-curvature="0"
             style="fill:#1a1a1a" /><path
             class="st20"
             d="m 160.2,94.7 c -1.7,-2.9 -3.2,-5.9 -4.6,-9 -0.3,-0.6 -0.6,-1.3 -0.8,-1.9 -0.3,-0.7 -0.5,-1.4 -0.7,-2 -0.6,-1.9 -1,-3.8 -1.1,-5.7 -0.2,-1.9 -0.3,-3.9 0,-5.7 0,-0.1 0,-0.1 0,-0.2 -0.5,-4 -2,-7.7 -4.2,-11 -0.2,-0.2 -0.3,-0.5 -0.5,-0.7 -1.1,-1.6 -1.3,-1.7 -2.2,-1.5 -0.2,0 -0.7,0.1 -1.2,0.2 -1.5,0.5 -3.1,0.7 -4.6,0 -0.1,0 -0.1,-0.1 -0.2,-0.2 -0.1,0 -0.1,0 -0.2,-0.1 -1.9,-0.9 -2.9,-2.7 -3.2,-4.6 -0.9,-3.2 0.2,-7.1 3.2,-10.4 0.8,-0.9 2.2,-2 3,-2.4 0.9,-0.5 1.4,-0.9 1.4,-1.3 0,-0.8 -0.5,-0.8 -2.4,0.2 -2.1,1.1 -4.5,3.6 -5.7,6.2 -2.5,5.3 -0.9,11.3 3.6,13.6 1.9,1 4.2,1.1 5.6,0.4 0.8,-0.4 0.9,-0.4 1.8,0.7 1.5,1.8 3.5,6.1 4,8.6 0.3,1.3 0.5,4 0.5,6.7 0,2.7 0.1,5.1 0.4,6.1 0.6,2.3 2.5,6.5 4.9,10.8 2.4,4.3 2.8,5.7 1.9,6.7 -0.3,0.3 -0.5,0.8 -0.4,1.1 0.1,0.2 0.4,0.5 0.7,0.5 0.9,0 1.5,-0.9 1.7,-2.3 0,-0.7 0,-1.3 -0.7,-2.8 z"
             id="path326"
             inkscape:connector-curvature="0"
             style="fill:#1a1a1a" /><path
             class="st20"
             d="m 181.4,120 c -0.9,-0.7 -1.8,-1.3 -2.6,-2.1 0,0 -0.1,-0.1 -0.1,-0.1 -0.2,-0.2 -0.4,-0.3 -0.6,-0.5 -0.5,-0.4 -1,-0.8 -1.5,-1.3 -0.2,-0.1 -0.3,-0.3 -0.5,-0.5 -0.5,-0.5 -1,-0.9 -1.5,-1.4 -0.9,-0.8 -1.7,-1.6 -2.4,-2.6 -2,-2.2 -3.6,-4.4 -4.7,-6.4 -0.9,-1.3 -1.7,-2.7 -2.6,-4.1 -0.9,-1 -1.7,-1.4 -2.5,-1.4 -1.5,0 -2.5,0.9 -3.7,3.2 -1.8,3.3 -1.1,4.5 0.8,1.3 0.6,-0.9 1.4,-2.1 1.9,-2.5 0.8,-0.7 0.9,-0.7 1.7,-0.3 0.5,0.3 1.5,1.7 2.6,3.7 0.9,1.8 2.2,3.8 2.7,4.5 1.7,2.3 7.7,8.2 10.7,10.6 1.6,1.3 3.1,2.7 3.3,3 1.1,2 -0.6,3.7 -6.6,6.6 -3.7,1.9 -4.3,2.2 -4.3,2.9 0,0.4 0,0.7 0.1,0.7 0.1,0 2.1,-1 4.5,-2.1 5.9,-2.8 8.3,-5 8.3,-7.5 0.1,-0.9 -0.8,-2.1 -3,-3.7 z"
             id="path328"
             inkscape:connector-curvature="0"
             style="fill:#1a1a1a" /><path
             class="st20"
             d="m 182.5,230.2 c 1,-2 1.7,-5.1 1.5,-6.8 -0.2,-1.9 -0.8,-2.7 -2.1,-2.7 -1.4,0 -2.5,0.7 -5.2,3.1 -1.2,1.2 -3.6,3 -5.2,4.1 -4.8,3.2 -6.2,4.4 -6.8,5.6 -0.7,1.3 -0.5,2.2 0.7,2.8 1.9,1.1 8.1,0.4 11.6,-1.2 1.8,-0.9 4.8,-3.6 5.5,-4.9 z m -8,4.4 c -3.8,1.2 -8.8,1.1 -8.7,-0.1 0,-0.5 1.8,-2 5.5,-4.6 1.9,-1.3 4.7,-3.4 6.1,-4.6 4.6,-3.9 5.3,-4 5.1,-0.4 -0.3,4.7 -3.1,8.2 -8,9.7 z"
             id="path330"
             inkscape:connector-curvature="0"
             style="fill:#1a1a1a" /><path
             class="st20"
             d="m 154.8,232.4 c 3.7,1.8 5.8,1.5 5.4,-0.9 -0.2,-1.2 -1,-1.9 -3.2,-3.2 -3.6,-1.9 -5.6,-4.6 -7.5,-9.8 -1.5,-4.1 -3.1,-5.4 -4.7,-3.8 -1.5,1.5 -1.2,3.4 1.3,8.6 2,4.2 5,7.3 8.7,9.1 z m -8.5,-16.7 c 0.3,0 0.8,0.7 1.3,1.8 3.6,8.1 4.9,10 8.6,11.9 2.1,1.1 3,2 2.6,2.6 -0.3,0.4 -0.4,0.4 -2.1,-0.3 -2.1,-0.8 -4.9,-2.8 -6.2,-4.3 -3.6,-4.3 -6.2,-11.7 -4.2,-11.7 z"
             id="path332"
             inkscape:connector-curvature="0"
             style="fill:#1a1a1a" /><path
             class="st20"
             d="m 166.4,244.2 c 1,0.1 2.9,0.2 4.3,0.1 4.3,-0.3 8.4,-2.6 9.7,-5.6 0.5,-1.2 0.5,-1.3 0,-2.1 -0.7,-1.1 -1.7,-1 -4.3,0.3 -6,3 -9.3,2.8 -17.2,-1.1 -1.4,-0.6 -2.9,-1.2 -3.3,-1.2 -1,0 -1.5,0.8 -1.5,2.2 0,2.7 6.5,6.6 12.3,7.4 z m -6.8,-6.4 c 4.6,2.2 6.2,2.6 10,2.5 2.9,-0.1 3.4,-0.3 6,-1.5 2.9,-1.4 3.7,-1.6 3.7,-0.9 0,0.9 -2,2.8 -4.1,3.8 -2,0.9 -2.5,1 -5.4,1.2 -3.9,0 -6.4,-0.5 -9.6,-2 -2.4,-1.2 -4.2,-2.7 -4.6,-4 -0.3,-1 0.3,-0.9 4,0.9 z"
             id="path334"
             inkscape:connector-curvature="0"
             style="fill:#1a1a1a" /><path
             class="st20"
             d="m 173.5,47.6 c -1.4,-2.8 -2.4,-5.8 -2.2,-8.8 0,-1 0,-2.3 0,-3.8 l 0.1,-3.6 c -0.1,-1.1 -0.4,-2.2 -1.1,-3 -0.6,-0.5 -1.3,-0.7 -2.1,-0.6 -1.5,0.7 -3.5,1.6 -4.9,1 -0.1,0 -0.1,0 -0.2,0 -1.8,-0.2 -1.9,-0.2 -1.9,0.4 0,1.1 2.9,1.4 5.6,0.5 3.2,-1 3.7,-0.2 3.1,5.8 -0.3,3.7 -0.3,4.5 0.2,6.9 0.3,1.5 0.9,3.5 1.3,4.4 0.9,2.1 1,2.6 0.1,2.6 -1.1,0 -1.9,-0.6 -2.1,-1.5 -0.3,-1.1 -1.3,-2.5 -2.2,-3 -0.4,-0.2 -1.9,-0.5 -3.3,-0.6 l -2.6,-0.2 0.1,-1.4 c 0.1,-0.8 0.1,-2.7 0.2,-4.3 0.1,-3.4 -0.4,-4.8 -2.6,-7.4 -0.7,-0.9 -1.3,-2 -1.3,-2.4 0,-1.2 1.2,-2.9 3.3,-4.6 2,-1.7 2.9,-2.1 4.2,-1.9 0.6,0.1 0.8,0.3 0.8,1.1 0,0.8 -0.2,1 -1.1,1.5 -0.6,0.3 -1.6,0.6 -2.3,0.6 -1,0 -1.2,0.1 -1.2,0.6 0,0.4 0.3,0.7 1.1,0.8 1.1,0.1 2.6,-0.3 3.6,-1.1 0.2,-0.1 0.3,-0.3 0.5,-0.4 0.2,-0.2 0.4,-0.4 0.6,-0.7 0.9,-1.4 0.9,-2 -0.1,-3 -0.7,-0.7 -1.7,-0.9 -2.9,-0.7 -0.9,0.2 -1.8,0.6 -2.6,1 -1.4,0.8 -2.8,2.1 -4,3.7 -0.8,1 -1.2,1.8 -1.3,2.6 0,0.4 0,0.7 0.1,1 0.2,0.6 0.7,1.3 1.4,2.2 1.6,1.9 2.3,2.9 2.5,4.6 0.1,0.4 0.2,0.8 0.2,1.2 0.2,2 0,4 -0.3,6 0,0.4 0,0.8 0,1.1 0.1,0.2 0.2,0.5 0.3,0.7 0.3,0.3 0.6,0.6 1.1,0.8 0.6,0.1 1.3,0.2 2.2,0.2 3.1,0.3 3.9,0.7 4.5,2.5 0.2,0.6 0.7,1.3 1.2,1.7 0.7,0.6 1.3,0.7 2.2,0.6 1.4,0 1.7,-0.2 2,-0.9 0.2,-0.6 0.3,-1 -0.2,-2.2 z"
             id="path336"
             inkscape:connector-curvature="0"
             style="fill:#1a1a1a" /><path
             class="st20"
             d="m 164.1,181.2 c -2.6,0.8 -4,2.5 -3.9,5 0.1,2.3 1.3,4.8 3,6 2.4,1.7 3.2,0.9 0.9,-1 -2.2,-1.8 -3.2,-4.5 -2.4,-6.4 0.4,-0.8 0.9,-1.3 2.3,-1.9 1.6,-0.7 2.1,-0.8 4.1,-0.6 2.5,0.2 3.7,0.8 4.2,2.1 0.6,1.5 -0.3,4.3 -2.2,6.7 -1.5,1.9 -0.6,2.9 1,1 1.6,-1.8 2.7,-4.7 2.7,-6.7 0,-0.7 0,-1.1 -0.1,-1.5 -1.9,-3.5 -6.1,-3.5 -9.6,-2.7 z"
             id="path338"
             inkscape:connector-curvature="0"
             style="fill:#1a1a1a" /><path
             class="st20"
             d="m 170.6,195.5 c -1.2,-0.1 -1.4,0 -1.3,0.5 0,0.4 0.5,0.6 1.5,0.8 1.6,0.3 3.1,1.5 3.4,2.7 0.4,1.7 -1.8,4.7 -5,6.9 -0.5,0.3 -0.6,0.6 -0.5,1 0.3,0.7 0.6,0.7 2.2,-0.3 2.5,-1.6 4.8,-5 4.8,-7 0,-2.4 -2.4,-4.6 -5.1,-4.6 z"
             id="path340"
             inkscape:connector-curvature="0"
             style="fill:#1a1a1a" /><path
             class="st20"
             d="m 186,201.4 c -0.3,-1.9 -0.9,-2.7 -2.2,-2.7 -1.5,0 -2.1,0.5 -2.9,2.3 -0.6,1.4 -0.8,2.3 -0.9,5.6 -0.2,4.5 0,5.9 0.9,6.8 1.4,1.4 3.3,0.1 4.3,-2.8 0.5,-1.8 1,-7.4 0.8,-9.2 z m -2.8,9.7 c -1.3,2.7 -2.1,1.1 -2,-4.1 0.1,-2.7 0.3,-4.1 0.8,-5.3 0.7,-1.6 1.6,-2.2 2.1,-1.4 0.7,1.1 0.1,8.9 -0.9,10.8 z"
             id="path342"
             inkscape:connector-curvature="0"
             style="fill:#1a1a1a" /><path
             class="st20"
             d="m 178,183.7 c -1.3,3.7 -1.3,3.6 -2.8,5.9 -1.9,2.9 -2,3.7 -0.8,5.5 0.5,0.8 1.4,1.7 2,2 1.3,0.7 1.4,0.7 2.3,0.2 1.1,-0.5 2.4,-2.7 3.2,-5.3 0.6,-1.8 0.7,-3 0.7,-6.6 0,-3.9 -0.1,-4.5 -0.6,-5.1 -1.3,-1.5 -2.6,-0.4 -4,3.4 z m 3.5,2.2 c -0.2,4.3 -0.9,7.2 -2.4,9.1 -0.5,0.6 -1,1.1 -1.2,1.1 -0.7,0 -2.7,-2.1 -2.7,-2.8 0,-0.3 0.7,-1.7 1.6,-3.1 0.9,-1.4 2,-4 2.6,-5.6 1.6,-4.9 2.3,-4.5 2.1,1.3 z"
             id="path344"
             inkscape:connector-curvature="0"
             style="fill:#1a1a1a" /></g></g></g></g>

</svg>