<?xml version="1.0" encoding="UTF-8" standalone="no"?>
<svg
   xmlns:dc="http://purl.org/dc/elements/1.1/"
   xmlns:cc="http://creativecommons.org/ns#"
   xmlns:rdf="http://www.w3.org/1999/02/22-rdf-syntax-ns#"
   xmlns:svg="http://www.w3.org/2000/svg"
   xmlns="http://www.w3.org/2000/svg"
   xmlns:sodipodi="http://sodipodi.sourceforge.net/DTD/sodipodi-0.dtd"
   xmlns:inkscape="http://www.inkscape.org/namespaces/inkscape"
   id="svg150"
   xml:space="preserve"
   style="enable-background:new 0 0 212.6 184;"
   viewBox="0 0 212.6 184"
   y="0px"
   x="0px"
   version="1.1"
   sodipodi:docname="Lungs.Alveoli. fin 20 Nov 19SF JE.svg"
   inkscape:version="0.92.2 5c3e80d, 2017-08-06"><sodipodi:namedview
     pagecolor="#ffffff"
     bordercolor="#666666"
     borderopacity="1"
     objecttolerance="10"
     gridtolerance="10"
     guidetolerance="10"
     inkscape:pageopacity="0"
     inkscape:pageshadow="2"
     inkscape:window-width="1061"
     inkscape:window-height="725"
     id="namedview90"
     showgrid="false"
     inkscape:zoom="5.5390784"
     inkscape:cx="73.80362"
     inkscape:cy="92"
     inkscape:window-x="115"
     inkscape:window-y="0"
     inkscape:window-maximized="0"
     inkscape:current-layer="LAYER_EFO" /><metadata
     id="metadata156"><rdf:RDF><cc:Work
         rdf:about=""><dc:format>image/svg+xml</dc:format><dc:type
           rdf:resource="http://purl.org/dc/dcmitype/StillImage" /><dc:title /></cc:Work></rdf:RDF></metadata><defs
     id="defs154"><clipPath
       id="clipPath932"
       clipPathUnits="userSpaceOnUse"><path
         inkscape:connector-curvature="0"
         id="path930"
         d="M 0,61.988 H 81.122 V 0 H 0 Z" /></clipPath></defs><style
     id="style2"
     type="text/css">
	.st4{fill:#1A1A1A;}
</style><g
     id="LAYER_EFO"><g
		link="alveoli_section"
       id="Link_Alveolus_section"
       inkscape:label="Link_Alveolus section"><g
         id="g924"
         inkscape:label="path"
         transform="matrix(0.64612298,0,0,-0.71013363,123.7,67)"
         style="fill:none"><g
           id="g926"
           style="fill:none"><g
             id="g928"
             clip-path="url(#clipPath932)"
             style="fill:none"><g
               id="g934"
               transform="translate(2.8541,59.4554)"
               style="fill:none"><path
                 d="m 0,0 -0.345,-56.481 76.116,-0.465 -0.044,55.781 z"
                 style="fill:none;stroke:#0052db;stroke-width:4.98799992;stroke-linecap:butt;stroke-linejoin:miter;stroke-miterlimit:10;stroke-dasharray:none;stroke-opacity:1"
                 id="path936"
                 inkscape:connector-curvature="0" /></g></g></g></g></g><g
       style="fill:none"
       id="UBERON_0016405"><desc
         id="desc973">Pulmonary capillary</desc><title
         id="title971">Pulmonary capillary</title><g
         id="g6"><path
           id="path4"
           d="m 84.7,8.3 c -0.8,1.5 -1.5,3 -2.1,4.6 0,0.1 -0.1,0.3 -0.1,0.4 0,0.1 0.1,0.1 0.3,0.3 2.1,1.8 4.5,3.1 6.2,5.4 1.5,2 2.1,4.6 2.8,7.1 0.7,2.5 1.6,5 3.5,6.7 0.1,0.1 0.1,0.1 0.3,0.1 0.1,0 0.1,-0.1 0.3,-0.1 1.1,-0.5 0.8,-0.4 1.7,-1.2 0.5,-0.5 0.7,-2.5 0.7,-2.6 0,-0.3 -0.4,-0.4 -0.5,-0.7 -1.2,-1.1 -1.6,-1.9 -2.3,-3.4 -0.4,-0.8 -0.8,-1.8 -0.8,-2.6 0,-0.8 0.1,-1.9 0.8,-2.6 0.8,-0.8 2.1,-1 3.3,-0.8 1.5,0.1 3.9,0.6 5.4,1 0.8,-1.2 0.9,-3.5 1,-5 C 101.9,14.4 97.9,15.3 94.7,14 93.6,13.6 92.6,12.9 91.6,12.2 89.5,10.7 87.2,9.2 85,7.7"
           class="st0"
           inkscape:connector-curvature="0" /></g><path
         id="path8"
         d="m 137.1,5.9 c -0.5,0.5 -1.3,1.4 -1.9,1.9 -0.3,-0.3 -1,-0.7 -1.2,-0.8 -1.6,-0.8 -1,1 -2,2 -0.1,0.7 0.2,-0.2 -0.3,0.3 -0.8,1.2 -1.5,2.2 0,3 -0.8,2.2 -1.6,4.4 -2.4,6.7 -1.3,0 -0.6,0 -2.3,1 -0.4,1.4 -0.3,1.7 0.9,2.7 0.4,0.3 0.5,1.3 0.5,1.7 0.1,1.1 0.6,4.2 0.6,5.7 0,0 -3.7,-3 -5,-4 2.5,-0.5 0.1,-3.5 -1,-4 -1.5,-0.7 -2.6,0 -1.4,2.9 -0.7,-0.4 -10.7,-2.3 -2.6,-1.9 0,-3 0.3,-4.1 -2.1,-4.7 -1.1,0 -1.4,0.3 -1.2,1.6 0.1,0.7 1,1.8 1.3,3.3 0,-0.8 0,0.4 -0.3,0.3 -1.2,-0.3 -3.2,-0.5 -3.9,-0.5 -0.8,0 -0.8,-1.2 -0.8,-2.2 0,-0.4 0,-0.8 -0.1,-1.1 -0.7,-0.8 -0.2,-1.4 -1,-1.7 -1.8,-0.5 -1.5,0 -2,1 -1.3,2.5 2.5,3.7 -1,4 -0.5,0.1 -2.3,0.8 -2.9,0.9 0,-3 1.5,-9.9 10,-17 9.5,-4.9 18.7,-4.1 22.1,-1.1 z m -23,10.4 c 0.5,-0.1 1.2,-0.3 1.9,-0.3 1.5,-0.1 0.2,0.6 1,-1 0.7,-1.4 0.2,-1.9 -1,-3 -1.1,-0.8 -1.8,-1.4 -3.2,-0.1 -1.2,2.3 -1.6,2.2 -2.1,2.7 0.3,0.4 0.3,0.4 0.3,1.4 0.4,0.3 2.5,0.2 3.1,0.3 z m 9.6,-8.6 C 123.4,7.4 122.6,7.3 122,7 c -1.3,0.2 -3.2,1.5 -3,2 0.4,1.8 0.5,3.4 1.7,3.4 1.5,0 3,-2 3,-4.7 z m 1.5,4.5 c 0,0 0.4,0.3 0.7,0.1 1.9,-1 3.4,-3.2 3.1,-5.3 -0.1,-1.1 -0.8,-0.8 -2,-1 -1.2,0.3 -1.8,1 -1.8,1.7 0,1.4 0.1,2.7 0,4.5 z M 125,17 c -0.3,-1 -0.2,-2.8 -1.1,-2.8 -1.2,0 -2.3,2.2 -2.5,3.8 -0.1,1 0.9,1.4 1.7,0.9 1.5,-0.6 1.9,-0.7 1.9,-1.9 z m 4.7,-4.1 c -0.5,0.3 -1.1,0.1 -1.6,0.4 -0.9,2.3 -0.9,2.3 -0.7,3.5 0.1,0.3 0.3,0.3 0.5,0.2 2,-1 2.9,-2.6 1.8,-4.1 z"
         class="st0"
         inkscape:connector-curvature="0" /><path
         id="path10"
         d="m 112,31 c -3.2,1.9 -5.8,2 -5,5 0.7,2.3 0,-1 -3,1 -3,1 -3.3,6.1 -3.1,0.4 -0.9,-1.7 -4.5,0 -4.8,2.3 0.9,4.3 2,0.4 -2.1,2.3 -0.3,-0.4 0.3,-1.4 0.3,-1.9 0,-4.6 0.8,-5.9 4,-7.1 0,-0.4 0.1,-1 0.1,-1.4 0.3,-3.1 2.3,-4.6 3.7,-4.9 1.2,-0.3 1.9,-0.3 2.1,-1.7 0.4,-2.1 2.1,-2.4 3.7,-2.6 6.5,-1.1 10.8,0.1 15.6,3 3.2,1.9 6.3,4.7 7.3,8.4 -5.6,10.3 -3.3,2.6 -3.5,1.6 -0.5,-1.1 0.5,-2.7 -0.1,-3.7 -0.8,-1.3 -1.2,-1.8 -2.4,-2.7 -0.7,-0.4 -1,0 -2,-1 -0.4,0.1 -1,2 -1,2 1,1 0.7,2.1 1,3 -0.7,-0.4 -4.5,1.7 -2.4,-1.3 0.7,-0.9 -1.7,-2.6 -3.2,-2.4 -0.9,0 -2.1,0.1 -2.9,-0.4 -1.2,-1.1 -2,-0.3 -2.3,2.1 z m 4.3,-3.2 c 1.9,0 2.8,-0.6 3.1,-1.6 0.4,-1.3 -0.1,-0.6 -1.4,-1.3 -0.3,-0.1 -1.7,-0.1 -2,0 -0.8,0.4 -1.1,-0.7 -1.5,0 -0.5,1.1 -0.4,2.1 0.6,2.6 0.4,0.2 1,0.3 1.2,0.3 z M 109,25 c -1.6,0 -1,0 -2,1 -0.9,0.9 0.5,3 2,3 1.2,0 1.6,-0.6 1.6,-1.9 C 111,27 110.7,25 109,25 Z m -3.6,6.4 c -0.3,-1 -1.1,-2.1 -2.3,-2.1 -0.7,0 -2.4,1.3 -1.7,2.7 0.7,1.4 0.4,1.5 1.6,1.6 1.2,-1 2,-0.6 2.4,-2.2 z"
         class="st0"
         inkscape:connector-curvature="0" /><path
         id="path12"
         d="m 129.6,41 c -2.1,-1.3 -1.3,-5.5 1.9,-7.2 0.3,-0.3 0.8,-0.1 0.9,-0.5 1.2,-2.5 3.6,-3.6 6.3,-3.4 0.5,0 1.3,-0.1 1.7,-0.5 2.5,-2.7 6.6,-4.4 10.6,-2.4 2,0 6,1 2,1 4.5,-0.5 5.4,1.6 9.2,3.3 3.7,1.6 6.3,4.3 7.9,7.8 3.3,6.1 -5.5,3 -2.1,1.9 0,-2 0,-2.4 -0.8,-3.7 -0.3,-0.5 -0.9,-0.8 -1.5,-0.6 -0.4,0 -0.4,0.3 -0.8,0.8 -0.3,0.4 -0.3,1.2 -0.3,1.7 0.1,2.3 -0.8,4.3 -2.3,5.6 -1.2,1 -4.9,1.9 -6.4,0.3 -2.4,-2.6 -4.7,-1.2 -7.1,-1.2 -0.9,0.3 -2,0.3 -2.9,0.5 -1.6,0.5 -3,1.2 -4.6,2 -0.1,0.1 -0.2,0.1 -0.4,0.1 -0.4,0.1 -1.1,0.4 -1.4,0.4 -2.5,0.5 -4.1,2.1 -5.1,4.4 -0.4,1.2 -0.9,1.7 -2.7,1.7 -1.2,0 -2.9,-1.3 -3.2,-2.7 -0.4,-2.1 -0.7,-4.2 -0.7,-6.4 -0.1,-1.2 0.2,-2.4 1.8,-2.9 z m 7.8,0.4 v 0 c 0,0.8 -0.1,1.4 0,2.2 0.1,0.6 0.3,1.6 0.8,1.8 0.3,0.3 0.9,-0.6 1.6,-0.8 0.9,-1 1.4,-1.1 2.6,-1.7 1.3,-1.1 2.9,-3 0.8,-4.2 -0.8,-0.5 -1.5,-1 -2.5,-1.2 -2.4,-0.5 -2.5,0.4 -3.1,2.2 -0.1,0.6 -0.2,1.1 -0.2,1.7 z m 22.4,3 c 0.3,-0.3 0.7,-0.6 0.9,-1.3 0.5,-1 0.6,-0.6 1.2,-2.1 0.4,-0.9 0.4,-2.7 0,-3.3 -0.3,-0.4 -1.1,0 -2,0 -1.3,1 -2.1,0.5 -3.3,0 -0.4,-0.1 -0.4,-0.1 -0.6,0.3 -1.1,1.8 1.4,5.1 3.8,6.4 z m -28.6,-4.9 c 0.4,0.6 0.4,1.6 0.9,2.3 0.7,1 1.7,1.8 2.3,3.1 0.3,0.3 0.7,0.6 1.1,0.6 0.3,0 0.3,-0.3 0.3,-0.6 -0.1,-1.2 0.1,-2 -0.4,-3.1 -0.4,-1 -1.3,-1.8 -0.8,-3 0.4,-1.2 0.4,-1.9 -0.7,-2.3 -1.1,-0.4 -1.9,-0.3 -2.3,1 -0.3,0.8 -0.1,1 -0.4,2 z m 2.6,9.1 c -0.3,-1.7 -1.3,-3.9 -2.3,-4.8 -0.4,-0.4 -1.1,-0.6 -1.3,-0.4 -0.4,0.5 -1.1,1.2 -0.8,1.8 0.8,1.6 1.1,2.6 0.8,3.9 0,1 -0.3,1.8 0.8,2.2 1.1,0.4 1.9,-0.5 2.4,-1.4 0.4,-0.8 0.2,-0.9 0.4,-1.3 z M 144.9,29 c -1.7,0 -2.1,0.8 -2.4,2.2 0,1.9 0.1,3.3 1.7,3.8 2,0.4 2.8,-0.4 2.8,-2 -0.1,-0.5 -1,-2 -1,-3 -0.7,-1.2 0.3,-1 -1.1,-1 z m 6.9,0.5 c -1.5,0 -2.1,0.1 -2.1,1.9 0,2.1 0.9,3.4 2.3,3.5 1.3,0 3.4,-1.6 3.6,-2.9 0,-1.5 -1.4,-2 -3.8,-2.5 z m -3.1,12.1 c 2.3,0 3.2,-0.6 3.2,-2.1 0,-1.7 -1.2,-3.2 -3.1,-3.2 -1.6,0.4 -2.9,0.8 -2.9,1.6 0,1.9 1.2,3.5 2.8,3.7 z m 12.7,-6.3 c 0.1,0.1 1.1,-0.1 1.2,0.1 0.5,-0.3 0.7,-0.3 0.9,-0.6 0.1,-0.3 0.1,-1 -0.1,-1.2 -1.6,-0.9 -3.1,-2.2 -4.8,-2.3 -1.3,0.1 -0.9,1.4 -1.7,3.9 -0.1,0.3 0,0.9 0.3,1 0.8,0.1 0.9,-0.1 1.8,-0.3 0.5,-0.2 1.6,-0.3 2.4,-0.6 z m -24,-3.6 c -1.6,0.9 -1.6,0.4 -2.8,1.2 -0.3,0.1 -0.9,0.9 -0.7,1.3 0.7,0.9 3.5,1 5.1,0.4 0.5,-0.8 0.9,-0.7 0.9,-2.2 -0.4,-0.6 -1.1,-0.6 -2.5,-0.7 z"
         class="st0"
         inkscape:connector-curvature="0" /><path
         id="path14"
         d="m 127.3,39.5 c -0.5,0.5 -1.2,1.5 -1.3,1.9 -0.3,1.1 -0.7,1.9 -0.3,2.6 1.3,1.9 1.1,4.6 0.8,6.5 -0.1,0.4 -1.5,0.7 -1.9,0.7 -1.1,0.1 -1,0.9 -2.7,-0.2 -2,-1 -2,-2 -3,-1 -1.3,1.3 -0.4,2.1 0.5,3.1 0.3,0.3 1.5,1.1 1.8,1.3 3.1,1.6 1.6,3.9 0.8,4.9 -0.9,1.2 -0.3,4.6 0.9,6.6 0.8,0.5 0.6,1 0.9,1.8 0,1.2 0.9,4.8 -1.6,4.4 -0.7,-0.1 -0.4,2.9 1.7,3.8 0.5,0.3 -0.5,0.1 0.1,0.3 0.7,0.3 1.9,-0.3 2.1,0.1 -0.1,0.1 -0.3,1.9 -0.3,2 -0.4,0.5 -2.3,0.3 -3.2,0 -5.2,-1.8 -8.8,-6.4 -10.3,-11.6 -0.5,-1.8 -1.2,-3.5 -1.9,-5.3 -0.1,-0.4 -0.4,-1 -0.4,-1.4 0.1,-2.3 0.4,-4.8 0.7,-7.1 0.3,-2 1.2,-3.5 2.8,-4.8 1.1,-0.8 1.9,-1.8 2.3,-3.1 0.4,-2 2.5,-3.4 4.5,-3.7 1.1,-0.1 2,-0.7 2.9,-1.2 1.3,-0.4 2.7,-1.1 4.1,-0.6 z m -11.9,16.8 c 0.1,0.1 0.8,-0.1 0.8,0 0.5,-0.5 0.5,-0.5 1.1,-1 -1.5,-1.1 -0.8,-2.7 -0.9,-4.1 0,-0.5 -1,-1.1 -1.4,-1.2 -0.5,-0.1 -1.7,2.5 -2,3 -0.5,1.5 0,-0.1 -0.4,1.2 -0.4,1.5 -0.4,2.6 1.1,2.3 0.5,-0.1 1.1,-0.2 1.7,-0.2 z M 115,64 c 2.8,0 3.6,0 2.6,-2.4 -0.1,-0.3 -0.3,-0.5 -0.3,-1 -0.4,-1.9 -0.2,-2.2 -1.7,-1.6 -2,0.8 -2.5,0.5 -2.2,2.3 0,0.4 0.5,1.3 0.6,1.7 0.7,1.4 -0.1,1.1 1,1 z m 5.5,5.7 c 0,-2 -1.5,-2.7 -2.9,-2.2 -0.9,0.3 -0.9,0.5 -1.2,1.3 0,1.4 -0.1,1.2 0.6,2.1 0.1,0.3 1.4,0.7 1.5,0.9 1.4,0.3 0.5,0.1 1.3,-0.2 0.3,-0.6 0.6,-1.5 0.7,-1.9 z m 0.4,-22.3 c 1.2,0.1 2.3,-0.7 2.1,-1.6 0,-1 -1.5,-3.1 -2,-2.7 -0.8,0.7 -2,1.9 -2,2.9 0.7,1.3 0.7,1.3 1.9,1.4 z"
         class="st0"
         inkscape:connector-curvature="0" /><path
         id="path16"
         d="m 157,76.1 c -0.1,-0.3 -1,-0.7 -1.1,-0.8 -0.7,-2.2 -0.9,-2.7 -2.6,-1.3 -1.1,0.8 -1.9,1 -2.9,-0.1 -0.3,-0.4 -1,-0.1 -1.4,0.2 -0.5,0.3 -1.1,0.6 -1,1 0.2,0.5 0.8,1.5 1.5,2.2 1.5,1.5 2.5,3.4 1.5,5.1 -0.9,0.3 -3.6,-3.7 -4.7,-5.6 -0.8,-1.4 -1,-0.7 -2.3,0.2 -0.8,0.5 -1.1,0.7 -2,1 -1.5,0.4 -1.7,0.9 -1.7,2.4 0,0.5 -0.3,1.6 -1.3,1.6 -0.1,0 -0.2,0 -0.3,0 -0.1,-0.4 -0.4,-0.6 -0.4,-1.3 0,-0.9 -0.3,-1.9 -0.5,-2.8 -0.3,-1 -0.8,-2.3 -0.8,-3.5 0.1,-1.9 0,-2.9 -2,-2.3 -1.7,1.2 -3.1,2.5 -4,5 -0.1,-0.3 -1.1,-1.4 -1.1,-1.6 -1.1,-3.9 -0.4,-8.6 2.4,-11.5 1.1,-1 1.3,-2.6 2.7,-1.5 1.3,1 3.9,2.2 5.4,3.1 2.6,1.3 -2.4,0.8 -0.6,3.8 0.7,1.3 2.6,0.4 3.2,0.3 1.7,-0.9 -1.6,-4 -3.2,-4.3 0.4,0.3 5.9,0.6 5.2,1.8 1.5,1.9 1.3,1.8 2.4,0.3 -0.2,-0.1 4.3,1.2 6.7,1.6 1.6,-0.3 1.4,1.3 2,2.2 0.8,1 1.8,3.7 0.9,4.8 z m -25.2,-6 c 1.2,-0.1 2.2,0.3 3.1,0.2 1.1,-0.3 1.1,-0.3 1,-2.8 -0.1,-0.5 -0.7,-1.4 -0.9,-1.9 -0.5,-0.8 -1.1,-0.8 -1.7,-0.1 -1.4,1.5 -1.4,2.4 -1.5,4.6 z m 7.7,5 c 0,1.8 0.7,0.6 2.5,0.3 0.4,-0.1 0.9,-0.7 1,-0.9 0.4,-0.8 0.4,-0.5 0,-1 -0.4,-0.6 -1.5,-1.2 -2.4,-1.4 -0.3,0 -0.4,0.9 -0.8,1.5 -0.2,0.4 -0.3,1.3 -0.3,1.5 z m 10.9,-6.2 c -0.7,0 -2.3,-0.1 -1.9,1.4 0.1,0.6 1.7,1.5 3.3,1.4 1.2,-0.8 0.9,0 1.6,-0.6 -0.1,-1.4 -1.2,-1.9 -2.3,-2.1 -0.1,-0.1 -0.2,-0.1 -0.7,-0.1 z m -4.7,4.7 c 1.2,0 1.7,-0.4 1.7,-1.3 0,-1 -0.8,-1.9 -1.6,-1.9 -0.9,0 -1.9,0.9 -1.9,1.8 0.2,1.1 0.4,1.4 1.8,1.4 z"
         class="st0"
         inkscape:connector-curvature="0" /><path
         id="path18"
         d="m 90.7,55.1 c -0.1,0.4 0,1.9 -0.2,2.7 C 88.6,57.7 84.1,55.9 82,55 79.2,54.3 77.6,53.2 74.9,51.3 74.6,51.2 73,50.5 72.2,50 70.5,48.8 71,48 71.3,46.2 c 2,0.1 4,0.4 6,0.3 2.1,-0.1 4.4,-0.8 6.6,-1.2 2.4,-0.5 4.8,-1.2 7.1,-1.7 1.2,-0.3 2.3,-0.5 3.2,-1.6 0.4,-0.5 1.7,-0.9 2.3,-0.7 2.7,1.1 3.6,0.4 5,-2.3 1.1,-2 1.6,-2 2.5,-2.7 -0.1,0 2.3,-0.7 3.1,0.1 0.7,0.7 1.5,1.3 2.3,2 0.9,0.8 1.9,1.1 2.9,0.3 0.9,-0.8 0.2,-1.9 -0.3,-2.9 -0.5,-1.3 -1.5,-2.2 -3,-2.9 2,-3 5.3,-1.5 6.8,-1.4 2.3,0.1 3.9,1.7 6.2,1.3 0.9,-0.1 1.5,0 2,0.8 1.3,1.7 1,2 3.2,0.8 0.7,0.6 0.5,3.3 -0.1,4.4 -0.4,-1.2 -0.9,-1.9 -2,-2 -1.7,0.3 -2.9,0.1 -1.9,2.4 -0.1,0.4 -0.8,0.4 -1.1,0.4 -2,0 -3,0 -3.3,1.6 -0.1,1.3 -1,1.4 -1.8,0.6 -1.6,-1.5 -2,-1.5 -3.6,-0.6 -0.5,0.5 -1.3,0.4 -1.3,1.1 0.1,0.7 0.9,1.3 1.6,2 0.3,0.3 0.8,0.4 1.3,0.5 -0.3,0.5 0,1.3 -0.3,1.6 -2.9,3 -3.6,6.6 -4.7,11.6 -0.3,-1.7 -0.8,-3.8 -1.7,-3.6 -0.8,0.1 -2.1,0.1 -2.4,0.8 -0.5,0.9 -0.3,1.3 -0.3,2.6 0.1,0 0.7,0.7 0.8,0.7 -0.3,0.1 -0.8,0.4 -0.9,0.7 -3.5,1.8 -3.3,3.8 -5.5,0.8 -1.3,-1.2 -2.2,-3.4 -3,-5 -1.1,-1.6 -3.3,-2 -6,-3 -3.2,-0.3 -5.9,-0.6 -9,-1 -0.3,0 -0.9,0 -1,0 -0.8,0.3 -0.3,-0.3 -1,0 0.5,0.7 0.1,0.7 0.8,1 2.7,0.8 6.7,2.1 9.9,3.1 z M 84,48 c 0.7,0.4 0,0.5 0.4,0.7 2.8,0.3 5.6,0.5 8.4,0.5 0.5,0 1.3,-0.9 1.5,-1.5 0.1,-0.4 -1.1,-0.9 -1.6,-1.1 -2.9,-0.3 -4.7,-0.4 -8,0.4 -0.4,0.2 -0.2,0.6 -0.7,1 z m 22,-9 c -2,0.4 -3.4,1.6 -3.2,3.1 0,0.4 0.7,0.8 1.1,0.8 1.3,-0.1 2.1,0 3.5,-0.4 1.1,-0.3 1.2,-0.9 0.8,-1.9 -1.1,-1.2 -1.5,-1.1 -2.2,-1.6 z m -2.7,12.9 c 2.4,0 3.1,-0.5 2.8,-1.9 -0.6,-1.4 -0.9,-1.5 -2.6,-3.5 -0.9,-0.7 -1.6,-0.6 -1.5,0.5 0.5,1.7 1,2.8 1,4 0.1,0.8 0.2,0.7 0.3,0.9 z m 2.6,-5.7 c 0.8,1.5 0.7,2.3 1.5,3.5 0.9,1.3 2.8,1.2 3.2,-0.1 0.3,-0.8 0,-1.3 -0.2,-2.2 -0.4,-0.6 0,-1.9 -1.6,-1.6 -1.1,0.1 -1.7,0 -2.9,0.4 z m -7.7,-0.1 c -1.2,-0.1 -1.9,0.1 -2,1.3 -0.1,1.3 1.3,3.1 2.9,3.1 1.2,0 1.3,-0.4 1.5,-1.3 -0.1,-1.5 -0.5,-3 -2.4,-3.1 z M 117,38 c 0.3,-0.3 1.3,-0.7 1.5,-1.3 0.2,-0.6 0,0 -0.5,-0.7 -0.3,-0.4 -1.5,-0.9 -2,-1 -0.8,-0.3 -1.6,-1.4 -2.4,-1 0,2.4 0.1,1.2 0.4,1.9 0.3,1.3 1,2.3 3,2.1 z m -16.1,18 c 0.3,-0.4 0.9,-0.8 0.9,-1.5 -0.1,-0.7 -1.6,-2.4 -2.4,-2 -0.5,0.1 -0.3,-0.1 -0.4,0.4 -0.1,1.4 0.4,3.1 1.9,3.1 z"
         class="st1"
         inkscape:connector-curvature="0" /><path
         id="path20"
         d="m 163.2,65.9 c -2.8,0.7 -3.5,1.8 -5.2,2.9 -2.7,1.6 -9.5,0 -10.4,-1.5 -2.6,-0.3 -2.5,-0.8 -5.2,-1 -3.6,-0.4 -4.2,-1.8 -6.1,-2.8 -2,-1 -2.4,-2.5 -4,-3.7 -1.6,-1.4 -2.4,-5 -2.7,-7.1 0.7,0 3.2,0.3 4.4,0.2 0.1,0.8 -1.2,3.4 -0.9,4 0.3,0.5 0.7,1.4 0.9,1.2 0.8,-0.1 1.2,-0.3 1.7,-0.7 0.4,-2.2 1.3,-3.9 0.8,-6.1 -0.3,-1.1 -0.6,-1 -1.6,-1.2 -1.7,-0.4 7.9,-6 5.4,-2.3 0.3,0.1 0.3,1 0.3,1 0.9,0.8 1.3,1.1 2.3,2.3 0.3,0.7 1.1,2.3 1.6,2.3 0.7,0 1.9,-0.8 2.1,-1.4 0.7,-1.4 0.5,-2.9 0.1,-4.8 -1.1,-2.2 -0.5,-1.3 -1.9,-2.1 -0.1,0 -1,0 -1,0 1.2,-0.8 7.4,-1.7 6,-1 -2.3,1 -1,3.3 -0.3,4.2 1.1,1.6 2,2.3 3.3,1.8 1.6,-0.5 1.7,-2.2 1.7,-3.8 0,-0.3 -0.8,-2.2 -1.8,-3.2 2,0 3,2 6,2 1.8,-0.3 4.2,-0.4 4,-1 0.1,0.3 -1,2.2 -0.8,2.3 1.5,0.7 1.1,1.1 2,-0.1 0.4,-0.7 0.5,-1.8 1.5,-2.7 2.1,-3 3.1,-0.7 4.3,-1.5 1,1 1.5,1.7 1.7,2.4 0.5,5 -1,7.6 -2.4,10.8 -1.5,3.4 -3,5.8 -5.9,8.1 -0.4,1 -0.7,1.6 0.1,2.5 z M 150.3,51.8 c -0.3,0.1 -0.9,0.1 -0.9,0.3 -0.4,1.5 -0.4,1.7 -0.5,3.2 0,0.3 0.8,1.9 1.2,1.6 1.6,-1.1 2.7,-1.5 3.9,-1.8 1.1,-0.5 1.3,-1.9 0.4,-2.3 -1.4,-0.6 -2.5,-0.6 -4.1,-1 z m -7.8,3.6 c 0,-0.3 0,-0.5 -0.1,-1 -0.3,-1.4 -1,-2.2 -2.4,-2 -0.8,0.1 -1.2,0.8 -1.4,1.9 -0.1,1 -0.4,1.8 -0.7,2.6 -0.7,1.5 -0.5,1.8 0.9,2 2.6,0.6 3.7,-0.2 3.7,-3.5 z m 18.8,5.2 c 1.5,0 2.1,-0.4 1.7,-1.6 -0.4,-1.2 -1.1,-2.5 -2,-3.4 -0.8,-1 -1.2,-0.4 -1.7,0.7 -0.4,0.8 0.4,3.5 1.1,3.9 0.4,0.1 0.8,0.4 0.9,0.4 z m -6.7,-2.8 c 0.5,1.8 0.4,3.4 1.1,4.7 0.1,0.4 1.1,0.4 1.5,0.3 0.5,-0.1 0.9,-0.4 0.8,-1 -0.3,-1.5 -0.7,-3 -1.2,-4.5 -0.3,-0.4 -1.2,-0.8 -1.7,-0.8 -0.7,0.3 -0.1,0.8 -0.5,1.3 z m -2.5,7 c 1.2,0 2.1,-0.1 1.7,-1.4 -0.3,-0.7 -0.4,-1.6 -0.8,-2.2 -0.5,-0.7 -1.5,-1.4 -2.3,-1.8 -0.3,-0.1 -0.8,0.4 -1.1,1.1 -0.6,1.8 1.5,3.8 2.5,4.3 z m -4.2,-4.5 c 0,-1.4 -1.6,-3.7 -2.1,-3.3 -1.1,0.8 -1.5,1.5 -2.1,2.7 -0.4,0.5 1.9,2.5 2.9,1.9 0.9,-0.3 0.9,-0.7 1.3,-1.3 z m 14.3,-8.9 c -0.5,-1 -0.7,-1.5 -1.2,-2.5 -0.7,-1 -1.1,-0.7 -2,0.1 -0.5,0.7 -0.6,1.4 -0.2,2.4 0.5,0.5 0.9,1.1 1.6,1.5 0.4,0.3 0.9,0.1 1.3,0 0.4,-0.3 0.1,-0.9 0.5,-1.5 z m 5.3,0.8 c -1.2,-0.4 -1.2,-0.5 -1.7,-0.7 -0.4,-0.1 -0.4,-0.1 -0.9,-0.3 -0.1,0.5 -0.4,0.7 -0.3,1.2 0.3,1.2 -0.1,2.3 0,3.3 0,0.4 0.4,0.8 0.7,0.8 0.4,0.1 0.9,-0.1 1.1,-0.4 0.7,-1.2 0.4,-2.6 1.1,-3.9 z m -26.3,9.1 c -0.9,0.4 -1.3,0.5 -1.6,1 -0.3,0.5 -0.5,1.1 -0.4,1.1 0.9,0.4 1.9,0.7 2.9,0.8 0.3,0 0.9,-0.7 0.8,-1 -0.4,-0.7 -1.1,-1.2 -1.7,-1.9 z m 26.3,-15.5 c -1.8,1.8 -2.1,2.6 -1.8,2.7 0.5,0.7 1.6,0.4 2.4,0.1 1.1,-0.4 0.9,-1.3 -0.6,-2.8 z"
         class="st1"
         inkscape:connector-curvature="0" /><path
         id="path22"
         d="m 126,78.9 c 0.1,-0.8 -0.6,-1.4 -0.5,-2 1.1,-3.1 0.8,-3.9 -1.8,-5.2 0,-1.1 0,-3.6 0,-4.7 3.3,0.5 2.7,-7.4 0.4,-7.2 -2.5,0.1 -3.2,-5.6 -0.8,-3.8 1.9,-1.4 2.8,-3.3 1.3,-4.5 0.1,-0.1 1.6,-0.7 1.7,-0.8 0.3,-0.4 1.6,2.9 2.1,3.7 0.1,0.3 0.2,0.9 -0.2,1.3 -1.2,1.8 0.1,4 1.7,4.5 0.9,0.3 2,0 2.2,2.1 -1.7,1.6 -3.4,2.9 -4.8,4.5 -0.4,1.3 -0.1,1 1.5,2.1 -0.1,5.7 0.2,10.7 1,10.4 -0.2,-0.3 -2.5,-0.4 -3.8,-0.4 z"
         class="st1"
         inkscape:connector-curvature="0" /></g><g
       style="fill:none"
       id="UBERON_0002188"><desc
         id="desc969">Respiratory bronchiole</desc><title
         id="title967">Respiratory bronchiole</title><g
         id="g27"><path
           id="path25"
           d="M 10.9,22.1 C 9.3,21.7 8.6,19.6 9.1,18 9.6,16.4 10.9,15.2 12.1,14.1 16.3,10.2 20.5,6.4 24.6,2.4 24.7,2.3 25,2.1 25.1,2 c 0.4,-0.1 0.7,0.3 0.9,0.5 7,7.8 15.1,14.5 23.9,19.8 -0.7,3.1 -0.1,6.4 1.5,8.9 0.1,0.3 0.4,0.7 0.4,1.1 0,0.7 -0.4,1.2 -0.7,1.6 -2.8,4 -3.6,9.4 -1.8,14.1 -4.4,-2.5 -8.9,-5.2 -13.3,-7.7 -1.2,-0.7 -2.4,-1.5 -2.8,-2.8 -0.3,-0.9 -0.1,-1.9 0,-2.7 0.3,-4.1 -1.6,-8.4 -4.9,-11 -3.3,-2.6 -8,-3.3 -11.9,-1.9 -1.1,0.4 -2,0.9 -3.2,1.1 -1.1,0.1 -2.4,-0.1 -3.1,-0.9"
           class="st2"
           inkscape:connector-curvature="0" /></g><g
         id="g31"><path
           id="path29"
           d="m 68.2,42.5 c 3.7,0.9 10.7,1.5 13.7,-2.5 1,-1.3 1.9,-2.9 3.4,-3 0.5,0 1.1,0.1 1.6,0.3 1.8,0.6 3.5,1.2 5.3,1.7 0.3,0.1 0.5,0.1 0.7,0.4 0.1,0.1 1.2,1.4 1.1,1.5 -0.3,1.3 -0.9,1.6 -2,2 -9.9,4.4 -12.4,3.1 -18,3 -1.4,0 -2.6,-0.7 -3.9,-0.2 -1.2,0.6 -1.3,1.7 -1.1,3.2 0.2,1.5 0.6,1.6 2,2 3.4,1 8.7,3 9,5 -5.6,-1.5 -14.2,-3.6 -19.6,-5.8 3.2,-1.2 6,-4.2 7.8,-7.6"
           class="st2"
           inkscape:connector-curvature="0" /></g><g
         id="g35"><path
           id="path33"
           d="m 51.6,49.2 c 1.5,7.3 2.3,15.2 -0.9,21.9 -0.4,0.9 -0.9,1.9 -1.2,2.9 -0.3,1.1 -0.1,2.3 0.7,2.9 3.5,-1.1 7.5,-2.9 10.8,-2.3 1.5,-4.9 3.6,-8.8 5.1,-14.2 0.4,-2.4 1.5,-5.3 -0.3,-7.2 -0.8,-0.8 -2,-1.1 -3.1,-1.5 -3.6,-0.9 -7.4,-2 -11.1,-2.9"
           class="st2"
           inkscape:connector-curvature="0" /></g><g
         id="g39"><path
           id="path37"
           d="M 65.9,53.9 C 68.1,59 74,61.6 76.6,66.5 78.9,64 82,61 85.6,62.1 84.8,60.9 83.8,59.7 83,58.5 82.7,58.2 82.6,57.8 82.2,57.6 81.9,57.5 81.7,57.5 81.3,57.3 76,56 70.9,54.6 65.7,53.4"
           class="st2"
           inkscape:connector-curvature="0" /></g><g
         id="g43"><path
           id="path41"
           d="m 89.6,79.7 c 3.3,-1.5 5.8,-6.2 4.4,-8.7 6.2,2.7 -0.1,7.6 9,18 8.9,10.2 13.8,7.7 15.6,8.8 -3.3,3.5 -6,6.8 -7.3,10.9 C 104.6,99.4 96.7,89.9 90,80"
           class="st2"
           inkscape:connector-curvature="0" /></g></g><g
       style="fill:none"
       id="UBERON_0002299"><desc
         id="desc965">Alveolus of lung</desc><title
         id="title963">Alveolus of lung</title><g
         id="g48"><path
           id="path46"
           d="m 20.1,61.9 c -3.3,0.1 -6.4,2.1 -8.4,4.8 -2,2.7 -3,6 -3.6,9.3 4.7,-1.3 9.5,-2.1 14.3,-2.4 0.2,-3.5 0.7,-7 1.4,-10.4 0.1,-0.3 0.1,-0.7 -0.1,-0.9 C 23.5,62.1 23.2,62 22.9,62 21.8,61.9 20.6,61.8 19.5,61.8"
           class="st3"
           inkscape:connector-curvature="0" /></g><g
         id="g52"><path
           id="path50"
           d="m 29.8,54.2 c -5.7,5.8 -7.6,15.1 -4.5,22.7 4.4,-2.2 9.3,-3.5 14.2,-3.8 3.3,-0.2 6.9,0.1 9.5,2.1 0.8,-3.6 1.9,-6.5 2.8,-10.1 0.6,-2.6 0.9,-5.9 0.7,-8.5 -0.1,-1.5 -0.3,-4.1 -1.3,-5.2 -1.8,-2 -5,-1.2 -7.7,-0.9 -5,0.5 -10,2 -14.3,4.6"
           class="st3"
           inkscape:connector-curvature="0" /></g><g
         id="g56"><path
           id="path54"
           d="M 21.8,73.9 C 15,72.4 7.6,76.5 4.3,82.7 1,88.9 1.4,96.6 4.4,102.9 c 0.4,0.8 0.9,1.7 1.8,1.9 0.8,0.2 1.6,-0.3 2.3,-0.7 3.7,-2.1 7.8,-3.5 12,-4.1 -0.8,-3.1 -1.5,-6.3 -1.4,-9.6 0.1,-3.2 1,-6.5 3.1,-8.9 1,-1.2 2.4,-2.3 2.4,-3.9 0,-1.6 -1.5,-2.9 -1.8,-4.5"
           class="st3"
           inkscape:connector-curvature="0" /></g><g
         id="g60"><path
           id="path58"
           d="m 26.4,76.9 c -4.2,3.2 -7.2,8.1 -7.6,13.3 -0.5,5.3 1.8,10.8 6.1,13.8 1.4,-5.2 6.2,-9.4 11.6,-10 0.8,-0.1 1.7,-0.1 2.3,-0.6 0.8,-0.6 1,-1.6 1.3,-2.5 1.3,-4.5 4.1,-8.6 7.8,-11.6 0.5,-0.4 1.1,-0.8 1.3,-1.4 C 49.9,76.1 47.8,74.6 46,74 37.7,71.5 28,74.1 22.1,80.6"
           class="st3"
           inkscape:connector-curvature="0" /></g><g
         id="g64"><path
           id="path62"
           d="m 24.3,103.8 c -1,-2 -3.2,-3.1 -5.4,-3.3 -2.2,-0.2 -4.4,0.4 -6.5,1.2 -3,1.2 -5.8,3 -7.6,5.7 -1.8,2.7 -2.3,6.1 -2.3,9.3 0.1,7.4 3.1,14.8 8.3,20.2 1.6,1.6 3.4,3.1 5.6,3.8 3.4,1.1 7.1,0 10.3,-1.5 4,-2 7.7,-4.9 10.1,-8.6 0.2,-0.4 0.5,-0.8 0.4,-1.3 -0.1,-0.7 -0.8,-1.1 -1.4,-1.4 -2.8,-1.5 -5.6,-3.1 -7.7,-5.6 -4.1,-5 -4,-12.2 -3.6,-18.7"
           class="st3"
           inkscape:connector-curvature="0" /></g><g
         id="g68"><path
           id="path66"
           d="m 39,93.6 c -6.2,1.1 -12.5,4.7 -14.3,10.7 -0.8,2.5 -0.6,5.3 -0.2,7.9 0.7,4.8 2.2,8.8 5.7,12.1 4.3,4.1 11.3,6 16.9,3.9 5.6,-2.2 9.7,-7.4 10.9,-13.3 -8.6,-0.5 -16.3,-7.5 -17.6,-16 -0.3,-2 -0.4,-4.2 -1.9,-5.5"
           class="st3"
           inkscape:connector-curvature="0" /></g><g
         id="g72"><path
           id="path70"
           d="m 51.6,76.6 c -5.3,2.9 -9.4,7.9 -11,13.8 -1.6,5.8 -0.5,12.4 3,17.2 3.6,4.9 9.7,7.8 15.7,7.4 5.2,-0.4 10.1,-3.2 13.6,-7.1 4,-4.4 6.4,-10.5 5.3,-16.3 -0.3,-1.7 -0.9,-3.4 -1.5,-5 C 76,84.9 75.3,83.1 74.2,81.6 71.8,78 67.8,75.7 63.5,74.9 59.2,74.2 54.8,75 50.9,77"
           class="st3"
           inkscape:connector-curvature="0" /></g><g
         id="g76"><path
           id="path74"
           d="m 66.8,58.4 c -4.7,8.5 -5.5,11.6 -6,16.1 3.3,0.7 6.5,1.8 9.6,3.1 0.4,0.2 0.9,0.4 1.3,0.3 0.4,-0.1 0.8,-0.4 1.1,-0.6 0.7,-0.6 1.5,-1.2 2.2,-1.8 0.2,-0.1 0.4,-0.3 0.4,-0.5 0.1,-0.3 0.1,-0.6 0,-0.9 -0.4,-1.8 -0.3,-3.8 0.2,-5.6 0.2,-0.6 0.4,-1.2 0.3,-1.7 -0.1,-0.9 -0.9,-1.6 -1.6,-2.2 -2.5,-2.2 -5.5,-6 -7.4,-6.5"
           class="st3"
           inkscape:connector-curvature="0" /></g><g
         id="g80"><path
           id="path78"
           d="m 72,78.2 c 4.7,4.5 7.2,11.2 6.6,17.7 -0.1,0.9 -0.2,2 0.6,2.5 0.6,0.4 1.5,0.3 2.1,-0.2 0.6,-0.4 1,-1.1 1.4,-1.7 2.8,-4.3 7.5,-7.3 12.5,-7.9 C 93.6,86 92.1,83.5 90.5,80.9 90.4,80.7 90.2,80.1 90,80 c -0.3,-0.2 -0.6,-0.4 -1,-0.3 -2.5,0.5 -5.1,1.3 -7.5,0.5 -2.4,-0.7 -3.9,-2.3 -5.7,-4.6 -0.9,1 -1.9,2 -2.8,3 3.1,3.5 5.1,8 5.5,12.6"
           class="st3"
           inkscape:connector-curvature="0" /></g><g
         id="g84"><path
           id="path82"
           d="m 79.3,97.4 c -0.6,1.2 -1.1,2.5 -1.7,3.7 -0.5,1.2 -1.1,2.4 -1.8,3.5 -1.1,1.6 -2.6,2.9 -3.5,4.7 -0.1,0.1 -0.1,0.3 -0.1,0.5 0,0.2 0.2,0.3 0.4,0.5 2.7,2.1 6,3.8 7.1,7 1.2,-0.4 1.7,-1.8 1.5,-3 -0.1,-1.2 -0.8,-2.3 -1.1,-3.5 -1.1,-3.3 -0.4,-7 0.7,-10.3 0.2,-0.5 0.4,-1.1 0.3,-1.6 0,-0.5 -0.3,-1.1 -0.8,-1.3 -0.5,-0.2 -1.2,0.2 -1.1,0.8"
           class="st3"
           inkscape:connector-curvature="0" /></g><g
         id="g88"><path
           id="path86"
           d="m 95.5,88.6 c -6.8,0.9 -12.6,6.4 -14.4,13 -1.8,6.6 0,14 4.2,19.4 0.8,1.1 1.8,2.1 2.9,2.7 0.3,0.2 0.7,0.3 1.1,0.3 0.9,-0.1 1.2,-1.2 1.4,-2 2,-8.6 9.8,-15.5 18.5,-16.5 C 105,99.6 101.2,94 96,89"
           class="st3"
           inkscape:connector-curvature="0" /></g><g
         id="g92"><path
           id="path90"
           d="m 81.4,116.4 c -2.1,0.7 -3.2,3 -3.9,5.1 -1,2.8 -1.6,5.8 -1.4,8.7 0.2,3 1.4,5.9 3.6,7.9 0.5,-1.4 1,-2.8 1.4,-4.2 0.4,-1.2 0.8,-2.4 1.5,-3.5 1.6,-2.4 4.3,-3.8 6.7,-5.3 0.2,-0.1 0.4,-0.3 0.5,-0.5 0,-0.3 -0.2,-0.5 -0.3,-0.7 -2.6,-2.6 -5.2,-5.2 -7.8,-7.8"
           class="st3"
           inkscape:connector-curvature="0" /></g><g
         id="g96"><path
           id="path94"
           d="m 57.9,115.8 c -1.7,5.1 -5.3,9.6 -10,12.3 -0.6,0.4 -1.3,0.8 -1.7,1.4 -0.5,0.9 -0.2,2.1 0.1,3.1 1.8,4.8 5.1,9.2 9.9,10.9 2.4,0.9 5,1 7.5,1.1 4.9,0.1 10.3,-0.4 13.9,-3.7 0.7,-0.6 1.3,-1.4 1.2,-2.3 0,-0.7 -0.4,-1.3 -0.8,-1.9 -3.3,-5.6 -2.7,-13.2 1.3,-18.2 0.3,-0.4 0.6,-0.8 0.6,-1.3 0,-0.4 -0.3,-0.7 -0.5,-1 -1.8,-2.1 -3.8,-4 -6,-5.7 -0.7,-0.5 -1.5,-1 -2.4,-0.8 -0.6,0.1 -1.1,0.6 -1.6,1 -1.6,1.4 -3.6,2.5 -5.6,3 -1.4,0.4 -2.9,0.5 -4.2,1.2 -2.7,1.4 -3.8,4.6 -4.7,7.5"
           class="st3"
           inkscape:connector-curvature="0" /></g><g
         id="g100"><path
           id="path98"
           d="m 20.9,141.8 c 6.4,-3 13.2,-6.3 16.5,-12.5 2.9,0 5.8,0 8.7,-0.1 0.6,6.1 4.6,11.7 10.2,14.1 -1.8,8.2 -10,14.4 -18.3,14.1 -8.4,-0.3 -16,-7.2 -17.2,-15.5"
           class="st3"
           inkscape:connector-curvature="0" /></g><g
         id="g104"><path
           id="path102"
           d="m 56.1,144.1 c -1.2,4.4 -4,8.4 -7.7,11.1 -0.4,0.3 -0.8,0.6 -0.8,1.1 0,0.3 0.3,0.6 0.5,0.8 4.6,4.3 11.6,6 17.7,4.3 6.1,-1.7 11.1,-6.8 12.8,-13 0.6,-2.2 0.8,-4.7 -0.3,-6.8 -6.6,3.7 -14.7,3.1 -22.2,2.3"
           class="st3"
           inkscape:connector-curvature="0" /></g><g
         id="g108"><path
           id="path106"
           d="m 89.9,124.5 c -7.5,3.6 -11.5,12.9 -9.9,21 1.6,8.1 8.1,15 15.9,17.8 1.4,0.5 3.2,0.8 4.1,-0.4 0.5,-0.6 0.5,-1.5 0.5,-2.3 0.2,-4.8 2.4,-9.6 5.9,-12.9 0.3,-0.3 0.6,-0.6 0.6,-0.9 0.1,-0.8 -0.8,-1.2 -1.5,-1.5 C 97.1,142.1 90.8,133.9 90,124.9"
           class="st3"
           inkscape:connector-curvature="0" /></g><g
         id="g112"><path
           id="path110"
           d="m 110.4,106.1 c -0.9,-0.7 -2.1,-0.5 -3.2,-0.3 -8.1,1.9 -14.5,9.2 -15.5,17.4 -1,8.2 3.6,16.8 11,20.6 2.7,1.4 5.9,2.1 8.8,1.3 -0.8,-5.8 -1,-12.8 3.5,-17.1 0.4,-0.4 0.8,-0.8 0.9,-1.3 0,-0.5 -0.3,-1 -0.6,-1.4 -4,-5.3 -5.3,-12.2 -4.9,-18.7"
           class="st3"
           inkscape:connector-curvature="0" /></g><g
         id="g116"><path
           id="path114"
           d="m 118.3,98.2 c -6.8,4.8 -8.8,14.8 -5.3,22.4 3.3,7.2 11.2,12.1 19.1,11.6 7.9,-0.5 15.3,-7.4 16.9,-15.2 -6.1,1.1 -12.7,0.4 -17.7,-3.4 -5,-3.8 -7.5,-10 -8.2,-16.2 -1.6,-0.3 -4.1,0.4 -5.5,1.3"
           class="st3"
           inkscape:connector-curvature="0" /></g><g
         id="g120"><path
           id="path118"
           d="m 115.5,126.5 c -1.9,3 -3.5,6.3 -4.1,9.8 -1.1,6.4 1.6,13.4 6.7,17.5 5.1,4.1 12.3,5.4 18.5,3.5 5.8,-1.8 10.9,-6.4 12.7,-12.2 1.9,-5.8 0.4,-12.7 -4,-16.9 -0.3,-0.3 -0.8,-0.7 -1.3,-0.7 -0.4,0 -0.7,0.2 -1.1,0.5 -7.1,4.8 -17.2,4.8 -24.4,0 -1.3,-1.5 -3.2,-1.7 -3.9,-0.4"
           class="st3"
           inkscape:connector-curvature="0" /></g><g
         id="g124"><path
           id="path122"
           d="m 112.1,145.4 c -2.2,-0.4 -4.3,1.1 -5.7,2.8 -6.3,7.1 -6.7,18.8 -0.8,26.2 5.9,7.4 17.4,9.8 25.7,5.2 0.9,-0.5 1.8,-1.1 2.6,-1.8 2.1,-1.9 3.3,-4.7 4.1,-7.5 1,-3.6 1.5,-7.4 1.1,-11.1 -0.1,-0.7 -0.2,-1.5 -0.8,-1.8 -0.6,-0.4 -1.4,-0.2 -2.1,-0.1 -9.8,2 -20.6,-3.4 -24.8,-12.4 -0.8,0.5 -1.6,0.9 -2.3,1.4"
           class="st3"
           inkscape:connector-curvature="0" /></g><g
         id="g128"><path
           id="path126"
           d="m 146.2,151.4 c -2.5,2.2 -5.1,4.3 -7.9,6.2 2.2,5.3 -0.3,11.3 -2.1,16.7 -0.3,0.9 -0.5,1.8 -0.2,2.6 0.3,0.6 0.8,1.1 1.4,1.5 5.9,4 14.1,4.3 20.2,0.8 6.1,-3.5 10,-10.8 9.5,-17.9 -0.1,-2.2 -0.7,-4.4 -1.3,-6.5 -0.1,-0.4 -0.2,-0.8 -0.6,-1.1 -0.4,-0.3 -1,-0.2 -1.5,-0.1 -4.5,0.9 -9.6,2.6 -13.4,0 -0.9,-0.6 -1.8,-1.5 -2.8,-1.9 -1,-0.4 -2.6,-0.1 -2.8,1.1"
           class="st3"
           inkscape:connector-curvature="0" /></g><g
         id="g132"><path
           id="path130"
           d="m 166.1,152.8 c 3.9,-3.5 8.4,-6.3 13.2,-8.3 1.6,-0.7 3.5,-1.3 5.1,-0.6 1.8,0.8 2.6,2.8 3,4.7 1,5.7 -0.9,11.9 -5,16 -4.1,4.1 -10.3,6.1 -16,5.1 -0.3,-3.7 0.7,-3.6 0.7,-8.4 -0.4,-1.1 -0.8,-4.8 -1.2,-5.9 -0.4,-1.1 -0.4,-2.5 0.4,-3.3"
           class="st3"
           inkscape:connector-curvature="0" /></g><g
         id="g136"><path
           id="path134"
           d="m 147.1,151.7 c 6,2.7 5.7,4.2 19,1.1 6.4,-1.5 10.8,-9.6 11.2,-16.2 0.4,-6.1 -2.6,-11.9 -5.4,-17.3 -0.2,-0.4 -0.5,-0.9 -0.9,-1.2 -0.5,-0.3 -0.2,-1.4 -0.7,-1.5 -6.3,0.1 -9.2,-2.5 -12.5,-5.3 -1,1 -6.6,4.8 -8.4,5.4 -0.8,0.3 0.2,1.7 -0.3,2.3 -0.8,0.9 -1.1,2 -1.6,3.1 -0.8,1.9 -1.8,3.7 -3.1,5.4 3.9,2.3 6.1,6.9 6.2,11.5 0.1,4.5 -1.6,9 -4,12.9 1,0.3 2,0.7 3,1"
           class="st3"
           inkscape:connector-curvature="0" /></g><g
         id="g140"><path
           id="path138"
           d="m 170.3,116.6 c 6.6,7.9 8.4,20.1 3.8,29.4 5,-1.7 11.1,-3.3 13.6,-7.9 0.8,-1.4 1.4,-3.5 1.7,-5.1 1.1,-6.1 0.8,-11.5 -2.4,-16.8 -0.2,-0.4 -2.4,-3.5 -2.8,-3.6 -0.4,-0.1 -2.1,1.4 -2.5,1.6 -5.6,2.2 -7.6,2 -11.4,2.4"
           class="st3"
           inkscape:connector-curvature="0" /></g></g></g><g
     id="Outline"><g
       id="Outline_1_"><g
         id="g2067"><path
           d="m 149.6,82.7 c -0.2,-0.5 -1.2,-1.9 -2.4,-3.1 l -2,-2.2 -2.1,0.9 -2.1,0.9 -0.2,1.7 c -0.2,1.7 -0.8,2.5 -1.8,2.5 -0.8,0 -1.3,-0.7 -1.3,-1.6 0,-0.4 -0.3,-1.8 -0.6,-3.1 -0.4,-1.2 -0.6,-2.9 -0.6,-3.6 v -1.4 l -1.1,0.2 c -2.1,0.3 -3,1.8 -3.3,5 -0.2,2.2 -0.8,2.8 -1.8,1.8 -0.3,-0.3 -1.1,-0.5 -2.3,-0.5 -2.3,0 -6.1,-1 -8.6,-2.1 -2.4,-1.2 -5.1,-3.9 -6.4,-6.5 -1.1,-2.3 -3.3,-9.7 -3.3,-11.2 0,-0.6 -0.2,-1.1 -0.5,-1.2 -0.8,-0.3 -3.3,0.5 -5,2.1 -0.8,0.8 -2.1,1.7 -2.3,1.7 -0.1,0 -0.2,-0.5 -1.1,-1.2 -1.7,-1.4 -3.4,-3.9 -3.9,-5.5 -0.2,-0.6 -0.8,-1.6 -1.4,-2.2 -1,-1 -1.4,-1.1 -5.5,-1.8 -2.4,-0.4 -4.8,-0.7 -5.2,-0.7 H 84 l 0.8,0.3 c 0.4,0.2 2.4,0.7 4.3,1.2 1.9,0.5 3.6,1.1 3.8,1.3 0.5,0.8 0.7,2.4 0.4,3.4 -0.8,2.5 -4.2,1.6 -17.7,-4.9 -2.7,-1.3 -5.1,-2.4 -5.4,-2.4 -0.8,0 -1.4,-1.5 -1.2,-2.8 0.4,-2.2 0.2,-2.1 7.1,-2.4 l 6.3,-0.2 4.2,-1.4 c 7.3,-2.4 7.1,-2.2 6.8,-5.7 -0.2,-1.9 0.2,-3.4 1,-4.3 0.4,-0.5 0.4,-0.6 -0.2,-1.3 -1,-1.1 -2.6,-4.4 -3.7,-7.8 -1.7,-5.4 -2.5,-6.5 -6.9,-9.4 -4.5,-3 -4.9,-3.7 -3.6,-6.5 1,-1.9 2.2,-3.1 3.2,-3.1 0.6,0 2.3,1 5.2,3.1 2.4,1.7 5.3,3.5 6.5,4.1 2,0.9 2.4,1 6.2,1.1 l 4,0.1 0.7,-1.3 c 3.1,-5.5 12.3,-11.3 19.5,-12.2 3.4,-0.4 6.9,0 10.9,1.4 2.1,0.7 3.2,1.3 3.6,1.8 l 0.6,0.8 -2.1,2.1 c -2.5,2.5 -4.3,5.2 -5.7,8.5 -1.4,3.3 -1.9,6.2 -2,10.5 -0.1,2.9 0,3.7 0.5,4.6 l 0.6,1 1.5,-1 c 1.8,-1.2 3.4,-1.8 4.8,-1.9 0.7,0 1.6,-0.4 2.7,-1.3 0.9,-0.7 2.2,-1.4 2.8,-1.6 1.4,-0.5 3.7,-0.7 4.9,-0.2 0.5,0.2 2.1,0.5 3.9,0.6 l 3.6,0.4 5.2,2.3 c 5.3,2.3 5.8,3.1 7.5,5.1 2.8,3.2 3.5,4.8 3.6,8.1 0,1.5 0.2,3.5 0.3,4.5 0.5,3.9 -1.7,9.7 -5.8,14.8 -2.1,2.6 -2.6,3.5 -2.5,4.1 0.2,1.2 -0.4,2.1 -1.9,2.5 -0.7,0.2 -2,0.8 -2.7,1.3 -0.7,0.5 -1.5,1 -1.7,1 -0.2,0.1 -0.2,0.8 0.1,2 0.2,1.1 0.3,2.4 0.2,3.1 -0.2,1 -0.4,1.2 -1.2,1.4 -0.8,0.2 -1.1,0.1 -1.5,-0.4 -0.5,-0.6 -0.6,-0.6 -1.9,-0.3 -1.2,0.3 -1.5,0.3 -2.7,-0.3 -0.7,-0.4 -1.4,-0.6 -1.5,-0.5 -0.2,0.2 0,0.5 1.8,3.2 1.7,2.6 1.4,5.3 -0.7,5.3 -0.4,0.2 -0.8,-0.2 -0.9,-0.7 z M 140,80.2 c 0.2,-1.5 0.9,-2.7 1.6,-2.7 0.2,0 1.2,-0.5 2.1,-1.1 1,-0.6 2,-1.1 2.3,-1.1 0.3,0 0.8,0.5 1.2,1.2 0.3,0.7 1.3,1.9 2,2.8 0.8,0.9 1.5,1.8 1.6,2.1 0.1,0.3 0.2,0.2 0.2,-0.3 0,-0.9 -0.4,-1.8 -1.8,-3.5 -2.6,-3.2 -1.1,-5.5 2.4,-3.6 0.6,0.3 0.8,0.2 1.8,-0.6 1.4,-1.2 1.9,-1.1 2.7,0.7 l 0.6,1.4 v -1.3 c 0,-0.9 -0.3,-1.9 -0.9,-3.2 -0.5,-1 -0.9,-2 -0.8,-2.3 0.1,-0.3 0.7,-0.4 1.5,-0.4 1,0 1.7,-0.3 2.8,-1.1 0.8,-0.6 1.9,-1.2 2.3,-1.3 0.8,-0.2 0.8,-0.3 0.7,-1.4 -0.1,-1.1 0,-1.3 1.3,-2.4 2.7,-2.2 5.1,-6 6.6,-10.6 0.7,-2 0.7,-2.4 0.4,-4.6 -0.2,-1.3 -0.4,-3.4 -0.4,-4.6 0,-1.8 -0.2,-2.5 -0.9,-4.1 -1.6,-3.2 -3.6,-4.9 -9.2,-7.6 -4.8,-2.4 -5,-2.4 -8,-2.6 -1.7,-0.1 -3.5,-0.4 -4,-0.6 -2.2,-0.9 -5.1,-0.2 -7,1.6 -1.1,1 -1.4,1.2 -2.2,1 -2,-0.4 -4.9,1.1 -6.1,3.1 -0.4,0.7 -0.9,1.2 -1.1,1.2 -0.7,0 -1.7,1.6 -2.1,3.3 -0.3,1.2 -0.3,1.7 0,2.5 0.4,0.9 0.3,1 -0.1,1.3 -1,0.6 -1.5,2.1 -1.2,3.4 0.2,0.7 0.4,2.3 0.5,3.7 0.2,2.1 0.4,2.7 1.1,3.6 0.6,0.7 1,1.7 1.1,2.6 0.4,2.4 1.1,3.8 2.6,5 0.8,0.6 1.4,1.4 1.4,1.7 0,0.3 -0.6,1.1 -1.3,1.8 -1.7,1.8 -2.9,5.1 -3.1,9 -0.1,1.9 -0.1,3 0.2,3.1 0.2,0.1 0.4,-0.1 0.6,-0.6 0.5,-1.9 4.1,-3.9 5.7,-3.1 0.7,0.3 0.8,0.5 0.8,2.6 0,1.2 0.2,2.8 0.5,3.6 0.3,0.7 0.5,1.8 0.5,2.4 0,1 0.2,1.5 0.6,1.5 0.2,0 0.4,-0.7 0.5,-1.5 z m -0.5,-3.5 c -0.6,-0.6 0.1,-4.5 1,-4.8 0.3,-0.1 1,0 1.6,0.3 1.2,0.5 1.6,1.6 1.3,2.8 -0.5,1.2 -3.2,2.4 -3.9,1.7 z m 2.1,-1.5 c 1.1,-0.8 1.1,-1.4 0,-2 -0.8,-0.5 -0.8,-0.5 -1.1,0.3 -0.4,1 -0.4,2.4 0,2.4 0.1,0 0.6,-0.3 1.1,-0.7 z m 2.4,-2 c -0.5,-1.1 0,-2.5 1.1,-2.8 0.7,-0.3 1,-0.2 1.7,0.4 1.7,1.6 1.1,3.2 -1.2,3.2 -1,0 -1.3,-0.2 -1.6,-0.8 z m 2.4,-0.6 c 0.2,-0.5 -0.6,-1.4 -1.3,-1.4 -0.6,0 -0.9,0.8 -0.7,1.4 0.3,0.6 1.8,0.6 2,0 z m 2.9,-1.2 c -0.9,-0.4 -1.2,-1.5 -0.6,-2.1 0.6,-0.6 3.1,-0.6 4,-0.1 0.8,0.4 1.2,1.5 0.7,2.1 -0.5,0.5 -3.1,0.6 -4.1,0.1 z m 2.9,-0.9 c 0.1,-0.2 -0.2,-0.4 -0.7,-0.5 -0.5,-0.1 -1.1,-0.3 -1.4,-0.3 -0.8,-0.2 -1,0.5 -0.2,0.8 1,0.3 2.1,0.4 2.3,0 z m -20.8,-0.2 c -0.5,-1.2 1.8,-5.6 2.9,-5.6 0.6,0 2,2.7 2.1,4.2 0.1,1.1 0.1,1.1 -1.5,1.5 -2.3,0.5 -3.3,0.5 -3.5,-0.1 z m 4.1,-1.1 c 0.3,-0.3 -1,-3.2 -1.4,-3.2 -0.2,0 -1.9,3.3 -1.9,3.7 0,0.3 3,-0.1 3.3,-0.5 z m 4.1,0.6 c -0.5,-0.5 -0.5,-1.9 0.1,-2.7 0.7,-0.9 2.4,-1 3.3,-0.1 0.8,0.8 0.9,2.7 0.1,3 -0.7,0.3 -3.1,0.2 -3.5,-0.2 z m 2.7,-0.7 c 1.1,-0.8 -0.1,-2.7 -1.3,-1.9 -0.7,0.4 -0.9,1.7 -0.3,2.1 0.5,0.3 0.9,0.3 1.6,-0.2 z m 3.1,-1.1 c -0.7,-0.9 -1.1,-2 -0.9,-2.3 0.3,-0.3 3.4,1.3 3.4,1.7 0,0.5 -1,1.4 -1.5,1.4 -0.2,0.1 -0.7,-0.3 -1,-0.8 z m 1.4,-0.1 c 0.3,-0.5 -0.9,-1.3 -1.3,-0.9 -0.2,0.2 -0.2,0.5 0.1,0.8 0.5,0.5 0.9,0.6 1.2,0.1 z m 4.2,-3.8 c -1.1,-1.2 -1.5,-2.1 -1.5,-3.2 0,-1.2 0.5,-1.7 1.7,-1.7 1.2,0 1.9,0.8 2.6,3 0.5,1.5 0.5,1.9 0.2,2.3 -0.7,0.8 -2,0.6 -3,-0.4 z m 1.8,-0.8 c -0.6,-2 -1.5,-3.1 -2.1,-2.5 -0.4,0.4 -0.1,1.4 0.7,2.4 0.9,1.1 1.7,1.2 1.4,0.1 z m -13.1,0.8 c -1.5,-0.6 -0.3,-2.9 1.5,-2.9 1.7,0 2.9,1.8 1.9,2.8 -0.5,0.5 -2.4,0.5 -3.4,0.1 z m 2.2,-1.2 c 0,-0.2 -0.3,-0.4 -0.8,-0.4 -1,-0.1 -1.2,0.4 -0.3,0.7 0.7,0.2 1,0.1 1.1,-0.3 z m 14.4,0.2 c -0.8,-0.3 -2.2,-4.3 -1.9,-5.6 0.4,-1.6 2.6,-1.3 2.9,0.4 0.1,0.5 0.4,1.6 0.7,2.5 0.3,0.9 0.4,1.8 0.3,2 -0.4,0.7 -1.3,1 -2,0.7 z m 0.6,-1.6 c 0,-1.3 -1,-4.1 -1.5,-4.1 -0.6,0 -0.6,1 0.2,3 0.7,1.8 1.3,2.3 1.3,1.1 z m -11.6,0.3 c -2,-1.1 -2.1,-1.4 -1,-3.1 1.2,-2 2.4,-2.2 3.3,-0.7 0.9,1.4 0.8,2.9 -0.1,3.7 -0.9,0.9 -0.8,0.9 -2.2,0.1 z m 1.8,-1.4 c 0.2,-0.5 -0.8,-2.4 -1.2,-2.4 -0.3,0 -1.6,1.6 -1.6,1.9 0,0.3 1.3,0.9 2,0.9 0.4,0.1 0.7,-0.1 0.8,-0.4 z m 12.8,-0.5 c -0.3,-0.5 -0.6,-1.7 -0.7,-2.5 -0.2,-1.4 -0.1,-1.6 0.6,-2.1 1.1,-0.7 1.9,-0.3 2.9,1.5 1.5,2.5 0.9,4 -1.4,4 -0.7,0.1 -1,-0.1 -1.4,-0.9 z m 2.2,-0.7 c 0.2,-0.5 -0.5,-2.2 -1.2,-2.7 -0.5,-0.4 -0.5,-0.4 -0.5,0.3 0,0.9 0.8,2.9 1.2,2.9 0.2,-0.1 0.4,-0.3 0.5,-0.5 z m -24.2,-0.4 -0.9,-0.5 0.6,-1.4 c 0.3,-0.7 0.7,-1.9 0.8,-2.5 0.4,-2.3 2.1,-2.9 3.6,-1.4 0.7,0.7 0.8,1 0.6,2.3 -0.1,0.8 -0.2,1.7 -0.2,2 0.1,1.7 -2.6,2.5 -4.5,1.5 z m 3.1,-1 c 0.6,-0.6 1,-2.4 0.7,-3.5 -0.2,-0.7 -1.3,-1.4 -1.7,-1.1 -0.1,0.1 -0.4,0.9 -0.6,1.9 -1,3.3 -1,3.2 0.1,3.2 0.5,0 1.2,-0.2 1.5,-0.5 z m -7.4,0.4 C 133.4,58 133.1,57 133,56 c -0.2,-1.5 -0.1,-2 0.6,-3.7 1.3,-2.8 1.3,-2.9 2.1,-2.9 1.2,0 1.8,1.9 1.3,4.5 -0.5,2.8 -1.3,4.4 -2.4,4.5 -0.3,0.2 -0.8,0.1 -1,-0.2 z m 2.3,-4.4 c 0.3,-1.8 0.4,-2.9 0.2,-3.3 -0.3,-0.6 -0.3,-0.6 -0.6,0.3 -0.1,0.5 -0.5,1.5 -0.8,2.1 -0.7,1.3 -0.8,2.6 -0.2,3.5 0.5,1 0.9,0.4 1.4,-2.6 z m 13,2.6 c -0.9,-1.6 0.1,-4.8 1.5,-4.8 2,0 5.2,1.4 5.2,2.2 0,0.7 -1.3,1.6 -3.2,2.4 -2.6,1 -3.1,1 -3.5,0.2 z m 3.4,-1.8 c 1.7,-0.7 1.4,-1.1 -0.8,-1.2 -1.3,0 -1.6,0.1 -1.7,0.5 -0.2,0.8 0.2,1.6 0.7,1.4 0.3,0 1.1,-0.4 1.8,-0.7 z m 12.4,1.9 c -0.1,-0.1 -0.2,-1.4 -0.2,-2.7 -0.1,-2.8 0.3,-3.6 1.2,-2.7 0.3,0.3 0.9,0.6 1.3,0.7 1.4,0.4 1.2,2.6 -0.3,4.3 -0.7,0.6 -1.7,0.8 -2,0.4 z m 1.9,-2.3 c 0.5,-1.1 0.5,-1.2 -0.2,-1.8 -0.9,-0.7 -1.7,-0.7 -1.5,-0.1 0.1,0.3 0.3,1.1 0.4,1.8 0.3,1.6 0.7,1.7 1.3,0.1 z m -23.2,-1.8 c -0.4,-1 -1,-1.7 -1.9,-2.2 -2.4,-1.5 -2,-3 1,-4.5 2.7,-1.4 4,-0.9 4.7,1.6 0.9,3.5 -0.2,6.6 -2.4,6.6 -0.6,-0.1 -0.9,-0.4 -1.4,-1.5 z m 2.4,0 c 0.7,-0.7 0.9,-2.7 0.5,-4.4 -0.6,-2.3 -1,-2.4 -3,-1.3 -1,0.5 -1.8,1.1 -1.9,1.3 -0.1,0.2 0.5,0.9 1.3,1.5 0.8,0.6 1.4,1.3 1.4,1.5 0,0.6 0.6,1.9 0.9,1.9 0.1,0 0.5,-0.2 0.8,-0.5 z m 13.5,-0.3 c -1.5,-1.5 -1.5,-2.8 0.1,-3.6 1,-0.5 2,0.1 2.7,1.7 1.4,2.9 -0.5,4.2 -2.8,1.9 z m 2,-1.1 c -0.5,-1.3 -1.1,-2.1 -1.8,-1.9 -0.9,0.2 -0.9,0.9 0.1,1.9 1.3,1.2 2.1,1.3 1.7,0 z m -31.2,0.1 c -0.4,-0.5 -0.5,-1.2 -0.4,-2 0.1,-0.7 -0.1,-2 -0.3,-3 -0.5,-1.7 -0.5,-1.9 0.1,-2.5 0.8,-0.9 1.2,-0.8 2.6,0.8 1.9,2 2.4,4.2 1.5,6 -0.8,1.6 -2.6,2 -3.5,0.7 z m 2.4,-1.9 c 0.3,-0.9 0.3,-1.3 -0.3,-2.5 -0.7,-1.6 -1.9,-2.9 -1.9,-2.1 0,0.2 0.2,0.8 0.5,1.2 0.3,0.4 0.5,1.6 0.5,2.6 0,2.6 0.5,2.9 1.2,0.8 z m 18.3,0.8 c -0.8,-0.8 -2.2,-3.2 -2.4,-4.2 -0.3,-1.1 0.5,-1.7 2.8,-2.4 2,-0.6 2.6,-0.4 3.7,1 0.7,0.8 0.9,3.2 0.5,4.8 -0.4,1.4 -3.5,1.9 -4.6,0.8 z m 3.1,-0.7 c 0.2,-0.2 0.4,-1.1 0.4,-2 0,-2.6 -1.2,-3.3 -3.7,-2.3 -1.3,0.5 -1.3,0.8 -0.4,2.3 1.2,2 2.8,2.9 3.7,2 z m 12,-0.3 c -0.6,-0.6 -0.5,-1.3 0.6,-2.5 l 1,-1.1 0.8,0.9 c 0.6,0.7 0.8,1.2 0.7,1.9 -0.1,0.9 -0.2,1 -1.4,1.1 -0.7,0 -1.5,-0.1 -1.7,-0.3 z m 2.2,-0.9 c 0,-0.6 -0.4,-1.3 -0.8,-1.3 -0.5,0 -0.9,0.9 -0.6,1.3 0.2,0.4 1.4,0.4 1.4,0 z M 162.5,47 c -0.4,-0.4 -0.8,-1 -0.8,-1.2 0,-0.2 0.5,-1.3 1,-2.5 0.6,-1.2 1.1,-2.8 1.1,-3.7 0.2,-2 0.6,-3.3 1.3,-3.5 0.6,-0.2 2.4,0.6 2.4,1.1 0,0.2 0.4,0.9 0.8,1.5 0.4,0.6 0.8,1.4 0.8,1.8 0,0.4 -0.6,1.2 -1.4,1.9 -0.8,0.7 -1.9,2.2 -2.5,3.2 -0.6,1 -1.2,2 -1.4,2 -0.4,0.1 -0.9,-0.2 -1.3,-0.6 z m 2,-2.2 c 0.3,-0.7 1.1,-1.9 1.6,-2.6 0.6,-0.7 1,-1.4 1,-1.6 0,-0.6 -1.4,-3.1 -1.8,-3.1 -0.2,0 -0.4,1 -0.5,2.3 -0.1,1.5 -0.5,2.8 -1.1,4 -0.5,1 -0.8,2 -0.7,2.3 0.3,0.6 0.8,0.3 1.5,-1.3 z m -30.6,0 c -0.5,-0.7 -1.3,-2 -1.9,-2.8 -0.9,-1.2 -1.1,-1.7 -1.1,-3.1 0,-1.3 0.2,-1.9 0.6,-2.4 0.9,-0.9 2,-0.8 2.8,0.1 0.6,0.6 0.7,1 0.5,2 -0.2,1 0,1.7 0.6,3 0.9,1.9 1,2.9 0.5,3.9 -0.4,1 -1,0.8 -2,-0.7 z m 0.6,-3.2 c -0.5,-1.3 -1,-2.8 -1.1,-3.3 -0.2,-1.5 -1,-1.2 -1.2,0.3 -0.1,1.1 0.1,1.6 1.2,3 0.7,1 1.4,2 1.5,2.4 0.1,0.4 0.3,0.5 0.3,0.3 0.2,-0.1 -0.2,-1.4 -0.7,-2.7 z m 2.7,3.1 c -0.1,-0.6 -0.1,-2.5 0.1,-4.1 0.4,-3.1 0.7,-3.8 2.1,-3.8 1.2,0 3.4,0.9 4.4,1.8 1.7,1.6 0.9,3.2 -2.6,5.5 -3,2.1 -3.8,2.2 -4,0.6 z m 4.2,-2.1 c 1.1,-0.6 1.5,-1 1.6,-1.7 0.1,-0.8 -0.1,-1 -1.5,-1.7 -2.9,-1.5 -3,-1.3 -3.4,2.8 -0.2,2.7 0,3.1 1,2.1 0.5,-0.3 1.5,-1 2.3,-1.5 z m 16.5,1.2 c -1.2,-1.4 -2.7,-4 -2.7,-4.8 0,-1.2 0.8,-1.9 1.7,-1.5 0.5,0.2 1.3,0.1 2.4,-0.2 2.2,-0.7 3.2,-0.3 3.2,1.3 0,1.1 -1.1,4.9 -1.7,5.6 -0.4,0.6 -2.2,0.4 -2.9,-0.4 z m 2.5,-1.6 c 1.4,-3.2 1.1,-3.8 -1.4,-3.1 -1.1,0.3 -1.6,0.3 -2.1,0 -0.4,-0.2 -0.8,-0.3 -0.9,-0.2 -0.3,0.3 2.9,4.7 3.3,4.7 0.3,0 0.7,-0.6 1.1,-1.4 z m -13.7,-1.4 c -0.9,-1.2 -1.5,-3.3 -1.1,-3.6 0.2,-0.2 0.9,-0.5 1.7,-0.7 1.8,-0.5 3.2,-0.2 4.3,1.1 1.8,2.2 0.4,4.1 -3,4.1 -1.1,0 -1.4,-0.2 -1.9,-0.9 z m 3.6,-0.5 c 1.1,-0.5 1,-1.4 -0.2,-2.2 -1.2,-0.7 -2.9,-0.8 -3.4,-0.2 -0.3,0.3 -0.2,0.7 0.2,1.6 0.5,1 0.7,1.2 1.6,1.2 0.5,0 1.3,-0.2 1.8,-0.4 z m 6.3,-4.2 c -0.2,-0.3 -0.3,-0.8 0,-1.7 0.9,-3.4 1.4,-3.9 3.5,-3 0.8,0.3 1.5,0.6 1.7,0.6 0.5,0 2.1,1.7 2.1,2.2 0,0.8 -0.7,1.3 -1.8,1.3 -0.6,0 -1.6,0.2 -2.2,0.5 -1.5,0.7 -2.9,0.7 -3.3,0.1 z m 2.7,-0.8 c 0.7,-0.4 1.6,-0.6 2.1,-0.6 1.2,0 1.1,-0.5 -0.2,-1 -0.6,-0.2 -1.4,-0.7 -1.8,-1 -0.4,-0.3 -0.9,-0.6 -1,-0.6 -0.3,0 -0.9,2.1 -0.9,3.1 0,0.9 0.3,0.9 1.8,0.1 z m -16,-0.3 c -0.6,-0.5 -0.9,-1.2 -1.2,-2.8 l -0.4,-2.1 0.9,-0.7 c 1.1,-1 3,-1 3.9,-0.1 0.7,0.8 0.9,5.1 0.2,5.9 -0.6,0.6 -2.4,0.5 -3.4,-0.2 z m 2.8,-0.8 c 0.1,-0.2 0.1,-0.7 0.1,-1 -0.1,-0.3 -0.2,-1.1 -0.3,-1.8 -0.2,-1.2 -0.2,-1.2 -1.5,-1.1 -1.3,0.1 -1.3,0.1 -1.4,1.5 -0.1,1.9 0.6,2.9 2,2.9 0.5,-0.1 1,-0.3 1.1,-0.5 z M 135,34.8 c -0.8,-0.3 -1.5,-0.6 -1.5,-0.8 0,-2 4.8,-3.8 6.2,-2.3 0.9,1 0.7,2.1 -0.7,3 -1,0.7 -2,0.7 -4,0.1 z m 3.5,-0.9 c 0.2,-0.2 0.4,-0.6 0.4,-0.8 0,-0.4 -0.4,-0.4 -1.7,-0.3 -1.9,0.2 -3.1,0.8 -2.4,1.3 0.7,0.3 3.3,0.3 3.7,-0.2 z m 11.9,0.8 c -1.6,-1.8 -1.5,-5 0.3,-5.8 1.2,-0.5 4.3,0.6 4.9,1.9 0.6,1.1 0.4,1.7 -1.1,3.1 -1.7,1.5 -3.2,1.8 -4.1,0.8 z m 2.8,-1.4 c 0.6,-0.6 1.1,-1.2 1.1,-1.4 0,-0.5 -3.1,-2.2 -3.7,-1.9 -1,0.4 -0.1,4.4 1,4.4 0.3,-0.1 1.1,-0.6 1.6,-1.1 z m -24,44.3 c -0.1,-0.5 -0.3,-2.6 -0.4,-4.7 -0.2,-3.6 -0.2,-3.8 -1,-4.2 -1.7,-0.8 -0.9,-2.6 2.2,-4.9 2.5,-1.8 2.4,-3 0,-3.7 -2.5,-0.7 -3.3,-2.6 -2,-4.9 0.6,-1.1 0.6,-1.1 -0.1,-1.8 -1.2,-1.3 -1.4,-2.1 -1.4,-4.8 0,-1.7 -0.2,-2.9 -0.5,-3.5 -0.7,-1.1 -0.6,-2.9 0.2,-4.1 0.8,-1.3 0.8,-1.4 0.1,-1.3 -0.6,0 -1.1,0.3 -3,1.5 -0.6,0.4 -1.5,0.7 -2,0.7 -2.1,0 -5,2.3 -5,3.9 0,0.3 -0.9,1.5 -2,2.6 -2.4,2.6 -2.7,3.4 -3,6.9 -0.1,1.5 -0.3,3.3 -0.4,4 -0.1,1 0,1.7 0.6,2.9 0.4,0.9 1,2.5 1.4,3.6 2.2,8.2 7.1,12.2 15.3,12.4 1.2,0.3 1.2,0.2 1,-0.6 z M 123.4,76 c -2.7,-1.4 -2.8,-3.1 -0.3,-4.4 1.8,-1 3.3,-0.6 3.9,1.1 0.7,1.8 -0.3,3.9 -1.9,3.9 -0.4,-0.1 -1.2,-0.3 -1.7,-0.6 z m 2.1,-1.6 c 0,-1 -0.8,-2.3 -1.4,-2.3 -0.6,0 -1.6,1.2 -1.4,1.8 0.2,0.4 1.8,1.4 2.5,1.4 0.2,0 0.3,-0.4 0.3,-0.9 z m -8.3,-3.2 c -1.1,-1 -1.4,-1.4 -1.4,-2.5 l 0.3,-0.7 1.5,-1 c 1.8,-0.5 1.8,-0.4 2.6,0.3 1,0.9 1,2.1 0.2,3.9 -0.8,1.5 -1.5,1.5 -3.2,0 z m 2.2,-1.5 c 0,-0.8 -0.2,-1.5 -0.3,-1.6 -0.5,-0.3 -2.2,0.5 -2.2,1 0,0.5 1.9,2.5 2.3,2.2 0.1,-0.1 0.2,-0.9 0.2,-1.6 z m 3.6,-3.2 c -1.7,-1.8 -2.3,-6.4 -1.1,-7.9 l 0.6,-0.7 1.1,0.7 c 1.4,0.9 3,2.7 3.3,3.7 0.3,1.1 -0.4,3.4 -1.3,4.2 -0.9,1 -1.7,1 -2.6,0 z m 1.7,-0.4 c 0.6,-0.4 1.1,-1.6 1.1,-2.7 0,-0.8 -0.3,-1.3 -1.3,-2.3 -1.9,-1.8 -2.4,-1.7 -2.1,0.6 0.2,1.9 1.2,4.6 1.7,4.6 0.2,0 0.4,-0.1 0.6,-0.2 z m -10.5,-1.6 c -0.1,-0.1 -0.9,-1 -1.2,-2.1 v -2.3 l 0.8,-0.7 c 1,-0.9 2.3,-1.2 3,-0.8 0.6,0.4 1.9,3.7 1.9,4.8 0,0.5 -0.2,0.8 -0.8,1 -0.9,0.4 -3.5,0.4 -3.7,0.1 z m 2.9,-1 c 0.3,-0.2 0.3,-0.6 -0.1,-1.9 -0.5,-1.8 -0.9,-2.1 -2,-1.6 -0.7,0.3 -1.2,0.4 -1,1.8 0.1,0.8 0.8,1.6 0.9,1.8 0.1,0.2 1.7,0.2 2.2,-0.1 z m -4.6,-7.3 c -0.5,-1.3 1.6,-6.3 2.6,-6.4 1.2,-0.2 1.5,0.4 1.7,2.7 0.1,1.5 0.3,2.3 0.6,2.5 0.8,0.6 0.2,1.3 -1.4,1.5 -2.4,0.3 -3.3,0.3 -3.5,-0.3 z m 3.6,-0.9 c 0,0 -0.1,-0.6 -0.2,-1.2 -0.2,-0.6 -0.3,-1.5 -0.3,-2.1 0,-0.9 -0.1,-0.8 -1,1 -1.2,2.6 -1.2,2.8 0.3,2.5 0.6,-0.1 1.2,-0.2 1.2,-0.2 z m 4,-1 c -2.1,-1.9 -2.5,-2.9 -2,-3.9 0.6,-1 1.4,-1.1 3.5,-0.2 1.1,0.4 2.2,0.8 2.6,0.8 0.7,0 2,1.4 2,2.1 0,0.2 -0.5,1 -1.2,1.7 -1.7,1.8 -2.5,1.7 -4.9,-0.5 z m 4.2,-0.1 c 0.5,-0.5 0.9,-1.1 0.8,-1.3 -0.1,-0.2 -0.9,-0.5 -1.8,-0.6 -0.9,-0.1 -2,-0.6 -2.5,-0.8 -1.2,-0.6 -1.9,-0.6 -1.9,0 0,0.6 3.4,3.7 4,3.7 0.2,-0.1 0.8,-0.5 1.4,-1 z m -4.2,-6.7 c -0.8,-0.3 -1.6,-1.1 -1.6,-1.7 0,-0.7 2.4,-2.9 3.2,-2.9 0.7,0 2,2.1 2,3.2 -0.1,1.2 -2.1,2 -3.6,1.4 z m 2.2,-1.2 c 0,-0.1 -0.2,-0.6 -0.4,-1.1 l -0.4,-1 -0.9,0.8 c -1.1,0.9 -0.8,1.5 0.7,1.5 0.5,0 1,-0.1 1,-0.2 z m 7.3,20.5 c 0.2,-0.4 0.2,-0.8 0.1,-0.8 -0.4,0 -1.7,1.5 -1.5,1.7 0.4,0.3 1,-0.1 1.4,-0.9 z m -26.1,-6.2 c 0.4,-0.3 1.1,-0.9 1.5,-1.2 0.7,-0.5 0.7,-0.7 0.4,-1.7 -0.7,-1.8 -0.3,-2.7 1.4,-3.1 0.8,-0.2 1.6,-0.3 1.9,-0.2 0.5,0.2 1.1,1.2 1.3,2.2 0.1,0.4 0.2,-0.1 0.2,-1 0.1,-2.6 0.9,-4.7 2.8,-7.2 1,-1.3 1.7,-2.5 1.7,-2.6 0,-0.2 -0.4,-0.6 -0.9,-0.9 -0.5,-0.3 -1.2,-0.9 -1.5,-1.4 -0.7,-1 -0.3,-2 1.1,-2.8 1.2,-0.7 1.9,-0.7 3.2,0.3 1.3,1 2.2,1 2.2,0.2 0,-1.1 0.9,-1.7 2.5,-1.6 1.5,0.1 1.6,0 1.2,-1.1 -0.6,-1.5 3,-2.2 4.3,-0.9 0.4,0.4 0.7,0.6 0.8,0.6 0.1,0 0.4,-0.5 0.7,-1.2 0.3,-0.7 0.9,-1.6 1.4,-2.2 l 0.9,-1 -0.7,-1.4 c -0.4,-0.9 -0.8,-2.8 -1,-5 -0.3,-3.1 -0.5,-3.7 -1.1,-4.3 -1.9,-1.8 -1.4,-4.1 0.9,-4.1 0.7,0 1,-0.4 2.2,-3.8 0.9,-2.5 0.9,-2.5 0.3,-3.2 -0.6,-0.6 -0.6,-0.6 0.5,-3.1 0.9,-2 1.3,-2.5 1.9,-2.5 0.4,0 0.9,0.2 1.1,0.5 0.6,0.7 1.1,0.6 1.7,-0.3 l 0.5,-0.8 -2.2,-0.7 c -3.8,-1.2 -6.5,-1.4 -9.6,-1 -5.6,0.7 -9.4,2.7 -13.7,7 -1.8,1.8 -2.6,2.9 -3.8,5.3 -0.9,1.9 -1.6,3.6 -1.7,4.6 -0.1,0.9 -0.5,2.6 -0.9,3.9 -0.6,2.1 -0.8,2.3 -1.7,2.5 -2.2,0.5 -4.3,2.8 -4.3,4.9 0,0.5 -0.5,1 -1.7,1.8 -1,0.6 -1.9,1.4 -2.1,1.7 -0.2,0.3 -0.1,1.8 -0.1,3.2 0,1.9 -0.1,2.7 -0.6,3.5 -0.8,1.4 -1.3,1.6 -5,2.3 -1.7,0.3 -4.2,1 -5.5,1.5 -2.2,0.8 -2.8,0.9 -7.2,0.9 H 72 l -0.1,1 c 0,0.5 0,1.1 0.2,1.3 0.2,0.3 3.7,2.2 7.8,4.3 2.1,1 6.9,2.7 8.9,3 1.3,0.2 1.4,0.2 1.4,-0.6 0,-0.6 -0.2,-0.8 -0.6,-0.8 -1.1,0 -8.6,-2.6 -9.5,-3.3 -2,-1.6 0.3,-2.4 4.5,-1.6 0.9,0.2 3.3,0.5 5.3,0.8 5.3,0.7 6.8,1.6 8.5,5.1 0.6,1.2 3.8,4.7 4.3,4.7 0,0.1 0.4,-0.2 0.8,-0.5 z m -4.2,-5 c -1.1,-1.2 -0.9,-3.4 0.4,-3.4 0.6,0 2.5,2 2.5,2.7 -0.1,1.6 -1.7,2 -2.9,0.7 z m 1.2,-0.8 c 0,-0.4 -0.9,-1.1 -1.2,-0.9 -0.2,0.2 0.5,1.2 0.9,1.2 0.2,0 0.3,-0.1 0.3,-0.3 z m 2.2,-3 c -0.6,-0.6 -1.4,-5.5 -0.9,-6 1,-1 4.9,3.1 4.9,5.1 -0.1,1.2 -3.1,1.8 -4,0.9 z m 2.2,-1.2 c 0.4,-0.6 -0.1,-1.8 -1.2,-3 -0.5,-0.6 -1.1,-1.1 -1.3,-1.1 -0.2,0 0,0.8 0.4,1.8 0.4,1 0.7,2 0.8,2.2 0.1,0.5 1,0.6 1.3,0.1 z m -7.6,-0.8 c -1,-0.9 -1.3,-1.4 -1.3,-2.2 0,-2.4 3.5,-2.3 4.6,0 0.7,1.4 0.6,1.9 -0.1,2.7 -0.9,0.9 -1.7,0.8 -3.2,-0.5 z m 2.3,-0.7 c 0,-0.5 -1.3,-2 -1.8,-2 -0.6,0 -0.6,0.4 0.2,1.4 0.6,0.8 1.6,1.2 1.6,0.6 z m 8.1,1.1 c -0.8,-0.8 -2,-3.1 -2,-3.6 0,-0.4 2.6,-1.4 3.5,-1.4 1.4,0 2.1,2.8 1.3,4.9 -0.4,1.1 -1.9,1.2 -2.8,0.1 z m 1.8,-0.9 c 0.2,-0.4 0.3,-1.1 0.3,-1.7 -0.1,-0.9 -0.2,-1 -1.2,-1 -0.6,0 -1.2,0.1 -1.3,0.2 -0.3,0.3 1.1,3.1 1.5,3.1 0.2,0.1 0.5,-0.2 0.7,-0.6 z m -23,0 C 84,49 83.4,48.7 83.7,47.9 c 0.4,-1 2.4,-1.5 5.9,-1.5 4.1,0 5.3,0.5 5.2,2.1 l -0.1,1 h -2.9 c -1.7,0.1 -4,0 -5.3,-0.2 z m 6,-1.2 c 0,-0.4 -3.8,-0.7 -5.5,-0.5 -0.8,0.1 -1.4,0.3 -1.3,0.5 0.2,0.4 6.8,0.4 6.8,0 z m 10.5,-5 c -0.8,-0.8 0.5,-3.9 1.9,-4.6 0.9,-0.5 2.2,0 3.5,1.3 1,1.1 1,1.8 -0.2,2.6 -0.8,0.6 -4.8,1.1 -5.2,0.7 z m 4.4,-1.8 c 0.3,-0.3 -1.4,-1.6 -1.9,-1.5 -0.6,0.2 -1.6,1.7 -1.4,2.1 0.2,0.3 2.9,-0.2 3.3,-0.6 z m -10.6,0.2 c -1.2,-1.2 -0.9,-3.3 0.7,-4.8 1.1,-1 2.2,-1 3.2,0 0.9,0.9 1,2.2 0.3,3.8 -0.8,1.9 -2.8,2.4 -4.2,1 z m 2.4,-1.6 c 0.9,-1.1 0.9,-2 0,-2 -0.7,0 -1.9,1.2 -1.9,1.9 0,1.2 1,1.2 1.9,0.1 z m 10.5,-0.7 c -0.5,-0.3 -1.6,-1.3 -2.4,-2.1 -1.2,-1.3 -1.4,-1.7 -1.2,-2.5 0.3,-1.3 1,-2.1 2.1,-2.3 1.5,-0.3 2.6,0.4 3.7,2.7 1.2,2.4 1.3,3.3 0.4,4.2 -0.7,0.7 -1.4,0.7 -2.6,0 z m 2,-1.3 c 0,-0.6 -1.7,-3.8 -2.2,-4.1 -0.7,-0.4 -1.9,0.2 -2.1,1 -0.2,0.6 0,1 0.6,1.6 1.6,1.8 3.7,2.7 3.7,1.5 z m 3,-0.3 c -0.4,-0.5 -0.8,-1.3 -1,-2 -0.3,-0.9 -0.3,-1.2 0.1,-1.6 0.4,-0.4 0.7,-0.4 1.7,-0.1 1.4,0.5 3.4,2.1 3.4,2.9 -0.1,1.7 -3.1,2.3 -4.2,0.8 z m 2.5,-0.4 c 0,-0.4 -1.3,-1.5 -2.2,-2 l -0.7,-0.4 0.7,1.3 c 0.5,1 0.9,1.3 1.5,1.3 0.3,0.1 0.7,0 0.7,-0.2 z m 7.2,-2.6 c -1.2,-1.1 -2.8,-3.9 -2.8,-5 0,-2.8 4.3,-1.6 5.8,1.6 0.8,1.8 0.8,2.6 -0.2,3.6 -1,1 -1.5,1 -2.8,-0.2 z m 2.4,-0.4 c 0.3,-0.4 0.2,-0.7 -0.3,-1.7 -1.3,-2.6 -3.9,-4.3 -3.9,-2.6 0,1.3 2.5,4.8 3.5,4.8 0.2,-0.1 0.4,-0.3 0.7,-0.5 z m -25.3,-0.9 c -1.2,-1.2 -0.7,-3.1 1,-4 0.9,-0.5 1,-0.5 1.7,0 1.7,1.1 1.7,2.5 0.1,3.8 -1.1,1.1 -2,1.1 -2.8,0.2 z m 2.8,-0.7 c 0.9,-0.9 0,-2.5 -1.2,-1.9 -0.3,0.2 -0.7,0.6 -0.8,0.9 -0.4,1.1 1.2,1.9 2,1 z m 12.1,0.1 c -0.9,-0.3 -1.9,-0.6 -2.3,-0.6 -1.1,0 -2.3,-0.7 -2.5,-1.4 -0.3,-0.8 0.6,-2.1 1.6,-2.4 0.5,-0.1 1.2,0 1.7,0.2 0.5,0.2 1.7,0.5 2.8,0.7 3,0.4 4.3,1.7 3.2,3.4 -0.7,0.9 -2.2,1 -4.5,0.1 z m 3,-0.6 c 0,-0.4 -0.9,-0.9 -2.4,-1.1 -0.7,-0.1 -1.8,-0.6 -2.5,-1 -1.1,-0.7 -1.2,-0.7 -1.7,-0.3 -0.7,0.7 -0.6,1.1 0.4,1.2 0.5,0.1 2,0.4 3.3,0.8 3,0.8 2.9,0.8 2.9,0.4 z m -12.6,-3.6 c -1.8,-1.4 -0.6,-3.6 1.9,-3.6 2,0 3,1.9 1.8,3.5 -0.6,1 -2.5,1 -3.7,0.1 z m 2.9,-1.1 c 0.3,-0.7 -0.5,-1.4 -1.4,-1.4 -1,0 -1.4,0.9 -0.6,1.5 0.8,0.6 1.8,0.5 2,-0.1 z m 5.2,0 c -1.1,-0.6 -1.4,-1.6 -0.7,-2.6 0.5,-0.8 0.7,-0.8 2.6,-0.7 1.6,0.1 2.2,0.3 2.5,0.7 0.6,0.9 0.6,1.4 -0.3,2.3 -1,0.9 -2.7,1.1 -4.1,0.3 z m 3.2,-1.2 c 0,-0.5 -0.7,-0.8 -1.8,-0.8 -0.8,0 -1.3,0.5 -1,1 0.4,0.4 2.8,0.3 2.8,-0.2 z m 5.1,-0.4 c -1.1,-0.2 -1.9,-1 -2.1,-2.4 -0.2,-1.3 0.1,-1.8 1.2,-2 1,-0.3 2.4,0.8 3.3,2.5 1.1,1.8 0.5,2.3 -2.4,1.9 z m 1.3,-1.4 c 0,-0.2 -0.5,-0.9 -1.1,-1.5 -0.8,-0.8 -1.2,-1 -1.5,-0.8 -0.6,0.6 0,1.9 1.1,2.2 1.4,0.5 1.5,0.5 1.5,0.1 z M 117,22.5 c -1.1,-0.6 -2.2,-2.6 -2,-3.5 0.2,-1 1.6,-1.2 3,-0.5 1.1,0.5 1.3,0.8 1.6,2.2 0.2,0.8 0.3,1.7 0.2,2 -0.2,0.6 -1.6,0.5 -2.8,-0.2 z m 1.8,-1.1 c 0,-1 -0.9,-2.1 -1.9,-2.2 -1.6,-0.2 -0.9,1.9 0.8,2.6 0.9,0.5 1.1,0.4 1.1,-0.4 z m -10.3,0.7 c -0.7,-0.7 -0.6,-1.9 0.2,-3.6 0.6,-1.1 0.9,-1.3 1.9,-1.1 1,0.2 1.7,1.7 2,3.7 l 0.2,1.6 H 111 c -1.4,0.1 -2,-0.1 -2.5,-0.6 z m 2.8,-0.7 c 0.2,-0.6 -0.7,-2.8 -1.2,-2.7 -0.5,0.2 -1,2 -0.8,2.6 0.2,0.6 1.8,0.7 2,0.1 z m 10.4,-2.5 c -0.7,-0.7 -0.4,-2 0.6,-3.4 1.2,-1.7 2.1,-1.7 3,0 0.7,1.4 0.4,2.2 -1.2,3.2 -1.2,0.7 -1.8,0.7 -2.4,0.2 z m 2.4,-1.4 c 0.7,-0.7 0.8,-0.9 0.4,-1.5 -0.7,-1.1 -1.1,-1 -1.6,0.4 -0.9,2 -0.3,2.5 1.2,1.1 z m 3.1,-1.9 c 0.1,-1.7 1,-2.6 2.5,-2.8 0.7,-0.1 0.8,0.1 0.9,0.9 0.1,1.5 -1.1,3.2 -2.4,3.3 l -1,0.1 z m 2,-0.5 c 0.6,-1.1 0.4,-1.6 -0.4,-1 -0.6,0.4 -0.9,2 -0.4,2 0.1,0 0.5,-0.5 0.8,-1 z M 110.9,16 c -0.6,-0.6 -0.5,-1.2 0.6,-2.5 0.6,-0.7 1.4,-1.6 1.9,-2.2 0.5,-0.6 1.1,-1 1.3,-1 0.3,0 1.1,0.5 1.9,1.1 1.2,0.9 1.4,1.2 1.5,2.3 0.1,2 -0.6,2.5 -4,2.6 -2.1,0.1 -3,0 -3.2,-0.3 z m 5.9,-1.3 c 0.5,-0.6 0,-1.5 -1.1,-2.2 -0.8,-0.5 -0.8,-0.5 -1.9,0.8 -0.6,0.7 -1.1,1.4 -1.1,1.6 0,0.4 3.7,0.2 4.1,-0.2 z m 2.8,-2.5 C 118.8,11 118.1,9 118.3,8.6 c 0.3,-0.7 3.1,-1.8 4.3,-1.6 0.9,0.1 1.2,0.2 1.2,0.9 0.3,2 -1.6,5.1 -3,5.1 -0.4,-0.1 -0.9,-0.4 -1.2,-0.8 z m 2.5,-2.1 c 1,-2 0.7,-2.4 -1.3,-1.7 -1.2,0.4 -1.2,0.6 -0.5,1.9 0.7,1.3 1.1,1.2 1.8,-0.2 z m 3,2.2 c 0,-0.1 0,-1.4 0,-2.8 0,-1.8 0.2,-2.7 0.6,-3.1 0.7,-0.7 2.7,-0.7 3.5,0 1.2,1.2 -0.3,4.6 -2.4,5.7 -1,0.5 -1.6,0.6 -1.7,0.2 z m 3.4,-3.9 c 0.2,-1 -0.5,-1.7 -1.7,-1.7 -0.7,0 -0.7,0.1 -0.7,1.7 0,1 0.1,2 0.2,2.3 0.2,0.5 0.3,0.4 1.1,-0.5 0.5,-0.5 1,-1.3 1.1,-1.8 z m 0.6,48.6 c -0.3,-1 -0.3,-1 -0.3,-0.2 0,1 0.3,2.2 0.5,1.6 0,-0.2 -0.1,-0.8 -0.2,-1.4 z m -21,0.2 c 1.1,-0.8 0.8,-1.7 -0.6,-1.7 -0.6,0 -1.2,1 -1.1,1.6 0.3,0.7 0.8,0.7 1.7,0.1 z M 91.9,56.4 c 0,-1 -0.5,-1.3 -0.8,-0.5 -0.2,0.6 0.1,1.4 0.5,1.4 0.1,0.1 0.3,-0.4 0.3,-0.9 z M 70.5,48.2 c 0.2,-0.6 0.2,-1 0,-1.3 -0.5,-0.7 -0.9,-0.2 -0.9,1 -0.1,1.3 0.4,1.5 0.9,0.3 z m 45.3,-4.7 c 0.7,-0.7 0.4,-1.8 -0.6,-2.1 -0.8,-0.3 -1,-0.2 -1.6,0.5 l -0.7,0.9 0.7,0.6 c 0.9,0.6 1.7,0.7 2.2,0.1 z m 5.3,-3.3 c -0.2,-0.1 -0.6,-0.1 -0.8,0 -0.2,0.1 0,0.2 0.4,0.2 0.4,-0.1 0.6,-0.1 0.4,-0.2 z m 3.9,-2 c 0.2,-0.4 -0.4,-0.4 -1.3,0 -0.6,0.2 -0.5,0.3 0.2,0.3 0.5,0 1,-0.2 1.1,-0.3 z M 96.8,30.1 C 97,29 96.9,28.6 96,27.6 94.9,26.2 93.5,23.4 93.3,22 c -0.1,-0.7 0,-1.2 0.7,-2 1.2,-1.4 2.8,-1.8 6.5,-1.5 l 2.9,0.2 0.3,-1.2 c 0.2,-0.7 0.2,-1.3 0.1,-1.4 C 103.7,16 102,15.8 100,15.8 96.8,15.7 96.3,15.6 94.3,14.7 93.1,14.1 90.6,12.6 88.7,11.3 84.8,8.6 85,8.6 83.6,11.3 l -0.7,1.3 2.2,1.7 c 4.7,3.7 5.3,4.5 7.1,10 1,3 2.5,6.5 3.3,7.4 0.5,0.6 1.1,-0.1 1.3,-1.6 z m 3.6,-4.3 c 1.5,-0.5 2.6,-2.3 2.7,-4.2 v -1.3 l -1.6,-0.4 c -1.8,-0.4 -5.2,-0.3 -5.9,0.3 -1,0.8 -0.3,3.6 1.7,6.6 l 0.5,0.7 0.7,-0.7 c 0.4,-0.2 1.2,-0.7 1.9,-1 z M 129,21.1 c 0.1,-0.6 0,-0.9 -0.4,-0.9 -0.6,0 -1,0.8 -0.7,1.5 0.2,0.8 0.9,0.4 1.1,-0.6 z M 82.1,10.1 C 83,8.8 83.2,7.3 82.5,7.5 82,7.7 80.7,10 80.7,10.7 c 0,0.9 0.5,0.7 1.4,-0.6 z M 133.6,9.6 134.5,8.3 133.8,7.6 133.2,7 v 0.7 c 0,0.4 -0.3,1.3 -0.6,2 -0.4,0.7 -0.6,1.3 -0.6,1.4 -0.1,0.4 0.8,-0.3 1.6,-1.5 z"
           class="st4"
           id="path2058"
           inkscape:connector-curvature="0"
           style="fill:#1a1a1a" /><path
           d="m 144.4,183.5 c -2.5,-0.7 -5,-1.8 -7.1,-3.4 l -1.9,-1.5 -1.4,1.1 c -5.8,4.5 -14.6,5.1 -22.2,1.5 -5.2,-2.5 -8.5,-6.5 -11.6,-14.3 -0.3,-0.7 -0.7,-0.9 -2.2,-1.2 -6.9,-1.4 -12.9,-6.6 -16.9,-14.6 -0.5,-0.9 -0.9,-1.7 -1,-1.7 -0.1,0 -0.4,0.9 -0.8,2 -1.9,5.2 -4.7,8.5 -9.2,10.7 l -2.5,1.2 -3.5,0.7 c -4.4,0.1 -6.6,-0.6 -8.5,-1.2 -2.4,-0.8 -4.5,-1.8 -7.2,-3.4 l -1.9,-1.1 -3.1,0.8 c -7.3,1.8 -13,0.1 -18.8,-5.6 -2,-2 -2.8,-3.1 -3.8,-5.1 -0.7,-1.4 -1.4,-2.9 -1.6,-3.4 -0.4,-0.8 -0.9,-1.1 -5,-3 C 7.1,138.7 1.7,130.4 0.5,120.7 -0.1,115.8 1.1,109.8 3.2,107 l 0.9,-1.1 -1,-1.2 c -0.5,-0.7 -1.4,-2.6 -2,-4.2 -0.9,-2.8 -1,-3.4 -1,-6.9 0,-6.3 1.6,-11.3 4.7,-14.7 1.3,-1.4 1.5,-1.9 2,-4.3 1,-5.1 4.1,-9.7 8,-12.1 1.5,-0.9 4.8,-1.9 7.9,-2.5 0.9,-0.1 1.5,-0.6 2.8,-2.3 3.2,-3.9 7,-6.4 11.1,-7.5 0.9,-0.2 4.1,-0.5 7.2,-0.6 l 5.6,-0.2 -2.9,-1.5 C 42.3,45.7 37.6,43 34.8,41 c -1.4,-0.9 -2.6,-1.7 -2.7,-1.7 -0.1,0 -0.6,0.5 -1.2,1 -2.3,2.3 -7.6,3.6 -11.7,2.9 C 18,43 16.1,42.4 15.1,41.9 9.7,39.2 7.1,31.9 9.4,25.7 L 10.2,23.5 9.4,22.7 C 8,21.2 7,19.4 7,18.4 7,16.2 9.7,13.2 18.7,5.1 21.5,2.6 24.2,0.4 24.6,0.2 25.3,-0.1 25.5,0 27,1.8 c 3.1,3.6 8.6,8.8 12.5,11.8 4.2,3.1 8.5,5.7 9.8,5.7 0.4,0 1.4,-0.6 2.4,-1.6 0.9,-0.9 3.5,-2 4.5,-2.5 3,-1 2,-1 5,-1 4,0 4.7,0.5 6,1 1.8,0.8 4.8,4.1 5.4,5.7 0.4,0.9 0.7,1.1 2.7,1.7 5.2,1.5 8.1,4.9 9.3,10.5 0.3,1.3 0.4,3 0.6,3.1 0.2,0.2 1.6,0 2.9,0.1 1.3,0.1 3,0.4 4,0.7 1.7,0.6 1.8,0.6 1.9,1.8 0.1,1.2 0.1,1.2 -1,1 -0.6,-0.1 -2.8,-0.6 -5,-1.2 -2.2,-0.5 -4,-1 -4,-1 -0.1,0 -0.5,0.7 -1.1,1.5 -1.1,1.7 -2.5,2.9 -4.7,4.1 -1.5,0.8 -1.7,0.8 -4.6,0.6 -1.7,-0.1 -3.4,-0.4 -3.9,-0.7 -0.5,-0.3 -1,-0.4 -1,-0.4 -1.5,2.8 -3.7,5 -6.1,6.2 l -1.2,0.6 5.9,2 c 5.5,1.9 9.5,2.9 13.2,3.4 5.1,0.7 11.4,3 11.4,4.1 0,0.7 -0.4,0.6 -3.5,-0.4 -1,-0.3 -2.4,-0.7 -3.1,-0.8 -1.3,-0.2 -1.4,-0.2 -1,0.4 0.5,1 2.1,2.2 4.2,3.3 2.4,1.2 3.6,2.5 5.1,5.8 1.1,2.3 1.3,3 1.3,4.9 0,2.8 -0.3,3.5 -2.3,5.5 l -1.6,1.7 2.1,3.2 c 2,3.1 8.6,11.5 14.2,18.1 1.5,1.7 3,3.7 3.5,4.5 l 0.8,1.3 1.2,-2.2 c 2.1,-4 7.3,-8.4 9.9,-8.4 0.6,0 0.7,0.1 0.4,0.5 -0.2,0.3 -0.7,0.5 -1,0.5 -1.7,0 -6.4,4.6 -7.9,7.8 -2.5,5.2 -2.4,10.5 0.4,16 2.4,4.8 8.3,8.8 14.2,9.8 3.1,0.5 7.4,-0.1 9.9,-1.3 3.2,-1.6 6.4,-5.1 8.5,-9.6 0.8,-1.7 1.3,-2.3 2,-2.5 0.5,-0.2 1,-0.3 1.1,-0.2 0.5,0.5 -1.4,4.8 -3.3,7.8 l -1.1,1.7 1.7,2 c 3.4,3.9 4.2,6.2 4.2,11.6 0,4 -0.5,5.9 -2.5,9.2 -1.1,1.8 -1.1,1.9 -0.6,2.5 1.7,1.9 5.4,2.5 10.4,1.9 6.5,-0.9 10,-2.8 13.5,-7.4 2.7,-3.6 4.3,-7.8 4.3,-11.6 0,-5.3 -4.3,-15.6 -7.4,-17.4 -1.3,-0.7 -1.2,-1.1 0.2,-1.3 1.1,-0.2 1.3,0 2.4,1.2 1.6,1.7 3.8,6.1 5.2,10.4 1.1,3.4 1.1,3.4 1,7.7 -0.1,4 -0.2,4.5 -1.2,6.7 -0.6,1.3 -0.9,2.4 -0.9,2.5 0.3,0.3 5.2,-2.8 6.9,-4.5 5.1,-5 6.2,-13.7 2.8,-21.8 -0.5,-1.3 -1.5,-2.9 -2.1,-3.7 -0.9,-1.1 -1.1,-1.4 -0.7,-1.6 1.4,-0.9 2.6,0.5 5.2,5.7 3.8,7.8 3.2,16.3 -1.4,22.4 l -1,1.4 1,2.2 c 1.2,2.8 1.6,3.9 1.8,6.3 0.8,7.6 -3.6,15.8 -10.4,19.2 -3,1.5 -5.2,1.9 -7.9,1.5 -1.4,-0.2 -2.3,-0.2 -2.5,0 -0.2,0.2 -0.9,1.2 -1.4,2.3 -1.6,3 -4.1,7.3 -8.1,9.2 l -3,1 h -6 c -2.9,0 -4,-0.2 -5,-0.5 z m -18.9,-3.6 c 2.9,-0.7 6.3,-2.5 7.7,-4 2.5,-2.8 4.5,-8.6 4.9,-14.3 l 0.2,-3.3 h -0.9 c -0.5,0 -1.8,0.2 -2.8,0.5 -4,1 -7.7,0.4 -12.6,-2 -3.8,-1.8 -6.8,-4.8 -8.8,-8.4 -0.7,-1.3 -1.4,-2.4 -1.6,-2.5 -0.7,-0.3 -2.9,1.1 -4.6,2.8 -3.5,3.5 -4.9,6.7 -4.8,13.4 0.1,4 0.4,4.5 1.7,6.9 1.6,3.3 6.4,8.2 9.2,9.5 3.6,1.9 8.6,2.4 12.4,1.4 z m 31.6,-0.9 c 4.4,-2.2 7,-5.8 8.1,-9.6 1.2,-4.1 1.4,-9.3 0.5,-13.6 -0.4,-1.9 -0.4,-1.9 -3.6,-1.2 -6.3,1.4 -11.5,0.8 -14.7,-1.8 l -0.9,-0.7 -1.6,1.5 c -0.9,0.8 -2.4,2 -3.3,2.6 l -1.7,1.1 -0.2,5 c -0.2,5 -0.7,7.3 -2.3,11.5 l -0.6,1.5 1.1,1.2 c 1.4,1.4 4.3,2.9 6.8,3.5 1.2,0.3 3.3,0.4 5.6,0.4 3.4,-0.2 4.8,-0.4 6.8,-1.4 z m 17.8,-11.4 c 6.4,-2.4 11,-8.7 11,-15.2 0,-3.2 -1.4,-8.8 -2.2,-8.8 -0.1,0 -1.9,0.7 -3.9,1.6 -2,0.9 -4,1.6 -4.4,1.6 -0.5,0 -1.6,0.8 -3.2,2.3 -1.4,1.3 -3,2.7 -3.6,3.1 l -1.2,0.7 0.5,1.3 c 0.4,1.1 0.5,2.5 0.5,7.4 0,5 0.1,6.1 0.5,6.3 0.8,0.6 4,0.4 6,-0.3 z m -74.7,-7.2 c 0.5,-3 1.6,-7 2.3,-8.6 0.4,-0.9 1.4,-2.3 2.2,-3.3 l 1.5,-1.7 -0.7,-0.4 c -0.4,-0.2 -1.7,-1 -3,-1.6 -4,-2.1 -7.8,-5.8 -9.6,-9.1 -1.2,-2.3 -2.2,-5.7 -2.6,-8.5 -0.1,-1.1 -0.4,-1.8 -0.6,-1.8 -0.6,0 -3.3,2.2 -4.8,3.9 -2.6,3 -4.5,8.8 -4.2,12.4 0.5,5.3 3.5,11.4 7.4,15.3 3.5,3.4 7.1,5.3 10,5.1 l 1.8,-0.1 z m -32.1,-0.9 c 4.4,-1.8 7.3,-5.1 9,-10 1,-2.8 1.3,-6.2 0.7,-6.8 -0.3,-0.3 -0.7,-0.1 -1.6,0.5 -3.2,2.1 -7.6,2.8 -15,2.2 -2.3,-0.2 -3.7,-0.2 -3.9,0 -0.2,0.2 -1,1.3 -1.7,2.6 -0.8,1.4 -2.3,3.3 -4,4.9 -1.5,1.4 -2.7,2.7 -2.7,2.8 0,0.6 4.4,3.6 6.5,4.4 1.4,0.5 1.9,1.1 5.7,1 4,-0.2 5.1,-0.8 7,-1.6 z m 67.3,-2.8 c 4.9,-1.2 9.2,-4.5 11.8,-9 1.9,-3.2 2.3,-4.9 2.1,-9.1 -0.1,-3.2 -0.2,-3.8 -1.1,-5.6 -0.6,-1.1 -1.7,-2.7 -2.6,-3.6 l -1.6,-1.6 -1.9,1.5 c -4.4,3.3 -9.9,4.1 -16.3,2.4 -2.7,-0.7 -4.6,-1.6 -7.5,-3.6 l -2.1,-1.4 -0.8,1 c -4.1,5.3 -4.5,14.3 -0.9,20.4 1.1,1.9 4,4.9 5.9,6.1 0.9,0.5 2.7,1.5 4,2.1 2.2,1 2.8,1.1 5.5,1.1 2,0 3.9,-0.2 5.5,-0.7 z m -91.6,-0.8 c 2.7,-0.9 5.1,-2.5 7.1,-4.6 1.7,-1.8 4.3,-5.8 4.3,-6.5 0,-0.3 -0.5,-0.8 -1,-1.2 -0.6,-0.4 -1.8,-1.3 -2.7,-2 -3.3,-2.5 -6.1,-7.3 -6.1,-10.6 0,-1 -0.1,-1.1 -1,-1.1 -0.6,0 -2.2,-0.1 -3.6,-0.2 l -2.6,-0.2 -0.6,1.6 c -0.4,1.1 -1.4,2.3 -3.3,4.3 -2.3,2.3 -3.3,3 -5.8,4.3 -1.7,0.8 -3.6,1.6 -4.2,1.7 -0.7,0.1 -1.3,0.3 -1.3,0.4 -0.3,0.5 1.4,5.3 2.6,7.3 1.9,3.1 5.4,5.6 10,7 3,0.9 5.4,0.8 8.2,-0.2 z m 66.1,-11 1,-0.3 v -4.9 c 0,-4.3 0.1,-5.1 0.8,-7.2 0.5,-1.5 1.3,-3.1 2.3,-4.4 1.5,-1.9 1.5,-2.1 1.1,-2.7 -3.6,-4.9 -4.3,-6.8 -4.6,-13 -0.1,-2.6 -0.4,-4.9 -0.5,-5.2 -0.4,-0.9 -1.5,-1 -3.7,-0.4 -3,0.8 -5.3,2.2 -8.3,5.3 -3.1,3.1 -4.5,5.5 -5.3,8.9 -1.2,5.1 0.3,12.2 3.5,16.2 1.5,1.9 5.9,5.3 9,6.8 2.9,1.3 3.2,1.4 4.7,0.9 z m -40.6,-1.5 c 2.5,-0.6 5.3,-2 7.4,-3.6 1.7,-1.3 1.8,-1.4 1.1,-1.9 -0.2,-0.2 -0.8,-1.2 -1.3,-2.3 -1.2,-2.6 -1.5,-8 -0.7,-11.1 0.5,-2 2.1,-5.6 3,-6.6 0.4,-0.5 0.4,-0.7 -0.3,-1.9 -1.2,-2 -2.5,-3.2 -4.6,-4.3 l -1.9,-1 -2.7,1.8 c -3.1,2.1 -6.2,3.3 -8.8,3.3 h -1.8 v 1 c 0,3.4 -4.9,9.5 -9.2,11.5 -1.2,0.6 -2.3,1.2 -2.5,1.4 -0.4,0.5 0,2.8 0.9,4.8 1.5,3.5 5.7,7 9.8,8.2 4.3,1.3 8.4,1.5 11.6,0.7 z m -44,-4.1 c 3.7,-1.3 9,-5.6 10.8,-8.8 l 0.7,-1.3 -0.9,-0.6 c -5.8,-3.6 -8.8,-6.3 -10.3,-9.4 -1.7,-3.4 -2,-6.6 -1.2,-11.9 l 0.4,-2.8 -1.7,-1.5 c -2.4,-2.3 -2.8,-2.4 -5.1,-2 -2.5,0.5 -6.7,2.2 -8.7,3.5 -4.4,2.9 -6.8,10.3 -5.4,17 1.6,7.7 5.6,13.9 10.9,16.7 3.9,2.1 6.9,2.4 10.5,1.1 z m 55.2,-4.5 c 0.9,-3.1 3.5,-6.9 5.9,-8.8 l 1.8,-1.4 -3.5,-3.5 c -1.9,-1.9 -3.6,-3.4 -3.8,-3.3 -0.7,0.4 -2.4,3.3 -3.1,5.2 -0.9,2.6 -1.1,8.1 -0.3,10.4 0.5,1.6 1.7,3.7 2,3.7 0.2,0.1 0.6,-1 1,-2.3 z m -32.1,-7.5 c 3.5,-1.6 6.4,-4.7 8.1,-8.7 1.1,-2.7 1.1,-2.7 -2,-3.5 -9.3,-2.5 -14.3,-8.4 -15,-17.9 L 39.3,94.8 37.1,95 c -3.9,0.5 -8.2,3.6 -9.9,7.4 -1.2,2.6 -1.8,6.5 -1.7,10.6 0.1,3 0.3,3.8 1,5.4 1.5,3.2 6.5,7.8 10.1,9.2 1.3,0.5 2.2,0.6 5.8,0.5 3.7,0 4.6,-0.2 6,-0.8 z m 42.4,-5.8 c 1.2,-4.8 2.6,-7 6.6,-10.7 3,-2.8 6.2,-4.7 9.1,-5.2 1,-0.2 1.8,-0.4 1.9,-0.5 0.1,-0.1 -0.6,-1 -1.5,-2 -0.9,-1 -3,-3.6 -4.6,-5.7 -1.6,-2.1 -3.7,-4.8 -4.6,-6 -1.7,-2.1 -1.8,-2.2 -3.1,-2.2 -3.7,0 -9.1,4.5 -11.7,9.6 -1.8,3.7 -2.4,6.2 -2.2,9.4 0.4,5.2 2.9,10.1 7,13.3 2.1,1.7 2.6,1.7 3.1,0 z m -11.1,-8.1 c -1.2,-3.5 -1.2,-7.6 0,-11 0.4,-1.3 0.7,-2.5 0.7,-2.6 -0.1,-0.1 -0.5,-0.2 -0.8,-0.2 -0.6,0 -1,0.6 -2.2,3.1 -0.8,1.7 -2.2,4 -3.1,5.1 l -1.6,2 2.2,1.2 c 2.1,1.1 5.4,4.2 5.4,5 0,0.2 0.1,0.3 0.1,0.2 0.1,-0.2 -0.3,-1.4 -0.7,-2.8 z m -14.2,-0.3 c 4.9,-2.5 9.3,-7.5 11.4,-13.2 0.8,-2.1 0.8,-2.4 0.6,-6.2 -0.1,-2.2 -0.4,-4.9 -0.7,-5.9 -1.1,-4.1 -4,-8.1 -7.4,-9.9 -3.6,-1.9 -9.6,-2.7 -13.9,-1.8 -4.1,0.9 -8.7,4.2 -11.6,8.4 -1.4,2 -3.3,7.8 -3.6,10.9 -0.4,4.4 1.9,10.5 5.1,13.4 3.3,3 6.7,4.6 11.6,5.2 3.6,0.6 6,0.3 8.5,-0.9 z m -56.6,-10 c 2.2,-1.6 4.6,-2.6 7.7,-3.2 1.5,-0.3 2.8,-0.7 2.8,-0.9 0,-0.2 -0.2,-1.1 -0.5,-1.9 -0.7,-2.2 -0.6,-8.2 0,-10.5 0.7,-2.4 2.1,-5 3.6,-6.8 l 1.3,-1.6 -0.7,-1.6 c -1,-2.3 -1.2,-2.4 -4.6,-1.7 -3.4,0.7 -8,2.9 -10.4,5.1 -2,1.8 -3.8,5 -4.5,8 -0.6,2.6 -0.6,7.2 0,9.8 0.4,1.8 2,5.4 2.8,6.4 0.3,0.4 0.4,0.4 2.5,-1.1 z m 17.6,-2.7 C 28,97.8 30,96 33,94.5 c 1.8,-0.9 2.6,-1.1 4.1,-1.1 2.2,0 2.7,-0.4 3,-2.1 0.4,-1.9 2,-5.8 3.3,-7.7 0.6,-1 2.2,-2.8 3.5,-4.2 L 49.2,77 48.3,76 c -1.6,-1.7 -3.9,-2.3 -8.4,-2.3 -4.6,0 -7,0.6 -11.4,2.8 -4.5,2.3 -7.6,6.3 -8.5,10.7 -0.6,3 -0.4,7.5 0.3,9.4 0.6,1.6 3.9,6 4.5,6 0.2,0.1 0.9,-0.9 1.7,-2.2 z m 56.3,-4.1 c 2.9,-4.2 6.3,-6.9 9.8,-7.8 1,-0.3 1.9,-0.5 1.9,-0.6 C 94.6,87.8 91.8,83 90.3,80.7 89.9,80 89.8,80 88.2,80.5 84.9,81.4 80.2,80.4 78,78.3 77.6,77.9 76.9,77.1 76.5,76.6 l -0.7,-1 -1.1,1.3 c -1.3,1.4 -1.4,2.4 -0.5,3.2 1,0.9 3.4,4.9 3.9,6.7 0.7,2.1 1.2,6 1.2,8.9 0,1.3 0.1,2.4 0.2,2.6 0.1,0.1 0.6,0.2 1,0.1 0.6,0 1.2,-0.6 2.3,-2.1 z m 4.6,-18.1 c 3.7,-1.1 5.5,-3.6 5.2,-6.9 -0.2,-2.1 -1.5,-5.2 -2.7,-6.5 -1.3,-1.4 -3.8,-2.4 -5.8,-2.4 -4.4,0 -8,4.2 -7.6,8.8 0.3,3.6 1.4,5 5.1,6.7 1.9,0.9 3.6,1 5.8,0.3 z M 73.7,75.8 75.3,74 75.1,71.7 c -0.1,-1.3 0,-3 0.2,-3.9 l 0.4,-1.7 -3.9,-3.8 c -2.6,-2.6 -4,-3.8 -4.4,-3.7 -0.4,0.1 -0.7,0.6 -1,1.5 -1,3.5 -3.4,10.9 -4.1,12.4 -0.4,1 -0.7,1.8 -0.7,1.8 0,0 1.4,0.3 3,0.6 1.9,0.3 3.6,0.9 5,1.6 1.1,0.6 2.2,1.1 2.2,1.1 0.2,0 1,-0.8 1.9,-1.8 z M 31.5,74 c 2,-0.8 2.7,-0.9 7.8,-1 5.1,-0.1 5.7,-0.1 7.1,0.5 0.9,0.4 1.7,0.7 1.9,0.7 0.5,0 2.5,-4.6 3,-7.1 0.6,-2.6 0.8,-12.4 0.3,-14.5 l -0.3,-1.2 h -5.1 c -6,0 -8.6,0.5 -12.8,2.6 -4.3,2.1 -6.9,5.1 -8.6,9.8 -1.2,3.5 -1,9.5 0.6,12.3 0.3,0.5 0.4,0.5 2,-0.4 1.1,-0.4 2.8,-1.3 4.1,-1.7 z m 20.6,2.1 c 1.8,-0.8 4.9,-1.6 6.4,-1.6 1.1,0 1.2,0 2.5,-2.8 2.6,-5.6 5.3,-15.1 4.6,-16.3 -0.9,-1.7 -2.4,-2.6 -6.3,-3.7 -2.1,-0.6 -4.5,-1.2 -5.2,-1.3 l -1.4,-0.2 0.3,3 c 0.4,4.3 0.2,11.5 -0.4,14.3 -0.3,1.3 -1,3.7 -1.6,5.2 -1.2,2.9 -1.4,4.1 -0.7,4.1 0.1,-0.1 1,-0.4 1.8,-0.7 z m -38,-2.4 c 1.7,-0.6 6.6,-1.7 7.4,-1.7 0.1,0 0.1,-1.2 0.1,-2.7 0,-1.5 0.2,-3.5 0.3,-4.5 0.2,-1 0.3,-1.9 0.2,-2 -0.1,-0.1 -1.2,0.2 -2.5,0.6 -4.7,1.5 -8.8,6.2 -9.8,11.3 L 9.6,75.6 10.7,75 c 0.7,-0.3 2.2,-0.9 3.4,-1.3 z M 78.4,63 c 1.3,-1 2.6,-1.7 3.7,-2 0.9,-0.2 1.6,-0.5 1.6,-0.7 0,-0.3 -1.9,-3.1 -2.1,-3.1 -0.3,0 -9.9,-2 -12.1,-2.6 -1.6,-0.4 -2.9,-0.6 -3,-0.5 -0.1,0.1 0.6,1 1.6,2 2.6,2.8 8.1,8.4 8.2,8.4 0,0.1 1,-0.6 2.1,-1.5 z m -11,-5.5 c 0,-0.2 -0.2,-0.3 -0.5,-0.3 -0.3,0 -0.4,0.1 -0.3,0.3 0.1,0.2 0.3,0.3 0.5,0.3 0.2,0.1 0.3,-0.1 0.3,-0.3 z m -5.6,-9.3 c 1.3,-0.5 2.2,-1.1 3.3,-2.4 2.2,-2.4 2.9,-4 2.9,-6.6 0,-2.4 -0.7,-4.1 -2.4,-6 -1.7,-1.9 -3.1,-2.4 -6.3,-2.4 -3.2,0 -5.6,0.7 -7.2,2.1 -2.6,2.3 -3.9,8.3 -2.4,11.3 2,3.9 7.6,5.7 12.1,4 z M 48.5,45.6 c 0,-0.2 -0.2,-1.1 -0.5,-2 -0.3,-0.9 -0.5,-2.2 -0.5,-3 0,-1.9 1.2,-5.3 2.5,-7.2 L 51,31.9 50.5,31 c -0.9,-1.3 -1.6,-4.2 -1.6,-6.7 0,-1.9 0,-2.1 -1,-2.6 C 41.7,18.4 30.8,9.2 27,4.2 26.3,3.3 25.5,2.5 25.3,2.5 c -0.8,0 -13.1,11.4 -14.9,13.9 -0.5,0.7 -0.9,1.6 -0.9,2 0,0.8 2.1,3.3 2.8,3.3 0.2,0 1.2,-0.4 2.1,-0.8 2,-1 4.4,-1.3 7.6,-0.8 4.8,0.7 7.9,3 10.5,7.9 1.2,2.2 1.2,2.3 1.2,5.9 0,3.2 0.1,3.7 0.6,4.1 2.3,1.7 13.4,8.2 14,8.2 0.1,-0.2 0.2,-0.4 0.2,-0.6 z m 28,-3.4 c 2.1,-0.8 4.2,-2.5 5.1,-4.3 0.6,-1.1 0.7,-1.9 0.7,-4 0,-2.4 -0.1,-2.9 -0.9,-4.4 -1.1,-2.2 -3.3,-4.3 -5.5,-5.4 -1.5,-0.7 -2,-0.8 -3.5,-0.7 -3.4,0.4 -5.2,1.6 -6.5,4.3 -0.9,2 -0.8,2.6 1.2,4.9 1.8,2.1 2.2,3.2 2.5,6.9 0.2,2.3 0.3,2.7 0.9,2.9 1.2,0.6 4.2,0.4 6,-0.2 z M 24.4,40.9 c 4.9,-0.9 7.3,-4 7.3,-9.1 0,-2.2 -0.1,-2.9 -0.9,-4.4 -1.1,-2.2 -3.2,-4.2 -5.7,-5.3 -4.2,-1.9 -10,-1 -12.6,2 -1.5,1.8 -2,6.7 -0.9,10.1 0.7,2.4 2.1,4.1 4.1,5.3 2.8,1.6 5.3,2 8.7,1.4 z M 55.3,30 c 1.8,-0.5 2.8,-0.6 4.7,-0.5 1.3,0.1 2.7,0.3 3,0.4 0.4,0.2 0.6,0 0.8,-0.5 1.1,-2.8 1.6,-3.6 2.8,-4.8 0.8,-0.7 2,-1.6 2.8,-1.9 1.9,-0.8 1.8,-1.5 -0.1,-3.4 -1.9,-1.9 -5.1,-3.6 -7,-3.6 -5.8,0 -10.9,3.7 -11.8,8.7 -0.4,1.9 1.2,6.3 2.3,6.3 0.2,0 1.3,-0.3 2.5,-0.7 z"
           class="st4"
           id="path2062"
           inkscape:connector-curvature="0"
           style="fill:#1a1a1a" /><path
           d="m 137.4,117.3 v 0 l -3.3,-1.3 c -5.2,-2.2 -8.6,-7.6 -10,-12.1 -0.4,-1.2 -0.7,-3 -0.9,-4.2 -0.2,-1.8 -0.3,-2.1 -0.9,-2 -4,0.5 -8.2,-0.1 -11.1,-1.7 -3.6,-1.8 -10.1,-7.8 -12,-11.1 -1.3,-2.2 -3.3,-7 -2.7,-9.2 0.4,-1.5 0.7,-1.8 -1.3,-3.5 -0.7,-0.9 -1.8,-3 -2.5,-4.5 -1.5,-3.7 -2,-6.4 -1,-9.4 0.7,-2 2.4,-4.7 3,-4.7 0.6,0 1.4,1.1 0.8,1.4 -0.3,0.2 -1.3,0.8 -2,2.2 -0.5,1.8 -0.9,1.7 -0.8,4.5 0.1,2.8 0.6,3.6 1.4,5.3 0.5,1.1 1.4,2.3 1.8,2.7 l 0.8,0.7 1.5,-2.9 c 1.4,-2.7 2.4,-5.1 5.1,-7.2 1.4,-1.2 6.7,-4.4 6.5,-3.9 0,0 0.1,2.8 -0.8,2.8 -4.8,1.1 -7.9,5 -9.5,8.2 -2.7,5.3 -2.2,11.2 1.2,16.5 2.5,3.8 8,8.6 11.7,10.2 3.3,1.4 7,1.8 9.2,1 1.1,-0.4 1.2,-0.5 1.8,-3 1.2,-4.7 2.6,-7.3 5.5,-10.5 1.2,-0.9 2.4,-2.4 4,0.8 2.1,4.3 7.4,8.2 11.8,9.6 3.9,1.2 9.4,0.5 14,-1.7 3.2,-1.5 6.4,-4.9 8,-8.3 3.7,-7.7 3.4,-14.6 -0.8,-18.6 -1.7,-0.8 -0.6,0.1 -0.1,-1.2 1.1,-0.9 0.6,-1.1 1.6,0.6 2.3,2.4 3.7,6.5 3.3,10 -0.4,3.7 -1.2,6.8 -2.3,9.3 -0.6,1.3 -1.1,2.5 -1.1,2.6 0,0.1 1,0.7 2.2,1.3 2,1 2.4,1.1 5,1 6,-0.1 11.2,-2.2 15.1,-6.1 4.2,-4.2 5.5,-7.7 5.5,-14.8 0,-6.5 -1.3,-9.9 -4.9,-13.4 -3.8,-3.6 -8,-5 -15,-5 -3.3,0 -2.9,-0.6 -2.8,-0.9 -0.8,-1.7 1.7,-0.9 6.1,-0.7 3.3,0.1 4.8,0.9 6.7,1.6 l 2.4,0.9 1.5,-1.7 c 4.7,-5.2 7.1,-13.5 5.6,-19.3 -0.8,-3.3 -2,-5.4 -4.5,-7.8 -3.8,-3.9 -9.4,-6.6 -15,-7.2 -6.2,-0.7 -5.9,-1.1 -6.1,7.9 -0.1,6.5 -0.4,5.6 -0.9,8.6 -1,4.7 -0.9,3 -2.1,2.2 -0.6,-0.4 -1.3,-0.6 0.1,-2 1.2,-1.3 1.8,-6.4 1.2,-11.3 -0.2,-1.7 -0.6,-3.8 -1,-4.6 -0.9,-2.1 -6.1,-7.2 -8.4,-8.3 -4.6,-3 -9,-2.9 -14.3,-1.2 -2.7,1 -4,2 -6.4,4.4 -2.8,2.8 -4.1,5 -5.5,8.9 -1,4.6 -1.6,5.9 -0.9,11.7 0.3,2.2 0.9,2.5 -0.1,4.9 -0.8,-0.1 -1.5,-2 -1.9,-4.5 -1.3,-8.2 1,-16.5 6.3,-22.2 1.8,-1.9 6,-4.8 7.9,-5.4 3.2,-1.1 9.7,-0.9 12.3,-0.2 4.4,1.2 7.8,3.6 11,7.8 l 1.2,1.6 2,-0.5 c 1.4,-0.3 3.2,-0.4 6,-0.3 3.4,0.1 4.4,0.3 6.8,1.1 9.7,3.4 15.3,11 15.3,21 v 3.2 l 2,0.9 c 4,1.8 7.1,5 9.6,10 3.5,7 4,14.1 1.3,20.5 -0.8,2.1 -2.5,5 -3.3,5.9 -0.6,0.6 -0.5,1 0.7,4.4 1.2,3.4 1.2,7.7 0,11.4 -2.2,6.6 -5.7,11.1 -10.7,13.5 -2.3,1.1 -3.4,1.5 -7,2.2 -0.5,0.1 -1.1,0.9 -2.1,2.9 -2,4 -3,5.2 -5.5,6.7 -3.8,2.3 -6.2,3.5 -12.4,3.3 -4.7,-0.1 -5.4,0 -7.5,-1 -1.2,-0.6 -2.7,-2.1 -3.5,-2.8 -0.8,-0.7 -1.5,-1.3 -1.7,-1.3 -0.2,0 -0.8,0.5 -1.5,1.1 -1.5,1.3 -5.1,3.2 -6.7,3.6 -0.6,0.1 -1.1,1.2 -4.1,1.1 h -3.7 z m 12.8,-2.5 c 2.5,-0.8 5.4,-2.7 7,-4.5 1.5,-1.7 3.9,-6.5 4.5,-9.1 0.6,-2.4 0.7,-9.5 0.1,-9.5 -0.2,0 -1.3,0.4 -2.4,1 -5.6,2.7 -11.9,2.8 -17.2,0.5 -3.6,-1.6 -7.1,-4.5 -9.6,-8.2 -2,-2.8 -2.1,-2.8 -3.9,-0.3 -2.6,3.5 -3.9,7.7 -3.9,12.2 0,5.6 1.2,8.8 4.9,12.5 5.1,5.1 8.7,7 15.5,6.7 1.5,-0.2 3.9,-1 5,-1.3 z m 25.2,0.5 c 1.2,-0.3 3,-0.8 4.1,-1.3 3.6,-1.6 7.6,-6.9 9.1,-12.1 0.9,-2.9 0.8,-8.8 -0.2,-12.2 -1,-3.7 -0.9,-3.6 -3.2,-2.6 -3,1.3 -5.9,1.9 -9.9,2 -3.5,0 -3.6,0 -5.9,-1.2 l -2.4,-1.2 -1.6,1.8 -1.6,1.8 -0.1,5.7 c 0,4.1 -0.2,6 -0.6,7.1 -1,3 -1.9,4.9 -3,6.6 -0.6,1 -1.1,2 -1,2.2 0.2,0.6 3.6,2.7 5.3,3.4 2.8,0.7 8,0.6 11,0 z m 19.2,-15.6 c 5.8,-1.8 10.7,-7.4 12.2,-14.1 0.7,-3 0.6,-6.9 -0.1,-8.6 -0.3,-0.7 -0.7,-1.4 -0.8,-1.4 -0.1,0 -1.3,0.7 -2.6,1.6 -2.2,1.5 -5.7,2.9 -7.3,2.9 -1.5,0 -3.1,0.9 -5.4,3 l -2.4,2.2 0.9,2.2 c 1,2.3 1.6,6 1.6,9.6 0,2.3 0.4,3.3 1.3,3.3 0.3,0 1.5,-0.3 2.6,-0.7 z m 4.7,-22.9 c 6.4,-3.3 9.4,-7.7 10.3,-15 0.6,-4.8 -0.8,-11.2 -3.3,-15.7 -2,-3.6 -6.5,-7.5 -8.5,-7.5 -0.6,0 -1,0.5 -2,2.6 -1.4,2.9 -4.1,6.9 -5.3,7.8 l -0.8,0.6 2.3,2.4 c 4.2,4.4 5.4,8.2 5.2,16 -0.1,4.3 -0.2,4.9 -1.1,7.3 -0.6,1.5 -1,2.7 -1,2.8 0.1,0.5 1.8,0 4.2,-1.3 z"
           class="st5"
           id="path2060"
           inkscape:connector-curvature="0" /></g></g></g></svg>